<svg id="svg" version="1.1" xmlns="http://www.w3.org/2000/svg" xmlns:xlink="http://www.w3.org/1999/xlink" width="400" height="266.6666666666667" viewBox="0, 0, 400,266.6666666666667"><g id="svgg"><path id="path0" d="M0.038 15.458 L 0.075 30.917 0.167 20.000 L 0.260 9.083 0.811 7.083 C 1.114 5.983,1.380 5.065,1.402 5.043 C 1.496 4.947,2.916 6.284,3.335 6.862 L 3.793 7.494 3.720 5.705 C 3.679 4.711,3.717 3.814,3.805 3.686 C 4.248 3.043,6.023 4.311,6.771 5.804 L 7.291 6.844 7.489 6.047 C 7.693 5.221,8.788 3.217,9.239 2.842 C 9.575 2.564,10.322 4.077,10.346 5.083 L 10.362 5.750 10.860 4.683 C 11.703 2.874,13.750 1.163,15.554 0.759 L 16.025 0.654 15.536 1.369 C 14.402 3.027,13.831 4.996,13.852 7.167 C 13.873 9.234,13.948 9.414,14.793 9.427 C 15.199 9.433,15.617 9.554,15.799 9.719 C 16.240 10.118,16.333 10.073,16.335 9.458 C 16.337 8.622,17.039 7.307,17.877 6.569 L 18.636 5.901 18.322 5.492 C 17.646 4.614,17.769 3.049,18.577 2.241 L 18.962 1.856 18.393 1.011 L 17.824 0.167 21.660 0.167 L 25.496 0.167 25.739 0.748 C 26.003 1.382,26.938 1.957,27.410 1.776 C 27.651 1.683,27.631 1.582,27.242 0.919 L 26.802 0.167 31.637 0.167 C 35.342 0.167,36.495 0.215,36.569 0.375 C 36.647 0.542,36.686 0.542,36.764 0.375 C 36.840 0.213,38.519 0.167,44.334 0.167 L 51.808 0.167 52.303 0.583 L 52.797 0.999 52.902 0.583 C 53.039 0.038,54.535 -0.031,55.186 0.477 C 55.404 0.648,55.904 0.950,56.296 1.149 L 57.009 1.511 56.318 2.778 C 55.570 4.149,55.610 4.161,57.031 2.983 C 60.134 0.413,60.486 0.322,60.506 2.083 C 60.517 3.077,60.519 3.081,60.799 2.667 C 60.954 2.438,61.391 1.917,61.770 1.510 L 62.459 0.770 62.706 1.260 C 63.069 1.981,63.165 2.687,62.999 3.422 C 62.813 4.245,62.749 4.228,63.920 3.668 C 65.778 2.778,66.274 2.997,65.554 4.390 C 65.228 5.020,65.260 5.030,66.418 4.637 C 67.495 4.272,68.643 4.289,69.745 4.688 C 70.322 4.896,70.536 5.167,70.125 5.167 C 69.153 5.167,66.555 7.065,65.717 8.388 L 65.313 9.026 65.740 9.422 C 65.975 9.639,66.167 9.937,66.167 10.084 C 66.167 10.300,66.269 10.275,66.708 9.948 C 67.365 9.460,68.198 9.167,68.923 9.167 C 69.406 9.167,69.474 9.107,69.570 8.593 C 69.701 7.896,70.509 7.167,71.150 7.167 L 71.607 7.167 71.817 5.125 C 71.933 4.002,72.055 3.056,72.089 3.022 C 72.296 2.815,73.406 3.272,74.030 3.821 L 74.764 4.467 74.646 3.525 C 74.425 1.756,74.453 1.468,74.825 1.700 C 75.397 2.058,76.047 1.691,76.310 0.863 C 76.587 -0.007,76.600 0.004,77.256 1.707 C 77.762 3.021,77.791 3.057,77.994 2.662 C 78.239 2.185,79.338 1.000,79.534 1.000 C 79.732 1.000,79.681 1.668,79.429 2.375 C 79.306 2.719,79.232 3.000,79.263 3.000 C 79.295 3.000,79.709 2.847,80.182 2.661 C 81.288 2.225,81.298 2.248,80.606 3.622 C 79.834 5.154,77.979 6.657,76.850 6.665 C 76.722 6.666,76.872 6.836,77.184 7.043 C 77.495 7.250,77.861 7.649,77.997 7.929 C 78.151 8.247,78.490 8.544,78.899 8.719 L 79.555 8.999 80.486 8.111 C 81.524 7.121,82.452 6.491,83.350 6.167 L 83.950 5.951 83.933 4.740 C 83.910 3.060,84.277 2.929,85.214 4.282 C 86.186 5.686,86.143 7.546,85.106 8.991 C 83.318 11.483,81.526 15.449,82.645 14.436 C 82.923 14.185,82.970 14.182,83.058 14.409 C 83.264 14.947,84.753 13.832,85.168 12.829 C 85.409 12.248,86.676 12.124,87.757 12.575 L 88.336 12.817 87.827 13.617 L 87.318 14.417 88.284 14.594 C 89.053 14.735,89.175 14.797,88.879 14.896 C 87.963 15.202,87.574 16.476,88.465 16.253 C 88.706 16.192,88.934 16.226,88.999 16.332 C 89.127 16.539,89.864 16.285,90.375 15.859 C 90.535 15.725,90.667 15.683,90.667 15.766 C 90.668 16.255,92.752 15.892,92.922 15.373 C 93.017 15.085,93.145 14.800,93.205 14.739 C 93.365 14.579,93.999 15.684,93.999 16.124 L 94.000 16.497 95.083 16.089 C 96.319 15.624,96.307 15.617,95.750 16.500 C 95.238 17.312,95.238 17.305,95.758 17.503 C 96.839 17.914,97.843 16.841,97.881 15.233 C 97.905 14.181,97.909 14.179,98.593 14.843 L 99.119 15.352 99.630 14.922 C 99.911 14.686,100.308 14.146,100.513 13.722 C 100.811 13.108,100.923 12.999,101.068 13.184 C 101.168 13.312,101.606 13.703,102.042 14.053 C 103.030 14.847,103.085 15.317,102.250 15.833 C 101.515 16.288,101.515 16.456,102.250 16.594 C 103.277 16.787,104.622 16.382,105.441 15.635 C 105.673 15.422,105.837 15.371,105.909 15.487 C 106.102 15.799,106.790 15.682,107.303 15.250 C 108.251 14.452,108.470 14.865,107.678 15.958 C 107.399 16.343,106.897 16.761,106.509 16.933 C 105.661 17.307,105.885 17.657,107.056 17.789 C 108.202 17.918,108.923 17.716,109.602 17.077 C 110.344 16.377,110.333 16.378,110.333 17.008 C 110.333 18.020,110.760 18.536,111.379 18.273 C 111.675 18.148,112.367 17.855,112.917 17.623 C 113.467 17.390,114.253 17.110,114.665 16.999 C 115.077 16.889,115.615 16.655,115.862 16.480 C 116.630 15.933,116.713 16.960,115.995 18.136 C 115.624 18.745,114.342 19.418,113.817 19.281 C 113.391 19.169,113.405 19.565,113.847 20.186 C 114.205 20.689,115.066 21.202,115.879 21.397 C 116.361 21.513,116.384 21.488,116.569 20.638 C 116.623 20.393,116.866 19.956,117.109 19.666 L 117.552 19.140 117.756 19.626 C 118.259 20.820,119.212 21.081,120.642 20.415 C 121.607 19.966,121.730 19.930,121.604 20.134 C 121.336 20.566,120.861 22.003,121.017 21.906 C 121.599 21.547,122.404 18.623,122.209 17.581 L 122.115 17.083 122.683 17.639 C 123.683 18.619,123.737 18.616,124.530 17.544 C 124.920 17.016,125.406 16.377,125.609 16.126 L 125.977 15.668 126.645 16.877 C 127.181 17.848,127.353 18.381,127.518 19.585 C 127.767 21.395,127.743 21.362,128.727 21.227 C 129.970 21.057,130.565 19.444,129.939 17.943 L 129.710 17.397 130.191 17.468 C 130.774 17.554,131.601 17.234,131.900 16.807 C 132.097 16.526,132.130 16.583,132.222 17.358 C 132.337 18.327,132.970 19.167,133.586 19.167 C 133.885 19.167,133.931 19.245,133.871 19.652 C 133.789 20.208,134.278 20.593,134.840 20.415 C 135.232 20.290,135.228 20.259,134.915 21.180 L 134.663 21.919 133.924 21.860 C 132.998 21.786,131.986 22.314,131.569 23.089 L 131.276 23.633 129.971 23.166 L 128.667 22.700 128.667 23.154 C 128.667 24.339,127.095 24.722,125.884 23.832 L 125.203 23.331 124.932 24.532 C 124.552 26.216,124.695 26.340,126.351 25.756 C 127.029 25.517,127.700 25.282,127.843 25.233 C 128.011 25.176,128.172 25.296,128.298 25.572 C 128.532 26.087,129.769 27.454,130.217 27.694 C 130.485 27.837,130.659 27.746,131.273 27.144 C 132.285 26.151,133.166 26.839,133.166 28.625 L 133.167 29.333 132.375 29.334 C 131.940 29.335,130.965 29.383,130.208 29.442 L 128.833 29.549 128.833 30.408 C 128.833 31.867,128.234 31.814,125.529 30.116 C 124.207 29.286,123.906 29.426,124.243 30.714 C 124.903 33.240,127.690 34.250,129.885 32.760 C 130.337 32.454,130.672 32.376,131.519 32.383 C 132.680 32.391,133.303 32.151,134.045 31.409 L 134.500 30.955 134.500 31.580 C 134.500 32.224,135.097 33.500,135.398 33.500 C 135.491 33.500,135.299 33.781,134.970 34.125 C 133.280 35.893,133.815 36.797,136.125 36.078 C 136.490 35.964,136.494 35.974,136.268 36.522 C 135.979 37.224,135.761 38.500,135.931 38.500 C 136.000 38.500,136.185 38.385,136.340 38.244 C 136.571 38.035,136.703 38.024,137.053 38.183 C 137.429 38.354,137.546 38.324,138.004 37.939 C 138.915 37.172,139.128 37.489,138.411 38.545 L 137.988 39.167 138.453 39.167 C 138.709 39.167,139.176 39.093,139.490 39.003 C 140.171 38.808,140.254 38.859,140.008 39.319 C 139.891 39.538,139.883 39.667,139.988 39.667 C 140.080 39.667,140.244 39.501,140.352 39.298 C 140.537 38.952,140.562 38.979,140.752 39.725 C 141.124 41.189,142.167 41.043,142.832 39.432 C 143.561 37.668,143.737 37.296,143.776 37.437 C 144.416 39.761,144.442 39.788,145.483 39.154 C 146.580 38.485,146.402 40.299,145.295 41.075 C 145.031 41.260,144.921 41.512,144.912 41.959 C 144.904 42.302,144.841 42.708,144.770 42.860 C 144.677 43.062,144.741 43.168,145.008 43.252 C 145.487 43.405,145.890 42.996,146.505 41.732 C 146.843 41.038,146.986 40.863,146.992 41.135 C 146.996 41.347,147.075 41.474,147.167 41.417 C 147.258 41.360,147.333 41.431,147.333 41.573 C 147.333 41.967,147.600 41.886,147.981 41.375 C 148.412 40.797,148.473 41.247,148.069 42.027 C 147.591 42.952,148.844 43.253,150.096 42.515 C 150.846 42.072,150.907 42.117,150.586 42.886 C 150.271 43.639,150.263 43.841,150.565 43.410 C 150.932 42.886,151.333 41.348,151.333 40.464 L 151.333 39.656 151.922 40.244 C 152.697 41.019,152.675 41.027,153.698 39.592 C 154.185 38.909,154.622 38.346,154.670 38.342 C 154.801 38.329,156.000 40.714,156.000 40.986 C 155.999 42.889,156.494 43.581,157.562 43.175 C 158.324 42.885,158.692 41.148,158.190 40.211 C 158.010 39.874,158.030 39.859,158.551 39.944 C 158.982 40.014,159.213 39.939,159.617 39.600 C 160.292 39.032,160.333 39.046,160.333 39.846 C 160.333 40.579,161.029 41.500,161.582 41.500 C 161.775 41.500,161.826 41.593,161.756 41.816 C 161.615 42.258,162.112 42.716,162.600 42.594 L 162.985 42.497 162.715 43.225 C 162.449 43.944,162.437 43.952,161.764 43.878 C 160.962 43.791,160.055 44.308,159.693 45.060 C 159.533 45.393,159.392 45.492,159.193 45.412 C 157.643 44.781,157.167 44.681,157.167 44.987 C 157.167 46.256,155.563 46.531,154.390 45.464 L 154.030 45.137 153.838 46.110 C 153.733 46.645,153.615 47.180,153.576 47.298 C 153.443 47.704,153.967 47.688,155.245 47.246 C 155.950 47.003,156.542 46.829,156.562 46.860 C 157.220 47.911,158.396 49.152,158.743 49.162 C 158.831 49.165,159.182 48.894,159.523 48.561 C 160.236 47.865,160.500 47.896,160.890 48.718 C 161.657 50.334,161.281 50.667,158.683 50.667 L 157.241 50.667 157.303 51.315 C 157.405 52.386,157.124 52.723,156.385 52.414 C 156.054 52.276,155.762 52.182,155.738 52.207 C 155.686 52.259,155.175 53.674,155.121 53.917 C 154.984 54.527,158.177 53.991,158.582 53.335 C 158.642 53.238,158.958 53.209,159.326 53.268 C 160.140 53.398,161.038 53.102,161.764 52.465 L 162.333 51.965 162.333 52.472 C 162.333 53.104,162.553 53.696,162.925 54.068 C 163.196 54.339,163.184 54.383,162.699 54.886 C 162.196 55.408,161.833 56.123,161.833 56.594 C 161.833 56.908,162.585 56.906,163.479 56.591 C 163.857 56.457,164.167 56.373,164.167 56.404 C 164.167 56.434,164.054 56.729,163.917 57.058 C 163.357 58.397,163.671 59.194,164.469 58.458 L 164.876 58.083 164.605 58.617 C 164.455 58.910,164.333 59.200,164.333 59.260 C 164.333 59.395,166.607 59.250,167.125 59.083 C 167.495 58.963,167.496 58.968,167.250 59.559 C 166.693 60.890,167.205 62.093,168.274 61.971 C 168.721 61.920,169.826 59.829,170.417 57.917 C 170.504 57.632,170.552 57.670,170.739 58.173 C 171.196 59.402,171.227 59.833,170.858 59.833 C 170.474 59.833,170.258 60.333,170.420 60.844 C 170.506 61.114,170.644 61.177,171.056 61.136 C 171.889 61.053,171.932 62.268,171.125 63.075 C 169.651 64.549,167.514 64.168,165.502 62.072 C 164.928 61.475,164.445 61.008,164.428 61.035 C 163.395 62.687,163.163 62.729,161.877 61.496 C 160.609 60.281,160.428 60.249,160.542 61.260 C 160.629 62.032,161.174 62.833,161.612 62.833 C 161.976 62.833,161.867 63.129,161.250 63.811 C 160.535 64.602,160.535 64.648,161.250 65.167 C 161.948 65.673,161.959 65.756,161.375 66.077 C 159.791 66.949,159.496 68.117,160.779 68.439 C 161.479 68.615,161.700 68.340,162.583 66.193 C 163.495 63.978,163.587 63.867,163.743 64.792 C 164.202 67.498,164.785 68.469,165.964 68.492 C 166.272 68.499,166.316 68.556,166.196 68.792 C 165.782 69.601,165.983 71.597,166.512 71.924 C 166.767 72.081,167.788 71.231,168.281 70.452 L 168.715 69.763 168.947 70.673 C 169.433 72.575,170.303 73.274,170.586 71.988 C 170.734 71.314,171.000 71.375,171.000 72.083 C 171.000 72.404,171.064 72.667,171.142 72.667 C 171.591 72.667,174.000 70.392,174.000 69.967 C 174.000 69.562,174.302 70.067,174.391 70.621 C 174.688 72.460,176.623 73.485,177.441 72.237 C 177.768 71.737,177.689 71.191,176.851 68.184 C 176.560 67.140,176.343 66.223,176.369 66.147 C 176.425 65.985,180.849 69.417,181.060 69.786 C 181.365 70.318,181.087 71.966,180.568 72.704 C 179.129 74.752,176.978 75.234,173.000 74.400 C 172.584 74.313,172.583 74.314,172.571 75.655 C 172.555 77.341,172.716 77.249,170.300 76.961 C 167.937 76.679,168.066 76.655,168.402 77.305 C 168.915 78.296,170.277 78.854,171.311 78.496 C 171.494 78.432,171.533 78.692,171.509 79.792 L 171.479 81.167 172.114 81.186 C 173.118 81.218,173.813 81.401,173.458 81.541 C 173.297 81.605,173.167 81.830,173.167 82.044 C 173.167 82.275,172.913 82.675,172.542 83.032 C 170.866 84.639,168.681 84.910,166.559 83.772 C 165.215 83.052,164.742 83.067,164.474 83.837 L 164.309 84.310 163.446 83.799 C 162.540 83.263,160.501 82.480,160.312 82.597 C 159.700 82.975,161.329 85.057,162.393 85.256 L 162.972 85.365 162.497 86.423 L 162.022 87.481 162.962 87.691 C 165.044 88.157,164.881 90.297,162.710 91.013 C 162.142 91.201,162.141 91.202,162.479 91.517 C 163.131 92.124,163.095 93.700,162.404 94.783 C 162.276 94.984,162.210 95.254,162.259 95.381 C 162.308 95.509,162.233 95.709,162.091 95.827 C 161.949 95.945,161.833 96.158,161.833 96.302 C 161.833 96.489,161.974 96.428,162.336 96.081 C 162.802 95.634,162.858 95.620,163.112 95.874 C 163.367 96.129,163.440 96.101,164.133 95.491 C 165.676 94.133,166.870 94.906,166.305 96.897 C 166.014 97.924,165.897 97.945,165.593 97.028 C 165.155 95.709,164.293 95.511,164.575 96.794 C 164.676 97.256,164.663 97.266,164.072 97.197 C 163.498 97.130,163.472 97.148,163.590 97.520 C 163.705 97.885,163.692 97.896,163.413 97.665 C 163.129 97.432,163.117 97.450,163.218 97.958 C 163.316 98.452,163.289 98.500,162.912 98.500 C 162.459 98.500,162.361 98.844,162.728 99.148 C 163.167 99.513,162.517 100.514,162.041 100.205 C 161.835 100.071,161.515 100.001,161.329 100.049 C 161.144 100.098,160.778 100.030,160.515 99.899 C 159.940 99.613,159.333 99.790,158.933 100.360 C 158.440 101.064,158.641 101.176,159.458 100.654 L 160.250 100.149 160.407 100.574 C 160.542 100.941,160.665 101.000,161.282 101.000 C 161.983 101.000,162.000 101.013,162.000 101.550 C 162.000 102.310,161.702 102.583,161.284 102.206 C 160.977 101.928,160.945 101.939,160.494 102.479 C 160.052 103.008,159.993 103.030,159.485 102.853 C 158.854 102.633,158.817 102.651,158.938 103.112 C 159.019 103.424,159.080 103.441,159.528 103.272 C 159.951 103.112,160.060 103.128,160.243 103.379 C 160.417 103.616,160.544 103.642,160.893 103.509 C 161.255 103.372,161.357 103.399,161.503 103.672 C 161.615 103.881,161.852 104.000,162.155 104.000 C 162.424 104.000,162.673 104.108,162.727 104.250 C 162.950 104.832,163.605 104.541,163.529 103.893 C 163.461 103.314,163.478 103.290,163.900 103.371 C 164.272 103.442,164.326 103.407,164.243 103.144 C 164.128 102.782,164.430 102.741,165.323 102.997 C 165.733 103.115,165.843 103.110,165.714 102.980 C 165.584 102.851,165.646 102.633,165.933 102.210 C 166.153 101.886,166.333 101.518,166.333 101.393 C 166.333 101.116,166.534 101.101,166.793 101.360 C 166.939 101.506,167.046 101.503,167.233 101.348 C 167.695 100.964,168.417 101.188,168.417 101.714 C 168.417 101.969,168.515 102.238,168.635 102.313 C 168.773 102.399,168.814 102.603,168.746 102.873 C 168.567 103.587,168.968 103.562,169.183 102.846 C 169.292 102.481,169.460 102.198,169.557 102.216 C 169.653 102.235,169.832 101.950,169.953 101.583 C 170.231 100.746,170.913 100.169,171.625 100.167 C 172.195 100.167,172.297 100.303,171.971 100.629 C 171.820 100.780,171.845 100.903,172.077 101.160 C 172.320 101.428,172.339 101.542,172.176 101.739 C 172.064 101.874,171.999 102.119,172.033 102.284 C 172.080 102.522,172.158 102.473,172.416 102.042 C 172.740 101.498,173.058 101.355,173.250 101.667 C 173.423 101.947,173.582 101.857,173.904 101.292 C 174.469 100.302,175.335 99.922,176.236 100.268 C 176.541 100.385,176.634 102.833,176.333 102.833 C 176.242 102.833,176.167 102.773,176.167 102.700 C 176.167 102.199,175.107 101.155,174.855 101.407 C 174.638 101.624,174.627 101.731,174.795 102.000 C 175.109 102.504,175.044 102.667,174.528 102.667 C 173.934 102.667,173.778 102.816,174.042 103.134 C 174.217 103.345,174.190 103.363,173.859 103.258 C 173.509 103.147,173.489 103.168,173.652 103.473 C 173.930 103.993,173.871 104.167,173.417 104.167 C 172.926 104.167,172.878 104.393,173.304 104.699 C 173.520 104.854,173.604 105.121,173.595 105.624 C 173.584 106.299,173.460 106.507,173.261 106.185 C 173.211 106.104,172.623 106.037,171.955 106.037 C 170.544 106.037,170.059 106.309,169.893 107.195 L 169.789 107.750 170.487 107.083 L 171.184 106.417 171.484 106.813 C 171.761 107.179,171.829 107.194,172.388 107.009 C 173.117 106.769,173.334 106.874,173.331 107.468 C 173.327 108.160,173.111 108.404,172.699 108.184 C 172.207 107.921,172.176 107.937,171.903 108.590 C 171.600 109.314,171.926 110.074,172.330 109.587 C 172.576 109.291,173.097 109.252,173.260 109.517 C 173.325 109.621,173.580 109.659,173.850 109.605 C 174.211 109.533,174.368 109.587,174.497 109.827 C 174.684 110.177,174.729 110.618,174.560 110.449 C 174.384 110.273,173.811 111.501,173.916 111.830 C 173.999 112.093,173.920 112.131,173.340 112.109 C 172.730 112.086,172.668 112.043,172.668 111.639 C 172.665 110.427,172.007 110.253,171.987 111.458 C 171.962 113.051,171.722 113.434,171.111 112.860 C 170.683 112.457,170.175 112.519,170.154 112.976 C 170.147 113.127,170.049 112.994,169.936 112.682 C 169.625 111.822,168.333 111.613,168.333 112.423 C 168.333 112.776,167.891 112.722,167.620 112.335 C 167.391 112.008,167.383 112.009,167.008 112.408 C 166.636 112.804,166.636 112.810,166.980 112.720 C 167.225 112.656,167.469 112.772,167.790 113.106 L 168.250 113.583 175.187 113.497 C 180.257 113.433,182.189 113.356,182.367 113.208 C 182.622 112.996,197.336 112.879,197.672 113.087 C 197.761 113.141,197.833 113.109,197.833 113.014 C 197.833 112.898,197.973 112.895,198.261 113.004 C 198.505 113.097,200.919 113.168,203.886 113.169 C 206.744 113.171,209.192 113.240,209.324 113.324 C 209.477 113.421,209.691 113.405,209.908 113.281 C 210.292 113.061,210.351 113.048,211.167 113.014 L 211.750 112.989 211.375 112.676 C 210.829 112.221,210.908 112.133,211.750 112.259 C 212.233 112.331,212.500 112.309,212.500 112.197 C 212.500 111.720,214.111 111.883,215.250 112.475 C 215.525 112.618,215.806 112.720,215.875 112.701 C 215.944 112.682,216.000 112.742,216.000 112.833 C 216.000 112.925,216.172 113.000,216.383 113.000 C 216.594 113.000,216.857 113.090,216.967 113.200 C 217.112 113.345,217.217 113.350,217.350 113.217 C 217.516 113.050,229.600 113.062,232.051 113.231 C 232.497 113.262,232.789 113.223,232.710 113.143 C 232.631 113.065,232.189 112.983,231.726 112.962 C 230.556 112.909,230.767 112.163,232.083 111.702 C 232.358 111.605,232.463 111.520,232.317 111.513 C 232.139 111.504,232.046 111.335,232.037 111.002 C 232.019 110.373,232.559 109.931,233.035 110.185 C 233.209 110.279,233.441 110.324,233.551 110.287 C 233.660 110.249,233.284 109.982,232.715 109.693 C 232.145 109.404,231.601 109.023,231.506 108.845 C 231.119 108.122,231.493 107.309,231.934 107.913 C 232.199 108.275,233.844 108.380,233.958 108.042 C 233.999 107.920,233.886 107.833,233.686 107.833 C 233.273 107.833,232.167 107.326,232.167 107.136 C 232.167 107.061,232.288 107.000,232.437 107.000 C 232.659 107.000,232.670 106.955,232.500 106.750 C 232.324 106.539,232.360 106.500,232.733 106.500 C 233.130 106.500,233.162 106.455,233.059 106.042 C 232.956 105.630,232.973 105.606,233.220 105.810 C 233.372 105.935,233.622 105.989,233.776 105.930 C 233.930 105.870,234.113 105.914,234.182 106.025 C 234.280 106.183,234.368 106.179,234.577 106.006 C 234.807 105.814,234.913 105.847,235.322 106.239 C 235.787 106.685,237.136 106.920,237.446 106.610 C 237.672 106.383,237.276 106.250,236.402 106.259 C 235.354 106.269,235.291 106.155,236.057 105.631 C 236.363 105.421,236.585 105.166,236.550 105.063 C 236.515 104.960,236.633 104.837,236.812 104.791 C 237.365 104.646,237.136 103.676,236.252 102.410 C 235.825 101.800,235.501 101.281,235.530 101.257 C 235.858 100.982,236.488 100.833,237.322 100.833 C 238.140 100.833,238.333 100.782,238.333 100.566 C 238.333 100.394,238.244 100.334,238.083 100.399 C 237.946 100.454,237.721 100.546,237.583 100.601 C 237.407 100.672,237.333 100.597,237.333 100.345 C 237.333 100.044,237.283 100.015,237.011 100.161 C 236.709 100.322,235.500 100.409,235.500 100.270 C 235.500 100.235,235.800 99.906,236.167 99.539 C 236.923 98.783,237.064 98.243,236.458 98.421 C 235.661 98.655,235.153 99.499,235.267 100.398 C 235.370 101.206,235.367 101.212,234.935 101.129 C 234.565 101.059,234.500 101.105,234.500 101.440 C 234.500 101.670,234.401 101.833,234.261 101.833 C 234.125 101.833,233.998 102.031,233.966 102.292 L 233.911 102.750 233.565 102.208 L 233.220 101.667 233.008 102.125 C 232.797 102.580,232.794 102.581,232.654 102.211 C 232.555 101.951,232.428 101.871,232.230 101.947 C 231.772 102.123,232.059 100.881,232.608 100.307 L 233.062 99.833 232.474 99.833 C 232.116 99.833,231.790 99.948,231.644 100.125 C 231.299 100.542,230.969 101.241,231.031 101.426 C 231.060 101.512,230.915 101.752,230.708 101.958 C 230.411 102.256,230.333 102.278,230.333 102.068 C 230.333 101.922,230.179 101.762,229.991 101.712 C 229.763 101.653,229.682 101.535,229.748 101.362 C 229.823 101.166,229.760 101.181,229.494 101.423 C 229.148 101.735,229.135 101.736,228.964 101.430 C 228.797 101.132,228.774 101.136,228.479 101.517 L 228.169 101.917 228.065 101.542 C 227.994 101.287,227.834 101.167,227.564 101.167 C 227.123 101.167,227.061 101.009,227.375 100.686 C 227.543 100.513,227.503 100.482,227.167 100.528 C 226.883 100.566,226.733 100.703,226.697 100.958 C 226.637 101.382,226.496 101.428,226.188 101.125 C 226.018 100.958,225.915 100.991,225.668 101.293 L 225.360 101.670 225.014 101.229 C 224.617 100.725,224.583 100.484,224.867 100.200 C 225.126 99.941,224.461 99.920,223.989 100.173 C 223.765 100.292,223.667 100.291,223.667 100.169 C 223.667 100.065,223.497 100.036,223.250 100.098 C 222.743 100.225,222.690 99.926,223.167 99.628 C 223.699 99.296,223.554 99.115,222.833 99.212 C 222.246 99.291,222.167 99.262,222.167 98.965 C 222.167 98.654,222.082 98.633,221.083 98.697 C 220.131 98.757,220.000 98.730,220.000 98.470 C 220.000 98.102,220.741 97.596,221.086 97.728 C 221.292 97.807,221.308 97.765,221.170 97.506 C 220.894 96.990,220.666 96.942,220.269 97.316 C 219.801 97.755,219.667 97.758,219.667 97.328 C 219.667 96.595,218.443 96.706,218.255 97.457 C 218.149 97.877,218.121 97.891,217.926 97.625 C 217.650 97.247,217.454 97.257,217.083 97.667 C 216.582 98.220,216.066 97.354,216.276 96.311 C 216.325 96.069,216.280 95.820,216.175 95.755 C 215.871 95.567,215.500 95.998,215.500 96.538 C 215.500 96.922,215.440 97.013,215.238 96.935 C 215.094 96.880,214.824 96.916,214.639 97.015 C 214.341 97.174,214.315 97.155,214.411 96.850 C 214.517 96.518,214.112 95.557,213.761 95.304 C 213.467 95.093,213.978 94.721,214.465 94.793 C 214.763 94.836,215.017 94.763,215.158 94.593 C 215.363 94.347,215.407 94.348,215.695 94.609 C 215.935 94.826,216.054 94.846,216.204 94.696 C 216.477 94.423,216.919 94.451,217.173 94.758 C 217.344 94.964,217.415 94.972,217.524 94.800 C 217.762 94.424,217.682 94.333,217.114 94.333 C 216.644 94.333,216.519 94.244,216.276 93.734 C 216.060 93.281,215.920 93.162,215.703 93.246 C 215.154 93.460,215.083 93.413,215.032 92.792 C 214.974 92.099,215.122 92.034,216.111 92.317 C 216.559 92.446,216.648 92.421,216.719 92.151 C 216.834 91.711,217.044 91.752,217.672 92.338 C 218.280 92.907,218.397 92.895,218.243 92.282 C 218.095 91.693,217.621 91.310,217.058 91.324 C 216.554 91.338,216.232 91.332,215.625 91.299 C 215.419 91.288,215.137 91.329,215.000 91.390 C 214.804 91.478,214.742 91.360,214.713 90.850 C 214.688 90.405,214.754 90.169,214.922 90.104 C 215.354 89.938,215.206 89.500,214.717 89.500 C 214.367 89.500,214.311 89.456,214.467 89.300 C 214.800 88.966,214.732 88.405,214.393 88.687 C 214.149 88.889,214.132 88.873,214.237 88.540 C 214.355 88.169,214.233 88.096,213.542 88.122 C 213.292 88.131,213.276 87.919,213.494 87.512 C 213.940 86.678,213.228 86.569,212.654 87.384 C 211.941 88.396,211.833 88.371,211.833 87.192 C 211.833 85.332,213.303 85.083,214.343 86.766 C 214.633 87.234,214.746 87.303,215.002 87.166 C 215.430 86.937,215.425 86.935,215.814 87.542 C 216.100 87.988,216.162 88.023,216.164 87.742 C 216.165 87.554,216.077 87.310,215.967 87.201 C 215.813 87.046,215.832 86.954,216.056 86.791 C 216.225 86.667,216.324 86.410,216.297 86.165 C 216.195 85.259,217.768 85.999,218.105 87.016 C 218.208 87.328,218.415 87.608,218.563 87.637 C 218.716 87.668,218.833 87.853,218.833 88.064 C 218.833 88.269,218.950 88.582,219.092 88.760 C 219.336 89.065,219.347 89.048,219.292 88.459 C 219.247 87.972,219.300 87.814,219.533 87.739 C 219.766 87.666,219.796 87.576,219.670 87.340 C 219.552 87.119,219.574 86.979,219.751 86.832 C 220.033 86.598,220.833 86.744,220.833 87.029 C 220.833 87.137,220.969 87.096,221.148 86.934 C 221.551 86.569,222.502 88.013,222.143 88.445 C 221.981 88.640,222.023 88.650,222.403 88.505 C 223.199 88.203,223.707 88.278,223.579 88.681 C 223.481 88.988,223.508 89.008,223.807 88.848 C 224.320 88.573,224.375 88.618,224.302 89.250 C 224.229 89.870,224.888 90.153,225.102 89.594 C 225.153 89.462,225.295 89.393,225.417 89.440 C 225.742 89.565,226.333 89.201,226.333 88.877 C 226.333 88.724,225.846 87.799,225.250 86.821 C 224.049 84.851,223.793 83.733,224.500 83.548 C 224.683 83.500,224.833 83.387,224.833 83.296 C 224.833 83.205,224.727 83.172,224.597 83.222 C 224.467 83.271,224.320 83.206,224.270 83.076 C 224.209 82.915,224.029 82.869,223.715 82.932 C 223.271 83.021,223.250 82.996,223.250 82.388 C 223.250 81.954,223.176 81.750,223.018 81.750 C 222.777 81.750,222.736 81.813,222.243 82.917 L 221.945 83.583 221.735 82.917 C 221.100 80.897,222.416 79.954,223.831 81.415 C 224.362 81.962,224.413 81.980,224.700 81.720 C 224.987 81.460,225.036 81.472,225.503 81.919 C 226.027 82.422,226.216 82.182,225.724 81.638 C 225.469 81.356,225.469 81.311,225.721 81.032 C 225.973 80.754,225.973 80.711,225.717 80.455 C 225.368 80.106,225.716 79.920,226.503 80.036 L 227.003 80.109 226.442 79.596 C 226.134 79.314,225.827 78.910,225.760 78.699 C 225.663 78.391,225.592 78.354,225.403 78.512 C 225.039 78.814,224.668 78.401,224.661 77.688 C 224.659 77.355,224.482 76.800,224.269 76.453 L 223.882 75.823 223.263 76.578 C 222.662 77.312,222.000 77.583,222.000 77.096 C 222.000 76.819,221.208 75.833,220.985 75.833 C 220.902 75.833,220.833 76.010,220.833 76.225 C 220.833 77.995,219.148 78.747,218.404 77.309 L 218.138 76.795 217.893 77.268 C 217.556 77.919,217.566 77.915,217.055 77.580 C 216.736 77.371,216.581 77.341,216.535 77.479 C 215.732 79.888,214.567 80.577,214.143 78.893 C 213.943 78.098,213.772 77.992,213.503 78.495 C 213.317 78.841,211.885 80.000,211.643 80.000 C 211.421 80.000,211.474 78.671,211.736 77.662 C 212.035 76.512,212.141 76.504,210.502 77.759 C 208.688 79.147,208.409 78.999,209.347 77.145 L 209.654 76.539 208.645 76.853 C 207.357 77.254,207.278 77.249,206.718 76.750 C 206.108 76.206,206.345 76.003,208.281 75.412 C 210.001 74.887,210.134 74.167,208.511 74.167 C 207.858 74.167,207.864 74.127,208.693 73.029 C 209.074 72.524,209.281 72.149,209.152 72.196 C 207.519 72.792,205.767 73.207,205.526 73.056 C 204.776 72.585,205.350 71.702,206.592 71.417 L 207.318 71.250 206.242 70.374 C 204.827 69.221,204.909 68.989,206.824 68.735 C 207.737 68.614,207.791 68.435,207.248 67.333 C 207.135 67.104,206.987 66.737,206.919 66.518 L 206.796 66.120 208.440 66.205 C 209.344 66.251,210.290 66.386,210.542 66.505 C 210.893 66.670,211.097 66.676,211.417 66.530 C 212.172 66.186,211.805 65.331,210.793 65.079 C 210.169 64.923,210.341 64.738,211.333 64.500 C 212.331 64.261,212.330 64.266,211.542 63.454 L 210.917 62.810 211.308 62.490 C 211.677 62.188,213.136 61.667,213.610 61.667 C 213.729 61.667,214.143 62.010,214.531 62.431 C 215.119 63.069,216.234 63.833,216.577 63.833 C 216.626 63.833,216.667 63.683,216.667 63.500 C 216.667 63.097,216.728 63.090,217.256 63.436 C 218.276 64.104,217.168 62.541,214.937 60.163 C 214.376 59.565,213.729 58.862,213.500 58.601 L 213.083 58.127 214.103 58.197 L 215.123 58.268 214.910 57.761 C 214.440 56.644,215.700 56.164,216.287 57.237 C 216.447 57.530,216.492 57.500,216.801 56.904 L 217.140 56.250 217.483 57.000 C 217.672 57.413,217.828 57.860,217.830 57.994 C 217.832 58.135,218.027 58.005,218.297 57.682 L 218.760 57.127 219.382 58.064 C 220.117 59.171,220.094 59.163,220.412 58.402 C 220.550 58.073,220.813 57.764,220.998 57.716 C 221.494 57.586,221.488 56.095,220.990 55.828 C 220.427 55.527,220.620 54.821,221.331 54.583 L 221.913 54.388 220.987 54.293 C 219.498 54.139,218.588 53.616,217.957 52.551 C 217.660 52.050,217.237 51.415,217.017 51.141 L 216.616 50.642 217.267 50.747 C 217.624 50.805,218.085 50.887,218.292 50.929 C 218.667 51.006,218.810 50.775,218.505 50.586 C 218.317 50.470,217.939 49.172,218.058 49.053 C 218.191 48.920,218.839 49.332,219.594 50.028 L 220.307 50.685 220.579 49.384 C 220.729 48.669,220.890 47.902,220.936 47.681 C 221.011 47.324,221.066 47.376,221.416 48.133 C 221.872 49.117,222.404 49.377,223.069 48.941 C 223.594 48.597,223.666 48.779,223.670 50.472 L 223.673 51.750 224.272 51.035 C 224.784 50.425,226.101 49.531,226.245 49.697 C 226.271 49.726,226.494 50.462,226.742 51.333 C 227.520 54.067,227.501 54.022,227.826 53.919 C 228.514 53.701,229.741 54.531,229.917 55.335 C 230.013 55.770,230.050 55.787,230.634 55.651 C 231.335 55.489,232.202 55.602,232.880 55.946 C 233.368 56.193,233.667 56.124,233.667 55.766 C 233.667 55.648,233.819 55.414,234.005 55.245 C 234.861 54.471,230.906 51.833,228.891 51.833 C 228.301 51.833,228.160 51.614,228.593 51.371 C 228.825 51.242,228.820 51.171,228.553 50.705 C 228.260 50.194,228.263 50.147,228.735 48.300 C 229.310 46.052,229.426 45.776,229.599 46.250 C 231.006 50.101,231.556 50.786,232.443 49.792 C 233.118 49.036,232.889 48.156,231.956 47.919 C 230.864 47.641,230.831 47.558,231.572 46.936 L 232.220 46.393 231.582 45.688 L 230.945 44.982 231.550 44.484 C 231.953 44.152,232.191 43.790,232.265 43.397 C 232.463 42.341,232.116 42.351,230.999 43.433 C 229.721 44.671,229.813 44.655,229.078 43.776 L 228.458 43.034 227.494 44.019 C 225.363 46.197,222.533 46.386,221.633 44.409 C 221.438 43.980,222.440 39.697,222.676 39.953 C 222.742 40.025,223.080 40.796,223.427 41.667 C 224.212 43.636,224.442 44.000,224.907 44.000 C 225.852 44.000,226.202 42.900,225.741 41.376 C 225.629 41.003,225.631 41.002,226.335 41.251 C 227.744 41.748,228.824 41.562,228.389 40.898 C 228.096 40.451,228.254 40.387,228.740 40.755 C 229.399 41.254,229.531 40.768,229.082 39.495 C 228.785 38.655,228.810 38.603,229.404 38.829 C 230.048 39.073,231.000 39.047,231.000 38.785 C 231.000 38.417,230.364 37.303,230.015 37.058 C 229.685 36.827,229.686 36.820,230.091 36.223 C 230.327 35.875,230.500 35.380,230.500 35.052 L 230.500 34.484 231.184 35.034 C 231.786 35.518,231.992 35.585,232.913 35.599 C 233.730 35.612,234.081 35.702,234.514 36.010 C 235.775 36.908,238.085 36.521,238.840 35.285 C 239.807 33.701,239.600 32.854,238.441 33.648 C 236.044 35.291,235.333 35.330,235.333 33.820 L 235.333 33.167 233.500 33.167 L 231.667 33.167 231.667 32.458 C 231.669 30.868,232.413 30.351,233.364 31.280 L 233.991 31.893 234.887 30.988 C 235.379 30.490,235.855 29.949,235.944 29.784 C 236.098 29.498,236.136 29.499,236.851 29.805 C 238.702 30.599,239.047 30.497,238.755 29.242 C 238.481 28.065,238.489 28.071,237.746 28.575 C 236.743 29.256,235.500 28.885,235.500 27.906 L 235.500 27.503 234.377 27.925 C 233.523 28.247,233.238 28.296,233.184 28.132 C 232.957 27.441,232.029 26.833,231.199 26.833 C 230.366 26.833,230.364 26.832,230.123 26.125 L 229.882 25.416 230.399 25.417 C 230.840 25.417,230.924 25.349,230.969 24.958 C 230.998 24.706,231.125 24.500,231.252 24.500 C 231.782 24.500,232.365 23.750,232.455 22.952 L 232.544 22.165 232.930 22.582 C 233.222 22.897,233.486 23.000,233.998 23.000 C 234.619 23.000,234.663 23.028,234.506 23.322 C 233.972 24.319,234.503 26.150,235.338 26.192 C 235.610 26.205,235.925 26.224,236.037 26.233 C 236.165 26.244,236.323 25.756,236.463 24.917 C 236.617 23.990,236.868 23.255,237.286 22.508 L 237.887 21.433 238.152 21.835 C 239.461 23.822,239.767 24.018,240.500 23.333 C 240.794 23.058,241.046 22.834,241.059 22.834 C 241.073 22.834,241.096 23.280,241.112 23.826 C 241.138 24.711,241.907 26.982,242.112 26.777 C 242.147 26.742,242.026 26.366,241.843 25.940 C 241.661 25.515,241.538 25.167,241.571 25.167 C 241.604 25.167,241.957 25.315,242.357 25.496 C 243.640 26.079,244.833 25.698,244.833 24.707 L 244.833 24.271 245.331 24.748 C 245.605 25.010,245.876 25.474,245.933 25.779 C 246.062 26.466,246.654 26.533,247.508 25.958 C 248.132 25.537,248.895 24.423,248.439 24.598 C 247.613 24.915,246.195 23.781,246.048 22.685 C 245.941 21.888,245.906 21.904,246.794 22.333 C 247.173 22.517,247.567 22.667,247.668 22.667 C 247.769 22.667,248.501 22.935,249.294 23.263 C 250.909 23.932,251.046 23.894,251.267 22.717 L 251.372 22.159 251.763 22.581 C 252.453 23.327,254.061 23.607,254.751 23.103 C 255.046 22.887,255.026 22.853,254.406 22.537 C 253.598 22.125,252.757 20.833,253.297 20.833 C 253.472 20.833,253.751 20.983,253.917 21.167 C 254.224 21.506,255.000 21.631,255.000 21.340 C 255.000 21.252,255.371 21.411,255.825 21.693 C 257.206 22.552,259.393 22.540,258.185 21.680 C 257.523 21.208,257.529 20.812,258.208 20.240 C 258.506 19.989,258.753 19.701,258.756 19.600 C 258.760 19.499,258.900 19.210,259.068 18.957 C 259.530 18.261,259.238 17.792,257.225 16.001 L 255.461 14.433 255.894 14.060 C 256.684 13.381,258.373 13.363,259.958 14.016 C 260.992 14.443,261.384 13.350,260.387 12.818 L 259.946 12.583 260.725 12.416 L 261.503 12.249 261.085 11.633 C 260.565 10.868,260.561 10.903,261.192 10.683 C 262.211 10.327,263.061 10.443,263.379 10.981 C 263.863 11.801,264.823 12.549,265.098 12.321 C 265.279 12.171,265.392 12.175,265.587 12.337 C 266.272 12.905,265.066 10.149,263.839 8.342 C 262.366 6.173,262.294 4.766,263.582 3.360 C 264.270 2.610,264.395 2.718,264.376 4.043 L 264.362 5.083 265.288 5.490 C 265.798 5.713,266.655 6.303,267.193 6.801 C 268.296 7.822,268.904 7.825,269.428 6.811 C 269.563 6.550,269.861 6.214,270.090 6.064 L 270.507 5.791 269.680 5.407 C 268.128 4.689,267.394 3.883,266.933 2.393 C 266.824 2.042,266.835 2.040,267.516 2.274 C 268.360 2.565,268.403 2.530,268.183 1.733 C 267.897 0.695,268.374 0.740,269.122 1.821 C 269.723 2.689,269.716 2.693,270.178 1.333 C 270.617 0.046,270.744 -0.074,270.890 0.659 C 271.022 1.316,271.684 1.758,272.157 1.505 C 272.497 1.323,272.502 1.342,272.393 2.508 L 272.283 3.695 273.016 3.183 C 274.276 2.304,274.550 2.382,274.702 3.667 C 274.998 6.184,274.993 6.167,275.390 6.167 C 275.944 6.167,276.451 6.597,276.667 7.251 C 276.829 7.742,276.937 7.833,277.352 7.833 C 277.924 7.833,278.940 8.227,279.369 8.616 C 279.646 8.866,279.667 8.861,279.667 8.546 C 279.667 8.360,279.834 8.096,280.039 7.960 L 280.411 7.713 279.921 7.006 C 279.108 5.833,277.980 5.040,276.250 4.427 C 275.954 4.322,275.980 4.282,276.477 4.071 C 277.210 3.761,279.018 3.767,279.773 4.082 C 280.327 4.314,280.360 4.311,280.250 4.040 C 279.911 3.203,279.805 2.806,279.896 2.715 C 280.031 2.580,281.290 2.955,281.917 3.317 L 282.417 3.606 282.417 2.395 C 282.417 0.507,282.820 0.421,284.016 2.055 L 284.483 2.693 284.533 1.734 C 284.601 0.445,284.651 0.453,286.819 2.094 L 288.710 3.526 288.109 2.452 L 287.509 1.378 288.529 0.772 C 289.736 0.056,290.804 -0.064,290.952 0.500 C 291.060 0.913,291.087 0.913,291.500 0.500 C 292.140 -0.140,293.548 0.155,294.014 1.027 C 294.172 1.322,294.107 1.464,293.557 2.029 C 293.015 2.586,292.957 2.710,293.182 2.837 C 293.796 3.184,294.245 3.663,294.074 3.788 C 293.432 4.255,293.113 5.561,293.494 6.162 C 293.703 6.493,294.339 5.901,295.050 4.714 C 295.536 3.904,295.590 3.863,295.864 4.111 C 296.233 4.445,296.850 4.106,297.238 3.357 C 297.484 2.881,298.564 1.833,298.809 1.833 C 298.881 1.833,299.422 1.459,300.012 1.001 C 301.007 0.229,301.151 0.170,302.025 0.168 L 302.966 0.167 302.571 1.625 C 302.059 3.518,302.051 4.233,302.537 4.574 C 303.391 5.172,304.545 4.694,305.072 3.525 L 305.370 2.864 304.841 2.094 C 304.549 1.670,304.269 1.064,304.217 0.745 L 304.123 0.167 305.691 0.167 C 307.435 0.167,307.568 0.221,308.849 1.451 L 309.615 2.186 310.190 1.912 C 310.506 1.761,310.854 1.436,310.963 1.190 C 311.336 0.347,311.914 0.167,314.234 0.167 C 315.389 0.167,316.333 0.232,316.333 0.312 C 316.333 0.393,316.560 0.504,316.838 0.559 C 317.495 0.691,318.167 1.373,318.167 1.909 C 318.167 2.297,318.227 2.333,318.877 2.333 C 319.268 2.333,319.855 2.476,320.181 2.651 L 320.775 2.969 321.237 2.390 C 321.756 1.740,321.719 1.639,320.590 0.629 L 320.083 0.176 340.712 0.171 L 361.340 0.167 362.004 0.606 C 363.097 1.329,364.758 1.367,365.406 0.683 L 365.896 0.167 377.774 0.167 L 389.652 0.167 390.266 0.583 C 390.604 0.813,391.094 1.000,391.357 1.000 C 391.828 1.000,391.990 0.783,391.667 0.583 C 391.259 0.331,391.575 0.167,392.467 0.167 C 393.423 0.167,393.435 0.173,393.648 0.761 C 393.936 1.557,394.739 2.445,395.542 2.855 C 396.355 3.270,396.399 3.228,396.085 2.338 C 395.621 1.023,395.802 0.861,397.822 0.782 C 398.976 0.738,399.159 0.767,399.099 0.990 C 398.661 2.620,398.928 4.075,399.632 3.891 C 399.984 3.799,400.000 3.713,400.000 1.897 L 400.000 0.000 200.000 0.000 L 0.000 0.000 0.038 15.458 M345.934 1.264 C 345.872 1.426,345.909 1.502,346.031 1.462 C 346.280 1.379,346.417 1.000,346.198 1.000 C 346.109 1.000,345.990 1.119,345.934 1.264 M311.833 2.087 C 311.833 2.589,312.206 3.833,312.357 3.833 C 312.669 3.833,312.896 3.020,312.702 2.594 C 312.462 2.067,311.833 1.700,311.833 2.087 M348.398 2.582 C 348.413 3.275,348.472 3.423,348.750 3.472 C 349.057 3.525,349.061 3.512,348.800 3.307 C 348.644 3.184,348.486 2.783,348.448 2.417 C 348.392 1.883,348.382 1.916,348.398 2.582 M345.583 3.167 C 345.640 3.258,345.944 3.333,346.260 3.333 C 346.575 3.333,346.833 3.258,346.833 3.167 C 346.833 3.075,346.529 3.000,346.157 3.000 C 345.748 3.000,345.521 3.066,345.583 3.167 M347.167 3.313 C 347.167 3.588,347.624 3.839,347.919 3.726 C 348.198 3.619,348.198 3.602,347.908 3.390 C 347.561 3.136,347.167 3.095,347.167 3.313 M399.777 5.458 C 399.549 6.298,399.543 6.628,399.748 7.083 C 399.963 7.561,399.974 7.530,399.986 6.375 C 400.000 5.184,399.932 4.887,399.777 5.458 M300.667 6.565 C 300.667 7.050,300.921 7.112,301.404 6.746 C 301.779 6.463,301.744 6.401,301.125 6.245 C 300.713 6.142,300.667 6.174,300.667 6.565 M242.340 7.760 C 242.563 8.121,242.797 8.319,242.937 8.265 C 243.397 8.089,243.158 9.355,242.598 10.061 C 242.359 10.363,242.339 10.362,241.903 10.019 C 241.657 9.825,241.231 9.667,240.957 9.667 C 240.533 9.667,240.490 9.629,240.667 9.417 C 240.781 9.279,241.093 9.167,241.360 9.167 C 241.762 9.167,241.840 9.102,241.814 8.792 C 241.683 7.269,241.843 6.956,242.340 7.760 M270.407 7.936 C 270.467 8.176,270.559 8.588,270.612 8.853 C 270.773 9.656,271.333 9.371,271.333 8.486 C 271.333 8.140,270.781 7.500,270.482 7.500 C 270.366 7.500,270.338 7.662,270.407 7.936 M236.961 8.958 C 236.852 9.210,236.657 9.585,236.529 9.792 C 236.304 10.152,236.317 10.167,236.856 10.178 C 237.363 10.188,237.383 10.206,237.061 10.362 C 236.802 10.487,236.711 10.674,236.727 11.047 C 236.765 11.897,234.924 12.226,233.372 11.647 C 233.000 11.508,232.998 11.494,233.266 10.878 C 233.416 10.533,233.614 9.921,233.704 9.520 C 233.875 8.767,234.159 8.832,234.164 9.625 C 234.167 10.115,234.397 10.100,234.804 9.583 C 235.200 9.080,235.333 9.059,235.333 9.500 C 235.333 9.980,235.531 9.917,236.354 9.174 C 236.755 8.811,237.100 8.511,237.121 8.507 C 237.142 8.503,237.070 8.706,236.961 8.958 M76.341 9.134 C 75.796 9.679,75.696 10.248,76.058 10.744 C 76.394 11.203,76.599 10.955,76.822 9.821 C 77.066 8.581,76.995 8.479,76.341 9.134 M83.183 13.786 C 83.031 14.047,83.010 14.031,83.005 13.653 C 83.002 13.416,83.056 13.165,83.125 13.096 C 83.325 12.894,83.373 13.460,83.183 13.786 M47.537 14.483 C 47.452 14.538,47.285 14.769,47.165 14.997 L 46.947 15.410 46.782 15.038 C 46.537 14.490,46.033 14.621,45.125 15.468 C 44.538 16.016,44.547 16.128,45.255 17.056 C 46.160 18.241,46.444 18.324,46.444 17.402 C 46.444 16.992,46.513 16.589,46.597 16.508 C 46.810 16.302,48.856 16.980,50.239 17.714 L 51.375 18.317 51.287 17.659 C 51.052 15.908,48.570 13.807,47.537 14.483 M162.305 22.917 C 162.504 23.416,162.504 23.416,161.919 22.794 L 161.333 22.172 161.314 22.794 C 161.303 23.137,161.243 23.642,161.181 23.917 L 161.067 24.417 160.832 23.750 C 160.331 22.332,160.710 20.135,161.631 19.112 C 161.903 18.811,161.921 18.882,162.011 20.606 C 162.063 21.602,162.196 22.642,162.305 22.917 M172.585 20.560 C 173.059 20.378,172.781 21.747,172.217 22.370 C 171.972 22.641,171.934 22.639,171.539 22.329 C 171.310 22.148,170.907 22.000,170.644 22.000 C 170.382 22.000,170.167 21.933,170.167 21.851 C 170.167 21.658,170.587 21.500,171.103 21.500 C 171.426 21.500,171.506 21.421,171.480 21.125 C 171.463 20.919,171.460 20.451,171.474 20.086 L 171.500 19.423 171.919 20.039 C 172.190 20.438,172.424 20.621,172.585 20.560 M40.403 20.930 C 40.044 21.257,39.862 21.493,40.000 21.452 C 40.137 21.412,40.423 21.325,40.634 21.259 C 41.177 21.089,39.911 23.618,39.158 24.208 L 38.635 24.617 39.530 24.709 C 40.023 24.760,40.761 24.964,41.171 25.162 L 41.917 25.522 42.833 25.115 L 43.750 24.708 43.691 23.834 L 43.632 22.961 42.950 23.052 C 42.538 23.108,42.046 23.051,41.707 22.909 L 41.146 22.675 41.261 21.504 C 41.395 20.148,41.316 20.096,40.403 20.930 M44.866 20.677 C 44.682 20.970,44.712 21.153,45.071 21.936 C 45.480 22.831,45.482 22.850,45.142 22.742 C 44.951 22.681,44.822 22.698,44.855 22.779 C 45.738 24.896,45.670 24.806,46.536 24.992 C 47.664 25.234,47.840 25.201,47.209 24.864 L 46.669 24.576 47.251 23.711 C 47.977 22.633,47.982 22.678,47.092 22.115 C 46.630 21.824,46.384 21.561,46.439 21.418 C 46.494 21.276,46.268 21.024,45.850 20.761 C 45.040 20.249,45.128 20.257,44.866 20.677 M262.875 22.610 C 262.533 22.748,262.637 22.957,263.107 23.074 C 263.638 23.208,264.049 22.905,263.665 22.662 C 263.396 22.492,263.200 22.479,262.875 22.610 M155.180 24.238 C 155.584 23.873,155.591 24.109,155.194 24.711 C 154.813 25.288,154.337 25.654,153.958 25.661 C 153.578 25.668,153.588 25.456,153.985 25.097 C 154.160 24.939,154.403 24.571,154.526 24.280 C 154.735 23.786,154.754 23.777,154.805 24.139 C 154.858 24.511,154.874 24.515,155.180 24.238 M56.524 26.148 C 56.366 26.248,56.354 26.326,56.482 26.406 C 56.694 26.536,57.000 26.389,57.000 26.157 C 57.000 25.963,56.821 25.960,56.524 26.148 M39.538 26.612 C 39.123 26.779,38.783 27.658,39.089 27.775 C 39.335 27.870,40.308 26.966,40.327 26.625 C 40.334 26.487,39.868 26.479,39.538 26.612 M48.000 26.689 C 47.595 26.852,47.592 26.863,47.907 27.095 C 48.366 27.433,48.500 27.393,48.500 26.917 C 48.500 26.688,48.481 26.505,48.458 26.511 C 48.435 26.516,48.229 26.597,48.000 26.689 M35.781 28.322 C 35.513 28.953,35.688 29.833,36.081 29.833 C 36.424 29.833,36.551 28.743,36.269 28.211 L 36.024 27.750 35.781 28.322 M156.721 30.628 L 156.403 31.054 157.076 31.715 L 157.750 32.376 156.974 32.277 C 156.358 32.198,156.177 32.232,156.097 32.441 C 155.969 32.774,155.595 32.500,155.239 31.812 C 154.846 31.051,154.929 30.718,155.542 30.598 C 155.840 30.540,156.271 30.348,156.500 30.171 C 157.020 29.770,157.154 30.047,156.721 30.628 M0.005 32.333 C 0.005 32.986,0.052 33.178,0.167 33.000 C 0.374 32.679,0.374 31.988,0.167 31.667 C 0.052 31.489,0.005 31.681,0.005 32.333 M148.053 33.558 C 148.375 33.236,148.091 34.874,147.752 35.295 C 147.732 35.319,147.499 35.226,147.233 35.087 C 146.967 34.949,146.563 34.834,146.333 34.832 C 146.003 34.829,145.968 34.795,146.167 34.667 C 146.304 34.578,146.582 34.504,146.784 34.503 C 147.128 34.500,147.145 34.445,147.053 33.625 L 146.955 32.750 147.447 33.211 C 147.718 33.464,147.991 33.620,148.053 33.558 M0.009 36.304 C 0.001 37.116,0.022 37.168,0.266 36.924 C 0.508 36.683,0.508 36.601,0.275 36.037 L 0.017 35.417 0.009 36.304 M0.079 51.000 C 0.079 57.737,0.100 60.494,0.125 57.125 C 0.150 53.756,0.150 48.244,0.125 44.875 C 0.100 41.506,0.079 44.262,0.079 51.000 M236.782 44.773 C 236.594 44.961,236.841 45.167,237.255 45.167 C 237.543 45.167,237.629 45.096,237.560 44.917 C 237.464 44.665,236.980 44.576,236.782 44.773 M259.522 45.057 C 259.288 45.339,259.443 45.500,259.950 45.500 C 260.293 45.500,260.322 45.456,260.167 45.167 C 259.958 44.777,259.779 44.747,259.522 45.057 M261.333 44.896 C 261.333 44.931,261.446 45.053,261.583 45.167 C 261.788 45.337,261.833 45.325,261.833 45.104 C 261.833 44.955,261.721 44.833,261.583 44.833 C 261.446 44.833,261.333 44.862,261.333 44.896 M234.812 47.448 C 234.611 47.695,234.620 47.715,234.889 47.615 C 235.057 47.552,235.267 47.500,235.357 47.500 C 235.446 47.500,235.473 47.425,235.417 47.333 C 235.267 47.091,235.072 47.128,234.812 47.448 M382.599 47.458 C 382.397 47.651,382.269 47.685,382.222 47.560 C 382.127 47.305,381.000 47.642,381.000 47.926 C 381.000 48.370,381.614 48.918,381.871 48.704 C 382.152 48.471,382.333 48.595,382.333 49.018 C 382.333 49.535,383.003 49.883,383.366 49.554 C 383.531 49.404,383.667 49.172,383.667 49.039 C 383.667 48.905,383.833 48.500,384.036 48.138 C 384.352 47.576,384.370 47.459,384.161 47.326 C 383.763 47.074,382.928 47.145,382.599 47.458 M222.096 57.125 C 222.294 58.473,222.578 58.991,223.125 58.997 C 223.464 59.002,223.369 57.811,222.978 57.167 C 222.315 56.072,221.939 56.054,222.096 57.125 M251.742 57.742 C 251.143 58.342,251.223 58.822,252.056 59.640 C 252.659 60.231,252.812 60.310,252.975 60.114 C 253.208 59.833,253.010 59.628,252.276 59.392 C 251.832 59.249,251.866 59.227,252.820 59.030 C 253.754 58.837,253.823 58.793,253.663 58.493 C 253.464 58.122,253.358 58.102,252.761 58.329 C 252.325 58.495,252.111 58.157,252.500 57.917 C 252.761 57.755,252.695 57.333,252.409 57.333 C 252.267 57.333,251.967 57.517,251.742 57.742 M155.208 62.786 C 155.094 62.827,155.000 62.967,155.000 63.097 C 155.000 63.355,155.234 63.381,155.746 63.181 C 156.139 63.028,155.613 62.641,155.208 62.786 M0.074 69.417 C 0.074 72.258,0.097 73.444,0.125 72.052 C 0.152 70.660,0.153 68.335,0.125 66.885 C 0.097 65.436,0.074 66.575,0.074 69.417 M156.504 64.792 C 156.501 65.154,156.580 65.333,156.740 65.333 C 157.132 65.333,157.161 65.101,156.824 64.662 L 156.507 64.250 156.504 64.792 M157.273 65.584 C 157.215 65.736,157.273 65.833,157.422 65.833 C 157.691 65.833,157.753 65.573,157.517 65.427 C 157.435 65.377,157.325 65.447,157.273 65.584 M157.611 69.093 L 157.139 69.508 157.650 70.090 C 158.940 71.559,158.506 71.930,154.833 72.499 C 154.237 72.591,153.538 72.724,153.280 72.796 L 152.809 72.925 153.139 73.344 C 153.642 73.983,155.059 74.680,156.067 74.784 C 158.000 74.983,160.479 72.986,160.496 71.214 C 160.498 71.011,160.659 70.760,160.855 70.655 C 161.190 70.476,161.172 70.449,160.513 70.154 C 160.130 69.983,159.494 69.578,159.100 69.255 C 158.252 68.560,158.221 68.556,157.611 69.093 M138.453 70.231 C 137.035 71.103,136.685 71.667,137.563 71.667 C 138.496 71.667,139.193 71.475,139.104 71.244 C 139.059 71.127,139.128 70.894,139.256 70.725 C 139.882 69.899,139.437 69.626,138.453 70.231 M270.063 71.208 C 270.074 71.781,270.032 72.438,269.969 72.667 C 269.661 73.787,271.444 74.494,272.962 73.853 L 273.507 73.623 272.928 73.061 C 272.394 72.543,272.003 71.659,272.001 70.965 C 272.000 70.722,270.718 70.167,270.158 70.167 C 270.095 70.167,270.052 70.635,270.063 71.208 M269.066 70.583 C 269.385 70.824,269.667 70.781,269.667 70.490 C 269.667 70.404,269.460 70.336,269.208 70.339 C 268.774 70.344,268.767 70.357,269.066 70.583 M240.887 70.980 C 239.529 71.964,239.347 72.581,240.375 72.718 C 240.765 72.770,241.252 72.863,241.458 72.925 C 241.773 73.021,241.834 72.975,241.839 72.644 L 241.844 72.250 242.175 72.667 C 242.720 73.355,243.692 74.333,243.830 74.333 C 244.233 74.333,244.737 72.721,244.553 72.019 C 244.434 71.562,244.173 71.860,244.169 72.458 C 244.164 73.223,243.128 72.322,242.753 71.227 C 242.458 70.362,241.851 70.282,240.887 70.980 M275.500 71.765 C 275.500 71.937,275.409 72.001,275.250 71.940 C 274.898 71.805,274.919 71.868,275.675 73.246 C 276.337 74.452,276.360 74.473,276.826 74.311 C 277.498 74.077,277.950 73.550,277.696 73.296 C 277.588 73.188,277.500 72.966,277.500 72.802 C 277.500 72.606,277.160 72.333,276.500 72.000 C 275.674 71.583,275.500 71.542,275.500 71.765 M233.590 74.677 C 233.764 74.959,234.513 75.185,234.884 75.067 C 235.213 74.963,235.211 74.952,234.820 74.736 C 234.331 74.464,233.432 74.422,233.590 74.677 M227.865 75.938 C 227.695 76.013,227.713 76.108,227.944 76.364 C 228.142 76.582,228.254 77.003,228.277 77.616 C 228.333 79.093,230.135 80.910,230.666 80.027 C 230.820 79.772,230.848 79.775,231.017 80.058 C 231.119 80.227,231.375 80.517,231.588 80.702 C 231.801 80.887,231.935 81.142,231.886 81.269 C 231.771 81.570,232.019 81.563,232.426 81.255 C 232.889 80.905,233.167 80.944,233.167 81.359 C 233.167 81.711,233.173 81.712,233.510 81.407 C 233.901 81.054,234.159 81.267,234.164 81.948 C 234.166 82.242,234.256 82.307,234.625 82.281 C 234.970 82.258,235.078 82.322,235.060 82.542 C 235.043 82.755,235.161 82.833,235.500 82.833 C 236.490 82.833,236.793 83.390,235.940 83.642 C 235.131 83.881,234.565 84.367,234.749 84.665 C 234.918 84.939,235.883 84.795,236.134 84.458 C 236.254 84.298,236.459 84.167,236.590 84.167 C 236.734 84.167,236.904 83.868,237.017 83.417 C 237.221 82.607,237.388 82.514,237.862 82.942 C 238.151 83.204,238.167 83.191,238.167 82.672 C 238.167 82.198,238.201 82.154,238.425 82.340 C 238.643 82.521,238.698 82.499,238.778 82.194 C 238.900 81.727,239.167 81.727,239.167 82.194 C 239.167 82.393,239.208 82.514,239.259 82.463 C 239.467 82.255,238.946 79.469,238.681 79.371 C 238.248 79.212,238.172 78.974,238.169 77.771 L 238.167 76.625 237.625 76.736 C 236.519 76.963,234.482 77.175,234.327 77.079 C 234.239 77.025,234.167 77.135,234.167 77.323 C 234.167 77.802,233.820 77.752,233.083 77.167 C 232.350 76.584,232.357 76.585,231.858 76.934 C 231.502 77.184,231.451 77.180,231.113 76.871 C 230.321 76.147,228.543 75.637,227.865 75.938 M240.625 79.115 C 240.284 79.204,240.282 79.223,240.509 80.042 L 240.682 80.667 241.170 80.415 C 242.837 79.553,242.453 78.637,240.625 79.115 M225.122 84.347 C 225.191 84.612,225.247 84.642,225.354 84.472 C 225.559 84.149,225.531 84.000,225.266 84.000 C 225.110 84.000,225.062 84.117,225.122 84.347 M248.482 84.892 C 247.968 85.104,247.270 85.448,246.932 85.657 C 246.593 85.867,246.292 86.011,246.264 85.977 C 246.235 85.944,246.124 85.748,246.017 85.542 C 245.736 85.001,244.949 85.056,243.636 85.708 L 242.546 86.250 242.914 87.493 C 243.246 88.616,243.331 88.750,243.786 88.868 C 244.632 89.087,244.810 89.456,244.278 89.887 L 243.830 90.250 244.524 91.417 C 244.906 92.058,245.236 92.606,245.257 92.634 C 245.278 92.662,245.548 92.531,245.856 92.343 C 246.849 91.737,247.067 92.069,246.653 93.559 C 246.490 94.146,246.508 94.223,246.862 94.461 C 247.076 94.604,247.597 95.074,248.020 95.504 L 248.790 96.288 248.890 94.769 C 248.944 93.933,249.034 93.063,249.089 92.833 C 249.187 92.426,249.171 92.418,248.362 92.473 C 246.372 92.609,245.066 89.747,246.960 89.401 C 247.303 89.338,247.754 89.223,247.962 89.146 L 248.342 89.005 247.921 88.175 C 247.384 87.115,247.390 87.050,248.042 86.909 C 249.047 86.691,249.721 86.017,250.073 84.875 C 250.229 84.372,249.734 84.377,248.482 84.892 M227.083 85.500 C 227.027 85.592,226.722 85.667,226.407 85.667 C 225.760 85.667,225.763 85.662,226.027 86.242 C 226.309 86.861,227.333 86.868,227.333 86.250 C 227.333 85.733,227.384 85.734,228.277 86.257 C 228.871 86.605,229.000 86.633,229.000 86.416 C 229.000 85.712,227.419 84.956,227.083 85.500 M227.033 87.957 C 227.331 88.506,227.519 88.670,227.875 88.690 C 228.127 88.705,228.426 88.724,228.539 88.733 C 228.653 88.743,228.771 88.619,228.802 88.458 C 228.866 88.126,228.630 88.085,228.143 88.346 C 227.857 88.499,227.723 88.432,227.229 87.888 L 226.650 87.250 227.033 87.957 M156.025 90.333 C 155.902 90.654,155.657 91.285,155.482 91.734 C 155.155 92.575,155.161 92.967,155.492 92.348 C 155.776 91.817,155.890 91.918,156.227 93.000 C 156.398 93.548,156.601 93.957,156.677 93.910 C 156.754 93.863,156.902 93.984,157.007 94.180 C 157.146 94.440,157.247 94.486,157.382 94.351 C 157.684 94.049,158.307 94.139,158.507 94.514 C 158.796 95.053,159.333 94.491,159.333 93.651 C 159.333 92.845,159.190 92.769,157.671 92.758 L 156.417 92.750 156.333 91.250 C 156.252 89.779,156.246 89.761,156.025 90.333 M225.111 90.278 C 224.903 90.486,224.999 90.628,225.402 90.705 C 225.757 90.773,225.781 90.746,225.612 90.474 C 225.407 90.146,225.289 90.100,225.111 90.278 M227.000 90.578 C 227.000 90.862,227.072 90.962,227.233 90.900 C 227.361 90.851,227.585 90.982,227.733 91.193 C 228.116 91.740,228.062 91.458,227.650 90.760 C 227.241 90.067,227.000 89.999,227.000 90.578 M0.079 102.000 C 0.079 108.462,0.100 111.106,0.125 107.875 C 0.150 104.644,0.150 99.356,0.125 96.125 C 0.100 92.894,0.079 95.537,0.079 102.000 M230.208 90.505 C 229.831 90.657,229.670 91.333,230.011 91.333 C 230.113 91.333,230.144 91.475,230.083 91.667 C 230.009 91.901,230.053 92.000,230.234 92.000 C 230.401 92.000,230.454 91.907,230.386 91.731 C 230.305 91.518,230.356 91.485,230.634 91.573 C 230.929 91.666,231.010 91.595,231.132 91.134 C 231.332 90.381,231.030 90.175,230.208 90.505 M253.833 91.535 C 253.833 91.768,253.945 92.052,254.081 92.165 C 254.298 92.345,254.305 92.300,254.140 91.810 C 253.892 91.076,253.833 91.023,253.833 91.535 M226.430 91.478 C 226.381 91.557,226.165 91.588,225.949 91.547 C 225.366 91.436,224.313 91.919,224.436 92.241 C 224.548 92.533,225.582 92.606,225.750 92.333 C 225.807 92.242,226.024 92.167,226.233 92.167 C 226.477 92.167,226.681 92.017,226.803 91.750 C 226.991 91.337,226.665 91.099,226.430 91.478 M299.699 92.913 C 299.459 93.440,299.478 93.500,299.844 93.354 C 300.022 93.283,300.073 93.124,300.007 92.850 L 299.910 92.450 299.699 92.913 M152.012 94.125 C 152.021 94.601,152.054 94.671,152.153 94.419 C 152.272 94.114,152.212 93.500,152.064 93.500 C 152.029 93.500,152.005 93.781,152.012 94.125 M254.667 93.986 C 254.667 94.071,254.615 94.277,254.552 94.445 C 254.451 94.713,254.471 94.723,254.719 94.521 C 255.026 94.271,255.099 93.833,254.833 93.833 C 254.742 93.833,254.667 93.902,254.667 93.986 M249.378 94.609 C 249.233 94.668,249.294 94.871,249.586 95.302 C 250.103 96.063,250.122 96.729,249.635 97.070 C 249.434 97.211,249.318 97.374,249.377 97.433 C 249.548 97.604,250.645 97.342,250.787 97.097 C 250.858 96.974,251.169 96.721,251.478 96.535 L 252.040 96.196 251.545 95.940 C 251.272 95.799,250.816 95.417,250.530 95.092 C 250.028 94.521,249.816 94.432,249.378 94.609 M257.628 95.321 C 257.469 95.657,257.187 96.094,257.003 96.292 C 256.503 96.828,256.591 97.274,257.333 97.981 C 257.827 98.450,258.000 98.747,258.000 99.123 C 258.000 99.557,258.232 99.833,258.597 99.833 C 258.952 99.833,258.338 96.858,257.865 96.288 C 257.716 96.108,257.708 96.014,257.839 95.970 C 257.944 95.935,258.001 95.648,257.971 95.309 L 257.917 94.710 257.628 95.321 M268.229 95.079 C 268.177 95.214,268.254 95.445,268.400 95.591 C 268.628 95.819,268.667 95.821,268.667 95.609 C 268.667 95.472,268.712 95.242,268.768 95.097 C 268.835 94.923,268.776 94.833,268.596 94.833 C 268.446 94.833,268.280 94.944,268.229 95.079 M263.668 95.766 C 263.667 95.958,263.817 96.251,264.000 96.417 C 264.426 96.802,264.426 96.560,264.000 95.917 C 263.711 95.481,263.669 95.462,263.668 95.766 M242.667 98.160 C 242.667 98.366,243.313 98.970,243.654 99.083 C 243.799 99.130,244.092 99.576,244.307 100.073 C 244.769 101.143,245.333 101.770,245.333 101.213 C 245.333 100.320,244.229 98.505,243.834 98.750 C 243.735 98.811,243.501 98.667,243.315 98.431 C 242.972 97.995,242.667 97.867,242.667 98.160 M251.761 98.904 C 251.639 99.716,251.721 100.015,251.991 99.739 C 252.286 99.437,252.350 98.753,252.114 98.430 C 251.898 98.135,251.871 98.171,251.761 98.904 M227.542 99.014 C 227.059 99.197,227.033 99.917,227.500 100.167 C 227.966 100.416,228.500 100.104,228.500 99.583 C 228.500 99.088,228.051 98.822,227.542 99.014 M277.945 99.569 C 277.889 99.715,277.729 99.833,277.589 99.833 C 277.448 99.833,277.333 99.948,277.333 100.087 C 277.333 100.307,277.396 100.302,277.792 100.054 C 278.044 99.897,278.265 99.761,278.283 99.754 C 278.301 99.746,278.255 99.642,278.181 99.523 C 278.075 99.351,278.025 99.361,277.945 99.569 M275.907 100.318 C 276.011 100.486,276.424 100.465,276.606 100.283 C 276.670 100.219,276.518 100.167,276.268 100.167 C 276.018 100.167,275.856 100.235,275.907 100.318 M239.130 100.787 C 239.018 101.216,239.857 101.899,240.542 101.936 C 241.108 101.967,241.183 101.384,240.673 100.922 C 240.346 100.626,239.833 100.671,239.833 100.995 C 239.833 101.309,239.491 101.172,239.355 100.804 C 239.222 100.443,239.220 100.443,239.130 100.787 M394.944 103.778 C 394.695 104.027,394.822 104.384,395.083 104.167 C 395.221 104.053,395.333 103.893,395.333 103.813 C 395.333 103.640,395.103 103.619,394.944 103.778 M160.000 105.070 C 160.000 105.291,159.956 105.610,159.903 105.778 C 159.810 106.071,159.816 106.071,160.059 105.775 C 160.198 105.605,160.391 105.516,160.489 105.576 C 160.600 105.645,160.667 105.495,160.667 105.177 C 160.667 104.778,160.594 104.667,160.333 104.667 C 160.092 104.667,160.000 104.778,160.000 105.070 M154.935 105.146 C 154.666 105.444,154.674 105.463,155.118 105.548 C 155.683 105.656,155.728 105.621,155.587 105.179 C 155.452 104.751,155.299 104.744,154.935 105.146 M162.389 105.083 C 162.389 105.221,162.487 105.333,162.606 105.333 C 162.730 105.333,162.782 105.227,162.727 105.083 C 162.674 104.946,162.577 104.833,162.510 104.833 C 162.443 104.833,162.389 104.946,162.389 105.083 M156.467 105.089 C 156.203 105.353,156.620 106.248,156.988 106.207 C 157.269 106.175,157.345 106.230,157.274 106.415 C 157.220 106.555,157.268 106.666,157.380 106.666 C 157.742 106.664,157.708 105.367,157.340 105.170 C 156.993 104.985,156.607 104.949,156.467 105.089 M319.938 105.708 C 319.883 105.915,319.837 106.123,319.836 106.171 C 319.834 106.219,320.133 106.230,320.500 106.195 C 321.292 106.120,321.346 105.934,320.675 105.588 C 320.050 105.264,320.058 105.263,319.938 105.708 M160.833 106.094 C 160.833 106.387,161.220 106.833,161.473 106.833 C 161.634 106.833,161.861 106.927,161.975 107.042 C 162.240 107.306,163.305 107.315,163.405 107.054 C 163.559 106.654,162.113 106.032,161.743 106.339 C 161.596 106.461,161.461 106.437,161.280 106.256 C 161.017 105.994,160.833 105.927,160.833 106.094 M317.705 106.333 C 317.532 106.611,317.539 106.667,317.749 106.667 C 317.887 106.667,318.053 106.672,318.117 106.679 C 318.181 106.686,318.291 106.536,318.361 106.346 C 318.534 105.879,317.996 105.869,317.705 106.333 M273.917 108.289 C 273.459 108.403,273.338 108.638,273.338 109.417 C 273.338 109.853,273.388 110.005,273.482 109.857 C 273.582 109.700,273.660 109.687,273.739 109.816 C 273.802 109.917,274.246 110.000,274.727 110.000 C 275.207 110.000,275.677 110.077,275.772 110.172 C 276.000 110.400,276.465 110.209,276.685 109.799 C 276.926 109.348,276.763 109.247,276.307 109.566 C 275.827 109.902,275.333 109.911,275.333 109.583 C 275.333 109.398,275.139 109.333,274.583 109.333 C 273.809 109.333,273.707 109.214,274.005 108.657 C 274.149 108.389,274.229 108.369,274.497 108.537 C 274.674 108.647,274.876 108.680,274.946 108.610 C 275.016 108.539,274.963 108.412,274.829 108.327 C 274.568 108.162,274.445 108.157,273.917 108.289 M316.717 108.412 C 316.220 108.628,316.190 108.686,316.280 109.280 C 316.443 110.351,317.167 110.535,317.167 109.505 C 317.167 109.190,317.245 109.016,317.375 109.042 C 317.623 109.091,317.663 108.301,317.417 108.229 C 317.325 108.202,317.010 108.285,316.717 108.412 M322.958 108.282 C 322.595 108.376,322.581 108.598,322.930 108.732 C 323.371 108.901,323.500 108.849,323.500 108.500 C 323.500 108.160,323.469 108.148,322.958 108.282 M399.285 109.481 C 399.332 109.832,399.296 110.261,399.205 110.434 C 399.016 110.794,399.240 111.578,399.487 111.425 C 399.573 111.371,399.692 111.406,399.751 111.501 C 399.810 111.597,399.768 111.654,399.658 111.629 C 399.548 111.604,399.422 111.684,399.377 111.808 C 399.311 111.987,399.366 111.994,399.647 111.844 C 400.199 111.549,400.160 109.540,399.595 109.130 L 399.200 108.843 399.285 109.481 M144.041 109.277 C 143.778 109.383,143.938 109.667,144.260 109.667 C 144.392 109.667,144.500 109.554,144.500 109.417 C 144.500 109.160,144.404 109.131,144.041 109.277 M170.500 109.389 C 170.500 109.748,170.689 109.834,170.937 109.587 C 171.252 109.272,171.226 109.167,170.833 109.167 C 170.650 109.167,170.500 109.267,170.500 109.389 M301.738 109.405 C 301.562 109.534,301.475 109.697,301.546 109.768 C 301.617 109.839,301.800 109.772,301.952 109.619 C 302.313 109.259,302.154 109.100,301.738 109.405 M295.982 110.292 C 295.972 110.819,295.943 111.488,295.919 111.778 L 295.874 112.306 296.866 112.361 C 297.919 112.420,298.671 111.873,298.664 111.053 C 298.658 110.369,298.377 110.266,298.081 110.838 L 297.795 111.392 297.555 110.821 C 296.891 109.240,296.007 108.943,295.982 110.292 M292.747 109.672 C 292.681 109.778,292.455 109.816,292.228 109.759 C 291.859 109.667,291.834 109.697,291.927 110.121 C 292.124 111.011,292.527 112.164,292.672 112.253 C 292.753 112.303,292.772 112.467,292.714 112.618 C 292.635 112.822,292.678 112.865,292.882 112.786 C 293.033 112.728,293.200 112.753,293.254 112.841 C 293.373 113.033,294.280 113.054,294.395 112.868 C 294.440 112.796,294.234 112.765,293.937 112.799 C 293.577 112.841,293.321 112.770,293.167 112.583 C 292.955 112.328,293.005 112.309,293.759 112.356 L 294.583 112.407 294.634 111.537 C 294.679 110.754,294.650 110.667,294.342 110.667 C 294.154 110.667,293.997 110.760,293.993 110.875 C 293.989 110.990,293.844 110.815,293.671 110.488 C 293.272 109.734,292.907 109.412,292.747 109.672 M358.333 110.697 C 357.829 110.888,357.323 111.118,357.208 111.209 C 356.962 111.404,356.924 111.900,357.167 111.750 C 357.258 111.693,357.333 111.759,357.333 111.896 C 357.333 112.056,357.529 112.164,357.875 112.198 C 358.199 112.229,358.400 112.334,358.375 112.458 C 358.352 112.573,358.408 112.667,358.500 112.667 C 358.592 112.667,358.667 112.599,358.667 112.516 C 358.667 112.433,358.816 112.404,358.998 112.451 C 359.180 112.499,359.281 112.616,359.222 112.711 C 359.162 112.810,359.195 112.835,359.300 112.770 C 359.606 112.581,359.336 112.190,358.861 112.134 C 358.431 112.084,358.440 112.068,359.124 111.666 C 359.840 111.245,359.997 110.897,359.633 110.533 C 359.386 110.286,359.439 110.279,358.333 110.697 M282.000 110.927 C 282.000 111.173,282.997 111.667,283.493 111.667 C 283.705 111.667,283.808 111.740,283.744 111.844 C 283.621 112.043,282.824 112.404,282.613 112.356 C 282.537 112.339,282.519 112.396,282.573 112.483 C 282.627 112.570,282.576 112.675,282.460 112.716 C 282.345 112.757,282.453 112.765,282.702 112.734 C 282.950 112.703,283.199 112.750,283.253 112.839 C 283.308 112.927,283.555 112.998,283.802 112.995 C 284.187 112.991,284.209 112.966,283.958 112.820 C 283.798 112.727,283.668 112.560,283.669 112.450 C 283.671 112.326,283.730 112.343,283.827 112.495 C 284.064 112.871,284.212 112.586,284.083 112.001 C 284.020 111.713,283.844 111.431,283.693 111.374 C 283.541 111.317,283.342 111.180,283.250 111.070 C 283.015 110.786,282.000 110.670,282.000 110.927 M288.850 111.608 C 288.636 112.408,288.673 112.987,288.931 112.888 C 289.038 112.847,289.280 113.008,289.467 113.245 C 289.667 113.500,289.851 113.606,289.914 113.504 C 289.973 113.409,289.911 113.289,289.777 113.237 C 289.633 113.182,289.551 112.973,289.577 112.731 C 289.621 112.332,289.335 111.279,289.125 111.070 C 289.068 111.013,288.945 111.255,288.850 111.608 M319.667 111.167 C 319.529 111.256,319.173 111.329,318.875 111.331 C 318.555 111.332,318.332 111.419,318.331 111.542 C 318.330 111.656,318.283 111.922,318.226 112.132 C 318.170 112.342,318.190 112.502,318.270 112.487 C 318.351 112.473,318.454 112.476,318.500 112.494 C 318.796 112.614,319.364 112.585,319.449 112.447 C 319.506 112.356,319.471 112.331,319.373 112.392 C 319.275 112.453,319.157 112.408,319.110 112.293 C 319.046 112.134,318.982 112.144,318.849 112.333 C 318.713 112.525,318.671 112.531,318.669 112.359 C 318.668 112.236,318.811 112.098,318.988 112.051 C 319.165 112.005,319.273 111.871,319.229 111.754 C 319.180 111.628,319.321 111.497,319.573 111.434 C 319.808 111.375,320.000 111.253,320.000 111.163 C 320.000 110.964,319.981 110.964,319.667 111.167 M300.379 111.962 C 300.001 112.256,300.051 112.535,300.500 112.644 C 300.637 112.677,300.975 112.769,301.250 112.848 L 301.750 112.993 301.333 112.667 L 300.917 112.341 301.333 112.333 L 301.750 112.326 301.333 112.000 C 300.828 111.604,300.839 111.605,300.379 111.962 M284.333 112.649 C 284.333 112.750,284.468 112.833,284.633 112.833 C 284.798 112.833,285.028 112.927,285.143 113.042 C 285.311 113.209,285.331 113.192,285.242 112.958 C 285.181 112.798,285.070 112.667,284.996 112.667 C 284.921 112.667,284.742 112.621,284.597 112.566 C 284.452 112.510,284.333 112.547,284.333 112.649 M323.052 112.792 C 322.995 112.952,322.918 113.140,322.881 113.208 C 322.714 113.518,322.990 113.291,323.235 112.917 C 323.386 112.686,323.429 112.500,323.332 112.500 C 323.235 112.500,323.109 112.631,323.052 112.792 M296.667 112.897 C 296.667 113.045,297.341 113.123,297.426 112.984 C 297.478 112.901,297.328 112.833,297.093 112.833 C 296.859 112.833,296.667 112.862,296.667 112.897 M1.375 114.444 C 0.570 114.729,0.443 115.006,1.125 114.988 C 1.531 114.978,1.545 114.960,1.250 114.833 C 0.892 114.679,1.186 114.606,2.126 114.616 C 2.424 114.619,2.463 114.573,2.314 114.393 C 2.210 114.269,2.116 114.173,2.105 114.180 C 2.093 114.187,1.765 114.306,1.375 114.444 M210.515 115.117 C 210.136 115.948,210.397 116.500,211.167 116.500 C 211.721 116.500,212.000 116.217,212.000 115.654 C 212.000 114.832,210.837 114.411,210.515 115.117 M230.452 120.603 C 230.243 120.813,230.325 121.507,230.570 121.601 C 230.970 121.755,231.526 121.350,231.468 120.947 C 231.416 120.582,230.712 120.344,230.452 120.603 M0.065 138.500 C 0.065 139.737,0.092 140.244,0.124 139.625 C 0.156 139.006,0.156 137.994,0.124 137.375 C 0.092 136.756,0.065 137.262,0.065 138.500 M61.588 146.484 C 61.431 146.981,61.783 147.531,62.220 147.468 C 62.816 147.384,62.746 146.269,62.139 146.199 C 61.813 146.161,61.667 146.237,61.588 146.484 M88.898 152.571 C 88.747 152.966,88.961 153.365,89.291 153.302 C 89.476 153.266,89.583 153.094,89.583 152.833 C 89.583 152.358,89.057 152.157,88.898 152.571 M79.208 158.444 C 78.873 158.579,78.956 159.465,79.322 159.660 C 79.947 159.995,80.427 159.117,79.905 158.595 C 79.631 158.322,79.553 158.305,79.208 158.444 M64.500 168.240 C 64.500 168.755,64.793 168.945,65.105 168.633 C 65.410 168.328,65.231 167.833,64.816 167.833 C 64.592 167.833,64.500 167.952,64.500 168.240 M0.080 201.417 C 0.080 209.300,0.100 212.501,0.125 208.529 C 0.150 204.558,0.150 198.108,0.125 194.196 C 0.100 190.284,0.080 193.533,0.080 201.417 M251.668 203.748 C 251.553 203.887,251.508 204.175,251.565 204.403 C 251.765 205.202,252.833 205.084,252.833 204.263 C 252.833 203.570,252.089 203.241,251.668 203.748 M222.038 216.195 C 221.735 216.499,221.789 216.798,222.186 217.010 C 222.668 217.268,223.174 216.813,222.896 216.372 C 222.666 216.006,222.302 215.931,222.038 216.195 M235.040 219.860 C 234.557 220.343,234.989 221.072,235.699 220.971 C 236.294 220.887,236.264 219.771,235.665 219.701 C 235.436 219.674,235.154 219.746,235.040 219.860 M254.857 225.388 C 254.434 225.898,255.069 226.483,255.609 226.082 C 255.854 225.900,255.879 225.791,255.732 225.551 C 255.494 225.162,255.105 225.089,254.857 225.388 " stroke="none" fill="#fbf5e3" fill-rule="evenodd"></path></g></svg>