<svg id="svg" version="1.1" xmlns="http://www.w3.org/2000/svg" xmlns:xlink="http://www.w3.org/1999/xlink" width="400" height="400" viewBox="0, 0, 400,400"><g id="svgg"><path id="path0" d="M95.800 3.900 C 93.723 6.045,91.883 7.931,91.712 8.090 C 89.218 10.413,76.096 23.569,76.176 23.667 C 76.235 23.740,75.680 24.390,74.942 25.111 C 74.204 25.833,73.600 26.326,73.600 26.208 C 73.600 26.089,70.179 29.459,65.997 33.696 C 61.816 37.933,58.237 41.556,58.043 41.746 C 57.584 42.197,42.197 57.584,41.746 58.043 C 41.556 58.237,37.949 61.800,33.732 65.962 C 29.514 70.125,26.113 73.591,26.174 73.665 C 26.234 73.739,25.680 74.390,24.942 75.111 C 24.204 75.833,23.600 76.326,23.600 76.208 C 23.600 76.052,11.395 88.258,8.097 91.712 C 7.934 91.883,6.045 93.723,3.900 95.800 L 0.000 99.577 0.000 206.356 C 0.000 315.910,-0.017 314.400,1.209 314.400 C 1.608 314.400,2.028 314.625,2.143 314.900 C 2.294 315.258,2.479 315.201,2.797 314.700 C 3.040 314.315,3.469 314.000,3.750 314.000 C 4.031 314.000,4.697 313.536,5.230 312.968 L 6.200 311.936 6.302 208.773 L 6.405 105.610 51.502 105.505 L 96.600 105.400 98.432 104.521 C 100.774 103.397,103.397 100.774,104.521 98.432 L 105.400 96.600 105.505 51.500 L 105.610 6.400 186.025 6.400 C 274.646 6.400,267.743 6.194,269.668 8.894 L 270.600 10.200 270.463 21.618 C 270.371 29.225,270.475 33.593,270.774 34.703 C 271.546 37.572,274.122 38.491,276.142 36.619 L 277.200 35.638 277.200 28.819 L 277.200 22.000 302.541 22.000 L 327.882 22.000 329.204 22.900 C 331.640 24.558,332.121 25.596,332.163 29.279 C 332.183 31.106,332.155 52.932,332.100 77.783 L 332.000 122.967 330.183 121.183 C 326.888 117.949,326.144 118.221,319.171 125.200 C 315.984 128.390,313.067 131.247,312.689 131.548 C 312.088 132.028,311.516 131.856,308.154 130.187 C 306.038 129.137,302.123 127.529,299.453 126.613 L 294.600 124.948 294.493 115.530 C 294.358 103.647,295.317 104.780,285.113 104.450 L 277.400 104.200 277.200 82.264 L 277.000 60.329 276.056 59.564 C 274.448 58.263,272.141 58.703,271.109 60.509 C 270.721 61.188,270.552 66.551,270.400 83.000 L 270.200 104.600 262.616 104.709 C 252.346 104.857,253.200 103.864,253.200 115.659 L 253.200 124.779 252.020 125.390 C 251.371 125.725,250.584 126.000,250.272 126.000 C 249.496 126.000,240.320 129.795,238.100 131.035 C 235.674 132.389,236.017 132.592,229.066 125.684 C 223.883 120.533,222.678 119.530,221.427 119.327 L 219.942 119.086 206.571 132.435 C 190.035 148.944,190.835 146.336,199.600 155.175 C 203.120 158.725,206.000 161.733,206.000 161.861 C 206.000 161.988,205.558 162.926,205.017 163.946 C 203.164 167.441,201.096 172.427,199.521 177.200 L 198.927 179.000 189.763 179.200 C 180.019 179.413,179.561 179.491,178.854 181.041 C 178.186 182.508,178.240 218.359,178.913 219.235 C 179.990 220.638,181.061 220.800,189.274 220.805 C 199.174 220.812,198.904 220.751,199.554 223.126 C 200.066 224.998,200.580 226.384,201.247 227.695 C 201.441 228.077,201.600 228.591,201.600 228.837 C 201.600 229.083,202.545 231.200,203.700 233.542 C 204.855 235.884,205.857 237.925,205.926 238.078 C 205.995 238.231,203.161 241.291,199.628 244.878 C 190.887 253.754,190.119 251.164,206.296 267.377 C 222.771 283.889,220.228 283.102,228.989 274.399 L 235.544 267.887 239.672 269.886 C 244.089 272.026,246.774 273.116,250.600 274.322 L 253.000 275.079 253.108 284.222 C 253.248 296.159,252.385 295.147,262.562 295.292 L 270.200 295.400 270.302 327.113 L 270.405 358.826 268.831 360.513 L 267.257 362.200 138.615 362.302 L 9.973 362.404 8.286 360.831 L 6.600 359.259 6.400 348.471 C 6.182 336.720,6.119 336.418,3.771 335.828 C 3.237 335.694,2.800 335.408,2.800 335.192 C 2.800 334.977,2.440 334.800,2.000 334.800 C 1.560 334.800,1.200 334.980,1.200 335.200 C 1.200 335.420,0.921 335.600,0.580 335.600 C -0.255 335.600,-0.136 362.422,0.700 362.700 C 0.975 362.792,1.200 363.126,1.200 363.444 C 1.200 364.213,4.614 367.600,5.389 367.600 C 5.725 367.600,6.000 367.780,6.000 368.000 C 6.000 368.220,6.360 368.400,6.800 368.400 C 7.240 368.400,7.600 368.580,7.600 368.800 C 7.600 369.063,16.667 369.200,34.000 369.200 L 60.400 369.200 60.400 371.800 C 60.400 373.267,60.574 374.400,60.800 374.400 C 61.020 374.400,61.200 374.935,61.200 375.588 C 61.200 377.741,65.352 383.200,66.989 383.200 C 67.325 383.200,67.600 383.380,67.600 383.600 C 67.600 383.820,67.960 384.000,68.400 384.000 C 68.840 384.000,69.200 384.180,69.200 384.400 C 69.200 384.663,78.333 384.800,95.800 384.800 L 122.400 384.800 122.400 388.000 C 122.400 389.867,122.567 391.200,122.800 391.200 C 123.020 391.200,123.200 391.650,123.200 392.200 C 123.200 392.750,123.380 393.200,123.600 393.200 C 123.820 393.200,124.000 393.560,124.000 394.000 C 124.000 394.440,124.158 394.800,124.351 394.800 C 124.545 394.800,124.927 395.340,125.200 396.000 C 125.473 396.660,125.905 397.200,126.160 397.200 C 126.415 397.200,126.883 397.560,127.200 398.000 C 127.517 398.440,127.992 398.800,128.255 398.800 C 128.518 398.800,128.808 399.025,128.900 399.300 C 129.145 400.036,393.655 400.036,393.900 399.300 C 393.992 399.025,394.326 398.800,394.644 398.800 C 395.395 398.800,398.800 395.395,398.800 394.644 C 398.800 394.326,399.025 393.992,399.300 393.900 C 399.699 393.767,399.800 357.751,399.800 215.600 C 399.800 73.449,399.699 37.433,399.300 37.300 C 399.025 37.208,398.800 36.874,398.800 36.556 C 398.800 35.787,395.386 32.400,394.611 32.400 C 394.275 32.400,394.000 32.220,394.000 32.000 C 394.000 31.780,393.640 31.600,393.200 31.600 C 392.760 31.600,392.400 31.420,392.400 31.200 C 392.400 30.937,383.333 30.800,366.000 30.800 L 339.600 30.800 339.600 28.200 C 339.600 26.733,339.426 25.600,339.200 25.600 C 338.980 25.600,338.800 25.143,338.800 24.584 C 338.800 21.811,333.794 16.000,331.405 16.000 C 331.072 16.000,330.800 15.820,330.800 15.600 C 330.800 15.337,321.667 15.200,304.200 15.200 L 277.600 15.200 277.600 12.224 C 277.600 10.587,277.420 9.136,277.200 9.000 C 276.980 8.864,276.800 8.313,276.800 7.776 C 276.800 7.239,276.620 6.800,276.400 6.800 C 276.180 6.800,276.000 6.440,276.000 6.000 C 276.000 5.560,275.842 5.200,275.649 5.200 C 275.455 5.200,275.073 4.660,274.800 4.000 C 274.527 3.340,274.190 2.800,274.051 2.799 C 273.913 2.799,273.189 2.276,272.442 1.637 C 270.430 -0.082,274.843 0.000,184.139 0.000 L 99.577 0.000 95.800 3.900 M99.400 53.433 L 99.400 95.000 98.461 96.510 C 96.531 99.614,99.922 99.387,53.629 99.509 C 25.207 99.584,12.127 99.487,11.839 99.199 C 11.370 98.730,98.296 11.499,98.999 11.733 C 99.263 11.821,99.400 26.042,99.400 53.433 M190.891 13.385 C 189.752 14.343,189.030 15.900,188.005 19.600 C 187.731 20.590,187.369 21.850,187.200 22.400 C 187.031 22.950,186.671 24.210,186.400 25.200 C 186.129 26.190,185.769 27.450,185.600 28.000 C 185.431 28.550,185.066 29.810,184.789 30.800 C 184.511 31.790,184.064 33.320,183.793 34.200 C 183.523 35.080,181.533 41.965,179.370 49.500 C 177.207 57.035,175.279 63.200,175.086 63.200 C 174.747 63.200,165.940 55.572,164.110 53.694 L 163.220 52.780 164.906 51.290 C 165.833 50.471,166.789 49.620,167.030 49.400 C 167.271 49.180,168.789 47.830,170.404 46.400 C 176.735 40.791,176.810 39.682,171.271 33.648 C 164.226 25.973,164.967 25.766,150.337 39.522 C 136.289 52.731,136.083 53.161,141.473 57.979 C 142.533 58.926,145.920 62.074,149.000 64.974 C 163.418 78.551,161.748 77.200,164.116 77.200 C 166.195 77.200,166.256 77.165,169.011 74.372 C 173.393 69.928,173.644 70.042,171.861 75.676 C 171.561 76.624,171.089 78.210,170.811 79.200 C 170.534 80.190,170.169 81.450,170.000 82.000 C 168.624 86.480,168.637 86.369,169.316 87.793 C 170.953 91.226,182.794 94.500,185.461 92.256 C 187.033 90.933,188.857 85.383,195.238 62.500 C 195.652 61.013,196.230 58.986,196.777 57.100 C 199.164 48.871,200.463 44.286,200.688 43.300 C 200.920 42.283,201.301 42.173,202.076 42.900 C 202.369 43.175,203.417 44.106,204.404 44.969 C 213.276 52.722,213.491 53.001,211.700 54.403 C 211.095 54.877,209.966 55.835,209.192 56.533 C 208.417 57.230,206.399 59.026,204.706 60.524 C 200.510 64.237,200.093 66.591,203.058 69.843 C 211.476 79.074,212.208 79.261,218.122 73.700 C 220.169 71.775,224.527 67.680,227.807 64.600 C 237.307 55.679,237.524 55.456,237.813 54.297 C 238.553 51.330,238.254 50.909,229.791 43.000 C 226.731 40.140,222.454 36.090,220.287 34.000 C 212.928 26.902,211.663 26.758,206.264 32.401 C 203.349 35.449,202.874 35.646,203.553 33.530 C 208.939 16.755,208.866 16.415,199.325 13.682 C 193.876 12.121,192.453 12.071,190.891 13.385 M197.696 19.739 C 200.955 20.850,200.889 20.790,200.450 22.235 C 199.252 26.188,196.946 34.042,196.410 36.000 C 196.199 36.770,195.489 39.200,194.832 41.400 C 193.464 45.985,188.094 64.697,186.797 69.400 C 186.615 70.060,185.900 72.490,185.209 74.800 C 184.517 77.110,183.683 79.990,183.356 81.200 C 182.299 85.105,181.674 86.601,181.131 86.533 C 179.876 86.374,176.315 85.273,176.017 84.951 C 175.839 84.758,177.578 78.120,179.883 70.200 C 184.131 55.605,184.407 54.652,185.200 51.800 C 185.445 50.920,185.805 49.660,186.000 49.000 C 186.195 48.340,186.714 46.540,187.154 45.000 C 187.594 43.460,188.695 39.680,189.601 36.600 C 190.507 33.520,191.515 30.010,191.842 28.800 C 192.618 25.919,194.811 18.797,194.917 18.810 C 194.963 18.816,196.213 19.234,197.696 19.739 M219.704 42.034 C 230.791 52.498,230.865 52.573,230.570 53.205 C 230.417 53.532,228.646 55.330,226.634 57.200 C 222.457 61.082,216.600 66.572,214.098 68.951 L 212.397 70.570 210.217 68.417 C 207.676 65.908,207.583 66.223,212.000 62.375 C 223.757 52.132,223.625 53.538,213.644 44.808 C 207.632 39.549,207.853 40.037,210.247 37.306 C 212.455 34.788,211.542 34.331,219.704 42.034 M166.366 37.500 C 168.528 40.021,168.741 39.601,162.553 45.025 C 155.718 51.016,156.006 50.731,155.548 51.936 C 154.963 53.476,155.757 54.875,158.576 57.272 C 168.957 66.099,168.793 65.849,166.014 68.586 L 163.999 70.571 161.899 68.559 C 159.745 66.494,156.082 63.070,153.600 60.802 C 150.418 57.894,145.600 53.076,145.600 52.802 C 145.600 52.640,147.984 50.279,150.899 47.554 C 153.813 44.829,157.818 41.029,159.799 39.108 C 163.992 35.043,164.214 34.989,166.366 37.500 M390.704 38.398 C 391.421 38.835,392.365 39.779,392.802 40.496 C 394.057 42.555,394.057 388.645,392.802 390.704 C 392.365 391.421,391.421 392.365,390.704 392.802 C 388.646 394.057,134.554 394.057,132.496 392.802 C 130.399 391.523,129.566 389.800,129.692 387.000 L 129.800 384.600 229.800 384.400 L 329.800 384.200 331.600 383.356 C 333.842 382.305,336.487 379.645,337.687 377.234 L 338.600 375.400 338.600 348.172 C 338.600 317.409,338.825 319.491,335.500 319.491 C 334.163 319.491,333.677 319.709,332.928 320.645 L 332.004 321.800 332.002 347.841 L 332.000 373.882 331.092 375.241 C 329.062 378.279,342.398 377.999,199.880 377.999 C 87.350 378.000,72.224 377.930,71.201 377.400 C 68.977 376.251,68.000 374.438,68.000 371.462 L 68.000 368.800 167.842 368.800 L 267.684 368.800 269.742 367.773 C 272.468 366.413,274.451 364.431,275.852 361.666 L 277.000 359.400 277.200 327.600 L 277.400 295.800 285.090 295.600 C 295.423 295.331,294.540 296.359,294.800 284.290 L 295.000 275.000 298.600 273.767 C 303.256 272.171,303.100 272.236,307.936 269.901 L 312.072 267.903 318.536 274.304 C 326.434 282.126,326.882 282.300,330.175 278.836 C 331.967 276.951,332.000 277.066,332.002 285.300 C 332.004 292.697,332.039 293.042,332.902 294.061 C 334.128 295.510,336.366 295.879,337.646 294.844 L 338.600 294.072 338.800 282.073 L 339.000 270.075 346.900 262.172 C 357.138 251.932,357.009 253.415,348.400 244.886 C 344.880 241.398,342.000 238.418,342.000 238.264 C 342.000 238.109,342.704 236.583,343.564 234.872 C 345.438 231.143,347.720 225.228,348.644 221.700 C 348.744 221.319,350.879 221.200,357.614 221.200 C 370.860 221.200,369.580 223.450,369.591 200.142 L 369.600 181.685 368.440 180.442 L 367.279 179.200 362.302 179.200 C 355.108 179.200,348.747 178.753,348.610 178.237 C 347.626 174.532,345.246 168.453,343.168 164.337 C 342.526 163.064,342.000 161.913,342.000 161.779 C 342.000 161.645,344.115 159.428,346.700 156.853 C 357.151 146.443,357.141 148.266,346.800 137.810 L 338.800 129.721 338.800 83.660 L 338.800 37.600 364.100 37.601 C 388.640 37.603,389.439 37.627,390.704 38.398 M288.400 120.185 L 288.600 129.369 289.959 130.285 C 290.707 130.788,291.744 131.200,292.265 131.200 C 292.785 131.200,293.523 131.362,293.905 131.561 C 294.287 131.760,295.410 132.151,296.400 132.431 C 297.390 132.710,298.371 133.088,298.580 133.270 C 298.789 133.451,299.219 133.600,299.535 133.600 C 300.092 133.600,307.550 137.173,310.394 138.802 C 313.141 140.375,313.208 140.335,321.031 132.415 C 323.864 129.547,326.366 127.204,326.591 127.209 C 326.816 127.214,331.498 131.714,336.996 137.209 L 346.991 147.199 340.696 153.504 C 334.213 159.997,333.291 161.475,334.762 163.020 C 335.384 163.674,338.995 170.886,339.958 173.400 C 340.464 174.720,341.021 176.160,341.195 176.600 C 341.370 177.040,342.028 179.020,342.656 181.000 C 344.252 186.022,344.195 185.999,354.705 185.999 L 362.810 186.000 362.705 200.100 L 362.600 214.200 353.760 214.400 C 343.400 214.634,343.989 214.385,342.561 219.152 C 341.993 221.048,341.382 222.960,341.203 223.400 C 341.024 223.840,340.464 225.280,339.958 226.600 C 338.995 229.114,335.384 236.326,334.762 236.980 C 333.291 238.525,334.213 240.003,340.696 246.496 L 346.992 252.802 336.999 262.801 C 331.503 268.300,326.837 272.800,326.631 272.800 C 326.425 272.800,323.573 270.100,320.295 266.799 C 312.931 259.388,313.355 259.512,307.200 262.960 C 303.440 265.067,298.576 266.978,291.306 269.205 C 288.395 270.097,288.429 269.977,288.308 280.023 L 288.200 289.000 273.900 289.105 L 259.600 289.210 259.594 280.705 C 259.587 270.507,258.995 268.934,255.124 268.829 C 254.532 268.813,253.936 268.620,253.800 268.400 C 253.664 268.180,253.227 268.000,252.830 268.000 C 252.207 268.000,250.948 267.567,247.000 265.996 C 245.440 265.375,240.169 262.794,238.000 261.589 C 234.643 259.724,234.350 259.869,227.395 266.808 C 224.093 270.104,221.261 272.800,221.103 272.800 C 220.945 272.800,216.302 268.279,210.785 262.753 L 200.754 252.706 206.977 246.464 C 214.442 238.976,214.229 239.833,210.479 232.397 C 208.010 227.500,206.706 224.141,205.163 218.695 C 204.866 217.648,204.230 216.298,203.750 215.695 L 202.877 214.600 193.939 214.400 L 185.000 214.200 184.895 200.447 C 184.820 190.631,184.919 186.538,185.244 186.147 C 185.602 185.716,187.477 185.600,194.088 185.600 L 202.479 185.600 203.640 184.358 C 204.278 183.674,204.801 182.819,204.803 182.458 C 204.810 180.821,208.288 171.738,210.624 167.257 C 214.269 160.263,214.466 161.001,206.969 153.528 L 200.738 147.316 210.758 137.258 C 216.269 131.726,220.920 127.200,221.094 127.200 C 221.268 127.200,224.099 129.894,227.386 133.186 C 233.698 139.509,234.693 140.138,236.697 139.078 C 242.031 136.254,247.512 133.603,248.020 133.602 C 248.361 133.601,248.811 133.451,249.020 133.270 C 249.229 133.088,250.210 132.710,251.200 132.431 C 252.190 132.151,253.313 131.760,253.695 131.561 C 254.077 131.362,254.754 131.200,255.200 131.200 C 256.041 131.200,257.292 130.608,258.500 129.638 C 259.129 129.133,259.200 128.173,259.200 120.205 C 259.200 115.325,259.322 111.211,259.472 111.062 C 259.621 110.912,266.146 110.837,273.972 110.895 L 288.200 111.000 288.400 120.185 M27.462 132.731 C 26.650 133.628,26.599 135.972,27.368 137.024 C 27.923 137.783,28.782 137.800,66.003 137.800 L 104.071 137.800 104.835 136.856 C 105.826 135.632,105.805 134.368,104.771 133.054 L 103.942 132.000 66.033 132.000 C 29.815 132.000,28.094 132.033,27.462 132.731 M126.820 132.871 C 125.856 133.906,125.766 135.856,126.630 137.000 C 127.356 137.962,154.268 138.483,156.455 137.577 C 158.009 136.934,158.517 135.238,157.667 133.535 L 157.000 132.200 142.320 132.095 C 127.645 131.990,127.640 131.990,126.820 132.871 M266.734 149.400 C 266.591 149.542,265.423 149.834,264.137 150.049 C 262.852 150.263,261.213 150.540,260.496 150.664 C 259.779 150.787,259.094 151.049,258.973 151.244 C 258.852 151.440,258.401 151.600,257.971 151.600 C 257.541 151.600,256.877 151.765,256.495 151.966 C 256.113 152.168,255.080 152.635,254.200 153.005 C 207.616 172.584,215.179 240.692,265.000 250.266 C 267.578 250.761,280.742 250.615,283.400 250.061 C 284.720 249.786,286.387 249.460,287.104 249.336 C 287.821 249.213,288.506 248.951,288.627 248.756 C 288.748 248.560,289.191 248.400,289.612 248.400 C 290.321 248.400,291.803 247.801,296.400 245.658 C 304.591 241.839,313.356 233.628,318.025 225.400 C 319.548 222.717,321.200 219.217,321.200 218.674 C 321.200 218.391,321.343 217.989,321.518 217.780 C 322.943 216.080,324.784 206.054,324.784 200.000 C 324.784 183.294,314.335 162.700,309.984 170.830 C 309.319 172.072,309.564 173.341,310.824 175.200 C 313.134 178.607,315.700 184.262,316.721 188.200 C 316.950 189.080,317.355 190.610,317.621 191.600 C 317.909 192.667,318.106 196.088,318.106 200.000 C 318.106 203.912,317.909 207.333,317.621 208.400 C 317.355 209.390,316.950 210.920,316.721 211.800 C 314.398 220.755,307.475 230.911,300.427 235.705 C 299.422 236.388,298.510 237.049,298.400 237.174 C 297.619 238.058,291.890 240.821,288.429 241.984 C 284.922 243.161,278.113 244.517,277.526 244.155 C 277.117 243.901,277.091 156.112,277.500 155.869 C 277.961 155.594,282.199 156.354,286.216 157.431 C 290.847 158.672,291.316 158.653,292.564 157.169 C 294.317 155.086,293.300 152.388,290.534 151.785 C 289.910 151.649,289.040 151.385,288.600 151.199 C 288.160 151.013,287.260 150.747,286.600 150.609 C 285.940 150.470,284.590 150.167,283.600 149.935 C 281.565 149.459,267.133 149.000,266.734 149.400 M270.400 200.038 L 270.400 244.475 268.300 244.217 C 254.705 242.545,241.921 233.985,235.420 222.200 C 234.813 221.100,234.184 220.020,234.023 219.800 C 233.581 219.199,231.353 213.227,230.888 211.400 C 229.762 206.973,229.600 205.536,229.600 200.000 C 229.600 196.706,229.798 193.154,230.041 192.106 C 230.778 188.918,231.276 187.040,231.607 186.200 C 231.780 185.760,232.330 184.320,232.829 183.000 C 233.328 181.680,234.066 180.122,234.468 179.538 C 234.871 178.954,235.200 178.361,235.200 178.220 C 235.200 177.397,239.790 171.346,242.368 168.771 C 249.774 161.373,259.466 156.755,269.900 155.653 C 270.297 155.611,270.400 164.726,270.400 200.038 M27.854 165.629 C 26.489 166.703,26.379 169.095,27.642 170.238 C 28.963 171.433,155.837 171.433,157.158 170.238 C 158.421 169.095,158.311 166.703,156.946 165.629 L 155.892 164.800 92.400 164.800 L 28.908 164.800 27.854 165.629 M27.689 198.623 C 27.000 199.105,26.800 199.640,26.800 201.000 C 26.800 204.279,20.713 204.000,92.315 204.000 C 133.126 204.000,156.316 203.859,156.784 203.608 C 158.513 202.683,158.392 198.943,156.612 198.260 C 154.942 197.619,28.614 197.975,27.689 198.623 M80.400 231.185 C 79.438 231.924,79.395 232.149,79.269 237.159 L 79.137 242.366 76.950 243.184 C 75.747 243.634,74.059 244.362,73.197 244.801 C 70.982 245.932,70.571 245.836,68.403 243.679 C 61.832 237.142,62.927 236.927,53.123 246.687 C 43.379 256.387,43.607 255.675,48.600 260.778 C 52.479 264.741,52.301 264.289,51.027 266.960 C 50.491 268.082,49.790 269.810,49.468 270.800 L 48.882 272.600 44.541 272.699 C 36.292 272.886,36.800 271.996,36.800 286.248 L 36.800 297.546 37.962 298.373 C 38.973 299.093,39.715 299.200,43.682 299.200 C 48.214 299.200,49.200 299.464,49.200 300.678 C 49.200 300.963,49.830 302.561,50.600 304.228 C 51.370 305.895,52.000 307.369,52.000 307.503 C 52.000 307.638,50.470 309.311,48.600 311.222 C 43.524 316.410,43.364 315.862,52.688 325.246 C 62.304 334.925,62.274 334.916,67.200 329.826 C 70.595 326.317,70.616 326.309,73.000 327.437 C 74.100 327.957,75.720 328.584,76.600 328.830 C 79.173 329.550,79.200 329.613,79.200 334.827 C 79.200 339.158,79.276 339.642,80.100 340.588 L 81.000 341.620 92.331 341.710 L 103.661 341.800 104.631 340.678 C 105.540 339.625,105.600 339.259,105.600 334.769 C 105.600 330.180,105.637 329.968,106.500 329.618 C 106.995 329.417,108.909 328.620,110.754 327.847 L 114.109 326.441 117.563 329.765 C 122.965 334.961,122.316 335.166,132.300 325.106 C 141.620 315.716,141.455 316.783,134.671 309.724 L 132.676 307.649 133.860 305.124 C 134.512 303.736,135.288 301.835,135.586 300.900 L 136.128 299.200 141.189 299.200 C 148.798 299.200,148.660 299.473,148.254 285.212 C 147.883 272.209,148.245 272.800,140.651 272.800 L 136.062 272.800 135.574 271.300 C 135.305 270.475,134.571 268.670,133.942 267.290 C 132.494 264.109,132.296 264.707,136.015 261.026 C 141.144 255.949,141.226 256.226,131.800 246.757 C 122.338 237.251,122.520 237.306,117.409 242.412 C 113.754 246.064,114.085 245.959,110.971 244.455 C 109.667 243.826,108.150 243.174,107.600 243.006 C 105.705 242.430,105.600 242.141,105.600 237.525 C 105.600 230.141,106.131 230.426,92.400 230.422 C 82.167 230.418,81.330 230.471,80.400 231.185 M99.210 239.900 C 99.227 246.396,99.506 246.858,104.311 248.376 C 106.010 248.912,108.737 250.037,110.370 250.876 C 114.769 253.133,115.295 253.032,119.216 249.184 L 122.493 245.968 127.247 250.663 C 132.870 256.217,132.769 255.708,129.000 259.464 C 125.372 263.080,125.277 263.662,127.579 268.111 C 128.448 269.789,129.609 272.629,130.159 274.423 C 131.458 278.650,131.641 278.770,136.800 278.793 C 142.433 278.819,142.040 278.246,141.910 286.230 L 141.800 293.000 137.216 293.114 C 131.698 293.251,131.627 293.298,130.167 297.746 C 129.580 299.536,128.402 302.356,127.550 304.014 C 125.258 308.471,125.370 309.142,129.009 312.800 C 132.711 316.521,132.875 315.740,127.201 321.399 L 122.403 326.185 119.093 322.892 C 115.811 319.627,113.483 318.571,112.627 319.957 C 112.302 320.482,107.790 322.570,104.800 323.579 C 100.075 325.173,100.039 325.195,99.608 326.746 C 99.386 327.546,99.203 329.869,99.202 331.909 L 99.200 335.619 92.300 335.509 L 85.400 335.400 85.286 330.816 C 85.148 325.277,85.138 325.261,80.473 323.756 C 78.563 323.140,75.701 321.953,74.114 321.118 C 70.001 318.955,69.691 319.018,65.713 322.837 C 63.859 324.618,62.275 326.013,62.193 325.937 C 61.330 325.136,54.330 318.194,53.474 317.291 L 52.348 316.102 55.574 312.898 C 59.440 309.059,59.517 308.642,57.211 304.070 C 56.337 302.337,55.153 299.462,54.578 297.681 C 53.215 293.454,53.191 293.439,47.641 293.200 L 43.000 293.000 43.000 286.000 L 43.000 279.000 47.642 278.888 C 53.166 278.754,53.336 278.638,54.769 274.000 C 55.279 272.350,56.395 269.636,57.248 267.970 C 59.457 263.657,59.400 263.367,55.540 259.337 L 52.279 255.933 57.223 250.977 L 62.167 246.021 65.435 249.211 C 69.395 253.076,70.070 253.201,74.499 250.879 C 76.094 250.043,78.750 248.930,80.400 248.407 C 85.062 246.928,85.200 246.726,85.200 241.397 C 85.200 235.903,84.477 236.400,92.467 236.400 L 99.200 236.400 99.210 239.900 M88.200 256.214 C 84.892 256.740,83.572 257.041,82.200 257.583 C 53.024 269.105,56.640 309.619,87.400 315.833 C 100.542 318.488,115.649 310.005,120.402 297.303 C 127.473 278.403,116.120 259.104,96.200 256.160 C 92.062 255.549,92.397 255.546,88.200 256.214 M99.312 262.977 C 116.895 268.421,122.287 290.333,109.210 303.200 C 96.000 316.197,76.084 311.028,69.134 292.800 C 68.097 290.081,68.428 281.495,69.703 278.039 C 74.166 265.938,87.298 259.257,99.312 262.977 " stroke="none" fill="#7d5ee3" fill-rule="evenodd"></path><path id="path1" d="M259.472 111.062 C 259.322 111.211,259.200 115.325,259.200 120.205 C 259.200 128.173,259.129 129.133,258.500 129.638 C 257.292 130.608,256.041 131.200,255.200 131.200 C 254.754 131.200,254.077 131.362,253.695 131.561 C 253.313 131.760,252.190 132.151,251.200 132.431 C 250.210 132.710,249.229 133.088,249.020 133.270 C 248.811 133.451,248.361 133.601,248.020 133.602 C 247.512 133.603,242.031 136.254,236.697 139.078 C 234.693 140.138,233.698 139.509,227.386 133.186 C 224.099 129.894,221.268 127.200,221.094 127.200 C 220.920 127.200,216.269 131.726,210.758 137.258 L 200.738 147.316 206.969 153.528 C 214.466 161.001,214.269 160.263,210.624 167.257 C 208.288 171.738,204.810 180.821,204.803 182.458 C 204.801 182.819,204.278 183.674,203.640 184.358 L 202.479 185.600 194.088 185.600 C 187.477 185.600,185.602 185.716,185.244 186.147 C 184.919 186.538,184.820 190.631,184.895 200.447 L 185.000 214.200 193.939 214.400 L 202.877 214.600 203.750 215.695 C 204.230 216.298,204.866 217.648,205.163 218.695 C 206.706 224.141,208.010 227.500,210.479 232.397 C 214.229 239.833,214.442 238.976,206.977 246.464 L 200.754 252.706 210.785 262.753 C 216.302 268.279,220.945 272.800,221.103 272.800 C 221.261 272.800,224.093 270.104,227.395 266.808 C 234.350 259.869,234.643 259.724,238.000 261.589 C 240.169 262.794,245.440 265.375,247.000 265.996 C 250.948 267.567,252.207 268.000,252.830 268.000 C 253.227 268.000,253.664 268.180,253.800 268.400 C 253.936 268.620,254.532 268.813,255.124 268.829 C 258.995 268.934,259.587 270.507,259.594 280.705 L 259.600 289.210 273.900 289.105 L 288.200 289.000 288.308 280.023 C 288.429 269.977,288.395 270.097,291.306 269.205 C 298.576 266.978,303.440 265.067,307.200 262.960 C 313.355 259.512,312.931 259.388,320.295 266.799 C 323.573 270.100,326.425 272.800,326.631 272.800 C 326.837 272.800,331.503 268.300,336.999 262.801 L 346.992 252.802 340.696 246.496 C 334.213 240.003,333.291 238.525,334.762 236.980 C 335.384 236.326,338.995 229.114,339.958 226.600 C 340.464 225.280,341.024 223.840,341.203 223.400 C 341.382 222.960,341.993 221.048,342.561 219.152 C 343.989 214.385,343.400 214.634,353.760 214.400 L 362.600 214.200 362.705 200.100 L 362.810 186.000 354.705 185.999 C 344.195 185.999,344.252 186.022,342.656 181.000 C 342.028 179.020,341.370 177.040,341.195 176.600 C 341.021 176.160,340.464 174.720,339.958 173.400 C 338.995 170.886,335.384 163.674,334.762 163.020 C 333.291 161.475,334.213 159.997,340.696 153.504 L 346.991 147.199 336.996 137.209 C 331.498 131.714,326.816 127.214,326.591 127.209 C 326.366 127.204,323.864 129.547,321.031 132.415 C 313.208 140.335,313.141 140.375,310.394 138.802 C 307.550 137.173,300.092 133.600,299.535 133.600 C 299.219 133.600,298.789 133.451,298.580 133.270 C 298.371 133.088,297.390 132.710,296.400 132.431 C 295.410 132.151,294.287 131.760,293.905 131.561 C 293.523 131.362,292.785 131.200,292.265 131.200 C 291.744 131.200,290.707 130.788,289.959 130.285 L 288.600 129.369 288.400 120.185 L 288.200 111.000 273.972 110.895 C 266.146 110.837,259.621 110.912,259.472 111.062 M283.600 149.935 C 284.590 150.167,285.940 150.470,286.600 150.609 C 287.260 150.747,288.160 151.013,288.600 151.199 C 289.040 151.385,289.910 151.649,290.534 151.785 C 292.212 152.151,293.701 153.928,293.497 155.321 C 293.343 156.369,293.532 156.558,295.965 157.791 C 300.946 160.316,310.400 168.087,310.400 169.656 C 310.400 169.908,310.836 169.806,311.437 169.413 C 316.368 166.182,324.784 185.469,324.784 200.000 C 324.784 206.054,322.943 216.080,321.518 217.780 C 321.343 217.989,321.200 218.391,321.200 218.674 C 321.200 219.217,319.548 222.717,318.025 225.400 C 313.356 233.628,304.591 241.839,296.400 245.658 C 291.803 247.801,290.321 248.400,289.612 248.400 C 289.191 248.400,288.748 248.560,288.627 248.756 C 288.506 248.951,287.821 249.213,287.104 249.336 C 286.387 249.460,284.720 249.786,283.400 250.061 C 280.742 250.615,267.578 250.761,265.000 250.266 C 233.085 244.133,214.689 211.227,226.449 181.307 C 231.364 168.804,241.705 158.257,254.200 153.005 C 255.080 152.635,256.113 152.168,256.495 151.966 C 256.877 151.765,257.541 151.600,257.971 151.600 C 258.401 151.600,258.852 151.440,258.973 151.244 C 259.094 151.049,259.779 150.787,260.496 150.664 C 261.213 150.540,262.852 150.263,264.137 150.049 C 265.423 149.834,266.591 149.542,266.734 149.400 C 267.133 149.000,281.565 149.459,283.600 149.935 M85.372 236.928 C 85.261 237.219,85.229 239.244,85.301 241.428 L 85.433 245.400 85.516 241.109 L 85.600 236.819 92.500 236.699 L 99.400 236.580 92.487 236.490 C 87.063 236.419,85.531 236.514,85.372 236.928 M99.200 244.976 C 99.200 245.513,99.347 246.044,99.528 246.155 C 99.708 246.267,99.777 245.827,99.682 245.179 C 99.472 243.749,99.200 243.635,99.200 244.976 M58.192 250.100 L 54.200 254.200 58.206 250.301 L 62.212 246.402 64.201 248.301 L 66.190 250.200 64.210 248.100 C 63.121 246.945,62.220 246.000,62.208 246.000 C 62.195 246.000,60.388 247.845,58.192 250.100 M122.000 246.048 C 122.110 246.134,124.450 248.361,127.200 250.995 L 132.200 255.786 127.800 251.266 C 125.380 248.780,123.040 246.554,122.600 246.319 C 122.160 246.084,121.890 245.962,122.000 246.048 M113.700 252.676 C 114.085 252.776,114.715 252.776,115.100 252.676 C 115.485 252.575,115.170 252.493,114.400 252.493 C 113.630 252.493,113.315 252.575,113.700 252.676 M89.300 255.876 C 89.685 255.976,90.315 255.976,90.700 255.876 C 91.085 255.775,90.770 255.693,90.000 255.693 C 89.230 255.693,88.915 255.775,89.300 255.876 M94.100 255.876 C 94.485 255.976,95.115 255.976,95.500 255.876 C 95.885 255.775,95.570 255.693,94.800 255.693 C 94.030 255.693,93.715 255.775,94.100 255.876 M55.740 259.438 C 57.488 261.263,58.596 262.789,58.799 263.650 C 59.112 264.976,59.119 264.980,59.159 263.847 C 59.192 262.913,58.609 262.110,56.100 259.635 L 53.000 256.576 55.740 259.438 M130.434 257.753 L 129.469 259.000 130.613 257.912 C 131.243 257.314,131.677 256.753,131.579 256.665 C 131.480 256.577,130.965 257.067,130.434 257.753 M70.786 264.700 L 68.600 267.000 70.900 264.814 C 73.037 262.782,73.383 262.400,73.086 262.400 C 73.024 262.400,71.989 263.435,70.786 264.700 M113.400 264.400 C 114.483 265.500,115.460 266.400,115.570 266.400 C 115.680 266.400,114.883 265.500,113.800 264.400 C 112.717 263.300,111.740 262.400,111.630 262.400 C 111.520 262.400,112.317 263.300,113.400 264.400 M125.693 264.000 C 125.693 264.770,125.775 265.085,125.876 264.700 C 125.976 264.315,125.976 263.685,125.876 263.300 C 125.775 262.915,125.693 263.230,125.693 264.000 M66.200 270.400 C 65.859 271.060,65.669 271.600,65.779 271.600 C 65.889 271.600,66.259 271.060,66.600 270.400 C 66.941 269.740,67.131 269.200,67.021 269.200 C 66.911 269.200,66.541 269.740,66.200 270.400 M128.867 271.620 C 129.101 272.292,129.367 272.767,129.457 272.676 C 129.656 272.478,128.901 270.400,128.631 270.400 C 128.527 270.400,128.633 270.949,128.867 271.620 M43.067 279.067 C 42.920 279.213,42.803 279.528,42.806 279.767 C 42.810 280.034,42.930 280.014,43.121 279.714 C 43.323 279.396,44.939 279.184,47.815 279.099 L 52.200 278.970 47.767 278.885 C 45.328 278.838,43.213 278.920,43.067 279.067 M134.915 279.096 C 136.188 279.176,138.168 279.175,139.315 279.094 C 140.462 279.014,139.420 278.949,137.000 278.950 C 134.580 278.951,133.642 279.016,134.915 279.096 M122.509 283.200 C 122.509 284.190,122.587 284.595,122.682 284.100 C 122.778 283.605,122.778 282.795,122.682 282.300 C 122.587 281.805,122.509 282.210,122.509 283.200 M122.514 288.600 C 122.517 289.700,122.595 290.103,122.687 289.495 C 122.779 288.886,122.777 287.986,122.682 287.495 C 122.587 287.003,122.511 287.500,122.514 288.600 M62.093 288.800 C 62.093 289.570,62.175 289.885,62.276 289.500 C 62.376 289.115,62.376 288.485,62.276 288.100 C 62.175 287.715,62.093 288.030,62.093 288.800 M45.315 293.096 C 46.588 293.176,48.568 293.175,49.715 293.094 C 50.862 293.014,49.820 292.949,47.400 292.950 C 44.980 292.951,44.042 293.016,45.315 293.096 M135.315 293.096 C 136.588 293.176,138.568 293.175,139.715 293.094 C 140.862 293.014,139.820 292.949,137.400 292.950 C 134.980 292.951,134.042 293.016,135.315 293.096 M114.975 306.100 L 113.800 307.400 115.100 306.225 C 116.312 305.130,116.584 304.800,116.275 304.800 C 116.206 304.800,115.621 305.385,114.975 306.100 M125.701 308.200 C 125.705 309.080,125.787 309.393,125.883 308.895 C 125.979 308.398,125.975 307.678,125.875 307.295 C 125.775 306.913,125.696 307.320,125.701 308.200 M109.281 310.972 C 107.423 312.285,107.162 312.661,108.731 311.762 C 109.463 311.343,110.250 310.775,110.480 310.500 C 111.071 309.793,110.793 309.902,109.281 310.972 M96.400 316.000 C 95.608 316.254,95.567 316.320,96.200 316.320 C 96.640 316.320,97.450 316.176,98.000 316.000 C 98.792 315.746,98.833 315.680,98.200 315.680 C 97.760 315.680,96.950 315.824,96.400 316.000 M127.102 321.094 L 122.407 325.788 119.104 322.597 L 115.800 319.406 119.100 322.801 L 122.401 326.195 127.298 321.297 C 129.992 318.604,132.106 316.400,131.996 316.400 C 131.886 316.400,129.683 318.512,127.102 321.094 M65.789 322.500 L 63.000 325.400 65.900 322.611 C 68.594 320.020,68.983 319.600,68.689 319.600 C 68.628 319.600,67.323 320.905,65.789 322.500 M85.267 330.876 C 85.230 333.228,85.335 335.237,85.500 335.340 C 85.665 335.442,85.751 334.148,85.692 332.463 C 85.501 327.089,85.336 326.473,85.267 330.876 " stroke="none" fill="#e77ea6" fill-rule="evenodd"></path><path id="path2" d="M121.200 51.067 C 121.200 82.618,121.067 96.501,120.746 98.344 C 118.827 109.359,109.359 118.827,98.344 120.746 C 96.501 121.067,82.618 121.200,51.067 121.200 L 6.400 121.200 6.400 216.930 L 6.400 312.661 5.474 313.530 C 4.965 314.009,4.155 314.400,3.674 314.400 L 2.800 314.400 2.800 324.609 L 2.800 334.817 3.900 335.286 C 6.493 336.391,6.399 335.955,6.411 346.962 C 6.424 358.606,6.669 359.618,9.912 361.440 L 11.621 362.400 138.082 362.400 C 275.547 362.400,266.312 362.565,268.700 360.062 L 270.000 358.699 270.000 327.387 L 270.000 296.075 262.432 295.937 C 252.476 295.757,252.800 295.996,252.800 288.810 C 252.800 280.740,252.372 280.768,243.662 289.400 C 239.999 293.030,236.820 296.000,236.597 296.000 C 236.374 296.000,232.978 292.782,229.049 288.849 C 223.817 283.611,221.518 281.579,220.453 281.250 C 219.341 280.907,215.930 277.722,205.900 267.664 L 192.800 254.526 192.806 252.763 C 192.813 251.025,192.899 250.914,199.004 244.800 C 206.791 237.002,206.935 236.400,201.016 236.400 C 197.134 236.400,197.240 236.616,197.110 228.371 L 197.000 221.400 188.600 221.198 C 183.980 221.087,179.909 220.852,179.554 220.676 C 178.087 219.949,178.000 218.780,178.000 199.823 L 178.000 181.285 179.160 180.042 L 180.321 178.800 189.486 178.800 L 198.650 178.800 199.959 174.670 C 200.679 172.398,202.153 168.754,203.234 166.572 C 205.785 161.424,206.110 162.299,199.000 155.200 C 192.911 149.120,192.800 148.979,192.800 147.281 L 192.800 145.552 206.168 132.176 C 222.806 115.528,220.091 116.288,229.470 125.657 L 235.600 131.781 238.100 130.534 C 240.482 129.346,242.857 128.279,244.600 127.613 C 245.965 127.091,247.768 126.323,248.495 125.953 C 248.877 125.759,249.516 125.600,249.915 125.600 C 250.314 125.600,251.125 125.375,251.717 125.100 L 252.794 124.600 252.797 115.370 L 252.800 106.139 253.832 105.170 C 254.836 104.226,255.063 104.196,262.432 104.063 L 270.000 103.925 270.000 82.736 C 270.000 67.918,270.134 61.285,270.447 60.674 C 271.035 59.523,272.425 58.420,273.300 58.409 C 273.948 58.401,274.000 57.644,274.000 48.187 C 274.000 38.813,273.943 37.957,273.300 37.751 C 269.877 36.657,269.837 36.472,270.103 23.140 C 270.336 11.450,270.207 10.100,268.710 8.501 C 266.627 6.278,271.018 6.400,193.151 6.400 L 121.200 6.400 121.200 51.067 M196.400 12.378 C 197.170 12.552,198.610 12.985,199.600 13.341 C 200.590 13.697,201.637 13.991,201.926 13.994 C 205.589 14.035,209.113 18.669,207.639 21.505 C 207.440 21.887,207.060 23.010,206.793 24.000 C 206.526 24.990,206.169 26.250,206.000 26.800 C 205.831 27.350,205.471 28.610,205.200 29.600 C 204.929 30.590,204.524 31.901,204.300 32.513 C 203.600 34.423,204.220 34.128,206.600 31.417 C 207.864 29.978,209.146 28.800,209.449 28.800 C 209.752 28.800,210.000 28.620,210.000 28.400 C 210.000 26.365,215.680 28.634,218.600 31.835 C 218.820 32.077,221.790 34.867,225.200 38.035 C 240.244 52.014,240.845 53.066,236.233 57.345 C 235.555 57.974,232.660 60.697,229.800 63.396 C 226.940 66.095,223.970 68.884,223.200 69.593 C 222.430 70.303,220.630 71.993,219.200 73.349 C 215.224 77.120,214.404 77.600,211.947 77.600 L 209.818 77.600 205.502 73.116 C 199.709 67.099,199.183 64.736,202.912 61.473 C 205.489 59.219,209.806 55.369,211.186 54.096 L 212.600 52.792 211.600 51.958 C 210.492 51.033,205.985 47.056,203.310 44.642 C 202.361 43.784,201.513 43.154,201.427 43.242 C 201.298 43.372,199.488 49.349,197.988 54.600 C 197.799 55.260,197.465 56.430,197.245 57.200 C 197.025 57.970,196.655 59.275,196.423 60.100 C 196.190 60.925,195.805 62.275,195.567 63.100 C 195.329 63.925,195.038 65.097,194.921 65.705 C 194.804 66.313,194.549 66.908,194.354 67.029 C 194.159 67.149,194.000 67.766,194.000 68.400 C 194.000 69.034,193.820 69.664,193.600 69.800 C 193.380 69.936,193.200 70.489,193.200 71.029 C 193.200 71.569,193.042 72.323,192.849 72.705 C 192.311 73.771,191.600 76.177,191.600 76.934 C 191.600 77.306,191.438 77.923,191.239 78.305 C 191.040 78.687,190.660 79.810,190.393 80.800 C 190.126 81.790,189.769 83.050,189.600 83.600 C 189.431 84.150,189.070 85.410,188.798 86.400 C 187.488 91.172,186.736 92.413,184.520 93.465 C 183.220 94.082,182.804 94.062,180.000 93.250 C 176.347 92.193,175.313 91.918,174.205 91.708 C 168.630 90.651,167.683 88.026,170.017 80.100 C 170.788 77.483,171.163 76.170,171.531 74.800 C 171.738 74.030,172.050 73.040,172.225 72.600 C 172.399 72.160,171.159 73.105,169.470 74.700 C 165.499 78.449,163.534 78.715,160.198 75.957 C 158.211 74.316,149.443 66.163,139.776 56.969 C 138.437 55.696,138.000 54.623,138.000 52.606 C 138.000 50.343,137.935 50.410,158.590 31.154 C 163.653 26.434,165.113 26.551,170.440 32.100 C 176.816 38.742,177.276 40.800,173.212 44.507 C 170.312 47.152,165.131 51.748,164.432 52.295 C 163.744 52.833,163.394 52.448,169.600 57.981 C 175.067 62.855,175.600 63.121,175.600 60.971 C 175.600 60.431,175.762 59.677,175.961 59.295 C 176.160 58.913,176.540 57.790,176.807 56.800 C 177.074 55.810,177.431 54.550,177.600 54.000 C 177.769 53.450,178.129 52.190,178.400 51.200 C 178.671 50.210,179.031 48.950,179.200 48.400 C 179.369 47.850,179.729 46.590,179.999 45.600 C 180.270 44.610,180.637 43.440,180.815 43.000 C 180.994 42.560,181.225 41.750,181.328 41.200 C 181.432 40.650,182.363 37.320,183.398 33.800 C 184.432 30.280,185.431 26.860,185.617 26.200 C 185.803 25.540,186.135 24.370,186.354 23.600 C 186.574 22.830,187.125 20.860,187.578 19.222 C 189.032 13.970,191.600 11.106,194.200 11.837 C 194.640 11.961,195.630 12.204,196.400 12.378 M58.148 52.756 C 35.736 75.172,16.189 94.747,14.710 96.256 L 12.020 99.000 53.110 98.878 C 99.687 98.739,96.529 98.996,98.301 95.200 C 98.672 94.407,99.312 12.000,98.948 12.000 C 98.919 12.000,80.559 30.340,58.148 52.756 M288.541 23.486 C 289.973 26.132,290.000 26.913,290.000 65.372 L 290.000 103.425 291.900 103.986 C 294.085 104.630,294.800 105.212,294.800 106.348 C 294.800 106.791,294.980 107.264,295.200 107.400 C 295.446 107.552,295.601 110.908,295.603 116.124 L 295.606 124.600 296.683 125.100 C 297.275 125.375,298.174 125.600,298.680 125.600 C 299.186 125.600,299.600 125.780,299.600 126.000 C 299.600 126.238,301.125 126.400,303.375 126.400 L 307.149 126.400 307.275 127.663 C 307.381 128.740,307.741 129.115,309.711 130.203 L 312.022 131.479 318.643 124.940 C 326.333 117.345,326.556 117.245,329.616 120.015 L 331.400 121.629 331.517 74.715 C 331.644 23.665,331.725 25.546,329.319 23.711 L 327.863 22.600 307.901 22.486 L 287.938 22.371 288.541 23.486 M103.815 131.781 C 106.142 132.753,106.603 135.834,104.689 137.618 C 103.868 138.383,103.012 138.400,66.050 138.400 L 28.252 138.400 27.326 137.530 C 25.528 135.841,26.168 132.547,28.475 131.622 C 30.167 130.943,102.174 131.095,103.815 131.781 M156.352 131.643 C 159.162 132.623,159.509 136.783,156.881 137.981 C 154.901 138.884,128.093 138.521,126.762 137.573 C 124.750 136.140,125.274 132.580,127.636 131.636 C 129.033 131.078,154.748 131.084,156.352 131.643 M157.836 165.800 C 159.004 167.260,159.042 168.198,158.004 169.900 L 157.212 171.200 92.537 171.200 C 19.571 171.200,26.400 171.530,26.400 168.000 C 26.400 166.034,27.040 165.070,28.600 164.685 C 29.040 164.577,58.082 164.513,93.138 164.544 L 156.876 164.600 157.836 165.800 M290.000 205.888 L 290.000 240.689 291.000 240.498 C 291.550 240.393,292.000 240.148,292.000 239.953 C 292.000 239.759,292.360 239.600,292.800 239.600 C 293.240 239.600,293.600 239.420,293.600 239.200 C 293.600 238.980,293.960 238.800,294.400 238.800 C 294.840 238.800,295.200 238.620,295.200 238.400 C 295.200 238.180,295.425 237.998,295.700 237.996 C 296.441 237.990,301.435 234.180,304.325 231.416 C 305.714 230.087,307.019 228.940,307.225 228.867 C 307.431 228.793,307.600 228.478,307.600 228.167 C 307.600 227.855,307.780 227.600,308.000 227.600 C 308.220 227.600,308.400 227.396,308.400 227.147 C 308.400 226.898,308.724 226.403,309.119 226.047 C 310.310 224.975,314.400 217.504,314.400 216.400 C 314.400 216.174,314.580 215.632,314.800 215.195 C 315.020 214.758,315.380 214.042,315.600 213.605 C 315.820 213.168,316.000 212.369,316.000 211.829 C 316.000 211.289,316.180 210.736,316.400 210.600 C 316.620 210.464,316.800 209.564,316.800 208.600 C 316.800 207.636,316.980 206.736,317.200 206.600 C 317.439 206.452,317.600 203.804,317.600 200.000 C 317.600 196.196,317.439 193.548,317.200 193.400 C 316.980 193.264,316.800 192.364,316.800 191.400 C 316.800 190.436,316.620 189.536,316.400 189.400 C 316.180 189.264,316.000 188.711,316.000 188.171 C 316.000 187.631,315.792 186.787,315.538 186.295 C 314.610 184.501,314.400 184.003,314.400 183.601 C 314.400 183.032,312.836 179.702,311.728 177.913 C 310.848 176.494,307.323 174.400,305.812 174.400 C 305.501 174.400,305.136 174.220,305.000 174.000 C 304.864 173.780,304.324 173.600,303.800 173.600 C 303.276 173.600,302.748 173.439,302.626 173.242 C 302.505 173.045,301.729 172.783,300.903 172.658 C 300.076 172.533,298.320 172.256,297.000 172.041 C 295.680 171.827,293.565 171.524,292.300 171.369 L 290.000 171.086 290.000 205.888 M266.861 176.813 C 248.392 186.881,238.572 207.571,242.624 227.880 C 243.368 231.608,243.740 232.329,245.740 233.923 C 249.566 236.971,250.734 237.719,254.374 239.453 C 256.478 240.455,258.513 241.438,258.895 241.638 C 259.277 241.837,260.042 242.000,260.595 242.000 C 261.148 242.000,261.600 242.180,261.600 242.400 C 261.600 242.620,262.219 242.800,262.976 242.800 C 263.733 242.800,264.464 242.980,264.600 243.200 C 264.736 243.420,266.007 243.600,267.424 243.600 L 270.000 243.600 270.000 209.400 C 270.000 190.590,269.955 175.203,269.900 175.206 C 269.845 175.209,268.477 175.932,266.861 176.813 M157.520 198.411 C 159.291 200.061,158.899 203.133,156.807 203.995 C 154.861 204.798,27.883 204.341,27.071 203.529 C 26.069 202.526,26.182 199.684,27.270 198.526 L 28.139 197.600 92.394 197.600 C 156.389 197.600,156.653 197.603,157.520 198.411 M104.629 230.924 C 105.624 231.779,105.719 232.136,105.906 235.724 L 106.109 239.600 107.655 239.600 C 109.173 239.600,109.200 239.627,109.206 241.100 C 109.214 242.957,109.377 243.181,111.538 244.300 C 113.943 245.546,113.903 245.561,117.201 242.172 C 122.601 236.623,122.119 236.483,132.300 246.566 L 140.000 254.192 140.000 256.413 C 140.000 258.517,140.095 258.726,141.805 260.405 L 143.610 262.176 139.743 266.057 C 135.884 269.931,135.878 269.940,136.387 271.169 L 136.897 272.400 141.360 272.400 C 147.741 272.400,148.800 273.365,148.800 279.180 L 148.800 282.400 150.407 282.400 L 152.014 282.400 151.907 292.300 L 151.800 302.200 146.231 302.400 L 140.662 302.600 139.801 305.400 C 139.327 306.940,138.639 308.776,138.270 309.480 C 137.322 311.291,137.430 312.087,138.800 313.400 C 139.822 314.379,140.000 314.848,140.000 316.561 C 140.000 318.421,140.142 318.717,141.886 320.487 L 143.772 322.402 136.687 329.487 L 129.602 336.572 127.628 334.628 L 125.654 332.683 124.193 333.376 C 122.353 334.249,121.217 333.975,119.227 332.177 L 117.674 330.774 115.137 331.742 C 113.742 332.274,111.880 332.962,111.000 333.271 L 109.400 333.832 109.289 339.323 L 109.177 344.814 99.289 344.707 L 89.400 344.600 89.273 343.500 L 89.147 342.400 85.619 342.400 C 79.512 342.400,78.830 341.656,78.813 334.964 C 78.794 327.922,78.209 327.712,72.952 332.868 L 69.189 336.559 67.269 334.668 L 65.350 332.778 63.838 333.410 C 61.571 334.357,61.107 334.046,53.281 326.340 C 42.777 315.997,43.034 316.639,47.500 311.906 C 49.205 310.099,50.813 308.390,51.074 308.108 C 51.911 307.203,49.573 302.651,48.142 302.398 C 47.198 302.231,46.978 301.972,46.875 300.898 L 46.749 299.600 42.633 299.600 C 38.818 299.600,38.439 299.528,37.458 298.619 L 36.400 297.638 36.400 286.055 L 36.400 274.471 37.631 273.436 C 38.802 272.450,39.088 272.400,43.576 272.400 L 48.290 272.400 49.914 268.500 L 51.537 264.600 48.465 261.400 C 42.896 255.598,42.686 256.410,52.251 246.769 C 62.556 236.381,62.031 236.538,67.590 242.171 C 70.968 245.593,70.677 245.471,72.894 244.400 C 73.805 243.960,74.786 243.600,75.075 243.600 C 75.364 243.600,75.600 243.420,75.600 243.200 C 75.600 242.980,76.005 242.794,76.500 242.787 C 78.540 242.758,78.800 242.092,78.800 236.891 L 78.800 232.071 80.031 231.036 L 81.261 230.000 92.408 230.000 C 103.477 230.000,103.563 230.007,104.629 230.924 M95.200 265.350 C 90.354 266.297,88.049 267.217,84.307 269.699 C 72.853 277.297,68.113 295.077,75.503 302.721 C 77.199 304.475,81.679 307.600,82.498 307.600 C 82.796 307.600,83.211 307.749,83.420 307.930 C 84.192 308.602,90.259 310.000,92.400 310.000 C 102.025 310.000,110.962 303.514,114.856 293.701 C 117.840 286.181,115.434 275.881,109.217 269.568 C 104.975 265.260,101.307 264.156,95.200 265.350 M326.980 283.571 C 326.399 284.137,319.703 287.355,317.000 288.366 C 315.680 288.860,314.287 289.430,313.905 289.632 C 313.523 289.834,312.859 290.000,312.429 290.000 C 311.999 290.000,311.536 290.180,311.400 290.400 C 311.264 290.620,310.749 290.800,310.256 290.800 C 309.763 290.800,308.875 291.025,308.283 291.300 L 307.206 291.800 307.203 301.500 L 307.200 311.200 298.600 311.200 L 290.000 311.200 289.996 341.900 C 289.991 373.766,289.925 375.162,288.336 377.077 C 287.465 378.126,327.905 377.653,329.132 376.600 C 331.687 374.409,331.600 375.451,331.600 346.905 C 331.600 318.861,331.557 319.432,333.704 319.127 L 334.600 319.000 334.706 307.300 L 334.812 295.600 333.829 295.600 C 332.129 295.600,331.600 294.270,331.600 289.992 L 331.600 286.162 330.083 284.681 C 328.560 283.194,327.686 282.881,326.980 283.571 " stroke="none" fill="#fafaf7" fill-rule="evenodd"></path><path id="path3" d="M105.505 51.500 L 105.400 96.600 104.521 98.432 C 103.397 100.774,100.774 103.397,98.432 104.521 L 96.600 105.400 51.500 105.505 L 6.400 105.610 6.400 113.405 L 6.400 121.200 51.067 121.200 C 82.618 121.200,96.501 121.067,98.344 120.746 C 109.359 118.827,118.827 109.359,120.746 98.344 C 121.067 96.501,121.200 82.618,121.200 51.067 L 121.200 6.400 113.405 6.400 L 105.610 6.400 105.505 51.500 M266.481 6.945 C 270.141 8.569,270.378 9.616,270.105 22.923 C 269.846 35.519,270.195 37.600,272.564 37.600 C 272.792 37.600,272.583 37.323,272.100 36.985 C 270.539 35.892,270.316 33.798,270.463 21.618 L 270.600 10.200 269.668 8.894 C 268.733 7.582,266.889 6.372,265.920 6.432 C 265.634 6.450,265.886 6.681,266.481 6.945 M55.010 55.190 C 24.650 85.551,11.548 98.908,11.839 99.199 C 12.127 99.487,25.207 99.584,53.629 99.509 C 99.922 99.387,96.531 99.614,98.461 96.510 L 99.400 95.000 99.400 53.433 C 99.400 26.042,99.263 11.821,98.999 11.733 C 98.779 11.660,78.984 31.215,55.010 55.190 M192.800 12.000 C 192.358 12.286,192.621 12.388,193.800 12.388 C 194.979 12.388,195.242 12.286,194.800 12.000 C 194.470 11.787,194.020 11.612,193.800 11.612 C 193.580 11.612,193.130 11.787,192.800 12.000 M98.884 53.100 C 98.765 95.235,98.771 95.071,97.238 96.919 C 95.684 98.793,96.708 98.748,53.110 98.878 L 12.020 99.000 14.710 96.256 C 18.195 92.701,98.878 12.000,98.948 12.000 C 98.976 12.000,98.948 30.495,98.884 53.100 M190.038 13.559 C 188.957 14.717,188.785 15.152,187.173 20.800 C 186.702 22.450,186.173 24.250,185.997 24.800 C 185.821 25.350,185.014 28.140,184.203 31.000 C 183.392 33.860,182.384 37.318,181.964 38.684 C 181.544 40.050,181.217 41.490,181.237 41.884 C 181.258 42.278,181.627 41.430,182.058 40.000 C 184.123 33.147,184.437 32.092,184.850 30.600 C 185.093 29.720,185.431 28.550,185.600 28.000 C 185.769 27.450,186.129 26.190,186.400 25.200 C 186.671 24.210,187.031 22.950,187.200 22.400 C 187.369 21.850,187.731 20.590,188.005 19.600 C 189.030 15.900,189.752 14.343,190.891 13.385 C 191.535 12.843,191.850 12.400,191.591 12.400 C 191.333 12.400,190.634 12.922,190.038 13.559 M197.800 13.231 C 199.120 13.648,200.372 13.934,200.582 13.867 C 201.105 13.700,197.026 12.391,196.125 12.436 C 195.726 12.457,196.480 12.814,197.800 13.231 M202.400 14.549 C 206.810 16.012,207.980 17.818,206.991 21.634 C 206.641 22.984,206.446 24.180,206.558 24.291 C 206.670 24.403,206.871 23.978,207.005 23.347 C 207.139 22.716,207.417 21.887,207.624 21.505 C 209.186 18.619,205.401 13.830,201.726 14.042 C 201.327 14.065,201.630 14.293,202.400 14.549 M193.635 22.700 C 192.975 24.845,192.168 27.590,191.842 28.800 C 191.515 30.010,190.507 33.520,189.601 36.600 C 188.695 39.680,187.594 43.460,187.154 45.000 C 186.714 46.540,186.195 48.340,186.000 49.000 C 185.805 49.660,185.445 50.920,185.200 51.800 C 184.407 54.652,184.131 55.605,179.883 70.200 C 177.578 78.120,175.839 84.758,176.017 84.951 C 176.315 85.273,179.876 86.374,181.131 86.533 C 181.674 86.601,182.299 85.105,183.356 81.200 C 183.683 79.990,184.517 77.110,185.209 74.800 C 185.900 72.490,186.615 70.060,186.797 69.400 C 188.094 64.697,193.464 45.985,194.832 41.400 C 195.489 39.200,196.199 36.770,196.410 36.000 C 196.946 34.042,199.252 26.188,200.450 22.235 C 200.645 21.594,200.711 20.978,200.597 20.864 C 200.441 20.707,195.340 18.863,194.917 18.810 C 194.872 18.805,194.294 20.555,193.635 22.700 M277.200 28.819 L 277.200 35.638 276.142 36.619 C 275.559 37.159,274.794 37.600,274.442 37.600 C 273.866 37.599,273.812 38.675,273.913 48.000 C 274.019 57.750,273.981 58.401,273.313 58.409 C 272.427 58.420,271.038 59.517,270.447 60.674 C 270.134 61.285,270.000 67.918,270.000 82.736 L 270.000 103.925 262.432 104.063 C 255.063 104.196,254.836 104.226,253.832 105.170 L 252.800 106.139 252.797 115.370 L 252.794 124.600 251.717 125.100 C 251.125 125.375,250.314 125.600,249.915 125.600 C 249.516 125.600,248.877 125.759,248.495 125.953 C 247.850 126.281,246.987 126.646,244.700 127.559 C 242.537 128.423,240.428 129.373,238.100 130.534 L 235.600 131.781 229.470 125.657 C 220.091 116.288,222.806 115.528,206.168 132.176 L 192.800 145.552 192.800 147.281 C 192.800 148.979,192.911 149.120,199.000 155.200 C 206.116 162.305,205.777 161.393,203.238 166.587 C 201.291 170.570,199.830 174.364,200.129 174.662 C 200.214 174.748,200.608 173.959,201.003 172.909 C 201.982 170.310,203.827 166.190,205.017 163.946 C 205.558 162.926,206.000 161.988,206.000 161.861 C 206.000 161.733,203.120 158.725,199.600 155.175 C 190.835 146.336,190.035 148.944,206.571 132.435 L 219.942 119.086 221.427 119.327 C 222.678 119.530,223.883 120.533,229.066 125.684 C 236.017 132.592,235.674 132.389,238.100 131.035 C 240.320 129.795,249.496 126.000,250.272 126.000 C 250.584 126.000,251.371 125.725,252.020 125.390 L 253.200 124.779 253.200 115.659 C 253.200 103.864,252.346 104.857,262.616 104.709 L 270.200 104.600 270.400 83.000 C 270.552 66.551,270.721 61.188,271.109 60.509 C 272.141 58.703,274.448 58.263,276.056 59.564 L 277.000 60.329 277.200 82.264 L 277.400 104.200 285.113 104.450 C 295.317 104.780,294.358 103.647,294.493 115.530 L 294.600 124.948 299.453 126.613 C 302.123 127.529,306.038 129.137,308.154 130.187 C 311.516 131.856,312.088 132.028,312.689 131.548 C 313.067 131.247,315.984 128.390,319.171 125.200 C 326.144 118.221,326.888 117.949,330.183 121.183 L 332.000 122.967 332.100 77.783 C 332.155 52.932,332.183 31.106,332.163 29.279 C 332.121 25.596,331.640 24.558,329.204 22.900 L 327.882 22.000 302.541 22.000 L 277.200 22.000 277.200 28.819 M329.319 23.711 C 331.725 25.546,331.644 23.665,331.517 74.715 L 331.400 121.629 329.616 120.015 C 326.556 117.245,326.333 117.345,318.643 124.940 L 312.022 131.479 309.711 130.203 C 307.741 129.115,307.381 128.740,307.275 127.663 L 307.149 126.400 303.375 126.400 C 301.125 126.400,299.600 126.238,299.600 126.000 C 299.600 125.780,299.186 125.600,298.680 125.600 C 298.174 125.600,297.275 125.375,296.683 125.100 L 295.606 124.600 295.603 116.124 C 295.601 110.908,295.446 107.552,295.200 107.400 C 294.980 107.264,294.800 106.791,294.800 106.348 C 294.800 105.212,294.085 104.630,291.900 103.986 L 290.000 103.425 290.000 65.372 C 290.000 26.913,289.973 26.132,288.541 23.486 L 287.938 22.371 307.901 22.486 L 327.863 22.600 329.319 23.711 M205.037 28.420 C 204.439 30.415,204.028 32.261,204.125 32.523 C 204.222 32.786,204.428 32.460,204.583 31.800 C 204.738 31.140,205.010 30.150,205.186 29.600 C 206.171 26.534,206.508 25.174,206.328 24.994 C 206.217 24.883,205.636 26.425,205.037 28.420 M161.800 28.470 C 160.959 28.940,160.177 29.651,149.590 39.583 C 138.075 50.386,138.000 50.470,138.000 52.606 C 138.000 54.623,138.437 55.696,139.776 56.969 C 149.443 66.163,158.211 74.316,160.198 75.957 C 163.534 78.715,165.499 78.449,169.470 74.700 C 171.159 73.105,172.399 72.160,172.225 72.600 C 172.050 73.040,171.738 74.030,171.531 74.800 C 171.163 76.170,170.788 77.483,170.017 80.100 C 167.683 88.026,168.630 90.651,174.205 91.708 C 174.862 91.832,176.075 92.129,176.900 92.367 C 183.202 94.186,183.047 94.164,184.520 93.465 C 186.736 92.413,187.488 91.172,188.798 86.400 C 189.070 85.410,189.431 84.150,189.600 83.600 C 189.769 83.050,190.126 81.790,190.393 80.800 C 190.660 79.810,191.040 78.687,191.239 78.305 C 191.438 77.923,191.600 77.306,191.600 76.934 C 191.600 76.177,192.311 73.771,192.849 72.705 C 193.042 72.323,193.200 71.569,193.200 71.029 C 193.200 70.489,193.380 69.936,193.600 69.800 C 193.820 69.664,194.000 69.034,194.000 68.400 C 194.000 67.766,194.159 67.149,194.354 67.029 C 194.549 66.908,194.804 66.313,194.921 65.705 C 195.038 65.097,195.329 63.925,195.567 63.100 C 195.805 62.275,196.180 60.970,196.400 60.200 C 196.620 59.430,196.980 58.170,197.200 57.400 C 197.420 56.630,197.764 55.415,197.965 54.700 C 199.198 50.314,201.294 43.376,201.427 43.242 C 201.513 43.154,202.361 43.784,203.310 44.642 C 205.985 47.056,210.492 51.033,211.600 51.958 L 212.600 52.792 211.186 54.096 C 209.806 55.369,205.489 59.219,202.912 61.473 C 199.183 64.736,199.709 67.099,205.502 73.116 L 209.818 77.600 211.947 77.600 C 214.404 77.600,215.224 77.120,219.200 73.349 C 220.630 71.993,222.430 70.303,223.200 69.593 C 223.970 68.884,226.940 66.095,229.800 63.396 C 232.660 60.697,235.555 57.974,236.233 57.345 C 240.845 53.066,240.244 52.014,225.200 38.035 C 221.790 34.867,218.820 32.077,218.600 31.835 C 215.680 28.634,210.000 26.365,210.000 28.400 C 210.000 28.620,209.752 28.800,209.449 28.800 C 209.146 28.800,207.859 29.983,206.590 31.428 C 205.058 33.173,204.182 33.895,203.985 33.576 C 203.784 33.250,203.597 33.380,203.407 33.977 C 202.886 35.620,203.519 35.270,206.264 32.401 C 211.663 26.758,212.928 26.902,220.287 34.000 C 222.454 36.090,226.731 40.140,229.791 43.000 C 238.254 50.909,238.553 51.330,237.813 54.297 C 237.524 55.456,237.307 55.679,227.807 64.600 C 224.527 67.680,220.169 71.775,218.122 73.700 C 212.205 79.263,211.479 79.076,203.044 69.827 C 200.108 66.608,200.540 64.209,204.722 60.509 C 206.406 59.019,208.417 57.230,209.192 56.533 C 209.966 55.835,211.095 54.877,211.700 54.403 C 213.491 53.001,213.276 52.722,204.404 44.969 C 203.417 44.106,202.369 43.175,202.076 42.900 C 201.301 42.173,200.920 42.283,200.688 43.300 C 200.575 43.795,200.122 45.460,199.681 47.000 C 198.643 50.624,197.256 55.450,196.777 57.100 C 196.230 58.986,195.652 61.013,195.238 62.500 C 188.857 85.383,187.033 90.933,185.461 92.256 C 182.794 94.500,170.953 91.226,169.316 87.793 C 168.637 86.369,168.624 86.480,170.000 82.000 C 170.169 81.450,170.534 80.190,170.811 79.200 C 171.089 78.210,171.561 76.624,171.861 75.676 C 173.644 70.042,173.393 69.928,169.011 74.372 C 166.256 77.165,166.195 77.200,164.116 77.200 C 161.748 77.200,163.418 78.551,149.000 64.974 C 145.920 62.074,142.533 58.926,141.473 57.979 C 136.083 53.161,136.289 52.731,150.337 39.522 C 164.967 25.766,164.226 25.973,171.271 33.648 C 176.810 39.682,176.735 40.791,170.404 46.400 C 168.789 47.830,167.271 49.180,167.030 49.400 C 166.789 49.620,165.833 50.471,164.906 51.290 L 163.220 52.780 164.110 53.694 C 165.923 55.554,174.745 63.200,175.080 63.200 C 175.485 63.200,181.344 43.210,181.030 42.897 C 180.808 42.675,180.789 42.726,180.001 45.600 C 179.729 46.590,179.369 47.850,179.200 48.400 C 179.031 48.950,178.671 50.210,178.400 51.200 C 178.129 52.190,177.769 53.450,177.600 54.000 C 177.431 54.550,177.074 55.810,176.807 56.800 C 176.540 57.790,176.160 58.913,175.961 59.295 C 175.762 59.677,175.600 60.431,175.600 60.971 C 175.600 63.121,175.067 62.855,169.600 57.981 C 163.394 52.448,163.744 52.833,164.432 52.295 C 165.131 51.748,170.312 47.152,173.212 44.507 C 177.276 40.800,176.816 38.742,170.440 32.100 L 166.504 28.000 164.552 28.012 C 163.478 28.019,162.240 28.225,161.800 28.470 M210.247 37.306 C 207.853 40.037,207.632 39.549,213.644 44.808 C 221.881 52.013,222.340 52.781,219.897 55.272 C 218.546 56.648,217.715 57.396,212.000 62.375 C 207.583 66.223,207.676 65.908,210.217 68.417 L 212.397 70.570 214.098 68.951 C 216.600 66.572,222.457 61.082,226.634 57.200 C 228.646 55.330,230.417 53.532,230.570 53.205 C 230.865 52.573,230.791 52.498,219.704 42.034 C 211.542 34.331,212.455 34.788,210.247 37.306 M159.799 39.108 C 157.818 41.029,153.813 44.829,150.899 47.554 C 147.984 50.279,145.600 52.640,145.600 52.802 C 145.600 53.076,150.418 57.894,153.600 60.802 C 156.082 63.070,159.745 66.494,161.899 68.559 L 163.999 70.571 166.014 68.586 C 168.793 65.849,168.957 66.099,158.576 57.272 C 155.757 54.875,154.963 53.476,155.548 51.936 C 156.006 50.731,155.718 51.016,162.553 45.025 C 168.741 39.601,168.528 40.021,166.366 37.500 C 164.214 34.989,163.992 35.043,159.799 39.108 M338.800 83.660 L 338.800 129.721 346.800 137.810 C 357.141 148.266,357.151 146.443,346.700 156.853 C 344.115 159.428,342.000 161.645,342.000 161.779 C 342.000 161.913,342.526 163.064,343.168 164.337 C 345.246 168.453,347.626 174.532,348.610 178.237 C 348.747 178.753,355.108 179.200,362.302 179.200 L 367.279 179.200 368.440 180.442 L 369.600 181.685 369.591 200.142 C 369.580 223.450,370.860 221.200,357.614 221.200 C 350.879 221.200,348.744 221.319,348.644 221.700 C 347.720 225.228,345.438 231.143,343.564 234.872 C 342.704 236.583,342.000 238.109,342.000 238.264 C 342.000 238.418,344.880 241.398,348.400 244.886 C 357.009 253.415,357.138 251.932,346.900 262.172 L 339.000 270.075 338.800 282.073 L 338.600 294.072 337.646 294.844 C 336.366 295.879,334.128 295.510,332.902 294.061 C 332.039 293.042,332.004 292.697,332.002 285.300 C 332.000 277.066,331.967 276.951,330.175 278.836 C 326.882 282.300,326.434 282.126,318.536 274.304 L 312.072 267.903 307.936 269.901 C 303.100 272.236,303.256 272.171,298.600 273.767 L 295.000 275.000 294.800 284.290 C 294.540 296.359,295.423 295.331,285.090 295.600 L 277.400 295.800 277.200 327.600 L 277.000 359.400 275.852 361.666 C 274.451 364.431,272.468 366.413,269.742 367.773 L 267.684 368.800 167.842 368.800 L 68.000 368.800 68.000 371.462 C 68.000 374.438,68.977 376.251,71.201 377.400 C 72.224 377.930,87.350 378.000,199.880 377.999 C 342.398 377.999,329.062 378.279,331.092 375.241 L 332.000 373.882 332.002 347.841 L 332.004 321.800 332.928 320.645 C 333.677 319.709,334.163 319.491,335.500 319.491 C 338.825 319.491,338.600 317.409,338.600 348.172 L 338.600 375.400 337.687 377.234 C 336.487 379.645,333.842 382.305,331.600 383.356 L 329.800 384.200 229.800 384.400 L 129.800 384.600 129.692 387.000 C 129.566 389.800,130.399 391.523,132.496 392.802 C 134.554 394.057,388.646 394.057,390.704 392.802 C 391.421 392.365,392.365 391.421,392.802 390.704 C 394.057 388.645,394.057 42.555,392.802 40.496 C 390.947 37.454,392.428 37.603,364.100 37.601 L 338.800 37.600 338.800 83.660 M28.475 131.622 C 26.168 132.547,25.528 135.841,27.326 137.530 L 28.252 138.400 66.050 138.400 C 107.163 138.400,105.600 138.481,105.600 136.340 C 105.600 136.104,105.256 136.336,104.835 136.856 L 104.071 137.800 66.003 137.800 C 23.121 137.800,26.800 138.083,26.800 134.786 C 26.800 131.789,23.822 132.000,66.102 132.000 L 103.942 132.000 104.771 133.054 C 105.227 133.634,105.621 134.489,105.646 134.954 C 105.677 135.520,105.749 135.591,105.863 135.168 C 106.189 133.956,105.232 132.372,103.815 131.781 C 102.174 131.095,30.167 130.943,28.475 131.622 M127.636 131.636 C 125.690 132.414,124.763 136.007,126.200 137.200 C 126.578 137.514,126.800 137.541,126.800 137.273 C 126.800 137.039,126.620 136.736,126.400 136.600 C 125.693 136.163,125.960 133.794,126.820 132.871 C 127.640 131.990,127.645 131.990,142.320 132.095 L 157.000 132.200 157.667 133.535 C 158.517 135.238,158.009 136.934,156.455 137.577 C 155.693 137.893,151.107 137.995,141.319 137.915 C 133.595 137.852,127.359 137.935,127.461 138.100 C 127.758 138.579,155.818 138.466,156.881 137.981 C 159.509 136.783,159.162 132.623,156.352 131.643 C 154.748 131.084,129.033 131.078,127.636 131.636 M266.400 156.249 C 256.876 157.973,249.145 162.001,242.368 168.771 C 239.790 171.346,235.200 177.397,235.200 178.220 C 235.200 178.361,234.871 178.954,234.468 179.538 C 234.066 180.122,233.328 181.680,232.829 183.000 C 232.330 184.320,231.780 185.760,231.607 186.200 C 231.276 187.040,230.778 188.918,230.041 192.106 C 229.798 193.154,229.600 196.706,229.600 200.000 C 229.600 205.536,229.762 206.973,230.888 211.400 C 231.353 213.227,233.581 219.199,234.023 219.800 C 234.184 220.020,234.813 221.100,235.420 222.200 C 239.463 229.530,247.093 236.646,254.800 240.277 C 259.208 242.353,265.175 244.130,264.596 243.194 C 264.462 242.977,263.733 242.800,262.976 242.800 C 262.219 242.800,261.600 242.620,261.600 242.400 C 261.600 242.180,261.148 242.000,260.595 242.000 C 260.042 242.000,259.277 241.837,258.895 241.638 C 258.513 241.438,256.478 240.455,254.374 239.453 C 246.354 235.633,243.637 232.956,242.624 227.880 C 238.562 207.521,248.457 186.750,266.979 176.760 L 270.000 175.131 270.000 209.365 L 270.000 243.600 267.533 243.600 C 264.482 243.600,264.617 243.809,267.900 244.167 L 270.400 244.440 270.400 200.020 C 270.400 164.722,270.297 155.611,269.900 155.653 C 269.625 155.682,268.050 155.950,266.400 156.249 M277.479 155.854 C 277.083 156.250,277.130 243.910,277.526 244.155 C 278.113 244.517,284.922 243.161,288.429 241.984 C 291.890 240.821,297.619 238.058,298.400 237.174 C 298.510 237.049,299.422 236.388,300.427 235.705 C 307.475 230.911,314.398 220.755,316.721 211.800 C 316.950 210.920,317.355 209.390,317.621 208.400 C 317.909 207.333,318.106 203.912,318.106 200.000 C 318.106 196.088,317.909 192.667,317.621 191.600 C 317.355 190.610,316.950 189.080,316.721 188.200 C 315.683 184.197,313.327 178.984,310.916 175.352 C 309.499 173.219,309.414 172.604,310.198 170.144 C 310.750 168.409,302.090 160.896,295.951 157.784 L 293.301 156.441 292.381 157.420 C 291.238 158.637,290.610 158.639,286.383 157.443 C 284.522 156.916,282.053 156.370,280.895 156.228 C 279.737 156.087,278.558 155.882,278.274 155.773 C 277.990 155.664,277.633 155.701,277.479 155.854 M60.700 164.700 C 78.135 164.758,106.665 164.758,124.100 164.700 C 141.535 164.642,127.270 164.595,92.400 164.595 C 57.530 164.595,43.265 164.642,60.700 164.700 M27.062 165.531 C 25.486 167.273,26.594 171.252,28.631 171.168 C 29.199 171.145,29.243 171.079,28.800 170.916 C 26.545 170.087,26.007 167.082,27.854 165.629 C 28.520 165.105,28.690 164.800,28.316 164.800 C 27.990 164.800,27.426 165.129,27.062 165.531 M156.946 165.629 C 158.879 167.150,158.189 170.330,155.800 170.912 C 155.195 171.060,155.270 171.119,156.106 171.154 C 157.288 171.203,158.795 169.360,158.799 167.862 C 158.801 166.841,157.281 164.800,156.519 164.800 C 156.087 164.800,156.220 165.058,156.946 165.629 M297.000 172.041 C 298.320 172.256,300.076 172.533,300.903 172.658 C 301.729 172.783,302.505 173.045,302.626 173.242 C 302.748 173.439,303.276 173.600,303.800 173.600 C 304.324 173.600,304.864 173.780,305.000 174.000 C 305.136 174.220,305.501 174.400,305.812 174.400 C 307.323 174.400,310.848 176.494,311.728 177.913 C 312.836 179.702,314.400 183.032,314.400 183.601 C 314.400 184.003,314.610 184.501,315.538 186.295 C 315.792 186.787,316.000 187.631,316.000 188.171 C 316.000 188.711,316.180 189.264,316.400 189.400 C 316.620 189.536,316.800 190.436,316.800 191.400 C 316.800 192.364,316.980 193.264,317.200 193.400 C 317.439 193.548,317.600 196.196,317.600 200.000 C 317.600 203.804,317.439 206.452,317.200 206.600 C 316.980 206.736,316.800 207.636,316.800 208.600 C 316.800 209.564,316.620 210.464,316.400 210.600 C 316.180 210.736,316.000 211.289,316.000 211.829 C 316.000 212.369,315.820 213.168,315.600 213.605 C 315.380 214.042,315.020 214.758,314.800 215.195 C 314.580 215.632,314.400 216.174,314.400 216.400 C 314.400 217.504,310.310 224.975,309.119 226.047 C 308.724 226.403,308.400 226.898,308.400 227.147 C 308.400 227.396,308.220 227.600,308.000 227.600 C 307.780 227.600,307.600 227.855,307.600 228.167 C 307.600 228.478,307.431 228.793,307.225 228.867 C 307.019 228.940,305.714 230.087,304.325 231.416 C 301.435 234.180,296.441 237.990,295.700 237.996 C 295.425 237.998,295.200 238.180,295.200 238.400 C 295.200 238.620,294.840 238.800,294.400 238.800 C 293.960 238.800,293.600 238.980,293.600 239.200 C 293.600 239.420,293.240 239.600,292.800 239.600 C 292.360 239.600,292.000 239.759,292.000 239.953 C 292.000 240.148,291.550 240.393,291.000 240.498 L 290.000 240.689 290.000 205.888 L 290.000 171.086 292.300 171.369 C 293.565 171.524,295.680 171.827,297.000 172.041 M199.235 176.900 L 198.696 178.800 189.508 178.800 L 180.321 178.800 179.160 180.042 L 178.000 181.285 178.000 199.823 C 178.000 218.780,178.087 219.949,179.554 220.676 C 179.909 220.852,183.980 221.087,188.600 221.198 L 197.000 221.400 197.110 228.371 C 197.240 236.616,197.134 236.400,201.016 236.400 C 206.935 236.400,206.791 237.002,199.004 244.800 C 190.546 253.270,190.487 252.123,199.872 261.628 C 203.761 265.567,207.020 268.713,207.115 268.619 C 207.209 268.524,204.117 265.242,200.243 261.324 C 191.104 252.082,191.156 253.480,199.628 244.878 C 203.161 241.291,205.995 238.231,205.926 238.078 C 205.857 237.925,204.855 235.884,203.700 233.542 C 202.545 231.200,201.600 229.083,201.600 228.837 C 201.600 228.591,201.441 228.077,201.247 227.695 C 200.580 226.384,200.066 224.998,199.554 223.126 C 198.904 220.751,199.174 220.812,189.274 220.805 C 181.061 220.800,179.990 220.638,178.913 219.235 C 178.249 218.370,178.185 182.510,178.844 181.063 C 179.611 179.380,180.692 179.200,190.013 179.200 L 198.789 179.200 199.408 177.719 C 199.749 176.904,199.970 175.959,199.901 175.619 C 199.832 175.278,199.532 175.855,199.235 176.900 M27.270 198.526 C 26.182 199.684,26.069 202.526,27.071 203.529 C 27.883 204.341,154.861 204.798,156.807 203.995 C 158.899 203.133,159.291 200.061,157.520 198.411 C 156.653 197.603,156.389 197.600,92.394 197.600 L 28.139 197.600 27.270 198.526 M156.612 198.260 C 158.392 198.943,158.513 202.683,156.784 203.608 C 156.316 203.859,133.126 204.000,92.315 204.000 C 20.713 204.000,26.800 204.279,26.800 201.000 C 26.800 197.721,20.720 198.000,92.256 198.000 C 127.279 198.000,156.239 198.117,156.612 198.260 M80.031 231.036 L 78.800 232.071 78.800 236.891 C 78.800 242.092,78.540 242.758,76.500 242.787 C 76.005 242.794,75.600 242.980,75.600 243.200 C 75.600 243.724,75.704 243.712,77.561 242.969 L 79.138 242.338 79.269 237.145 C 79.452 229.899,78.441 230.417,92.400 230.422 C 103.870 230.426,104.119 230.461,105.117 232.200 C 105.497 232.864,105.578 232.886,105.588 232.329 C 105.626 230.231,104.314 230.000,92.377 230.000 L 81.261 230.000 80.031 231.036 M105.680 237.651 C 105.595 242.154,105.693 242.426,107.600 243.006 C 108.150 243.174,109.667 243.826,110.971 244.455 C 114.085 245.959,113.754 246.064,117.409 242.412 C 122.520 237.306,122.338 237.251,131.800 246.757 C 141.226 256.226,141.144 255.949,136.015 261.026 C 132.296 264.707,132.494 264.109,133.942 267.290 C 134.571 268.670,135.305 270.475,135.574 271.300 L 136.062 272.800 140.651 272.800 C 148.245 272.800,147.883 272.209,148.254 285.212 C 148.660 299.473,148.798 299.200,141.189 299.200 L 136.128 299.200 135.586 300.900 C 135.288 301.835,134.512 303.736,133.860 305.124 L 132.676 307.649 134.671 309.724 C 141.455 316.783,141.620 315.716,132.300 325.106 C 122.316 335.166,122.965 334.961,117.563 329.765 L 114.109 326.441 110.754 327.847 C 108.909 328.620,106.995 329.417,106.500 329.618 C 105.637 329.968,105.600 330.180,105.600 334.769 C 105.600 339.259,105.540 339.625,104.631 340.678 L 103.661 341.800 92.410 341.705 C 85.089 341.644,81.245 341.749,81.403 342.005 C 81.537 342.222,83.335 342.400,85.397 342.400 L 89.147 342.400 89.273 343.500 L 89.400 344.600 99.289 344.707 L 109.177 344.814 109.289 339.323 L 109.400 333.832 111.000 333.271 C 111.880 332.962,113.742 332.274,115.137 331.742 L 117.674 330.774 119.227 332.177 C 121.217 333.975,122.353 334.249,124.193 333.376 L 125.654 332.683 127.628 334.628 L 129.602 336.572 136.687 329.487 L 143.772 322.402 141.886 320.487 C 140.142 318.717,140.000 318.421,140.000 316.561 C 140.000 314.848,139.822 314.379,138.800 313.400 C 137.430 312.087,137.322 311.291,138.270 309.480 C 138.639 308.776,139.327 306.940,139.801 305.400 L 140.662 302.600 146.231 302.400 L 151.800 302.200 151.907 292.300 L 152.014 282.400 150.407 282.400 L 148.800 282.400 148.800 279.180 C 148.800 273.365,147.741 272.400,141.360 272.400 L 136.897 272.400 136.387 271.169 C 135.878 269.940,135.884 269.931,139.743 266.057 L 143.610 262.176 141.805 260.405 C 140.095 258.726,140.000 258.517,140.000 256.413 L 140.000 254.192 132.300 246.566 C 122.119 236.483,122.601 236.623,117.201 242.172 C 113.903 245.561,113.943 245.546,111.538 244.300 C 109.377 243.181,109.214 242.957,109.206 241.100 C 109.200 239.620,109.179 239.600,107.617 239.600 L 106.034 239.600 105.897 236.500 C 105.776 233.731,105.752 233.853,105.680 237.651 M60.600 238.752 C 58.360 240.152,44.400 254.625,44.400 255.549 C 44.400 256.877,45.137 257.935,48.482 261.400 L 51.570 264.600 50.778 266.360 C 50.342 267.327,50.067 268.200,50.165 268.298 C 50.346 268.479,52.000 265.098,52.000 264.548 C 52.000 264.385,50.470 262.689,48.600 260.778 C 43.607 255.675,43.379 256.387,53.123 246.687 C 62.927 236.927,61.832 237.142,68.403 243.679 C 70.593 245.858,71.088 245.945,73.600 244.600 C 75.777 243.434,75.220 243.276,72.894 244.400 C 70.677 245.471,70.968 245.593,67.590 242.171 C 63.425 237.951,62.560 237.528,60.600 238.752 M119.200 249.400 C 117.561 251.050,116.310 252.400,116.420 252.400 C 116.530 252.400,117.961 251.050,119.600 249.400 C 121.239 247.750,122.490 246.400,122.380 246.400 C 122.270 246.400,120.839 247.750,119.200 249.400 M69.063 252.900 C 69.303 253.291,70.862 253.275,71.493 252.875 C 71.777 252.694,71.327 252.570,70.433 252.581 C 69.579 252.591,68.962 252.735,69.063 252.900 M91.300 255.487 C 91.905 255.578,92.895 255.578,93.500 255.487 C 94.105 255.395,93.610 255.320,92.400 255.320 C 91.190 255.320,90.695 255.395,91.300 255.487 M128.211 259.589 C 126.689 261.122,125.524 262.431,125.622 262.497 C 125.720 262.563,127.047 261.308,128.571 259.708 C 132.101 256.003,131.852 255.920,128.211 259.589 M88.000 262.378 C 79.556 263.905,72.775 269.709,69.703 278.039 C 68.428 281.495,68.097 290.081,69.134 292.800 C 75.023 308.245,89.434 314.419,103.483 307.516 C 110.409 304.112,116.489 294.895,116.356 288.000 C 116.327 286.502,116.234 286.738,115.807 289.400 C 114.310 298.718,107.836 306.323,99.400 308.673 C 96.115 309.588,93.943 310.000,92.400 310.000 C 90.259 310.000,84.192 308.602,83.420 307.930 C 83.211 307.749,82.796 307.600,82.498 307.600 C 81.679 307.600,77.199 304.475,75.503 302.721 C 69.459 296.469,71.592 281.886,79.777 273.510 C 84.450 268.728,89.220 266.327,96.305 265.192 C 104.370 263.899,111.687 269.066,114.707 278.186 C 115.111 279.407,115.431 279.917,115.520 279.481 C 115.600 279.086,114.919 277.255,114.007 275.413 C 109.328 265.969,98.408 260.496,88.000 262.378 M228.920 274.459 C 220.570 282.772,221.588 282.758,213.595 274.664 C 210.427 271.456,207.756 268.911,207.659 269.007 C 207.200 269.467,219.069 280.826,220.453 281.252 C 221.520 281.580,223.808 283.602,229.049 288.849 C 232.978 292.782,236.374 296.000,236.597 296.000 C 236.820 296.000,239.999 293.030,243.662 289.400 C 252.372 280.768,252.800 280.740,252.800 288.810 C 252.800 295.996,252.476 295.757,262.432 295.937 L 270.000 296.075 270.000 327.387 L 270.000 358.699 268.700 360.093 C 267.985 360.860,266.884 361.612,266.253 361.763 C 265.622 361.915,265.196 362.129,265.306 362.239 C 265.811 362.744,267.711 361.774,268.993 360.355 L 270.405 358.792 270.302 327.096 L 270.200 295.400 262.562 295.292 C 252.385 295.147,253.248 296.159,253.108 284.222 L 253.000 275.079 250.600 274.322 C 246.921 273.160,242.114 271.196,238.845 269.517 C 237.219 268.683,235.779 268.001,235.645 268.003 C 235.510 268.005,232.484 270.910,228.920 274.459 M49.025 270.591 L 48.334 272.400 43.598 272.400 C 39.086 272.400,38.803 272.449,37.631 273.436 L 36.400 274.471 36.400 286.055 L 36.400 297.638 37.458 298.619 C 38.439 299.528,38.818 299.600,42.633 299.600 L 46.749 299.600 46.875 300.898 C 46.978 301.972,47.198 302.231,48.142 302.398 C 49.573 302.651,51.911 307.203,51.074 308.108 C 50.813 308.390,49.205 310.099,47.500 311.906 C 43.034 316.639,42.777 315.997,53.281 326.340 C 61.107 334.046,61.571 334.357,63.838 333.410 L 65.350 332.778 67.269 334.668 L 69.189 336.559 72.952 332.868 C 78.197 327.725,78.800 327.932,78.800 334.878 C 78.800 339.573,79.305 341.600,80.475 341.600 C 80.686 341.600,80.485 341.126,80.029 340.546 C 79.297 339.616,79.200 338.941,79.200 334.795 C 79.200 329.616,79.171 329.550,76.600 328.830 C 75.720 328.584,74.100 327.957,73.000 327.437 C 70.616 326.309,70.595 326.317,67.200 329.826 C 62.274 334.916,62.304 334.925,52.688 325.246 C 43.364 315.862,43.524 316.410,48.600 311.222 C 50.470 309.311,52.000 307.638,52.000 307.503 C 52.000 307.369,51.370 305.895,50.600 304.228 C 49.830 302.561,49.200 300.963,49.200 300.678 C 49.200 299.464,48.214 299.200,43.682 299.200 C 39.715 299.200,38.973 299.093,37.962 298.373 L 36.800 297.546 36.800 286.248 C 36.800 271.996,36.292 272.886,44.541 272.699 L 48.882 272.600 49.469 270.861 C 50.257 268.529,49.896 268.309,49.025 270.591 M141.508 284.536 C 141.676 292.737,141.854 293.620,141.924 286.600 C 141.959 283.080,141.856 279.991,141.694 279.736 C 141.532 279.481,141.449 281.641,141.508 284.536 M42.963 286.400 C 42.963 290.030,43.023 291.515,43.098 289.700 C 43.172 287.885,43.172 284.915,43.098 283.100 C 43.023 281.285,42.963 282.770,42.963 286.400 M115.855 283.000 C 115.989 284.540,116.166 285.875,116.249 285.967 C 116.572 286.324,116.323 281.754,115.978 281.000 C 115.739 280.479,115.697 281.176,115.855 283.000 M61.742 286.200 C 61.741 288.180,61.808 289.040,61.892 288.112 C 61.976 287.184,61.977 285.564,61.895 284.512 C 61.812 283.460,61.743 284.220,61.742 286.200 M330.083 284.681 L 331.600 286.162 331.600 289.992 C 331.600 294.270,332.129 295.600,333.829 295.600 L 334.812 295.600 334.706 307.300 L 334.600 319.000 333.704 319.127 C 331.557 319.432,331.600 318.861,331.600 346.905 C 331.600 375.451,331.687 374.409,329.132 376.600 C 327.905 377.653,287.465 378.126,288.336 377.077 C 289.925 375.162,289.991 373.766,289.996 341.900 L 290.000 311.200 298.600 311.200 L 307.200 311.200 307.203 301.500 L 307.206 291.800 308.283 291.300 C 308.875 291.025,309.763 290.800,310.256 290.800 C 310.749 290.800,311.264 290.620,311.400 290.400 C 311.536 290.180,311.999 290.000,312.429 290.000 C 312.859 290.000,313.523 289.834,313.905 289.632 C 314.287 289.430,315.680 288.860,317.000 288.366 C 319.703 287.355,326.399 284.137,326.980 283.571 C 327.686 282.881,328.560 283.194,330.083 284.681 M113.978 307.500 L 112.600 309.000 114.100 307.622 C 115.496 306.338,115.784 306.000,115.478 306.000 C 115.412 306.000,114.737 306.675,113.978 307.500 M6.046 311.630 C 5.996 312.312,4.569 313.763,3.600 314.118 C 3.183 314.270,3.253 314.346,3.830 314.368 C 4.920 314.410,6.527 312.684,6.283 311.736 C 6.142 311.191,6.081 311.163,6.046 311.630 M90.700 316.693 C 91.635 316.777,93.165 316.777,94.100 316.693 C 95.035 316.609,94.270 316.540,92.400 316.540 C 90.530 316.540,89.765 316.609,90.700 316.693 M65.200 322.600 C 63.561 324.250,62.310 325.600,62.420 325.600 C 62.530 325.600,63.961 324.250,65.600 322.600 C 67.239 320.950,68.490 319.600,68.380 319.600 C 68.270 319.600,66.839 320.950,65.200 322.600 M116.400 319.725 C 116.400 319.794,116.985 320.379,117.700 321.025 L 119.000 322.200 117.825 320.900 C 116.730 319.688,116.400 319.416,116.400 319.725 M2.800 335.136 C 2.800 335.312,3.383 335.713,4.095 336.028 C 4.808 336.343,5.615 337.050,5.889 337.600 C 6.345 338.514,6.389 338.528,6.394 337.762 C 6.397 337.301,6.085 336.661,5.700 336.339 C 4.756 335.551,2.800 334.739,2.800 335.136 M85.862 335.300 C 85.964 335.465,88.906 335.600,92.400 335.600 C 95.894 335.600,98.836 335.465,98.938 335.300 C 99.040 335.135,96.098 335.000,92.400 335.000 C 88.702 335.000,85.760 335.135,85.862 335.300 M6.589 358.200 C 6.859 359.554,9.611 362.400,10.651 362.400 C 11.494 362.400,11.249 362.140,9.546 361.227 C 8.784 360.818,7.824 359.770,7.285 358.758 C 6.483 357.252,6.384 357.172,6.589 358.200 " stroke="none" fill="#dbdbd3" fill-rule="evenodd"></path><path id="path4" d="M85.876 237.057 C 85.724 237.209,85.600 239.243,85.600 241.578 C 85.600 246.922,85.423 247.199,81.100 248.616 C 79.285 249.212,76.224 250.487,74.297 251.449 C 69.737 253.728,69.792 253.738,65.804 249.981 C 63.893 248.181,62.192 246.881,61.946 247.033 C 60.861 247.704,53.200 255.423,53.200 255.846 C 53.200 256.105,54.538 257.687,56.173 259.360 C 60.086 263.362,60.064 263.230,57.633 268.171 C 56.515 270.443,55.600 272.507,55.600 272.757 C 55.600 273.006,55.442 273.523,55.249 273.905 C 55.056 274.287,54.674 275.320,54.400 276.200 C 53.501 279.088,53.259 279.200,47.938 279.200 L 43.200 279.200 43.200 286.000 L 43.200 292.800 47.700 292.813 C 50.603 292.821,52.427 292.998,52.839 293.313 C 53.572 293.872,54.801 296.110,54.798 296.880 C 54.795 297.630,57.214 303.618,57.997 304.800 C 60.207 308.133,59.948 309.135,55.830 313.188 C 52.545 316.421,52.395 315.780,57.683 321.083 L 62.166 325.579 65.434 322.390 C 69.321 318.596,69.822 318.496,74.110 320.657 C 77.297 322.263,81.835 324.000,82.844 324.000 C 84.766 324.000,85.569 325.847,85.687 330.542 L 85.800 335.000 92.400 335.000 L 99.000 335.000 99.113 330.530 C 99.247 325.220,100.781 323.246,104.803 323.206 C 105.134 323.203,107.240 322.300,109.482 321.200 C 115.135 318.427,115.410 318.461,119.313 322.417 L 122.488 325.635 127.044 321.139 C 132.449 315.807,132.320 316.495,128.600 312.800 C 124.944 309.168,124.820 308.430,127.116 303.955 C 127.950 302.330,129.075 299.589,129.616 297.865 C 131.116 293.087,131.537 292.800,137.055 292.800 L 141.600 292.800 141.600 286.633 C 141.600 278.552,142.037 279.200,136.584 279.200 C 131.265 279.200,131.259 279.195,129.590 274.000 C 129.060 272.350,127.945 269.701,127.113 268.114 C 124.787 263.677,124.924 262.851,128.600 259.200 C 130.250 257.561,131.600 256.087,131.600 255.926 C 131.600 255.648,125.812 249.738,123.475 247.630 L 122.400 246.661 119.273 249.705 C 115.268 253.602,114.849 253.703,111.059 251.682 C 109.415 250.806,106.358 249.519,104.265 248.822 C 99.396 247.200,99.442 247.265,99.200 241.641 L 99.000 237.000 92.576 236.890 C 89.043 236.830,86.028 236.905,85.876 237.057 M96.000 255.604 C 108.244 257.478,118.416 265.922,121.538 276.800 C 121.822 277.790,122.222 279.153,122.427 279.828 C 122.901 281.388,122.915 290.702,122.447 292.240 C 122.252 292.878,121.860 294.210,121.574 295.200 C 120.290 299.652,116.122 306.125,112.802 308.822 C 111.869 309.580,110.879 310.416,110.603 310.679 C 110.326 310.942,109.447 311.527,108.650 311.979 C 107.852 312.431,106.556 313.165,105.768 313.611 C 92.255 321.265,71.778 314.280,64.987 299.699 C 63.338 296.159,63.221 295.803,62.041 290.694 C 57.821 272.440,76.938 252.686,96.000 255.604 " stroke="none" fill="#fae985" fill-rule="evenodd"></path></g></svg>