<svg id="svg" version="1.1" xmlns="http://www.w3.org/2000/svg" xmlns:xlink="http://www.w3.org/1999/xlink" width="400" height="400" viewBox="0, 0, 400,400"><g id="svgg"><path id="path0" d="M183.700 0.295 C 182.545 0.376,181.600 0.576,181.600 0.739 C 181.600 0.903,180.925 1.081,180.100 1.136 C 179.275 1.190,178.540 1.407,178.467 1.618 C 178.393 1.828,177.898 2.000,177.367 2.000 C 176.835 2.000,176.400 2.147,176.400 2.328 C 176.400 2.508,175.508 2.898,174.418 3.195 C 173.328 3.492,172.529 3.884,172.642 4.067 C 172.755 4.250,172.511 4.400,172.099 4.400 C 171.688 4.400,170.964 4.760,170.492 5.200 C 170.020 5.640,169.345 6.000,168.993 6.000 C 168.641 6.000,168.452 6.161,168.574 6.357 C 168.695 6.554,168.346 6.827,167.797 6.965 C 167.236 7.106,166.786 7.518,166.768 7.908 C 166.750 8.319,166.656 8.399,166.536 8.104 C 166.377 7.708,166.231 7.708,165.821 8.104 C 164.562 9.318,163.256 10.323,163.117 10.183 C 163.033 10.100,162.185 10.745,161.232 11.616 C 160.279 12.487,159.638 13.200,159.809 13.200 C 159.979 13.200,159.552 13.742,158.859 14.403 C 158.167 15.065,157.600 15.785,157.600 16.003 C 157.600 16.222,157.420 16.400,157.200 16.400 C 156.980 16.400,156.800 16.670,156.800 17.000 C 156.800 17.330,156.620 17.600,156.400 17.600 C 156.180 17.600,156.000 17.881,156.000 18.224 C 156.000 18.567,155.820 18.736,155.600 18.600 C 155.249 18.383,155.136 18.636,155.226 19.430 C 155.241 19.557,154.881 19.983,154.426 20.377 C 153.972 20.771,153.600 21.388,153.600 21.747 C 153.600 22.106,153.409 22.400,153.176 22.400 C 152.943 22.400,152.855 22.565,152.980 22.768 C 153.105 22.970,152.936 23.407,152.604 23.739 C 152.272 24.071,152.000 24.626,152.000 24.971 C 152.000 25.317,151.820 25.600,151.600 25.600 C 151.380 25.600,151.200 25.834,151.200 26.120 C 151.200 26.856,150.259 28.793,149.900 28.797 C 149.735 28.799,149.600 29.250,149.600 29.800 C 149.600 30.350,149.420 30.800,149.200 30.800 C 148.980 30.800,148.800 31.610,148.800 32.600 C 148.800 33.590,148.639 34.400,148.442 34.400 C 147.518 34.400,146.691 63.638,147.599 64.199 C 147.820 64.336,148.000 65.157,148.000 66.024 C 148.000 66.891,148.180 67.600,148.400 67.600 C 148.620 67.600,148.800 67.969,148.800 68.420 C 148.800 68.871,149.063 69.748,149.384 70.369 C 149.705 70.990,149.840 71.640,149.684 71.813 C 149.528 71.987,149.583 72.025,149.807 71.898 C 150.030 71.772,150.418 72.103,150.669 72.635 C 150.920 73.166,150.962 73.500,150.763 73.377 C 150.563 73.254,150.400 73.324,150.400 73.534 C 150.400 73.743,150.681 74.022,151.025 74.154 C 151.369 74.286,151.559 74.543,151.447 74.724 C 151.335 74.906,151.593 75.307,152.021 75.615 C 152.450 75.924,152.800 76.497,152.800 76.888 C 152.800 77.280,152.980 77.600,153.200 77.600 C 153.420 77.600,153.600 77.960,153.600 78.400 C 153.600 78.933,153.867 79.200,154.400 79.200 C 154.849 79.200,155.200 79.467,155.200 79.807 C 155.200 80.440,160.126 85.600,160.731 85.600 C 160.921 85.600,161.402 85.960,161.800 86.400 C 162.198 86.840,162.693 87.200,162.899 87.200 C 163.105 87.200,163.731 87.560,164.291 88.000 C 164.850 88.440,165.566 88.800,165.883 88.800 C 166.199 88.800,166.736 89.079,167.077 89.420 C 167.418 89.760,168.215 90.143,168.848 90.270 C 169.482 90.396,170.000 90.658,170.000 90.850 C 170.000 91.043,170.135 91.167,170.300 91.126 C 171.062 90.937,175.600 91.719,175.600 92.039 C 175.600 92.238,176.219 92.400,176.976 92.400 C 177.733 92.400,178.464 92.580,178.600 92.800 C 178.759 93.057,185.071 93.200,196.224 93.200 C 207.541 93.200,213.600 93.061,213.600 92.800 C 213.600 92.580,214.140 92.400,214.800 92.400 C 215.460 92.400,216.000 92.232,216.000 92.027 C 216.000 91.657,217.546 90.976,218.076 91.113 C 218.227 91.152,218.464 90.827,218.603 90.392 C 218.741 89.956,219.035 89.600,219.256 89.600 C 219.755 89.600,220.827 88.561,220.582 88.315 C 220.482 88.216,220.806 87.917,221.301 87.650 C 221.795 87.384,222.545 86.409,222.967 85.483 C 223.389 84.557,223.951 83.324,224.215 82.742 C 224.480 82.160,224.675 80.872,224.648 79.880 C 224.622 78.888,224.715 78.147,224.855 78.234 C 224.996 78.321,225.019 77.044,224.908 75.396 C 224.716 72.548,224.748 72.400,225.553 72.400 C 226.019 72.400,226.400 72.557,226.400 72.749 C 226.400 72.941,227.189 73.114,228.153 73.134 C 230.219 73.175,230.925 73.300,231.209 73.676 C 231.323 73.827,231.938 74.046,232.574 74.161 C 233.210 74.276,233.917 74.557,234.145 74.785 C 234.373 75.013,234.850 75.200,235.205 75.200 C 235.559 75.200,236.236 75.560,236.708 76.000 C 237.180 76.440,237.766 76.800,238.009 76.800 C 238.578 76.800,242.400 80.712,242.400 81.293 C 242.400 81.535,242.514 81.619,242.653 81.480 C 242.965 81.169,244.541 83.116,244.666 83.967 C 244.716 84.307,244.946 84.649,245.178 84.726 C 245.410 84.803,245.600 85.212,245.600 85.633 C 245.600 86.055,245.780 86.400,246.000 86.400 C 246.220 86.400,246.400 86.726,246.400 87.125 C 246.400 87.524,246.789 88.649,247.264 89.625 C 247.809 90.745,248.098 92.028,248.046 93.100 C 247.999 94.069,248.143 94.800,248.382 94.800 C 248.670 94.800,248.800 108.988,248.800 140.600 L 248.800 186.400 245.900 186.434 C 244.305 186.453,242.045 186.439,240.877 186.404 C 239.710 186.369,238.535 186.522,238.266 186.745 C 237.998 186.968,235.623 187.244,232.989 187.360 C 225.746 187.676,222.369 188.026,222.620 188.433 C 222.745 188.635,222.153 188.800,221.304 188.800 C 220.455 188.800,219.518 189.025,219.221 189.300 C 218.790 189.700,218.739 189.700,218.965 189.300 C 219.120 189.025,219.057 188.800,218.824 188.800 C 218.591 188.800,218.400 188.980,218.400 189.200 C 218.400 189.420,217.500 189.600,216.400 189.600 C 215.300 189.600,214.400 189.780,214.400 190.000 C 214.400 190.220,213.781 190.400,213.024 190.400 C 212.267 190.400,211.536 190.580,211.400 190.800 C 211.264 191.020,210.621 191.200,209.971 191.200 C 209.321 191.200,208.477 191.369,208.095 191.576 C 207.713 191.783,206.860 192.083,206.200 192.243 C 204.672 192.615,204.444 192.678,204.200 192.800 C 204.090 192.855,203.835 192.923,203.633 192.950 C 203.432 192.978,203.144 193.123,202.994 193.272 C 202.844 193.422,202.493 193.457,202.213 193.349 C 201.932 193.242,201.601 193.420,201.476 193.746 C 201.334 194.115,200.939 194.257,200.424 194.122 C 199.890 193.983,199.598 194.099,199.594 194.453 C 199.589 194.880,199.503 194.868,199.200 194.400 C 198.942 194.000,198.810 193.967,198.806 194.300 C 198.803 194.575,198.350 194.800,197.800 194.800 C 197.250 194.800,196.800 194.980,196.800 195.200 C 196.800 195.420,196.530 195.600,196.200 195.600 C 195.870 195.600,195.600 195.741,195.600 195.913 C 195.600 196.085,195.113 196.266,194.518 196.315 C 193.922 196.364,193.256 196.584,193.038 196.802 C 192.819 197.021,192.316 197.200,191.920 197.200 C 191.524 197.200,191.200 197.380,191.200 197.600 C 191.200 197.820,190.840 198.000,190.400 198.000 C 189.960 198.000,189.600 198.180,189.600 198.400 C 189.600 198.620,189.195 198.803,188.700 198.806 C 187.972 198.811,187.915 198.886,188.400 199.200 C 188.857 199.496,188.700 199.589,187.738 199.594 C 186.326 199.601,183.119 201.146,183.440 201.665 C 183.554 201.849,183.206 202.000,182.666 202.000 C 182.127 202.000,181.583 202.267,181.458 202.593 C 181.328 202.931,180.965 203.085,180.615 202.950 C 180.277 202.821,180.000 202.914,180.000 203.157 C 180.000 203.401,179.730 203.600,179.400 203.600 C 179.070 203.600,178.800 203.736,178.800 203.902 C 178.800 204.069,178.259 204.444,177.598 204.737 C 176.936 205.030,176.497 205.434,176.621 205.635 C 176.746 205.836,176.426 206.000,175.912 206.000 C 175.397 206.000,174.717 206.360,174.400 206.800 C 174.083 207.240,173.583 207.600,173.288 207.600 C 172.994 207.600,172.864 207.780,173.000 208.000 C 173.136 208.220,172.877 208.400,172.424 208.400 C 171.971 208.400,171.600 208.580,171.600 208.800 C 171.600 209.020,171.240 209.200,170.800 209.200 C 170.360 209.200,170.000 209.358,170.000 209.551 C 170.000 209.745,169.465 210.125,168.810 210.396 C 167.338 211.006,166.000 212.136,166.000 212.771 C 166.000 213.033,165.835 213.145,165.634 213.021 C 165.433 212.897,165.177 213.021,165.066 213.298 C 164.913 213.676,164.855 213.666,164.832 213.258 C 164.798 212.678,162.400 215.029,162.400 215.642 C 162.400 215.839,162.265 215.979,162.100 215.953 C 161.065 215.789,160.607 216.017,161.200 216.400 C 161.663 216.699,161.534 216.789,160.633 216.794 C 159.992 216.797,159.574 216.907,159.705 217.039 C 160.023 217.357,156.874 220.453,155.518 221.155 C 154.929 221.460,154.170 222.270,153.832 222.955 C 153.495 223.640,153.214 223.970,153.209 223.689 C 153.204 223.407,152.600 223.767,151.867 224.489 C 151.017 225.324,150.691 225.907,150.967 226.094 C 151.209 226.258,150.973 226.390,150.433 226.394 C 149.902 226.397,149.561 226.494,149.675 226.609 C 149.790 226.723,149.015 227.713,147.954 228.809 L 146.025 230.800 129.812 230.800 C 118.092 230.800,113.600 230.676,113.600 230.351 C 113.600 230.058,113.364 230.093,112.923 230.451 C 112.463 230.824,112.343 230.840,112.547 230.500 C 112.765 230.137,112.451 230.000,111.400 230.000 C 110.537 230.000,110.053 230.161,110.200 230.400 C 110.420 230.756,101.456 231.051,97.846 230.807 C 97.211 230.764,96.579 230.910,96.443 231.131 C 96.306 231.353,94.890 231.594,93.297 231.667 C 91.704 231.740,90.401 231.935,90.401 232.100 C 90.400 232.265,89.489 232.400,88.376 232.400 C 87.129 232.400,86.448 232.553,86.600 232.800 C 86.755 233.051,85.863 233.200,84.200 233.200 C 82.537 233.200,81.645 233.349,81.800 233.600 C 81.947 233.839,81.463 234.000,80.600 234.000 C 79.737 234.000,79.253 234.161,79.400 234.400 C 79.551 234.644,78.945 234.800,77.847 234.800 C 76.857 234.800,75.936 234.980,75.800 235.200 C 75.664 235.420,75.203 235.600,74.776 235.600 C 74.349 235.600,73.997 235.825,73.994 236.100 C 73.990 236.433,73.858 236.400,73.600 236.000 C 73.342 235.600,73.210 235.567,73.206 235.900 C 73.203 236.175,72.840 236.400,72.400 236.400 C 71.960 236.400,71.597 236.625,71.594 236.900 C 71.590 237.233,71.458 237.200,71.200 236.800 C 70.942 236.400,70.810 236.367,70.806 236.700 C 70.803 236.975,70.429 237.200,69.976 237.200 C 69.523 237.200,69.264 237.380,69.400 237.600 C 69.536 237.820,69.472 238.000,69.257 238.000 C 69.042 238.000,68.776 237.775,68.665 237.500 C 68.504 237.100,68.457 237.100,68.432 237.500 C 68.414 237.775,68.029 238.000,67.576 238.000 C 67.123 238.000,66.864 238.180,67.000 238.400 C 67.147 238.638,66.671 238.800,65.824 238.800 C 65.041 238.800,64.400 238.980,64.400 239.200 C 64.400 239.420,63.950 239.600,63.400 239.600 C 62.850 239.600,62.400 239.780,62.400 240.000 C 62.400 240.220,62.151 240.400,61.846 240.400 C 60.838 240.400,59.095 241.492,59.672 241.762 C 59.962 241.898,59.792 241.933,59.293 241.840 C 58.794 241.747,58.120 241.937,57.796 242.261 C 57.472 242.586,57.036 242.746,56.828 242.617 C 56.619 242.488,56.271 242.702,56.053 243.092 C 55.835 243.481,55.554 243.755,55.428 243.700 C 54.940 243.486,54.435 243.621,53.929 244.100 C 53.638 244.375,52.590 245.035,51.600 245.568 C 50.610 246.100,49.305 247.043,48.700 247.664 C 48.095 248.285,47.600 248.607,47.600 248.381 C 47.600 248.147,47.358 248.192,47.042 248.484 C 46.735 248.768,46.549 249.108,46.628 249.240 C 46.708 249.372,46.284 249.722,45.686 250.018 C 45.089 250.315,43.925 251.242,43.101 252.079 C 42.276 252.915,41.415 253.600,41.187 253.600 C 40.636 253.600,38.000 256.255,38.000 256.810 C 38.000 257.051,37.820 257.136,37.600 257.000 C 37.380 256.864,37.200 257.044,37.200 257.400 C 37.200 257.756,37.020 257.936,36.800 257.800 C 36.578 257.663,36.397 257.964,36.394 258.476 C 36.390 259.065,36.276 259.224,36.079 258.914 C 35.860 258.570,35.539 258.738,34.985 259.486 C 34.553 260.068,33.795 260.954,33.300 261.454 C 32.805 261.954,32.400 262.550,32.400 262.778 C 32.400 263.006,31.852 263.717,31.182 264.357 C 30.344 265.158,30.125 265.586,30.482 265.729 C 30.767 265.843,30.584 265.951,30.076 265.968 C 29.568 265.986,29.255 266.165,29.380 266.368 C 29.505 266.570,29.329 267.014,28.989 267.354 C 28.649 267.694,28.105 268.608,27.780 269.386 C 27.455 270.164,27.012 270.800,26.795 270.800 C 26.578 270.800,26.397 271.385,26.394 272.100 C 26.389 273.086,26.294 273.255,26.000 272.800 C 25.617 272.207,25.389 272.665,25.553 273.700 C 25.579 273.865,25.420 274.000,25.200 274.000 C 24.980 274.000,24.800 274.360,24.800 274.800 C 24.800 275.240,24.620 275.600,24.400 275.600 C 24.180 275.600,24.000 275.971,24.000 276.424 C 24.000 276.877,23.850 277.155,23.667 277.042 C 23.484 276.929,23.092 277.728,22.795 278.818 C 22.498 279.908,22.108 280.800,21.928 280.800 C 21.747 280.800,21.600 281.250,21.600 281.800 C 21.600 282.350,21.420 282.800,21.200 282.800 C 20.980 282.800,20.800 283.239,20.800 283.776 C 20.800 284.313,20.620 284.864,20.400 285.000 C 20.180 285.136,20.000 285.676,20.000 286.200 C 20.000 286.724,19.820 287.264,19.600 287.400 C 19.380 287.536,19.200 288.267,19.200 289.024 C 19.200 289.781,19.020 290.400,18.800 290.400 C 18.580 290.400,18.400 291.221,18.400 292.224 C 18.400 293.227,18.255 293.957,18.077 293.847 C 17.899 293.738,17.709 294.397,17.655 295.314 C 17.601 296.230,17.406 297.074,17.222 297.190 C 17.038 297.305,16.793 298.300,16.677 299.400 C 16.562 300.500,16.371 301.940,16.255 302.600 C 16.138 303.260,16.009 305.375,15.969 307.300 C 15.928 309.225,15.753 310.800,15.580 310.800 C 15.406 310.800,15.276 312.954,15.290 315.588 C 15.304 318.221,15.438 320.300,15.586 320.208 C 15.735 320.116,15.902 321.868,15.957 324.101 C 16.012 326.333,16.225 328.472,16.429 328.854 C 16.633 329.235,16.800 330.369,16.800 331.374 C 16.800 332.378,16.980 333.200,17.200 333.200 C 17.420 333.200,17.600 334.010,17.600 335.000 C 17.600 335.990,17.780 336.800,18.000 336.800 C 18.220 336.800,18.400 337.329,18.400 337.976 C 18.400 338.623,18.580 339.264,18.800 339.400 C 19.020 339.536,19.200 340.005,19.200 340.443 C 19.200 340.881,19.560 341.984,20.000 342.894 C 20.440 343.805,20.800 344.977,20.800 345.499 C 20.800 346.029,20.976 346.338,21.200 346.200 C 21.427 346.060,21.600 346.396,21.600 346.976 C 21.600 347.539,21.780 348.000,22.000 348.000 C 22.220 348.000,22.400 348.463,22.400 349.029 C 22.400 349.594,22.672 350.329,23.004 350.661 C 23.336 350.993,23.505 351.430,23.380 351.632 C 23.255 351.835,23.343 352.000,23.576 352.000 C 23.809 352.000,24.000 352.294,24.000 352.653 C 24.000 353.012,24.315 353.597,24.700 353.953 C 25.085 354.309,25.453 354.960,25.518 355.400 C 25.674 356.453,26.897 358.800,27.291 358.800 C 27.461 358.800,27.600 359.081,27.600 359.424 C 27.600 359.809,27.791 359.937,28.100 359.759 C 28.375 359.601,28.470 359.616,28.311 359.792 C 28.064 360.065,28.974 362.181,29.604 362.800 C 29.716 362.910,30.256 363.674,30.804 364.497 C 31.352 365.321,31.935 365.996,32.100 365.997 C 32.265 365.999,32.400 366.270,32.400 366.600 C 32.400 366.930,32.580 367.200,32.800 367.200 C 33.020 367.200,33.200 367.386,33.200 367.613 C 33.200 367.841,33.785 368.627,34.500 369.360 C 36.397 371.307,37.397 372.562,37.301 372.876 C 37.254 373.027,37.573 373.264,38.008 373.403 C 38.444 373.541,38.800 373.884,38.800 374.166 C 38.800 374.448,39.543 375.013,40.450 375.423 C 41.358 375.832,41.903 376.232,41.662 376.313 C 41.357 376.414,41.372 376.620,41.712 376.987 C 41.980 377.278,42.335 377.434,42.500 377.334 C 42.665 377.235,42.800 377.433,42.800 377.776 C 42.800 378.155,43.154 378.402,43.700 378.406 C 44.428 378.411,44.485 378.486,44.000 378.800 C 43.670 379.013,43.607 379.191,43.859 379.194 C 44.112 379.197,45.238 380.100,46.361 381.199 C 47.484 382.299,48.537 383.156,48.702 383.103 C 49.121 382.967,50.840 384.226,50.585 384.482 C 50.469 384.598,50.920 384.918,51.587 385.195 C 52.254 385.471,52.800 385.866,52.800 386.072 C 52.800 386.278,52.980 386.336,53.200 386.200 C 53.420 386.064,53.600 386.233,53.600 386.576 C 53.600 386.933,53.942 387.200,54.400 387.200 C 54.840 387.200,55.200 387.352,55.200 387.537 C 55.200 387.723,56.055 388.305,57.100 388.832 C 58.145 389.358,59.090 389.891,59.200 390.015 C 59.640 390.513,62.373 391.600,63.184 391.600 C 63.659 391.600,63.936 391.780,63.800 392.000 C 63.664 392.220,63.923 392.400,64.376 392.400 C 64.829 392.400,65.200 392.580,65.200 392.800 C 65.200 393.020,65.661 393.200,66.224 393.200 C 66.804 393.200,67.140 393.373,67.000 393.600 C 66.855 393.834,67.270 394.000,68.000 394.000 C 68.730 394.000,69.145 394.166,69.000 394.400 C 68.860 394.627,69.196 394.800,69.776 394.800 C 70.339 394.800,70.800 394.980,70.800 395.200 C 70.800 395.420,71.329 395.600,71.976 395.600 C 72.623 395.600,73.264 395.780,73.400 396.000 C 73.536 396.220,74.222 396.403,74.924 396.406 C 75.895 396.411,76.057 396.505,75.600 396.800 C 75.145 397.094,75.314 397.189,76.300 397.194 C 77.015 397.197,77.600 397.362,77.600 397.560 C 77.600 398.139,80.483 397.974,81.097 397.360 C 81.405 397.052,82.182 396.800,82.823 396.800 C 84.044 396.800,84.344 396.736,92.400 394.759 C 102.663 392.240,117.365 387.331,125.696 383.640 C 126.738 383.178,127.670 382.800,127.767 382.800 C 128.128 382.800,139.258 377.992,145.808 375.007 C 152.532 371.943,169.438 363.598,176.000 360.104 C 183.952 355.870,187.342 354.031,190.200 352.400 C 191.080 351.898,192.610 351.037,193.600 350.487 C 197.683 348.219,209.616 341.305,212.529 339.519 C 214.251 338.463,215.745 337.600,215.851 337.600 C 216.026 337.600,217.687 336.474,222.200 333.295 C 223.080 332.675,228.007 329.319,233.148 325.838 C 243.805 318.621,249.184 314.663,253.553 310.825 C 255.229 309.353,257.021 307.800,257.536 307.374 C 261.847 303.809,272.291 291.166,276.596 284.300 C 277.665 282.595,278.808 281.200,279.136 281.200 C 279.476 281.200,278.903 280.385,277.799 279.300 C 273.627 275.199,272.127 267.985,274.302 262.478 L 275.140 260.356 274.070 259.897 C 271.455 258.777,270.688 257.864,268.486 253.249 C 267.274 250.710,266.195 247.851,266.087 246.896 C 265.893 245.177,265.880 245.163,264.646 245.478 C 257.891 247.203,253.313 240.393,257.849 235.368 C 258.262 234.911,259.950 233.604,261.600 232.463 C 263.250 231.322,265.410 229.808,266.400 229.098 C 273.371 224.098,280.693 233.112,274.319 238.847 C 273.505 239.579,273.370 240.400,274.062 240.400 C 275.547 240.400,277.357 242.681,279.537 247.302 L 281.806 252.112 283.057 251.059 C 284.677 249.696,290.200 246.874,291.857 246.563 C 292.705 246.404,293.136 246.096,293.121 245.661 C 293.107 245.297,293.490 242.840,293.971 240.200 C 295.993 229.105,295.984 229.448,295.988 160.800 C 295.993 88.074,296.077 90.240,292.776 77.146 C 285.153 46.900,262.776 20.778,233.924 8.443 C 227.649 5.761,225.289 4.959,218.400 3.166 C 215.859 2.505,211.449 1.655,208.200 1.198 C 206.440 0.951,204.131 0.581,203.069 0.375 C 201.259 0.023,188.342 -0.030,183.700 0.295 M296.705 245.483 C 297.202 245.579,297.922 245.575,298.305 245.475 C 298.687 245.375,298.280 245.296,297.400 245.301 C 296.520 245.305,296.207 245.387,296.705 245.483 M302.100 245.476 C 302.485 245.576,303.115 245.576,303.500 245.476 C 303.885 245.375,303.570 245.293,302.800 245.293 C 302.030 245.293,301.715 245.375,302.100 245.476 M250.000 255.776 C 253.126 256.522,254.000 256.844,254.000 257.247 C 254.000 257.441,254.251 257.600,254.559 257.600 C 255.055 257.600,256.151 258.698,258.000 261.049 C 258.574 261.778,259.344 263.282,260.023 265.000 C 261.304 268.239,261.276 275.952,259.973 279.100 C 259.768 279.595,259.399 280.495,259.153 281.100 C 258.907 281.705,258.446 282.650,258.128 283.200 C 257.811 283.750,257.451 284.515,257.329 284.900 C 257.207 285.285,256.948 285.600,256.753 285.600 C 256.559 285.600,256.400 285.800,256.400 286.044 C 256.400 286.589,253.521 290.121,251.606 291.925 C 238.457 304.311,217.163 306.093,206.533 295.696 C 199.653 288.966,199.054 280.737,204.994 274.579 C 208.191 271.266,223.327 262.400,225.788 262.400 C 226.125 262.400,226.400 262.220,226.400 262.000 C 226.400 261.780,226.760 261.600,227.200 261.600 C 227.640 261.600,228.000 261.420,228.000 261.200 C 228.000 260.980,228.272 260.800,228.605 260.800 C 228.938 260.800,229.523 260.641,229.905 260.447 C 230.287 260.252,231.050 259.916,231.600 259.700 C 232.150 259.484,233.140 259.079,233.800 258.800 C 234.460 258.521,235.405 258.137,235.900 257.946 C 236.395 257.756,237.205 257.434,237.700 257.230 C 238.831 256.765,240.312 256.450,243.558 255.984 C 244.965 255.782,246.210 255.523,246.325 255.408 C 246.634 255.100,247.548 255.191,250.000 255.776 M185.674 271.792 C 189.478 274.377,189.305 279.668,185.327 282.394 L 184.012 283.295 185.037 284.100 C 185.610 284.551,187.120 287.108,188.467 289.906 C 190.946 295.060,191.159 296.184,190.202 299.101 C 189.947 299.878,190.118 300.089,191.453 300.639 C 194.783 302.011,195.750 302.596,197.834 304.501 C 210.944 316.483,196.797 338.553,176.000 338.563 C 150.697 338.575,151.431 307.422,176.900 300.353 C 179.273 299.694,179.272 299.610,176.800 294.524 C 174.741 290.288,174.314 288.056,175.232 286.339 C 175.814 285.252,175.570 285.113,174.028 285.650 C 169.098 287.369,164.574 281.158,167.266 276.369 C 169.272 272.799,182.365 269.544,185.674 271.792 M309.400 278.660 C 308.195 279.736,308.105 279.885,309.036 279.263 C 310.141 278.524,311.532 277.176,311.149 277.215 C 311.067 277.223,310.280 277.873,309.400 278.660 M288.900 284.676 C 289.285 284.776,289.915 284.776,290.300 284.676 C 290.685 284.575,290.370 284.493,289.600 284.493 C 288.830 284.493,288.515 284.575,288.900 284.676 M293.905 284.683 C 294.402 284.779,295.122 284.775,295.505 284.675 C 295.887 284.575,295.480 284.496,294.600 284.501 C 293.720 284.505,293.407 284.587,293.905 284.683 M317.200 320.800 C 316.650 321.230,316.397 321.586,316.638 321.591 C 316.879 321.596,317.402 321.240,317.800 320.800 C 318.712 319.792,318.488 319.792,317.200 320.800 " stroke="none" fill="#fbbc84" fill-rule="evenodd"></path><path id="path1" d="M203.400 0.400 C 204.280 0.587,206.440 0.944,208.200 1.194 C 223.865 3.416,237.324 8.670,251.133 17.955 C 271.364 31.558,286.825 53.534,292.776 77.146 C 296.077 90.240,295.993 88.074,295.988 160.800 C 295.984 232.486,296.100 229.100,293.084 245.349 C 293.035 245.609,293.423 245.752,294.000 245.685 C 309.429 243.918,318.773 249.931,318.794 261.640 C 318.823 278.266,296.330 290.568,281.250 282.174 C 278.809 280.816,278.769 280.835,276.596 284.300 C 272.291 291.166,261.847 303.809,257.536 307.374 C 257.021 307.800,255.229 309.353,253.553 310.825 C 249.184 314.663,243.805 318.621,233.148 325.838 C 228.007 329.319,223.080 332.675,222.200 333.295 C 217.687 336.474,216.026 337.600,215.851 337.600 C 215.745 337.600,214.251 338.463,212.529 339.519 C 209.616 341.305,197.683 348.219,193.600 350.487 C 192.610 351.037,191.080 351.898,190.200 352.400 C 187.342 354.031,183.952 355.870,176.000 360.104 C 169.438 363.598,152.532 371.943,145.808 375.007 C 139.258 377.992,128.128 382.800,127.767 382.800 C 127.670 382.800,126.738 383.178,125.696 383.640 C 117.365 387.331,102.663 392.240,92.400 394.759 C 84.382 396.727,84.043 396.800,82.894 396.806 C 82.292 396.809,81.530 396.993,81.200 397.214 C 80.330 397.796,81.750 398.800,83.443 398.800 C 84.153 398.800,84.808 399.025,84.900 399.300 C 85.030 399.690,88.849 399.800,102.200 399.800 C 115.551 399.800,119.370 399.690,119.500 399.300 C 119.615 398.956,120.656 398.800,122.833 398.800 C 124.678 398.800,126.000 398.633,126.000 398.400 C 126.000 398.171,127.200 398.000,128.800 398.000 C 130.400 398.000,131.600 397.829,131.600 397.600 C 131.600 397.375,132.725 397.200,134.176 397.200 C 135.593 397.200,136.864 397.020,137.000 396.800 C 137.136 396.580,138.126 396.400,139.200 396.400 C 140.274 396.400,141.264 396.220,141.400 396.000 C 141.536 395.780,142.717 395.600,144.024 395.600 C 145.341 395.600,146.400 395.422,146.400 395.200 C 146.400 394.980,147.300 394.800,148.400 394.800 C 149.500 394.800,150.400 394.620,150.400 394.400 C 150.400 394.180,151.300 394.000,152.400 394.000 C 153.500 394.000,154.400 393.820,154.400 393.600 C 154.400 393.380,155.390 393.200,156.600 393.200 C 157.810 393.200,158.800 393.020,158.800 392.800 C 158.800 392.580,159.574 392.400,160.520 392.400 C 161.466 392.400,162.411 392.238,162.620 392.041 C 162.829 391.844,163.810 391.580,164.800 391.455 C 168.160 391.031,168.997 390.875,171.320 390.237 C 172.595 389.887,174.044 389.600,174.540 389.600 C 175.035 389.600,175.656 389.384,175.920 389.120 C 176.184 388.856,176.400 388.747,176.400 388.878 C 176.400 389.123,177.333 388.925,181.320 387.835 C 182.595 387.486,184.065 387.200,184.586 387.200 C 185.107 387.200,185.593 387.026,185.667 386.813 C 185.740 386.600,186.385 386.381,187.100 386.328 C 187.815 386.274,188.400 386.088,188.400 385.915 C 188.400 385.742,188.940 385.600,189.600 385.600 C 190.260 385.600,190.800 385.420,190.800 385.200 C 190.800 384.980,191.329 384.800,191.976 384.800 C 192.623 384.800,193.264 384.620,193.400 384.400 C 193.536 384.180,194.166 384.000,194.800 384.000 C 195.434 384.000,196.064 383.820,196.200 383.600 C 196.336 383.380,196.966 383.200,197.600 383.200 C 198.234 383.200,198.864 383.020,199.000 382.800 C 199.136 382.580,199.676 382.400,200.200 382.400 C 200.724 382.400,201.264 382.220,201.400 382.000 C 201.536 381.780,202.076 381.600,202.600 381.600 C 203.124 381.600,203.664 381.420,203.800 381.200 C 203.936 380.980,204.577 380.800,205.224 380.800 C 205.871 380.800,206.400 380.620,206.400 380.400 C 206.400 380.180,206.940 380.000,207.600 380.000 C 208.260 380.000,208.800 379.820,208.800 379.600 C 208.800 379.380,209.340 379.200,210.000 379.200 C 210.660 379.200,211.200 379.053,211.200 378.872 C 211.200 378.533,215.168 377.323,215.700 377.500 C 215.865 377.555,216.000 377.420,216.000 377.200 C 216.000 376.980,216.349 376.800,216.776 376.800 C 217.203 376.800,217.664 376.620,217.800 376.400 C 217.936 376.180,218.487 376.000,219.024 376.000 C 219.561 376.000,220.000 375.844,220.000 375.652 C 220.000 375.461,220.645 375.200,221.433 375.072 C 222.221 374.944,223.660 374.455,224.632 373.985 C 225.603 373.514,226.624 373.083,226.899 373.025 C 227.905 372.816,232.644 370.928,236.800 369.082 C 237.790 368.642,238.825 368.279,239.100 368.275 C 239.375 368.270,239.600 368.161,239.600 368.031 C 239.600 367.901,240.185 367.560,240.900 367.271 C 241.615 366.983,242.513 366.579,242.895 366.374 C 243.277 366.168,243.862 366.000,244.195 366.000 C 244.528 366.000,244.800 365.820,244.800 365.600 C 244.800 365.380,245.160 365.200,245.600 365.200 C 246.040 365.200,246.400 365.020,246.400 364.800 C 246.400 364.580,246.672 364.400,247.005 364.400 C 247.338 364.400,247.968 364.220,248.405 364.000 C 248.842 363.780,249.560 363.420,250.000 363.200 C 250.440 362.980,251.115 362.632,251.500 362.426 C 251.885 362.221,252.785 361.817,253.500 361.529 C 254.215 361.240,254.800 360.869,254.800 360.702 C 254.800 360.536,255.160 360.400,255.600 360.400 C 256.040 360.400,256.400 360.220,256.400 360.000 C 256.400 359.780,256.665 359.600,256.988 359.600 C 257.311 359.600,258.211 359.243,258.988 358.807 C 259.765 358.371,260.400 358.123,260.400 358.256 C 260.400 358.389,260.636 358.302,260.924 358.063 C 261.212 357.824,262.967 356.865,264.824 355.931 C 266.681 354.998,268.290 354.136,268.400 354.017 C 268.678 353.716,270.259 352.816,272.467 351.703 C 273.494 351.185,274.551 350.500,274.816 350.181 C 275.081 349.861,275.559 349.600,275.878 349.600 C 276.196 349.600,276.729 349.328,277.061 348.996 C 277.393 348.664,277.830 348.495,278.032 348.620 C 278.235 348.745,278.400 348.657,278.400 348.424 C 278.400 348.191,278.670 348.000,279.000 348.000 C 279.330 348.000,279.600 347.820,279.600 347.600 C 279.600 347.380,279.855 347.200,280.167 347.200 C 280.478 347.200,280.793 347.034,280.867 346.830 C 280.940 346.627,281.263 346.402,281.584 346.330 C 281.906 346.259,282.515 345.894,282.938 345.520 C 283.362 345.146,284.289 344.564,284.999 344.227 C 285.709 343.890,286.517 343.341,286.794 343.007 C 287.071 342.673,287.546 342.400,287.849 342.400 C 288.152 342.400,288.400 342.250,288.400 342.068 C 288.400 341.885,288.895 341.488,289.500 341.185 C 290.105 340.882,290.870 340.416,291.200 340.149 C 291.530 339.882,292.062 339.604,292.382 339.532 C 292.702 339.459,293.371 339.009,293.869 338.531 C 294.367 338.053,295.140 337.546,295.587 337.404 C 296.034 337.262,296.400 337.007,296.400 336.837 C 296.400 336.667,296.838 336.329,297.373 336.085 C 297.908 335.841,298.822 335.227,299.405 334.721 C 299.987 334.214,300.503 333.890,300.550 334.000 C 300.598 334.110,301.101 333.750,301.668 333.200 C 303.064 331.847,303.885 331.193,306.109 329.663 C 307.149 328.947,308.000 328.190,308.000 327.981 C 308.000 327.771,308.235 327.600,308.522 327.600 C 308.809 327.600,309.709 327.015,310.522 326.300 C 311.335 325.585,313.367 323.920,315.039 322.600 C 323.332 316.049,340.000 299.835,340.000 298.319 C 340.000 298.143,340.300 298.000,340.667 298.000 C 341.033 298.000,341.227 297.894,341.097 297.763 C 340.967 297.633,341.745 296.598,342.826 295.463 C 343.907 294.329,344.794 293.247,344.796 293.060 C 344.798 292.874,345.295 292.244,345.900 291.660 C 346.505 291.077,347.252 290.111,347.560 289.514 C 347.868 288.916,348.273 288.522,348.460 288.637 C 348.647 288.753,348.800 288.659,348.800 288.428 C 348.800 288.038,349.040 287.704,350.900 285.505 C 351.285 285.050,351.600 284.545,351.600 284.383 C 351.600 284.221,352.226 283.393,352.991 282.544 C 353.756 281.695,354.386 280.852,354.391 280.672 C 354.396 280.492,354.985 279.524,355.700 278.522 C 357.783 275.602,358.394 274.645,358.651 273.900 C 358.784 273.515,359.052 273.200,359.247 273.200 C 359.441 273.200,359.600 272.930,359.600 272.600 C 359.600 272.270,359.780 272.000,360.000 272.000 C 360.220 272.000,360.400 271.640,360.400 271.200 C 360.400 270.760,360.580 270.400,360.800 270.400 C 361.020 270.400,361.200 270.130,361.200 269.800 C 361.200 269.470,361.380 269.200,361.600 269.200 C 361.820 269.200,362.000 268.930,362.000 268.600 C 362.000 268.270,362.135 267.999,362.300 267.999 C 362.465 267.998,363.050 267.008,363.600 265.800 C 364.150 264.592,364.735 263.602,364.900 263.601 C 365.065 263.601,365.200 263.255,365.200 262.833 C 365.200 262.412,365.335 262.007,365.500 261.933 C 365.974 261.723,368.087 257.601,367.725 257.594 C 367.546 257.591,367.598 257.456,367.840 257.294 C 368.243 257.025,371.600 250.379,371.600 249.851 C 371.600 249.726,372.071 248.594,372.647 247.336 C 373.222 246.077,373.739 244.857,373.796 244.624 C 373.852 244.391,374.034 243.611,374.201 242.892 C 374.367 242.172,374.660 241.486,374.852 241.368 C 375.043 241.250,375.200 240.713,375.200 240.176 C 375.200 239.639,375.380 239.200,375.600 239.200 C 375.820 239.200,376.000 238.660,376.000 238.000 C 376.000 237.340,376.180 236.800,376.400 236.800 C 376.620 236.800,376.800 236.170,376.800 235.400 C 376.800 234.630,376.980 234.000,377.200 234.000 C 377.420 234.000,377.600 233.460,377.600 232.800 C 377.600 232.140,377.780 231.600,378.000 231.600 C 378.220 231.600,378.400 231.071,378.400 230.424 C 378.400 229.777,378.580 229.136,378.800 229.000 C 379.020 228.864,379.200 228.133,379.200 227.376 C 379.200 226.619,379.380 226.000,379.600 226.000 C 379.820 226.000,380.000 225.291,380.000 224.424 C 380.000 223.557,380.180 222.736,380.400 222.600 C 380.620 222.464,380.800 221.654,380.800 220.800 C 380.800 219.946,380.980 219.136,381.200 219.000 C 381.420 218.864,381.600 217.874,381.600 216.800 C 381.600 215.726,381.780 214.736,382.000 214.600 C 382.220 214.464,382.400 213.294,382.400 212.000 C 382.400 210.706,382.580 209.536,382.800 209.400 C 383.020 209.264,383.200 207.828,383.200 206.210 C 383.200 204.591,383.366 203.207,383.569 203.133 C 384.682 202.731,384.691 165.739,383.578 164.620 C 383.370 164.411,383.200 163.027,383.200 161.544 C 383.200 160.061,383.020 158.736,382.800 158.600 C 382.580 158.464,382.400 157.564,382.400 156.600 C 382.400 155.636,382.220 154.736,382.000 154.600 C 381.780 154.464,381.600 153.744,381.600 153.000 C 381.600 152.256,381.420 151.536,381.200 151.400 C 380.980 151.264,380.800 150.443,380.800 149.576 C 380.800 148.709,380.620 148.000,380.400 148.000 C 380.180 148.000,380.000 147.460,380.000 146.800 C 380.000 146.140,379.820 145.600,379.600 145.600 C 379.380 145.600,379.200 145.150,379.200 144.600 C 379.200 144.050,379.020 143.600,378.800 143.600 C 378.580 143.600,378.400 143.075,378.400 142.433 C 378.400 141.792,378.222 141.207,378.003 141.133 C 377.785 141.060,377.567 140.518,377.519 139.929 C 377.470 139.340,377.288 138.945,377.115 139.052 C 376.942 139.160,376.800 138.887,376.800 138.447 C 376.800 138.007,376.620 137.536,376.400 137.400 C 376.180 137.264,376.000 136.803,376.000 136.376 C 376.000 135.949,375.809 135.600,375.576 135.600 C 375.343 135.600,375.247 135.447,375.363 135.260 C 375.590 134.893,372.204 127.935,369.592 123.400 C 368.705 121.860,367.873 120.285,367.743 119.900 C 367.613 119.515,367.348 119.200,367.153 119.200 C 366.959 119.200,366.800 118.964,366.800 118.675 C 366.800 118.387,366.440 117.764,366.000 117.292 C 365.560 116.820,365.200 116.323,365.200 116.189 C 365.200 116.054,364.660 115.159,364.000 114.200 C 363.340 113.241,362.800 112.352,362.800 112.224 C 362.800 112.097,362.260 111.428,361.600 110.737 C 360.940 110.046,360.400 109.278,360.400 109.029 C 360.400 108.780,360.040 108.317,359.600 108.000 C 359.160 107.683,358.800 107.131,358.800 106.774 C 358.800 106.416,358.422 105.782,357.959 105.363 C 357.497 104.944,356.866 104.114,356.557 103.517 C 356.249 102.921,355.592 101.984,355.098 101.435 C 353.519 99.681,352.000 97.699,352.000 97.392 C 352.000 97.228,351.676 96.803,351.281 96.447 C 350.886 96.091,350.125 95.170,349.590 94.400 C 349.055 93.630,348.208 92.587,347.709 92.082 C 347.209 91.577,346.800 91.000,346.800 90.800 C 346.800 90.600,346.350 89.986,345.800 89.436 C 345.250 88.886,344.800 88.148,344.800 87.795 C 344.800 87.442,344.620 87.264,344.400 87.400 C 344.180 87.536,344.000 87.406,344.000 87.112 C 344.000 86.817,343.640 86.317,343.200 86.000 C 342.760 85.683,342.398 85.238,342.395 85.012 C 342.392 84.785,342.034 84.150,341.599 83.600 C 341.164 83.050,339.958 81.430,338.917 80.000 C 337.877 78.570,336.705 77.109,336.313 76.753 C 335.921 76.397,335.600 75.884,335.600 75.614 C 335.600 75.343,335.105 74.642,334.500 74.057 C 333.895 73.471,333.344 72.735,333.275 72.422 C 333.206 72.108,332.801 71.548,332.375 71.178 C 331.949 70.809,331.600 70.324,331.600 70.101 C 331.600 69.879,330.880 68.955,330.000 68.048 C 329.120 67.141,328.400 66.246,328.400 66.059 C 328.400 65.872,327.860 65.154,327.200 64.463 C 326.540 63.772,326.000 63.026,326.000 62.804 C 326.000 62.582,325.820 62.400,325.600 62.400 C 325.380 62.400,325.200 62.205,325.200 61.967 C 325.200 61.584,323.053 58.703,321.700 57.272 C 321.425 56.981,321.200 56.584,321.200 56.390 C 321.200 56.195,320.750 55.586,320.200 55.036 C 319.650 54.486,319.200 53.875,319.200 53.678 C 319.200 53.480,318.615 52.707,317.901 51.959 C 317.186 51.212,316.691 50.569,316.801 50.532 C 316.910 50.495,316.595 49.998,316.100 49.429 C 315.605 48.860,315.200 48.205,315.200 47.973 C 315.200 47.742,315.020 47.664,314.800 47.800 C 314.579 47.937,314.400 47.649,314.400 47.157 C 314.400 46.667,314.283 46.383,314.140 46.526 C 313.820 46.847,312.001 44.787,312.000 44.103 C 312.000 43.830,311.640 43.382,311.200 43.107 C 310.760 42.832,310.400 42.408,310.400 42.163 C 310.400 41.919,309.860 41.154,309.200 40.463 C 308.540 39.772,308.000 38.936,308.000 38.604 C 308.000 38.272,307.855 38.000,307.678 38.000 C 307.502 38.000,306.416 36.763,305.266 35.250 C 303.456 32.870,298.400 27.343,298.400 27.746 C 298.400 27.823,296.945 26.472,295.166 24.744 C 293.388 23.015,291.762 21.600,291.553 21.600 C 291.344 21.600,290.573 21.015,289.840 20.300 C 287.956 18.464,286.854 17.600,286.395 17.600 C 286.178 17.600,286.000 17.420,286.000 17.200 C 286.000 16.980,285.813 16.800,285.584 16.800 C 285.110 16.800,282.669 15.155,282.467 14.700 C 282.393 14.535,282.156 14.400,281.939 14.400 C 281.722 14.400,280.765 13.864,279.812 13.208 C 278.860 12.553,276.307 11.182,274.140 10.163 C 271.973 9.143,269.508 7.970,268.662 7.555 C 267.816 7.140,266.871 6.800,266.562 6.800 C 266.253 6.800,266.000 6.620,266.000 6.400 C 266.000 6.180,265.550 6.000,265.000 6.000 C 264.450 6.000,264.000 5.820,264.000 5.600 C 264.000 5.380,263.561 5.200,263.024 5.200 C 262.487 5.200,261.936 5.020,261.800 4.800 C 261.664 4.580,261.124 4.400,260.600 4.400 C 260.076 4.400,259.536 4.220,259.400 4.000 C 259.264 3.780,258.634 3.600,258.000 3.600 C 257.366 3.600,256.736 3.420,256.600 3.200 C 256.464 2.980,255.823 2.800,255.176 2.800 C 254.529 2.800,254.000 2.620,254.000 2.400 C 254.000 2.180,253.190 2.000,252.200 2.000 C 251.210 2.000,250.400 1.820,250.400 1.600 C 250.400 1.380,249.626 1.200,248.680 1.200 C 247.734 1.200,246.735 0.975,246.460 0.700 C 246.074 0.314,240.935 0.184,223.880 0.130 C 210.961 0.089,202.464 0.201,203.400 0.400 M224.920 74.400 C 224.920 75.610,224.995 76.105,225.087 75.500 C 225.178 74.895,225.178 73.905,225.087 73.300 C 224.995 72.695,224.920 73.190,224.920 74.400 M113.600 230.400 C 113.600 230.660,119.333 230.800,130.000 230.800 C 140.667 230.800,146.400 230.660,146.400 230.400 C 146.400 230.140,140.667 230.000,130.000 230.000 C 119.333 230.000,113.600 230.140,113.600 230.400 M246.325 255.408 C 246.210 255.523,244.965 255.782,243.558 255.984 C 240.312 256.450,238.831 256.765,237.700 257.230 C 237.205 257.434,236.395 257.756,235.900 257.946 C 235.405 258.137,234.460 258.521,233.800 258.800 C 233.140 259.079,232.150 259.484,231.600 259.700 C 231.050 259.916,230.287 260.252,229.905 260.447 C 229.523 260.641,228.938 260.800,228.605 260.800 C 228.272 260.800,228.000 260.980,228.000 261.200 C 228.000 261.420,227.640 261.600,227.200 261.600 C 226.760 261.600,226.400 261.780,226.400 262.000 C 226.400 262.552,226.504 262.528,228.891 261.429 C 232.416 259.806,234.522 258.932,236.200 258.398 C 237.080 258.118,238.160 257.751,238.600 257.582 C 260.985 248.978,269.111 276.370,249.217 293.371 C 234.962 305.555,210.480 304.371,203.557 291.164 C 198.211 280.966,202.460 274.337,219.971 265.557 C 223.397 263.839,225.970 262.426,225.688 262.417 C 225.037 262.396,216.718 266.512,212.877 268.755 C 202.875 274.596,199.245 280.618,201.482 287.654 C 207.099 305.315,234.879 307.681,251.606 291.925 C 253.521 290.121,256.400 286.589,256.400 286.044 C 256.400 285.800,256.559 285.600,256.753 285.600 C 256.948 285.600,257.207 285.285,257.329 284.900 C 257.451 284.515,257.811 283.750,258.128 283.200 C 258.446 282.650,258.907 281.705,259.153 281.100 C 259.399 280.495,259.768 279.595,259.973 279.100 C 261.276 275.952,261.304 268.239,260.023 265.000 C 259.344 263.282,258.574 261.778,258.000 261.049 C 256.151 258.698,255.055 257.600,254.559 257.600 C 254.251 257.600,254.000 257.441,254.000 257.247 C 254.000 256.504,246.924 254.809,246.325 255.408 " stroke="none" fill="#fbd3a4" fill-rule="evenodd"></path><path id="path2" d="M263.256 231.652 C 257.385 235.673,256.404 236.817,256.401 239.641 C 256.398 244.150,260.455 246.532,265.500 244.983 C 266.341 244.725,266.400 244.825,266.400 246.503 C 266.400 250.689,271.097 258.576,274.199 259.600 C 280.339 261.626,283.204 255.424,279.567 247.981 C 278.705 246.217,278.000 244.641,278.000 244.478 C 278.000 243.712,275.428 241.190,274.189 240.742 C 272.531 240.142,272.479 239.902,273.819 239.024 C 277.388 236.686,277.239 230.813,273.557 228.638 C 270.975 227.113,269.066 227.671,263.256 231.652 M179.566 271.367 C 179.475 271.459,177.510 272.023,175.200 272.620 C 169.831 274.009,168.221 274.891,167.200 277.000 C 165.097 281.345,167.846 285.386,172.926 285.418 C 175.248 285.433,175.767 285.548,175.626 286.018 C 174.693 289.140,176.637 295.436,179.926 299.942 C 183.407 304.713,190.754 301.921,190.303 296.000 C 190.092 293.223,186.533 285.719,184.693 284.171 C 183.534 283.196,183.622 282.432,184.897 282.406 C 185.060 282.403,185.727 281.842,186.379 281.159 C 190.284 277.073,187.805 271.200,182.176 271.200 C 180.832 271.200,179.658 271.275,179.566 271.367 " stroke="none" fill="#373e45" fill-rule="evenodd"></path><path id="path3" d="M208.800 128.800 C 208.800 129.020,208.612 129.200,208.382 129.200 C 207.740 129.200,206.000 131.086,206.000 131.782 C 206.000 132.122,205.820 132.400,205.600 132.400 C 205.341 132.400,205.200 137.200,205.200 146.000 C 205.200 154.800,205.341 159.600,205.600 159.600 C 205.820 159.600,206.000 159.876,206.000 160.213 C 206.000 161.454,208.668 163.600,210.210 163.600 C 211.066 163.600,211.547 163.762,211.400 164.000 C 211.264 164.220,211.523 164.400,211.976 164.400 C 212.429 164.400,212.800 164.220,212.800 164.000 C 212.800 163.780,213.340 163.600,214.000 163.600 C 215.676 163.600,218.400 160.876,218.400 159.200 C 218.400 158.540,218.570 158.000,218.778 158.000 C 219.315 158.000,219.346 134.537,218.810 134.206 C 218.584 134.067,218.400 133.601,218.400 133.171 C 218.400 131.728,216.987 129.789,215.294 128.911 C 214.129 128.307,208.800 128.215,208.800 128.800 M153.024 143.724 C 151.846 144.446,150.400 145.911,150.400 146.382 C 150.400 146.612,150.220 146.800,150.000 146.800 C 149.423 146.800,149.503 152.032,150.100 153.317 C 150.375 153.909,150.735 154.395,150.900 154.397 C 151.065 154.399,151.200 154.760,151.200 155.200 C 151.200 155.640,151.380 156.000,151.600 156.000 C 151.820 156.000,152.000 156.270,152.000 156.600 C 152.000 156.930,152.180 157.200,152.400 157.200 C 152.620 157.200,152.800 157.470,152.800 157.800 C 152.800 158.130,152.980 158.400,153.200 158.400 C 153.420 158.400,153.600 158.670,153.600 159.000 C 153.600 159.330,153.780 159.600,154.000 159.600 C 154.220 159.600,154.400 159.960,154.400 160.400 C 154.400 160.840,154.580 161.200,154.800 161.200 C 155.020 161.200,155.200 161.560,155.200 162.000 C 155.200 162.440,155.380 162.800,155.600 162.800 C 155.820 162.800,156.000 163.036,156.000 163.325 C 156.000 163.613,156.360 164.236,156.800 164.708 C 157.240 165.180,157.600 165.844,157.600 166.183 C 157.600 166.522,157.780 166.800,158.000 166.800 C 158.220 166.800,158.400 167.149,158.400 167.576 C 158.400 168.003,158.580 168.464,158.801 168.601 C 159.022 168.737,159.553 169.618,159.981 170.559 C 160.410 171.500,161.039 172.501,161.380 172.784 C 161.721 173.066,162.000 173.517,162.000 173.785 C 162.000 174.305,163.656 175.200,164.619 175.200 C 164.938 175.200,165.200 175.380,165.200 175.600 C 165.200 175.820,166.190 176.000,167.400 176.000 C 168.610 176.000,169.600 175.820,169.600 175.600 C 169.600 175.380,170.054 175.200,170.609 175.200 C 171.375 175.200,171.904 174.748,172.809 173.322 C 174.926 169.984,174.281 166.089,170.805 161.207 C 170.362 160.585,170.000 159.879,170.000 159.638 C 170.000 159.397,169.854 159.200,169.675 159.200 C 169.496 159.200,169.102 158.570,168.800 157.800 C 168.498 157.030,168.104 156.400,167.925 156.400 C 167.746 156.400,167.600 156.130,167.600 155.800 C 167.600 155.470,167.420 155.200,167.200 155.200 C 166.980 155.200,166.800 154.840,166.800 154.400 C 166.800 153.960,166.648 153.600,166.463 153.600 C 166.277 153.600,165.692 152.745,165.163 151.700 C 164.633 150.655,164.065 149.740,163.900 149.667 C 163.735 149.593,163.600 149.188,163.600 148.767 C 163.600 148.345,163.420 148.000,163.200 148.000 C 162.980 148.000,162.800 147.765,162.800 147.478 C 162.800 146.821,160.487 144.281,159.326 143.664 C 158.201 143.066,154.031 143.105,153.024 143.724 M112.800 184.302 C 112.800 184.469,112.305 184.827,111.700 185.098 C 107.967 186.771,107.857 196.400,111.571 196.400 C 111.807 196.400,112.000 196.580,112.000 196.800 C 112.000 197.020,112.360 197.200,112.800 197.200 C 113.240 197.200,113.600 197.380,113.600 197.600 C 113.600 197.820,113.870 198.000,114.200 198.000 C 114.530 198.000,114.800 198.146,114.800 198.325 C 114.800 198.504,115.430 198.898,116.200 199.200 C 116.970 199.502,117.600 199.896,117.600 200.075 C 117.600 200.254,117.836 200.400,118.125 200.400 C 118.413 200.400,119.005 200.715,119.440 201.100 C 119.875 201.485,120.494 201.859,120.816 201.930 C 121.137 202.002,121.460 202.227,121.533 202.430 C 121.607 202.634,122.012 202.800,122.433 202.800 C 122.855 202.800,123.200 202.980,123.200 203.200 C 123.200 203.420,123.470 203.600,123.800 203.600 C 124.130 203.600,124.400 203.780,124.400 204.000 C 124.400 204.220,124.670 204.400,125.000 204.400 C 125.330 204.400,125.600 204.580,125.600 204.800 C 125.600 205.020,125.960 205.200,126.400 205.200 C 126.840 205.200,127.200 205.380,127.200 205.600 C 127.200 205.820,127.435 206.000,127.722 206.000 C 128.010 206.000,128.860 206.454,129.612 207.009 C 134.050 210.283,140.587 208.415,141.393 203.641 C 141.736 201.609,141.322 198.979,140.535 198.192 C 140.209 197.866,140.074 197.600,140.234 197.600 C 140.394 197.600,140.001 197.150,139.362 196.600 C 138.723 196.051,137.975 195.601,137.700 195.600 C 137.425 195.600,137.200 195.454,137.200 195.275 C 137.200 195.096,136.570 194.702,135.800 194.400 C 135.030 194.098,134.400 193.741,134.400 193.607 C 134.400 193.474,133.590 193.030,132.600 192.622 C 131.610 192.213,130.800 191.727,130.800 191.540 C 130.800 191.353,130.440 191.200,130.000 191.200 C 129.560 191.200,129.200 191.020,129.200 190.800 C 129.200 190.580,128.840 190.400,128.400 190.400 C 127.960 190.400,127.600 190.220,127.600 190.000 C 127.600 189.780,127.364 189.600,127.075 189.600 C 126.787 189.600,126.164 189.240,125.692 188.800 C 125.220 188.360,124.556 188.000,124.217 188.000 C 123.878 188.000,123.600 187.820,123.600 187.600 C 123.600 187.380,123.330 187.200,123.000 187.200 C 122.670 187.200,122.400 187.020,122.400 186.800 C 122.400 186.580,122.130 186.400,121.800 186.400 C 121.470 186.400,121.200 186.220,121.200 186.000 C 121.200 185.780,120.930 185.600,120.600 185.600 C 120.270 185.600,120.000 185.420,120.000 185.200 C 120.000 184.980,119.651 184.800,119.224 184.800 C 118.797 184.800,118.336 184.620,118.200 184.400 C 117.915 183.939,112.800 183.847,112.800 184.302 M244.400 256.249 C 242.800 256.434,239.781 257.128,238.600 257.582 C 238.160 257.751,237.080 258.118,236.200 258.398 C 234.602 258.907,234.046 259.135,228.400 261.602 C 206.122 271.335,198.749 278.741,202.122 288.000 C 208.464 305.408,236.290 306.854,252.149 290.600 C 266.559 275.831,261.690 254.249,244.400 256.249 " stroke="none" fill="#e2e2e1" fill-rule="evenodd"></path><path id="path4" d="M269.905 227.883 C 270.402 227.979,271.122 227.975,271.505 227.875 C 271.887 227.775,271.480 227.696,270.600 227.701 C 269.720 227.705,269.407 227.787,269.905 227.883 M265.900 229.414 C 264.855 230.180,264.000 230.896,264.000 231.003 C 264.000 231.152,266.531 229.483,268.367 228.123 C 268.458 228.056,268.368 228.004,268.167 228.010 C 267.965 228.015,266.945 228.647,265.900 229.414 M276.394 234.081 C 276.287 235.336,276.346 236.216,276.524 236.037 C 276.703 235.858,276.790 234.831,276.718 233.756 L 276.587 231.800 276.394 234.081 M256.101 239.800 C 256.105 240.680,256.187 240.993,256.283 240.495 C 256.379 239.998,256.375 239.278,256.275 238.895 C 256.175 238.513,256.096 238.920,256.101 239.800 M276.394 242.203 C 277.987 244.121,278.121 244.245,277.686 243.396 C 277.459 242.953,276.852 242.234,276.337 241.798 C 275.433 241.034,275.435 241.048,276.394 242.203 M256.800 242.664 C 256.800 242.882,257.295 243.497,257.900 244.030 L 259.000 245.000 258.000 243.800 C 257.450 243.140,256.955 242.525,256.900 242.433 C 256.845 242.342,256.800 242.445,256.800 242.664 M278.028 244.600 C 278.028 244.820,278.286 245.450,278.600 246.000 C 278.914 246.550,279.172 246.820,279.172 246.600 C 279.172 246.380,278.914 245.750,278.600 245.200 C 278.286 244.650,278.028 244.380,278.028 244.600 M265.467 245.110 C 265.725 245.273,266.011 246.035,266.103 246.803 C 266.264 248.134,266.275 248.120,266.336 246.500 C 266.388 245.121,266.268 244.801,265.700 244.806 C 265.241 244.810,265.161 244.915,265.467 245.110 M296.289 245.650 C 291.621 246.251,286.237 248.463,283.039 251.095 C 282.338 251.673,281.778 251.889,281.625 251.641 C 281.486 251.416,281.379 252.277,281.386 253.553 C 281.409 257.359,279.320 259.686,275.814 259.762 C 274.813 259.784,274.287 259.928,274.591 260.099 C 275.022 260.340,274.965 260.801,274.294 262.499 C 269.854 273.739,278.633 284.527,292.200 284.502 C 315.566 284.460,328.675 256.892,309.768 247.558 C 305.848 245.622,301.398 244.993,296.289 245.650 M181.107 271.090 C 181.826 271.179,182.906 271.177,183.507 271.086 C 184.108 270.995,183.520 270.922,182.200 270.924 C 180.880 270.926,180.388 271.001,181.107 271.090 M184.500 282.488 C 184.005 282.727,183.600 283.079,183.600 283.270 C 183.600 283.462,184.050 283.324,184.600 282.963 C 186.067 282.002,186.016 281.757,184.500 282.488 M167.200 282.925 C 167.200 282.994,167.785 283.579,168.500 284.225 L 169.800 285.400 168.625 284.100 C 167.530 282.888,167.200 282.616,167.200 282.925 M185.194 284.603 C 186.787 286.521,186.921 286.645,186.486 285.796 C 186.259 285.353,185.652 284.634,185.137 284.198 C 184.233 283.434,184.235 283.448,185.194 284.603 M175.214 286.374 C 174.607 287.508,174.735 290.448,175.442 291.600 C 175.821 292.219,175.941 292.295,175.757 291.800 C 175.220 290.363,175.118 287.300,175.578 286.441 C 175.826 285.978,175.938 285.600,175.828 285.600 C 175.718 285.600,175.442 285.948,175.214 286.374 M190.276 295.446 C 190.540 298.155,190.732 298.533,190.762 296.400 C 190.776 295.410,190.630 294.351,190.437 294.046 C 190.221 293.705,190.159 294.242,190.276 295.446 M178.800 299.296 C 178.800 299.587,177.945 300.063,176.900 300.353 C 151.431 307.422,150.697 338.575,176.000 338.563 C 200.470 338.551,213.293 308.922,192.261 300.992 C 191.194 300.590,190.232 300.029,190.123 299.745 C 189.989 299.394,189.624 299.586,188.988 300.341 C 186.781 302.965,182.796 302.967,180.304 300.347 C 179.477 299.478,178.800 299.005,178.800 299.296 " stroke="none" fill="#fb8c9c" fill-rule="evenodd"></path></g></svg>