<svg id="svg" version="1.1" xmlns="http://www.w3.org/2000/svg" xmlns:xlink="http://www.w3.org/1999/xlink" width="400" height="400" viewBox="0, 0, 400,400"><g id="svgg"><path id="path0" d="M3.300 3.398 C 2.501 4.306,2.572 395.829,3.371 396.629 C 4.234 397.492,395.766 397.492,396.629 396.629 C 397.492 395.766,397.492 4.234,396.629 3.371 C 395.769 2.512,4.057 2.538,3.300 3.398 M42.500 9.599 L 56.800 9.600 56.800 32.720 C 56.800 50.169,56.682 55.958,56.320 56.320 C 55.492 57.148,9.762 56.999,9.443 56.167 C 9.089 55.245,9.145 9.792,9.500 9.415 C 9.665 9.240,13.940 9.209,19.000 9.347 C 24.060 9.485,34.635 9.599,42.500 9.599 M126.703 32.900 L 126.600 56.600 95.600 56.710 C 78.550 56.771,64.195 56.722,63.700 56.603 L 62.800 56.385 62.800 33.059 C 62.800 20.230,62.920 9.613,63.067 9.467 C 63.213 9.320,77.615 9.200,95.070 9.200 L 126.806 9.200 126.703 32.900 M197.111 32.200 C 197.171 44.740,197.123 55.405,197.003 55.900 L 196.785 56.800 165.425 56.800 C 148.177 56.800,133.781 56.691,133.433 56.557 C 132.771 56.303,132.414 10.119,133.069 9.464 C 133.217 9.316,147.662 9.241,165.169 9.298 L 197.000 9.400 197.111 32.200 M267.103 32.774 C 267.185 51.209,267.100 56.216,266.703 56.468 C 266.426 56.644,252.025 56.791,234.700 56.794 L 203.200 56.800 203.200 32.998 L 203.200 9.195 235.100 9.298 L 267.000 9.400 267.103 32.774 M337.000 33.000 L 337.000 56.600 305.200 56.600 L 273.400 56.600 273.296 33.400 C 273.239 20.640,273.279 9.974,273.385 9.698 C 273.537 9.299,280.131 9.216,305.288 9.298 L 337.000 9.400 337.000 33.000 M390.400 32.936 L 390.400 56.272 381.100 56.535 C 365.128 56.987,344.227 56.867,343.680 56.320 C 343.318 55.958,343.200 50.169,343.200 32.720 L 343.200 9.600 366.800 9.600 L 390.400 9.600 390.400 32.936 M56.702 94.556 C 56.777 117.645,56.683 126.259,56.351 126.659 C 55.974 127.113,51.920 127.189,32.648 127.103 L 9.400 127.000 9.297 95.400 C 9.240 78.020,9.280 63.574,9.385 63.297 C 9.537 62.899,14.492 62.815,33.089 62.897 L 56.600 63.000 56.702 94.556 M336.720 63.280 C 337.419 63.979,337.419 336.021,336.720 336.720 C 336.021 337.419,63.979 337.419,63.280 336.720 C 62.581 336.021,62.581 63.979,63.280 63.280 C 63.979 62.581,336.021 62.581,336.720 63.280 M390.702 94.836 L 390.805 126.672 381.138 126.936 C 364.659 127.386,344.228 127.268,343.680 126.720 C 343.170 126.210,342.941 64.740,343.444 63.430 C 343.664 62.857,346.014 62.804,367.144 62.897 L 390.600 63.000 390.702 94.836 M266.993 85.797 C 255.251 97.544,254.000 98.920,254.000 100.099 C 254.000 102.168,297.914 146.000,299.987 146.000 C 301.697 146.000,326.951 121.243,327.420 119.107 C 327.809 117.337,327.683 117.199,304.787 94.300 C 283.333 72.844,283.286 72.800,281.638 72.800 C 280.004 72.800,279.856 72.931,266.993 85.797 M300.588 99.613 L 319.376 118.418 309.791 128.009 C 304.519 133.284,300.067 137.600,299.896 137.600 C 299.511 137.600,262.400 100.505,262.400 100.119 C 262.400 99.806,281.284 80.817,281.600 80.812 C 281.710 80.810,290.255 89.271,300.588 99.613 M56.702 164.892 L 56.805 196.784 55.902 197.002 C 55.406 197.123,44.740 197.171,32.200 197.111 L 9.400 197.000 9.297 165.400 C 9.240 148.020,9.280 133.574,9.385 133.297 C 9.537 132.899,14.492 132.815,33.089 132.897 L 56.600 133.000 56.702 164.892 M390.600 165.000 L 390.600 197.000 367.800 197.111 C 355.260 197.171,344.595 197.123,344.100 197.003 L 343.200 196.785 343.200 165.425 C 343.200 148.177,343.310 133.779,343.444 133.430 C 343.664 132.857,346.014 132.804,367.144 132.897 L 390.600 133.000 390.600 165.000 M211.000 134.462 C 207.989 136.017,206.175 138.369,204.412 143.000 C 203.944 144.227,203.361 145.617,202.440 147.696 C 201.978 148.738,201.600 149.739,201.600 149.921 C 201.600 150.102,201.240 150.995,200.800 151.906 C 200.360 152.816,200.000 153.729,200.000 153.935 C 200.000 154.298,199.351 155.646,198.652 156.736 C 198.391 157.142,198.024 156.926,197.125 155.835 C 196.474 155.045,195.099 153.904,194.071 153.300 L 192.200 152.200 158.172 152.200 L 124.144 152.200 122.285 153.156 C 120.020 154.321,118.462 155.986,117.287 158.496 L 116.400 160.391 116.400 193.449 C 116.400 230.041,116.292 228.504,119.071 231.595 C 122.554 235.468,119.662 235.200,157.947 235.200 C 195.154 235.200,192.893 235.359,196.038 232.518 C 198.944 229.893,200.000 226.604,200.000 220.180 C 200.000 218.101,200.156 216.400,200.347 216.400 C 200.852 216.400,204.934 218.076,205.380 218.467 C 205.589 218.650,205.996 218.800,206.284 218.800 C 206.573 218.800,207.572 219.143,208.504 219.563 C 220.987 225.178,247.566 235.200,249.966 235.196 C 256.698 235.186,258.048 233.590,264.004 218.600 C 266.015 213.540,267.916 208.877,268.230 208.239 C 268.543 207.600,268.800 206.923,268.800 206.734 C 268.800 206.546,269.140 205.628,269.556 204.696 C 269.971 203.763,270.616 202.190,270.989 201.200 C 271.361 200.210,271.910 198.860,272.209 198.200 C 272.507 197.540,275.192 190.874,278.176 183.387 C 284.316 167.977,284.544 166.924,282.652 162.711 C 281.430 159.992,277.179 156.400,275.181 156.400 C 274.967 156.400,273.938 156.022,272.896 155.560 C 270.327 154.422,267.920 153.430,266.200 152.800 C 264.354 152.124,261.269 150.843,260.305 150.353 C 259.923 150.159,259.426 150.000,259.201 150.000 C 258.976 150.000,258.028 149.667,257.096 149.260 C 256.163 148.853,254.050 147.975,252.400 147.308 C 250.750 146.641,248.050 145.541,246.400 144.863 C 218.134 133.252,215.079 132.355,211.000 134.462 M222.235 141.640 C 225.076 142.762,227.940 143.918,228.600 144.209 C 230.613 145.096,262.049 157.644,264.400 158.498 C 265.610 158.938,266.771 159.456,266.980 159.649 C 267.189 159.842,267.596 160.000,267.884 160.000 C 268.371 160.000,271.292 161.185,272.895 162.033 C 273.277 162.235,273.856 162.400,274.181 162.400 C 275.530 162.400,277.600 165.136,277.600 166.917 C 277.600 168.289,266.595 197.002,261.585 208.700 C 261.373 209.195,261.044 210.005,260.854 210.500 C 260.663 210.995,260.303 211.895,260.054 212.500 C 259.804 213.105,259.444 214.005,259.254 214.500 C 259.063 214.995,258.679 215.940,258.400 216.600 C 258.121 217.260,257.737 218.205,257.546 218.700 C 257.356 219.195,257.044 220.005,256.854 220.500 C 252.955 230.627,251.962 230.983,241.000 226.185 C 240.340 225.897,231.160 222.225,220.600 218.027 C 210.040 213.828,200.950 210.191,200.400 209.943 C 199.850 209.696,198.995 209.337,198.500 209.146 C 198.005 208.956,197.195 208.644,196.700 208.454 C 195.199 207.876,193.440 207.127,192.705 206.753 C 192.323 206.559,191.744 206.400,191.419 206.400 C 190.467 206.400,188.141 203.803,187.867 202.434 C 187.609 201.144,188.231 199.143,190.863 192.800 C 191.547 191.150,192.239 189.440,192.400 189.000 C 192.561 188.560,192.921 187.660,193.200 187.000 C 193.479 186.340,193.887 185.350,194.107 184.800 C 194.327 184.250,194.687 183.350,194.907 182.800 C 195.127 182.250,195.487 181.350,195.707 180.800 C 195.927 180.250,196.245 179.440,196.414 179.000 C 196.582 178.560,197.098 177.347,197.560 176.304 C 198.022 175.262,198.400 174.254,198.400 174.066 C 198.400 173.877,198.657 173.200,198.971 172.561 C 199.285 171.923,201.639 166.090,204.200 159.600 C 206.762 153.110,209.100 147.260,209.396 146.600 C 209.692 145.940,210.174 144.689,210.467 143.819 C 212.059 139.099,214.607 138.627,222.235 141.640 M19.627 155.162 C 18.360 156.941,18.373 175.655,19.642 177.180 C 20.646 178.386,22.781 178.503,23.980 177.418 C 25.250 176.269,25.253 156.238,23.984 154.875 C 22.751 153.551,20.677 153.687,19.627 155.162 M192.178 159.400 C 194.038 161.540,194.217 169.679,192.481 173.175 C 191.997 174.151,191.600 175.098,191.600 175.279 C 191.600 175.461,191.261 176.372,190.846 177.304 C 190.431 178.237,189.683 180.080,189.184 181.400 C 188.684 182.720,188.123 183.971,187.938 184.180 C 187.752 184.389,187.600 184.796,187.600 185.084 C 187.600 185.373,187.257 186.372,186.838 187.304 C 182.125 197.790,181.216 202.107,182.943 205.800 C 184.517 209.164,185.948 210.275,192.327 213.079 L 193.653 213.663 193.527 220.223 C 193.329 230.455,196.649 229.581,158.000 229.581 C 125.861 229.581,125.229 229.545,123.500 227.615 L 122.400 226.387 122.401 193.894 C 122.403 157.974,122.298 159.466,124.903 158.408 C 125.423 158.197,139.536 158.076,158.468 158.122 L 191.135 158.200 192.178 159.400 M217.800 160.287 C 215.172 160.926,212.851 164.613,213.362 167.338 C 214.648 174.191,224.209 174.618,225.931 167.900 C 227.148 163.150,222.795 159.074,217.800 160.287 M235.649 167.217 C 230.352 168.405,229.067 175.606,233.600 178.700 C 235.936 180.295,240.311 179.790,242.000 177.732 C 246.060 172.782,241.857 165.824,235.649 167.217 M252.617 174.292 C 247.465 175.600,246.829 183.270,251.648 185.979 C 254.420 187.537,258.393 186.542,260.014 183.884 C 263.117 178.795,258.493 172.799,252.617 174.292 M152.000 176.097 C 138.917 180.954,135.234 196.939,144.966 206.621 C 156.857 218.451,176.400 210.349,176.400 193.591 C 176.400 180.968,163.599 171.790,152.000 176.097 M163.316 182.388 C 172.747 187.162,172.796 200.229,163.400 204.897 C 151.205 210.955,139.611 195.003,149.002 185.087 C 152.641 181.245,158.774 180.088,163.316 182.388 M208.152 182.575 C 205.026 183.935,203.528 188.887,205.386 191.723 C 207.955 195.644,213.639 195.732,216.130 191.890 C 219.603 186.534,214.023 180.019,208.152 182.575 M224.789 190.100 C 219.492 193.687,222.018 201.692,228.447 201.692 C 234.915 201.692,237.198 192.652,231.454 189.787 C 229.628 188.876,226.371 189.029,224.789 190.100 M242.630 196.907 C 236.869 200.184,239.173 208.598,245.831 208.599 C 248.875 208.600,250.776 207.337,251.812 204.624 C 253.946 199.037,247.866 193.928,242.630 196.907 M42.502 203.199 L 56.805 203.200 56.702 235.100 L 56.600 267.000 33.000 267.000 L 9.400 267.000 9.297 235.400 C 9.240 218.020,9.290 203.546,9.408 203.236 C 9.589 202.764,11.117 202.715,18.912 202.936 C 24.020 203.080,34.636 203.199,42.502 203.199 M390.702 235.100 L 390.600 267.000 367.226 267.103 C 348.791 267.185,343.784 267.100,343.532 266.703 C 343.356 266.426,343.209 252.025,343.206 234.700 L 343.200 203.200 367.002 203.200 L 390.805 203.200 390.702 235.100 M85.968 266.832 C 73.094 279.726,72.247 280.723,72.697 282.457 C 72.945 283.414,114.892 325.665,116.884 326.964 C 118.977 328.329,119.490 327.928,133.123 314.271 C 145.070 302.303,146.000 301.271,146.000 299.984 C 146.000 297.905,102.165 254.000,100.089 254.000 C 98.904 254.000,97.567 255.215,85.968 266.832 M119.009 280.994 C 129.234 291.221,137.600 299.727,137.600 299.897 C 137.600 300.067,133.290 304.513,128.023 309.777 L 118.446 319.347 99.557 300.467 L 80.668 281.587 90.234 271.998 C 95.495 266.724,99.939 262.407,100.109 262.405 C 100.279 262.402,108.784 270.767,119.009 280.994 M56.302 273.421 C 56.701 273.545,56.784 280.116,56.702 305.288 L 56.600 337.000 33.000 337.000 L 9.400 337.000 9.297 305.400 C 9.240 288.020,9.274 273.588,9.373 273.328 C 9.543 272.884,54.863 272.974,56.302 273.421 M390.600 305.200 L 390.600 337.000 367.226 337.103 C 348.791 337.185,343.784 337.100,343.532 336.703 C 343.146 336.096,343.085 273.848,343.470 273.463 C 343.618 273.315,354.283 273.240,367.170 273.297 L 390.600 273.400 390.600 305.200 M56.320 343.680 C 56.682 344.042,56.800 349.817,56.800 367.217 L 56.800 390.274 33.314 390.507 C 20.397 390.636,9.687 390.654,9.514 390.547 C 9.149 390.322,9.080 344.778,9.443 343.833 C 9.762 343.001,55.492 342.852,56.320 343.680 M126.703 367.102 L 126.806 390.805 94.903 390.702 L 63.000 390.600 62.897 367.226 C 62.815 348.792,62.900 343.783,63.297 343.530 C 63.574 343.354,77.930 343.252,95.200 343.305 L 126.600 343.400 126.703 367.102 M196.754 343.745 C 197.082 344.140,197.178 350.676,197.103 367.445 L 197.000 390.600 165.000 390.600 L 133.000 390.600 132.897 367.226 C 132.815 348.791,132.900 343.784,133.297 343.532 C 134.260 342.920,196.243 343.128,196.754 343.745 M266.703 343.532 C 267.100 343.784,267.185 348.791,267.103 367.226 L 267.000 390.600 235.100 390.702 L 203.200 390.805 203.200 367.269 C 203.200 354.324,203.320 343.613,203.467 343.467 C 203.849 343.084,266.099 343.148,266.703 343.532 M336.703 343.532 C 337.100 343.784,337.185 348.791,337.103 367.226 L 337.000 390.600 305.100 390.702 L 273.200 390.805 273.200 367.269 C 273.200 354.324,273.320 343.613,273.467 343.467 C 273.849 343.084,336.099 343.148,336.703 343.532 M381.100 343.465 L 390.400 343.728 390.400 367.064 L 390.400 390.400 366.800 390.400 L 343.200 390.400 343.200 367.280 C 343.200 349.831,343.318 344.042,343.680 343.680 C 344.227 343.133,365.128 343.013,381.100 343.465 " stroke="none" fill="#6f138f" fill-rule="evenodd"></path><path id="path1" d="M63.297 32.900 L 63.400 56.200 95.000 56.200 L 126.600 56.200 126.703 32.900 L 126.806 9.600 95.000 9.600 L 63.194 9.600 63.297 32.900 M133.297 32.900 L 133.400 56.200 165.100 56.302 L 196.800 56.405 196.800 33.002 L 196.800 9.600 164.997 9.600 L 133.194 9.600 133.297 32.900 M203.200 33.002 L 203.200 56.405 234.900 56.302 L 266.600 56.200 266.703 32.900 L 266.806 9.600 235.003 9.600 L 203.200 9.600 203.200 33.002 M273.297 32.900 L 273.400 56.200 305.100 56.302 L 336.800 56.405 336.800 33.002 L 336.800 9.600 304.997 9.600 L 273.194 9.600 273.297 32.900 M9.600 95.000 L 9.600 126.806 32.900 126.703 L 56.200 126.600 56.200 95.000 L 56.200 63.400 32.900 63.297 L 9.600 63.194 9.600 95.000 M343.784 63.700 C 343.679 63.975,343.640 78.240,343.697 95.400 L 343.800 126.600 355.000 126.727 C 361.160 126.796,371.645 126.731,378.300 126.581 L 390.400 126.308 390.400 94.754 L 390.400 63.200 367.187 63.200 C 348.986 63.200,343.934 63.308,343.784 63.700 M9.600 164.997 L 9.600 196.800 33.002 196.800 L 56.405 196.800 56.302 165.100 L 56.200 133.400 32.900 133.297 L 9.600 133.194 9.600 164.997 M343.867 133.467 C 343.720 133.613,343.600 147.923,343.600 165.267 L 343.600 196.800 367.000 196.800 L 390.400 196.800 390.400 165.000 L 390.400 133.200 367.267 133.200 C 354.543 133.200,344.013 133.320,343.867 133.467 M214.167 140.046 C 212.274 140.571,211.903 141.211,208.405 150.000 C 206.609 154.510,204.884 158.723,204.570 159.361 C 204.257 160.000,204.000 160.677,204.000 160.866 C 204.000 161.054,203.660 161.972,203.244 162.904 C 202.829 163.837,202.184 165.410,201.811 166.400 C 201.439 167.390,200.897 168.740,200.607 169.400 C 196.785 178.091,188.225 200.449,188.257 201.656 C 188.341 204.860,187.811 204.584,213.867 214.971 C 227.030 220.219,238.520 224.830,239.400 225.217 C 244.718 227.558,248.406 228.854,249.850 228.887 C 253.243 228.966,252.729 229.964,264.573 200.342 C 270.498 185.524,275.763 172.450,276.273 171.289 C 277.510 168.470,277.522 165.602,276.300 164.243 C 275.649 163.519,267.877 160.241,248.200 152.390 C 233.240 146.421,220.280 141.218,219.400 140.827 C 217.251 139.873,215.651 139.634,214.167 140.046 M23.116 153.856 C 24.998 154.360,25.200 155.576,25.200 166.411 L 25.200 176.462 24.031 177.631 C 22.468 179.193,20.703 179.045,19.313 177.235 C 18.672 176.400,18.594 156.333,19.226 155.151 C 19.884 153.922,21.434 153.406,23.116 153.856 M126.008 158.409 C 125.242 158.589,124.208 159.246,123.710 159.868 L 122.804 161.000 122.802 193.694 L 122.800 226.387 123.967 227.694 L 125.134 229.000 157.925 229.000 C 190.150 229.000,190.731 228.986,191.613 228.200 C 193.244 226.746,193.600 225.179,193.600 219.462 C 193.600 213.411,193.755 213.732,190.200 212.423 C 184.646 210.378,181.875 206.862,181.827 201.800 C 181.800 199.044,182.196 197.624,184.391 192.600 C 184.775 191.720,187.021 186.074,189.381 180.054 L 193.672 169.108 193.536 165.182 C 193.377 160.605,192.716 159.304,190.157 158.532 C 188.327 157.979,128.323 157.865,126.008 158.409 M223.336 160.706 C 226.044 162.288,227.080 166.343,225.572 169.459 C 222.541 175.720,213.200 173.410,213.200 166.400 C 213.200 161.025,218.645 157.967,223.336 160.706 M240.336 167.512 C 241.070 167.849,242.127 168.814,242.684 169.655 C 247.083 176.302,238.154 183.717,232.497 178.114 C 226.950 172.620,233.160 164.222,240.336 167.512 M257.612 174.500 C 263.821 177.637,261.796 186.865,254.879 186.958 C 250.590 187.016,248.229 184.694,248.211 180.400 C 248.189 175.061,252.886 172.113,257.612 174.500 M162.660 175.358 C 172.942 178.096,179.288 189.439,176.000 199.201 C 168.865 220.380,138.035 214.553,139.302 192.265 C 139.956 180.778,151.535 172.396,162.660 175.358 M214.620 182.907 C 219.647 186.143,217.810 194.102,211.813 195.075 C 209.938 195.380,207.110 194.283,205.822 192.753 C 200.823 186.812,208.076 178.695,214.620 182.907 M231.770 189.707 C 236.901 192.625,235.778 200.347,230.000 201.881 C 226.707 202.755,222.983 200.640,221.993 197.333 C 220.252 191.524,226.457 186.684,231.770 189.707 M249.397 196.742 C 253.580 199.185,253.477 205.675,249.215 208.164 C 245.258 210.475,239.901 208.010,239.310 203.607 C 238.513 197.667,244.271 193.748,249.397 196.742 M9.600 235.003 L 9.600 266.806 32.900 266.703 L 56.200 266.600 56.302 234.900 L 56.405 203.200 33.002 203.200 L 9.600 203.200 9.600 235.003 M343.784 203.700 C 343.679 203.975,343.640 218.240,343.697 235.400 L 343.800 266.600 367.100 266.703 L 390.400 266.806 390.400 235.003 L 390.400 203.200 367.187 203.200 C 348.986 203.200,343.934 203.308,343.784 203.700 M9.600 304.997 L 9.600 336.800 33.002 336.800 L 56.405 336.800 56.302 305.100 L 56.200 273.400 32.900 273.297 L 9.600 273.194 9.600 304.997 M343.784 273.700 C 343.679 273.975,343.640 288.240,343.697 305.400 L 343.800 336.600 367.100 336.703 L 390.400 336.806 390.400 305.267 L 390.400 273.728 381.100 273.465 C 364.678 273.000,344.001 273.131,343.784 273.700 M63.469 343.864 C 63.321 344.012,63.200 354.543,63.200 367.267 L 63.200 390.400 95.003 390.400 L 126.806 390.400 126.703 367.100 L 126.600 343.800 95.169 343.698 C 77.882 343.641,63.617 343.716,63.469 343.864 M133.467 343.867 C 133.320 344.013,133.200 354.543,133.200 367.267 L 133.200 390.400 165.000 390.400 L 196.800 390.400 196.800 367.000 L 196.800 343.600 165.267 343.600 C 147.923 343.600,133.613 343.720,133.467 343.867 M203.469 343.864 C 203.321 344.012,203.200 354.543,203.200 367.267 L 203.200 390.400 235.003 390.400 L 266.806 390.400 266.703 367.100 L 266.600 343.800 235.169 343.698 C 217.882 343.641,203.617 343.716,203.469 343.864 M273.469 343.864 C 273.321 344.012,273.200 354.543,273.200 367.267 L 273.200 390.400 305.003 390.400 L 336.806 390.400 336.703 367.100 L 336.600 343.800 305.169 343.698 C 287.882 343.641,273.617 343.716,273.469 343.864 " stroke="none" fill="#f2eaea" fill-rule="evenodd"></path><path id="path2" d="M9.500 9.415 C 9.145 9.792,9.089 55.245,9.443 56.167 C 9.762 56.999,55.492 57.148,56.320 56.320 C 56.682 55.958,56.800 50.169,56.800 32.720 L 56.800 9.600 42.500 9.599 C 34.635 9.599,24.060 9.485,19.000 9.347 C 13.940 9.209,9.665 9.240,9.500 9.415 M62.984 9.700 C 62.878 9.975,62.841 20.640,62.899 33.400 L 63.007 56.600 63.103 33.102 L 63.200 9.605 95.100 9.500 L 127.000 9.395 95.087 9.298 C 69.854 9.220,63.135 9.305,62.984 9.700 M132.985 9.698 C 132.879 9.974,132.841 20.640,132.899 33.400 L 133.007 56.600 133.103 33.100 L 133.200 9.600 164.997 9.600 L 196.794 9.600 196.902 32.900 L 197.010 56.200 197.005 32.800 L 197.000 9.400 165.088 9.298 C 139.771 9.216,133.137 9.299,132.985 9.698 M234.997 9.499 L 266.794 9.605 266.902 32.902 L 267.010 56.200 267.005 32.800 L 267.000 9.400 235.100 9.396 L 203.200 9.393 234.997 9.499 M305.200 9.499 L 336.800 9.605 336.800 33.007 L 336.800 56.409 305.020 56.305 C 287.541 56.247,273.376 56.336,273.542 56.502 C 273.709 56.669,288.055 56.759,305.422 56.702 L 337.000 56.600 337.000 33.000 L 337.000 9.400 305.300 9.396 L 273.600 9.393 305.200 9.499 M343.200 32.720 C 343.200 50.169,343.318 55.958,343.680 56.320 C 344.227 56.867,365.128 56.987,381.100 56.535 L 390.400 56.272 390.400 32.936 L 390.400 9.600 366.800 9.600 L 343.200 9.600 343.200 32.720 M95.000 56.400 L 63.400 56.607 94.876 56.704 C 115.534 56.767,126.438 56.663,126.600 56.400 C 126.736 56.180,126.792 56.043,126.724 56.096 C 126.656 56.149,112.380 56.286,95.000 56.400 M149.300 56.700 C 158.045 56.760,172.355 56.760,181.100 56.700 C 189.845 56.640,182.690 56.591,165.200 56.591 C 147.710 56.591,140.555 56.640,149.300 56.700 M218.900 56.700 C 227.645 56.760,241.955 56.760,250.700 56.700 C 259.445 56.640,252.290 56.591,234.800 56.591 C 217.310 56.591,210.155 56.640,218.900 56.700 M9.385 63.297 C 9.280 63.574,9.240 78.020,9.297 95.400 L 9.400 127.000 32.648 127.103 C 51.920 127.189,55.974 127.113,56.351 126.659 C 56.683 126.259,56.777 117.645,56.702 94.556 L 56.600 63.000 33.089 62.897 C 14.492 62.815,9.537 62.899,9.385 63.297 M366.900 63.098 L 390.400 63.206 390.400 94.793 L 390.400 126.379 384.300 126.501 L 378.200 126.622 384.502 126.711 L 390.805 126.800 390.702 94.900 L 390.600 63.000 367.000 62.995 L 343.400 62.990 366.900 63.098 M56.302 94.900 L 56.200 126.600 32.900 126.703 L 9.600 126.806 9.600 95.003 L 9.600 63.200 33.002 63.200 L 56.405 63.200 56.302 94.900 M343.296 94.820 C 343.223 118.833,343.313 126.353,343.680 126.720 C 344.041 127.081,348.369 127.177,361.180 127.106 L 378.200 127.013 361.000 126.806 L 343.800 126.600 343.596 95.000 L 343.393 63.400 343.296 94.820 M271.900 90.327 C 266.675 95.558,262.400 99.965,262.400 100.119 C 262.400 100.505,299.511 137.600,299.896 137.600 C 300.067 137.600,304.519 133.284,309.791 128.009 L 319.376 118.418 300.588 99.613 C 290.255 89.271,281.710 80.810,281.600 80.812 C 281.490 80.813,277.125 85.095,271.900 90.327 M9.385 133.297 C 9.280 133.574,9.240 148.020,9.297 165.400 L 9.400 197.000 32.600 197.005 L 55.800 197.010 32.700 196.902 L 9.600 196.794 9.600 164.997 L 9.600 133.200 32.998 133.200 L 56.395 133.200 56.501 165.100 L 56.607 197.000 56.604 165.000 L 56.600 133.000 33.089 132.897 C 14.492 132.815,9.537 132.899,9.385 133.297 M343.444 133.430 C 343.310 133.779,343.243 148.226,343.296 165.533 L 343.393 197.000 343.596 165.200 L 343.800 133.400 367.100 133.297 L 390.400 133.194 390.400 164.994 L 390.400 196.794 367.100 196.902 L 343.800 197.010 367.200 197.005 L 390.600 197.000 390.600 165.000 L 390.600 133.000 367.144 132.897 C 346.014 132.804,343.664 132.857,343.444 133.430 M207.667 150.780 C 207.433 151.451,207.327 152.000,207.431 152.000 C 207.701 152.000,208.456 149.922,208.257 149.724 C 208.167 149.633,207.901 150.108,207.667 150.780 M205.513 156.181 C 205.142 157.181,204.917 158.000,205.014 158.000 C 205.293 158.000,206.431 155.094,206.303 154.709 C 206.239 154.518,205.884 155.180,205.513 156.181 M24.973 166.200 C 24.973 171.700,25.030 174.005,25.099 171.323 C 25.168 168.641,25.168 164.141,25.099 161.323 C 25.030 158.505,24.974 160.700,24.973 166.200 M260.358 157.237 C 261.325 157.666,262.188 157.945,262.275 157.858 C 262.448 157.686,259.365 156.382,258.892 156.428 C 258.731 156.444,259.391 156.808,260.358 157.237 M215.446 161.235 C 214.344 162.102,213.194 163.977,213.209 164.880 C 213.214 165.166,213.551 164.667,213.958 163.771 C 214.365 162.875,215.216 161.755,215.849 161.283 C 216.482 160.811,216.889 160.420,216.754 160.413 C 216.619 160.406,216.030 160.776,215.446 161.235 M230.501 173.400 C 230.505 174.280,230.587 174.593,230.683 174.095 C 230.779 173.598,230.775 172.878,230.675 172.495 C 230.575 172.113,230.496 172.520,230.501 173.400 M252.715 173.928 C 252.338 174.078,253.186 174.200,254.600 174.200 C 256.014 174.200,256.862 174.078,256.485 173.928 C 256.108 173.779,255.260 173.656,254.600 173.656 C 253.940 173.656,253.092 173.779,252.715 173.928 M257.600 174.511 C 257.600 174.587,258.185 175.078,258.900 175.601 C 259.704 176.190,259.984 176.287,259.633 175.855 C 259.100 175.199,257.600 174.207,257.600 174.511 M156.500 175.091 C 157.325 175.178,158.675 175.178,159.500 175.091 C 160.325 175.005,159.650 174.934,158.000 174.934 C 156.350 174.934,155.675 175.005,156.500 175.091 M249.184 176.423 C 248.705 177.096,248.379 177.713,248.461 177.794 C 248.543 177.876,249.014 177.326,249.508 176.571 C 250.623 174.871,250.371 174.756,249.184 176.423 M24.193 177.211 C 24.053 177.438,23.368 177.886,22.669 178.207 C 21.714 178.647,21.648 178.733,22.400 178.554 C 23.310 178.338,25.337 176.800,24.712 176.800 C 24.567 176.800,24.333 176.985,24.193 177.211 M147.395 178.153 C 146.298 178.897,144.950 180.017,144.400 180.642 C 143.611 181.538,143.738 181.483,145.000 180.382 C 145.880 179.614,147.275 178.570,148.100 178.060 C 149.384 177.268,149.902 176.800,149.495 176.800 C 149.437 176.800,148.492 177.409,147.395 178.153 M168.600 178.273 C 170.158 179.843,172.854 182.015,171.800 180.852 C 171.140 180.123,170.060 179.154,169.400 178.699 C 168.740 178.243,168.380 178.052,168.600 178.273 M260.920 180.400 C 260.920 181.610,260.995 182.105,261.087 181.500 C 261.178 180.895,261.178 179.905,261.087 179.300 C 260.995 178.695,260.920 179.190,260.920 180.400 M248.109 180.400 C 248.109 181.390,248.187 181.795,248.282 181.300 C 248.378 180.805,248.378 179.995,248.282 179.500 C 248.187 179.005,248.109 179.410,248.109 180.400 M236.300 179.882 C 236.795 179.978,237.605 179.978,238.100 179.882 C 238.595 179.787,238.190 179.709,237.200 179.709 C 236.210 179.709,235.805 179.787,236.300 179.882 M216.255 185.000 C 217.180 186.579,217.200 186.603,217.200 186.111 C 217.200 185.879,216.829 185.264,216.376 184.744 L 215.553 183.800 216.255 185.000 M204.217 187.524 C 204.081 188.143,204.122 189.060,204.308 189.563 C 204.568 190.265,204.646 190.003,204.646 188.439 C 204.646 186.111,204.565 185.938,204.217 187.524 M217.293 188.400 C 217.293 189.170,217.375 189.485,217.476 189.100 C 217.576 188.715,217.576 188.085,217.476 187.700 C 217.375 187.315,217.293 187.630,217.293 188.400 M227.500 189.082 C 227.995 189.178,228.805 189.178,229.300 189.082 C 229.795 188.987,229.390 188.909,228.400 188.909 C 227.410 188.909,227.005 188.987,227.500 189.082 M233.200 191.200 C 233.670 191.860,234.144 192.400,234.254 192.400 C 234.364 192.400,234.070 191.860,233.600 191.200 C 233.130 190.540,232.656 190.000,232.546 190.000 C 232.436 190.000,232.730 190.540,233.200 191.200 M176.540 193.600 C 176.540 195.470,176.609 196.235,176.693 195.300 C 176.777 194.365,176.777 192.835,176.693 191.900 C 176.609 190.965,176.540 191.730,176.540 193.600 M216.084 191.899 C 214.888 193.732,215.134 193.965,216.367 192.167 C 216.888 191.405,217.244 190.718,217.158 190.639 C 217.071 190.561,216.588 191.128,216.084 191.899 M205.967 192.945 C 206.500 193.601,208.000 194.593,208.000 194.289 C 208.000 194.213,207.415 193.722,206.700 193.199 C 205.896 192.610,205.616 192.513,205.967 192.945 M234.600 195.400 C 234.600 196.568,234.732 197.316,234.894 197.062 C 235.056 196.808,235.188 196.060,235.188 195.400 C 235.188 194.740,235.056 193.992,234.894 193.738 C 234.732 193.484,234.600 194.232,234.600 195.400 M189.850 195.191 C 188.947 197.447,189.087 197.783,190.037 195.642 C 190.466 194.675,190.745 193.812,190.658 193.725 C 190.571 193.638,190.208 194.298,189.850 195.191 M209.115 194.872 C 209.492 195.021,210.340 195.144,211.000 195.144 C 211.660 195.144,212.508 195.021,212.885 194.872 C 213.262 194.722,212.414 194.600,211.000 194.600 C 209.586 194.600,208.738 194.722,209.115 194.872 M221.693 195.600 C 221.693 196.370,221.775 196.685,221.876 196.300 C 221.976 195.915,221.976 195.285,221.876 194.900 C 221.775 194.515,221.693 194.830,221.693 195.600 M242.400 196.600 C 241.850 196.914,241.580 197.172,241.800 197.172 C 242.020 197.172,242.650 196.914,243.200 196.600 C 243.750 196.286,244.020 196.028,243.800 196.028 C 243.580 196.028,242.950 196.286,242.400 196.600 M187.829 200.629 C 187.681 201.215,187.638 201.772,187.732 201.866 C 187.827 201.960,188.024 201.558,188.171 200.971 C 188.319 200.385,188.362 199.828,188.268 199.734 C 188.173 199.640,187.976 200.042,187.829 200.629 M181.693 201.600 C 181.693 202.370,181.775 202.685,181.876 202.300 C 181.976 201.915,181.976 201.285,181.876 200.900 C 181.775 200.515,181.693 200.830,181.693 201.600 M9.384 203.300 C 9.279 203.575,9.240 218.020,9.297 235.400 L 9.400 267.000 33.000 267.000 L 56.600 267.000 56.604 235.000 L 56.607 203.000 56.501 234.900 L 56.395 266.800 32.998 266.800 L 9.600 266.800 9.600 235.010 L 9.600 203.220 15.900 203.099 L 22.200 202.978 15.887 202.889 C 11.139 202.822,9.528 202.924,9.384 203.300 M142.033 203.558 C 142.992 205.568,148.241 210.400,149.467 210.400 C 149.644 210.400,148.889 209.794,147.789 209.053 C 145.865 207.758,143.789 205.698,142.288 203.596 C 141.586 202.612,141.583 202.612,142.033 203.558 M343.391 234.800 C 343.391 252.290,343.440 259.445,343.500 250.700 C 343.560 241.955,343.560 227.645,343.500 218.900 C 343.440 210.155,343.391 217.310,343.391 234.800 M390.498 234.897 L 390.400 266.794 366.900 266.900 L 343.400 267.007 366.913 267.103 C 385.426 267.179,390.466 267.094,390.616 266.700 C 390.721 266.425,390.759 251.980,390.701 234.600 L 390.595 203.000 390.498 234.897 M182.004 204.320 C 181.999 204.975,183.082 207.103,184.057 208.354 C 184.465 208.879,184.800 209.114,184.800 208.878 C 184.800 208.641,184.602 208.325,184.359 208.175 C 184.116 208.025,183.488 206.979,182.963 205.851 C 182.438 204.723,182.006 204.034,182.004 204.320 M170.723 207.009 C 169.691 207.994,168.979 208.800,169.140 208.800 C 169.301 208.800,170.228 207.990,171.200 207.000 C 173.477 204.680,173.158 204.686,170.723 207.009 M261.667 207.580 C 261.433 208.251,261.327 208.800,261.431 208.800 C 261.701 208.800,262.456 206.722,262.257 206.524 C 262.167 206.433,261.901 206.908,261.667 207.580 M203.402 211.141 C 204.283 211.550,205.453 212.000,206.002 212.142 C 206.551 212.285,206.279 212.067,205.398 211.659 C 204.517 211.250,203.347 210.800,202.798 210.658 C 202.249 210.515,202.521 210.733,203.402 211.141 M153.600 212.000 C 154.968 212.438,156.019 212.438,155.000 212.000 C 154.560 211.811,153.840 211.662,153.400 211.668 C 152.757 211.677,152.796 211.743,153.600 212.000 M161.000 212.000 C 159.981 212.438,161.032 212.438,162.400 212.000 C 163.204 211.743,163.243 211.677,162.600 211.668 C 162.160 211.662,161.440 211.811,161.000 212.000 M210.000 213.766 C 210.550 214.060,211.450 214.412,212.000 214.549 C 212.550 214.686,212.280 214.452,211.400 214.029 C 209.590 213.158,208.468 212.948,210.000 213.766 M122.493 225.200 C 122.493 225.970,122.575 226.285,122.676 225.900 C 122.776 225.515,122.776 224.885,122.676 224.500 C 122.575 224.115,122.493 224.430,122.493 225.200 M192.034 227.753 L 191.069 229.000 192.213 227.912 C 192.843 227.314,193.277 226.753,193.179 226.665 C 193.080 226.577,192.565 227.067,192.034 227.753 M142.500 229.500 C 151.025 229.560,164.975 229.560,173.500 229.500 C 182.025 229.440,175.050 229.390,158.000 229.390 C 140.950 229.390,133.975 229.440,142.500 229.500 M90.234 271.998 L 80.668 281.587 99.557 300.467 L 118.446 319.347 128.023 309.777 C 133.290 304.513,137.600 300.067,137.600 299.897 C 137.600 299.490,100.510 262.399,100.109 262.405 C 99.939 262.407,95.495 266.724,90.234 271.998 M9.384 273.300 C 9.279 273.575,9.240 288.020,9.297 305.400 L 9.400 337.000 33.000 337.000 L 56.600 337.000 56.702 305.422 C 56.759 288.055,56.669 273.709,56.502 273.542 C 56.336 273.376,56.247 287.541,56.305 305.020 L 56.409 336.800 33.005 336.800 L 9.600 336.800 9.600 305.010 L 9.600 273.220 15.900 273.099 L 22.200 272.978 15.887 272.889 C 11.139 272.822,9.528 272.924,9.384 273.300 M343.384 273.700 C 343.279 273.975,343.240 288.240,343.297 305.400 L 343.400 336.600 343.600 304.900 C 343.710 287.465,343.749 273.200,343.687 273.200 C 343.626 273.200,343.489 273.425,343.384 273.700 M384.200 273.494 L 390.400 273.620 390.400 305.207 L 390.400 336.794 366.900 336.902 L 343.400 337.010 367.000 337.005 L 390.600 337.000 390.600 305.200 L 390.600 273.400 384.300 273.384 L 377.999 273.369 384.200 273.494 M9.443 343.833 C 9.080 344.778,9.149 390.322,9.514 390.547 C 9.687 390.654,20.397 390.636,33.314 390.507 L 56.800 390.274 56.800 367.217 C 56.800 349.817,56.682 344.042,56.320 343.680 C 55.492 342.852,9.762 343.001,9.443 343.833 M63.300 343.465 C 62.737 343.692,62.540 390.192,63.100 390.538 C 63.265 390.640,63.400 380.166,63.400 367.262 L 63.400 343.800 95.062 343.800 C 112.476 343.800,126.640 343.665,126.538 343.500 C 126.335 343.172,64.112 343.137,63.300 343.465 M133.297 343.532 C 132.476 344.053,132.775 390.472,133.600 390.697 C 134.048 390.819,134.072 390.770,133.697 390.505 C 133.300 390.224,133.215 385.234,133.297 366.974 L 133.400 343.800 165.000 343.596 L 196.600 343.393 165.200 343.302 C 147.930 343.253,133.574 343.356,133.297 343.532 M219.070 343.500 C 227.689 343.560,241.909 343.560,250.670 343.500 C 259.432 343.440,252.380 343.391,235.000 343.390 C 217.620 343.390,210.452 343.440,219.070 343.500 M273.462 343.500 C 273.294 343.772,296.226 343.769,325.400 343.493 C 331.560 343.435,322.436 343.345,305.124 343.294 C 287.812 343.242,273.564 343.335,273.462 343.500 M343.680 343.680 C 343.318 344.042,343.200 349.831,343.200 367.280 L 343.200 390.400 366.800 390.400 L 390.400 390.400 390.400 367.064 L 390.400 343.728 381.100 343.465 C 365.128 343.013,344.227 343.133,343.680 343.680 M266.897 366.867 C 266.821 385.193,266.690 390.378,266.300 390.535 C 265.908 390.693,265.911 390.744,266.313 390.768 C 267.194 390.823,267.210 390.338,267.101 366.600 L 266.993 343.400 266.897 366.867 M336.800 367.080 C 336.690 380.104,336.736 390.624,336.903 390.457 C 337.070 390.290,337.160 379.634,337.103 366.777 L 337.000 343.400 336.800 367.080 M196.800 367.280 C 196.690 380.194,196.736 390.624,196.903 390.457 C 197.070 390.290,197.160 379.724,197.103 366.977 L 197.000 343.800 196.800 367.280 " stroke="none" fill="#5870b0" fill-rule="evenodd"></path><path id="path3" d="M63.385 63.699 C 63.281 63.975,63.241 125.490,63.298 200.400 L 63.400 336.600 200.101 336.701 L 336.801 336.801 336.701 200.101 L 336.600 63.400 200.088 63.299 C 91.087 63.219,63.537 63.300,63.385 63.699 M305.292 94.695 C 326.800 116.191,327.600 117.044,327.600 118.483 C 327.600 119.908,327.030 120.546,315.017 132.568 C 301.250 146.343,300.937 146.616,299.303 146.222 C 296.896 145.642,254.000 102.059,254.000 100.193 C 254.000 97.865,279.293 72.400,281.606 72.400 C 282.893 72.400,284.453 73.869,305.292 94.695 M219.858 134.039 C 220.486 134.292,221.360 134.648,221.800 134.828 C 223.064 135.348,225.963 136.497,235.400 140.221 C 240.240 142.131,244.740 143.927,245.400 144.214 C 246.060 144.500,248.940 145.664,251.800 146.800 C 254.660 147.936,257.540 149.102,258.200 149.391 C 258.860 149.679,263.360 151.478,268.200 153.388 C 281.886 158.790,283.759 160.457,283.719 167.200 C 283.703 169.931,273.446 197.501,269.373 205.761 C 269.058 206.400,268.800 207.077,268.800 207.266 C 268.800 207.454,268.462 208.372,268.049 209.304 C 267.636 210.237,265.546 215.357,263.405 220.681 C 259.180 231.188,258.283 232.621,254.800 234.429 C 252.288 235.733,247.399 235.759,244.825 234.481 C 243.849 233.996,242.902 233.600,242.721 233.600 C 242.539 233.600,241.628 233.246,240.696 232.813 C 239.763 232.381,234.860 230.387,229.800 228.383 C 224.740 226.379,219.970 224.465,219.200 224.129 C 217.391 223.340,216.937 223.158,212.400 221.403 C 210.310 220.594,208.060 219.697,207.400 219.409 C 205.085 218.401,200.788 216.800,200.396 216.800 C 200.159 216.800,199.998 218.603,199.994 221.300 C 199.984 228.738,198.144 232.413,193.285 234.701 C 191.037 235.759,127.009 235.992,123.708 234.954 C 121.066 234.123,118.399 231.828,117.148 229.308 L 116.200 227.400 116.200 193.600 L 116.200 159.800 117.103 158.111 C 118.328 155.818,120.552 153.672,122.764 152.649 C 124.589 151.805,124.800 151.800,158.000 151.800 L 191.400 151.800 193.692 152.925 C 194.952 153.544,196.499 154.677,197.130 155.441 C 198.598 157.223,198.371 157.567,202.400 147.449 C 204.251 142.801,206.282 138.367,206.981 137.449 C 209.758 133.804,215.501 132.283,219.858 134.039 M123.863 276.100 C 146.188 298.465,146.732 299.075,146.024 300.936 C 145.088 303.400,120.088 327.600,118.480 327.600 C 116.251 327.600,72.400 283.831,72.400 281.606 C 72.400 279.293,97.865 254.000,100.193 254.000 C 101.787 254.000,102.019 254.217,123.863 276.100 " stroke="none" fill="#fcc44c" fill-rule="evenodd"></path><path id="path4" d="M63.280 63.280 C 62.581 63.979,62.581 336.021,63.280 336.720 C 63.652 337.092,94.498 337.178,200.180 337.101 L 336.600 337.002 200.000 336.801 L 63.400 336.600 63.400 200.000 L 63.400 63.400 200.000 63.400 L 336.600 63.400 336.801 200.000 L 337.002 336.600 337.101 200.180 C 337.178 94.498,337.092 63.652,336.720 63.280 C 336.021 62.581,63.979 62.581,63.280 63.280 M280.900 72.676 C 281.285 72.776,281.915 72.776,282.300 72.676 C 282.685 72.575,282.370 72.493,281.600 72.493 C 280.830 72.493,280.515 72.575,280.900 72.676 M276.000 123.800 C 288.209 136.010,298.287 146.000,298.397 146.000 C 298.507 146.000,288.609 136.010,276.400 123.800 C 264.191 111.590,254.113 101.600,254.003 101.600 C 253.893 101.600,263.791 111.590,276.000 123.800 M214.700 133.482 C 215.195 133.578,216.005 133.578,216.500 133.482 C 216.995 133.387,216.590 133.309,215.600 133.309 C 214.610 133.309,214.205 133.387,214.700 133.482 M207.775 136.500 L 206.600 137.800 207.900 136.625 C 208.615 135.979,209.200 135.394,209.200 135.325 C 209.200 135.016,208.870 135.288,207.775 136.500 M141.700 151.900 C 150.665 151.960,165.335 151.960,174.300 151.900 C 183.265 151.840,175.930 151.791,158.000 151.791 C 140.070 151.791,132.735 151.840,141.700 151.900 M116.191 193.600 C 116.191 211.090,116.240 218.245,116.300 209.500 C 116.360 200.755,116.360 186.445,116.300 177.700 C 116.240 168.955,116.191 176.110,116.191 193.600 M122.590 193.400 C 122.590 210.340,122.640 217.212,122.700 208.670 C 122.760 200.129,122.760 186.269,122.700 177.870 C 122.640 169.472,122.590 176.460,122.590 193.400 M283.693 167.200 C 283.693 167.970,283.775 168.285,283.876 167.900 C 283.976 167.515,283.976 166.885,283.876 166.500 C 283.775 166.115,283.693 166.430,283.693 167.200 M154.200 181.675 C 143.566 185.672,142.588 199.876,152.600 204.892 C 164.875 211.040,176.613 194.654,166.865 184.979 C 163.634 181.772,157.911 180.279,154.200 181.675 M119.200 232.200 C 119.946 232.970,120.647 233.600,120.757 233.600 C 120.867 233.600,120.346 232.970,119.600 232.200 C 118.854 231.430,118.153 230.800,118.043 230.800 C 117.933 230.800,118.454 231.430,119.200 232.200 M196.378 232.300 L 195.000 233.800 196.500 232.422 C 197.896 231.138,198.184 230.800,197.878 230.800 C 197.812 230.800,197.137 231.475,196.378 232.300 M141.270 235.500 C 150.219 235.560,164.979 235.560,174.070 235.500 C 183.162 235.440,175.840 235.391,157.800 235.391 C 139.760 235.391,132.322 235.440,141.270 235.500 M248.905 235.487 C 249.514 235.579,250.414 235.577,250.905 235.482 C 251.397 235.387,250.900 235.311,249.800 235.314 C 248.700 235.317,248.297 235.395,248.905 235.487 M123.600 276.200 C 135.809 288.410,145.887 298.400,145.997 298.400 C 146.107 298.400,136.209 288.410,124.000 276.200 C 111.791 263.990,101.713 254.000,101.603 254.000 C 101.493 254.000,111.391 263.990,123.600 276.200 M79.070 390.700 C 87.689 390.760,101.909 390.760,110.670 390.700 C 119.432 390.640,112.380 390.591,95.000 390.590 C 77.620 390.590,70.452 390.640,79.070 390.700 M149.500 390.700 C 158.135 390.760,172.265 390.760,180.900 390.700 C 189.535 390.640,182.470 390.590,165.200 390.590 C 147.930 390.590,140.865 390.640,149.500 390.700 M219.100 390.700 C 227.735 390.760,241.865 390.760,250.500 390.700 C 259.135 390.640,252.070 390.590,234.800 390.590 C 217.530 390.590,210.465 390.640,219.100 390.700 M289.500 390.700 C 298.135 390.760,312.265 390.760,320.900 390.700 C 329.535 390.640,322.470 390.590,305.200 390.590 C 287.930 390.590,280.865 390.640,289.500 390.700 " stroke="none" fill="#fa4394" fill-rule="evenodd"></path></g></svg>