<svg id="svg" version="1.1" xmlns="http://www.w3.org/2000/svg" xmlns:xlink="http://www.w3.org/1999/xlink" width="400" height="400" viewBox="0, 0, 400,400"><g id="svgg"><path id="path0" d="M320.600 10.921 C 307.592 17.748,297.674 28.277,290.958 42.389 C 288.705 47.124,288.700 47.136,287.208 51.200 C 286.370 53.483,286.608 53.612,282.223 48.509 C 275.809 41.046,268.411 34.522,260.256 29.139 C 256.322 26.542,255.100 26.118,257.261 28.100 C 270.359 40.110,283.831 62.806,287.652 79.300 C 287.844 80.125,288.191 81.565,288.425 82.500 C 288.844 84.177,289.183 85.891,290.026 90.600 C 290.263 91.920,290.551 96.420,290.668 100.600 C 290.878 108.173,290.837 108.631,289.360 115.026 C 289.052 116.360,288.800 117.596,288.800 117.774 C 288.800 118.927,302.202 116.160,307.100 113.996 L 308.800 113.245 308.800 110.022 C 308.800 107.863,308.648 106.800,308.341 106.800 C 308.013 106.800,307.945 105.797,308.102 103.300 C 308.224 101.375,308.236 100.025,308.128 100.300 C 307.736 101.306,307.200 100.762,307.200 99.357 C 307.200 98.301,307.347 97.971,307.747 98.124 C 308.185 98.292,308.207 98.151,307.859 97.413 C 307.620 96.907,307.194 96.581,306.912 96.689 C 306.296 96.926,306.191 94.977,306.800 94.600 C 307.020 94.464,307.200 94.663,307.200 95.043 C 307.200 95.423,307.320 95.613,307.467 95.466 C 307.835 95.098,306.763 93.176,306.337 93.439 C 305.657 93.859,305.464 92.289,306.135 91.798 C 306.501 91.531,306.800 91.173,306.800 91.003 C 306.800 90.833,307.167 90.376,307.615 89.987 C 308.064 89.598,308.509 88.870,308.606 88.369 C 308.702 87.868,309.010 87.313,309.291 87.136 C 309.689 86.883,309.678 86.811,309.239 86.806 C 308.862 86.802,308.960 86.555,309.539 86.053 C 310.012 85.642,310.400 85.102,310.400 84.853 C 310.400 84.604,310.591 84.400,310.824 84.400 C 311.057 84.400,311.144 84.232,311.017 84.028 C 310.891 83.823,310.958 83.549,311.168 83.420 C 311.731 83.072,312.800 80.791,312.800 79.939 C 312.800 79.532,312.980 79.200,313.200 79.200 C 313.420 79.200,313.600 78.750,313.600 78.200 C 313.600 77.650,313.780 77.200,314.000 77.200 C 314.220 77.200,314.400 76.930,314.400 76.600 C 314.400 76.270,314.580 76.000,314.800 76.000 C 315.020 76.000,315.200 75.359,315.200 74.576 C 315.200 73.729,315.362 73.253,315.600 73.400 C 315.827 73.540,316.000 73.204,316.000 72.624 C 316.000 72.061,316.180 71.600,316.400 71.600 C 316.620 71.600,316.800 71.060,316.800 70.400 C 316.800 69.740,316.980 69.200,317.200 69.200 C 317.420 69.200,317.600 68.660,317.600 68.000 C 317.600 67.340,317.780 66.800,318.000 66.800 C 318.220 66.800,318.379 66.665,318.353 66.500 C 318.183 65.428,318.463 63.992,318.800 64.200 C 319.042 64.349,319.200 63.804,319.200 62.824 C 319.200 61.931,319.361 61.200,319.558 61.200 C 319.755 61.200,320.018 60.525,320.143 59.700 C 320.673 56.191,320.908 55.180,321.244 54.973 C 321.440 54.852,321.600 53.964,321.600 53.000 C 321.600 52.036,321.770 51.142,321.977 51.014 C 322.184 50.886,322.347 49.880,322.339 48.778 C 322.330 47.676,322.542 46.510,322.810 46.187 C 323.195 45.724,323.193 45.600,322.800 45.600 C 322.440 45.600,322.420 45.458,322.728 45.087 C 322.962 44.804,323.193 43.679,323.240 42.587 C 323.287 41.494,323.454 40.420,323.612 40.200 C 323.769 39.980,324.025 38.450,324.180 36.800 C 324.336 35.150,324.537 33.080,324.627 32.200 C 324.999 28.587,325.296 10.833,324.996 10.144 C 324.818 9.735,324.702 9.265,324.736 9.100 C 324.824 8.686,325.041 8.591,320.600 10.921 M75.600 16.200 C 75.600 21.067,75.474 22.800,75.120 22.800 C 74.747 22.800,74.747 22.907,75.120 23.280 C 75.384 23.544,75.600 24.163,75.600 24.656 C 75.600 25.149,75.780 25.664,76.000 25.800 C 76.520 26.122,76.528 32.800,76.009 32.800 C 75.770 32.800,75.796 33.192,76.073 33.800 C 76.323 34.350,76.706 34.800,76.922 34.800 C 77.165 34.800,77.229 35.937,77.091 37.770 C 76.913 40.116,76.985 40.786,77.433 40.957 C 78.320 41.298,78.201 44.391,77.300 44.432 C 76.882 44.450,76.801 44.544,77.100 44.665 C 77.375 44.776,77.600 45.102,77.600 45.391 C 77.600 45.679,77.870 46.018,78.200 46.145 C 78.995 46.450,78.995 48.750,78.200 49.055 C 77.727 49.237,77.818 49.457,78.637 50.101 C 79.555 50.823,79.645 51.109,79.420 52.609 C 79.217 53.960,79.297 54.352,79.818 54.552 C 80.339 54.752,80.415 55.125,80.198 56.413 C 79.988 57.654,80.049 57.999,80.463 57.912 C 80.840 57.834,80.980 58.211,80.932 59.180 C 80.889 60.065,81.104 60.737,81.532 61.055 C 82.070 61.455,82.110 61.699,81.737 62.311 C 81.282 63.058,81.545 64.005,82.245 64.134 C 82.440 64.170,82.554 64.695,82.498 65.300 C 82.443 65.905,82.578 66.400,82.798 66.400 C 83.019 66.400,83.200 66.940,83.200 67.600 C 83.200 68.260,83.380 68.800,83.600 68.800 C 83.820 68.800,84.000 69.340,84.000 70.000 C 84.000 70.660,84.180 71.200,84.400 71.200 C 84.620 71.200,84.800 71.650,84.800 72.200 C 84.800 72.750,84.980 73.200,85.200 73.200 C 85.779 73.200,85.693 74.696,85.100 74.935 C 84.825 75.046,85.005 75.151,85.500 75.168 C 86.185 75.192,86.400 75.439,86.400 76.200 C 86.400 76.750,86.580 77.200,86.800 77.200 C 87.020 77.200,87.200 77.549,87.200 77.976 C 87.200 78.403,87.380 78.864,87.600 79.000 C 87.820 79.136,88.000 79.597,88.000 80.024 C 88.000 80.451,88.180 80.800,88.400 80.800 C 88.620 80.800,88.800 81.160,88.800 81.600 C 88.800 82.040,88.980 82.400,89.200 82.400 C 89.420 82.400,89.600 82.670,89.600 83.000 C 89.600 83.330,89.780 83.600,90.000 83.600 C 90.220 83.600,90.400 83.960,90.400 84.400 C 90.400 84.840,90.580 85.200,90.800 85.200 C 91.020 85.200,91.200 85.571,91.200 86.024 C 91.200 86.544,91.030 86.742,90.738 86.562 C 90.450 86.384,90.385 86.452,90.566 86.745 C 90.725 87.002,91.024 87.109,91.231 86.981 C 91.713 86.683,92.800 87.762,92.800 88.538 C 92.800 88.865,93.025 89.225,93.300 89.336 C 93.678 89.490,93.657 89.639,93.212 89.948 C 92.395 90.515,92.791 90.769,94.100 90.518 C 94.742 90.395,95.200 90.046,95.200 89.680 C 95.200 89.093,96.437 85.187,97.189 83.400 C 97.374 82.960,97.827 81.790,98.196 80.800 C 100.538 74.508,107.731 60.559,108.887 60.067 C 109.059 59.993,109.201 59.723,109.203 59.467 C 109.204 59.210,110.098 57.830,111.188 56.400 C 113.167 53.805,113.598 52.372,112.847 50.895 C 112.652 50.513,112.316 49.750,112.100 49.200 C 105.200 31.650,94.416 18.956,79.866 11.258 C 75.317 8.852,75.600 8.524,75.600 16.200 M248.955 67.562 C 246.373 69.137,246.000 70.170,246.000 75.755 L 246.000 80.786 247.700 82.547 C 253.585 88.645,261.061 80.998,258.286 71.721 C 257.010 67.457,252.457 65.427,248.955 67.562 M254.076 68.100 C 255.573 68.966,256.800 70.124,256.800 70.672 C 256.800 70.962,256.980 71.200,257.200 71.200 C 257.442 71.200,257.600 72.933,257.600 75.600 C 257.600 78.267,257.442 80.000,257.200 80.000 C 256.980 80.000,256.800 80.317,256.800 80.705 C 256.800 81.562,255.089 82.923,253.652 83.209 C 250.911 83.753,247.211 81.983,247.204 80.124 C 247.202 79.642,247.020 79.136,246.800 79.000 C 246.306 78.695,246.268 73.049,246.753 72.095 C 246.948 71.713,247.326 70.927,247.595 70.348 C 248.557 68.277,252.198 67.014,254.076 68.100 M193.000 97.195 C 177.276 98.852,173.435 110.469,184.718 122.244 C 190.566 128.347,202.692 131.983,206.100 128.654 C 206.375 128.386,207.230 127.916,208.000 127.610 C 217.194 123.954,223.848 112.271,221.104 104.600 C 219.001 98.719,207.440 95.673,193.000 97.195 M193.800 259.243 C 193.140 259.452,191.970 259.824,191.200 260.069 C 183.216 262.607,176.479 269.057,173.309 277.200 C 173.095 277.750,172.672 278.830,172.369 279.600 C 171.916 280.753,171.797 289.116,171.694 326.956 L 171.568 372.911 172.592 374.389 C 173.156 375.202,173.937 376.212,174.328 376.634 C 176.657 379.144,180.118 385.493,181.179 389.200 C 181.462 390.190,181.852 391.522,182.047 392.160 C 182.241 392.798,182.400 393.834,182.400 394.464 L 182.400 395.608 200.054 395.504 L 217.709 395.400 218.591 391.800 C 219.891 386.492,223.378 378.800,224.485 378.800 C 224.658 378.800,224.802 378.575,224.804 378.300 C 224.806 378.025,225.706 376.857,226.804 375.705 L 228.800 373.610 228.800 328.905 C 228.800 278.604,228.938 281.179,225.890 274.800 C 222.909 268.562,217.094 263.037,211.200 260.841 C 210.430 260.554,209.440 260.172,209.000 259.993 C 206.135 258.825,196.605 258.355,193.800 259.243 " stroke="none" fill="#c67c63" fill-rule="evenodd"></path><path id="path1" d="M83.100 0.256 C 82.495 0.365,82.000 0.621,82.000 0.827 C 82.000 1.032,81.730 1.200,81.400 1.200 C 81.070 1.200,80.800 1.380,80.800 1.600 C 80.800 1.820,80.618 2.000,80.397 2.000 C 79.813 2.000,77.600 4.050,77.600 4.591 C 77.600 4.843,77.231 5.445,76.780 5.930 C 76.328 6.414,76.059 6.973,76.182 7.171 C 76.305 7.369,76.222 7.593,75.999 7.667 C 75.155 7.948,75.204 9.524,76.049 9.303 C 76.494 9.187,77.998 9.676,79.517 10.431 C 93.481 17.367,105.653 31.390,112.304 48.200 C 114.301 53.247,114.304 53.100,112.145 56.023 C 106.064 64.253,100.184 75.932,96.598 86.900 C 95.689 89.680,94.850 91.600,94.545 91.600 C 93.549 91.600,93.149 93.059,91.918 101.200 C 91.044 106.975,91.407 127.600,92.383 127.600 C 92.536 127.600,92.578 128.166,92.477 128.859 L 92.292 130.117 94.446 129.840 C 95.631 129.687,97.140 129.401,97.800 129.205 C 98.460 129.009,99.990 128.671,101.200 128.455 C 102.410 128.239,104.491 127.868,105.824 127.631 C 109.220 127.027,125.547 127.075,128.560 127.697 C 134.338 128.891,136.142 134.945,131.827 138.665 L 130.200 140.069 122.200 139.812 C 114.439 139.564,108.399 139.888,103.600 140.810 C 102.390 141.043,100.821 141.335,100.114 141.459 C 97.563 141.906,97.985 144.911,101.074 148.287 C 101.334 148.572,101.662 149.164,101.801 149.602 C 101.940 150.041,102.222 150.400,102.427 150.400 C 102.632 150.400,102.800 150.771,102.800 151.224 C 102.800 151.677,102.980 151.936,103.200 151.800 C 103.420 151.664,103.600 151.698,103.600 151.876 C 103.601 152.510,105.504 154.400,106.141 154.400 C 106.497 154.400,108.187 153.630,109.895 152.688 C 114.060 150.391,117.413 148.850,120.200 147.950 C 121.080 147.666,121.980 147.323,122.200 147.189 C 122.420 147.054,123.410 146.719,124.400 146.445 C 125.390 146.170,126.753 145.778,127.428 145.573 C 130.388 144.675,133.292 145.227,134.931 147.000 C 138.455 150.812,136.630 155.986,131.200 157.579 C 125.186 159.344,124.230 159.710,118.700 162.374 C 113.581 164.839,113.581 164.839,117.143 168.319 C 120.438 171.540,122.800 173.618,122.800 173.296 C 122.800 173.167,123.205 173.429,123.700 173.878 C 124.195 174.328,124.880 174.689,125.223 174.681 C 125.566 174.673,128.064 175.697,130.775 176.956 C 133.485 178.215,136.895 179.701,138.351 180.259 C 139.808 180.817,141.405 181.437,141.900 181.637 C 142.395 181.837,143.205 182.161,143.700 182.359 C 148.507 184.275,159.913 187.046,166.800 187.970 C 201.459 192.619,236.085 181.281,263.352 156.354 C 264.484 155.318,264.496 155.266,264.016 153.268 C 262.829 148.318,265.514 145.061,270.634 145.242 C 273.545 145.345,273.589 145.322,275.609 142.588 C 277.645 139.832,277.767 140.000,273.725 140.000 C 269.022 140.000,266.655 138.389,266.378 135.000 C 265.890 129.037,268.902 127.207,279.224 127.194 C 281.961 127.191,284.420 127.048,284.688 126.878 C 285.246 126.523,287.373 121.546,287.802 119.589 L 288.089 118.283 285.345 118.511 C 268.624 119.895,248.048 111.873,234.808 98.808 C 224.377 88.514,218.313 76.927,215.127 61.200 C 214.410 57.661,214.415 42.701,215.134 39.200 C 217.082 29.717,219.264 23.494,222.878 17.112 C 224.672 13.944,224.723 13.600,223.400 13.600 C 222.850 13.600,222.400 13.462,222.400 13.294 C 222.400 13.126,221.277 12.933,219.905 12.865 C 218.533 12.797,217.318 12.609,217.205 12.447 C 217.092 12.285,215.380 12.102,213.400 12.040 C 211.420 11.978,209.596 11.760,209.348 11.554 C 208.824 11.122,191.106 11.215,190.795 11.651 C 190.683 11.809,188.883 12.040,186.795 12.164 C 181.092 12.502,178.224 12.846,177.991 13.219 C 177.876 13.403,176.931 13.598,175.891 13.652 C 174.851 13.705,174.000 13.896,174.000 14.075 C 174.000 14.254,173.291 14.400,172.424 14.400 C 171.557 14.400,170.736 14.580,170.600 14.800 C 170.464 15.020,169.733 15.200,168.976 15.200 C 168.219 15.200,167.600 15.380,167.600 15.600 C 167.600 15.820,167.161 16.000,166.624 16.000 C 166.087 16.000,165.536 16.180,165.400 16.400 C 165.264 16.620,164.544 16.800,163.800 16.800 C 163.056 16.800,162.336 16.980,162.200 17.200 C 162.064 17.420,161.528 17.600,161.010 17.600 C 160.491 17.600,160.003 17.791,159.925 18.024 C 159.732 18.605,157.080 18.639,156.888 18.063 C 156.803 17.808,156.478 17.600,156.167 17.600 C 155.855 17.600,155.600 17.454,155.600 17.275 C 155.600 17.096,154.970 16.702,154.200 16.400 C 153.430 16.098,152.800 15.704,152.800 15.525 C 152.800 15.346,152.440 15.200,152.000 15.200 C 151.560 15.200,151.200 15.020,151.200 14.800 C 151.200 14.580,150.840 14.400,150.400 14.400 C 149.960 14.400,149.600 14.220,149.600 14.000 C 149.600 13.780,149.321 13.600,148.981 13.600 C 148.640 13.600,147.616 13.240,146.706 12.800 C 145.795 12.360,144.814 12.000,144.525 12.000 C 144.236 12.000,144.000 11.820,144.000 11.600 C 144.000 11.380,143.638 11.200,143.195 11.200 C 142.752 11.200,142.077 11.041,141.695 10.847 C 139.319 9.638,135.519 8.400,134.186 8.400 C 133.644 8.400,133.200 8.220,133.200 8.000 C 133.200 7.780,132.660 7.600,132.000 7.600 C 131.340 7.600,130.800 7.420,130.800 7.200 C 130.800 6.980,130.271 6.800,129.624 6.800 C 128.977 6.800,128.336 6.620,128.200 6.400 C 128.064 6.180,127.333 6.000,126.576 6.000 C 125.819 6.000,125.200 5.820,125.200 5.600 C 125.200 5.380,124.581 5.200,123.824 5.200 C 123.067 5.200,122.336 5.020,122.200 4.800 C 122.064 4.580,121.143 4.400,120.153 4.400 C 119.163 4.400,118.443 4.255,118.553 4.077 C 118.662 3.899,118.003 3.709,117.086 3.655 C 116.170 3.601,115.326 3.423,115.210 3.259 C 115.095 3.095,114.190 2.910,113.200 2.849 C 112.210 2.787,111.229 2.571,111.020 2.368 C 110.811 2.166,109.877 2.000,108.944 2.000 C 108.011 2.000,107.136 1.820,107.000 1.600 C 106.864 1.380,105.698 1.200,104.410 1.200 C 103.121 1.200,102.004 1.013,101.928 0.785 C 101.784 0.352,85.173 -0.115,83.100 0.256 M151.934 67.894 C 156.263 71.134,155.805 81.138,151.200 83.944 C 148.520 85.577,142.800 84.001,142.800 81.629 C 142.800 81.393,142.620 81.200,142.400 81.200 C 142.153 81.200,142.000 79.130,142.000 75.789 L 142.000 70.379 143.761 68.618 C 146.187 66.192,149.293 65.917,151.934 67.894 M208.800 96.785 C 216.985 97.832,220.928 100.755,222.349 106.832 C 222.771 108.639,222.224 113.110,221.490 113.843 C 221.331 114.003,221.200 114.440,221.200 114.815 C 221.200 118.240,212.332 126.879,207.100 128.551 C 205.919 128.929,206.075 138.515,207.300 140.812 C 212.622 150.790,230.400 147.717,230.400 136.819 C 230.400 130.957,238.302 128.047,241.520 132.724 C 243.430 135.501,243.492 138.185,241.768 143.484 C 239.640 150.027,232.928 156.487,226.300 158.373 C 225.475 158.608,224.202 158.980,223.472 159.200 C 221.829 159.695,214.934 159.726,213.360 159.247 C 212.722 159.052,211.390 158.653,210.400 158.360 C 207.927 157.628,204.606 155.853,202.109 153.928 L 200.018 152.316 198.236 153.884 C 183.542 166.819,157.806 156.444,157.564 137.487 C 157.442 127.915,168.360 127.663,169.991 137.200 C 171.647 146.876,183.819 150.495,190.953 143.431 C 193.516 140.893,193.600 140.608,193.600 134.441 L 193.600 128.872 191.700 127.914 C 188.795 126.450,187.973 125.918,186.261 124.400 C 175.930 115.239,174.963 102.848,184.256 98.733 C 189.732 96.308,199.193 95.557,208.800 96.785 M308.806 118.500 C 308.811 119.228,308.886 119.285,309.200 118.800 C 309.701 118.024,309.701 117.600,309.200 117.600 C 308.980 117.600,308.803 118.005,308.806 118.500 M125.495 175.727 C 125.174 175.987,124.338 177.055,123.636 178.100 C 122.935 179.145,122.190 180.000,121.981 180.000 C 121.771 180.000,121.600 180.320,121.600 180.712 C 121.600 181.103,121.240 181.683,120.800 182.000 C 120.360 182.317,120.000 182.814,120.000 183.105 C 120.000 183.396,119.640 184.020,119.200 184.492 C 118.760 184.964,118.400 185.587,118.400 185.875 C 118.400 186.164,118.220 186.400,118.000 186.400 C 117.780 186.400,117.600 186.760,117.600 187.200 C 117.600 187.640,117.420 188.000,117.200 188.000 C 116.980 188.000,116.800 188.360,116.800 188.800 C 116.800 189.240,116.620 189.600,116.400 189.600 C 116.180 189.600,116.000 189.960,116.000 190.400 C 116.000 190.840,115.865 191.201,115.700 191.203 C 115.371 191.207,114.405 193.108,114.391 193.780 C 114.386 194.011,114.030 194.650,113.600 195.200 C 113.170 195.750,112.814 196.605,112.809 197.100 C 112.804 197.595,112.620 198.000,112.400 198.000 C 112.180 198.000,112.043 198.135,112.095 198.300 C 112.180 198.569,111.735 199.900,110.791 202.200 C 110.379 203.202,109.891 205.126,109.755 206.278 C 109.698 206.762,109.466 207.504,109.239 207.928 C 109.012 208.351,108.900 209.081,108.990 209.549 C 109.080 210.017,108.984 210.400,108.777 210.400 C 108.570 210.400,108.400 211.109,108.400 211.976 C 108.400 212.843,108.220 213.664,108.000 213.800 C 107.780 213.936,107.600 214.836,107.600 215.800 C 107.600 216.764,107.420 217.664,107.200 217.800 C 106.980 217.936,106.800 219.207,106.800 220.624 C 106.800 222.041,106.629 223.200,106.421 223.200 C 106.190 223.200,106.030 228.158,106.011 235.829 C 105.991 244.351,106.114 248.377,106.390 248.206 C 106.656 248.042,106.800 249.016,106.800 250.976 C 106.800 252.725,106.969 254.000,107.200 254.000 C 107.420 254.000,107.600 254.900,107.600 256.000 C 107.600 257.100,107.780 258.000,108.000 258.000 C 108.220 258.000,108.400 258.709,108.400 259.576 C 108.400 260.443,108.583 261.266,108.807 261.404 C 109.030 261.542,109.116 261.812,108.998 262.003 C 108.880 262.194,109.044 262.497,109.362 262.675 C 109.715 262.874,110.980 267.053,112.608 273.400 C 114.074 279.120,115.813 285.870,116.471 288.400 C 117.128 290.930,117.815 293.630,117.996 294.400 C 118.177 295.170,118.777 297.510,119.330 299.600 C 119.883 301.690,121.617 308.440,123.183 314.600 C 124.750 320.760,126.204 326.160,126.415 326.600 C 126.626 327.040,127.258 329.200,127.818 331.400 C 129.269 337.098,132.111 348.512,133.594 354.600 C 134.291 357.460,135.020 360.430,135.213 361.200 C 136.142 364.902,136.174 364.635,134.735 365.172 C 120.942 370.321,110.386 382.790,109.929 394.474 C 109.894 395.356,109.636 396.165,109.356 396.272 C 108.661 396.539,109.324 398.241,110.505 399.227 C 111.305 399.894,112.173 399.975,118.700 399.987 L 126.000 400.000 126.000 395.061 C 126.000 389.633,126.404 388.210,128.324 386.868 C 130.892 385.074,133.994 385.493,135.979 387.901 L 137.200 389.382 137.200 394.691 L 137.200 400.000 144.600 400.000 L 152.000 400.000 152.000 395.160 C 152.000 388.250,153.338 385.991,157.535 385.819 C 159.478 385.739,160.327 384.567,159.234 383.474 C 158.995 383.235,158.800 382.734,158.800 382.361 C 158.800 381.337,155.464 375.234,153.805 373.224 C 150.593 369.330,144.979 364.800,143.366 364.800 C 143.055 364.800,142.800 364.620,142.800 364.400 C 142.800 363.401,152.922 364.297,156.979 365.655 C 159.422 366.473,164.430 368.718,164.800 369.161 C 164.910 369.292,165.900 370.025,167.000 370.788 C 168.100 371.552,169.360 372.507,169.800 372.911 C 170.667 373.708,170.979 341.769,171.142 235.331 L 171.200 197.662 169.900 197.275 C 169.185 197.063,167.520 196.574,166.200 196.189 C 159.840 194.334,149.210 189.765,142.188 185.869 C 139.084 184.146,129.701 177.899,128.400 176.689 C 127.061 175.444,126.198 175.158,125.495 175.727 M271.349 177.158 C 270.222 178.013,267.702 179.778,265.749 181.079 C 262.571 183.197,261.334 183.961,257.000 186.477 C 252.319 189.194,241.305 193.961,236.000 195.566 C 235.230 195.799,233.378 196.397,231.885 196.895 L 229.171 197.800 229.188 285.729 L 229.205 373.657 227.263 375.929 C 222.869 381.067,218.809 389.252,218.798 392.995 C 218.796 393.438,218.526 394.316,218.198 394.946 C 217.517 396.251,217.404 398.000,218.000 398.000 C 218.220 398.000,218.400 398.274,218.400 398.610 C 218.400 399.729,220.391 400.000,228.626 400.000 L 236.800 400.000 236.800 395.326 C 236.800 388.369,238.348 385.829,242.589 385.829 C 246.890 385.829,248.400 388.317,248.400 395.408 L 248.400 400.000 255.600 400.000 L 262.800 400.000 262.800 395.449 C 262.800 390.229,263.259 388.694,265.402 386.743 C 267.042 385.251,267.089 384.815,265.920 381.953 C 265.083 379.904,264.717 379.181,262.754 375.700 C 260.598 371.874,256.110 367.483,252.345 365.513 C 250.707 364.657,250.417 364.369,250.974 364.154 C 251.847 363.819,260.017 364.279,262.189 364.785 C 263.063 364.989,263.853 365.081,263.945 364.989 C 264.271 364.662,267.558 352.087,268.019 349.400 C 268.505 346.569,273.237 328.146,273.950 326.309 C 274.183 325.709,275.452 321.029,276.770 315.909 C 278.089 310.789,279.909 303.720,280.816 300.200 C 281.723 296.680,282.735 292.630,283.065 291.200 C 283.935 287.424,287.958 271.078,288.824 267.800 C 289.230 266.260,289.662 264.517,289.782 263.927 C 289.904 263.333,290.359 262.740,290.801 262.600 C 291.439 262.397,291.600 261.994,291.600 260.597 C 291.600 259.634,291.780 258.736,292.000 258.600 C 292.220 258.464,292.400 257.643,292.400 256.776 C 292.400 255.909,292.580 255.200,292.800 255.200 C 293.026 255.200,293.200 254.067,293.200 252.600 C 293.200 251.133,293.374 250.000,293.600 250.000 C 293.838 250.000,294.000 248.475,294.000 246.224 C 294.000 244.147,294.172 242.341,294.382 242.211 C 295.064 241.790,294.300 222.161,293.573 221.420 C 293.368 221.211,293.200 220.187,293.200 219.144 C 293.200 218.101,293.020 217.136,292.800 217.000 C 292.580 216.864,292.400 215.784,292.400 214.600 C 292.400 213.416,292.245 212.352,292.056 212.235 C 291.867 212.118,291.592 210.994,291.444 209.738 C 291.297 208.481,291.013 207.256,290.814 207.016 C 290.614 206.776,290.378 206.135,290.287 205.590 C 290.197 205.046,290.019 204.330,289.892 204.000 C 289.512 203.012,287.959 198.631,287.835 198.200 C 287.574 197.288,287.047 196.072,285.955 193.866 C 285.320 192.582,284.800 191.354,284.800 191.137 C 284.800 190.920,284.528 190.471,284.196 190.139 C 283.864 189.807,283.695 189.370,283.820 189.168 C 283.945 188.965,283.885 188.800,283.686 188.800 C 283.488 188.800,282.892 187.945,282.363 186.900 C 281.833 185.855,281.265 184.940,281.100 184.867 C 280.935 184.793,280.800 184.478,280.800 184.167 C 280.800 183.855,280.620 183.600,280.400 183.600 C 280.180 183.600,280.000 183.330,280.000 183.000 C 280.000 182.670,279.820 182.400,279.600 182.400 C 279.380 182.400,279.200 182.029,279.200 181.576 C 279.200 181.123,279.020 180.864,278.800 181.000 C 278.580 181.136,278.400 180.967,278.400 180.624 C 278.400 180.281,278.265 179.995,278.100 179.989 C 277.935 179.983,277.364 179.272,276.831 178.408 C 276.299 177.544,275.734 176.917,275.577 177.014 C 275.420 177.111,275.197 176.833,275.083 176.396 C 274.770 175.199,273.626 175.432,271.349 177.158 M324.800 210.008 C 324.800 210.154,324.035 210.495,323.100 210.766 C 320.762 211.443,319.200 212.137,319.200 212.498 C 319.200 212.664,318.948 212.800,318.641 212.800 C 317.877 212.800,312.000 218.597,312.000 219.350 C 312.000 219.683,311.620 220.220,311.157 220.545 C 310.693 220.870,310.434 221.332,310.582 221.571 C 310.730 221.810,310.559 222.118,310.202 222.254 C 309.846 222.391,309.644 222.737,309.753 223.022 C 309.863 223.308,309.698 223.753,309.387 224.011 C 309.076 224.269,308.706 225.092,308.566 225.840 C 308.426 226.588,308.151 227.200,307.955 227.200 C 307.760 227.200,307.600 227.729,307.600 228.376 C 307.600 229.023,307.420 229.664,307.200 229.800 C 306.980 229.936,306.800 231.027,306.800 232.224 C 306.800 233.421,306.620 234.400,306.400 234.400 C 306.160 234.400,306.000 235.992,306.000 238.376 C 306.000 240.596,306.177 242.462,306.400 242.600 C 306.620 242.736,306.800 243.748,306.800 244.850 C 306.800 245.951,306.973 247.175,307.184 247.569 C 307.395 247.964,307.611 248.930,307.664 249.717 C 307.717 250.504,307.879 251.074,308.025 250.984 C 308.171 250.894,308.400 251.738,308.533 252.861 C 308.666 253.983,309.026 255.286,309.335 255.756 C 309.643 256.227,310.023 257.192,310.178 257.901 C 310.334 258.611,310.628 259.294,310.831 259.419 C 311.034 259.545,311.200 260.072,311.200 260.590 C 311.200 261.109,311.388 261.596,311.618 261.673 C 311.848 261.749,312.066 262.214,312.103 262.706 C 312.140 263.198,312.312 263.600,312.485 263.600 C 312.658 263.600,312.800 264.050,312.800 264.600 C 312.800 265.150,312.980 265.600,313.200 265.600 C 313.420 265.600,313.600 265.949,313.600 266.376 C 313.600 266.803,313.780 267.264,314.000 267.400 C 314.220 267.536,314.400 268.177,314.400 268.824 C 314.400 269.471,314.580 270.000,314.800 270.000 C 315.020 270.000,315.200 270.619,315.200 271.376 C 315.200 272.133,315.380 272.864,315.600 273.000 C 315.832 273.143,316.000 275.337,316.000 278.224 C 316.000 281.275,315.845 283.200,315.600 283.200 C 315.380 283.200,315.200 283.819,315.200 284.576 C 315.200 285.333,315.020 286.064,314.800 286.200 C 314.580 286.336,314.400 286.876,314.400 287.400 C 314.400 287.924,314.220 288.464,314.000 288.600 C 313.780 288.736,313.600 289.197,313.600 289.624 C 313.600 290.051,313.420 290.400,313.200 290.400 C 312.153 290.400,312.959 292.541,314.900 294.917 C 322.198 303.850,323.728 305.766,326.115 308.959 C 326.949 310.073,327.878 311.124,328.181 311.293 C 328.819 311.650,330.088 311.267,329.802 310.803 C 329.696 310.632,330.237 309.805,331.004 308.967 C 331.772 308.129,332.400 307.198,332.400 306.898 C 332.400 306.598,332.580 306.464,332.800 306.600 C 333.020 306.736,333.200 306.665,333.200 306.441 C 333.200 306.218,333.740 305.119,334.400 304.000 C 335.060 302.881,335.600 301.602,335.600 301.159 C 335.600 300.715,335.761 300.452,335.957 300.573 C 336.153 300.695,336.552 299.985,336.844 298.997 C 337.136 298.009,337.515 297.200,337.687 297.200 C 337.859 297.200,338.000 296.696,338.000 296.080 C 338.000 295.464,338.167 294.789,338.371 294.580 C 338.575 294.371,338.816 293.660,338.908 293.000 C 338.999 292.340,339.164 291.530,339.276 291.200 C 340.069 288.852,340.258 287.945,340.357 286.000 C 340.419 284.790,340.597 283.620,340.754 283.400 C 341.167 282.820,340.930 273.452,340.425 270.400 C 340.188 268.970,339.882 267.035,339.743 266.100 C 339.605 265.165,339.375 264.400,339.233 264.400 C 339.091 264.400,338.934 263.913,338.885 263.318 C 338.836 262.722,338.616 262.056,338.398 261.838 C 338.179 261.619,338.000 260.936,338.000 260.320 C 338.000 259.704,337.820 259.200,337.600 259.200 C 337.380 259.200,337.200 258.851,337.200 258.424 C 337.200 257.997,337.020 257.536,336.800 257.400 C 336.580 257.264,336.400 256.713,336.400 256.176 C 336.400 255.639,336.220 255.200,336.000 255.200 C 335.780 255.200,335.600 254.928,335.600 254.595 C 335.600 254.262,335.392 253.587,335.138 253.095 C 334.126 251.138,334.000 250.774,334.000 249.805 C 334.000 249.252,333.820 248.800,333.600 248.800 C 333.380 248.800,333.200 248.440,333.200 248.000 C 333.200 247.560,333.020 247.200,332.800 247.200 C 332.580 247.200,332.400 246.660,332.400 246.000 C 332.400 245.340,332.220 244.800,332.000 244.800 C 331.780 244.800,331.600 244.170,331.600 243.400 C 331.600 242.630,331.420 242.000,331.200 242.000 C 330.589 242.000,330.726 236.331,331.357 235.500 C 331.661 235.100,332.416 234.800,333.120 234.800 C 333.798 234.800,334.464 234.620,334.600 234.400 C 334.736 234.180,335.161 234.000,335.544 234.000 C 336.419 234.000,338.393 233.101,338.397 232.700 C 338.399 232.535,338.588 232.400,338.818 232.400 C 339.048 232.400,339.686 231.950,340.236 231.400 C 340.786 230.850,341.111 230.400,340.957 230.400 C 340.803 230.400,341.065 230.064,341.539 229.653 C 342.012 229.242,342.400 228.612,342.400 228.253 C 342.400 227.894,342.580 227.600,342.800 227.600 C 343.020 227.600,343.200 227.060,343.200 226.400 C 343.200 225.740,343.364 225.200,343.565 225.200 C 343.951 225.200,343.850 221.374,343.389 218.502 C 343.239 217.568,342.955 216.904,342.758 217.026 C 342.561 217.148,342.400 216.967,342.400 216.624 C 342.400 216.281,342.220 216.000,342.000 216.000 C 341.780 216.000,341.600 215.730,341.600 215.400 C 341.600 215.070,341.240 214.440,340.800 214.000 C 340.360 213.560,340.114 213.200,340.254 213.200 C 340.529 213.200,338.355 211.422,338.010 211.365 C 337.894 211.346,337.440 211.185,337.000 211.006 C 336.560 210.828,335.572 210.430,334.805 210.122 C 333.382 209.550,324.800 209.452,324.800 210.008 M290.000 396.650 C 290.000 397.468,288.872 398.719,287.400 399.533 L 286.600 399.976 287.400 399.982 C 289.691 400.002,291.709 397.549,290.443 396.283 C 290.119 395.959,290.000 396.057,290.000 396.650 M181.209 397.376 C 180.995 397.939,180.230 398.759,179.510 399.198 L 178.200 399.997 179.319 399.999 C 180.474 400.000,182.400 398.354,182.400 397.365 C 182.400 396.358,181.593 396.366,181.209 397.376 " stroke="none" fill="#ebebc3" fill-rule="evenodd"></path><path id="path2" d="M301.200 0.282 C 299.770 0.370,298.429 0.613,298.220 0.821 C 298.011 1.030,296.886 1.200,295.720 1.200 C 294.554 1.200,293.600 1.380,293.600 1.600 C 293.600 1.820,292.621 2.000,291.424 2.000 C 290.227 2.000,289.136 2.180,289.000 2.400 C 288.864 2.620,287.863 2.800,286.776 2.800 C 285.689 2.800,284.800 2.980,284.800 3.200 C 284.800 3.420,284.091 3.600,283.224 3.600 C 282.357 3.600,281.536 3.780,281.400 4.000 C 281.264 4.220,280.443 4.400,279.576 4.400 C 278.709 4.400,278.000 4.580,278.000 4.800 C 278.000 5.020,277.280 5.200,276.400 5.200 C 275.520 5.200,274.800 5.380,274.800 5.600 C 274.800 5.820,274.260 6.000,273.600 6.000 C 272.940 6.000,272.400 6.180,272.400 6.400 C 272.400 6.620,271.680 6.800,270.800 6.800 C 269.920 6.800,269.200 6.980,269.200 7.200 C 269.200 7.420,268.660 7.600,268.000 7.600 C 267.340 7.600,266.800 7.780,266.800 8.000 C 266.800 8.220,266.290 8.400,265.667 8.400 C 265.043 8.400,264.408 8.525,264.255 8.678 C 264.102 8.831,263.702 8.997,263.366 9.046 C 262.462 9.179,258.632 10.556,258.400 10.831 C 258.290 10.962,257.345 11.318,256.300 11.622 C 255.255 11.926,254.400 12.315,254.400 12.487 C 254.400 12.659,254.040 12.800,253.600 12.800 C 253.160 12.800,252.800 12.980,252.800 13.200 C 252.800 13.420,252.440 13.600,252.000 13.600 C 251.560 13.600,251.200 13.741,251.200 13.913 C 251.200 14.085,250.390 14.465,249.400 14.757 C 248.410 15.049,247.600 15.448,247.600 15.644 C 247.600 15.840,247.330 16.000,247.000 16.000 C 246.670 16.000,246.399 16.135,246.397 16.300 C 246.393 16.659,244.456 17.600,243.720 17.600 C 243.434 17.600,243.200 17.780,243.200 18.000 C 243.200 18.521,240.522 18.521,240.200 18.000 C 240.064 17.780,239.333 17.600,238.576 17.600 C 237.819 17.600,237.200 17.420,237.200 17.200 C 237.200 16.980,236.855 16.800,236.433 16.800 C 236.012 16.800,235.605 16.614,235.529 16.387 C 235.453 16.160,234.520 15.957,233.456 15.936 C 232.216 15.911,231.714 15.774,232.060 15.555 C 232.424 15.324,232.176 15.210,231.300 15.206 C 230.585 15.203,230.000 15.020,230.000 14.800 C 230.000 14.580,228.875 14.382,227.500 14.360 C 225.642 14.330,225.257 14.238,226.000 14.000 C 226.977 13.687,226.972 13.679,225.800 13.660 C 224.652 13.641,224.489 13.869,222.039 18.920 C 218.089 27.066,217.084 30.076,215.137 39.600 C 214.420 43.105,214.420 57.295,215.137 60.800 C 216.949 69.663,218.143 73.394,221.216 79.800 C 223.990 85.583,227.835 91.397,231.267 95.000 C 232.106 95.880,232.793 96.721,232.796 96.869 C 232.807 97.550,241.049 104.397,245.002 107.008 C 252.141 111.725,260.748 115.420,267.800 116.796 C 269.120 117.054,271.010 117.449,272.000 117.675 C 273.808 118.088,290.810 118.554,289.500 118.155 C 288.659 117.898,288.665 118.035,289.360 115.026 C 290.837 108.631,290.878 108.173,290.668 100.600 C 290.551 96.420,290.263 91.920,290.026 90.600 C 289.183 85.891,288.844 84.177,288.425 82.500 C 288.191 81.565,287.844 80.125,287.652 79.300 C 283.831 62.806,270.359 40.110,257.261 28.100 C 255.100 26.118,256.322 26.542,260.256 29.139 C 268.411 34.522,275.809 41.046,282.223 48.509 C 286.486 53.469,286.390 53.419,287.234 51.124 C 288.710 47.115,288.714 47.105,290.958 42.389 C 297.662 28.303,307.928 17.423,320.721 10.845 C 323.392 9.472,324.156 9.231,324.621 9.618 C 325.031 9.957,325.200 9.967,325.200 9.649 C 325.200 9.402,325.026 9.200,324.813 9.200 C 324.599 9.200,324.528 8.932,324.653 8.605 C 325.019 7.652,321.042 2.000,320.006 2.000 C 319.783 2.000,319.599 1.865,319.597 1.700 C 319.583 0.403,310.555 -0.293,301.200 0.282 M254.987 67.424 C 257.502 68.735,258.783 71.569,258.794 75.840 C 258.813 83.633,252.457 87.476,247.700 82.547 L 246.000 80.786 246.000 75.755 C 246.000 68.141,249.731 64.683,254.987 67.424 M305.744 92.202 C 305.606 92.560,305.698 93.058,305.947 93.307 C 306.196 93.556,306.414 93.679,306.431 93.580 C 306.447 93.481,306.521 93.086,306.595 92.702 C 306.772 91.780,306.065 91.365,305.744 92.202 M306.685 94.649 C 306.265 95.069,306.339 96.800,306.776 96.800 C 306.983 96.800,307.254 96.637,307.377 96.437 C 307.682 95.944,307.042 94.291,306.685 94.649 M198.500 96.691 C 199.325 96.778,200.675 96.778,201.500 96.691 C 202.325 96.605,201.650 96.534,200.000 96.534 C 198.350 96.534,197.675 96.605,198.500 96.691 M192.707 97.090 C 193.426 97.179,194.506 97.177,195.107 97.086 C 195.708 96.995,195.120 96.922,193.800 96.924 C 192.480 96.926,191.988 97.001,192.707 97.090 M205.100 97.089 C 205.815 97.178,206.985 97.178,207.700 97.089 C 208.415 97.001,207.830 96.928,206.400 96.928 C 204.970 96.928,204.385 97.001,205.100 97.089 M307.200 99.400 C 307.200 100.170,307.377 100.800,307.592 100.800 C 308.088 100.800,308.563 98.987,308.214 98.423 C 307.686 97.569,307.200 98.037,307.200 99.400 M214.433 98.549 C 214.845 98.917,217.200 100.000,217.200 99.821 C 217.200 99.590,214.982 98.400,214.553 98.400 C 214.396 98.400,214.342 98.467,214.433 98.549 M183.300 99.498 C 182.585 99.854,182.000 100.286,182.000 100.459 C 182.000 100.632,182.630 100.401,183.400 99.947 C 185.465 98.729,185.403 98.451,183.300 99.498 M219.000 101.600 C 219.859 102.480,220.652 103.200,220.762 103.200 C 220.872 103.200,220.259 102.480,219.400 101.600 C 218.541 100.720,217.748 100.000,217.638 100.000 C 217.528 100.000,218.141 100.720,219.000 101.600 M308.000 104.400 C 308.000 105.733,308.178 106.800,308.400 106.800 C 308.622 106.800,308.800 105.733,308.800 104.400 C 308.800 103.067,308.622 102.000,308.400 102.000 C 308.178 102.000,308.000 103.067,308.000 104.400 M178.956 104.243 C 178.624 105.037,178.426 105.759,178.514 105.848 C 178.603 105.936,178.959 105.287,179.305 104.404 C 180.089 102.409,179.782 102.268,178.956 104.243 M221.030 104.200 C 221.187 104.640,221.447 105.720,221.608 106.600 L 221.900 108.200 221.936 106.800 C 221.956 106.030,221.696 104.950,221.358 104.400 C 220.961 103.753,220.845 103.682,221.030 104.200 M178.120 108.800 C 178.120 110.010,178.195 110.505,178.287 109.900 C 178.378 109.295,178.378 108.305,178.287 107.700 C 178.195 107.095,178.120 107.590,178.120 108.800 M308.800 111.180 C 308.800 112.644,308.617 113.267,308.100 113.568 C 307.715 113.792,307.580 113.975,307.800 113.975 C 308.905 113.974,309.600 112.847,309.600 111.056 C 309.600 110.035,309.420 109.200,309.200 109.200 C 308.980 109.200,308.800 110.091,308.800 111.180 M221.664 110.667 C 221.629 111.364,221.496 112.264,221.370 112.667 C 221.153 113.359,221.165 113.360,221.594 112.691 C 221.845 112.302,221.977 111.402,221.889 110.691 L 221.728 109.400 221.664 110.667 M178.644 112.600 C 178.973 114.071,179.202 114.390,179.194 113.367 C 179.191 112.945,179.005 112.330,178.782 112.000 C 178.485 111.562,178.448 111.724,178.644 112.600 M219.922 116.056 C 219.329 117.345,218.921 118.400,219.015 118.400 C 219.306 118.400,221.253 114.356,221.123 114.024 C 221.055 113.852,220.515 114.767,219.922 116.056 M180.400 116.935 C 180.400 117.471,182.645 120.548,183.653 121.394 C 184.498 122.102,184.488 122.059,183.556 120.994 C 182.982 120.337,182.037 119.083,181.456 118.207 C 180.875 117.331,180.400 116.759,180.400 116.935 M293.600 117.600 C 292.776 117.864,292.741 117.926,293.400 117.954 C 293.840 117.973,294.470 117.813,294.800 117.600 C 295.501 117.147,295.014 117.147,293.600 117.600 M215.825 121.919 C 213.501 124.499,213.393 124.675,215.157 123.000 C 216.969 121.280,219.121 118.760,218.727 118.819 C 218.657 118.830,217.351 120.225,215.825 121.919 M187.869 125.232 C 188.366 125.833,190.800 127.364,190.800 127.076 C 190.800 126.983,190.035 126.402,189.100 125.785 C 188.165 125.168,187.611 124.920,187.869 125.232 " stroke="none" fill="#f9aa5c" fill-rule="evenodd"></path><path id="path3" d="M75.253 24.800 C 75.210 26.289,75.765 27.568,76.246 27.088 C 76.404 26.929,76.334 26.394,76.088 25.899 C 75.842 25.405,75.563 24.640,75.467 24.200 C 75.371 23.760,75.275 24.030,75.253 24.800 M76.254 35.398 C 76.381 35.726,76.645 35.896,76.842 35.774 C 77.407 35.425,77.260 34.800,76.613 34.800 C 76.256 34.800,76.115 35.035,76.254 35.398 M77.600 46.500 C 77.600 46.812,77.875 47.067,78.211 47.067 C 78.903 47.067,78.800 46.333,78.075 46.092 C 77.814 46.005,77.600 46.188,77.600 46.500 M78.501 50.915 C 78.452 51.565,78.525 51.645,78.784 51.225 C 79.042 50.808,79.179 50.965,79.307 51.830 C 79.473 52.955,79.482 52.959,79.540 51.949 C 79.616 50.618,78.600 49.607,78.501 50.915 M79.454 54.670 C 79.703 54.851,80.007 55.360,80.128 55.800 C 80.301 56.431,80.332 56.395,80.274 55.631 C 80.233 55.099,79.930 54.590,79.600 54.501 C 79.204 54.394,79.154 54.451,79.454 54.670 M80.183 58.027 C 79.985 58.347,80.041 58.422,80.338 58.238 C 80.633 58.056,80.817 58.287,80.846 58.876 C 80.884 59.619,80.930 59.655,81.084 59.058 C 81.323 58.128,80.619 57.322,80.183 58.027 M80.800 61.190 C 80.800 61.442,80.966 61.544,81.170 61.419 C 81.373 61.293,81.625 61.466,81.729 61.803 C 81.876 62.277,81.905 62.263,81.859 61.741 C 81.793 60.988,80.800 60.471,80.800 61.190 M146.600 67.070 C 140.897 68.577,139.916 80.904,145.281 83.641 C 150.520 86.314,154.200 83.109,154.200 75.874 C 154.200 68.943,151.472 65.783,146.600 67.070 M249.542 68.484 C 248.740 68.931,247.864 69.770,247.595 70.348 C 247.326 70.927,246.948 71.713,246.753 72.095 C 246.268 73.049,246.306 78.695,246.800 79.000 C 247.020 79.136,247.202 79.642,247.204 80.124 C 247.211 81.983,250.911 83.753,253.652 83.209 C 255.089 82.923,256.800 81.562,256.800 80.705 C 256.800 80.317,256.980 80.000,257.200 80.000 C 257.442 80.000,257.600 78.267,257.600 75.600 C 257.600 72.933,257.442 71.200,257.200 71.200 C 256.980 71.200,256.800 70.962,256.800 70.672 C 256.800 70.382,256.382 69.797,255.870 69.372 C 253.457 67.368,251.928 67.153,249.542 68.484 M279.600 127.613 C 269.216 128.099,267.251 128.972,266.895 133.255 C 266.454 138.576,268.346 139.697,277.213 139.372 C 284.184 139.117,291.054 139.577,296.600 140.672 C 298.360 141.019,300.385 141.390,301.100 141.495 C 301.815 141.601,302.400 141.848,302.400 142.044 C 302.400 142.240,302.670 142.400,303.000 142.400 C 303.330 142.400,303.600 142.580,303.600 142.800 C 303.600 143.020,304.129 143.200,304.776 143.200 C 305.423 143.200,306.064 143.380,306.200 143.600 C 306.336 143.820,306.887 144.000,307.424 144.000 C 307.961 144.000,308.400 144.180,308.400 144.400 C 308.400 144.620,308.850 144.800,309.400 144.800 C 309.950 144.800,310.400 144.980,310.400 145.200 C 310.400 145.420,310.850 145.600,311.400 145.600 C 311.950 145.600,312.400 145.780,312.400 146.000 C 312.400 146.220,312.749 146.400,313.176 146.400 C 313.603 146.400,314.064 146.580,314.200 146.800 C 314.336 147.020,314.782 147.200,315.190 147.200 C 315.599 147.200,315.993 147.335,316.067 147.500 C 316.234 147.876,318.364 149.175,319.300 149.471 C 319.685 149.593,320.000 149.852,320.000 150.047 C 320.000 150.241,320.360 150.400,320.800 150.400 C 321.240 150.400,321.600 150.580,321.600 150.800 C 321.600 151.020,322.140 151.200,322.800 151.200 C 323.460 151.200,324.000 151.380,324.000 151.600 C 324.000 151.820,324.630 152.000,325.400 152.000 C 326.170 152.000,326.800 151.843,326.800 151.650 C 326.800 151.458,327.297 151.201,327.905 151.079 C 332.000 150.260,333.115 143.274,329.718 139.722 C 329.233 139.215,328.558 138.800,328.218 138.800 C 327.878 138.800,327.600 138.620,327.600 138.400 C 327.600 138.180,327.240 138.000,326.800 138.000 C 326.360 138.000,326.000 137.854,326.000 137.675 C 326.000 137.496,325.370 137.102,324.600 136.800 C 323.830 136.498,323.200 136.104,323.200 135.925 C 323.200 135.746,322.935 135.600,322.612 135.600 C 322.289 135.600,321.383 135.240,320.600 134.800 C 319.817 134.360,318.901 134.000,318.564 134.000 C 318.228 134.000,318.064 133.820,318.200 133.600 C 318.338 133.376,318.029 133.200,317.499 133.200 C 316.977 133.200,315.805 132.840,314.894 132.400 C 313.984 131.960,312.960 131.600,312.619 131.600 C 312.279 131.600,312.000 131.420,312.000 131.200 C 312.000 130.980,311.460 130.800,310.800 130.800 C 310.140 130.800,309.600 130.645,309.600 130.455 C 309.600 130.266,308.655 130.105,307.500 130.098 C 306.345 130.092,304.590 129.886,303.600 129.642 C 298.658 128.423,290.260 127.200,287.400 127.284 C 286.300 127.316,282.790 127.464,279.600 127.613 M107.200 128.048 C 105.990 128.243,103.740 128.606,102.200 128.855 C 100.660 129.105,98.218 129.612,96.774 129.983 C 94.909 130.462,93.894 130.544,93.270 130.266 C 92.249 129.810,89.138 130.606,86.305 132.047 C 85.923 132.241,85.248 132.400,84.805 132.400 C 84.362 132.400,84.000 132.580,84.000 132.800 C 84.000 133.020,83.651 133.200,83.224 133.200 C 82.797 133.200,82.336 133.380,82.200 133.600 C 82.064 133.820,81.603 134.000,81.176 134.000 C 80.749 134.000,80.400 134.136,80.400 134.302 C 80.400 134.469,79.860 134.829,79.200 135.102 C 78.540 135.376,77.460 135.824,76.800 136.098 C 76.140 136.371,75.600 136.731,75.600 136.898 C 75.600 137.064,75.240 137.200,74.800 137.200 C 74.360 137.200,74.000 137.380,74.000 137.600 C 74.000 137.820,73.775 138.000,73.500 138.000 C 73.225 138.001,72.482 138.447,71.848 138.992 C 71.214 139.537,70.539 139.886,70.348 139.768 C 70.157 139.650,70.000 139.799,70.000 140.101 C 70.000 140.402,69.640 141.036,69.200 141.508 C 66.821 144.062,69.617 151.200,72.997 151.200 C 73.548 151.200,74.000 151.383,74.000 151.606 C 74.000 151.830,74.540 151.972,75.200 151.921 C 75.860 151.871,76.400 151.688,76.400 151.515 C 76.400 151.342,76.724 151.200,77.120 151.200 C 78.014 151.200,79.993 150.306,79.997 149.900 C 79.999 149.735,80.360 149.600,80.800 149.600 C 81.240 149.600,81.601 149.465,81.603 149.300 C 81.607 148.941,83.544 148.000,84.280 148.000 C 84.566 148.000,84.800 147.820,84.800 147.600 C 84.800 147.380,85.160 147.200,85.600 147.200 C 86.040 147.200,86.400 147.020,86.400 146.800 C 86.400 146.580,86.760 146.400,87.200 146.400 C 87.640 146.400,88.000 146.220,88.000 146.000 C 88.000 145.780,88.450 145.600,89.000 145.600 C 89.550 145.600,90.000 145.420,90.000 145.200 C 90.000 144.980,90.360 144.800,90.800 144.800 C 91.240 144.800,91.600 144.620,91.600 144.400 C 91.600 144.180,92.140 144.000,92.800 144.000 C 93.460 144.000,94.000 143.820,94.000 143.600 C 94.000 143.380,94.605 143.200,95.345 143.200 C 96.221 143.200,97.024 142.871,97.645 142.259 C 98.170 141.741,99.050 141.223,99.600 141.108 C 105.394 139.895,107.330 139.598,112.000 139.203 C 115.916 138.872,118.609 138.864,121.800 139.173 C 129.234 139.893,129.782 139.832,131.667 138.074 C 134.396 135.529,134.222 131.216,131.313 129.304 C 129.025 127.800,113.713 127.002,107.200 128.048 M194.391 133.928 C 194.375 143.139,190.471 147.377,182.000 147.377 C 174.882 147.377,170.716 143.944,169.384 136.980 C 167.661 127.976,157.607 128.778,158.110 137.879 C 158.780 149.997,169.244 159.200,182.353 159.200 C 187.443 159.200,192.918 157.259,197.455 153.846 C 200.420 151.616,199.878 151.616,202.899 153.845 C 206.493 156.495,208.333 157.323,213.846 158.768 C 220.312 160.464,229.506 157.800,235.084 152.615 C 244.142 144.196,244.836 130.044,236.147 130.924 C 233.187 131.223,230.800 134.060,230.800 137.277 C 230.800 144.517,220.024 149.995,212.746 146.456 C 207.357 143.837,206.000 141.353,206.000 134.116 L 206.000 128.884 204.500 129.233 C 202.505 129.696,197.320 129.693,195.697 129.228 L 194.400 128.856 194.391 133.928 M125.600 146.587 C 120.662 148.078,114.425 150.666,110.636 152.796 C 108.676 153.898,106.723 154.800,106.296 154.800 C 105.306 154.800,102.800 155.979,102.800 156.446 C 102.800 156.641,102.530 156.800,102.200 156.800 C 101.870 156.800,101.600 156.980,101.600 157.200 C 101.600 157.420,101.412 157.600,101.182 157.600 C 100.952 157.600,100.314 158.050,99.764 158.600 C 99.214 159.150,98.585 159.600,98.366 159.600 C 97.430 159.600,87.200 170.419,87.200 171.409 C 87.200 171.954,87.020 172.400,86.800 172.400 C 86.580 172.400,86.400 173.210,86.400 174.200 C 86.400 175.190,86.558 176.000,86.750 176.000 C 86.942 176.000,87.205 176.526,87.334 177.169 C 87.583 178.415,89.006 180.000,89.875 180.000 C 90.164 180.000,90.400 180.180,90.400 180.400 C 90.400 180.631,91.667 180.800,93.400 180.800 C 95.050 180.800,96.400 180.650,96.400 180.468 C 96.400 180.285,96.850 179.894,97.399 179.600 C 97.949 179.306,98.325 178.991,98.234 178.901 C 98.038 178.704,102.128 174.667,105.165 172.059 C 106.356 171.036,107.759 169.795,108.283 169.300 C 108.807 168.805,109.458 168.400,109.730 168.400 C 110.001 168.400,110.483 168.040,110.800 167.600 C 111.117 167.160,111.620 166.800,111.917 166.800 C 112.540 166.800,113.129 166.240,114.098 164.725 C 114.541 164.033,116.178 162.983,118.693 161.780 C 123.918 159.280,125.729 158.594,130.948 157.142 C 135.254 155.944,137.273 152.027,135.389 148.527 C 133.774 145.528,130.957 144.970,125.600 146.587 M266.922 146.356 C 264.347 147.980,263.552 151.192,264.933 154.400 C 265.660 156.090,266.686 156.633,272.800 158.568 C 279.019 160.536,285.883 163.881,286.187 165.091 C 286.316 165.606,286.721 166.000,287.119 166.000 C 287.507 166.000,288.083 166.360,288.400 166.800 C 288.717 167.240,289.180 167.600,289.429 167.600 C 289.678 167.600,290.446 168.140,291.137 168.800 C 291.828 169.460,292.558 170.000,292.761 170.000 C 292.963 170.000,295.400 172.250,298.176 175.000 C 300.952 177.750,303.488 180.000,303.812 180.000 C 304.135 180.000,304.400 180.180,304.400 180.400 C 304.400 180.626,305.533 180.800,307.000 180.800 C 308.467 180.800,309.600 180.626,309.600 180.400 C 309.600 180.180,309.894 180.000,310.253 180.000 C 310.984 180.000,312.799 178.075,312.800 177.300 C 312.800 177.025,312.980 176.800,313.200 176.800 C 313.426 176.800,313.600 175.667,313.600 174.200 C 313.600 172.733,313.426 171.600,313.200 171.600 C 312.980 171.600,312.800 171.357,312.800 171.059 C 312.800 170.762,312.260 169.954,311.600 169.263 C 310.940 168.572,310.400 167.897,310.400 167.763 C 310.400 167.319,301.849 159.254,300.814 158.722 C 300.256 158.435,299.451 157.885,299.025 157.500 C 298.598 157.115,298.053 156.800,297.813 156.800 C 297.573 156.800,297.118 156.441,296.801 156.002 C 296.485 155.563,295.590 155.088,294.813 154.946 C 294.036 154.805,292.950 154.381,292.400 154.004 C 291.850 153.627,289.960 152.594,288.200 151.709 C 277.842 146.500,269.872 144.495,266.922 146.356 M197.500 258.696 C 198.875 258.774,201.125 258.774,202.500 258.696 C 203.875 258.618,202.750 258.554,200.000 258.554 C 197.250 258.554,196.125 258.618,197.500 258.696 M192.800 259.200 C 191.996 259.457,191.957 259.523,192.600 259.532 C 193.040 259.538,193.760 259.389,194.200 259.200 C 195.219 258.762,194.168 258.762,192.800 259.200 M187.600 261.124 C 184.325 262.761,179.600 266.251,179.600 267.034 C 179.600 267.177,180.282 266.677,181.116 265.924 C 183.719 263.572,186.549 261.831,190.044 260.433 C 190.570 260.223,190.730 260.045,190.400 260.038 C 190.070 260.031,188.810 260.520,187.600 261.124 M212.800 261.337 C 212.800 261.440,213.786 262.080,214.990 262.760 C 216.195 263.440,218.420 265.122,219.934 266.498 L 222.687 269.000 219.816 266.200 C 217.433 263.875,212.800 260.664,212.800 261.337 M290.715 263.600 C 290.359 264.370,289.766 266.170,289.398 267.600 C 288.770 270.038,288.548 270.933,287.637 274.700 C 287.438 275.525,286.628 278.704,285.837 281.765 C 285.047 284.826,284.400 287.548,284.400 287.815 C 284.400 288.192,292.985 299.111,293.981 300.000 C 294.104 300.110,294.696 300.859,295.296 301.665 C 295.897 302.471,296.622 303.371,296.907 303.665 C 297.193 303.959,297.862 304.830,298.394 305.600 C 298.926 306.370,299.471 307.090,299.605 307.200 C 300.119 307.621,305.302 315.396,307.551 319.119 C 310.658 324.262,312.930 329.128,314.647 334.313 C 317.521 342.994,318.755 353.624,317.593 359.680 C 317.370 360.846,316.996 362.790,316.762 364.000 C 314.500 375.731,306.112 385.798,294.400 390.840 L 291.000 392.303 290.879 394.352 L 290.758 396.400 296.379 396.400 C 299.860 396.400,302.000 396.248,302.000 396.000 C 302.000 395.774,303.133 395.600,304.600 395.600 C 306.067 395.600,307.200 395.426,307.200 395.200 C 307.200 394.980,308.100 394.800,309.200 394.800 C 310.300 394.800,311.200 394.620,311.200 394.400 C 311.200 394.180,311.740 394.000,312.400 394.000 C 313.060 394.000,313.600 393.820,313.600 393.600 C 313.600 393.380,314.140 393.200,314.800 393.200 C 315.460 393.200,316.000 393.020,316.000 392.800 C 316.000 392.580,316.540 392.400,317.200 392.400 C 317.860 392.400,318.400 392.220,318.400 392.000 C 318.400 391.780,318.673 391.600,319.007 391.600 C 319.876 391.600,324.400 389.530,324.400 389.132 C 324.400 388.950,324.720 388.800,325.112 388.800 C 325.503 388.800,326.083 388.440,326.400 388.000 C 326.717 387.560,327.231 387.200,327.541 387.200 C 327.852 387.200,328.397 386.876,328.753 386.481 C 329.109 386.086,330.030 385.325,330.800 384.790 C 332.814 383.391,334.000 382.133,334.000 381.395 C 334.000 381.042,334.180 380.864,334.400 381.000 C 334.620 381.136,334.800 381.033,334.800 380.771 C 334.800 380.508,335.126 380.003,335.525 379.647 C 337.666 377.737,341.091 371.418,341.449 368.716 C 341.589 367.662,341.860 366.800,342.052 366.800 C 342.243 366.800,342.400 366.080,342.400 365.200 C 342.400 364.320,342.580 363.600,342.800 363.600 C 343.022 363.600,343.200 362.533,343.200 361.200 C 343.200 359.808,343.374 358.800,343.615 358.800 C 344.135 358.800,344.082 348.498,343.560 348.175 C 343.362 348.053,343.200 346.793,343.200 345.376 C 343.200 343.925,343.025 342.800,342.800 342.800 C 342.580 342.800,342.400 342.080,342.400 341.200 C 342.400 340.320,342.246 339.600,342.057 339.600 C 341.868 339.600,341.600 338.565,341.460 337.300 C 341.211 335.054,340.423 332.289,339.874 331.741 C 339.723 331.590,339.600 331.047,339.600 330.533 C 339.600 330.020,339.420 329.600,339.200 329.600 C 338.980 329.600,338.800 329.366,338.800 329.080 C 338.800 328.344,337.859 326.407,337.500 326.403 C 337.335 326.401,337.200 326.117,337.200 325.771 C 337.200 325.426,336.928 324.871,336.596 324.539 C 336.264 324.207,336.095 323.770,336.220 323.568 C 336.345 323.365,336.257 323.200,336.024 323.200 C 335.791 323.200,335.600 322.840,335.600 322.400 C 335.600 321.960,335.420 321.600,335.200 321.600 C 334.980 321.600,334.800 321.280,334.800 320.888 C 334.800 320.497,334.440 319.917,334.000 319.600 C 333.560 319.283,333.200 318.703,333.200 318.312 C 333.200 317.920,333.020 317.600,332.800 317.600 C 332.580 317.600,332.400 317.364,332.400 317.075 C 332.400 316.787,332.040 316.164,331.600 315.692 C 331.160 315.220,330.800 314.691,330.800 314.517 C 330.799 313.893,328.894 312.000,328.268 312.000 C 327.916 312.000,327.443 311.654,327.217 311.231 C 326.990 310.808,326.573 310.223,326.289 309.931 C 326.006 309.639,325.332 308.770,324.792 308.000 C 324.253 307.230,323.512 306.240,323.146 305.800 C 322.780 305.360,321.381 303.650,320.038 302.000 C 318.694 300.350,316.516 297.684,315.197 296.076 C 313.879 294.468,312.800 292.785,312.800 292.337 C 312.800 291.888,312.260 291.017,311.600 290.400 C 310.940 289.783,310.399 289.126,310.398 288.940 C 310.397 288.753,309.767 287.915,308.998 287.078 C 308.229 286.240,307.600 285.385,307.600 285.178 C 307.600 284.970,307.459 284.800,307.286 284.800 C 307.114 284.800,306.667 284.282,306.293 283.649 C 305.919 283.016,305.115 281.955,304.506 281.292 C 302.825 279.457,300.619 276.729,300.441 276.262 C 300.353 276.033,299.858 275.422,299.341 274.905 C 298.823 274.387,298.400 273.820,298.400 273.644 C 298.400 273.468,297.950 272.801,297.400 272.162 C 296.851 271.523,296.401 270.775,296.400 270.500 C 296.400 270.225,296.220 270.000,296.000 270.000 C 295.780 270.000,295.600 269.730,295.600 269.400 C 295.600 269.070,295.420 268.800,295.200 268.800 C 294.980 268.800,294.800 268.519,294.800 268.176 C 294.800 267.833,294.620 267.664,294.400 267.800 C 294.180 267.936,294.000 267.677,294.000 267.224 C 294.000 266.771,293.820 266.400,293.600 266.400 C 293.380 266.400,293.200 266.130,293.200 265.800 C 293.200 265.470,293.020 265.200,292.800 265.200 C 292.580 265.200,292.400 264.840,292.400 264.400 C 292.400 263.960,292.233 263.600,292.029 263.600 C 291.825 263.600,291.592 263.285,291.511 262.900 C 291.403 262.389,291.188 262.579,290.715 263.600 M178.159 268.500 C 176.407 270.521,175.887 271.200,176.090 271.200 C 176.207 271.200,176.967 270.390,177.779 269.400 C 179.281 267.566,179.579 266.863,178.159 268.500 M223.543 270.700 C 224.044 271.415,224.539 272.000,224.641 272.000 C 224.987 272.000,224.050 270.540,223.337 269.967 C 222.836 269.565,222.896 269.778,223.543 270.700 M175.000 272.800 C 174.659 273.460,174.469 274.000,174.579 274.000 C 174.689 274.000,175.059 273.460,175.400 272.800 C 175.741 272.140,175.931 271.600,175.821 271.600 C 175.711 271.600,175.341 272.140,175.000 272.800 M228.080 280.600 C 228.080 281.040,228.224 281.850,228.400 282.400 C 228.654 283.192,228.720 283.233,228.720 282.600 C 228.720 282.160,228.576 281.350,228.400 280.800 C 228.146 280.008,228.080 279.967,228.080 280.600 M171.693 283.200 C 171.693 283.970,171.775 284.285,171.876 283.900 C 171.976 283.515,171.976 282.885,171.876 282.500 C 171.775 282.115,171.693 282.430,171.693 283.200 M96.149 317.397 C 91.433 320.224,92.604 327.158,98.000 328.365 C 98.990 328.587,101.457 329.142,103.483 329.599 C 114.211 332.022,122.335 337.587,130.330 347.989 C 131.489 349.497,132.037 349.545,131.590 348.100 C 131.403 347.495,131.073 346.280,130.858 345.400 C 130.133 342.438,129.548 340.208,129.173 338.972 C 128.968 338.296,128.800 337.362,128.800 336.895 C 128.800 336.429,128.620 335.936,128.400 335.800 C 128.180 335.664,128.000 335.171,128.000 334.705 C 128.000 334.238,127.832 333.304,127.627 332.628 C 127.422 331.953,127.041 330.590,126.782 329.600 C 125.999 326.619,125.650 326.189,122.463 324.272 C 112.587 318.331,100.054 315.057,96.149 317.397 M297.600 316.860 C 296.610 317.065,294.720 317.510,293.400 317.849 C 292.080 318.187,290.460 318.602,289.800 318.771 C 282.829 320.554,273.607 326.362,273.601 328.972 C 273.601 329.396,273.432 330.296,273.227 330.972 C 273.022 331.647,272.638 333.010,272.373 334.000 C 272.108 334.990,271.741 336.340,271.556 337.000 C 271.371 337.660,270.958 339.280,270.638 340.600 C 270.318 341.920,269.766 344.073,269.411 345.384 C 268.398 349.131,268.734 349.810,270.409 347.400 C 276.893 338.076,288.095 330.992,299.514 328.993 C 304.138 328.184,305.598 327.336,306.633 324.859 C 308.873 319.498,304.319 315.464,297.600 316.860 M182.093 394.000 C 182.093 394.770,182.175 395.085,182.276 394.700 C 182.376 394.315,182.376 393.685,182.276 393.300 C 182.175 392.915,182.093 393.230,182.093 394.000 M104.000 396.000 C 104.000 396.226,105.133 396.400,106.600 396.400 C 108.067 396.400,109.200 396.226,109.200 396.000 C 109.200 395.774,108.067 395.600,106.600 395.600 C 105.133 395.600,104.000 395.774,104.000 396.000 M182.400 396.000 C 182.400 396.261,188.533 396.400,200.000 396.400 C 211.467 396.400,217.600 396.261,217.600 396.000 C 217.600 395.739,211.467 395.600,200.000 395.600 C 188.533 395.600,182.400 395.739,182.400 396.000 " stroke="none" fill="#ada47c" fill-rule="evenodd"></path><path id="path4" d="M75.280 9.680 C 74.674 10.286,74.600 22.229,75.200 22.600 C 75.461 22.761,75.600 20.537,75.600 16.224 C 75.600 8.651,75.377 8.981,79.229 10.843 C 93.151 17.573,105.491 31.795,111.991 48.600 C 112.161 49.040,112.503 49.903,112.750 50.519 C 113.582 52.587,113.251 53.547,110.069 58.312 C 105.146 65.685,101.687 72.164,98.759 79.500 C 98.562 79.995,98.238 80.805,98.040 81.300 C 97.843 81.795,97.464 82.830,97.200 83.600 C 96.936 84.370,96.572 85.360,96.393 85.800 C 96.214 86.240,95.827 87.483,95.533 88.562 C 95.199 89.791,94.738 90.593,94.300 90.709 C 93.377 90.952,93.399 91.600,94.331 91.600 C 94.909 91.600,95.380 90.624,96.598 86.900 C 100.184 75.932,106.064 64.253,112.145 56.023 C 114.304 53.100,114.301 53.247,112.304 48.200 C 105.724 31.570,93.947 17.871,80.107 10.752 C 76.898 9.102,76.047 8.913,75.280 9.680 M75.600 30.024 C 75.600 31.804,75.748 32.756,76.000 32.600 C 76.220 32.464,76.400 31.193,76.400 29.776 C 76.400 28.325,76.225 27.200,76.000 27.200 C 75.771 27.200,75.600 28.408,75.600 30.024 M76.512 35.923 C 76.193 36.125,76.107 36.749,76.264 37.716 C 76.599 39.778,77.200 39.575,77.200 37.400 C 77.200 36.410,77.155 35.603,77.100 35.606 C 77.045 35.609,76.780 35.752,76.512 35.923 M76.932 43.100 C 77.037 44.458,77.754 44.394,77.927 43.012 C 78.013 42.321,77.862 42.000,77.451 42.000 C 77.039 42.000,76.875 42.349,76.932 43.100 M77.969 46.820 C 77.953 46.919,77.882 47.291,77.813 47.646 C 77.595 48.764,78.274 49.428,78.596 48.413 C 78.756 47.907,78.689 47.329,78.440 47.080 C 78.198 46.838,77.986 46.721,77.969 46.820 M78.601 51.619 C 78.698 53.240,79.200 53.635,79.200 52.090 C 79.200 51.407,79.049 50.754,78.865 50.640 C 78.681 50.527,78.562 50.967,78.601 51.619 M79.206 55.500 C 79.209 55.885,79.387 56.470,79.600 56.800 C 79.894 57.255,79.989 57.086,79.994 56.100 C 79.997 55.385,79.820 54.800,79.600 54.800 C 79.380 54.800,79.203 55.115,79.206 55.500 M80.154 58.576 C 80.032 58.892,80.123 59.477,80.354 59.876 C 80.712 60.491,80.778 60.405,80.788 59.300 C 80.801 57.929,80.524 57.612,80.154 58.576 M80.978 61.635 C 80.831 61.874,80.910 62.270,81.155 62.515 C 81.482 62.842,81.600 62.726,81.600 62.080 C 81.600 61.114,81.392 60.965,80.978 61.635 M81.812 64.517 C 81.641 64.912,81.613 65.347,81.751 65.484 C 82.157 65.890,82.484 65.320,82.297 64.531 C 82.132 63.833,82.110 63.832,81.812 64.517 M82.578 67.235 C 82.431 67.474,82.510 67.870,82.755 68.115 C 83.082 68.442,83.200 68.326,83.200 67.680 C 83.200 66.714,82.992 66.565,82.578 67.235 M144.167 68.229 L 142.600 69.658 144.200 68.464 C 145.080 67.807,146.160 67.185,146.600 67.081 C 147.372 66.899,147.371 66.891,146.567 66.846 C 146.108 66.821,145.028 67.443,144.167 68.229 M149.932 67.086 C 150.445 67.184,151.583 67.983,152.462 68.862 C 153.341 69.741,153.865 70.094,153.625 69.647 C 153.002 68.483,150.660 66.790,149.762 66.854 C 149.185 66.896,149.226 66.952,149.932 67.086 M83.200 69.776 C 83.200 70.093,83.380 70.464,83.600 70.600 C 83.820 70.736,84.000 70.477,84.000 70.024 C 84.000 69.571,83.820 69.200,83.600 69.200 C 83.380 69.200,83.200 69.459,83.200 69.776 M84.212 71.717 C 84.041 72.112,84.013 72.547,84.151 72.684 C 84.557 73.090,84.884 72.520,84.697 71.731 C 84.532 71.033,84.510 71.032,84.212 71.717 M154.200 75.600 C 154.200 77.978,154.332 79.716,154.494 79.462 C 154.656 79.208,154.788 77.470,154.788 75.600 C 154.788 73.730,154.656 71.992,154.494 71.738 C 154.332 71.484,154.200 73.222,154.200 75.600 M84.800 74.200 C 84.800 74.530,84.980 74.800,85.200 74.800 C 85.420 74.800,85.600 74.530,85.600 74.200 C 85.600 73.870,85.420 73.600,85.200 73.600 C 84.980 73.600,84.800 73.870,84.800 74.200 M85.600 76.200 C 85.600 76.530,85.780 76.800,86.000 76.800 C 86.220 76.800,86.400 76.530,86.400 76.200 C 86.400 75.870,86.220 75.600,86.000 75.600 C 85.780 75.600,85.600 75.870,85.600 76.200 M88.303 81.056 C 88.140 81.307,88.489 82.375,89.079 83.430 C 89.718 84.572,90.225 85.124,90.335 84.794 C 90.437 84.489,90.313 84.171,90.060 84.087 C 89.807 84.002,89.600 83.588,89.600 83.167 C 89.600 82.745,89.433 82.400,89.228 82.400 C 89.023 82.400,88.798 81.995,88.727 81.500 C 88.648 80.941,88.487 80.773,88.303 81.056 M152.770 82.238 C 150.751 84.399,147.934 85.007,145.580 83.790 C 144.931 83.454,144.400 83.269,144.400 83.379 C 144.400 83.872,146.898 84.800,148.226 84.800 C 149.916 84.800,152.278 83.582,153.319 82.173 C 154.259 80.900,153.990 80.932,152.770 82.238 M91.200 87.005 C 91.200 87.885,93.133 90.209,93.519 89.793 C 93.674 89.627,93.575 89.410,93.300 89.312 C 93.025 89.214,92.800 88.878,92.800 88.567 C 92.800 88.255,92.620 88.000,92.400 88.000 C 92.180 88.000,92.000 87.730,92.000 87.400 C 92.000 87.070,91.820 86.800,91.600 86.800 C 91.380 86.800,91.200 86.892,91.200 87.005 M194.800 96.360 C 193.810 96.492,196.150 96.603,200.000 96.606 C 204.116 96.609,206.176 96.500,205.000 96.341 C 202.606 96.017,197.301 96.027,194.800 96.360 M188.800 97.221 C 188.370 97.514,188.654 97.554,189.800 97.362 C 191.784 97.030,192.104 96.798,190.567 96.806 C 189.925 96.809,189.130 96.996,188.800 97.221 M208.833 96.947 C 208.925 97.028,209.720 97.214,210.600 97.362 C 211.746 97.554,212.030 97.514,211.600 97.221 C 211.060 96.853,208.432 96.593,208.833 96.947 M183.500 99.029 C 181.949 99.870,182.125 100.161,183.700 99.359 C 185.208 98.593,185.475 98.394,184.967 98.416 C 184.765 98.425,184.105 98.701,183.500 99.029 M218.298 100.580 C 219.232 101.393,220.267 102.446,220.598 102.918 C 220.929 103.391,221.200 103.593,221.200 103.367 C 221.200 102.758,218.752 100.207,217.600 99.615 C 216.998 99.306,217.275 99.690,218.298 100.580 M179.269 102.839 C 178.528 104.024,178.857 104.113,179.719 102.961 C 180.114 102.432,180.292 102.000,180.115 102.000 C 179.938 102.000,179.557 102.378,179.269 102.839 M178.249 105.015 C 178.112 105.373,178.015 105.966,178.034 106.333 C 178.053 106.700,178.227 106.469,178.421 105.820 C 178.798 104.558,178.665 103.933,178.249 105.015 M222.072 108.800 C 222.072 111.076,222.119 111.238,222.448 110.100 C 222.681 109.290,222.681 108.310,222.448 107.500 C 222.119 106.362,222.072 106.524,222.072 108.800 M178.006 111.433 C 178.009 111.855,178.195 112.470,178.418 112.800 C 178.715 113.238,178.752 113.076,178.556 112.200 C 178.227 110.729,177.998 110.410,178.006 111.433 M308.580 113.552 C 308.078 114.017,301.586 116.160,298.800 116.780 C 297.590 117.049,295.949 117.434,295.154 117.635 C 294.358 117.836,293.098 118.002,292.354 118.004 C 289.171 118.015,288.058 118.426,287.779 119.696 C 287.368 121.567,285.231 126.533,284.688 126.878 C 284.420 127.048,281.961 127.191,279.224 127.194 C 268.902 127.207,265.890 129.037,266.378 135.000 C 266.655 138.389,269.022 140.000,273.725 140.000 C 277.767 140.000,277.645 139.832,275.609 142.588 C 273.589 145.322,273.545 145.345,270.634 145.242 C 265.514 145.061,262.829 148.318,264.016 153.268 C 264.571 155.582,265.002 154.968,259.400 159.843 C 242.232 174.783,219.529 185.016,197.000 187.970 C 182.719 189.842,170.017 189.211,156.000 185.931 C 152.646 185.147,145.451 183.057,143.700 182.359 C 143.205 182.161,142.395 181.838,141.900 181.639 C 141.405 181.440,139.920 180.867,138.600 180.365 C 137.280 179.864,134.490 178.658,132.400 177.686 C 125.738 174.588,125.245 174.403,124.950 174.881 C 124.785 175.148,124.859 175.211,125.138 175.038 C 125.392 174.881,125.600 174.905,125.600 175.091 C 125.600 175.277,125.955 175.457,126.390 175.489 C 126.824 175.522,127.679 176.015,128.290 176.584 C 134.721 182.582,154.351 192.733,166.200 196.189 C 167.520 196.574,169.185 197.063,169.900 197.275 L 171.200 197.662 171.142 235.331 C 170.979 341.769,170.667 373.708,169.800 372.911 C 169.360 372.507,168.100 371.552,167.000 370.788 C 165.900 370.025,164.910 369.292,164.800 369.161 C 164.430 368.718,159.422 366.473,156.979 365.655 C 152.922 364.297,142.800 363.401,142.800 364.400 C 142.800 364.620,143.055 364.800,143.366 364.800 C 144.979 364.800,150.593 369.330,153.805 373.224 C 155.464 375.234,158.800 381.337,158.800 382.361 C 158.800 382.734,158.995 383.235,159.234 383.474 C 160.327 384.567,159.478 385.739,157.535 385.819 C 153.338 385.991,152.000 388.250,152.000 395.160 L 152.000 400.000 165.100 399.999 C 179.532 399.997,180.258 399.879,181.209 397.376 C 181.423 396.813,181.787 396.468,182.018 396.611 C 182.474 396.893,182.193 393.395,181.615 391.600 C 181.438 391.050,181.061 389.790,180.777 388.800 C 180.493 387.810,180.112 386.829,179.930 386.620 C 179.749 386.411,179.600 385.945,179.600 385.584 C 179.600 384.603,176.089 378.952,173.689 376.068 L 171.581 373.535 171.690 326.868 C 171.813 274.729,171.556 279.562,174.516 273.791 C 185.041 253.271,215.694 253.407,225.870 274.018 C 228.987 280.332,228.800 276.884,228.800 328.088 L 228.800 373.861 227.759 374.830 C 226.727 375.792,223.200 380.245,223.200 380.587 C 223.200 380.685,222.674 381.657,222.032 382.746 C 220.740 384.936,218.782 390.065,218.832 391.124 C 218.850 391.496,219.281 390.527,219.789 388.972 C 221.390 384.074,223.610 380.201,227.263 375.929 L 229.205 373.657 229.188 285.729 L 229.171 197.800 231.885 196.895 C 233.378 196.397,235.230 195.799,236.000 195.566 C 241.305 193.961,252.319 189.194,257.000 186.477 C 261.334 183.961,262.571 183.197,265.749 181.079 C 267.702 179.778,270.222 178.013,271.349 177.158 C 272.477 176.303,273.687 175.603,274.038 175.602 C 274.389 175.601,275.003 175.239,275.402 174.798 C 275.802 174.356,276.213 174.080,276.317 174.184 C 276.420 174.287,277.022 173.819,277.653 173.144 C 278.284 172.468,278.800 172.022,278.800 172.151 C 278.800 172.281,280.420 170.783,282.400 168.822 C 284.380 166.860,286.000 165.018,286.000 164.728 C 285.999 163.940,278.044 160.227,272.800 158.568 C 265.244 156.177,264.345 155.385,264.319 151.100 C 264.275 143.756,272.818 143.974,288.200 151.709 C 289.960 152.594,291.878 153.652,292.462 154.059 C 293.821 155.007,294.501 154.994,295.400 154.000 C 295.798 153.560,295.987 153.200,295.820 153.200 C 295.652 153.200,296.093 152.660,296.800 152.000 C 297.507 151.340,297.884 150.800,297.639 150.800 C 297.324 150.800,297.335 150.572,297.677 150.026 C 297.943 149.600,298.289 149.331,298.446 149.428 C 298.603 149.525,298.970 149.064,299.263 148.402 C 299.556 147.741,299.931 147.200,300.098 147.200 C 300.264 147.200,300.400 146.840,300.400 146.400 C 300.400 145.960,300.580 145.600,300.800 145.600 C 301.020 145.600,301.200 145.255,301.200 144.833 C 301.200 144.412,301.367 144.007,301.570 143.933 C 302.767 143.503,302.440 141.691,301.131 141.499 C 300.399 141.392,298.360 141.019,296.600 140.672 C 291.054 139.577,284.184 139.117,277.213 139.372 C 271.087 139.597,270.506 139.556,269.319 138.825 C 266.272 136.946,265.854 132.099,268.539 129.778 C 271.729 127.021,287.770 126.503,299.600 128.775 C 301.588 129.157,302.426 129.345,306.095 130.228 C 306.910 130.424,307.243 130.326,307.395 129.846 C 307.508 129.491,307.722 128.885,307.872 128.500 C 308.297 127.405,308.384 126.825,308.652 123.292 C 308.791 121.472,309.060 119.886,309.252 119.768 C 309.443 119.650,309.597 119.248,309.594 118.876 C 309.589 118.293,309.534 118.283,309.200 118.800 C 308.886 119.285,308.811 119.228,308.806 118.500 C 308.803 118.005,308.980 117.600,309.200 117.600 C 309.420 117.600,309.600 116.610,309.600 115.400 C 309.600 113.260,309.362 112.828,308.580 113.552 M220.278 116.205 C 219.912 116.972,219.695 117.600,219.796 117.600 C 220.070 117.600,221.284 115.151,221.101 114.968 C 221.014 114.881,220.644 115.438,220.278 116.205 M281.905 118.683 C 282.402 118.779,283.122 118.775,283.505 118.675 C 283.887 118.575,283.480 118.496,282.600 118.501 C 281.720 118.505,281.407 118.587,281.905 118.683 M183.029 121.238 C 183.673 122.029,184.281 122.608,184.379 122.525 C 184.478 122.442,183.951 121.795,183.209 121.087 L 181.858 119.800 183.029 121.238 M214.800 123.294 C 211.941 126.021,211.969 126.364,214.839 123.769 C 216.360 122.394,218.231 120.391,217.970 120.417 C 217.876 120.426,216.450 121.721,214.800 123.294 M186.319 124.399 C 187.264 125.332,188.115 126.019,188.209 125.924 C 188.303 125.830,187.530 125.067,186.490 124.228 L 184.600 122.702 186.319 124.399 M209.208 127.230 C 208.002 127.873,207.232 128.400,207.496 128.400 C 208.010 128.400,210.751 126.962,211.380 126.362 C 211.959 125.810,211.593 125.956,209.208 127.230 M107.130 127.403 C 107.019 127.515,105.684 127.784,104.164 128.002 C 102.644 128.220,100.590 128.570,99.600 128.781 C 98.610 128.992,96.744 129.374,95.454 129.630 C 94.135 129.892,93.315 130.224,93.582 130.389 C 93.843 130.550,95.259 130.373,96.728 129.996 C 99.222 129.354,100.955 129.038,107.633 128.007 C 114.355 126.968,128.979 127.769,131.313 129.304 C 134.222 131.216,134.396 135.529,131.667 138.074 C 129.782 139.832,129.234 139.893,121.800 139.173 C 115.571 138.569,107.945 139.246,99.430 141.158 C 98.786 141.302,98.172 141.686,98.065 142.010 C 97.913 142.470,97.995 142.501,98.435 142.150 C 98.746 141.903,99.630 141.581,100.400 141.435 C 101.170 141.289,102.700 140.994,103.800 140.779 C 108.337 139.891,114.522 139.566,122.200 139.812 L 130.200 140.069 131.827 138.665 C 136.142 134.945,134.338 128.891,128.560 127.697 C 126.214 127.213,107.577 126.957,107.130 127.403 M191.600 127.809 C 191.600 127.925,192.050 128.191,192.600 128.400 L 193.600 128.780 193.600 134.396 C 193.600 140.613,193.519 140.890,190.953 143.431 C 183.819 150.495,171.647 146.876,169.991 137.200 C 168.360 127.663,157.442 127.915,157.564 137.487 C 157.806 156.444,183.542 166.819,198.236 153.884 L 200.018 152.316 202.109 153.928 C 204.606 155.853,207.927 157.628,210.400 158.360 C 211.390 158.653,212.722 159.052,213.360 159.247 C 214.934 159.726,221.829 159.695,223.472 159.200 C 224.202 158.980,225.475 158.608,226.300 158.373 C 237.685 155.134,246.601 140.109,241.520 132.724 C 238.302 128.047,230.400 130.957,230.400 136.819 C 230.400 147.777,212.442 150.792,207.254 140.705 C 206.431 139.105,206.364 138.501,206.477 133.714 C 206.545 130.832,206.465 128.558,206.300 128.661 C 205.542 129.132,205.980 139.307,206.835 141.073 C 211.767 151.261,230.800 148.247,230.800 137.277 C 230.800 134.060,233.187 131.223,236.147 130.924 C 244.836 130.044,244.142 144.196,235.084 152.615 C 226.188 160.883,213.120 161.382,202.899 153.845 C 199.878 151.616,200.420 151.616,197.455 153.846 C 193.962 156.474,192.101 157.314,186.554 158.768 C 173.569 162.173,158.856 151.367,158.110 137.879 C 157.607 128.778,167.661 127.976,169.384 136.980 C 170.716 143.944,174.882 147.377,182.000 147.377 C 190.588 147.377,194.530 142.976,194.315 133.629 L 194.200 128.657 192.900 128.127 C 192.185 127.836,191.600 127.693,191.600 127.809 M127.200 145.615 C 126.650 145.796,125.390 146.169,124.400 146.444 C 123.410 146.719,122.420 147.054,122.200 147.189 C 121.980 147.323,121.080 147.666,120.200 147.950 C 117.413 148.849,114.051 150.393,110.200 152.540 C 108.660 153.398,106.860 154.240,106.200 154.409 C 105.045 154.706,105.039 154.720,106.036 154.759 C 106.606 154.782,108.676 153.898,110.636 152.796 C 116.570 149.460,127.193 145.627,130.553 145.608 C 137.590 145.570,137.920 155.202,130.948 157.142 C 125.849 158.561,123.869 159.302,119.000 161.614 C 115.343 163.350,114.000 164.230,114.000 164.891 C 114.000 165.092,114.301 164.956,114.669 164.588 C 115.222 164.035,120.649 161.300,123.800 159.986 C 124.718 159.603,128.559 158.354,131.200 157.579 C 136.630 155.986,138.455 150.812,134.931 147.000 C 133.324 145.262,130.051 144.675,127.200 145.615 M108.561 263.414 C 108.425 263.956,108.153 264.400,107.957 264.400 C 107.760 264.400,107.600 264.670,107.600 265.000 C 107.600 265.330,107.420 265.600,107.200 265.600 C 106.980 265.600,106.800 265.870,106.800 266.200 C 106.800 266.530,106.620 266.800,106.400 266.800 C 106.180 266.800,106.000 267.120,106.000 267.512 C 106.000 267.903,105.640 268.483,105.200 268.800 C 104.760 269.117,104.400 269.657,104.400 270.000 C 104.400 270.343,104.040 270.883,103.600 271.200 C 103.160 271.517,102.800 272.015,102.800 272.306 C 102.800 272.598,102.350 273.286,101.800 273.836 C 101.250 274.386,100.800 275.000,100.800 275.200 C 100.800 275.400,100.350 276.014,99.800 276.564 C 99.250 277.114,98.800 277.752,98.800 277.982 C 98.800 278.212,98.665 278.401,98.500 278.403 C 98.335 278.404,97.750 279.071,97.200 279.885 C 96.650 280.699,95.570 282.114,94.800 283.030 C 92.417 285.865,92.000 286.402,92.000 286.636 C 92.000 286.761,91.319 287.524,90.487 288.331 C 89.655 289.139,88.533 290.430,87.994 291.200 C 87.454 291.970,86.470 293.155,85.807 293.833 C 83.928 295.753,80.654 299.561,80.232 300.317 C 80.022 300.693,79.344 301.540,78.725 302.200 C 78.105 302.860,77.113 304.165,76.520 305.100 C 75.926 306.035,75.296 306.800,75.120 306.800 C 74.944 306.800,74.800 307.043,74.800 307.341 C 74.800 307.638,74.260 308.446,73.600 309.137 C 72.940 309.828,72.400 310.559,72.400 310.763 C 72.400 310.967,72.255 311.193,72.077 311.267 C 71.899 311.340,71.146 312.300,70.403 313.400 C 69.660 314.500,68.951 315.490,68.826 315.600 C 68.701 315.710,68.335 316.340,68.012 317.000 C 67.689 317.660,66.924 318.952,66.312 319.872 C 65.701 320.792,65.200 321.737,65.200 321.972 C 65.200 322.207,65.020 322.400,64.800 322.400 C 64.580 322.400,64.400 322.745,64.400 323.167 C 64.400 323.588,64.258 323.993,64.085 324.067 C 63.222 324.432,59.200 334.266,59.200 336.010 C 59.200 336.665,59.020 337.200,58.800 337.200 C 58.580 337.200,58.400 337.920,58.400 338.800 C 58.400 339.680,58.220 340.400,58.000 340.400 C 57.780 340.400,57.600 341.199,57.600 342.176 C 57.600 343.153,57.420 344.064,57.200 344.200 C 56.659 344.535,56.659 361.865,57.200 362.200 C 57.420 362.336,57.600 363.247,57.600 364.224 C 57.600 365.201,57.780 366.000,58.000 366.000 C 58.220 366.000,58.400 366.540,58.400 367.200 C 58.400 367.860,58.580 368.400,58.800 368.400 C 59.020 368.400,59.200 368.761,59.200 369.202 C 59.200 369.643,59.650 370.937,60.200 372.077 C 60.750 373.217,61.200 374.386,61.200 374.675 C 61.200 374.964,61.358 375.200,61.551 375.200 C 61.745 375.200,62.127 375.740,62.400 376.400 C 62.673 377.060,63.016 377.600,63.162 377.600 C 63.308 377.600,63.748 378.143,64.140 378.806 C 65.009 380.277,71.090 386.400,71.682 386.400 C 71.915 386.400,72.399 386.715,72.757 387.100 C 73.116 387.485,73.810 388.026,74.301 388.301 C 78.152 390.464,80.615 391.600,81.457 391.600 C 82.015 391.600,82.339 391.774,82.200 392.000 C 82.060 392.226,82.388 392.400,82.953 392.400 C 83.503 392.400,84.064 392.580,84.200 392.800 C 84.336 393.020,84.876 393.200,85.400 393.200 C 85.924 393.200,86.464 393.380,86.600 393.600 C 86.736 393.820,87.467 394.000,88.224 394.000 C 88.981 394.000,89.600 394.180,89.600 394.400 C 89.600 394.620,90.421 394.800,91.424 394.800 C 92.427 394.800,93.153 394.952,93.039 395.137 C 92.924 395.323,94.025 395.514,95.485 395.561 C 96.945 395.608,98.457 395.816,98.844 396.023 C 99.783 396.526,104.000 396.507,104.000 396.000 C 104.000 395.774,105.133 395.600,106.600 395.600 C 108.163 395.600,109.200 395.769,109.200 396.024 C 109.200 397.252,109.877 395.795,109.929 394.453 C 110.386 382.790,120.954 370.317,134.735 365.172 C 136.174 364.635,136.142 364.902,135.213 361.200 C 135.020 360.430,134.291 357.460,133.594 354.600 C 132.111 348.512,129.269 337.098,127.818 331.400 C 127.258 329.200,126.626 327.040,126.415 326.600 C 126.204 326.160,124.750 320.760,123.183 314.600 C 121.617 308.440,119.883 301.690,119.330 299.600 C 118.777 297.510,118.177 295.170,117.996 294.400 C 117.815 293.630,117.128 290.930,116.471 288.400 C 114.045 279.071,110.000 263.231,110.000 263.061 C 110.000 262.291,108.767 262.593,108.561 263.414 M290.455 262.757 C 290.156 262.947,289.772 263.800,289.602 264.651 C 289.432 265.503,288.027 271.240,286.479 277.400 C 284.931 283.560,283.395 289.770,283.065 291.200 C 282.735 292.630,281.723 296.680,280.816 300.200 C 279.909 303.720,278.089 310.789,276.770 315.909 C 275.452 321.029,274.183 325.709,273.950 326.309 C 273.237 328.146,268.505 346.569,268.019 349.400 C 267.558 352.087,264.271 364.662,263.945 364.989 C 263.853 365.081,263.063 364.989,262.189 364.785 C 260.017 364.279,251.847 363.819,250.974 364.154 C 250.417 364.369,250.707 364.657,252.345 365.513 C 256.110 367.483,260.598 371.874,262.754 375.700 C 264.717 379.181,265.083 379.904,265.920 381.953 C 267.089 384.815,267.042 385.251,265.402 386.743 C 263.259 388.694,262.800 390.229,262.800 395.449 L 262.800 400.000 274.626 400.000 C 282.602 400.000,286.737 399.853,287.326 399.550 C 288.818 398.782,289.999 397.498,290.013 396.630 C 290.024 395.892,290.080 395.871,290.514 396.442 C 290.916 396.970,291.003 396.661,291.002 394.700 L 291.000 392.317 294.400 390.847 C 306.135 385.772,314.501 375.729,316.762 364.000 C 316.996 362.790,317.370 360.846,317.593 359.680 C 318.172 356.663,318.096 350.757,317.422 346.365 C 315.435 333.429,311.804 324.886,302.523 311.310 C 301.052 309.160,299.740 307.310,299.605 307.200 C 299.471 307.090,298.926 306.370,298.394 305.600 C 297.862 304.830,297.193 303.959,296.907 303.665 C 296.622 303.371,295.897 302.471,295.296 301.665 C 294.696 300.859,294.104 300.110,293.981 300.000 C 292.985 299.111,284.400 288.192,284.400 287.815 C 284.400 287.548,285.047 284.826,285.837 281.765 C 286.628 278.704,287.446 275.480,287.656 274.600 C 289.555 266.624,290.046 264.930,291.105 262.700 C 291.288 262.315,291.132 262.329,290.455 262.757 M340.914 277.400 C 340.917 278.500,340.995 278.903,341.087 278.295 C 341.179 277.686,341.177 276.786,341.082 276.295 C 340.987 275.803,340.911 276.300,340.914 277.400 M312.800 292.749 C 312.800 292.971,313.879 294.468,315.197 296.076 C 316.516 297.684,318.694 300.350,320.038 302.000 C 321.381 303.650,322.780 305.360,323.146 305.800 C 323.512 306.240,324.253 307.230,324.792 308.000 C 325.332 308.770,326.006 309.639,326.289 309.931 C 326.573 310.223,326.990 310.808,327.217 311.231 C 327.443 311.654,328.027 311.994,328.514 311.986 L 329.400 311.972 328.517 311.481 C 328.031 311.211,326.951 310.077,326.117 308.961 C 324.177 306.367,322.821 304.644,319.600 300.684 C 313.482 293.162,312.800 292.366,312.800 292.749 M103.200 316.997 C 110.960 318.540,116.265 320.544,122.463 324.272 C 125.650 326.189,125.999 326.619,126.782 329.600 C 127.041 330.590,127.422 331.953,127.627 332.628 C 127.832 333.304,128.000 334.238,128.000 334.705 C 128.000 335.171,128.180 335.664,128.400 335.800 C 128.620 335.936,128.800 336.429,128.800 336.895 C 128.800 337.362,128.968 338.296,129.173 338.972 C 129.548 340.208,130.133 342.438,130.858 345.400 C 131.073 346.280,131.403 347.495,131.590 348.100 C 132.037 349.545,131.489 349.497,130.330 347.989 C 122.335 337.587,114.211 332.022,103.483 329.599 C 101.457 329.142,98.990 328.587,98.000 328.365 C 92.604 327.158,91.433 320.224,96.149 317.397 C 98.072 316.245,99.119 316.185,103.200 316.997 M303.800 317.200 C 310.304 320.349,307.682 327.564,299.514 328.993 C 288.095 330.992,276.893 338.076,270.409 347.400 C 268.734 349.810,268.398 349.131,269.411 345.384 C 269.766 344.073,270.318 341.920,270.638 340.600 C 270.958 339.280,271.371 337.660,271.556 337.000 C 271.741 336.340,272.108 334.990,272.373 334.000 C 272.638 333.010,273.022 331.647,273.227 330.972 C 273.432 330.296,273.601 329.396,273.601 328.972 C 273.607 326.362,282.829 320.554,289.800 318.771 C 290.460 318.602,292.080 318.187,293.400 317.849 C 299.799 316.209,301.529 316.101,303.800 317.200 M130.200 385.893 C 126.976 386.700,126.000 388.831,126.000 395.061 L 126.000 400.000 131.600 400.000 L 137.200 400.000 137.200 394.691 L 137.200 389.382 135.982 387.905 C 135.241 387.006,134.184 386.267,133.282 386.016 C 131.719 385.582,131.480 385.573,130.200 385.893 M240.992 385.923 C 237.792 387.021,236.800 389.237,236.800 395.285 L 236.800 400.000 242.600 400.000 L 248.400 400.000 248.400 395.408 C 248.400 387.911,245.609 384.337,240.992 385.923 M218.126 393.788 C 217.901 394.771,217.863 395.484,218.043 395.374 C 218.419 395.141,218.986 392.452,218.715 392.182 C 218.616 392.083,218.351 392.805,218.126 393.788 " stroke="none" fill="#cbc4a0" fill-rule="evenodd"></path></g></svg>