<svg id="svg" version="1.1" xmlns="http://www.w3.org/2000/svg" xmlns:xlink="http://www.w3.org/1999/xlink" width="400" height="400" viewBox="0, 0, 400,400"><g id="svgg"><path id="path0" d="M7.535 0.267 C 6.949 0.366,5.916 0.976,5.239 1.623 C 4.561 2.270,3.736 2.800,3.404 2.800 C 3.072 2.800,2.800 3.078,2.800 3.418 C 2.800 3.758,2.356 4.480,1.814 5.022 C 0.038 6.799,-0.883 17.774,0.700 18.300 C 0.975 18.392,1.200 18.739,1.200 19.073 C 1.200 19.406,1.740 20.183,2.400 20.800 C 3.060 21.417,3.600 22.119,3.600 22.360 C 3.600 22.602,3.780 22.800,4.000 22.800 C 4.220 22.800,4.400 23.160,4.400 23.600 C 4.400 24.040,4.580 24.400,4.800 24.400 C 5.033 24.400,5.200 25.733,5.200 27.600 C 5.200 29.467,5.033 30.800,4.800 30.800 C 4.580 30.800,4.400 31.700,4.400 32.800 C 4.400 33.900,4.220 34.800,4.000 34.800 C 3.780 34.800,3.600 35.700,3.600 36.800 C 3.600 37.900,3.420 38.800,3.200 38.800 C 2.980 38.800,2.800 39.779,2.800 40.976 C 2.800 42.173,2.620 43.264,2.400 43.400 C 1.855 43.737,1.855 62.000,2.400 62.000 C 2.620 62.000,2.800 62.720,2.800 63.600 C 2.800 64.480,2.980 65.200,3.200 65.200 C 3.420 65.200,3.600 65.830,3.600 66.600 C 3.600 67.370,3.780 68.000,4.000 68.000 C 4.220 68.000,4.400 68.450,4.400 69.000 C 4.400 69.550,4.580 70.000,4.800 70.000 C 5.020 70.000,5.200 70.360,5.200 70.800 C 5.200 71.240,5.380 71.600,5.600 71.600 C 5.820 71.600,6.000 71.960,6.000 72.400 C 6.000 72.840,6.180 73.200,6.400 73.200 C 6.620 73.200,6.800 73.430,6.800 73.712 C 6.800 73.993,7.160 74.483,7.600 74.800 C 8.040 75.117,8.400 75.614,8.400 75.905 C 8.400 76.530,8.682 76.884,11.678 80.017 C 12.931 81.328,14.196 82.400,14.490 82.400 C 14.783 82.400,15.283 82.760,15.600 83.200 C 15.917 83.640,16.497 84.000,16.888 84.000 C 17.280 84.000,17.601 84.135,17.603 84.300 C 17.607 84.659,19.544 85.600,20.280 85.600 C 20.566 85.600,20.800 85.780,20.800 86.000 C 20.800 86.220,21.160 86.400,21.600 86.400 C 22.040 86.400,22.400 86.580,22.400 86.800 C 22.400 87.020,22.940 87.200,23.600 87.200 C 24.260 87.200,24.800 87.380,24.800 87.600 C 24.800 87.820,25.419 88.000,26.176 88.000 C 26.933 88.000,27.664 88.180,27.800 88.400 C 27.936 88.620,29.196 88.800,30.600 88.800 C 32.004 88.800,33.264 88.980,33.400 89.200 C 33.713 89.706,42.502 89.734,43.020 89.231 C 43.229 89.028,44.660 88.772,46.200 88.661 C 49.698 88.409,51.966 88.054,53.000 87.596 C 54.800 86.799,63.905 86.145,64.528 86.768 C 64.766 87.006,65.374 87.200,65.880 87.200 C 66.386 87.200,66.800 87.380,66.800 87.600 C 66.800 87.820,67.078 88.000,67.418 88.000 C 68.218 88.000,70.000 89.782,70.000 90.582 C 70.000 90.922,70.180 91.200,70.400 91.200 C 70.620 91.200,70.800 92.010,70.800 93.000 C 70.800 93.990,70.980 94.800,71.200 94.800 C 71.420 94.800,71.600 95.340,71.600 96.000 C 71.600 96.660,71.420 97.200,71.200 97.200 C 70.972 97.200,70.800 98.392,70.800 99.976 C 70.800 101.503,70.620 102.864,70.400 103.000 C 70.180 103.136,70.000 104.011,70.000 104.944 C 70.000 105.877,69.836 106.811,69.635 107.020 C 68.789 107.902,67.974 126.800,68.783 126.800 C 69.017 126.800,69.200 127.679,69.200 128.800 C 69.200 129.900,69.380 130.800,69.600 130.800 C 69.820 130.800,70.000 131.520,70.000 132.400 C 70.000 133.280,70.180 134.000,70.400 134.000 C 70.620 134.000,70.800 134.349,70.800 134.776 C 70.800 135.203,70.980 135.664,71.200 135.800 C 71.420 135.936,71.600 136.487,71.600 137.024 C 71.600 137.561,71.736 138.000,71.902 138.000 C 72.069 138.000,72.460 138.585,72.772 139.300 C 73.084 140.015,73.668 140.891,74.070 141.247 C 74.471 141.603,74.800 142.122,74.800 142.400 C 74.800 142.678,75.188 143.242,75.661 143.653 C 76.135 144.064,76.409 144.400,76.271 144.400 C 76.132 144.400,77.201 145.570,78.645 147.000 C 80.089 148.430,81.525 149.600,81.835 149.600 C 82.146 149.600,82.400 149.752,82.400 149.937 C 82.400 150.123,83.255 150.708,84.300 151.237 C 85.345 151.767,86.260 152.335,86.333 152.500 C 86.407 152.665,86.866 152.800,87.353 152.800 C 87.841 152.800,88.411 152.949,88.620 153.130 C 88.829 153.312,89.810 153.690,90.800 153.969 C 91.790 154.249,92.913 154.640,93.295 154.839 C 93.677 155.038,94.676 155.200,95.515 155.200 C 96.354 155.200,97.228 155.388,97.458 155.618 C 98.221 156.381,115.435 155.680,117.400 154.806 C 118.256 154.425,119.755 154.163,124.200 153.617 C 125.740 153.428,127.474 153.150,128.053 152.999 C 128.677 152.836,129.217 152.903,129.377 153.162 C 129.525 153.403,130.447 153.600,131.424 153.600 C 132.401 153.600,133.200 153.780,133.200 154.000 C 133.200 154.220,133.425 154.400,133.700 154.400 C 134.906 154.402,137.200 157.281,137.200 158.795 C 137.200 159.238,137.380 159.600,137.600 159.600 C 137.837 159.600,138.000 161.067,138.000 163.200 C 138.000 165.333,137.837 166.800,137.600 166.800 C 137.380 166.800,137.200 167.779,137.200 168.976 C 137.200 170.173,137.020 171.264,136.800 171.400 C 136.580 171.536,136.400 172.357,136.400 173.224 C 136.400 174.091,136.220 174.800,136.000 174.800 C 135.780 174.800,135.600 175.790,135.600 177.000 C 135.600 178.210,135.420 179.200,135.200 179.200 C 134.978 179.200,134.800 180.259,134.800 181.576 C 134.800 182.883,134.620 184.064,134.400 184.200 C 134.166 184.345,134.000 186.663,134.000 189.800 C 134.000 192.937,134.166 195.255,134.400 195.400 C 134.620 195.536,134.800 196.537,134.800 197.624 C 134.800 198.711,134.980 199.600,135.200 199.600 C 135.420 199.600,135.600 200.140,135.600 200.800 C 135.600 201.460,135.780 202.000,136.000 202.000 C 136.220 202.000,136.400 202.439,136.400 202.976 C 136.400 203.513,136.580 204.064,136.800 204.200 C 137.020 204.336,137.200 204.797,137.200 205.224 C 137.200 205.651,137.336 206.000,137.502 206.000 C 137.669 206.000,138.062 206.585,138.375 207.300 C 138.689 208.015,139.453 209.077,140.073 209.660 C 140.693 210.244,141.200 210.932,141.200 211.189 C 141.200 211.447,141.425 211.883,141.700 212.158 C 141.975 212.434,142.650 213.229,143.200 213.926 C 143.750 214.623,144.380 215.198,144.600 215.205 C 144.820 215.212,145.450 215.570,146.000 216.000 C 146.550 216.430,147.405 216.786,147.900 216.791 C 148.395 216.796,148.800 216.980,148.800 217.200 C 148.800 217.438,150.325 217.600,152.576 217.600 C 154.663 217.600,156.463 217.421,156.600 217.200 C 156.736 216.980,157.176 216.800,157.577 216.800 C 158.481 216.800,163.600 211.896,163.600 211.031 C 163.600 210.684,163.780 210.400,164.000 210.400 C 164.220 210.400,164.400 209.860,164.400 209.200 C 164.400 208.540,164.580 208.000,164.800 208.000 C 165.299 208.000,165.340 201.463,164.847 200.495 C 164.652 200.113,164.249 199.260,163.949 198.600 C 163.650 197.940,163.089 197.109,162.703 196.753 C 162.316 196.397,162.000 195.902,162.000 195.653 C 162.000 195.404,161.820 195.200,161.600 195.200 C 161.380 195.200,161.200 194.930,161.200 194.600 C 161.200 194.270,161.065 193.999,160.900 193.997 C 160.735 193.995,160.375 193.509,160.100 192.917 C 159.503 191.632,159.423 186.400,160.000 186.400 C 160.220 186.400,160.400 185.511,160.400 184.424 C 160.400 183.337,160.580 182.336,160.800 182.200 C 161.020 182.064,161.200 181.164,161.200 180.200 C 161.200 179.236,161.380 178.336,161.600 178.200 C 161.820 178.064,162.000 176.973,162.000 175.776 C 162.000 174.579,162.180 173.600,162.400 173.600 C 162.655 173.600,162.800 170.267,162.800 164.400 C 162.800 158.533,162.655 155.200,162.400 155.200 C 162.180 155.200,162.000 154.300,162.000 153.200 C 162.000 152.100,161.820 151.200,161.600 151.200 C 161.380 151.200,161.200 150.660,161.200 150.000 C 161.200 149.340,161.020 148.800,160.800 148.800 C 160.580 148.800,160.400 148.440,160.400 148.000 C 160.400 147.560,160.220 147.200,160.000 147.200 C 159.780 147.200,159.600 146.750,159.600 146.200 C 159.600 145.650,159.440 145.200,159.243 145.200 C 159.047 145.200,158.769 144.732,158.626 144.160 C 158.159 142.302,150.775 134.000,149.589 134.000 C 149.357 134.000,148.780 133.640,148.308 133.200 C 147.836 132.760,147.213 132.400,146.925 132.400 C 146.636 132.400,146.400 132.220,146.400 132.000 C 146.400 131.780,146.040 131.600,145.600 131.600 C 145.160 131.600,144.800 131.420,144.800 131.200 C 144.800 130.980,144.451 130.800,144.024 130.800 C 143.597 130.800,143.136 130.620,143.000 130.400 C 142.864 130.180,142.313 130.000,141.776 130.000 C 141.239 130.000,140.800 129.820,140.800 129.600 C 140.800 129.380,140.206 129.200,139.480 129.200 C 138.754 129.200,137.989 129.037,137.780 128.837 C 136.463 127.578,115.931 127.577,114.620 128.835 C 114.411 129.036,113.477 129.200,112.544 129.200 C 111.611 129.200,110.736 129.380,110.600 129.600 C 110.464 129.820,109.193 130.000,107.776 130.000 C 106.325 130.000,105.200 130.175,105.200 130.400 C 105.200 130.922,102.122 130.922,101.800 130.400 C 101.664 130.180,100.978 129.997,100.276 129.993 C 98.585 129.985,96.085 128.493,95.262 127.000 C 94.898 126.340,94.465 125.740,94.300 125.667 C 94.135 125.593,94.000 124.828,94.000 123.967 C 94.000 123.105,93.820 122.400,93.600 122.400 C 93.079 122.400,93.079 120.122,93.600 119.800 C 93.820 119.664,94.000 118.314,94.000 116.800 C 94.000 115.286,94.180 113.936,94.400 113.800 C 94.620 113.664,94.800 112.764,94.800 111.800 C 94.800 110.836,94.980 109.936,95.200 109.800 C 95.420 109.664,95.600 108.573,95.600 107.376 C 95.600 106.179,95.780 105.200,96.000 105.200 C 96.252 105.200,96.400 102.475,96.400 97.824 C 96.400 93.337,96.243 90.350,96.000 90.200 C 95.780 90.064,95.600 89.074,95.600 88.000 C 95.600 86.926,95.420 85.936,95.200 85.800 C 94.980 85.664,94.800 85.023,94.800 84.376 C 94.800 83.729,94.620 83.200,94.400 83.200 C 94.180 83.200,94.000 82.660,94.000 82.000 C 94.000 81.340,93.820 80.800,93.600 80.800 C 93.380 80.800,93.200 80.440,93.200 80.000 C 93.200 79.560,93.020 79.200,92.800 79.200 C 92.580 79.200,92.400 78.855,92.400 78.433 C 92.400 78.012,92.265 77.607,92.100 77.533 C 91.935 77.460,91.440 76.689,91.000 75.820 C 90.071 73.985,83.049 66.800,82.185 66.800 C 81.863 66.800,81.600 66.620,81.600 66.400 C 81.600 66.180,81.240 66.000,80.800 66.000 C 80.360 66.000,80.000 65.820,80.000 65.600 C 80.000 65.380,79.640 65.200,79.200 65.200 C 78.760 65.200,78.400 65.020,78.400 64.800 C 78.400 64.580,78.040 64.400,77.600 64.400 C 77.160 64.400,76.800 64.220,76.800 64.000 C 76.800 63.780,76.451 63.600,76.024 63.600 C 75.597 63.600,75.136 63.420,75.000 63.200 C 74.864 62.980,74.234 62.800,73.600 62.800 C 72.966 62.800,72.351 62.644,72.233 62.453 C 71.389 61.088,48.054 61.075,46.620 62.439 C 46.411 62.637,45.466 62.800,44.520 62.800 C 43.574 62.800,42.800 62.980,42.800 63.200 C 42.800 63.446,40.800 63.600,37.600 63.600 C 34.400 63.600,32.400 63.446,32.400 63.200 C 32.400 62.980,32.117 62.800,31.771 62.800 C 31.426 62.800,30.908 62.575,30.620 62.300 C 30.333 62.025,29.716 61.535,29.249 61.212 C 28.782 60.888,28.400 60.393,28.400 60.112 C 28.400 59.830,28.220 59.600,28.000 59.600 C 27.780 59.600,27.600 59.150,27.600 58.600 C 27.600 58.050,27.420 57.600,27.200 57.600 C 26.963 57.600,26.800 56.133,26.800 54.000 C 26.800 51.867,26.963 50.400,27.200 50.400 C 27.422 50.400,27.600 49.333,27.600 48.000 C 27.600 46.667,27.778 45.600,28.000 45.600 C 28.220 45.600,28.400 44.891,28.400 44.024 C 28.400 43.157,28.580 42.336,28.800 42.200 C 29.020 42.064,29.200 41.063,29.200 39.976 C 29.200 38.889,29.380 38.000,29.600 38.000 C 29.822 38.000,30.000 36.941,30.000 35.624 C 30.000 34.317,30.180 33.136,30.400 33.000 C 30.636 32.854,30.800 30.463,30.800 27.176 C 30.800 23.725,30.648 21.600,30.400 21.600 C 30.180 21.600,30.000 20.700,30.000 19.600 C 30.000 18.500,29.820 17.600,29.600 17.600 C 29.380 17.600,29.200 16.981,29.200 16.224 C 29.200 15.467,29.020 14.736,28.800 14.600 C 28.580 14.464,28.400 14.003,28.400 13.576 C 28.400 13.149,28.220 12.800,28.000 12.800 C 27.780 12.800,27.600 12.440,27.600 12.000 C 27.600 11.560,27.420 11.200,27.200 11.200 C 26.980 11.200,26.800 10.840,26.800 10.400 C 26.800 9.960,26.620 9.600,26.400 9.600 C 26.180 9.600,26.000 9.330,26.000 9.000 C 26.000 8.670,25.842 8.400,25.649 8.400 C 25.455 8.400,25.065 7.839,24.781 7.154 C 24.157 5.647,19.880 1.200,19.055 1.200 C 18.732 1.200,18.392 0.975,18.301 0.700 C 18.133 0.196,9.924 -0.134,7.535 0.267 M375.600 235.200 C 375.600 235.420,375.240 235.600,374.800 235.600 C 374.360 235.600,374.000 235.780,374.000 236.000 C 374.000 236.220,373.716 236.400,373.369 236.400 C 373.021 236.400,372.046 237.120,371.200 238.000 C 370.354 238.880,369.379 239.600,369.031 239.600 C 368.684 239.600,368.400 239.780,368.400 240.000 C 368.400 240.242,366.675 240.400,364.024 240.400 C 361.537 240.400,359.540 240.227,359.400 240.000 C 359.264 239.780,358.263 239.600,357.176 239.600 C 356.089 239.600,355.200 239.420,355.200 239.200 C 355.200 238.980,354.300 238.800,353.200 238.800 C 352.100 238.800,351.200 238.620,351.200 238.400 C 351.200 238.178,350.133 238.000,348.800 238.000 C 347.467 238.000,346.400 237.822,346.400 237.600 C 346.400 237.348,343.741 237.200,339.224 237.200 C 334.871 237.200,331.950 237.357,331.800 237.600 C 331.664 237.820,330.653 238.000,329.553 238.000 C 328.321 238.000,327.648 238.154,327.800 238.400 C 327.949 238.642,327.404 238.800,326.424 238.800 C 325.531 238.800,324.800 238.980,324.800 239.200 C 324.800 239.420,324.440 239.600,324.000 239.600 C 323.560 239.600,323.200 239.780,323.200 240.000 C 323.200 240.220,322.660 240.400,322.000 240.400 C 321.340 240.400,320.800 240.580,320.800 240.800 C 320.800 241.020,320.440 241.200,320.000 241.200 C 319.560 241.200,319.200 241.345,319.200 241.523 C 319.200 241.701,318.480 242.164,317.600 242.552 C 316.720 242.940,316.000 243.425,316.000 243.629 C 316.000 243.833,315.759 244.000,315.464 244.000 C 314.236 244.000,309.767 249.109,308.029 252.500 C 307.719 253.105,307.315 253.600,307.132 253.600 C 306.950 253.600,306.800 253.949,306.800 254.376 C 306.800 254.803,306.620 255.264,306.400 255.400 C 306.180 255.536,306.000 256.087,306.000 256.624 C 306.000 257.161,305.820 257.600,305.600 257.600 C 305.380 257.600,305.200 257.960,305.200 258.400 C 305.200 258.840,305.020 259.200,304.800 259.200 C 304.580 259.200,304.400 259.830,304.400 260.600 C 304.400 261.370,304.220 262.000,304.000 262.000 C 303.780 262.000,303.600 262.900,303.600 264.000 C 303.600 265.100,303.420 266.000,303.200 266.000 C 302.948 266.000,302.800 268.725,302.800 273.376 C 302.800 277.863,302.957 280.850,303.200 281.000 C 303.420 281.136,303.600 282.306,303.600 283.600 C 303.600 284.894,303.780 286.064,304.000 286.200 C 304.220 286.336,304.400 287.247,304.400 288.224 C 304.400 289.201,304.580 290.000,304.800 290.000 C 305.029 290.000,305.200 291.200,305.200 292.800 C 305.200 294.400,305.371 295.600,305.600 295.600 C 305.820 295.600,306.000 296.140,306.000 296.800 C 306.000 297.460,305.820 298.000,305.600 298.000 C 305.380 298.000,305.200 298.900,305.200 300.000 C 305.200 301.100,305.020 302.000,304.800 302.000 C 304.580 302.000,304.400 302.278,304.400 302.618 C 304.400 302.958,303.958 303.678,303.418 304.218 C 302.878 304.758,302.158 305.200,301.818 305.200 C 301.478 305.200,301.200 305.380,301.200 305.600 C 301.200 305.820,300.761 306.000,300.224 306.000 C 299.687 306.000,299.136 306.180,299.000 306.400 C 298.864 306.620,297.143 306.800,295.176 306.800 C 293.059 306.800,291.600 306.637,291.600 306.400 C 291.600 306.180,290.610 306.000,289.400 306.000 C 288.190 306.000,287.200 305.820,287.200 305.600 C 287.200 305.380,286.300 305.200,285.200 305.200 C 284.100 305.200,283.200 305.020,283.200 304.800 C 283.200 304.567,281.867 304.400,280.000 304.400 C 278.133 304.400,276.800 304.233,276.800 304.000 C 276.800 303.758,275.075 303.600,272.424 303.600 C 269.937 303.600,267.940 303.773,267.800 304.000 C 267.664 304.220,266.404 304.400,265.000 304.400 C 263.596 304.400,262.336 304.580,262.200 304.800 C 262.064 305.020,261.333 305.200,260.576 305.200 C 259.819 305.200,259.200 305.380,259.200 305.600 C 259.200 305.820,258.660 306.000,258.000 306.000 C 257.340 306.000,256.800 306.180,256.800 306.400 C 256.800 306.620,256.440 306.800,256.000 306.800 C 255.560 306.800,255.200 306.980,255.200 307.200 C 255.200 307.420,254.840 307.600,254.400 307.600 C 253.960 307.600,253.600 307.780,253.600 308.000 C 253.600 308.220,253.321 308.400,252.980 308.400 C 252.230 308.400,250.047 309.495,249.291 310.252 C 248.990 310.553,248.614 310.800,248.456 310.800 C 247.318 310.800,241.200 318.203,241.200 319.581 C 241.200 319.811,241.020 320.000,240.800 320.000 C 240.580 320.000,240.400 320.360,240.400 320.800 C 240.400 321.240,240.220 321.600,240.000 321.600 C 239.780 321.600,239.600 321.960,239.600 322.400 C 239.600 322.840,239.420 323.200,239.200 323.200 C 238.980 323.200,238.800 323.740,238.800 324.400 C 238.800 325.060,238.620 325.600,238.400 325.600 C 238.180 325.600,238.000 326.050,238.000 326.600 C 238.000 327.150,237.820 327.600,237.600 327.600 C 237.380 327.600,237.200 328.309,237.200 329.176 C 237.200 330.043,237.020 330.864,236.800 331.000 C 236.552 331.153,236.400 334.737,236.400 340.424 C 236.400 346.275,236.545 349.600,236.800 349.600 C 237.020 349.600,237.200 350.590,237.200 351.800 C 237.200 353.010,237.380 354.000,237.600 354.000 C 237.820 354.000,238.000 354.900,238.000 356.000 C 238.000 357.100,238.180 358.000,238.400 358.000 C 238.644 358.000,238.800 359.867,238.800 362.800 C 238.800 365.733,238.644 367.600,238.400 367.600 C 238.180 367.600,238.000 367.960,238.000 368.400 C 238.000 368.840,237.820 369.200,237.600 369.200 C 237.380 369.200,237.200 369.494,237.200 369.853 C 237.200 370.663,235.239 372.399,234.324 372.400 C 233.952 372.400,233.536 372.580,233.400 372.800 C 233.257 373.032,231.070 373.200,228.200 373.200 C 225.330 373.200,223.143 373.032,223.000 372.800 C 222.864 372.580,221.953 372.400,220.976 372.400 C 219.999 372.400,219.200 372.220,219.200 372.000 C 219.200 371.780,218.390 371.600,217.400 371.600 C 216.410 371.600,215.600 371.420,215.600 371.200 C 215.600 370.980,214.610 370.800,213.400 370.800 C 212.190 370.800,211.200 370.620,211.200 370.400 C 211.200 370.146,208.075 370.000,202.624 370.000 C 197.337 370.000,193.952 370.153,193.800 370.400 C 193.664 370.620,192.843 370.800,191.976 370.800 C 191.109 370.800,190.400 370.980,190.400 371.200 C 190.400 371.420,190.040 371.600,189.600 371.600 C 189.160 371.600,188.800 371.780,188.800 372.000 C 188.800 372.220,188.260 372.400,187.600 372.400 C 186.940 372.400,186.400 372.580,186.400 372.800 C 186.400 373.020,186.080 373.200,185.688 373.200 C 185.297 373.200,184.717 373.560,184.400 374.000 C 184.083 374.440,183.580 374.800,183.283 374.800 C 182.986 374.800,182.508 375.025,182.220 375.300 C 181.933 375.575,181.278 376.070,180.764 376.400 C 179.023 377.519,176.503 380.231,175.649 381.903 C 174.780 383.608,174.356 391.823,175.100 392.567 C 175.265 392.732,175.415 392.987,175.434 393.133 C 175.637 394.751,179.053 398.800,180.215 398.800 C 180.500 398.800,180.808 399.025,180.900 399.300 C 181.245 400.335,193.381 399.973,194.313 398.900 C 194.742 398.405,195.271 398.000,195.488 398.000 C 195.704 398.000,196.446 397.460,197.137 396.800 C 197.952 396.022,198.807 395.600,199.573 395.600 C 200.222 395.600,200.864 395.420,201.000 395.200 C 201.136 394.980,201.777 394.800,202.424 394.800 C 203.071 394.800,203.600 394.980,203.600 395.200 C 203.600 395.422,204.667 395.600,206.000 395.600 C 207.333 395.600,208.400 395.778,208.400 396.000 C 208.400 396.220,209.199 396.400,210.176 396.400 C 211.153 396.400,212.064 396.580,212.200 396.800 C 212.336 397.020,213.236 397.200,214.200 397.200 C 215.164 397.200,216.064 397.380,216.200 397.600 C 216.336 397.820,217.596 398.000,219.000 398.000 C 220.404 398.000,221.664 398.180,221.800 398.400 C 221.946 398.637,224.396 398.800,227.800 398.800 C 231.204 398.800,233.654 398.637,233.800 398.400 C 233.936 398.180,235.016 398.000,236.200 398.000 C 237.384 398.000,238.464 397.820,238.600 397.600 C 238.736 397.380,239.467 397.200,240.224 397.200 C 240.981 397.200,241.600 397.020,241.600 396.800 C 241.600 396.580,242.039 396.400,242.576 396.400 C 243.113 396.400,243.664 396.220,243.800 396.000 C 243.936 395.780,244.397 395.600,244.824 395.600 C 245.251 395.600,245.600 395.420,245.600 395.200 C 245.600 394.980,245.960 394.800,246.400 394.800 C 246.840 394.800,247.200 394.620,247.200 394.400 C 247.200 394.180,247.520 394.000,247.912 394.000 C 248.303 394.000,248.883 393.640,249.200 393.200 C 249.517 392.760,250.014 392.400,250.305 392.400 C 251.391 392.400,257.643 386.227,258.395 384.413 C 258.671 383.746,259.055 383.200,259.249 383.200 C 259.442 383.200,259.600 382.840,259.600 382.400 C 259.600 381.960,259.780 381.600,260.000 381.600 C 260.220 381.600,260.400 381.240,260.400 380.800 C 260.400 380.360,260.580 380.000,260.800 380.000 C 261.020 380.000,261.200 379.460,261.200 378.800 C 261.200 378.140,261.380 377.600,261.600 377.600 C 261.820 377.600,262.000 377.060,262.000 376.400 C 262.000 375.740,262.180 375.200,262.400 375.200 C 262.620 375.200,262.800 374.570,262.800 373.800 C 262.800 373.030,262.980 372.400,263.200 372.400 C 263.425 372.400,263.600 371.275,263.600 369.824 C 263.600 368.407,263.780 367.136,264.000 367.000 C 264.229 366.858,264.400 364.796,264.400 362.176 C 264.400 359.392,264.243 357.600,264.000 357.600 C 263.767 357.600,263.600 356.267,263.600 354.400 C 263.600 352.533,263.433 351.200,263.200 351.200 C 262.980 351.200,262.800 350.300,262.800 349.200 C 262.800 348.100,262.620 347.200,262.400 347.200 C 262.180 347.200,262.000 346.210,262.000 345.000 C 262.000 343.790,261.820 342.800,261.600 342.800 C 261.363 342.800,261.200 341.333,261.200 339.200 C 261.200 337.067,261.363 335.600,261.600 335.600 C 261.820 335.600,262.000 335.145,262.000 334.589 C 262.000 333.361,265.198 330.000,266.366 330.000 C 266.799 330.000,267.264 329.820,267.400 329.600 C 267.540 329.373,269.537 329.200,272.024 329.200 C 274.675 329.200,276.400 329.358,276.400 329.600 C 276.400 329.820,277.199 330.000,278.176 330.000 C 279.153 330.000,280.064 330.180,280.200 330.400 C 280.336 330.620,281.427 330.800,282.624 330.800 C 283.821 330.800,284.800 330.980,284.800 331.200 C 284.800 331.455,288.200 331.600,294.200 331.600 C 300.200 331.600,303.600 331.455,303.600 331.200 C 303.600 330.980,304.410 330.800,305.400 330.800 C 306.390 330.800,307.200 330.620,307.200 330.400 C 307.200 330.180,307.740 330.000,308.400 330.000 C 309.060 330.000,309.600 329.820,309.600 329.600 C 309.600 329.380,310.039 329.200,310.576 329.200 C 311.113 329.200,311.664 329.020,311.800 328.800 C 311.936 328.580,312.397 328.400,312.824 328.400 C 313.251 328.400,313.600 328.220,313.600 328.000 C 313.600 327.780,313.836 327.600,314.125 327.600 C 314.413 327.600,315.036 327.240,315.508 326.800 C 315.980 326.360,316.553 326.000,316.780 326.000 C 317.836 326.000,324.329 319.522,324.892 317.907 C 325.105 317.298,325.441 316.800,325.639 316.800 C 325.838 316.800,326.000 316.440,326.000 316.000 C 326.000 315.560,326.180 315.200,326.400 315.200 C 326.620 315.200,326.800 314.840,326.800 314.400 C 326.800 313.960,326.980 313.600,327.200 313.600 C 327.420 313.600,327.600 313.240,327.600 312.800 C 327.600 312.360,327.780 312.000,328.000 312.000 C 328.220 312.000,328.400 311.460,328.400 310.800 C 328.400 310.140,328.580 309.600,328.800 309.600 C 329.020 309.600,329.200 309.071,329.200 308.424 C 329.200 307.777,329.380 307.136,329.600 307.000 C 329.820 306.864,330.000 305.863,330.000 304.776 C 330.000 303.689,330.180 302.800,330.400 302.800 C 330.652 302.800,330.800 300.067,330.800 295.400 C 330.800 290.733,330.652 288.000,330.400 288.000 C 330.178 288.000,330.000 286.933,330.000 285.600 C 330.000 284.267,329.822 283.200,329.600 283.200 C 329.380 283.200,329.200 282.300,329.200 281.200 C 329.200 280.100,329.020 279.200,328.800 279.200 C 328.569 279.200,328.400 277.933,328.400 276.200 C 328.400 274.467,328.231 273.200,328.000 273.200 C 327.780 273.200,327.600 272.660,327.600 272.000 C 327.600 271.340,327.780 270.800,328.000 270.800 C 328.220 270.800,328.400 270.168,328.400 269.395 C 328.400 267.267,331.033 263.600,332.560 263.600 C 332.912 263.600,333.200 263.420,333.200 263.200 C 333.200 262.980,334.010 262.800,335.000 262.800 C 335.990 262.800,336.800 262.620,336.800 262.400 C 336.800 262.180,337.250 262.000,337.800 262.000 C 338.350 262.000,338.800 262.180,338.800 262.400 C 338.800 262.629,340.000 262.800,341.600 262.800 C 343.200 262.800,344.400 262.971,344.400 263.200 C 344.400 263.420,345.199 263.600,346.176 263.600 C 347.153 263.600,348.064 263.780,348.200 264.000 C 348.336 264.220,349.247 264.400,350.224 264.400 C 351.201 264.400,352.000 264.580,352.000 264.800 C 352.000 265.022,353.067 265.200,354.400 265.200 C 355.733 265.200,356.800 265.378,356.800 265.600 C 356.800 265.853,359.592 266.000,364.376 266.000 C 368.996 266.000,372.049 265.844,372.200 265.600 C 372.336 265.380,373.069 265.200,373.829 265.200 C 374.589 265.200,375.568 265.020,376.005 264.800 C 376.442 264.580,377.158 264.220,377.595 264.000 C 378.032 263.780,378.752 263.600,379.195 263.600 C 379.638 263.600,380.000 263.420,380.000 263.200 C 380.000 262.980,380.360 262.800,380.800 262.800 C 381.240 262.800,381.600 262.620,381.600 262.400 C 381.600 262.180,381.836 262.000,382.125 262.000 C 382.413 262.000,383.036 261.640,383.508 261.200 C 383.980 260.760,384.538 260.400,384.748 260.400 C 385.756 260.400,391.185 254.688,391.433 253.367 C 391.574 252.615,391.849 252.000,392.045 252.000 C 392.240 252.000,392.400 250.200,392.400 248.000 C 392.400 245.600,392.240 244.000,392.000 244.000 C 391.780 244.000,391.600 243.578,391.600 243.061 C 391.600 242.545,391.240 241.707,390.800 241.200 C 390.360 240.693,390.000 240.134,390.000 239.959 C 390.000 239.463,387.460 237.204,386.900 237.202 C 386.625 237.201,386.400 237.020,386.400 236.800 C 386.400 236.580,386.130 236.400,385.800 236.400 C 385.470 236.400,385.200 236.220,385.200 236.000 C 385.200 235.780,384.750 235.600,384.200 235.600 C 383.650 235.600,383.200 235.420,383.200 235.200 C 383.200 234.961,381.667 234.800,379.400 234.800 C 377.133 234.800,375.600 234.961,375.600 235.200 " stroke="none" fill="#fcec64" fill-rule="evenodd"></path><path id="path1" d="M223.400 40.800 C 223.264 41.020,222.803 41.200,222.376 41.200 C 221.949 41.200,221.600 41.368,221.600 41.573 C 221.600 41.778,221.196 42.074,220.703 42.231 C 219.660 42.562,217.600 44.407,217.600 45.010 C 217.600 45.238,217.240 45.683,216.800 46.000 C 216.360 46.317,216.000 46.897,216.000 47.288 C 216.000 47.680,215.850 48.000,215.668 48.000 C 215.485 48.000,215.080 48.495,214.768 49.100 C 214.456 49.705,214.106 50.290,213.990 50.400 C 213.874 50.510,213.154 51.410,212.391 52.400 C 210.844 54.405,209.350 56.000,209.019 56.000 C 208.899 56.000,208.059 56.720,207.152 57.600 C 206.245 58.480,205.277 59.200,205.001 59.200 C 204.724 59.200,204.274 59.470,204.000 59.800 C 203.726 60.130,203.164 60.400,202.751 60.400 C 202.338 60.400,202.000 60.580,202.000 60.800 C 202.000 61.020,201.640 61.200,201.200 61.200 C 200.760 61.200,200.399 61.335,200.397 61.500 C 200.393 61.901,198.419 62.800,197.544 62.800 C 197.161 62.800,196.736 62.980,196.600 63.200 C 196.464 63.420,195.913 63.600,195.376 63.600 C 194.839 63.600,194.400 63.780,194.400 64.000 C 194.400 64.220,193.680 64.400,192.800 64.400 C 191.920 64.400,191.200 64.580,191.200 64.800 C 191.200 65.340,178.534 65.340,178.200 64.800 C 178.064 64.580,177.432 64.400,176.795 64.400 C 176.159 64.400,175.134 64.198,174.519 63.950 C 173.903 63.703,173.040 63.373,172.600 63.218 C 171.854 62.954,167.066 60.752,165.505 59.955 C 163.418 58.888,155.263 59.825,153.953 61.281 C 153.597 61.676,153.078 62.000,152.800 62.000 C 152.183 62.000,150.401 64.005,150.400 64.700 C 150.400 64.975,150.265 65.201,150.100 65.203 C 149.741 65.207,148.800 67.144,148.800 67.880 C 148.800 68.166,148.620 68.400,148.400 68.400 C 148.161 68.400,148.000 69.933,148.000 72.200 C 148.000 74.467,148.161 76.000,148.400 76.000 C 148.620 76.000,148.800 76.234,148.800 76.520 C 148.800 77.256,149.741 79.193,150.100 79.197 C 150.265 79.199,150.400 79.491,150.400 79.846 C 150.400 80.593,153.103 83.200,153.878 83.200 C 154.165 83.200,154.400 83.380,154.400 83.600 C 154.400 83.820,154.760 84.000,155.200 84.000 C 155.640 84.000,156.000 84.180,156.000 84.400 C 156.000 84.620,156.360 84.800,156.800 84.800 C 157.240 84.800,157.600 84.980,157.600 85.200 C 157.600 85.420,157.960 85.600,158.400 85.600 C 158.840 85.600,159.200 85.780,159.200 86.000 C 159.200 86.220,159.472 86.400,159.805 86.400 C 160.138 86.400,160.768 86.580,161.205 86.800 C 161.642 87.020,162.358 87.380,162.795 87.600 C 163.232 87.820,163.941 88.000,164.371 88.000 C 164.801 88.000,165.264 88.180,165.400 88.400 C 165.536 88.620,166.166 88.800,166.800 88.800 C 167.434 88.800,168.064 88.980,168.200 89.200 C 168.336 89.420,169.157 89.600,170.024 89.600 C 170.891 89.600,171.600 89.763,171.600 89.963 C 171.600 90.803,191.418 91.613,192.995 90.838 C 193.438 90.620,194.610 90.348,195.600 90.234 C 199.294 89.806,200.811 89.506,201.026 89.158 C 201.148 88.961,201.766 88.800,202.400 88.800 C 203.034 88.800,203.664 88.620,203.800 88.400 C 203.936 88.180,204.399 88.000,204.829 88.000 C 205.259 88.000,205.923 87.835,206.305 87.634 C 206.687 87.432,207.720 86.962,208.600 86.590 C 209.480 86.218,210.723 85.662,211.361 85.356 C 212.000 85.050,212.765 84.800,213.061 84.800 C 213.358 84.800,213.600 84.620,213.600 84.400 C 213.600 84.180,213.836 84.000,214.125 84.000 C 214.413 84.000,215.036 83.640,215.508 83.200 C 215.980 82.760,216.644 82.400,216.983 82.400 C 217.322 82.400,217.600 82.220,217.600 82.000 C 217.600 81.780,217.836 81.600,218.125 81.600 C 218.413 81.600,219.036 81.240,219.508 80.800 C 219.980 80.360,220.554 80.000,220.783 80.000 C 221.012 80.000,221.200 79.820,221.200 79.600 C 221.200 79.380,221.388 79.200,221.618 79.200 C 221.848 79.200,222.458 78.795,222.972 78.300 C 223.487 77.805,224.578 76.860,225.396 76.200 C 227.602 74.420,233.200 68.803,233.200 68.369 C 233.200 68.162,233.740 67.428,234.400 66.737 C 235.060 66.046,235.600 65.278,235.600 65.029 C 235.600 64.780,235.960 64.317,236.400 64.000 C 236.840 63.683,237.200 63.103,237.200 62.712 C 237.200 62.320,237.358 62.000,237.551 62.000 C 237.745 62.000,238.127 61.460,238.400 60.800 C 238.673 60.140,239.055 59.600,239.249 59.600 C 239.442 59.600,239.600 59.251,239.600 58.824 C 239.600 58.397,239.760 57.948,239.956 57.827 C 240.748 57.338,241.176 52.123,240.616 49.800 C 239.614 45.650,235.642 41.200,232.939 41.200 C 232.642 41.200,232.400 41.020,232.400 40.800 C 232.400 40.558,230.675 40.400,228.024 40.400 C 225.537 40.400,223.540 40.573,223.400 40.800 M312.209 94.385 C 312.068 94.613,311.440 94.800,310.814 94.800 C 308.517 94.800,302.800 98.983,302.800 100.664 C 302.800 100.959,302.620 101.200,302.400 101.200 C 302.180 101.200,302.000 101.560,302.000 102.000 C 302.000 102.440,301.820 102.800,301.600 102.800 C 301.359 102.800,301.200 104.459,301.200 106.976 C 301.200 109.329,301.375 111.261,301.600 111.400 C 301.820 111.536,302.000 112.047,302.000 112.535 C 302.000 113.024,302.360 113.683,302.800 114.000 C 303.240 114.317,303.600 114.815,303.600 115.106 C 303.600 115.779,305.071 117.230,306.500 117.968 C 307.105 118.280,307.600 118.685,307.600 118.868 C 307.600 119.050,308.039 119.200,308.576 119.200 C 309.113 119.200,309.664 119.380,309.800 119.600 C 309.952 119.847,313.337 120.000,318.624 120.000 C 324.075 120.000,327.200 120.146,327.200 120.400 C 327.200 120.620,327.909 120.800,328.776 120.800 C 329.643 120.800,330.464 120.980,330.600 121.200 C 330.736 121.420,331.276 121.600,331.800 121.600 C 332.324 121.600,332.864 121.780,333.000 122.000 C 333.136 122.220,333.597 122.400,334.024 122.400 C 334.451 122.400,334.800 122.580,334.800 122.800 C 334.800 123.020,335.073 123.200,335.407 123.200 C 336.124 123.200,340.140 125.225,340.333 125.684 C 340.407 125.858,340.739 126.000,341.073 126.000 C 341.406 126.000,342.183 126.540,342.800 127.200 C 343.417 127.860,344.033 128.400,344.169 128.400 C 344.554 128.400,348.800 132.738,348.800 133.132 C 348.800 133.324,349.340 134.046,350.000 134.737 C 350.660 135.428,351.200 136.225,351.200 136.508 C 351.200 136.791,351.560 137.283,352.000 137.600 C 352.440 137.917,352.800 138.497,352.800 138.888 C 352.800 139.280,352.980 139.600,353.200 139.600 C 353.420 139.600,353.600 139.960,353.600 140.400 C 353.600 140.840,353.780 141.200,354.000 141.200 C 354.220 141.200,354.400 141.650,354.400 142.200 C 354.400 142.750,354.580 143.200,354.800 143.200 C 355.020 143.200,355.200 143.639,355.200 144.176 C 355.200 144.713,355.380 145.264,355.600 145.400 C 355.820 145.536,356.000 146.177,356.000 146.824 C 356.000 147.471,356.180 148.000,356.400 148.000 C 356.620 148.000,356.800 148.900,356.800 150.000 C 356.800 151.100,356.980 152.000,357.200 152.000 C 357.420 152.000,357.600 152.540,357.600 153.200 C 357.600 153.860,357.780 154.400,358.000 154.400 C 358.220 154.400,358.400 154.676,358.400 155.014 C 358.400 156.378,361.058 159.600,362.183 159.600 C 362.522 159.600,362.800 159.780,362.800 160.000 C 362.800 160.220,363.070 160.400,363.400 160.400 C 363.730 160.400,364.000 160.580,364.000 160.800 C 364.000 161.020,364.439 161.200,364.976 161.200 C 365.513 161.200,366.064 161.380,366.200 161.600 C 366.336 161.820,367.866 162.000,369.600 162.000 C 371.334 162.000,372.864 161.820,373.000 161.600 C 373.136 161.380,373.687 161.200,374.224 161.200 C 374.761 161.200,375.200 161.020,375.200 160.800 C 375.200 160.580,375.476 160.400,375.814 160.400 C 376.756 160.400,380.800 156.621,380.800 155.741 C 380.800 155.443,380.980 155.200,381.200 155.200 C 381.420 155.200,381.600 154.750,381.600 154.200 C 381.600 153.650,381.780 153.200,382.000 153.200 C 382.241 153.200,382.400 151.533,382.400 149.000 C 382.400 146.467,382.241 144.800,382.000 144.800 C 381.780 144.800,381.600 143.990,381.600 143.000 C 381.600 142.010,381.420 141.200,381.200 141.200 C 380.980 141.200,380.800 140.480,380.800 139.600 C 380.800 138.720,380.620 138.000,380.400 138.000 C 380.180 138.000,380.000 137.460,380.000 136.800 C 380.000 136.140,379.820 135.600,379.600 135.600 C 379.380 135.600,379.200 135.060,379.200 134.400 C 379.200 133.740,379.020 133.200,378.800 133.200 C 378.580 133.200,378.400 132.840,378.400 132.400 C 378.400 131.960,378.220 131.600,378.000 131.600 C 377.780 131.600,377.600 131.240,377.600 130.800 C 377.600 130.360,377.420 130.000,377.200 130.000 C 376.980 130.000,376.800 129.766,376.800 129.480 C 376.800 128.744,375.859 126.807,375.500 126.803 C 375.335 126.801,375.200 126.574,375.200 126.297 C 375.200 125.656,373.269 122.011,372.547 121.289 C 372.246 120.989,372.000 120.584,372.000 120.390 C 372.000 120.195,371.550 119.586,371.000 119.036 C 370.450 118.486,370.000 117.858,370.000 117.641 C 370.000 116.739,360.374 107.600,359.424 107.600 C 359.110 107.600,358.740 107.240,358.600 106.800 C 358.460 106.360,358.088 106.000,357.773 106.000 C 357.458 106.000,357.200 105.820,357.200 105.600 C 357.200 105.380,356.970 105.200,356.688 105.200 C 356.407 105.200,355.917 104.840,355.600 104.400 C 355.283 103.960,354.786 103.600,354.495 103.600 C 354.204 103.600,353.580 103.240,353.108 102.800 C 352.636 102.360,352.013 102.000,351.725 102.000 C 351.436 102.000,351.200 101.820,351.200 101.600 C 351.200 101.380,350.840 101.200,350.400 101.200 C 349.960 101.200,349.600 101.020,349.600 100.800 C 349.600 100.580,349.240 100.400,348.800 100.400 C 348.360 100.400,348.000 100.220,348.000 100.000 C 348.000 99.780,347.640 99.600,347.200 99.600 C 346.760 99.600,346.400 99.420,346.400 99.200 C 346.400 98.980,345.860 98.800,345.200 98.800 C 344.540 98.800,344.000 98.620,344.000 98.400 C 344.000 98.180,343.640 98.000,343.200 98.000 C 342.760 98.000,342.400 97.820,342.400 97.600 C 342.400 97.380,341.860 97.200,341.200 97.200 C 340.540 97.200,340.000 97.020,340.000 96.800 C 340.000 96.580,339.471 96.400,338.824 96.400 C 338.177 96.400,337.536 96.220,337.400 96.000 C 337.264 95.780,336.443 95.600,335.576 95.600 C 334.709 95.600,334.000 95.437,334.000 95.237 C 334.000 94.384,312.724 93.552,312.209 94.385 M203.800 241.974 C 200.009 243.027,193.968 245.825,192.468 247.222 C 192.009 247.650,191.396 248.000,191.105 248.000 C 190.814 248.000,190.317 248.360,190.000 248.800 C 189.683 249.240,189.175 249.600,188.872 249.600 C 188.569 249.600,187.817 250.140,187.200 250.800 C 186.583 251.460,185.880 252.000,185.638 252.000 C 185.034 252.000,176.841 260.244,175.600 262.099 C 175.050 262.922,174.465 263.596,174.300 263.597 C 174.135 263.599,174.000 263.920,174.000 264.312 C 174.000 264.703,173.640 265.283,173.200 265.600 C 172.760 265.917,172.400 266.457,172.400 266.800 C 172.400 267.143,172.040 267.683,171.600 268.000 C 171.160 268.317,170.800 268.897,170.800 269.288 C 170.800 269.680,170.620 270.000,170.400 270.000 C 170.180 270.000,170.000 270.360,170.000 270.800 C 170.000 271.240,169.820 271.600,169.600 271.600 C 169.380 271.600,169.200 271.960,169.200 272.400 C 169.200 272.840,169.020 273.200,168.800 273.200 C 168.580 273.200,168.400 273.560,168.400 274.000 C 168.400 274.440,168.220 274.800,168.000 274.800 C 167.780 274.800,167.600 275.160,167.600 275.600 C 167.600 276.040,167.420 276.400,167.200 276.400 C 166.980 276.400,166.800 276.850,166.800 277.400 C 166.800 277.950,166.620 278.400,166.400 278.400 C 166.180 278.400,166.000 278.929,166.000 279.576 C 166.000 280.223,165.820 280.864,165.600 281.000 C 165.380 281.136,165.200 281.687,165.200 282.224 C 165.200 282.761,165.020 283.200,164.800 283.200 C 164.580 283.200,164.400 283.920,164.400 284.800 C 164.400 285.680,164.220 286.400,164.000 286.400 C 163.780 286.400,163.600 287.285,163.600 288.367 C 163.600 289.448,163.410 290.397,163.178 290.474 C 162.593 290.669,162.590 309.950,163.175 310.535 C 163.409 310.769,163.600 311.813,163.600 312.856 C 163.600 313.899,163.780 314.864,164.000 315.000 C 164.220 315.136,164.400 315.766,164.400 316.400 C 164.400 317.034,164.580 317.664,164.800 317.800 C 165.020 317.936,165.200 318.489,165.200 319.029 C 165.200 319.569,165.365 320.323,165.566 320.705 C 165.768 321.087,166.223 322.069,166.578 322.886 C 167.343 324.646,170.880 328.400,171.774 328.400 C 172.118 328.400,172.400 328.580,172.400 328.800 C 172.400 329.020,172.940 329.200,173.600 329.200 C 174.260 329.200,174.800 329.380,174.800 329.600 C 174.800 329.835,176.200 330.000,178.200 330.000 C 180.200 330.000,181.600 329.835,181.600 329.600 C 181.600 329.380,182.140 329.200,182.800 329.200 C 183.460 329.200,184.000 329.020,184.000 328.800 C 184.000 328.580,184.274 328.400,184.609 328.400 C 187.269 328.400,191.200 321.706,191.200 317.176 C 191.200 315.643,191.042 314.077,190.849 313.695 C 190.265 312.539,189.600 310.196,189.600 309.295 C 189.600 308.829,189.420 308.336,189.200 308.200 C 188.980 308.064,188.800 306.804,188.800 305.400 C 188.800 303.996,188.620 302.736,188.400 302.600 C 188.180 302.464,188.000 301.564,188.000 300.600 C 188.000 299.636,188.180 298.736,188.400 298.600 C 188.620 298.464,188.800 297.193,188.800 295.776 C 188.800 294.325,188.975 293.200,189.200 293.200 C 189.420 293.200,189.600 292.581,189.600 291.824 C 189.600 291.067,189.780 290.336,190.000 290.200 C 190.220 290.064,190.400 289.624,190.400 289.222 C 190.400 288.820,190.669 287.976,190.998 287.346 C 191.326 286.716,191.596 285.885,191.598 285.500 C 191.599 285.115,191.780 284.800,192.000 284.800 C 192.220 284.800,192.400 284.440,192.400 284.000 C 192.400 283.560,192.580 283.200,192.800 283.200 C 193.020 283.200,193.200 282.880,193.200 282.488 C 193.200 282.097,193.560 281.517,194.000 281.200 C 194.440 280.883,194.800 280.375,194.800 280.072 C 194.800 279.769,195.340 279.017,196.000 278.400 C 196.660 277.783,197.200 277.031,197.200 276.728 C 197.200 276.425,197.585 275.912,198.055 275.588 C 198.526 275.265,199.291 274.640,199.756 274.200 C 200.220 273.760,201.274 272.950,202.098 272.400 C 202.921 271.850,203.596 271.265,203.597 271.100 C 203.599 270.935,203.870 270.800,204.200 270.800 C 204.530 270.800,204.800 270.620,204.800 270.400 C 204.800 270.180,205.070 270.000,205.400 270.000 C 205.730 270.000,206.000 269.854,206.000 269.675 C 206.000 269.496,206.630 269.102,207.400 268.800 C 208.170 268.498,208.800 268.104,208.800 267.925 C 208.800 267.746,209.160 267.600,209.600 267.600 C 210.040 267.600,210.400 267.420,210.400 267.200 C 210.400 266.980,210.749 266.800,211.176 266.800 C 211.603 266.800,212.064 266.620,212.200 266.400 C 212.336 266.180,212.847 266.000,213.335 266.000 C 213.824 266.000,214.483 265.640,214.800 265.200 C 215.117 264.760,215.615 264.400,215.906 264.400 C 216.198 264.400,216.878 263.958,217.418 263.418 C 217.958 262.878,218.400 262.198,218.400 261.906 C 218.400 261.615,218.760 261.117,219.200 260.800 C 219.640 260.483,220.000 259.824,220.000 259.335 C 220.000 258.847,220.180 258.336,220.400 258.200 C 220.623 258.062,220.800 256.204,220.800 254.000 C 220.800 251.796,220.623 249.938,220.400 249.800 C 220.180 249.664,220.000 249.203,220.000 248.776 C 220.000 248.349,219.820 248.000,219.600 248.000 C 219.380 248.000,219.200 247.725,219.200 247.389 C 219.200 246.645,216.169 243.578,214.795 242.932 C 210.956 241.126,207.831 240.853,203.800 241.974 M14.400 286.800 C 14.400 287.020,14.040 287.200,13.600 287.200 C 13.160 287.200,12.800 287.380,12.800 287.600 C 12.800 287.820,12.512 288.000,12.160 288.000 C 11.601 288.000,10.786 288.743,8.900 290.975 C 8.625 291.300,8.400 291.754,8.400 291.983 C 8.400 292.212,8.220 292.400,8.000 292.400 C 7.780 292.400,7.600 292.745,7.600 293.167 C 7.600 293.588,7.414 293.995,7.186 294.071 C 6.610 294.263,6.593 303.731,7.168 303.923 C 7.406 304.002,7.600 304.412,7.600 304.833 C 7.600 305.255,7.736 305.600,7.902 305.600 C 8.069 305.600,8.425 306.095,8.694 306.700 C 8.964 307.305,9.638 308.287,10.192 308.883 C 10.746 309.478,11.200 310.243,11.200 310.583 C 11.200 310.922,11.358 311.200,11.551 311.200 C 11.745 311.200,12.127 311.740,12.400 312.400 C 12.673 313.060,13.055 313.600,13.249 313.600 C 13.442 313.600,13.600 313.960,13.600 314.400 C 13.600 314.840,13.780 315.200,14.000 315.200 C 14.220 315.200,14.400 315.740,14.400 316.400 C 14.400 317.060,14.580 317.600,14.800 317.600 C 15.020 317.600,15.200 318.039,15.200 318.576 C 15.200 319.113,15.380 319.664,15.600 319.800 C 15.820 319.936,16.000 320.566,16.000 321.200 C 16.000 321.834,16.180 322.464,16.400 322.600 C 16.620 322.736,16.800 323.816,16.800 325.000 C 16.800 326.184,16.980 327.264,17.200 327.400 C 17.724 327.724,17.724 332.800,17.200 332.800 C 16.974 332.800,16.800 333.933,16.800 335.400 C 16.800 336.867,16.626 338.000,16.400 338.000 C 16.180 338.000,16.000 338.594,16.000 339.320 C 16.000 340.046,15.851 340.811,15.670 341.020 C 15.488 341.229,15.099 342.165,14.806 343.100 C 14.512 344.035,14.121 344.800,13.936 344.800 C 13.751 344.800,13.600 345.160,13.600 345.600 C 13.600 346.040,13.420 346.400,13.200 346.400 C 12.980 346.400,12.800 346.687,12.800 347.038 C 12.800 347.614,11.424 349.903,10.779 350.400 C 10.636 350.510,10.288 351.039,10.006 351.575 C 9.250 353.008,7.657 354.721,2.300 359.862 C 1.695 360.442,1.200 361.146,1.200 361.425 C 1.200 361.705,0.979 362.007,0.709 362.097 C 0.135 362.288,-0.249 370.145,0.176 372.981 C 0.514 375.231,4.857 380.000,6.569 380.000 C 7.136 380.000,7.600 380.180,7.600 380.400 C 7.600 380.643,9.400 380.800,12.200 380.800 C 15.000 380.800,16.800 380.643,16.800 380.400 C 16.800 380.180,17.072 380.000,17.405 380.000 C 18.261 380.000,19.599 379.184,20.850 377.900 C 21.439 377.295,22.042 376.800,22.189 376.800 C 22.525 376.800,27.600 371.721,27.600 371.385 C 27.600 371.249,28.320 370.446,29.200 369.600 C 30.080 368.754,30.800 367.845,30.800 367.578 C 30.800 367.312,31.116 366.803,31.503 366.447 C 31.889 366.091,32.460 365.305,32.770 364.700 C 33.081 364.095,33.485 363.600,33.668 363.600 C 33.850 363.600,34.000 363.240,34.000 362.800 C 34.000 362.360,34.158 362.000,34.351 362.000 C 34.545 362.000,34.927 361.460,35.200 360.800 C 35.473 360.140,35.855 359.600,36.049 359.600 C 36.242 359.600,36.400 359.240,36.400 358.800 C 36.400 358.360,36.580 358.000,36.800 358.000 C 37.020 358.000,37.200 357.651,37.200 357.224 C 37.200 356.797,37.380 356.336,37.600 356.200 C 37.820 356.064,38.000 355.618,38.000 355.210 C 38.000 354.801,38.136 354.407,38.303 354.333 C 38.942 354.053,41.265 346.183,41.485 343.555 C 41.612 342.040,41.870 340.800,42.058 340.800 C 42.246 340.800,42.400 339.011,42.400 336.824 C 42.400 334.604,42.577 332.738,42.800 332.600 C 43.020 332.464,43.200 331.294,43.200 330.000 C 43.200 328.706,43.020 327.536,42.800 327.400 C 42.580 327.264,42.400 325.554,42.400 323.600 C 42.400 321.646,42.247 319.952,42.059 319.837 C 41.872 319.721,41.612 318.356,41.482 316.803 C 41.265 314.217,40.743 311.932,40.018 310.400 C 39.862 310.070,39.485 308.945,39.180 307.900 C 38.875 306.855,38.485 306.000,38.313 306.000 C 38.141 306.000,38.000 305.640,38.000 305.200 C 38.000 304.760,37.820 304.400,37.600 304.400 C 37.380 304.400,37.200 304.040,37.200 303.600 C 37.200 303.160,37.020 302.800,36.800 302.800 C 36.580 302.800,36.400 302.440,36.400 302.000 C 36.400 301.560,36.220 301.200,36.000 301.200 C 35.780 301.200,35.600 300.840,35.600 300.400 C 35.600 299.960,35.420 299.600,35.200 299.600 C 34.980 299.600,34.800 299.240,34.800 298.800 C 34.800 298.360,34.620 298.000,34.400 298.000 C 34.180 298.000,34.000 297.730,34.000 297.400 C 34.000 297.070,33.820 296.800,33.600 296.800 C 33.380 296.800,33.200 296.530,33.200 296.200 C 33.200 295.870,33.020 295.600,32.800 295.600 C 32.580 295.600,32.400 295.330,32.400 295.000 C 32.400 294.670,32.220 294.400,32.000 294.400 C 31.780 294.400,31.600 294.170,31.600 293.888 C 31.600 293.607,31.240 293.117,30.800 292.800 C 30.360 292.483,30.000 292.078,30.000 291.901 C 30.000 291.319,26.435 288.000,25.811 288.000 C 25.475 288.000,25.200 287.820,25.200 287.600 C 25.200 287.380,24.851 287.200,24.424 287.200 C 23.997 287.200,23.536 287.020,23.400 286.800 C 23.260 286.573,21.263 286.400,18.776 286.400 C 16.125 286.400,14.400 286.558,14.400 286.800 " stroke="none" fill="#fc73ec" fill-rule="evenodd"></path><path id="path2" d="M175.500 0.258 C 175.115 0.368,174.800 0.625,174.800 0.829 C 174.800 1.033,174.526 1.200,174.191 1.200 C 173.399 1.200,169.200 5.399,169.200 6.191 C 169.200 6.526,169.020 6.800,168.800 6.800 C 168.580 6.800,168.400 7.160,168.400 7.600 C 168.400 8.040,168.220 8.400,168.000 8.400 C 167.771 8.400,167.597 9.637,167.594 11.300 C 167.590 13.320,167.470 14.018,167.200 13.600 C 166.967 13.239,166.810 13.190,166.806 13.476 C 166.803 13.738,166.980 14.064,167.200 14.200 C 167.420 14.336,167.600 15.337,167.600 16.424 C 167.600 17.511,167.780 18.400,168.000 18.400 C 168.220 18.400,168.400 18.861,168.400 19.424 C 168.400 20.004,168.573 20.340,168.800 20.200 C 169.020 20.064,169.200 20.242,169.200 20.595 C 169.200 20.948,169.640 21.676,170.178 22.214 C 170.716 22.752,171.301 23.427,171.478 23.715 C 171.901 24.400,174.679 26.000,175.446 26.000 C 175.777 26.000,175.958 26.144,175.849 26.320 C 175.741 26.496,176.315 26.684,177.126 26.737 C 177.937 26.791,178.660 27.007,178.733 27.218 C 178.911 27.727,183.484 27.711,183.800 27.200 C 183.936 26.980,184.656 26.800,185.400 26.800 C 186.144 26.800,186.864 26.620,187.000 26.400 C 187.136 26.180,187.514 26.000,187.840 26.000 C 188.167 26.000,188.651 25.826,188.917 25.614 C 191.287 23.720,192.400 22.644,192.400 22.247 C 192.400 21.988,192.760 21.517,193.200 21.200 C 193.640 20.883,194.000 20.224,194.000 19.735 C 194.000 19.247,194.180 18.736,194.400 18.600 C 194.620 18.464,194.800 17.643,194.800 16.776 C 194.800 15.909,194.980 15.200,195.200 15.200 C 195.420 15.200,195.600 14.401,195.600 13.424 C 195.600 12.447,195.420 11.536,195.200 11.400 C 194.980 11.264,194.800 10.533,194.800 9.776 C 194.800 9.019,194.620 8.400,194.400 8.400 C 194.180 8.400,194.000 8.128,194.000 7.795 C 194.000 7.012,193.236 5.691,192.092 4.496 C 191.593 3.975,191.289 3.380,191.416 3.174 C 191.543 2.968,191.367 2.800,191.024 2.800 C 190.681 2.800,190.400 2.650,190.400 2.468 C 190.400 2.285,189.905 1.880,189.300 1.568 C 188.695 1.256,188.072 0.821,187.915 0.601 C 187.622 0.189,176.783 -0.111,175.500 0.258 M289.029 27.616 C 288.164 28.047,287.294 28.400,287.094 28.400 C 286.526 28.400,282.400 32.842,282.400 33.454 C 282.400 33.754,282.220 34.000,282.000 34.000 C 281.780 34.000,281.600 34.349,281.600 34.776 C 281.600 35.203,281.439 35.652,281.242 35.774 C 281.045 35.895,280.782 36.671,280.658 37.497 C 280.533 38.324,280.317 39.654,280.177 40.453 C 280.022 41.342,280.094 42.011,280.362 42.176 C 280.603 42.325,280.800 43.157,280.800 44.024 C 280.800 44.958,280.990 45.600,281.267 45.600 C 281.523 45.600,281.621 45.713,281.483 45.851 C 281.011 46.322,282.851 49.286,284.600 50.873 C 286.732 52.807,287.858 53.599,288.476 53.600 C 288.848 53.600,289.264 53.780,289.400 54.000 C 289.536 54.220,290.166 54.400,290.800 54.400 C 291.434 54.400,292.064 54.580,292.200 54.800 C 292.336 55.020,293.326 55.200,294.400 55.200 C 295.474 55.200,296.464 55.020,296.600 54.800 C 296.736 54.580,297.467 54.400,298.224 54.400 C 298.981 54.400,299.600 54.220,299.600 54.000 C 299.600 53.780,300.050 53.600,300.600 53.600 C 301.150 53.600,301.600 53.420,301.600 53.200 C 301.600 52.980,301.830 52.800,302.112 52.800 C 302.393 52.800,302.883 52.440,303.200 52.000 C 303.517 51.560,304.013 51.200,304.301 51.200 C 304.589 51.200,304.946 50.885,305.093 50.501 C 305.241 50.117,305.779 49.385,306.288 48.875 C 306.798 48.365,307.111 47.780,306.984 47.574 C 306.857 47.368,306.943 47.200,307.176 47.200 C 307.409 47.200,307.600 46.855,307.600 46.433 C 307.600 46.012,307.794 45.602,308.031 45.523 C 309.284 45.105,308.338 35.192,306.900 33.671 C 306.625 33.381,306.400 33.004,306.400 32.834 C 306.400 32.664,305.500 31.586,304.400 30.439 C 303.300 29.292,302.400 28.446,302.400 28.560 C 302.400 28.674,301.519 28.324,300.442 27.783 C 297.819 26.466,291.518 26.374,289.029 27.616 M218.400 127.156 C 218.400 127.307,217.850 127.472,217.179 127.523 C 215.889 127.621,212.293 129.139,212.067 129.681 C 211.993 129.857,211.723 130.002,211.467 130.004 C 211.210 130.007,210.370 130.898,209.600 131.986 C 208.830 133.073,208.065 133.971,207.900 133.981 C 207.735 133.992,207.600 134.360,207.600 134.800 C 207.600 135.240,207.420 135.600,207.200 135.600 C 206.980 135.600,206.800 136.320,206.800 137.200 C 206.800 138.080,206.620 138.800,206.400 138.800 C 206.174 138.800,206.000 139.933,206.000 141.400 C 206.000 142.867,206.174 144.000,206.400 144.000 C 206.620 144.000,206.800 144.619,206.800 145.376 C 206.800 146.133,206.980 146.864,207.200 147.000 C 207.420 147.136,207.600 147.597,207.600 148.024 C 207.600 148.451,207.750 148.800,207.932 148.800 C 208.115 148.800,208.520 149.284,208.832 149.875 C 209.470 151.083,211.069 152.800,211.556 152.800 C 211.732 152.800,212.202 153.160,212.600 153.600 C 212.998 154.040,213.746 154.400,214.262 154.400 C 214.778 154.400,215.200 154.580,215.200 154.800 C 215.200 155.020,216.175 155.200,217.367 155.200 C 218.709 155.200,219.622 155.390,219.767 155.700 C 219.953 156.100,220.047 156.100,220.233 155.700 C 220.377 155.391,221.286 155.200,222.610 155.200 C 223.788 155.200,224.864 155.020,225.000 154.800 C 225.136 154.580,225.597 154.400,226.024 154.400 C 226.451 154.400,226.800 154.220,226.800 154.000 C 226.800 153.780,227.058 153.600,227.374 153.600 C 228.121 153.600,232.400 149.321,232.400 148.574 C 232.400 148.258,232.580 148.000,232.800 148.000 C 233.020 148.000,233.200 147.539,233.200 146.976 C 233.200 146.413,233.360 146.052,233.556 146.173 C 233.756 146.296,233.940 144.297,233.974 141.631 C 234.012 138.686,233.876 136.771,233.618 136.611 C 233.388 136.469,233.200 136.003,233.200 135.576 C 233.200 135.149,233.020 134.800,232.800 134.800 C 232.580 134.800,232.400 134.526,232.400 134.191 C 232.400 133.399,228.201 129.200,227.409 129.200 C 227.074 129.200,226.800 129.020,226.800 128.800 C 226.800 128.580,226.451 128.400,226.024 128.400 C 225.597 128.400,225.151 128.244,225.033 128.053 C 224.699 127.513,218.400 126.661,218.400 127.156 M11.400 156.400 C 11.549 156.642,11.004 156.800,10.024 156.800 C 9.131 156.800,8.400 156.980,8.400 157.200 C 8.400 157.420,8.085 157.613,7.700 157.629 C 7.315 157.645,6.460 158.003,5.800 158.425 C 5.140 158.847,4.195 159.402,3.700 159.660 C 3.205 159.918,2.800 160.330,2.800 160.576 C 2.800 160.822,2.440 161.283,2.000 161.600 C 1.560 161.917,1.200 162.482,1.200 162.855 C 1.200 163.228,0.975 163.608,0.700 163.700 C 0.328 163.824,0.200 165.489,0.200 170.200 C 0.200 174.911,0.328 176.576,0.700 176.700 C 0.975 176.792,1.200 177.126,1.200 177.442 C 1.200 178.210,5.418 182.400,6.191 182.400 C 6.526 182.400,6.800 182.580,6.800 182.800 C 6.800 183.020,7.160 183.200,7.600 183.200 C 8.040 183.200,8.400 183.380,8.400 183.600 C 8.400 183.845,10.333 184.000,13.400 184.000 C 16.467 184.000,18.400 183.845,18.400 183.600 C 18.400 183.380,18.760 183.200,19.200 183.200 C 19.640 183.200,20.000 183.020,20.000 182.800 C 20.000 182.580,20.279 182.400,20.619 182.400 C 21.446 182.400,24.474 179.350,25.385 177.600 C 26.713 175.049,26.800 174.818,26.800 173.829 C 26.800 173.289,26.980 172.736,27.200 172.600 C 27.420 172.464,27.600 171.384,27.600 170.200 C 27.600 169.016,27.420 167.936,27.200 167.800 C 26.980 167.664,26.800 166.843,26.800 165.976 C 26.800 165.109,26.620 164.400,26.400 164.400 C 26.180 164.400,26.000 164.132,26.000 163.805 C 26.000 162.345,21.120 157.600,19.619 157.600 C 19.195 157.600,18.736 157.420,18.600 157.200 C 18.464 156.980,17.643 156.800,16.776 156.800 C 15.909 156.800,15.200 156.620,15.200 156.400 C 15.200 156.180,14.289 156.000,13.176 156.000 C 11.929 156.000,11.248 156.153,11.400 156.400 M384.800 306.478 C 384.800 306.655,384.080 306.800,383.200 306.800 C 382.320 306.800,381.600 306.980,381.600 307.200 C 381.600 307.420,381.351 307.600,381.046 307.600 C 379.422 307.600,374.800 311.452,374.800 312.805 C 374.800 313.022,374.620 313.200,374.400 313.200 C 374.180 313.200,374.000 313.549,374.000 313.976 C 374.000 314.403,373.820 314.864,373.600 315.000 C 373.380 315.136,373.200 315.856,373.200 316.600 C 373.200 317.344,373.020 318.064,372.800 318.200 C 372.580 318.336,372.400 319.326,372.400 320.400 C 372.400 321.474,372.580 322.464,372.800 322.600 C 373.020 322.736,373.200 323.456,373.200 324.200 C 373.200 324.944,373.380 325.664,373.600 325.800 C 373.820 325.936,374.000 326.397,374.000 326.824 C 374.000 327.251,374.168 327.600,374.373 327.600 C 374.578 327.600,374.857 327.951,374.994 328.380 C 375.274 329.263,377.344 331.595,377.860 331.609 C 378.047 331.614,378.650 331.970,379.200 332.400 C 379.750 332.830,380.515 333.186,380.900 333.191 C 381.285 333.196,381.600 333.380,381.600 333.600 C 381.600 333.820,382.309 334.000,383.176 334.000 C 384.043 334.000,384.874 334.197,385.023 334.438 C 385.188 334.704,385.903 334.782,386.847 334.638 C 387.701 334.507,389.120 334.291,390.000 334.158 C 390.880 334.025,391.600 333.755,391.600 333.558 C 391.600 333.361,391.960 333.200,392.400 333.200 C 392.840 333.200,393.200 333.020,393.200 332.800 C 393.200 332.580,393.474 332.400,393.809 332.400 C 394.582 332.400,398.800 328.210,398.800 327.442 C 398.800 327.126,399.025 326.792,399.300 326.700 C 399.672 326.576,399.800 324.911,399.800 320.200 C 399.800 315.489,399.672 313.824,399.300 313.700 C 399.025 313.608,398.800 313.300,398.800 313.015 C 398.800 312.730,398.093 311.800,397.228 310.948 C 395.024 308.776,394.520 308.400,393.817 308.400 C 393.478 308.400,393.200 308.220,393.200 308.000 C 393.200 307.780,392.840 307.600,392.400 307.600 C 391.960 307.600,391.600 307.420,391.600 307.200 C 391.600 306.980,390.689 306.800,389.576 306.800 C 388.270 306.800,387.644 306.652,387.811 306.382 C 387.978 306.112,387.491 305.998,386.435 306.060 C 385.536 306.113,384.800 306.301,384.800 306.478 M110.000 313.200 C 110.000 313.420,109.541 313.600,108.981 313.600 C 105.811 313.600,99.600 319.026,99.600 321.795 C 99.600 322.128,99.420 322.400,99.200 322.400 C 98.980 322.400,98.800 323.300,98.800 324.400 C 98.800 325.500,98.624 326.400,98.410 326.400 C 98.156 326.400,98.156 326.759,98.410 327.426 C 98.624 327.990,98.800 329.340,98.800 330.426 C 98.800 331.512,98.980 332.400,99.200 332.400 C 99.420 332.400,99.600 332.760,99.600 333.200 C 99.600 333.640,99.780 334.000,100.000 334.000 C 100.220 334.000,100.400 334.252,100.400 334.559 C 100.400 335.303,104.091 339.048,105.159 339.387 C 105.621 339.534,106.000 339.852,106.000 340.094 C 106.000 340.335,106.113 340.421,106.251 340.283 C 106.389 340.145,107.010 340.295,107.631 340.616 C 113.135 343.462,125.200 338.246,125.200 333.020 C 125.200 332.679,125.380 332.400,125.600 332.400 C 125.820 332.400,126.000 331.680,126.000 330.800 C 126.000 329.920,126.180 329.200,126.400 329.200 C 126.620 329.200,126.800 328.210,126.800 327.000 C 126.800 325.790,126.620 324.800,126.400 324.800 C 126.180 324.800,126.000 324.080,126.000 323.200 C 126.000 322.320,125.820 321.600,125.600 321.600 C 125.380 321.600,125.200 321.339,125.200 321.020 C 125.200 320.170,123.029 317.126,121.762 316.200 C 121.160 315.760,120.441 315.175,120.163 314.900 C 119.885 314.625,119.404 314.400,119.095 314.400 C 118.786 314.400,118.405 314.271,118.247 314.114 C 117.269 313.136,110.000 312.330,110.000 313.200 M71.600 372.800 C 71.600 373.020,70.880 373.200,70.000 373.200 C 69.120 373.200,68.400 373.380,68.400 373.600 C 68.400 373.820,68.040 374.000,67.600 374.000 C 67.160 374.000,66.800 374.180,66.800 374.400 C 66.800 374.620,66.530 374.800,66.200 374.800 C 65.870 374.800,65.600 374.980,65.600 375.200 C 65.600 375.420,65.418 375.600,65.196 375.600 C 64.624 375.600,62.400 377.792,62.400 378.356 C 62.400 378.614,62.130 378.929,61.800 379.055 C 61.470 379.182,61.200 379.626,61.200 380.043 C 61.200 380.459,61.040 380.800,60.844 380.800 C 60.478 380.800,60.180 382.192,59.743 385.943 C 59.336 389.445,60.843 393.279,63.956 396.659 C 64.392 397.132,64.640 397.627,64.507 397.759 C 64.375 397.892,64.657 398.000,65.133 398.000 C 65.610 398.000,66.000 398.136,66.000 398.302 C 66.000 399.685,80.250 400.653,80.700 399.300 C 80.792 399.025,81.103 398.800,81.393 398.800 C 82.072 398.800,86.093 394.873,85.837 394.460 C 85.730 394.287,85.993 393.893,86.421 393.585 C 86.871 393.260,87.200 392.554,87.200 391.912 C 87.200 391.300,87.380 390.800,87.600 390.800 C 87.840 390.800,88.000 389.208,88.000 386.824 C 88.000 384.604,87.823 382.738,87.600 382.600 C 87.380 382.464,87.200 381.823,87.200 381.176 C 87.200 380.529,87.050 380.000,86.868 380.000 C 86.685 380.000,86.280 379.517,85.968 378.927 C 85.178 377.433,82.344 374.822,81.500 374.810 C 81.115 374.805,80.800 374.620,80.800 374.400 C 80.800 374.180,80.440 374.000,80.000 374.000 C 79.560 374.000,79.200 373.820,79.200 373.600 C 79.200 373.380,78.480 373.200,77.600 373.200 C 76.720 373.200,76.000 373.020,76.000 372.800 C 76.000 372.580,75.010 372.400,73.800 372.400 C 72.590 372.400,71.600 372.580,71.600 372.800 " stroke="none" fill="#7cfcc4" fill-rule="evenodd"></path><path id="path3" d="M370.500 0.271 C 369.785 0.370,369.200 0.619,369.200 0.825 C 369.200 1.031,368.840 1.200,368.400 1.200 C 367.960 1.200,367.600 1.380,367.600 1.600 C 367.600 1.820,367.240 2.000,366.800 2.000 C 366.360 2.000,366.000 2.150,366.000 2.332 C 366.000 2.515,365.508 2.920,364.906 3.232 C 362.658 4.399,358.400 9.211,358.400 10.586 C 358.400 10.924,358.220 11.200,358.000 11.200 C 357.780 11.200,357.600 11.560,357.600 12.000 C 357.600 12.440,357.420 12.800,357.200 12.800 C 356.980 12.800,356.800 13.250,356.800 13.800 C 356.800 14.350,356.620 14.800,356.400 14.800 C 356.180 14.800,356.000 15.610,356.000 16.600 C 356.000 17.590,355.820 18.400,355.600 18.400 C 355.365 18.400,355.200 19.800,355.200 21.800 C 355.200 23.800,355.365 25.200,355.600 25.200 C 355.820 25.200,356.000 26.100,356.000 27.200 C 356.000 28.300,356.180 29.200,356.400 29.200 C 356.620 29.200,356.800 29.639,356.800 30.176 C 356.800 30.713,356.980 31.264,357.200 31.400 C 357.420 31.536,357.600 31.997,357.600 32.424 C 357.600 32.851,357.758 33.200,357.951 33.200 C 358.145 33.200,358.530 33.749,358.808 34.420 C 360.010 37.321,367.599 43.226,370.100 43.206 C 370.485 43.203,370.800 43.380,370.800 43.600 C 370.800 43.820,371.700 44.000,372.800 44.000 C 373.900 44.000,374.800 44.180,374.800 44.400 C 374.800 44.635,376.200 44.800,378.200 44.800 C 380.200 44.800,381.600 44.635,381.600 44.400 C 381.600 44.180,382.399 44.000,383.376 44.000 C 384.353 44.000,385.264 43.820,385.400 43.600 C 385.536 43.380,385.997 43.200,386.424 43.200 C 386.851 43.200,387.200 43.020,387.200 42.800 C 387.200 42.580,387.560 42.400,388.000 42.400 C 388.440 42.400,388.800 42.243,388.800 42.050 C 388.800 41.858,389.308 41.598,389.928 41.474 C 391.178 41.224,395.859 36.862,396.768 35.100 C 397.080 34.495,397.485 34.000,397.668 34.000 C 397.850 34.000,398.000 33.640,398.000 33.200 C 398.000 32.760,398.180 32.400,398.400 32.400 C 398.620 32.400,398.800 32.055,398.800 31.633 C 398.800 31.212,399.025 30.792,399.300 30.700 C 399.679 30.574,399.800 28.488,399.800 22.087 C 399.800 15.863,399.668 13.508,399.300 13.140 C 399.025 12.865,398.800 12.316,398.800 11.920 C 398.800 11.524,398.620 11.200,398.400 11.200 C 398.180 11.200,398.000 10.930,398.000 10.600 C 398.000 10.270,397.820 10.000,397.600 10.000 C 397.380 10.000,397.200 9.730,397.200 9.400 C 397.200 9.070,397.020 8.800,396.800 8.800 C 396.580 8.800,396.400 8.616,396.400 8.391 C 396.400 7.859,392.141 3.600,391.609 3.600 C 391.384 3.600,391.200 3.420,391.200 3.200 C 391.200 2.980,390.930 2.800,390.600 2.800 C 390.270 2.800,390.000 2.620,390.000 2.400 C 390.000 2.180,389.730 2.000,389.400 2.000 C 389.070 2.000,388.800 1.820,388.800 1.600 C 388.800 1.380,388.476 1.200,388.080 1.200 C 387.684 1.200,387.135 0.975,386.860 0.700 C 386.360 0.199,373.468 -0.139,370.500 0.271 M279.400 166.400 C 279.264 166.620,278.544 166.800,277.800 166.800 C 277.056 166.800,276.336 166.980,276.200 167.200 C 276.064 167.420,275.513 167.600,274.976 167.600 C 274.439 167.600,274.000 167.780,274.000 168.000 C 274.000 168.220,273.640 168.400,273.200 168.400 C 272.760 168.400,272.400 168.580,272.400 168.800 C 272.400 169.020,272.165 169.200,271.878 169.200 C 271.410 169.200,270.352 170.036,267.518 172.646 C 266.032 174.014,264.400 175.983,264.400 176.407 C 264.400 176.623,264.253 176.800,264.074 176.800 C 263.615 176.800,262.000 179.925,262.000 180.814 C 262.000 181.220,261.820 181.664,261.600 181.800 C 261.380 181.936,261.200 182.811,261.200 183.744 C 261.200 184.677,261.004 185.636,260.765 185.875 C 260.113 186.527,260.858 194.951,261.641 195.780 C 261.838 195.989,262.000 196.574,262.000 197.080 C 262.000 197.586,262.180 198.000,262.400 198.000 C 262.620 198.000,262.800 198.360,262.800 198.800 C 262.800 199.240,262.980 199.600,263.200 199.600 C 263.420 199.600,263.600 199.960,263.600 200.400 C 263.600 200.840,263.750 201.200,263.932 201.200 C 264.115 201.200,264.520 201.695,264.832 202.300 C 265.435 203.469,269.040 207.200,269.565 207.200 C 269.737 207.200,270.293 207.560,270.800 208.000 C 271.307 208.440,272.055 208.800,272.461 208.800 C 272.868 208.800,273.200 208.980,273.200 209.200 C 273.200 209.420,273.560 209.600,274.000 209.600 C 274.440 209.600,274.800 209.780,274.800 210.000 C 274.800 210.220,275.430 210.400,276.200 210.400 C 276.970 210.400,277.600 210.580,277.600 210.800 C 277.600 211.049,279.867 211.200,283.600 211.200 C 287.333 211.200,289.600 211.049,289.600 210.800 C 289.600 210.580,290.050 210.400,290.600 210.400 C 291.150 210.400,291.600 210.220,291.600 210.000 C 291.600 209.780,292.140 209.600,292.800 209.600 C 293.460 209.600,294.000 209.423,294.000 209.208 C 294.000 208.992,294.487 208.693,295.082 208.544 C 295.677 208.394,296.586 207.851,297.100 207.336 C 297.615 206.821,298.207 206.400,298.415 206.400 C 298.936 206.400,301.200 203.986,301.200 203.429 C 301.200 203.180,301.560 202.717,302.000 202.400 C 302.440 202.083,302.804 201.638,302.809 201.412 C 302.814 201.185,303.170 200.550,303.600 200.000 C 304.030 199.450,304.386 198.595,304.391 198.100 C 304.396 197.605,304.580 197.200,304.800 197.200 C 305.020 197.200,305.200 196.660,305.200 196.000 C 305.200 195.340,305.380 194.800,305.600 194.800 C 305.849 194.800,306.000 192.541,306.000 188.824 C 306.000 185.271,305.838 182.747,305.600 182.600 C 305.380 182.464,305.200 181.924,305.200 181.400 C 305.200 180.876,305.020 180.336,304.800 180.200 C 304.580 180.064,304.400 179.603,304.400 179.176 C 304.400 178.749,304.264 178.400,304.098 178.400 C 303.931 178.400,303.542 177.828,303.232 177.128 C 302.612 175.727,297.085 170.000,296.353 170.000 C 296.101 170.000,295.603 169.670,295.247 169.267 C 294.891 168.865,293.745 168.285,292.700 167.980 C 291.655 167.675,290.800 167.285,290.800 167.113 C 290.800 166.941,290.091 166.800,289.224 166.800 C 288.357 166.800,287.536 166.620,287.400 166.400 C 287.264 166.179,285.470 166.000,283.400 166.000 C 281.330 166.000,279.536 166.179,279.400 166.400 M71.800 204.800 C 71.664 205.020,70.663 205.200,69.576 205.200 C 68.489 205.200,67.600 205.380,67.600 205.600 C 67.600 205.820,67.060 206.000,66.400 206.000 C 65.740 206.000,65.200 206.180,65.200 206.400 C 65.200 206.620,64.966 206.800,64.680 206.800 C 63.944 206.800,62.007 207.741,62.003 208.100 C 62.001 208.265,61.681 208.400,61.291 208.400 C 60.507 208.400,55.727 213.228,54.832 214.924 C 54.520 215.516,54.115 216.000,53.932 216.000 C 53.750 216.000,53.600 216.360,53.600 216.800 C 53.600 217.240,53.420 217.600,53.200 217.600 C 52.980 217.600,52.800 218.140,52.800 218.800 C 52.800 219.460,52.620 220.000,52.400 220.000 C 52.180 220.000,52.000 220.720,52.000 221.600 C 52.000 222.480,51.820 223.200,51.600 223.200 C 51.359 223.200,51.200 224.867,51.200 227.400 C 51.200 229.933,51.359 231.600,51.600 231.600 C 51.820 231.600,52.000 232.320,52.000 233.200 C 52.000 234.080,52.180 234.800,52.400 234.800 C 52.620 234.800,52.800 235.340,52.800 236.000 C 52.800 236.660,52.980 237.200,53.200 237.200 C 53.420 237.200,53.600 237.560,53.600 238.000 C 53.600 238.440,53.780 238.800,54.000 238.800 C 54.220 238.800,54.400 238.988,54.400 239.217 C 54.400 239.447,55.286 240.572,56.369 241.717 C 57.452 242.863,58.874 244.385,59.529 245.100 C 60.185 245.815,61.009 246.400,61.360 246.400 C 61.712 246.400,62.000 246.550,62.000 246.732 C 62.000 247.059,62.612 247.398,65.000 248.393 C 65.660 248.668,66.513 249.052,66.895 249.247 C 67.277 249.441,68.492 249.600,69.595 249.600 C 70.698 249.600,71.600 249.780,71.600 250.000 C 71.600 250.226,72.733 250.400,74.200 250.400 C 75.667 250.400,76.800 250.226,76.800 250.000 C 76.800 249.780,77.700 249.600,78.800 249.600 C 79.900 249.600,80.800 249.420,80.800 249.200 C 80.800 248.980,81.340 248.800,82.000 248.800 C 82.660 248.800,83.200 248.620,83.200 248.400 C 83.200 248.180,83.560 248.000,84.000 248.000 C 84.440 248.000,84.800 247.820,84.800 247.600 C 84.800 247.380,85.120 247.200,85.512 247.200 C 85.903 247.200,86.483 246.840,86.800 246.400 C 87.117 245.960,87.572 245.600,87.810 245.600 C 88.463 245.600,90.952 243.175,91.813 241.700 C 92.231 240.985,92.714 240.400,92.886 240.400 C 93.059 240.400,93.204 240.175,93.209 239.900 C 93.214 239.625,93.570 238.950,94.000 238.400 C 94.430 237.850,94.786 236.995,94.791 236.500 C 94.796 236.005,94.980 235.600,95.200 235.600 C 95.420 235.600,95.600 235.060,95.600 234.400 C 95.600 233.740,95.780 233.200,96.000 233.200 C 96.248 233.200,96.400 231.000,96.400 227.400 C 96.400 223.800,96.248 221.600,96.000 221.600 C 95.780 221.600,95.600 221.060,95.600 220.400 C 95.600 219.740,95.420 219.200,95.200 219.200 C 94.980 219.200,94.800 218.784,94.800 218.275 C 94.800 217.767,94.440 216.964,94.000 216.492 C 93.560 216.020,93.200 215.422,93.200 215.164 C 93.200 214.905,92.861 214.400,92.447 214.041 C 92.034 213.682,91.628 213.042,91.546 212.618 C 91.465 212.193,90.408 211.065,89.199 210.111 C 87.990 209.156,86.783 208.201,86.517 207.987 C 86.251 207.774,85.756 207.600,85.417 207.600 C 85.078 207.600,84.800 207.420,84.800 207.200 C 84.800 206.980,84.440 206.800,84.000 206.800 C 83.560 206.800,83.200 206.620,83.200 206.400 C 83.200 206.180,82.660 206.000,82.000 206.000 C 81.340 206.000,80.800 205.820,80.800 205.600 C 80.800 205.371,79.600 205.200,78.000 205.200 C 76.400 205.200,75.200 205.029,75.200 204.800 C 75.200 204.580,74.491 204.400,73.624 204.400 C 72.757 204.400,71.936 204.580,71.800 204.800 M338.200 355.600 C 338.064 355.820,337.243 356.000,336.376 356.000 C 335.509 356.000,334.800 356.180,334.800 356.400 C 334.800 356.620,334.260 356.800,333.600 356.800 C 332.940 356.800,332.400 356.980,332.400 357.200 C 332.400 357.420,332.040 357.600,331.600 357.600 C 331.160 357.600,330.800 357.780,330.800 358.000 C 330.800 358.220,330.518 358.400,330.173 358.400 C 328.974 358.400,324.000 362.669,324.000 363.698 C 324.000 363.987,323.640 364.483,323.200 364.800 C 322.760 365.117,322.400 365.697,322.400 366.088 C 322.400 366.480,322.265 366.801,322.100 366.803 C 321.741 366.807,320.800 368.744,320.800 369.480 C 320.800 369.766,320.620 370.000,320.400 370.000 C 320.180 370.000,320.000 370.540,320.000 371.200 C 320.000 371.860,319.820 372.400,319.600 372.400 C 319.353 372.400,319.200 374.467,319.200 377.800 C 319.200 381.133,319.353 383.200,319.600 383.200 C 319.820 383.200,320.000 383.819,320.000 384.576 C 320.000 385.333,320.180 386.064,320.400 386.200 C 320.620 386.336,320.800 386.797,320.800 387.224 C 320.800 387.651,320.980 388.000,321.200 388.000 C 321.420 388.000,321.600 388.360,321.600 388.800 C 321.600 389.240,321.780 389.600,322.000 389.600 C 322.220 389.600,322.400 389.798,322.400 390.040 C 322.400 390.281,322.940 390.983,323.600 391.600 C 324.260 392.217,324.800 392.932,324.800 393.189 C 324.800 393.753,325.792 394.800,326.326 394.800 C 326.537 394.800,327.135 395.338,327.655 395.996 C 328.175 396.654,328.915 397.194,329.300 397.196 C 329.685 397.198,330.001 397.335,330.003 397.500 C 330.007 397.851,331.937 398.800,332.646 398.800 C 332.914 398.800,333.208 399.025,333.300 399.300 C 333.426 399.679,335.489 399.800,341.800 399.800 C 348.111 399.800,350.174 399.679,350.300 399.300 C 350.392 399.025,350.812 398.800,351.233 398.800 C 351.655 398.800,352.000 398.620,352.000 398.400 C 352.000 398.180,352.360 398.000,352.800 398.000 C 353.240 398.000,353.600 397.820,353.600 397.600 C 353.600 397.380,353.882 397.200,354.226 397.200 C 354.570 397.200,355.738 396.255,356.821 395.100 C 357.904 393.945,359.332 392.420,359.995 391.711 C 360.658 391.003,361.200 390.238,361.200 390.011 C 361.200 389.785,361.380 389.600,361.600 389.600 C 361.820 389.600,362.000 389.240,362.000 388.800 C 362.000 388.360,362.180 388.000,362.400 388.000 C 362.620 388.000,362.800 387.460,362.800 386.800 C 362.800 386.140,362.980 385.600,363.200 385.600 C 363.420 385.600,363.600 385.060,363.600 384.400 C 363.600 383.740,363.780 383.200,364.000 383.200 C 364.245 383.200,364.400 381.267,364.400 378.200 C 364.400 375.133,364.245 373.200,364.000 373.200 C 363.780 373.200,363.600 372.480,363.600 371.600 C 363.600 370.720,363.420 370.000,363.200 370.000 C 362.980 370.000,362.800 369.640,362.800 369.200 C 362.800 368.760,362.620 368.400,362.400 368.400 C 362.180 368.400,362.000 368.040,362.000 367.600 C 362.000 367.160,361.820 366.800,361.600 366.800 C 361.380 366.800,361.200 366.506,361.200 366.147 C 361.200 365.788,360.884 365.203,360.497 364.847 C 360.111 364.491,359.543 363.710,359.235 363.110 C 358.578 361.831,354.353 358.400,353.434 358.400 C 353.085 358.400,352.800 358.220,352.800 358.000 C 352.800 357.780,352.440 357.600,352.000 357.600 C 351.560 357.600,351.200 357.420,351.200 357.200 C 351.200 356.980,350.660 356.800,350.000 356.800 C 349.340 356.800,348.800 356.620,348.800 356.400 C 348.800 356.180,347.900 356.000,346.800 356.000 C 345.700 356.000,344.800 355.820,344.800 355.600 C 344.800 355.367,343.475 355.200,341.624 355.200 C 339.877 355.200,338.336 355.380,338.200 355.600 " stroke="none" fill="#1eb1fc" fill-rule="evenodd"></path><path id="path4" d="" stroke="none" fill="#c0f888" fill-rule="evenodd"></path></g></svg>