<svg id="svg" version="1.1" xmlns="http://www.w3.org/2000/svg" xmlns:xlink="http://www.w3.org/1999/xlink" width="400" height="400" viewBox="0, 0, 400,400"><g id="svgg"><path id="path0" d="M83.600 30.291 C 81.854 35.292,83.567 34.967,57.671 35.200 L 35.400 35.400 35.400 137.600 L 35.400 239.800 62.037 239.903 L 88.673 240.006 91.237 238.078 C 96.639 234.016,102.221 230.827,107.400 228.842 C 108.720 228.336,110.160 227.773,110.600 227.591 C 112.334 226.874,118.399 225.621,122.068 225.221 C 127.645 224.614,185.036 224.649,186.840 225.261 C 189.468 226.152,191.600 228.393,191.600 230.261 C 191.600 230.695,193.069 230.795,199.100 230.777 L 206.600 230.753 207.600 228.715 C 209.541 224.759,207.186 225.019,242.400 224.875 C 276.998 224.733,283.378 225.102,289.400 227.591 C 289.840 227.773,291.280 228.336,292.600 228.842 C 297.779 230.827,303.361 234.016,308.763 238.078 L 311.327 240.006 337.963 239.903 L 364.600 239.800 364.701 137.765 L 364.802 35.730 350.701 35.465 C 342.945 35.320,283.964 35.201,219.631 35.201 L 102.663 35.200 100.960 33.423 C 99.966 32.386,99.204 31.179,99.129 30.523 L 99.000 29.400 91.493 29.291 L 83.987 29.182 83.600 30.291 M126.800 69.373 C 133.306 70.444,138.192 71.818,142.712 73.850 C 143.873 74.373,144.912 74.800,145.019 74.800 C 145.127 74.800,146.338 75.475,147.712 76.300 C 149.086 77.125,150.687 78.047,151.270 78.349 C 156.147 80.874,166.475 91.258,167.025 94.191 C 167.584 97.170,167.110 97.759,151.637 113.321 C 143.587 121.417,136.946 128.102,136.879 128.175 C 136.813 128.248,143.746 135.305,152.286 143.855 C 169.143 160.733,169.369 161.017,168.334 164.043 C 165.758 171.574,149.789 183.985,137.800 187.774 C 133.541 189.120,133.172 189.211,127.269 190.379 C 124.511 190.924,111.889 190.924,109.131 190.379 C 103.007 189.168,100.824 188.617,99.505 187.951 C 99.123 187.758,98.536 187.600,98.200 187.600 C 97.864 187.600,97.277 187.435,96.895 187.233 C 95.874 186.693,92.440 185.200,92.219 185.200 C 90.168 185.200,79.984 177.713,74.600 172.249 C 65.709 163.224,60.685 153.380,57.935 139.600 C 56.884 134.335,57.352 121.574,58.800 116.000 C 59.425 113.595,60.812 109.037,61.173 108.200 C 61.363 107.760,61.824 106.680,62.198 105.800 C 72.843 80.738,100.632 65.069,126.800 69.373 M305.620 70.112 C 318.649 73.528,329.134 83.163,334.010 96.200 C 334.875 98.513,335.735 102.599,336.409 107.600 C 336.662 109.470,337.033 111.755,337.234 112.677 C 337.435 113.600,337.600 114.939,337.600 115.653 C 337.600 116.367,337.772 117.953,337.983 119.176 C 338.194 120.399,338.567 122.582,338.812 124.026 C 340.611 134.627,339.114 136.000,325.757 136.000 L 317.088 136.000 317.338 138.100 C 317.475 139.255,317.771 141.460,317.995 143.000 C 318.219 144.540,318.602 147.240,318.846 149.000 C 319.089 150.760,319.428 153.190,319.598 154.400 C 319.768 155.610,320.130 158.220,320.402 160.200 C 322.435 174.987,315.062 186.659,301.354 190.356 C 299.203 190.936,291.457 190.928,289.628 190.344 C 277.032 186.320,270.224 177.620,270.269 165.600 C 270.282 162.065,272.671 143.147,273.846 137.270 L 274.100 136.000 265.150 135.998 C 251.044 135.995,250.541 135.409,252.605 121.400 C 253.156 117.660,253.876 112.530,254.205 110.000 C 255.629 99.046,257.893 91.958,261.478 87.230 C 261.740 86.884,262.772 85.500,263.769 84.156 C 272.718 72.100,290.477 66.141,305.620 70.112 M170.313 124.055 C 175.977 126.797,174.107 135.200,167.833 135.200 C 161.175 135.200,159.344 126.733,165.400 123.952 C 167.467 123.003,168.171 123.018,170.313 124.055 M190.851 123.765 C 197.087 126.377,195.504 135.200,188.800 135.200 C 182.470 135.200,180.499 126.815,186.169 124.008 C 188.099 123.053,189.035 123.004,190.851 123.765 M212.659 124.028 C 218.511 126.861,216.615 135.204,210.120 135.199 C 203.830 135.194,201.892 126.987,207.483 124.036 C 209.432 123.007,210.546 123.006,212.659 124.028 M234.451 123.765 C 240.761 126.409,238.932 135.200,232.072 135.200 C 226.865 135.200,224.371 128.665,228.200 125.054 C 230.061 123.299,232.257 122.846,234.451 123.765 M226.108 238.901 C 225.873 239.395,225.464 240.430,225.200 241.200 C 224.936 241.970,224.565 242.960,224.376 243.400 C 224.188 243.840,223.585 245.550,223.037 247.200 C 222.488 248.850,221.314 252.258,220.426 254.773 C 219.539 257.288,218.896 259.429,218.997 259.530 C 219.098 259.632,219.265 259.464,219.368 259.157 C 219.470 258.851,219.825 257.790,220.156 256.800 C 220.487 255.810,221.496 252.930,222.399 250.400 C 223.301 247.870,224.499 244.450,225.061 242.800 C 225.623 241.150,226.259 239.470,226.474 239.066 C 226.689 238.662,226.791 238.257,226.700 238.166 C 226.609 238.076,226.342 238.406,226.108 238.901 M216.656 265.352 C 215.600 268.326,215.326 269.529,215.962 268.400 C 216.563 267.334,218.079 262.746,217.892 262.559 C 217.793 262.460,217.236 263.716,216.656 265.352 M124.959 271.600 C 124.959 274.790,125.021 276.095,125.097 274.500 C 125.173 272.905,125.173 270.295,125.097 268.700 C 125.021 267.105,124.959 268.410,124.959 271.600 M124.958 295.000 C 124.958 298.080,125.021 299.287,125.097 297.682 C 125.173 296.078,125.173 293.558,125.096 292.082 C 125.019 290.607,124.957 291.920,124.958 295.000 " stroke="none" fill="#53d9fb" fill-rule="evenodd"></path><path id="path1" d="M285.657 140.100 C 285.378 142.355,284.991 145.100,284.796 146.200 C 284.396 148.459,283.855 152.199,283.204 157.200 C 282.961 159.070,282.573 161.706,282.344 163.057 C 281.582 167.532,283.002 171.871,286.265 175.043 C 287.932 176.662,288.626 177.083,291.719 178.344 C 293.156 178.930,297.632 178.933,299.081 178.349 C 307.288 175.045,309.846 169.549,308.054 159.077 C 307.452 155.559,306.923 152.025,305.777 143.840 C 305.225 139.903,304.679 136.528,304.563 136.340 C 304.447 136.153,300.260 136.000,295.258 136.000 L 286.163 136.000 285.657 140.100 M191.600 232.262 C 191.600 234.078,190.028 236.262,188.160 237.042 C 187.108 237.482,183.948 237.600,173.213 237.600 C 161.379 237.600,159.600 237.678,159.600 238.200 C 159.600 238.530,159.780 238.800,160.000 238.800 C 160.220 238.800,160.400 239.340,160.400 240.000 C 160.400 240.660,160.580 241.200,160.800 241.200 C 161.020 241.200,161.200 241.562,161.200 242.005 C 161.200 242.448,161.380 243.168,161.600 243.605 C 161.820 244.042,162.180 244.758,162.400 245.195 C 162.620 245.632,162.800 246.341,162.800 246.771 C 162.800 247.201,162.980 247.664,163.200 247.800 C 163.420 247.936,163.600 248.487,163.600 249.024 C 163.600 249.561,163.780 250.000,164.000 250.000 C 164.220 250.000,164.400 250.439,164.400 250.976 C 164.400 251.513,164.580 252.064,164.800 252.200 C 165.020 252.336,165.200 252.887,165.200 253.424 C 165.200 253.961,165.380 254.400,165.600 254.400 C 165.820 254.400,166.000 254.839,166.000 255.376 C 166.000 255.913,166.180 256.464,166.400 256.600 C 166.620 256.736,166.800 257.199,166.800 257.629 C 166.800 258.059,166.980 258.768,167.200 259.205 C 167.420 259.642,167.780 260.358,168.000 260.795 C 168.220 261.232,168.400 261.941,168.400 262.371 C 168.400 262.801,168.580 263.264,168.800 263.400 C 169.020 263.536,169.200 263.999,169.200 264.429 C 169.200 264.859,169.368 265.523,169.574 265.905 C 169.779 266.287,170.183 267.185,170.471 267.900 L 170.995 269.200 193.198 269.195 L 215.400 269.190 216.461 266.095 C 217.044 264.393,218.537 260.120,219.778 256.600 C 221.019 253.080,222.484 248.850,223.034 247.200 C 223.584 245.550,224.194 243.840,224.390 243.400 C 224.587 242.960,224.976 241.880,225.255 241.000 C 225.535 240.120,225.907 239.229,226.082 239.020 C 227.102 237.802,226.370 237.660,218.428 237.530 C 209.812 237.389,208.840 237.146,207.805 234.869 C 207.588 234.391,207.273 234.000,207.105 234.000 C 206.937 234.000,206.800 233.280,206.800 232.400 L 206.800 230.800 199.200 230.800 L 191.600 230.800 191.600 232.262 M121.600 237.473 C 103.214 238.831,80.923 259.955,69.439 286.900 C 69.088 287.725,68.544 288.985,68.230 289.700 C 63.239 301.093,59.588 319.426,59.607 333.000 C 59.615 338.124,60.294 346.474,60.965 349.670 C 68.516 385.672,93.329 398.071,120.825 379.583 C 128.475 374.439,142.606 359.538,144.312 354.815 C 144.435 354.477,145.044 353.448,145.667 352.528 C 146.290 351.608,146.800 350.746,146.800 350.611 C 146.800 350.476,147.025 350.082,147.300 349.734 C 150.129 346.159,152.325 345.656,156.618 347.596 C 166.682 352.144,176.574 350.459,184.800 342.795 C 193.966 334.255,205.894 334.224,215.231 342.716 C 223.928 350.625,233.891 352.301,243.574 347.483 C 247.421 345.568,250.947 346.624,253.073 350.326 C 257.434 357.920,264.687 367.262,270.056 372.200 C 274.632 376.408,275.503 377.115,279.000 379.452 C 284.908 383.399,289.299 385.393,296.200 387.259 C 301.671 388.739,310.542 387.754,316.565 384.999 C 330.993 378.399,340.398 357.871,340.401 332.973 C 340.402 320.334,336.799 301.604,332.386 291.300 C 332.173 290.805,331.820 289.950,331.600 289.400 C 330.696 287.141,330.359 286.404,328.214 282.000 C 324.516 274.410,318.901 265.324,315.725 261.794 C 315.326 261.350,314.158 260.000,313.128 258.794 C 305.335 249.661,293.516 241.167,285.806 239.159 C 285.143 238.986,283.880 238.637,283.000 238.384 C 278.443 237.069,254.207 236.753,253.590 238.000 C 252.841 239.513,251.336 243.597,249.610 248.800 C 249.208 250.010,247.414 255.140,245.623 260.200 C 243.832 265.260,242.176 269.940,241.943 270.600 C 241.710 271.260,241.369 272.160,241.186 272.600 C 241.003 273.040,240.459 274.570,239.979 276.000 C 239.026 278.836,238.095 280.098,236.460 280.775 C 235.711 281.085,224.821 281.182,199.332 281.107 L 163.264 281.000 162.206 280.006 C 161.155 279.018,160.539 277.880,159.607 275.200 C 159.339 274.430,158.967 273.440,158.781 273.000 C 158.596 272.560,157.699 270.040,156.789 267.400 C 155.878 264.760,154.057 259.540,152.742 255.800 C 151.426 252.060,150.082 248.190,149.755 247.200 C 149.428 246.210,148.998 245.040,148.800 244.600 C 148.603 244.160,148.036 242.540,147.541 241.000 C 147.045 239.460,146.474 237.975,146.271 237.700 C 145.925 237.231,127.199 237.059,121.600 237.473 M122.385 260.789 C 124.510 262.302,124.959 263.957,125.129 270.900 L 125.284 277.200 131.647 277.200 C 138.092 277.200,138.763 277.326,140.520 278.868 C 143.409 281.402,142.883 286.342,139.504 288.402 C 138.344 289.109,137.480 289.197,131.700 289.199 L 125.200 289.200 125.200 294.380 C 125.200 304.248,123.034 307.631,117.394 306.573 C 113.705 305.881,112.811 303.606,112.804 294.900 L 112.800 289.200 106.354 289.200 C 100.485 289.200,99.771 289.123,98.367 288.334 C 94.885 286.376,94.326 281.622,97.265 278.950 C 99.032 277.344,99.777 277.200,106.340 277.200 L 112.733 277.200 112.866 270.469 C 112.994 264.057,113.047 263.670,114.000 262.275 C 115.814 259.618,119.758 258.919,122.385 260.789 M282.882 260.016 C 287.802 261.382,288.229 269.082,283.492 270.992 C 277.081 273.577,271.762 265.503,277.076 261.254 C 279.086 259.647,280.482 259.350,282.882 260.016 M265.726 277.650 C 269.114 279.395,270.298 282.524,268.787 285.738 C 266.119 291.415,257.597 289.605,257.601 283.362 C 257.605 278.963,262.117 275.791,265.726 277.650 M301.059 277.790 C 304.748 279.630,305.682 284.084,303.018 287.138 C 299.386 291.302,292.800 288.779,292.800 283.224 C 292.800 278.759,297.200 275.864,301.059 277.790 M283.360 295.358 C 286.853 296.817,288.003 301.558,285.579 304.499 C 282.572 308.147,276.709 306.973,275.207 302.421 C 273.683 297.802,278.735 293.425,283.360 295.358 M171.800 300.092 C 187.381 305.437,190.075 326.713,176.352 336.033 C 175.082 336.895,173.800 337.600,173.502 337.600 C 173.204 337.600,172.789 337.743,172.580 337.918 C 170.960 339.276,163.059 339.839,159.790 338.831 C 152.955 336.723,148.392 332.230,145.538 324.800 C 144.676 322.556,144.909 315.101,145.923 312.484 C 150.092 301.722,161.134 296.434,171.800 300.092 M241.400 300.087 C 257.206 305.574,259.829 327.209,245.778 336.197 C 232.265 344.841,214.752 335.286,214.696 319.238 C 214.647 305.241,228.215 295.510,241.400 300.087 " stroke="none" fill="#e5edf5" fill-rule="evenodd"></path><path id="path2" d="M112.000 81.178 C 94.110 83.388,78.512 96.057,72.084 113.600 C 71.308 115.716,71.020 116.795,69.951 121.600 C 69.679 122.825,69.464 126.548,69.468 130.000 C 69.474 135.719,69.695 137.618,70.890 142.200 C 75.353 159.318,89.522 173.432,106.201 177.375 C 107.740 177.738,109.755 178.208,110.677 178.418 C 112.920 178.929,123.423 178.906,126.080 178.384 C 133.977 176.835,140.208 174.333,146.045 170.370 C 148.826 168.481,154.000 163.720,154.000 163.050 C 154.000 162.800,147.068 155.667,138.596 147.198 C 121.719 130.328,121.525 130.083,122.400 126.760 C 122.813 125.194,124.488 123.371,137.632 110.193 C 145.754 102.049,152.400 95.186,152.400 94.941 C 152.400 94.697,151.545 93.806,150.500 92.962 C 149.455 92.118,148.510 91.318,148.400 91.184 C 143.275 84.941,124.131 79.679,112.000 81.178 M290.600 81.437 C 285.430 82.661,283.073 83.642,279.551 86.033 C 276.787 87.910,274.313 90.249,272.814 92.400 C 272.277 93.170,271.723 93.890,271.582 94.000 C 269.676 95.486,267.585 102.859,266.194 113.000 C 264.981 121.839,264.856 122.967,265.052 123.284 C 265.289 123.667,298.463 123.701,314.715 123.334 C 322.812 123.152,326.302 122.942,326.015 122.655 C 325.787 122.427,325.600 121.117,325.600 119.744 C 325.600 118.371,325.420 117.136,325.200 117.000 C 324.980 116.864,324.800 115.694,324.800 114.400 C 324.800 113.106,324.620 111.936,324.400 111.800 C 324.180 111.664,324.000 110.404,324.000 109.000 C 324.000 107.596,323.820 106.336,323.600 106.200 C 323.380 106.064,323.200 105.164,323.200 104.200 C 323.200 103.236,323.020 102.336,322.800 102.200 C 322.580 102.064,322.400 101.524,322.400 101.000 C 322.400 100.476,322.220 99.936,322.000 99.800 C 321.780 99.664,321.600 99.203,321.600 98.776 C 321.600 98.349,321.420 98.000,321.200 98.000 C 320.980 98.000,320.800 97.728,320.800 97.395 C 320.800 96.686,320.089 95.370,319.100 94.245 C 318.715 93.807,318.400 93.304,318.400 93.127 C 318.400 91.235,307.695 83.200,305.175 83.200 C 304.749 83.200,304.400 83.020,304.400 82.800 C 304.400 82.580,303.896 82.400,303.280 82.400 C 302.664 82.400,301.943 82.183,301.678 81.918 C 301.193 81.433,292.256 81.044,290.600 81.437 M117.481 95.695 C 122.049 97.718,122.349 103.907,117.998 106.353 C 115.288 107.876,112.350 107.124,110.326 104.391 C 107.002 99.900,112.336 93.418,117.481 95.695 " stroke="none" fill="#f9b950" fill-rule="evenodd"></path><path id="path3" d="M24.400 12.147 C 18.117 13.552,13.207 18.654,12.035 24.995 C 11.411 28.367,11.422 246.683,12.046 250.367 C 12.924 255.553,16.064 259.688,21.036 262.204 L 23.400 263.400 45.808 263.518 L 68.215 263.637 70.808 259.949 C 72.233 257.920,74.075 255.440,74.900 254.438 C 75.725 253.435,76.400 252.482,76.400 252.319 C 76.400 252.157,65.375 251.973,51.900 251.912 L 27.400 251.800 26.094 250.868 C 23.381 248.933,23.600 258.906,23.603 137.520 C 23.606 14.410,23.327 26.291,26.257 24.359 C 28.100 23.144,78.639 23.188,80.610 24.406 C 84.472 26.793,83.528 33.283,79.113 34.698 C 78.164 35.002,78.033 35.130,78.641 35.159 C 80.472 35.248,82.598 33.161,83.600 30.291 L 83.987 29.182 91.493 29.291 L 99.000 29.400 99.129 30.523 C 99.321 32.201,102.353 35.205,103.831 35.182 C 104.965 35.165,104.955 35.149,103.496 34.628 C 98.871 32.978,97.911 27.494,101.747 24.630 L 102.859 23.800 237.729 23.600 C 327.252 23.467,372.862 23.534,373.378 23.800 C 374.369 24.310,375.658 25.596,376.300 26.717 C 376.697 27.409,376.800 50.363,376.800 137.800 L 376.800 248.011 375.906 249.375 C 374.054 252.200,375.505 252.062,348.190 252.015 C 334.665 251.992,323.602 252.114,323.605 252.287 C 323.608 252.459,324.625 253.860,325.866 255.400 C 327.107 256.940,328.931 259.415,329.920 260.900 L 331.717 263.600 346.959 263.555 C 378.223 263.461,380.259 263.111,384.846 257.042 C 388.064 252.785,387.775 260.195,388.000 176.000 C 388.194 103.075,388.221 100.965,388.964 99.738 C 389.854 98.267,392.251 96.800,393.763 96.800 L 394.818 96.800 394.709 89.506 L 394.600 82.213 393.200 81.981 C 391.272 81.660,390.207 81.018,389.016 79.457 L 388.000 78.124 387.992 53.362 C 387.988 39.079,387.816 27.434,387.586 25.844 C 386.606 19.068,382.708 14.622,375.882 12.497 C 373.117 11.636,28.221 11.293,24.400 12.147 M355.401 35.496 L 364.802 35.614 364.701 137.707 L 364.600 239.800 337.963 239.903 L 311.327 240.006 308.763 238.078 C 304.056 234.539,298.140 230.927,297.727 231.339 C 297.573 231.494,301.068 233.600,301.478 233.600 C 301.747 233.600,305.048 235.868,308.270 238.265 L 311.140 240.400 337.963 240.400 L 364.785 240.400 365.002 239.500 C 365.121 239.005,365.169 192.880,365.109 137.000 L 365.000 35.400 355.500 35.389 L 346.000 35.378 355.401 35.496 M34.899 137.667 C 34.844 193.474,34.909 239.419,35.043 239.767 C 35.261 240.336,38.015 240.400,62.073 240.400 L 88.860 240.400 91.730 238.269 C 98.832 232.995,107.420 228.694,113.800 227.213 C 114.900 226.958,116.520 226.536,117.400 226.275 C 118.581 225.924,128.038 225.800,153.474 225.800 L 187.947 225.800 189.116 226.920 C 191.789 229.481,191.671 233.389,188.855 235.538 L 187.464 236.600 173.091 236.719 L 158.718 236.838 158.995 238.319 C 159.147 239.134,159.402 239.980,159.561 240.200 C 159.721 240.420,160.277 241.950,160.798 243.600 C 161.318 245.250,161.892 246.771,162.072 246.980 C 162.252 247.189,162.400 247.738,162.400 248.200 C 162.400 248.662,162.543 249.211,162.718 249.420 C 162.893 249.629,163.265 250.520,163.545 251.400 C 163.824 252.280,164.210 253.360,164.402 253.800 C 164.594 254.240,165.338 256.310,166.056 258.400 C 166.773 260.490,167.931 263.820,168.628 265.800 L 169.896 269.400 199.697 269.503 C 223.240 269.584,229.581 269.500,229.892 269.103 C 230.108 268.826,231.111 266.170,232.121 263.200 C 234.563 256.019,235.982 251.974,236.402 251.000 C 236.592 250.560,237.131 249.030,237.600 247.600 C 238.069 246.170,238.613 244.640,238.810 244.200 C 239.599 242.432,241.113 237.383,240.939 237.101 C 240.837 236.936,234.328 236.796,226.476 236.791 C 210.061 236.781,209.744 236.726,208.100 233.623 C 206.694 230.969,207.274 228.457,209.691 226.733 L 211.000 225.800 246.000 225.800 C 271.842 225.800,281.419 225.924,282.600 226.275 C 283.480 226.536,285.100 226.958,286.200 227.212 C 287.300 227.466,288.560 227.819,289.000 227.997 C 289.440 228.174,290.430 228.538,291.200 228.806 C 291.970 229.073,293.567 229.730,294.749 230.264 C 295.931 230.799,296.983 231.151,297.086 231.047 C 297.279 230.855,294.141 229.358,291.600 228.430 C 290.830 228.149,289.840 227.771,289.400 227.590 C 283.352 225.100,276.997 224.733,242.400 224.875 C 213.395 224.993,211.721 225.039,210.286 225.752 C 207.169 227.301,205.844 231.752,207.670 234.539 C 209.379 237.145,210.146 237.355,218.800 237.589 C 225.414 237.768,226.590 237.891,226.533 238.400 C 226.497 238.730,225.720 241.070,224.807 243.600 C 223.895 246.130,222.813 249.190,222.404 250.400 C 221.167 254.059,219.564 258.551,219.193 259.400 C 219.000 259.840,218.272 261.910,217.575 264.000 C 216.878 266.090,216.142 268.115,215.940 268.500 C 215.371 269.583,171.022 269.583,170.475 268.500 C 170.281 268.115,169.547 266.090,168.844 264.000 C 168.141 261.910,167.394 259.887,167.183 259.505 C 166.972 259.123,166.800 258.459,166.800 258.029 C 166.800 257.599,166.656 257.158,166.479 257.049 C 166.303 256.940,165.907 255.928,165.600 254.800 C 165.293 253.672,164.897 252.660,164.721 252.551 C 164.544 252.442,164.400 252.001,164.400 251.571 C 164.400 251.141,164.220 250.432,164.000 249.995 C 163.780 249.558,163.420 248.842,163.200 248.405 C 162.980 247.968,162.800 247.259,162.800 246.829 C 162.800 246.399,162.620 245.936,162.400 245.800 C 162.180 245.664,162.000 245.113,162.000 244.576 C 162.000 244.039,161.820 243.600,161.600 243.600 C 161.380 243.600,161.200 243.161,161.200 242.624 C 161.200 242.087,161.020 241.536,160.800 241.400 C 160.580 241.264,160.400 240.724,160.400 240.200 C 160.400 239.676,160.220 239.136,160.000 239.000 C 158.006 237.768,159.563 237.600,173.013 237.600 C 183.493 237.600,186.707 237.480,187.713 237.051 C 193.430 234.611,192.890 227.313,186.840 225.261 C 185.036 224.649,127.645 224.614,122.068 225.221 C 118.399 225.621,112.334 226.874,110.600 227.591 C 110.160 227.773,108.720 228.336,107.400 228.842 C 102.221 230.827,96.639 234.016,91.237 238.078 L 88.673 240.006 62.037 239.903 L 35.400 239.800 35.199 138.000 L 34.998 36.200 34.899 137.667 M111.000 69.157 C 110.120 69.291,113.360 69.404,118.200 69.410 C 123.040 69.415,126.280 69.291,125.400 69.133 C 123.501 68.792,113.285 68.809,111.000 69.157 M289.800 69.159 C 289.140 69.304,291.750 69.424,295.600 69.424 C 299.695 69.425,301.936 69.306,301.000 69.136 C 299.040 68.781,291.446 68.796,289.800 69.159 M103.400 70.584 C 99.161 71.669,96.511 72.717,97.876 72.767 C 98.358 72.785,98.864 72.620,99.000 72.400 C 99.136 72.180,99.599 72.000,100.029 72.000 C 100.459 72.000,101.123 71.836,101.505 71.635 C 101.887 71.435,103.280 71.061,104.600 70.805 C 105.920 70.549,107.540 70.192,108.200 70.011 L 109.400 69.682 108.200 69.672 C 107.540 69.667,105.380 70.078,103.400 70.584 M128.000 70.000 C 128.550 70.176,129.540 70.320,130.200 70.320 C 131.367 70.320,131.372 70.311,130.400 70.000 C 129.850 69.824,128.860 69.680,128.200 69.680 C 127.033 69.680,127.028 69.689,128.000 70.000 M283.200 70.749 C 275.557 73.263,267.969 78.498,263.769 84.156 C 262.772 85.500,261.740 86.884,261.478 87.230 C 259.407 89.962,257.323 94.695,256.032 99.600 C 255.120 103.064,253.872 111.309,254.107 112.316 C 254.195 112.692,254.390 112.100,254.541 111.000 C 256.011 100.297,256.707 97.510,259.235 92.200 C 264.587 80.957,273.680 73.759,287.200 70.064 C 288.346 69.751,288.418 69.677,287.600 69.656 C 287.050 69.642,285.070 70.134,283.200 70.749 M302.800 69.746 C 302.800 69.826,304.095 70.207,305.678 70.591 C 307.261 70.976,308.836 71.429,309.178 71.599 C 309.520 71.768,310.250 72.084,310.800 72.300 C 319.322 75.650,327.067 82.923,331.566 91.800 C 332.681 94.000,333.595 95.571,333.597 95.290 C 333.622 91.580,324.487 79.994,318.169 75.722 C 313.611 72.639,302.800 68.436,302.800 69.746 M132.400 70.751 C 132.950 70.944,134.210 71.322,135.200 71.590 C 136.190 71.859,137.313 72.240,137.695 72.439 C 138.077 72.638,138.574 72.800,138.799 72.800 C 139.024 72.800,140.062 73.176,141.104 73.636 C 154.501 79.543,166.400 89.782,166.400 95.405 L 166.400 97.736 156.100 108.095 C 150.435 113.792,143.685 120.547,141.100 123.106 C 138.515 125.664,136.400 127.948,136.400 128.181 C 136.400 128.414,142.988 135.173,151.041 143.202 C 171.910 164.011,171.375 162.396,160.858 172.813 C 145.252 188.270,123.673 194.012,102.287 188.397 C 100.711 187.983,99.346 187.720,99.254 187.813 C 99.161 187.905,99.336 188.050,99.643 188.134 C 99.949 188.218,100.830 188.476,101.600 188.706 C 102.965 189.115,104.788 189.520,109.131 190.379 C 111.889 190.924,124.511 190.924,127.269 190.379 C 133.172 189.211,133.541 189.120,137.800 187.774 C 149.789 183.985,165.758 171.574,168.334 164.043 C 169.369 161.017,169.143 160.733,152.286 143.855 C 143.746 135.305,136.813 128.248,136.879 128.175 C 136.946 128.102,143.587 121.417,151.637 113.321 C 167.110 97.759,167.584 97.170,167.025 94.191 C 166.475 91.258,156.147 80.874,151.270 78.349 C 150.687 78.047,149.086 77.125,147.712 76.300 C 146.338 75.475,145.127 74.800,145.019 74.800 C 144.912 74.800,143.873 74.371,142.712 73.846 C 139.899 72.574,134.804 70.897,132.919 70.621 C 131.735 70.448,131.620 70.476,132.400 70.751 M95.600 73.090 C 81.563 78.390,68.341 91.339,62.198 105.800 C 61.824 106.680,61.363 107.760,61.173 108.200 C 60.812 109.037,59.425 113.595,58.800 116.000 C 57.352 121.574,56.884 134.335,57.935 139.600 C 60.685 153.380,65.709 163.224,74.600 172.249 C 79.984 177.713,90.168 185.200,92.219 185.200 C 92.399 185.200,95.196 186.405,97.061 187.286 C 97.534 187.510,98.142 187.619,98.411 187.530 C 98.681 187.440,97.574 186.853,95.951 186.227 C 80.476 180.250,67.781 167.337,61.713 151.400 C 60.102 147.170,59.080 143.373,58.374 139.000 C 57.849 135.746,58.099 121.687,58.737 118.600 C 59.549 114.673,59.664 114.190,59.978 113.400 C 60.152 112.960,60.698 111.340,61.191 109.800 C 64.178 100.469,71.061 90.467,79.304 83.478 C 83.437 79.974,94.108 73.600,95.841 73.600 C 96.122 73.600,96.464 73.420,96.600 73.200 C 96.867 72.767,96.547 72.732,95.600 73.090 M112.076 80.740 C 111.568 80.883,114.323 81.000,118.199 81.000 C 122.075 81.000,124.830 80.883,124.323 80.740 C 123.815 80.597,121.060 80.480,118.200 80.480 C 115.340 80.480,112.584 80.597,112.076 80.740 M290.000 80.999 C 281.616 82.888,275.054 87.550,270.577 94.800 C 268.168 98.702,267.199 102.045,265.998 110.600 C 265.435 114.617,264.951 117.873,264.427 121.182 C 264.114 123.156,264.134 123.837,264.509 124.076 C 265.322 124.592,326.305 124.477,326.626 123.958 C 326.776 123.715,326.686 122.140,326.426 120.458 C 325.650 115.448,325.263 112.789,324.785 109.200 C 322.167 89.523,306.946 77.183,290.000 80.999 M107.400 81.600 L 106.600 81.944 107.400 81.932 C 107.840 81.926,108.650 81.776,109.200 81.600 L 110.200 81.280 109.200 81.268 C 108.650 81.262,107.840 81.411,107.400 81.600 M127.200 81.600 C 128.730 82.090,129.958 82.090,129.200 81.600 C 128.870 81.387,128.060 81.227,127.400 81.246 C 126.224 81.279,126.220 81.286,127.200 81.600 M301.678 81.918 C 301.943 82.183,302.664 82.400,303.280 82.400 C 303.896 82.400,304.400 82.580,304.400 82.800 C 304.400 83.020,304.749 83.200,305.175 83.200 C 307.695 83.200,318.400 91.235,318.400 93.127 C 318.400 93.304,318.715 93.807,319.100 94.245 C 320.089 95.370,320.800 96.686,320.800 97.395 C 320.800 97.728,320.980 98.000,321.200 98.000 C 321.420 98.000,321.600 98.349,321.600 98.776 C 321.600 99.203,321.780 99.664,322.000 99.800 C 322.220 99.936,322.400 100.476,322.400 101.000 C 322.400 101.524,322.580 102.064,322.800 102.200 C 323.020 102.336,323.200 103.236,323.200 104.200 C 323.200 105.164,323.380 106.064,323.600 106.200 C 323.820 106.336,324.000 107.596,324.000 109.000 C 324.000 110.404,324.180 111.664,324.400 111.800 C 324.620 111.936,324.800 113.106,324.800 114.400 C 324.800 115.694,324.980 116.864,325.200 117.000 C 325.420 117.136,325.600 118.371,325.600 119.744 C 325.600 121.117,325.787 122.427,326.015 122.655 C 326.302 122.942,322.812 123.152,314.715 123.334 C 298.463 123.701,265.289 123.667,265.052 123.284 C 264.856 122.967,264.981 121.839,266.194 113.000 C 267.585 102.859,269.676 95.486,271.582 94.000 C 271.723 93.890,272.277 93.170,272.814 92.400 C 274.313 90.249,276.787 87.910,279.551 86.033 C 283.073 83.642,285.430 82.661,290.600 81.437 C 292.256 81.044,301.193 81.433,301.678 81.918 M104.400 82.400 C 103.605 82.914,104.604 82.914,105.800 82.400 L 106.600 82.056 105.800 82.034 C 105.360 82.022,104.730 82.187,104.400 82.400 M130.433 82.160 C 130.525 82.248,132.040 82.799,133.800 83.385 C 138.445 84.929,147.030 89.515,148.400 91.184 C 148.510 91.318,149.455 92.118,150.500 92.962 C 151.545 93.806,152.400 94.697,152.400 94.941 C 152.400 95.186,145.754 102.049,137.632 110.193 C 121.743 126.124,121.302 126.681,122.345 129.530 C 122.689 130.468,122.741 130.337,122.768 128.462 C 122.811 125.572,122.322 126.145,138.855 109.617 C 154.812 93.664,153.727 95.202,150.845 92.616 C 146.528 88.743,139.297 84.627,133.634 82.819 C 131.194 82.040,130.067 81.808,130.433 82.160 M101.070 83.418 C 93.737 86.108,84.143 93.132,79.787 99.000 C 79.134 99.879,78.314 100.918,77.964 101.306 C 77.614 101.695,77.074 102.505,76.765 103.107 C 76.455 103.708,76.111 104.290,76.001 104.400 C 75.220 105.179,72.710 110.383,71.644 113.437 C 66.812 127.272,68.616 144.389,76.075 155.472 C 76.694 156.392,77.200 157.337,77.200 157.572 C 77.200 157.807,77.335 158.008,77.500 158.019 C 77.665 158.029,78.430 158.927,79.200 160.014 C 79.970 161.102,80.729 161.993,80.886 161.996 C 81.044 161.998,80.222 160.728,79.061 159.174 C 74.674 153.301,71.933 147.035,69.974 138.400 C 69.328 135.552,69.313 124.468,69.951 121.600 C 70.220 120.390,70.629 118.590,70.859 117.600 C 73.496 106.252,82.651 93.953,92.961 87.908 C 95.145 86.627,101.544 83.600,102.081 83.594 C 102.366 83.591,102.870 83.413,103.200 83.200 C 104.120 82.606,102.961 82.724,101.070 83.418 M112.297 96.090 C 109.377 97.782,108.420 101.815,110.326 104.391 C 113.117 108.160,118.124 107.964,120.353 103.998 C 123.277 98.795,117.469 93.092,112.297 96.090 M117.904 96.398 C 120.470 97.963,121.376 100.647,120.248 103.346 C 118.279 108.059,111.611 107.680,109.988 102.763 C 108.457 98.125,113.753 93.867,117.904 96.398 M333.606 96.476 C 333.618 97.481,334.387 98.308,334.394 97.324 C 334.397 96.842,334.220 96.336,334.000 96.200 C 333.780 96.064,333.603 96.188,333.606 96.476 M334.434 99.000 C 334.472 100.366,335.138 101.642,335.166 100.400 C 335.178 99.850,335.013 99.130,334.800 98.800 C 334.480 98.305,334.416 98.340,334.434 99.000 M335.227 101.800 C 335.202 102.020,335.681 105.710,336.291 110.000 C 336.901 114.290,337.460 117.170,337.533 116.400 C 337.606 115.630,337.478 114.010,337.249 112.800 C 337.019 111.590,336.621 109.070,336.364 107.200 C 335.898 103.816,335.313 101.038,335.227 101.800 M253.419 115.718 C 253.245 116.993,253.202 118.135,253.322 118.255 C 253.622 118.555,254.117 115.071,253.906 114.147 C 253.812 113.736,253.593 114.443,253.419 115.718 M337.843 120.600 C 337.964 122.140,338.225 124.120,338.422 125.000 C 340.397 133.814,338.601 135.335,326.000 135.520 C 316.095 135.665,316.314 135.615,316.786 137.600 L 317.118 139.000 317.159 137.500 L 317.200 136.000 325.813 136.000 C 335.504 136.000,336.384 135.816,338.222 133.407 C 339.450 131.797,339.724 127.572,338.805 124.403 C 338.582 123.634,338.382 122.284,338.360 121.403 C 338.338 120.521,338.163 119.350,337.971 118.800 C 337.742 118.146,337.698 118.768,337.843 120.600 M252.638 121.125 C 252.461 122.513,252.411 123.745,252.528 123.861 C 252.830 124.164,253.303 120.714,253.116 119.563 C 253.029 119.024,252.819 119.711,252.638 121.125 M165.400 123.952 C 161.355 125.810,160.505 130.577,163.663 133.688 C 164.730 134.739,166.615 135.518,167.047 135.086 C 167.163 134.971,166.730 134.760,166.085 134.619 C 160.441 133.379,161.916 123.600,167.747 123.600 C 173.806 123.600,175.159 132.698,169.400 134.716 C 168.612 134.992,168.458 135.148,168.953 135.168 C 170.131 135.218,172.300 133.683,172.981 132.318 C 175.561 127.146,170.531 121.596,165.400 123.952 M186.169 124.008 C 181.238 126.449,182.409 135.352,187.638 135.166 C 188.569 135.132,188.565 135.121,187.517 134.805 C 182.056 133.159,181.784 125.787,187.120 124.027 C 190.521 122.904,194.400 125.871,194.400 129.595 C 194.400 130.232,194.220 130.864,194.000 131.000 C 193.780 131.136,193.600 131.554,193.600 131.929 C 193.600 132.723,192.042 133.999,190.253 134.670 C 189.122 135.094,189.093 135.142,189.962 135.170 C 190.491 135.186,191.527 134.741,192.263 134.179 C 198.089 129.735,192.716 120.767,186.169 124.008 M207.483 124.036 C 202.579 126.624,203.769 135.357,209.000 135.168 C 209.533 135.149,209.345 134.975,208.437 134.646 C 201.992 132.316,204.931 122.195,211.518 124.034 C 216.652 125.468,217.120 132.221,212.240 134.438 C 211.338 134.847,210.924 135.186,211.320 135.191 C 212.596 135.207,214.299 134.058,215.228 132.555 C 218.376 127.461,212.739 121.262,207.483 124.036 M230.200 123.765 C 225.987 125.641,225.019 130.145,228.131 133.393 C 229.295 134.607,230.180 135.190,230.831 135.168 C 231.726 135.139,231.709 135.105,230.600 134.716 C 224.841 132.698,226.194 123.600,232.253 123.600 C 238.226 123.600,239.612 132.871,233.913 134.698 C 232.964 135.002,232.833 135.130,233.441 135.159 C 234.691 135.220,236.906 133.562,237.681 131.986 C 240.062 127.139,235.033 121.614,230.200 123.765 M251.854 126.256 C 250.688 134.763,252.370 135.995,265.150 135.998 L 274.100 136.000 273.846 137.270 C 273.160 140.702,270.377 161.418,270.504 162.155 C 270.584 162.620,270.781 161.920,270.942 160.600 C 271.104 159.280,271.401 157.120,271.603 155.800 C 271.805 154.480,272.157 152.095,272.385 150.500 C 272.613 148.905,272.987 146.295,273.215 144.700 C 273.443 143.105,273.823 140.675,274.058 139.301 C 274.730 135.382,275.213 135.600,265.863 135.600 C 256.278 135.600,255.695 135.513,253.711 133.796 L 252.200 132.487 252.284 128.444 C 252.375 124.032,252.248 123.383,251.854 126.256 M123.119 131.421 C 123.356 131.849,130.402 139.039,138.775 147.398 C 147.149 155.757,154.000 162.800,154.000 163.050 C 154.000 163.720,148.826 168.481,146.045 170.370 C 140.208 174.333,133.977 176.835,126.080 178.384 C 123.423 178.906,112.920 178.929,110.677 178.418 C 105.207 177.172,103.209 176.633,101.410 175.918 C 97.883 174.515,97.600 174.416,97.600 174.591 C 97.600 174.837,100.970 176.307,103.400 177.121 C 104.529 177.500,105.481 177.736,110.077 178.775 C 122.945 181.687,140.083 176.581,151.697 166.376 C 155.587 162.958,156.861 164.891,138.748 146.738 C 129.915 137.885,122.882 130.993,123.119 131.421 M286.296 135.700 C 285.794 136.082,285.303 138.604,284.214 146.400 C 283.431 152.010,282.612 157.601,282.395 158.824 C 281.999 161.053,281.859 163.880,282.160 163.567 C 282.248 163.475,282.614 161.240,282.973 158.600 C 283.332 155.960,283.791 152.720,283.994 151.400 C 284.196 150.080,284.568 147.470,284.820 145.600 C 285.072 143.730,285.440 141.336,285.639 140.280 C 285.837 139.224,286.000 137.829,286.000 137.180 L 286.000 136.000 295.176 136.000 C 300.817 136.000,304.447 136.153,304.598 136.397 C 304.819 136.754,305.989 144.442,307.217 153.600 C 307.468 155.470,307.861 157.990,308.091 159.200 C 310.322 170.962,304.813 179.182,295.005 178.725 C 287.681 178.384,283.350 174.089,281.968 165.800 C 281.676 164.050,281.660 164.146,281.835 166.562 C 282.206 171.689,285.210 176.084,289.771 178.170 C 292.140 179.253,298.297 179.665,299.905 178.847 C 300.287 178.652,301.125 178.247,301.767 177.947 C 305.884 176.017,309.313 170.398,309.301 165.600 C 309.296 163.916,309.109 162.384,307.982 154.800 C 307.103 148.891,305.983 140.799,305.657 138.000 L 305.400 135.800 300.800 135.553 C 292.481 135.105,287.004 135.161,286.296 135.700 M317.295 140.600 C 317.295 141.480,317.432 142.740,317.600 143.400 C 317.890 144.538,317.905 144.517,317.905 143.000 C 317.905 142.120,317.768 140.860,317.600 140.200 C 317.310 139.062,317.295 139.083,317.295 140.600 M318.087 146.200 C 318.083 147.080,318.224 148.250,318.400 148.800 C 318.843 150.182,318.843 147.540,318.400 145.800 C 318.110 144.658,318.094 144.678,318.087 146.200 M318.863 151.800 C 318.854 152.460,318.995 153.720,319.177 154.600 L 319.508 156.200 319.514 154.400 C 319.517 153.410,319.376 152.150,319.200 151.600 C 318.887 150.624,318.879 150.628,318.863 151.800 M319.902 158.800 C 322.037 177.437,312.073 190.400,295.613 190.400 C 283.210 190.400,273.874 182.631,270.859 169.800 C 270.577 168.600,270.472 168.457,270.441 169.227 C 270.114 177.364,278.750 186.869,289.628 190.344 C 291.457 190.928,299.203 190.936,301.354 190.356 C 310.364 187.926,316.544 182.121,319.888 172.945 C 320.711 170.688,320.822 159.531,320.043 157.400 C 319.688 156.430,319.661 156.697,319.902 158.800 M84.215 165.542 C 87.194 168.433,93.447 173.086,93.833 172.700 C 93.926 172.607,92.606 171.613,90.901 170.490 C 89.195 169.367,86.377 167.087,84.637 165.424 C 82.897 163.761,81.367 162.405,81.237 162.412 C 81.107 162.418,82.447 163.827,84.215 165.542 M270.120 165.600 C 270.120 166.810,270.195 167.305,270.287 166.700 C 270.378 166.095,270.378 165.105,270.287 164.500 C 270.195 163.895,270.120 164.390,270.120 165.600 M123.200 236.673 C 120.997 236.901,115.521 237.985,114.200 238.454 C 110.313 239.836,103.183 243.388,102.867 244.100 C 102.793 244.265,102.493 244.400,102.200 244.400 C 101.907 244.400,101.607 244.538,101.533 244.707 C 101.460 244.877,100.149 245.902,98.619 246.985 C 94.302 250.045,88.297 255.887,84.180 261.032 C 81.374 264.540,77.200 270.601,77.200 271.168 C 77.200 271.406,77.020 271.600,76.800 271.600 C 76.580 271.600,76.400 271.870,76.400 272.200 C 76.400 272.530,76.264 272.800,76.098 272.800 C 75.931 272.800,75.541 273.385,75.230 274.100 C 74.919 274.815,74.541 275.490,74.390 275.600 C 72.882 276.702,65.733 293.951,63.615 301.600 C 63.341 302.590,62.955 303.813,62.758 304.319 C 62.561 304.824,62.414 305.724,62.432 306.319 L 62.463 307.400 62.787 306.400 C 62.965 305.850,63.507 303.960,63.992 302.200 C 72.291 272.041,93.207 245.707,114.000 239.236 C 115.650 238.723,117.540 238.118,118.200 237.891 C 118.880 237.658,125.129 237.401,132.616 237.297 C 147.391 237.093,146.230 236.864,147.305 240.200 C 147.659 241.300,148.693 244.270,149.601 246.800 C 150.509 249.330,151.589 252.390,152.001 253.600 C 152.828 256.031,156.255 265.753,158.709 272.630 C 161.127 279.409,162.483 281.261,164.959 281.168 C 165.615 281.144,165.536 281.045,164.600 280.718 C 162.565 280.006,160.400 277.437,160.400 275.733 C 160.400 275.434,160.220 274.832,160.000 274.395 C 159.780 273.958,159.420 273.242,159.200 272.805 C 158.980 272.368,158.800 271.659,158.800 271.229 C 158.800 270.799,158.620 270.336,158.400 270.200 C 158.180 270.064,158.000 269.601,158.000 269.171 C 158.000 268.741,157.820 268.032,157.600 267.595 C 157.380 267.158,157.020 266.442,156.800 266.005 C 156.580 265.568,156.400 264.936,156.400 264.600 C 156.400 264.264,156.224 263.677,156.009 263.295 C 155.794 262.913,155.174 261.250,154.631 259.600 C 154.088 257.950,152.813 254.260,151.797 251.400 C 150.780 248.540,149.499 244.850,148.950 243.200 C 148.400 241.550,147.782 239.887,147.575 239.505 C 147.369 239.123,147.200 238.566,147.200 238.267 C 147.200 236.537,146.266 236.397,135.169 236.464 C 129.356 236.499,123.970 236.593,123.200 236.673 M253.725 236.688 C 253.167 237.073,252.885 237.765,250.575 244.400 C 246.901 254.958,246.516 256.018,246.262 256.272 C 246.118 256.416,246.000 256.943,246.000 257.443 C 246.000 257.943,245.820 258.464,245.600 258.600 C 245.380 258.736,245.200 259.199,245.200 259.629 C 245.200 260.059,245.020 260.768,244.800 261.205 C 244.580 261.642,244.220 262.358,244.000 262.795 C 243.780 263.232,243.600 263.941,243.600 264.371 C 243.600 264.801,243.456 265.242,243.279 265.351 C 243.103 265.460,242.707 266.472,242.400 267.600 C 242.093 268.728,241.697 269.740,241.521 269.849 C 241.344 269.958,241.200 270.451,241.200 270.944 C 241.200 271.437,241.051 272.011,240.870 272.220 C 240.688 272.429,240.290 273.410,239.986 274.400 C 238.927 277.846,237.911 279.345,236.000 280.284 C 235.010 280.769,234.524 281.174,234.920 281.184 C 237.048 281.232,238.989 279.102,240.191 275.400 C 240.548 274.300,241.002 273.040,241.200 272.600 C 241.398 272.160,241.827 270.990,242.153 270.000 C 242.708 268.317,244.451 263.356,249.250 249.800 C 250.340 246.720,251.693 242.850,252.256 241.200 C 252.819 239.550,253.481 237.955,253.726 237.654 C 254.278 236.982,279.808 237.222,281.800 237.918 C 282.460 238.149,284.260 238.727,285.800 239.202 C 301.504 244.050,317.684 260.244,327.962 281.400 C 329.351 284.260,330.630 286.960,330.803 287.400 C 330.977 287.840,331.392 288.830,331.725 289.600 C 333.188 292.974,335.645 300.388,336.680 304.550 C 337.133 306.370,337.439 307.061,337.527 306.462 C 337.603 305.946,337.492 305.046,337.279 304.462 C 337.067 303.878,336.674 302.590,336.406 301.600 C 334.505 294.572,327.148 276.787,325.651 275.600 C 325.512 275.490,325.133 274.860,324.807 274.200 C 323.856 272.269,318.282 264.027,316.015 261.200 C 311.727 255.851,301.406 246.000,300.090 246.000 C 299.889 246.000,299.398 245.640,299.000 245.200 C 298.602 244.760,298.049 244.400,297.771 244.400 C 297.494 244.400,297.207 244.265,297.133 244.100 C 296.549 242.786,286.563 238.464,281.600 237.377 C 278.288 236.651,254.626 236.067,253.725 236.688 M117.042 259.998 C 113.630 261.070,112.805 263.269,112.802 271.300 L 112.800 277.200 106.374 277.200 C 99.776 277.200,99.033 277.343,97.265 278.950 C 94.326 281.622,94.885 286.376,98.367 288.334 C 99.770 289.122,100.486 289.200,106.321 289.200 L 112.733 289.200 112.866 295.931 C 113.042 304.781,114.101 306.630,118.962 306.578 C 123.623 306.529,124.544 304.891,124.800 296.200 L 125.000 289.400 131.400 289.300 C 137.830 289.200,138.926 288.988,140.541 287.532 C 142.846 285.454,143.041 281.635,140.958 279.345 C 139.259 277.477,138.025 277.203,131.300 277.201 L 124.800 277.200 124.800 270.760 C 124.800 261.422,122.530 258.273,117.042 259.998 M279.297 259.923 C 276.184 260.879,274.214 264.523,275.255 267.402 C 277.543 273.730,286.800 272.342,286.800 265.671 C 286.800 261.635,283.057 258.767,279.297 259.923 M121.786 261.028 C 123.929 262.432,124.166 263.303,124.391 270.600 L 124.600 277.400 131.200 277.606 C 134.830 277.719,138.160 277.980,138.600 278.186 C 141.369 279.479,142.797 282.985,141.500 285.305 C 139.828 288.298,139.083 288.550,131.200 288.795 L 124.600 289.000 124.400 295.800 C 124.232 301.496,124.082 302.774,123.472 303.672 C 121.228 306.978,116.617 306.894,113.923 303.497 C 113.881 303.443,113.746 300.160,113.623 296.200 L 113.400 289.000 106.600 288.800 C 97.944 288.545,96.000 287.518,96.000 283.200 C 96.000 278.862,98.365 277.637,107.000 277.501 L 113.400 277.400 113.623 270.200 C 113.746 266.240,113.881 262.957,113.923 262.903 C 115.906 260.403,119.518 259.541,121.786 261.028 M284.044 261.232 C 288.442 264.363,286.354 270.800,280.940 270.800 C 276.012 270.800,273.698 264.926,277.373 261.748 C 279.306 260.078,282.118 259.860,284.044 261.232 M260.600 277.959 C 256.646 280.268,256.589 286.020,260.496 288.402 C 264.895 291.084,270.736 286.557,269.174 281.676 C 267.957 277.872,263.820 276.079,260.600 277.959 M295.755 277.962 C 290.589 281.113,292.577 289.200,298.519 289.200 C 301.182 289.200,303.189 287.666,304.172 284.880 C 305.889 280.012,300.142 275.287,295.755 277.962 M265.251 278.165 C 269.842 280.088,269.964 285.963,265.459 288.210 C 260.793 290.538,255.838 284.310,259.028 280.127 C 260.729 277.897,262.944 277.199,265.251 278.165 M300.765 278.319 C 305.891 280.877,304.114 288.673,298.380 288.781 C 297.034 288.806,294.322 287.019,293.697 285.694 C 291.524 281.089,296.309 276.096,300.765 278.319 M279.400 295.076 C 277.841 295.500,276.289 296.949,275.510 298.709 C 272.842 304.743,281.347 309.633,285.579 304.499 C 289.141 300.177,284.829 293.601,279.400 295.076 M284.154 296.435 C 288.393 299.770,286.300 306.000,280.940 306.000 C 277.578 306.000,275.813 304.211,275.813 300.800 C 275.813 296.372,280.774 293.776,284.154 296.435 M162.400 299.229 C 154.383 300.330,148.779 305.110,145.554 313.595 C 144.852 315.443,144.851 322.953,145.553 324.805 C 149.155 334.313,155.936 339.287,165.294 339.287 C 169.408 339.287,170.159 339.105,174.400 337.087 C 194.428 327.555,184.488 296.195,162.400 299.229 M232.000 299.199 C 216.120 301.108,209.050 320.848,219.932 332.893 C 227.697 341.488,241.903 341.488,249.668 332.893 C 262.357 318.848,250.865 296.932,232.000 299.199 M173.321 301.298 C 192.410 310.364,186.004 338.825,164.880 338.796 C 145.747 338.769,138.257 313.733,154.105 302.775 C 159.374 299.131,167.450 298.510,173.321 301.298 M240.867 300.423 C 255.093 305.215,259.123 323.355,248.220 333.513 C 240.147 341.033,227.889 340.589,220.334 332.503 C 206.751 317.968,222.040 294.080,240.867 300.423 M61.844 308.453 C 61.736 308.974,61.537 309.940,61.400 310.600 C 60.918 312.922,60.419 315.834,59.925 319.200 C 59.302 323.458,59.311 342.701,59.939 346.600 C 60.638 350.937,61.095 353.266,61.567 354.900 C 61.805 355.725,62.159 356.985,62.353 357.700 C 65.162 368.062,71.928 378.261,79.321 383.282 C 82.052 385.137,87.593 387.613,88.932 387.577 C 89.409 387.564,88.630 387.145,87.200 386.645 C 65.504 379.070,54.734 347.816,61.605 312.373 C 62.079 309.931,62.370 307.837,62.253 307.719 C 62.135 307.602,61.951 307.932,61.844 308.453 M337.600 307.892 C 337.600 308.126,337.957 310.181,338.393 312.458 C 346.611 355.361,329.749 389.368,301.000 387.871 C 298.345 387.733,296.917 387.781,297.400 387.993 C 298.580 388.511,307.686 388.473,309.894 387.941 C 322.887 384.814,333.402 373.356,337.647 357.700 C 337.841 356.985,338.195 355.725,338.433 354.900 C 338.873 353.377,339.220 351.627,340.075 346.600 C 340.698 342.944,340.720 323.640,340.107 319.400 C 339.181 312.998,338.236 308.103,337.851 307.717 C 337.713 307.580,337.600 307.658,337.600 307.892 M161.000 311.948 C 153.767 316.440,156.426 327.200,164.768 327.200 C 173.418 327.200,176.285 315.654,168.539 312.013 C 166.273 310.948,162.660 310.917,161.000 311.948 M229.966 312.500 C 226.702 315.002,225.620 319.484,227.436 322.979 C 231.270 330.356,242.800 327.521,242.800 319.200 C 242.800 312.830,234.910 308.710,229.966 312.500 M196.400 336.650 C 191.957 337.511,188.471 339.383,184.600 342.987 C 179.347 347.877,174.141 350.000,167.400 350.000 C 162.708 350.000,160.832 349.576,156.673 347.574 C 151.645 345.154,148.553 346.845,144.866 354.034 C 142.732 358.194,133.322 369.396,128.254 373.809 C 126.744 375.124,125.304 376.392,125.054 376.626 C 121.264 380.180,110.090 385.924,104.871 387.002 C 104.141 387.153,103.645 387.378,103.769 387.502 C 104.065 387.798,108.376 386.763,108.642 386.332 C 108.755 386.149,109.168 386.000,109.559 386.000 C 114.774 386.000,132.878 371.827,139.194 362.800 C 139.733 362.030,140.398 361.168,140.673 360.885 C 140.947 360.602,141.487 359.837,141.872 359.185 C 142.257 358.533,142.714 358.000,142.886 358.000 C 143.059 358.000,143.200 357.764,143.200 357.475 C 143.200 357.187,143.515 356.594,143.900 356.158 C 144.619 355.345,145.133 354.539,147.253 350.900 C 149.587 346.894,152.220 346.211,156.959 348.381 C 166.563 352.780,177.040 350.833,185.237 343.127 C 187.879 340.644,188.341 340.313,190.926 339.051 C 196.898 336.136,203.172 336.131,209.112 339.037 C 211.621 340.265,212.059 340.582,215.177 343.430 C 223.432 350.969,233.464 352.733,243.110 348.342 C 248.738 345.781,249.966 346.469,255.700 355.400 C 257.678 358.480,259.418 361.090,259.567 361.200 C 259.717 361.310,260.276 362.030,260.810 362.800 C 266.970 371.678,285.248 386.000,290.417 386.000 C 290.822 386.000,291.245 386.149,291.358 386.332 C 291.624 386.763,295.935 387.798,296.231 387.502 C 296.355 387.378,295.859 387.153,295.129 387.002 C 282.953 384.488,267.958 372.627,257.200 357.000 C 255.479 354.501,253.200 350.760,253.200 350.435 C 253.200 350.249,252.504 349.379,251.653 348.503 C 249.256 346.033,247.263 345.895,242.848 347.896 C 233.418 352.169,223.400 350.313,215.200 342.775 C 209.860 337.865,202.500 335.467,196.400 336.650 M90.539 388.094 C 91.122 388.465,101.557 388.440,102.505 388.065 C 102.893 387.911,100.256 387.789,96.644 387.793 C 93.032 387.797,90.285 387.932,90.539 388.094 " stroke="none" fill="#535564" fill-rule="evenodd"></path><path id="path4" d="M19.300 0.292 C 18.365 0.377,17.600 0.616,17.600 0.823 C 17.600 1.030,17.240 1.200,16.800 1.200 C 16.360 1.200,16.000 1.380,16.000 1.600 C 16.000 1.820,15.640 2.000,15.200 2.000 C 14.760 2.000,14.400 2.180,14.400 2.400 C 14.400 2.620,14.040 2.800,13.600 2.800 C 13.160 2.800,12.800 2.980,12.800 3.200 C 12.800 3.420,12.512 3.600,12.160 3.600 C 11.809 3.600,11.017 4.140,10.400 4.800 C 9.783 5.460,9.157 6.000,9.008 6.000 C 8.347 6.000,3.619 11.515,3.607 12.300 C 3.603 12.575,3.420 12.800,3.200 12.800 C 2.980 12.800,2.800 13.160,2.800 13.600 C 2.800 14.040,2.620 14.400,2.400 14.400 C 2.180 14.400,2.000 14.760,2.000 15.200 C 2.000 15.640,1.820 16.000,1.600 16.000 C 1.380 16.000,1.200 16.324,1.200 16.720 C 1.200 17.116,0.975 17.665,0.700 17.940 C -0.035 18.675,-0.035 256.525,0.700 257.260 C 0.975 257.535,1.200 258.174,1.200 258.680 C 1.200 259.186,1.380 259.600,1.600 259.600 C 1.820 259.600,2.000 259.960,2.000 260.400 C 2.000 260.840,2.180 261.200,2.400 261.200 C 2.620 261.200,2.800 261.520,2.800 261.912 C 2.800 262.303,3.160 262.883,3.600 263.200 C 4.040 263.517,4.400 264.007,4.400 264.288 C 4.400 264.915,10.150 270.800,10.761 270.800 C 11.003 270.800,11.200 270.954,11.200 271.142 C 11.200 271.903,17.873 274.845,20.128 275.077 C 21.377 275.206,22.400 275.467,22.400 275.656 C 22.400 275.845,30.862 276.000,41.205 276.000 L 60.011 276.000 59.351 277.500 C 58.987 278.325,58.605 279.495,58.500 280.100 C 58.395 280.705,58.150 281.200,57.955 281.200 C 57.760 281.200,57.600 281.650,57.600 282.200 C 57.600 282.750,57.420 283.200,57.200 283.200 C 56.980 283.200,56.800 283.560,56.800 284.000 C 56.800 284.440,56.620 284.800,56.400 284.800 C 56.180 284.800,56.000 285.340,56.000 286.000 C 56.000 286.660,55.820 287.200,55.600 287.200 C 55.380 287.200,55.200 287.549,55.200 287.976 C 55.200 288.403,55.020 288.864,54.800 289.000 C 54.580 289.136,54.400 289.687,54.400 290.224 C 54.400 290.761,54.220 291.200,54.000 291.200 C 53.780 291.200,53.600 291.740,53.600 292.400 C 53.600 293.060,53.420 293.600,53.200 293.600 C 52.980 293.600,52.800 294.230,52.800 295.000 C 52.800 295.770,52.620 296.400,52.400 296.400 C 52.180 296.400,52.000 296.940,52.000 297.600 C 52.000 298.260,51.820 298.800,51.600 298.800 C 51.380 298.800,51.200 299.520,51.200 300.400 C 51.200 301.280,51.020 302.000,50.800 302.000 C 50.580 302.000,50.400 302.720,50.400 303.600 C 50.400 304.480,50.220 305.200,50.000 305.200 C 49.780 305.200,49.600 306.100,49.600 307.200 C 49.600 308.300,49.420 309.200,49.200 309.200 C 48.980 309.200,48.800 309.999,48.800 310.976 C 48.800 311.953,48.620 312.864,48.400 313.000 C 48.180 313.136,48.000 314.371,48.000 315.744 C 48.000 317.117,47.830 318.411,47.623 318.620 C 47.415 318.829,47.149 321.250,47.031 324.000 C 46.912 326.750,46.709 330.778,46.579 332.951 C 46.424 335.536,46.491 337.051,46.771 337.331 C 47.028 337.588,47.200 339.656,47.200 342.480 C 47.200 345.360,47.356 347.200,47.600 347.200 C 47.825 347.200,48.000 348.325,48.000 349.776 C 48.000 351.193,48.180 352.464,48.400 352.600 C 48.620 352.736,48.800 353.546,48.800 354.400 C 48.800 355.254,48.960 356.052,49.156 356.173 C 49.492 356.380,49.614 356.873,50.232 360.500 C 50.373 361.325,50.648 362.000,50.844 362.000 C 51.040 362.000,51.200 362.540,51.200 363.200 C 51.200 363.860,51.380 364.400,51.600 364.400 C 51.820 364.400,52.000 364.940,52.000 365.600 C 52.000 366.260,52.180 366.800,52.400 366.800 C 52.620 366.800,52.800 367.072,52.800 367.405 C 52.800 367.738,52.980 368.368,53.200 368.805 C 53.420 369.242,53.780 369.958,54.000 370.395 C 54.220 370.832,54.400 371.462,54.400 371.795 C 54.400 372.128,54.546 372.400,54.725 372.400 C 54.904 372.400,55.298 373.030,55.600 373.800 C 55.902 374.570,56.296 375.200,56.475 375.200 C 56.654 375.200,56.800 375.494,56.800 375.853 C 56.800 376.212,57.131 376.797,57.536 377.153 C 57.941 377.509,58.394 378.295,58.544 378.900 C 58.693 379.505,58.992 380.000,59.208 380.000 C 59.423 380.000,59.600 380.236,59.600 380.525 C 59.600 380.813,59.920 381.398,60.311 381.825 C 60.702 382.251,61.459 383.230,61.994 384.000 C 63.334 385.928,69.257 391.600,69.930 391.600 C 70.232 391.600,70.983 392.140,71.600 392.800 C 72.217 393.460,73.009 394.000,73.360 394.000 C 73.712 394.000,74.000 394.146,74.000 394.325 C 74.000 394.504,74.630 394.898,75.400 395.200 C 76.170 395.502,76.800 395.896,76.800 396.075 C 76.800 396.254,77.160 396.400,77.600 396.400 C 78.040 396.400,78.400 396.580,78.400 396.800 C 78.400 397.020,78.760 397.200,79.200 397.200 C 79.640 397.200,80.000 397.380,80.000 397.600 C 80.000 397.820,80.540 398.000,81.200 398.000 C 81.860 398.000,82.400 398.180,82.400 398.400 C 82.400 398.620,82.925 398.800,83.567 398.800 C 84.208 398.800,84.808 399.025,84.900 399.300 C 85.142 400.027,108.458 400.027,108.700 399.300 C 108.792 399.025,109.257 398.797,109.733 398.794 C 110.683 398.787,113.422 397.911,113.859 397.474 C 114.010 397.323,114.553 397.200,115.067 397.200 C 115.580 397.200,116.000 397.020,116.000 396.800 C 116.000 396.580,116.272 396.400,116.605 396.400 C 116.938 396.400,117.523 396.232,117.905 396.026 C 118.287 395.821,119.185 395.417,119.900 395.129 C 120.615 394.840,121.200 394.502,121.200 394.377 C 121.200 394.252,121.830 393.902,122.600 393.600 C 123.370 393.298,124.000 392.904,124.000 392.725 C 124.000 392.546,124.270 392.400,124.600 392.400 C 124.930 392.400,125.200 392.220,125.200 392.000 C 125.200 391.780,125.532 391.600,125.938 391.600 C 126.344 391.600,127.199 391.150,127.838 390.600 C 128.477 390.051,129.185 389.601,129.412 389.600 C 129.638 389.600,130.083 389.240,130.400 388.800 C 130.717 388.360,131.185 388.000,131.440 388.000 C 131.695 388.000,132.645 387.280,133.552 386.400 C 134.459 385.520,135.346 384.800,135.522 384.800 C 136.031 384.800,144.800 375.903,144.800 375.387 C 144.800 375.286,145.700 374.285,146.800 373.161 C 147.900 372.038,148.800 370.956,148.800 370.756 C 148.800 370.556,149.340 369.828,150.000 369.137 C 150.660 368.446,151.200 367.678,151.200 367.429 C 151.200 367.180,151.560 366.717,152.000 366.400 C 152.440 366.083,152.800 365.543,152.800 365.200 C 152.800 364.857,153.160 364.317,153.600 364.000 C 154.040 363.683,154.400 363.180,154.400 362.883 C 154.400 361.924,155.507 361.200,156.971 361.200 C 157.757 361.200,158.400 361.380,158.400 361.600 C 158.400 361.820,159.199 362.000,160.176 362.000 C 161.153 362.000,162.064 362.180,162.200 362.400 C 162.343 362.632,164.537 362.800,167.424 362.800 C 170.475 362.800,172.400 362.645,172.400 362.400 C 172.400 362.180,173.390 362.000,174.600 362.000 C 175.810 362.000,176.800 361.820,176.800 361.600 C 176.800 361.380,177.340 361.200,178.000 361.200 C 178.660 361.200,179.200 361.020,179.200 360.800 C 179.200 360.580,179.740 360.400,180.400 360.400 C 181.060 360.400,181.600 360.220,181.600 360.000 C 181.600 359.780,181.960 359.600,182.400 359.600 C 182.840 359.600,183.200 359.443,183.200 359.250 C 183.200 359.058,183.748 358.790,184.419 358.656 C 185.601 358.420,189.264 356.176,189.533 355.523 C 189.607 355.345,189.842 355.200,190.055 355.200 C 190.269 355.200,191.504 354.120,192.800 352.800 C 194.096 351.480,195.436 350.400,195.778 350.400 C 196.120 350.400,196.400 350.220,196.400 350.000 C 196.400 349.780,196.839 349.600,197.376 349.600 C 197.913 349.600,198.464 349.420,198.600 349.200 C 198.736 348.980,199.366 348.800,200.000 348.800 C 200.634 348.800,201.264 348.980,201.400 349.200 C 201.536 349.420,202.087 349.600,202.624 349.600 C 203.161 349.600,203.600 349.780,203.600 350.000 C 203.600 350.220,203.880 350.400,204.222 350.400 C 204.564 350.400,205.904 351.480,207.200 352.800 C 208.496 354.120,209.652 355.200,209.770 355.200 C 209.887 355.200,210.932 355.919,212.092 356.799 C 213.251 357.678,214.785 358.508,215.500 358.643 C 216.215 358.778,216.800 359.049,216.800 359.245 C 216.800 359.440,217.160 359.600,217.600 359.600 C 218.040 359.600,218.400 359.780,218.400 360.000 C 218.400 360.220,218.940 360.400,219.600 360.400 C 220.260 360.400,220.800 360.580,220.800 360.800 C 220.800 361.020,221.340 361.200,222.000 361.200 C 222.660 361.200,223.200 361.380,223.200 361.600 C 223.200 361.820,224.190 362.000,225.400 362.000 C 226.610 362.000,227.600 362.180,227.600 362.400 C 227.600 362.936,237.469 362.936,237.800 362.400 C 237.936 362.180,238.847 362.000,239.824 362.000 C 240.801 362.000,241.600 361.820,241.600 361.600 C 241.600 360.986,244.382 361.125,245.029 361.771 C 245.343 362.086,245.600 362.626,245.600 362.971 C 245.600 363.317,245.750 363.600,245.932 363.600 C 246.115 363.600,246.519 364.095,246.830 364.700 C 247.140 365.305,247.711 366.091,248.097 366.447 C 248.484 366.803,248.800 367.271,248.800 367.488 C 248.800 367.704,249.340 368.446,250.000 369.137 C 250.660 369.828,251.200 370.556,251.200 370.756 C 251.200 370.956,252.100 372.038,253.200 373.161 C 254.300 374.285,255.200 375.286,255.200 375.387 C 255.200 375.903,263.969 384.800,264.478 384.800 C 264.654 384.800,265.541 385.520,266.448 386.400 C 267.355 387.280,268.263 388.000,268.466 388.000 C 268.670 388.000,269.286 388.450,269.836 389.000 C 270.386 389.550,270.981 390.000,271.157 390.000 C 271.333 390.000,271.893 390.360,272.400 390.800 C 272.907 391.240,273.655 391.600,274.061 391.600 C 274.468 391.600,274.800 391.780,274.800 392.000 C 274.800 392.220,275.070 392.400,275.400 392.400 C 275.730 392.400,276.001 392.535,276.003 392.700 C 276.005 392.865,276.410 393.198,276.903 393.440 C 277.396 393.683,278.610 394.290,279.600 394.790 C 280.590 395.291,281.713 395.858,282.095 396.050 C 282.477 396.243,283.062 396.400,283.395 396.400 C 283.728 396.400,284.000 396.580,284.000 396.800 C 284.000 397.020,284.362 397.200,284.805 397.200 C 285.248 397.200,285.968 397.380,286.405 397.600 C 286.842 397.820,287.558 398.180,287.995 398.400 C 288.432 398.620,289.317 398.800,289.961 398.800 C 290.606 398.800,291.208 399.025,291.300 399.300 C 291.428 399.685,294.169 399.800,303.200 399.800 C 312.231 399.800,314.972 399.685,315.100 399.300 C 315.192 399.025,315.792 398.800,316.433 398.800 C 317.075 398.800,317.600 398.620,317.600 398.400 C 317.600 398.180,318.140 398.000,318.800 398.000 C 319.460 398.000,320.000 397.820,320.000 397.600 C 320.000 397.380,320.360 397.200,320.800 397.200 C 321.240 397.200,321.600 397.020,321.600 396.800 C 321.600 396.580,321.960 396.400,322.400 396.400 C 322.840 396.400,323.200 396.220,323.200 396.000 C 323.200 395.780,323.560 395.600,324.000 395.600 C 324.440 395.600,324.800 395.420,324.800 395.200 C 324.800 394.980,325.070 394.800,325.400 394.800 C 325.730 394.800,326.000 394.620,326.000 394.400 C 326.000 394.180,326.288 394.000,326.640 394.000 C 326.991 394.000,327.783 393.460,328.400 392.800 C 329.017 392.140,329.768 391.600,330.070 391.600 C 330.743 391.600,336.666 385.928,338.006 384.000 C 338.541 383.230,339.298 382.251,339.689 381.825 C 340.080 381.398,340.400 380.813,340.400 380.525 C 340.400 380.236,340.577 380.000,340.792 380.000 C 341.008 380.000,341.307 379.505,341.456 378.900 C 341.606 378.295,342.059 377.509,342.464 377.153 C 342.869 376.797,343.200 376.212,343.200 375.853 C 343.200 375.494,343.346 375.200,343.525 375.200 C 343.704 375.200,344.098 374.570,344.400 373.800 C 344.702 373.030,345.096 372.400,345.275 372.400 C 345.454 372.400,345.600 372.128,345.600 371.795 C 345.600 371.462,345.808 370.787,346.062 370.295 C 347.033 368.418,347.200 367.993,347.200 367.405 C 347.200 367.072,347.380 366.800,347.600 366.800 C 347.820 366.800,348.000 366.260,348.000 365.600 C 348.000 364.940,348.180 364.400,348.400 364.400 C 348.620 364.400,348.800 363.860,348.800 363.200 C 348.800 362.540,348.980 362.000,349.200 362.000 C 349.420 362.000,349.600 361.381,349.600 360.624 C 349.600 359.867,349.780 359.136,350.000 359.000 C 350.220 358.864,350.400 358.133,350.400 357.376 C 350.400 356.619,350.580 356.000,350.800 356.000 C 351.020 356.000,351.200 355.291,351.200 354.424 C 351.200 353.557,351.380 352.736,351.600 352.600 C 351.820 352.464,352.000 351.193,352.000 349.776 C 352.000 348.325,352.175 347.200,352.400 347.200 C 352.645 347.200,352.800 345.275,352.800 342.224 C 352.800 339.337,352.968 337.143,353.200 337.000 C 353.708 336.686,353.728 330.289,353.222 329.780 C 353.015 329.571,352.753 327.060,352.642 324.200 C 352.368 317.200,352.011 313.478,351.568 313.020 C 351.365 312.811,351.200 311.866,351.200 310.920 C 351.200 309.974,351.020 309.200,350.800 309.200 C 350.580 309.200,350.400 308.300,350.400 307.200 C 350.400 306.100,350.220 305.200,350.000 305.200 C 349.780 305.200,349.600 304.480,349.600 303.600 C 349.600 302.720,349.420 302.000,349.200 302.000 C 348.980 302.000,348.800 301.280,348.800 300.400 C 348.800 299.520,348.620 298.800,348.400 298.800 C 348.180 298.800,348.000 298.260,348.000 297.600 C 348.000 296.940,347.820 296.400,347.600 296.400 C 347.380 296.400,347.200 295.770,347.200 295.000 C 347.200 294.230,347.020 293.600,346.800 293.600 C 346.580 293.600,346.400 293.060,346.400 292.400 C 346.400 291.740,346.220 291.200,346.000 291.200 C 345.780 291.200,345.600 290.761,345.600 290.224 C 345.600 289.687,345.420 289.136,345.200 289.000 C 344.980 288.864,344.800 288.403,344.800 287.976 C 344.800 287.549,344.620 287.200,344.400 287.200 C 344.180 287.200,344.000 286.660,344.000 286.000 C 344.000 285.340,343.820 284.800,343.600 284.800 C 343.380 284.800,343.200 284.440,343.200 284.000 C 343.200 283.560,343.020 283.200,342.800 283.200 C 342.580 283.200,342.400 282.750,342.400 282.200 C 342.400 281.650,342.240 281.200,342.045 281.200 C 341.850 281.200,341.605 280.705,341.500 280.100 C 341.395 279.495,341.013 278.325,340.649 277.500 L 339.989 276.000 358.795 276.000 C 369.138 276.000,377.600 275.845,377.600 275.656 C 377.600 275.467,378.623 275.206,379.872 275.077 C 382.127 274.845,388.800 271.903,388.800 271.142 C 388.800 270.954,388.997 270.800,389.239 270.800 C 389.850 270.800,395.600 264.915,395.600 264.288 C 395.600 264.007,395.960 263.517,396.400 263.200 C 396.840 262.883,397.200 262.303,397.200 261.912 C 397.200 261.520,397.380 261.200,397.600 261.200 C 397.820 261.200,398.000 260.840,398.000 260.400 C 398.000 259.960,398.180 259.600,398.400 259.600 C 398.620 259.600,398.800 259.186,398.800 258.680 C 398.800 258.174,399.025 257.535,399.300 257.260 C 399.697 256.863,399.800 240.424,399.800 177.745 L 399.800 98.729 398.800 97.965 C 398.250 97.544,397.566 97.005,397.280 96.765 C 396.551 96.157,392.939 96.697,391.164 97.680 C 387.908 99.483,388.225 91.649,388.000 176.000 C 387.775 260.195,388.064 252.785,384.846 257.042 C 380.259 263.111,378.223 263.461,346.959 263.555 L 331.717 263.600 329.920 260.900 C 328.931 259.415,327.107 256.940,325.866 255.400 C 324.625 253.860,323.608 252.459,323.605 252.287 C 323.602 252.114,334.665 251.992,348.190 252.015 C 375.505 252.062,374.054 252.200,375.906 249.375 L 376.800 248.011 376.800 137.800 C 376.800 50.363,376.697 27.409,376.300 26.717 C 375.658 25.596,374.369 24.310,373.378 23.800 C 372.862 23.534,327.252 23.467,237.729 23.600 L 102.859 23.800 101.747 24.630 C 98.374 27.149,98.762 32.250,102.482 34.281 C 103.741 34.968,109.644 35.009,234.400 35.200 L 365.000 35.400 365.109 137.000 C 365.169 192.880,365.121 239.005,365.002 239.500 L 364.785 240.400 337.963 240.400 L 311.140 240.400 308.270 238.270 C 302.071 233.668,296.844 230.771,291.200 228.807 C 290.430 228.539,289.440 228.174,289.000 227.997 C 288.560 227.819,287.300 227.466,286.200 227.212 C 285.100 226.958,283.480 226.536,282.600 226.275 C 281.419 225.924,271.842 225.800,246.000 225.800 L 211.000 225.800 209.691 226.733 C 207.274 228.457,206.694 230.969,208.100 233.623 C 209.744 236.726,210.061 236.781,226.476 236.791 C 234.328 236.796,240.837 236.936,240.939 237.101 C 241.113 237.383,239.599 242.432,238.810 244.200 C 238.613 244.640,238.069 246.170,237.600 247.600 C 237.131 249.030,236.592 250.560,236.402 251.000 C 235.982 251.974,234.563 256.019,232.121 263.200 C 231.111 266.170,230.108 268.826,229.892 269.103 C 229.581 269.500,223.240 269.584,199.697 269.503 L 169.896 269.400 168.628 265.800 C 167.931 263.820,166.773 260.490,166.056 258.400 C 165.338 256.310,164.594 254.240,164.402 253.800 C 164.210 253.360,163.824 252.280,163.545 251.400 C 163.265 250.520,162.893 249.629,162.718 249.420 C 162.543 249.211,162.400 248.662,162.400 248.200 C 162.400 247.738,162.252 247.189,162.072 246.980 C 161.892 246.771,161.318 245.250,160.798 243.600 C 160.277 241.950,159.721 240.420,159.561 240.200 C 159.402 239.980,159.147 239.134,158.995 238.319 L 158.718 236.838 173.091 236.719 L 187.464 236.600 188.855 235.538 C 191.671 233.389,191.789 229.481,189.116 226.920 L 187.947 225.800 153.474 225.800 C 128.038 225.800,118.581 225.924,117.400 226.275 C 116.520 226.536,114.900 226.958,113.800 227.213 C 107.420 228.694,98.832 232.995,91.730 238.269 L 88.860 240.400 62.073 240.400 C 38.015 240.400,35.261 240.336,35.043 239.767 C 34.726 238.943,34.736 37.281,35.052 36.100 L 35.293 35.200 56.300 35.200 C 71.210 35.200,77.762 35.064,78.873 34.731 C 83.504 33.343,84.594 26.868,80.610 24.406 C 78.639 23.188,28.100 23.144,26.257 24.359 C 23.327 26.291,23.606 14.410,23.603 137.520 C 23.600 258.906,23.381 248.933,26.094 250.868 L 27.400 251.800 51.900 251.912 C 65.375 251.973,76.400 252.157,76.400 252.319 C 76.400 252.482,75.725 253.435,74.900 254.438 C 74.075 255.440,72.233 257.920,70.808 259.949 L 68.215 263.637 45.808 263.518 L 23.400 263.400 21.036 262.204 C 16.064 259.688,12.924 255.553,12.046 250.367 C 11.422 246.683,11.411 28.367,12.035 24.995 C 13.266 18.337,18.537 13.156,25.254 12.002 C 29.927 11.200,373.271 11.685,375.882 12.497 C 382.707 14.622,386.606 19.068,387.586 25.844 C 387.816 27.434,387.988 39.079,387.992 53.362 L 388.000 78.124 389.021 79.463 C 391.441 82.637,395.805 83.272,398.332 80.820 L 400.033 79.169 399.917 48.918 C 399.825 25.156,399.693 18.631,399.300 18.500 C 399.025 18.408,398.800 17.808,398.800 17.167 C 398.800 16.525,398.620 16.000,398.400 16.000 C 398.180 16.000,398.000 15.640,398.000 15.200 C 398.000 14.760,397.820 14.400,397.600 14.400 C 397.380 14.400,397.200 14.080,397.200 13.688 C 397.200 13.297,396.840 12.717,396.400 12.400 C 395.960 12.083,395.600 11.597,395.600 11.320 C 395.600 10.721,389.397 4.400,388.809 4.400 C 388.584 4.400,388.400 4.220,388.400 4.000 C 388.400 3.780,388.130 3.600,387.800 3.600 C 387.470 3.600,387.200 3.420,387.200 3.200 C 387.200 2.980,386.840 2.800,386.400 2.800 C 385.960 2.800,385.600 2.620,385.600 2.400 C 385.600 2.180,385.240 2.000,384.800 2.000 C 384.360 2.000,384.000 1.820,384.000 1.600 C 384.000 1.380,383.586 1.200,383.080 1.200 C 382.574 1.200,381.935 0.975,381.660 0.700 C 381.189 0.229,24.411 -0.173,19.300 0.292 M111.600 69.612 C 109.950 69.804,107.700 70.150,106.600 70.382 C 105.500 70.614,103.921 70.917,103.090 71.056 C 102.260 71.194,101.484 71.464,101.367 71.654 C 101.249 71.844,100.724 72.000,100.200 72.000 C 99.676 72.000,99.136 72.180,99.000 72.400 C 98.864 72.620,98.401 72.800,97.971 72.800 C 97.541 72.800,96.877 72.962,96.495 73.159 C 96.113 73.357,94.180 74.294,92.200 75.242 C 77.669 82.201,65.786 95.444,61.191 109.800 C 60.698 111.340,60.152 112.960,59.978 113.400 C 59.664 114.190,59.549 114.673,58.737 118.600 C 58.099 121.687,57.849 135.746,58.374 139.000 C 59.080 143.373,60.102 147.170,61.713 151.400 C 77.347 192.460,129.623 203.751,160.858 172.813 C 171.375 162.396,171.910 164.011,151.041 143.202 C 142.988 135.173,136.400 128.414,136.400 128.181 C 136.400 127.948,138.515 125.664,141.100 123.106 C 143.685 120.547,150.435 113.792,156.100 108.095 L 166.400 97.736 166.400 95.405 C 166.400 92.603,165.085 90.656,159.892 85.771 C 154.187 80.405,141.721 72.800,138.628 72.800 C 138.309 72.800,137.949 72.641,137.829 72.446 C 137.708 72.251,137.113 72.000,136.505 71.888 C 135.897 71.776,134.320 71.414,133.000 71.083 C 131.680 70.752,129.660 70.288,128.512 70.051 C 125.640 69.458,115.250 69.188,111.600 69.612 M291.400 69.437 C 284.880 70.069,276.855 73.203,271.563 77.185 C 264.681 82.364,258.834 90.726,256.871 98.200 C 255.911 101.855,255.607 103.550,254.400 112.000 C 254.180 113.540,253.813 116.105,253.585 117.700 C 253.357 119.295,253.001 121.680,252.795 123.000 C 251.638 130.404,251.872 132.322,254.158 134.173 L 255.672 135.400 264.936 135.600 L 274.200 135.800 274.151 137.200 C 274.125 137.970,273.894 140.040,273.639 141.800 C 272.803 147.569,271.871 154.083,271.191 158.900 C 269.968 167.555,270.314 170.548,273.233 176.600 C 282.839 196.511,312.569 194.318,319.251 173.206 C 320.975 167.758,320.804 164.673,317.604 143.502 C 317.112 140.249,316.632 136.706,316.614 136.200 C 316.605 135.950,320.058 135.722,325.800 135.591 C 338.905 135.294,340.020 134.325,338.387 124.646 C 338.161 123.301,337.351 117.700,336.588 112.200 C 333.806 92.134,329.536 83.948,317.791 76.162 C 314.412 73.922,313.209 73.257,310.800 72.293 C 310.250 72.073,309.440 71.741,309.000 71.556 C 305.388 70.033,296.406 68.952,291.400 69.437 M126.800 81.125 C 136.155 82.724,149.624 89.673,152.766 94.521 C 153.177 95.156,151.514 96.961,138.827 109.644 C 122.225 126.242,122.800 125.564,122.800 128.539 L 122.800 130.755 138.805 146.795 C 156.854 164.884,155.587 162.959,151.697 166.376 C 144.306 172.871,136.788 176.650,127.320 178.631 C 124.078 179.309,112.853 179.403,110.077 178.775 C 105.481 177.736,104.529 177.500,103.400 177.121 C 101.425 176.460,100.685 176.155,98.862 175.257 C 97.906 174.786,96.871 174.400,96.562 174.400 C 96.253 174.400,96.000 174.264,96.000 174.098 C 96.000 173.931,95.415 173.541,94.700 173.230 C 90.506 171.406,80.765 162.973,78.580 159.273 C 78.166 158.573,77.686 158.000,77.514 158.000 C 77.341 158.000,77.200 157.807,77.200 157.572 C 77.200 157.337,76.694 156.392,76.075 155.472 C 68.616 144.389,66.812 127.272,71.644 113.437 C 72.710 110.383,75.220 105.179,76.001 104.400 C 76.111 104.290,76.455 103.708,76.765 103.107 C 77.074 102.505,77.614 101.695,77.964 101.306 C 78.314 100.918,79.134 99.879,79.787 99.000 C 85.670 91.074,97.149 83.866,107.400 81.660 C 108.500 81.423,110.210 81.056,111.200 80.845 C 113.307 80.395,123.614 80.580,126.800 81.125 M300.400 80.957 C 314.661 84.012,322.667 93.285,324.785 109.200 C 325.263 112.789,325.650 115.448,326.426 120.458 C 326.686 122.140,326.776 123.715,326.626 123.958 C 326.305 124.477,265.322 124.592,264.509 124.076 C 264.134 123.837,264.114 123.156,264.427 121.182 C 264.951 117.873,265.435 114.617,265.998 110.600 C 266.852 104.517,267.315 102.279,268.265 99.645 C 272.959 86.627,287.471 78.187,300.400 80.957 M113.000 96.161 C 110.440 97.291,109.130 100.163,109.988 102.763 C 111.611 107.680,118.279 108.059,120.248 103.346 C 122.194 98.689,117.597 94.132,113.000 96.161 M165.332 124.449 C 160.917 126.591,161.591 133.312,166.363 134.742 C 172.874 136.692,176.022 126.825,169.727 124.195 C 167.902 123.433,167.363 123.464,165.332 124.449 M186.541 124.217 C 181.660 126.357,182.362 133.298,187.613 134.804 C 189.626 135.381,193.600 133.473,193.600 131.929 C 193.600 131.554,193.780 131.136,194.000 131.000 C 195.020 130.370,194.136 126.852,192.609 125.465 C 190.719 123.747,188.605 123.312,186.541 124.217 M208.128 124.222 C 203.379 126.302,203.805 133.256,208.773 134.745 C 213.798 136.250,217.837 129.791,214.300 125.905 C 212.365 123.778,210.378 123.237,208.128 124.222 M230.128 124.222 C 223.949 126.928,227.235 136.660,233.676 134.730 C 238.615 133.250,239.161 126.586,234.521 124.405 C 232.551 123.479,231.889 123.451,230.128 124.222 M300.800 135.553 L 305.400 135.800 305.657 138.000 C 305.983 140.799,307.103 148.891,307.982 154.800 C 309.109 162.384,309.296 163.916,309.301 165.600 C 309.313 170.398,305.884 176.017,301.767 177.947 C 301.125 178.247,300.287 178.652,299.905 178.847 C 298.297 179.665,292.140 179.253,289.771 178.170 C 283.168 175.150,280.643 168.717,282.325 159.200 C 282.577 157.770,283.426 152.010,284.211 146.400 C 285.302 138.606,285.794 136.082,286.296 135.700 C 287.004 135.161,292.481 135.105,300.800 135.553 M146.469 237.062 C 146.871 237.426,147.200 237.969,147.200 238.267 C 147.200 238.566,147.369 239.123,147.575 239.505 C 147.782 239.887,148.400 241.550,148.950 243.200 C 149.499 244.850,150.780 248.540,151.797 251.400 C 152.813 254.260,154.088 257.950,154.631 259.600 C 155.174 261.250,155.794 262.913,156.009 263.295 C 156.224 263.677,156.400 264.264,156.400 264.600 C 156.400 264.936,156.580 265.568,156.800 266.005 C 157.020 266.442,157.380 267.158,157.600 267.595 C 157.820 268.032,158.000 268.741,158.000 269.171 C 158.000 269.601,158.180 270.064,158.400 270.200 C 158.620 270.336,158.800 270.799,158.800 271.229 C 158.800 271.659,158.980 272.368,159.200 272.805 C 159.420 273.242,159.780 273.958,160.000 274.395 C 160.220 274.832,160.400 275.434,160.400 275.733 C 160.400 276.604,161.501 278.571,162.490 279.465 C 164.396 281.191,164.608 281.201,200.160 281.184 L 234.200 281.167 236.000 280.284 C 237.911 279.345,238.927 277.846,239.986 274.400 C 240.290 273.410,240.688 272.429,240.870 272.220 C 241.051 272.011,241.200 271.437,241.200 270.944 C 241.200 270.451,241.344 269.958,241.521 269.849 C 241.697 269.740,242.093 268.728,242.400 267.600 C 242.707 266.472,243.103 265.460,243.279 265.351 C 243.456 265.242,243.600 264.801,243.600 264.371 C 243.600 263.941,243.808 263.187,244.062 262.695 C 245.056 260.774,245.200 260.384,245.200 259.629 C 245.200 259.199,245.380 258.736,245.600 258.600 C 245.820 258.464,246.000 257.943,246.000 257.443 C 246.000 256.943,246.118 256.416,246.262 256.272 C 246.406 256.128,247.043 254.523,247.679 252.705 C 248.315 250.887,249.622 247.150,250.583 244.400 C 251.544 241.650,252.544 238.814,252.805 238.098 C 253.462 236.297,253.635 236.278,266.914 236.515 C 279.141 236.733,282.065 237.079,286.800 238.863 C 290.614 240.300,296.849 243.460,297.133 244.100 C 297.207 244.265,297.494 244.400,297.771 244.400 C 298.049 244.400,298.602 244.760,299.000 245.200 C 299.398 245.640,299.889 246.000,300.090 246.000 C 301.406 246.000,311.727 255.851,316.015 261.200 C 318.282 264.027,323.856 272.269,324.807 274.200 C 325.133 274.860,325.512 275.490,325.651 275.600 C 326.232 276.061,331.640 287.713,332.983 291.400 C 333.785 293.600,334.702 296.078,335.020 296.907 C 335.339 297.736,335.769 299.086,335.977 299.907 C 336.185 300.728,336.558 302.120,336.807 303.000 C 337.057 303.880,337.417 305.320,337.608 306.200 C 337.800 307.080,338.148 308.610,338.383 309.600 C 338.902 311.789,339.490 315.133,340.107 319.400 C 340.720 323.640,340.698 342.944,340.075 346.600 C 339.220 351.627,338.873 353.377,338.433 354.900 C 338.195 355.725,337.841 356.985,337.647 357.700 C 333.402 373.356,322.887 384.814,309.894 387.941 C 307.640 388.484,299.020 388.554,297.360 388.043 C 296.722 387.847,295.157 387.456,293.881 387.175 C 292.606 386.893,291.470 386.514,291.358 386.332 C 291.245 386.149,290.822 386.000,290.417 386.000 C 285.248 386.000,266.970 371.678,260.810 362.800 C 260.276 362.030,259.717 361.310,259.567 361.200 C 259.418 361.090,257.678 358.480,255.700 355.400 C 249.966 346.469,248.738 345.781,243.110 348.342 C 233.464 352.733,223.432 350.969,215.177 343.430 C 212.059 340.582,211.621 340.265,209.112 339.037 C 203.172 336.131,196.898 336.136,190.926 339.051 C 188.341 340.313,187.879 340.644,185.237 343.127 C 177.040 350.833,166.563 352.780,156.959 348.381 C 152.220 346.211,149.587 346.894,147.253 350.900 C 145.133 354.539,144.619 355.345,143.900 356.158 C 143.515 356.594,143.200 357.187,143.200 357.475 C 143.200 357.764,143.059 358.000,142.886 358.000 C 142.714 358.000,142.257 358.533,141.872 359.185 C 141.487 359.837,140.947 360.602,140.673 360.885 C 140.398 361.168,139.733 362.030,139.194 362.800 C 132.916 371.772,114.777 386.000,109.615 386.000 C 109.255 386.000,108.789 386.153,108.580 386.341 C 108.371 386.529,107.300 386.901,106.200 387.169 C 105.100 387.437,103.480 387.834,102.600 388.052 C 100.712 388.519,91.298 388.293,89.000 387.725 C 77.133 384.795,66.430 372.735,62.353 357.700 C 62.159 356.985,61.805 355.725,61.567 354.900 C 61.095 353.266,60.638 350.937,59.939 346.600 C 59.311 342.701,59.302 323.458,59.925 319.200 C 60.480 315.414,60.957 312.736,61.582 309.900 C 61.812 308.855,62.166 307.235,62.370 306.300 C 62.573 305.365,62.943 303.880,63.192 303.000 C 63.441 302.120,63.793 300.860,63.974 300.200 C 65.668 294.028,73.058 276.573,74.390 275.600 C 74.541 275.490,74.919 274.815,75.230 274.100 C 75.541 273.385,75.931 272.800,76.098 272.800 C 76.264 272.800,76.400 272.530,76.400 272.200 C 76.400 271.870,76.580 271.600,76.800 271.600 C 77.020 271.600,77.200 271.406,77.200 271.168 C 77.200 270.601,81.374 264.540,84.180 261.032 C 88.297 255.887,94.302 250.045,98.619 246.985 C 100.149 245.902,101.460 244.877,101.533 244.707 C 101.607 244.538,101.907 244.400,102.200 244.400 C 102.493 244.400,102.793 244.265,102.867 244.100 C 103.048 243.693,104.814 242.691,108.400 240.962 C 113.248 238.624,114.448 238.208,118.600 237.423 C 123.196 236.554,123.528 236.535,135.169 236.464 C 144.499 236.407,145.823 236.478,146.469 237.062 M115.259 261.603 C 114.567 262.265,113.966 262.850,113.923 262.903 C 113.881 262.957,113.746 266.240,113.623 270.200 L 113.400 277.400 107.000 277.501 C 98.365 277.637,96.000 278.862,96.000 283.200 C 96.000 287.518,97.944 288.545,106.600 288.800 L 113.400 289.000 113.623 296.200 C 113.746 300.160,113.881 303.443,113.923 303.497 C 116.617 306.894,121.228 306.978,123.472 303.672 C 124.082 302.774,124.232 301.496,124.400 295.800 L 124.600 289.000 131.200 288.795 C 139.083 288.550,139.828 288.298,141.500 285.305 C 142.797 282.985,141.369 279.479,138.600 278.186 C 138.160 277.980,134.830 277.719,131.200 277.606 L 124.600 277.400 124.391 270.600 C 124.166 263.303,123.929 262.432,121.786 261.028 C 120.061 259.898,116.738 260.191,115.259 261.603 M277.373 261.748 C 275.063 263.745,275.029 267.355,277.301 269.437 C 280.767 272.614,286.400 270.238,286.400 265.600 C 286.400 261.023,280.918 258.684,277.373 261.748 M261.328 278.222 C 256.881 280.170,256.970 286.323,261.473 288.205 C 263.258 288.951,263.973 288.952,265.459 288.210 C 271.820 285.037,267.824 275.377,261.328 278.222 M296.306 278.261 C 292.391 280.325,292.109 285.395,295.777 287.774 C 299.367 290.101,303.800 287.574,303.800 283.200 C 303.800 279.188,299.689 276.479,296.306 278.261 M277.301 296.963 C 273.736 300.230,276.060 306.000,280.940 306.000 C 283.341 306.000,284.784 305.165,285.808 303.185 C 288.522 297.936,281.691 292.940,277.301 296.963 M158.705 300.515 C 142.296 306.256,140.876 329.743,156.502 336.947 C 173.702 344.876,190.967 327.138,182.536 310.200 C 178.295 301.681,167.689 297.371,158.705 300.515 M229.879 300.038 C 215.811 303.349,210.373 321.844,220.334 332.503 C 232.577 345.605,254.391 337.084,254.391 319.200 C 254.391 306.347,242.516 297.064,229.879 300.038 M168.539 312.013 C 176.285 315.654,173.418 327.200,164.768 327.200 C 156.426 327.200,153.767 316.440,161.000 311.948 C 162.660 310.917,166.273 310.948,168.539 312.013 M238.288 312.034 C 246.318 316.464,243.005 327.714,233.843 327.130 C 223.945 326.500,224.306 311.200,234.219 311.200 C 236.060 311.200,237.199 311.433,238.288 312.034 " stroke="none" fill="#040404" fill-rule="evenodd"></path></g></svg>