<?xml version="1.0" standalone="no"?>
<!DOCTYPE svg PUBLIC "-//W3C//DTD SVG 20010904//EN"
 "http://www.w3.org/TR/2001/REC-SVG-20010904/DTD/svg10.dtd">
<svg version="1.0" xmlns="http://www.w3.org/2000/svg"
 width="512.000000pt" height="512.000000pt" viewBox="0 0 512.000000 512.000000"
 preserveAspectRatio="xMidYMid meet">

<g transform="translate(0.000000,512.000000) scale(0.100000,-0.100000)"
fill="#000000" stroke="none">
<path d="M2410 5114 c-131 -16 -256 -40 -345 -64 -197 -56 -420 -166 -590
-293 -102 -75 -267 -239 -341 -337 -73 -96 -154 -248 -179 -332 -30 -105 -17
-225 35 -303 l19 -29 -98 -101 c-328 -337 -543 -786 -607 -1265 -16 -117 -18
-215 -19 -750 0 -480 3 -623 13 -652 21 -60 69 -116 126 -148 l53 -30 7 -103
c10 -153 48 -220 160 -280 38 -20 58 -22 237 -25 l196 -3 7 -97 c10 -148 50
-216 160 -275 l41 -22 1275 0 1275 0 41 22 c110 59 150 127 160 275 l7 97 196
3 c179 3 199 5 237 25 112 60 150 127 160 281 l7 103 47 24 c55 28 94 71 124
135 21 44 21 56 20 670 0 678 -4 744 -60 979 -90 382 -293 757 -559 1029 l-90
94 37 75 c34 67 38 83 38 149 0 296 -367 736 -795 952 -179 91 -335 143 -530
177 -87 16 -393 28 -465 19z m338 -155 c390 -42 722 -200 993 -469 246 -246
354 -471 289 -605 -33 -68 -121 -165 -228 -253 -55 -45 -104 -92 -107 -103
-17 -53 49 -114 99 -91 26 11 131 96 191 153 l41 39 60 -63 c93 -94 177 -198
167 -206 -4 -4 -32 -27 -62 -52 -122 -99 -232 -275 -279 -447 l-27 -97 -5
-1272 -5 -1273 -33 -32 -32 -33 -1251 0 -1251 0 -34 37 -34 38 0 641 0 641
-29 29 c-32 32 -47 35 -84 18 -44 -20 -47 -44 -47 -335 l0 -275 -286 3 -286 3
-34 37 -34 38 0 617 c0 653 4 717 50 923 35 157 90 306 172 470 43 85 86 166
97 180 l19 24 85 -84 c93 -94 144 -177 186 -298 l26 -77 5 -511 c5 -485 6
-513 24 -533 26 -29 86 -29 112 0 18 20 19 45 22 463 3 465 -3 575 -40 696
-48 153 -160 323 -277 417 l-59 47 30 42 c42 58 197 224 210 224 6 0 38 -26
72 -57 157 -146 449 -322 681 -413 33 -13 62 -24 63 -26 2 -1 -12 -42 -32 -91
-129 -325 -159 -675 -85 -993 21 -90 47 -130 85 -130 36 0 54 11 70 42 14 27
14 37 -5 116 -57 244 -48 506 25 759 28 95 81 230 94 238 5 3 44 -3 87 -14
280 -72 547 -72 821 -1 l74 19 28 -62 c96 -213 143 -497 121 -729 -6 -68 -21
-162 -32 -210 -19 -80 -19 -89 -4 -117 19 -38 58 -50 94 -30 33 19 46 46 65
141 71 345 29 712 -120 1044 -3 6 36 27 88 48 51 20 133 58 183 84 103 54 123
83 88 131 -39 51 -58 50 -199 -16 -192 -90 -334 -139 -524 -180 -133 -28 -420
-26 -560 5 -450 100 -958 386 -1133 639 -42 60 -51 81 -55 126 -15 189 235
528 543 733 329 219 724 316 1113 273z m1701 -1899 c84 -164 132 -290 171
-452 56 -229 60 -290 60 -962 0 -607 0 -614 -21 -640 -42 -54 -55 -56 -349
-56 l-270 0 0 891 c0 1006 -3 963 78 1129 38 79 61 110 135 185 l88 90 19 -25
c11 -14 51 -86 89 -160z m-3369 -2385 l0 -125 -171 0 c-189 0 -221 8 -252 59
-12 21 -17 52 -17 110 l0 81 220 0 220 0 0 -125z m3400 44 c0 -58 -5 -89 -17
-110 -31 -51 -63 -59 -252 -59 l-171 0 0 125 0 125 220 0 220 0 0 -81z"/>
<path d="M2433 4349 c-130 -12 -243 -43 -361 -100 -303 -147 -377 -414 -171
-619 89 -89 203 -148 371 -193 73 -19 108 -22 288 -22 221 0 288 11 431 69
211 85 340 233 341 390 0 78 -14 125 -60 194 -98 150 -329 257 -605 282 -114
10 -107 10 -234 -1z m392 -178 c215 -57 355 -172 355 -291 0 -120 -139 -233
-360 -292 -73 -20 -109 -23 -260 -23 -151 0 -186 3 -259 23 -224 61 -361 172
-361 292 0 132 165 253 416 305 105 22 365 14 469 -14z"/>
<path d="M2263 1701 c-71 -24 -116 -61 -155 -127 -103 -173 -213 -276 -386
-360 -131 -64 -173 -98 -210 -168 -27 -50 -27 -54 -27 -241 0 -188 0 -191 28
-247 16 -32 46 -73 69 -92 80 -69 40 -66 978 -66 938 0 898 -3 978 66 23 19
53 60 69 92 28 56 28 59 28 242 0 173 -2 188 -24 237 -32 72 -79 111 -212 176
-175 85 -279 181 -380 350 -23 39 -58 80 -81 98 -73 52 -116 59 -382 59 -205
-1 -249 -3 -293 -19z m539 -141 c41 -12 56 -28 128 -140 56 -88 157 -192 244
-255 34 -24 110 -67 169 -95 80 -39 111 -60 122 -81 11 -21 15 -68 15 -192 0
-151 -2 -166 -21 -191 -46 -59 -5 -56 -899 -56 -894 0 -853 -3 -899 56 -19 25
-21 40 -21 191 0 209 -2 206 139 274 184 88 314 198 408 346 69 107 91 132
126 142 44 13 444 13 489 1z"/>
</g>
</svg>
