<svg id="svg" version="1.1" xmlns="http://www.w3.org/2000/svg" xmlns:xlink="http://www.w3.org/1999/xlink" width="400" height="400" viewBox="0, 0, 400,400"><g id="svgg"><path id="path0" d="M181.996 12.900 C 177.799 15.756,177.715 20.362,181.775 25.000 C 183.042 26.447,187.172 32.413,188.352 34.500 C 188.818 35.325,189.590 36.675,190.067 37.500 C 198.765 52.556,203.335 77.184,200.478 93.600 C 198.292 106.158,194.774 116.863,190.317 124.518 C 189.702 125.572,189.200 126.523,189.200 126.631 C 189.200 126.739,187.909 128.756,186.330 131.113 C 178.581 142.688,170.379 150.711,158.210 158.619 C 149.993 163.959,146.235 166.870,141.771 171.353 C 130.756 182.417,124.434 195.214,121.593 212.200 C 120.768 217.128,121.494 235.013,122.546 235.694 C 122.796 235.856,156.787 235.991,198.083 235.994 L 273.165 236.000 274.228 232.700 C 274.812 230.885,275.435 228.860,275.611 228.200 C 276.822 223.657,277.139 222.265,277.568 219.600 C 279.161 209.694,279.606 208.835,283.638 207.877 L 285.600 207.411 285.600 201.951 L 285.600 196.491 283.887 196.234 C 280.324 195.700,278.648 193.716,277.999 189.265 C 277.592 186.473,276.479 181.016,275.986 179.400 C 274.749 175.338,272.551 169.081,271.702 167.200 L 270.708 165.000 270.205 167.600 C 269.928 169.030,269.487 171.460,269.224 173.000 C 266.393 189.618,260.706 204.947,251.798 219.971 C 247.919 226.513,244.924 228.008,240.932 225.392 C 237.708 223.280,237.628 220.271,240.661 215.188 C 245.230 207.531,246.961 204.158,250.198 196.600 C 260.129 173.416,262.138 142.768,255.337 118.210 C 254.787 116.225,254.194 114.060,254.020 113.400 C 253.847 112.740,253.307 111.120,252.821 109.800 C 252.335 108.480,251.790 106.927,251.611 106.349 C 251.431 105.771,250.974 104.601,250.594 103.749 C 250.215 102.897,249.639 101.570,249.313 100.800 C 244.528 89.479,235.138 74.893,227.684 67.200 L 225.940 65.400 226.170 68.200 C 227.492 84.252,226.356 98.890,222.827 111.300 C 222.592 112.125,222.238 113.385,222.041 114.100 C 214.666 140.773,194.418 166.741,169.153 181.930 C 165.664 184.027,160.972 182.410,159.993 178.773 C 159.076 175.369,160.514 172.966,165.010 170.394 C 183.879 159.598,201.648 137.289,209.128 115.000 C 214.529 98.907,216.254 79.692,213.589 65.300 C 211.794 55.609,211.787 55.579,209.177 47.667 C 207.484 42.534,204.090 34.745,202.008 31.214 C 201.344 30.087,200.800 29.077,200.800 28.971 C 200.800 28.499,194.039 18.719,191.870 16.053 C 188.495 11.906,185.066 10.811,181.996 12.900 M181.472 48.824 C 181.328 49.361,181.208 51.060,181.205 52.600 C 181.190 58.837,178.458 80.407,177.126 84.800 C 176.316 87.473,173.831 89.200,170.797 89.200 C 169.151 89.200,169.053 89.387,168.534 93.500 C 168.416 94.435,168.158 95.200,167.960 95.200 C 167.762 95.200,167.600 95.742,167.600 96.405 C 167.600 97.068,167.375 97.978,167.100 98.428 C 166.687 99.102,166.705 99.305,167.200 99.590 C 171.336 101.974,173.112 105.459,171.641 108.305 C 171.444 108.687,170.878 110.350,170.383 112.000 C 167.624 121.210,163.005 133.519,159.318 141.485 C 158.205 143.889,158.995 143.604,162.603 140.300 C 187.327 117.657,196.131 81.828,184.055 53.000 C 182.237 48.660,181.734 47.846,181.472 48.824 M155.069 283.064 C 154.505 283.629,162.741 287.915,168.369 289.986 C 173.494 291.872,181.661 293.746,182.054 293.126 C 182.719 292.078,182.469 283.312,181.767 283.043 C 180.906 282.712,155.401 282.733,155.069 283.064 M218.267 283.067 C 217.679 283.655,217.972 289.600,218.590 289.600 C 220.234 289.600,232.400 283.926,232.400 283.160 C 232.400 282.749,218.675 282.659,218.267 283.067 " stroke="none" fill="#fabb60" fill-rule="evenodd"></path><path id="path1" d="M178.600 0.358 C 178.160 0.536,177.395 0.819,176.900 0.987 C 176.405 1.156,176.000 1.452,176.000 1.647 C 176.000 1.841,175.770 2.000,175.488 2.000 C 175.207 2.000,174.717 2.360,174.400 2.800 C 174.083 3.240,173.638 3.600,173.412 3.600 C 172.753 3.601,170.800 5.439,170.800 6.058 C 170.800 6.369,170.440 6.883,170.000 7.200 C 169.560 7.517,169.200 8.007,169.200 8.288 C 169.200 8.570,169.065 8.801,168.900 8.803 C 168.541 8.807,167.600 10.744,167.600 11.480 C 167.600 11.766,167.420 12.000,167.200 12.000 C 166.980 12.000,166.800 12.720,166.800 13.600 C 166.800 14.480,166.620 15.200,166.400 15.200 C 166.161 15.200,166.000 16.733,166.000 19.000 C 166.000 21.267,166.161 22.800,166.400 22.800 C 166.620 22.800,166.800 23.340,166.800 24.000 C 166.800 24.660,166.980 25.200,167.200 25.200 C 167.420 25.200,167.600 25.740,167.600 26.400 C 167.600 27.060,167.780 27.600,168.000 27.600 C 168.220 27.600,168.400 27.960,168.400 28.400 C 168.400 28.840,168.580 29.200,168.800 29.200 C 169.056 29.200,169.200 32.859,169.200 39.376 C 169.200 45.729,169.050 49.646,168.800 49.800 C 168.568 49.943,168.400 52.137,168.400 55.024 C 168.400 58.075,168.245 60.000,168.000 60.000 C 167.765 60.000,167.600 61.400,167.600 63.400 C 167.600 65.400,167.435 66.800,167.200 66.800 C 166.971 66.800,166.800 68.000,166.800 69.600 C 166.800 71.200,166.629 72.400,166.400 72.400 C 166.178 72.400,166.000 73.467,166.000 74.800 C 166.000 76.133,165.822 77.200,165.600 77.200 C 165.378 77.200,165.200 78.259,165.200 79.576 C 165.200 80.883,165.020 82.064,164.800 82.200 C 164.580 82.336,164.400 82.797,164.400 83.224 C 164.400 83.651,164.580 84.000,164.800 84.000 C 165.020 84.000,165.200 84.452,165.200 85.005 C 165.200 86.632,166.650 88.800,167.738 88.800 C 168.065 88.800,168.394 88.981,168.468 89.203 C 168.557 89.470,169.004 89.474,169.801 89.212 C 170.460 88.996,171.707 88.710,172.572 88.578 C 174.359 88.304,176.641 86.311,176.938 84.764 C 177.040 84.234,177.334 82.540,177.591 81.000 C 177.847 79.460,178.217 77.300,178.413 76.200 C 178.609 75.100,178.946 72.850,179.162 71.200 C 179.529 68.394,179.789 66.036,180.798 56.332 C 181.019 54.204,181.200 51.369,181.200 50.032 C 181.200 47.276,181.614 46.961,182.554 49.000 C 184.068 52.282,184.420 53.162,185.437 56.200 C 187.013 60.905,187.095 61.236,188.620 69.000 C 189.511 73.538,189.655 88.273,188.850 92.600 C 187.687 98.847,185.931 105.633,184.786 108.300 C 184.574 108.795,184.246 109.605,184.057 110.100 C 181.715 116.249,175.696 126.698,172.210 130.666 C 164.602 139.325,158.400 144.973,158.400 143.241 C 158.400 143.012,158.850 141.828,159.400 140.612 C 159.950 139.395,160.850 137.405,161.400 136.188 C 161.950 134.972,162.400 133.799,162.400 133.583 C 162.400 133.366,162.565 132.877,162.767 132.495 C 163.624 130.875,164.800 127.968,164.800 127.471 C 164.800 127.175,164.918 126.816,165.062 126.672 C 165.357 126.376,167.140 121.393,168.664 116.600 C 169.224 114.840,170.037 112.320,170.471 111.000 C 172.200 105.739,171.655 102.348,168.854 100.952 C 168.347 100.699,167.732 100.292,167.486 100.046 C 166.932 99.492,162.400 99.451,162.400 100.000 C 162.400 100.220,162.196 100.400,161.947 100.400 C 160.712 100.400,158.400 105.659,158.400 108.467 C 158.400 109.090,158.220 109.600,158.000 109.600 C 157.780 109.600,157.600 110.140,157.600 110.800 C 157.600 111.460,157.420 112.000,157.200 112.000 C 156.980 112.000,156.800 112.540,156.800 113.200 C 156.800 113.860,156.620 114.400,156.400 114.400 C 156.180 114.400,156.000 114.762,156.000 115.205 C 156.000 115.983,155.858 116.369,154.862 118.295 C 154.608 118.787,154.400 119.552,154.400 119.995 C 154.400 120.438,154.220 120.800,154.000 120.800 C 153.780 120.800,153.600 121.340,153.600 122.000 C 153.600 122.660,153.420 123.200,153.200 123.200 C 152.980 123.200,152.800 123.560,152.800 124.000 C 152.800 124.440,152.620 124.800,152.400 124.800 C 152.180 124.800,152.000 125.155,152.000 125.588 C 152.000 126.021,151.640 127.017,151.200 127.800 C 150.760 128.583,150.400 129.579,150.400 130.012 C 150.400 130.445,150.220 130.800,150.000 130.800 C 149.780 130.800,149.600 131.160,149.600 131.600 C 149.600 132.040,149.420 132.400,149.200 132.400 C 148.980 132.400,148.800 132.749,148.800 133.176 C 148.800 133.603,148.620 134.064,148.400 134.200 C 148.180 134.336,148.000 134.887,148.000 135.424 C 148.000 135.961,147.820 136.400,147.600 136.400 C 147.380 136.400,147.200 136.760,147.200 137.200 C 147.200 137.640,147.020 138.000,146.800 138.000 C 146.580 138.000,146.400 138.360,146.400 138.800 C 146.400 139.240,146.220 139.600,146.000 139.600 C 145.780 139.600,145.600 139.960,145.600 140.400 C 145.600 140.840,145.420 141.200,145.200 141.200 C 144.980 141.200,144.800 141.455,144.800 141.767 C 144.800 142.079,144.170 143.521,143.400 144.973 C 142.630 146.424,142.000 147.879,142.000 148.206 C 142.000 148.533,141.820 148.800,141.600 148.800 C 141.380 148.800,141.200 149.160,141.200 149.600 C 141.200 150.040,141.020 150.400,140.800 150.400 C 140.580 150.400,140.400 150.760,140.400 151.200 C 140.400 151.640,140.220 152.000,140.000 152.000 C 139.780 152.000,139.600 152.360,139.600 152.800 C 139.600 153.240,139.420 153.600,139.200 153.600 C 138.980 153.600,138.800 153.920,138.800 154.312 C 138.800 154.703,138.440 155.283,138.000 155.600 C 137.560 155.917,137.200 156.497,137.200 156.888 C 137.200 157.280,137.020 157.600,136.800 157.600 C 136.580 157.600,136.400 157.786,136.400 158.014 C 136.400 158.242,134.642 160.177,132.493 162.314 C 130.345 164.451,128.145 166.830,127.605 167.600 C 127.065 168.370,126.213 169.448,125.711 169.996 C 125.210 170.544,124.800 171.236,124.800 171.535 C 124.800 171.834,124.260 172.583,123.600 173.200 C 122.940 173.817,122.400 174.609,122.400 174.960 C 122.400 175.312,122.220 175.600,122.000 175.600 C 121.780 175.600,121.600 175.788,121.600 176.017 C 121.600 176.246,121.240 176.820,120.800 177.292 C 120.360 177.764,120.000 178.387,120.000 178.675 C 120.000 178.964,119.820 179.200,119.600 179.200 C 119.380 179.200,119.200 179.560,119.200 180.000 C 119.200 180.440,119.020 180.800,118.800 180.800 C 118.580 180.800,118.400 181.160,118.400 181.600 C 118.400 182.040,118.265 182.401,118.100 182.403 C 117.741 182.407,116.800 184.344,116.800 185.080 C 116.800 185.366,116.620 185.600,116.400 185.600 C 116.180 185.600,116.000 185.960,116.000 186.400 C 116.000 186.840,115.820 187.200,115.600 187.200 C 115.380 187.200,115.200 187.560,115.200 188.000 C 115.200 188.440,115.020 188.800,114.800 188.800 C 114.580 188.800,114.400 189.340,114.400 190.000 C 114.400 190.660,114.220 191.200,114.000 191.200 C 113.780 191.200,113.600 191.560,113.600 192.000 C 113.600 192.440,113.420 192.800,113.200 192.800 C 112.980 192.800,112.800 193.340,112.800 194.000 C 112.800 194.660,112.620 195.200,112.400 195.200 C 112.180 195.200,112.000 195.729,112.000 196.376 C 112.000 197.023,111.840 197.652,111.644 197.773 C 111.449 197.894,111.192 198.579,111.073 199.296 C 110.955 200.013,110.651 201.410,110.398 202.400 C 109.812 204.696,109.292 208.002,108.760 212.800 C 108.330 216.684,108.529 233.629,109.020 234.909 C 109.270 235.559,107.767 235.600,83.443 235.600 C 66.481 235.600,57.600 235.737,57.600 236.000 C 57.600 236.220,57.060 236.400,56.400 236.400 C 55.740 236.400,55.200 236.580,55.200 236.800 C 55.200 237.020,54.840 237.200,54.400 237.200 C 53.960 237.200,53.600 237.380,53.600 237.600 C 53.600 237.820,53.240 238.000,52.800 238.000 C 52.360 238.000,52.000 238.180,52.000 238.400 C 52.000 238.620,51.680 238.800,51.288 238.800 C 50.897 238.800,50.317 239.160,50.000 239.600 C 49.683 240.040,49.179 240.400,48.880 240.400 C 47.795 240.400,43.917 244.962,42.761 247.600 C 42.327 248.590,41.798 249.713,41.586 250.095 C 41.374 250.477,41.200 251.242,41.200 251.795 C 41.200 252.348,41.020 252.800,40.800 252.800 C 40.578 252.800,40.400 253.867,40.400 255.200 C 40.400 256.533,40.222 257.600,40.000 257.600 C 39.780 257.600,39.600 258.230,39.600 259.000 C 39.600 259.770,39.780 260.400,40.000 260.400 C 40.229 260.400,40.400 261.600,40.400 263.200 C 40.400 264.800,40.571 266.000,40.800 266.000 C 41.020 266.000,41.200 266.452,41.200 267.005 C 41.200 267.558,41.371 268.323,41.581 268.705 C 41.790 269.087,42.276 270.120,42.660 271.000 C 43.829 273.677,47.870 278.400,48.990 278.400 C 49.228 278.400,49.683 278.760,50.000 279.200 C 50.317 279.640,50.897 280.000,51.288 280.000 C 51.680 280.000,52.000 280.180,52.000 280.400 C 52.000 280.620,52.360 280.800,52.800 280.800 C 53.240 280.800,53.600 280.980,53.600 281.200 C 53.600 281.420,53.960 281.600,54.400 281.600 C 54.840 281.600,55.200 281.780,55.200 282.000 C 55.200 282.220,55.740 282.400,56.400 282.400 L 57.600 282.400 57.600 288.200 L 57.600 294.000 42.424 294.000 C 32.737 294.000,27.158 294.145,27.000 294.400 C 26.864 294.620,26.311 294.800,25.771 294.800 C 25.231 294.800,24.477 294.959,24.095 295.153 C 23.713 295.348,22.860 295.729,22.200 296.000 C 21.540 296.272,20.550 296.754,20.000 297.072 C 19.450 297.389,18.685 297.749,18.300 297.871 C 17.915 297.993,17.600 298.252,17.600 298.447 C 17.600 298.641,17.341 298.800,17.025 298.800 C 16.172 298.800,9.455 305.620,8.836 307.113 C 8.543 307.821,8.178 308.400,8.026 308.400 C 7.874 308.400,7.502 309.030,7.200 309.800 C 6.898 310.570,6.504 311.200,6.325 311.200 C 6.146 311.200,6.000 311.560,6.000 312.000 C 6.000 312.440,5.820 312.800,5.600 312.800 C 5.380 312.800,5.200 313.160,5.200 313.600 C 5.200 314.040,5.020 314.400,4.800 314.400 C 4.580 314.400,4.400 314.760,4.400 315.200 C 4.400 315.640,4.220 316.000,4.000 316.000 C 3.780 316.000,3.600 316.360,3.600 316.800 C 3.600 317.240,3.420 317.600,3.200 317.600 C 2.980 317.600,2.800 317.949,2.800 318.376 C 2.800 318.803,2.620 319.264,2.400 319.400 C 2.180 319.536,2.000 320.087,2.000 320.624 C 2.000 321.161,1.820 321.600,1.600 321.600 C 1.380 321.600,1.200 322.125,1.200 322.767 C 1.200 323.408,0.975 324.008,0.700 324.100 C 0.316 324.228,0.200 326.889,0.200 335.600 C 0.200 344.311,0.316 346.972,0.700 347.100 C 0.987 347.196,1.200 347.936,1.200 348.833 C 1.200 349.695,1.380 350.400,1.600 350.400 C 1.820 350.400,2.000 351.120,2.000 352.000 C 2.000 352.880,2.180 353.600,2.400 353.600 C 2.620 353.600,2.800 354.219,2.800 354.976 C 2.800 355.733,2.980 356.464,3.200 356.600 C 3.420 356.736,3.600 357.467,3.600 358.224 C 3.600 358.981,3.780 359.600,4.000 359.600 C 4.220 359.600,4.400 360.320,4.400 361.200 C 4.400 362.080,4.580 362.800,4.800 362.800 C 5.020 362.800,5.200 363.520,5.200 364.400 C 5.200 365.280,5.380 366.000,5.600 366.000 C 5.820 366.000,6.000 366.720,6.000 367.600 C 6.000 368.480,6.180 369.200,6.400 369.200 C 6.620 369.200,6.800 369.729,6.800 370.376 C 6.800 371.023,6.980 371.664,7.200 371.800 C 7.420 371.936,7.600 372.487,7.600 373.024 C 7.600 373.561,7.780 374.000,8.000 374.000 C 8.220 374.000,8.400 374.397,8.400 374.882 C 8.400 375.883,11.193 381.600,11.681 381.600 C 11.857 381.600,12.000 381.836,12.000 382.125 C 12.000 382.413,12.320 382.998,12.711 383.425 C 13.102 383.851,13.859 384.830,14.394 385.600 C 15.628 387.378,18.936 390.529,20.323 391.248 C 20.908 391.552,21.911 392.295,22.552 392.900 C 23.194 393.505,23.962 394.000,24.259 394.000 C 24.557 394.000,24.800 394.180,24.800 394.400 C 24.800 394.620,25.070 394.800,25.400 394.800 C 25.730 394.800,26.000 394.980,26.000 395.200 C 26.000 395.420,26.360 395.600,26.800 395.600 C 27.240 395.600,27.600 395.780,27.600 396.000 C 27.600 396.220,27.960 396.400,28.400 396.400 C 28.840 396.400,29.200 396.580,29.200 396.800 C 29.200 397.020,29.560 397.200,30.000 397.200 C 30.440 397.200,30.800 397.380,30.800 397.600 C 30.800 397.820,31.239 398.000,31.776 398.000 C 32.313 398.000,32.864 398.180,33.000 398.400 C 33.136 398.620,33.762 398.800,34.390 398.800 C 35.019 398.800,35.608 399.025,35.700 399.300 C 35.945 400.036,364.055 400.036,364.300 399.300 C 364.392 399.025,364.981 398.800,365.610 398.800 C 366.238 398.800,366.864 398.620,367.000 398.400 C 367.136 398.180,367.687 398.000,368.224 398.000 C 368.761 398.000,369.200 397.820,369.200 397.600 C 369.200 397.380,369.560 397.200,370.000 397.200 C 370.440 397.200,370.800 397.020,370.800 396.800 C 370.800 396.580,371.160 396.400,371.600 396.400 C 372.040 396.400,372.400 396.220,372.400 396.000 C 372.400 395.780,372.760 395.600,373.200 395.600 C 373.640 395.600,374.000 395.420,374.000 395.200 C 374.000 394.980,374.270 394.800,374.600 394.800 C 374.930 394.800,375.200 394.650,375.200 394.468 C 375.200 394.285,375.695 393.881,376.300 393.570 C 376.905 393.260,377.670 392.733,378.000 392.400 C 378.330 392.067,379.082 391.548,379.670 391.246 C 381.057 390.534,384.364 387.389,385.606 385.600 C 386.141 384.830,386.898 383.851,387.289 383.425 C 387.680 382.998,388.000 382.413,388.000 382.125 C 388.000 381.836,388.143 381.600,388.319 381.600 C 388.807 381.600,391.600 375.883,391.600 374.882 C 391.600 374.397,391.780 374.000,392.000 374.000 C 392.220 374.000,392.400 373.561,392.400 373.024 C 392.400 372.487,392.580 371.936,392.800 371.800 C 393.020 371.664,393.200 371.023,393.200 370.376 C 393.200 369.729,393.380 369.200,393.600 369.200 C 393.820 369.200,394.000 368.480,394.000 367.600 C 394.000 366.720,394.180 366.000,394.400 366.000 C 394.620 366.000,394.800 365.280,394.800 364.400 C 394.800 363.520,394.980 362.800,395.200 362.800 C 395.420 362.800,395.600 362.080,395.600 361.200 C 395.600 360.320,395.780 359.600,396.000 359.600 C 396.220 359.600,396.400 358.981,396.400 358.224 C 396.400 357.467,396.580 356.736,396.800 356.600 C 397.020 356.464,397.200 355.733,397.200 354.976 C 397.200 354.219,397.380 353.600,397.600 353.600 C 397.820 353.600,398.000 352.880,398.000 352.000 C 398.000 351.120,398.180 350.400,398.400 350.400 C 398.620 350.400,398.800 349.806,398.800 349.080 C 398.800 348.354,399.025 347.535,399.300 347.260 C 399.676 346.884,399.800 343.977,399.800 335.513 C 399.800 326.872,399.684 324.228,399.300 324.100 C 399.025 324.008,398.800 323.408,398.800 322.767 C 398.800 322.125,398.620 321.600,398.400 321.600 C 398.180 321.600,398.000 321.161,398.000 320.624 C 398.000 320.087,397.820 319.536,397.600 319.400 C 397.380 319.264,397.200 318.803,397.200 318.376 C 397.200 317.949,397.020 317.600,396.800 317.600 C 396.580 317.600,396.400 317.240,396.400 316.800 C 396.400 316.360,396.220 316.000,396.000 316.000 C 395.780 316.000,395.600 315.640,395.600 315.200 C 395.600 314.760,395.420 314.400,395.200 314.400 C 394.980 314.400,394.800 314.040,394.800 313.600 C 394.800 313.160,394.620 312.800,394.400 312.800 C 394.180 312.800,394.000 312.440,394.000 312.000 C 394.000 311.560,393.854 311.200,393.675 311.200 C 393.496 311.200,393.102 310.570,392.800 309.800 C 392.498 309.030,392.126 308.400,391.974 308.400 C 391.822 308.400,391.463 307.834,391.176 307.143 C 390.543 305.615,383.877 298.800,383.015 298.800 C 382.677 298.800,382.400 298.641,382.400 298.447 C 382.400 298.252,382.085 297.993,381.700 297.871 C 381.315 297.749,380.550 297.389,380.000 297.072 C 379.450 296.754,378.460 296.272,377.800 296.000 C 377.140 295.729,376.287 295.348,375.905 295.153 C 375.523 294.959,374.769 294.800,374.229 294.800 C 373.689 294.800,373.136 294.620,373.000 294.400 C 372.842 294.145,367.263 294.000,357.576 294.000 L 342.400 294.000 342.400 288.200 L 342.400 282.400 343.600 282.400 C 344.260 282.400,344.800 282.220,344.800 282.000 C 344.800 281.780,345.160 281.600,345.600 281.600 C 346.040 281.600,346.400 281.420,346.400 281.200 C 346.400 280.980,346.760 280.800,347.200 280.800 C 347.640 280.800,348.000 280.620,348.000 280.400 C 348.000 280.180,348.320 280.000,348.712 280.000 C 349.103 280.000,349.683 279.640,350.000 279.200 C 350.317 278.760,350.772 278.400,351.010 278.400 C 352.912 278.400,358.768 269.895,358.791 267.100 C 358.796 266.495,358.980 266.000,359.200 266.000 C 359.429 266.000,359.600 264.798,359.600 263.195 C 359.600 261.652,359.823 260.032,360.096 259.595 C 360.491 258.962,360.491 258.638,360.096 258.005 C 359.823 257.568,359.600 256.218,359.600 255.005 C 359.600 253.792,359.420 252.800,359.200 252.800 C 358.980 252.800,358.799 252.305,358.799 251.700 C 358.797 250.515,356.669 245.997,355.386 244.456 C 353.484 242.171,351.621 240.400,351.120 240.400 C 350.821 240.400,350.317 240.040,350.000 239.600 C 349.683 239.160,349.103 238.800,348.712 238.800 C 348.320 238.800,348.000 238.620,348.000 238.400 C 348.000 238.180,347.640 238.000,347.200 238.000 C 346.760 238.000,346.400 237.820,346.400 237.600 C 346.400 237.380,346.040 237.200,345.600 237.200 C 345.160 237.200,344.800 237.020,344.800 236.800 C 344.800 236.580,344.260 236.400,343.600 236.400 C 342.940 236.400,342.400 236.220,342.400 236.000 C 342.400 235.737,332.933 235.600,314.800 235.600 L 287.200 235.600 287.200 234.424 C 287.200 233.777,287.380 233.136,287.600 233.000 C 287.820 232.864,288.000 232.133,288.000 231.376 C 288.000 230.619,288.180 230.000,288.400 230.000 C 288.620 230.000,288.800 229.280,288.800 228.400 C 288.800 227.520,288.980 226.800,289.200 226.800 C 289.420 226.800,289.600 226.001,289.600 225.024 C 289.600 224.047,289.780 223.136,290.000 223.000 C 290.220 222.864,290.400 221.784,290.400 220.600 C 290.400 219.416,290.580 218.336,290.800 218.200 C 292.473 217.166,290.492 208.400,288.586 208.400 C 288.264 208.400,288.000 208.195,288.000 207.945 C 288.000 207.350,284.241 207.773,282.293 208.587 C 280.188 209.466,279.329 210.832,278.819 214.110 C 277.593 221.992,276.675 226.037,274.735 232.100 L 273.487 236.000 197.780 236.000 L 122.072 236.000 121.536 233.100 C 119.743 223.403,121.569 205.112,125.179 196.600 C 128.920 187.780,130.896 184.195,135.213 178.400 C 140.324 171.539,146.144 166.219,154.400 160.864 C 180.634 143.846,194.434 124.384,199.540 97.200 C 200.850 90.224,201.292 76.211,200.383 70.446 C 199.145 62.595,199.032 62.015,197.912 57.800 C 197.153 54.945,195.162 49.043,194.371 47.304 C 193.947 46.372,193.600 45.513,193.600 45.397 C 193.600 43.492,184.340 28.194,180.891 24.400 C 177.104 20.234,177.881 14.514,182.551 12.185 C 187.209 9.861,191.195 13.129,199.155 25.800 C 201.579 29.660,206.400 38.720,206.400 39.417 C 206.400 39.522,206.740 40.372,207.156 41.304 C 216.950 63.278,217.529 94.001,208.594 117.600 C 206.368 123.479,202.534 131.522,200.747 134.062 C 200.336 134.646,200.000 135.251,200.000 135.406 C 200.000 135.562,198.804 137.424,197.342 139.545 C 188.628 152.187,179.348 161.283,166.500 169.779 C 160.895 173.486,160.200 174.307,160.200 177.231 C 160.200 180.273,162.577 182.711,165.600 182.768 C 170.619 182.863,190.250 166.919,199.837 154.961 C 215.540 135.376,223.097 117.045,226.040 91.400 C 226.514 87.268,226.308 73.119,225.697 67.888 C 225.264 64.187,225.696 64.372,230.486 69.939 C 241.636 82.899,250.362 99.313,255.185 116.400 C 255.464 117.390,255.833 118.650,256.004 119.200 C 256.175 119.750,256.527 121.280,256.787 122.600 C 257.047 123.920,257.417 125.630,257.610 126.400 C 257.803 127.170,258.069 128.610,258.202 129.600 C 258.335 130.590,258.625 132.660,258.847 134.200 C 259.500 138.738,259.759 157.658,259.227 162.000 C 258.442 168.404,257.598 173.540,256.795 176.800 C 256.606 177.570,256.239 179.100,255.980 180.200 C 255.721 181.300,255.166 183.280,254.746 184.600 C 254.326 185.920,253.794 187.630,253.565 188.400 C 253.335 189.170,252.995 190.160,252.810 190.600 C 252.624 191.040,251.632 193.560,250.606 196.200 C 248.599 201.361,244.662 209.200,241.168 214.996 C 237.142 221.674,239.521 227.606,245.600 226.044 C 249.120 225.140,256.175 213.422,261.400 199.800 C 261.990 198.260,262.628 196.640,262.816 196.200 C 263.005 195.760,263.555 194.140,264.040 192.600 C 264.524 191.060,265.233 188.810,265.615 187.600 C 266.537 184.677,267.581 180.291,268.421 175.800 C 268.668 174.480,269.025 172.590,269.213 171.600 C 269.402 170.610,269.663 168.808,269.795 167.597 C 270.241 163.481,271.205 164.213,273.227 170.200 C 273.524 171.080,273.877 171.980,274.011 172.200 C 274.146 172.420,274.466 173.320,274.722 174.200 C 274.979 175.080,275.525 176.880,275.935 178.200 C 276.346 179.520,277.083 182.760,277.575 185.400 C 279.301 194.680,279.934 195.589,285.093 196.188 C 288.715 196.608,291.932 192.883,291.012 189.333 C 290.851 188.710,290.631 187.210,290.524 186.000 C 290.417 184.790,290.165 183.629,289.965 183.420 C 289.764 183.211,289.600 182.367,289.600 181.544 C 289.600 180.721,289.420 179.936,289.200 179.800 C 288.980 179.664,288.800 178.843,288.800 177.976 C 288.800 177.109,288.620 176.400,288.400 176.400 C 288.180 176.400,288.000 175.871,288.000 175.224 C 288.000 174.577,287.820 173.936,287.600 173.800 C 287.380 173.664,287.200 173.034,287.200 172.400 C 287.200 171.766,287.020 171.136,286.800 171.000 C 286.580 170.864,286.400 170.324,286.400 169.800 C 286.400 169.276,286.220 168.736,286.000 168.600 C 285.780 168.464,285.600 168.003,285.600 167.576 C 285.600 167.149,285.420 166.800,285.200 166.800 C 284.980 166.800,284.800 166.260,284.800 165.600 C 284.800 164.940,284.620 164.400,284.400 164.400 C 284.180 164.400,284.000 163.950,284.000 163.400 C 284.000 162.850,283.820 162.400,283.600 162.400 C 283.380 162.400,283.200 162.147,283.200 161.838 C 283.200 161.172,281.532 157.859,281.100 157.667 C 280.935 157.593,280.800 157.188,280.800 156.767 C 280.800 156.345,280.620 156.000,280.400 156.000 C 280.180 156.000,280.000 155.640,280.000 155.200 C 280.000 154.760,279.820 154.400,279.600 154.400 C 279.380 154.400,279.200 154.040,279.200 153.600 C 279.200 153.160,279.020 152.800,278.800 152.800 C 278.580 152.800,278.400 152.440,278.400 152.000 C 278.400 151.560,278.220 151.200,278.000 151.200 C 277.780 151.200,277.600 150.964,277.600 150.675 C 277.600 150.387,277.240 149.764,276.800 149.292 C 276.360 148.820,276.000 148.156,276.000 147.817 C 276.000 147.478,275.820 147.200,275.600 147.200 C 275.380 147.200,275.200 146.944,275.200 146.631 C 275.200 146.318,274.750 145.527,274.200 144.873 C 273.650 144.219,273.200 143.525,273.200 143.331 C 273.200 143.136,272.840 142.717,272.400 142.400 C 271.719 141.909,271.600 141.365,271.600 138.735 C 271.600 137.037,271.420 135.536,271.200 135.400 C 270.980 135.264,270.800 133.914,270.800 132.400 C 270.800 130.886,270.620 129.536,270.400 129.400 C 270.180 129.264,270.000 128.173,270.000 126.976 C 270.000 125.779,269.820 124.800,269.600 124.800 C 269.380 124.800,269.200 123.911,269.200 122.824 C 269.200 121.737,269.020 120.736,268.800 120.600 C 268.580 120.464,268.400 119.654,268.400 118.800 C 268.400 117.946,268.220 117.136,268.000 117.000 C 267.780 116.864,267.600 116.144,267.600 115.400 C 267.600 114.656,267.420 113.936,267.200 113.800 C 266.980 113.664,266.800 113.023,266.800 112.376 C 266.800 111.729,266.620 111.200,266.400 111.200 C 266.180 111.200,266.000 110.570,266.000 109.800 C 266.000 109.030,265.820 108.400,265.600 108.400 C 265.380 108.400,265.200 107.961,265.200 107.424 C 265.200 106.887,265.020 106.336,264.800 106.200 C 264.580 106.064,264.400 105.524,264.400 105.000 C 264.400 104.476,264.220 103.936,264.000 103.800 C 263.780 103.664,263.600 103.203,263.600 102.776 C 263.600 102.349,263.420 102.000,263.200 102.000 C 262.980 102.000,262.800 101.460,262.800 100.800 C 262.800 100.140,262.620 99.600,262.400 99.600 C 262.180 99.600,262.000 99.251,262.000 98.824 C 262.000 98.397,261.820 97.936,261.600 97.800 C 261.380 97.664,261.200 97.113,261.200 96.576 C 261.200 96.039,261.020 95.600,260.800 95.600 C 260.580 95.600,260.400 95.240,260.400 94.800 C 260.400 94.360,260.220 94.000,260.000 94.000 C 259.780 94.000,259.600 93.640,259.600 93.200 C 259.600 92.760,259.420 92.400,259.200 92.400 C 258.980 92.400,258.800 92.095,258.800 91.723 C 258.800 90.911,256.012 85.057,255.535 84.867 C 255.351 84.793,255.200 84.388,255.200 83.967 C 255.200 83.545,255.020 83.200,254.800 83.200 C 254.580 83.200,254.400 82.840,254.400 82.400 C 254.400 81.960,254.220 81.600,254.000 81.600 C 253.780 81.600,253.600 81.364,253.600 81.075 C 253.600 80.787,253.285 80.202,252.900 79.775 C 252.515 79.349,251.931 78.460,251.603 77.800 C 251.274 77.140,250.689 76.309,250.303 75.953 C 249.916 75.597,249.600 75.052,249.600 74.741 C 249.600 74.431,249.240 73.917,248.800 73.600 C 248.360 73.283,248.000 72.791,248.000 72.508 C 248.000 72.225,247.460 71.428,246.800 70.737 C 246.140 70.046,245.600 69.278,245.600 69.029 C 245.600 68.780,245.240 68.317,244.800 68.000 C 244.360 67.683,244.000 67.193,244.000 66.912 C 244.000 66.630,243.820 66.400,243.600 66.400 C 243.380 66.400,243.200 66.212,243.200 65.982 C 243.200 65.752,242.795 65.147,242.300 64.637 C 241.805 64.127,241.130 63.283,240.800 62.760 C 239.622 60.894,232.118 53.190,226.033 47.600 C 221.025 43.000,220.800 42.756,220.800 41.925 C 220.800 41.526,220.620 41.200,220.400 41.200 C 220.180 41.200,220.000 40.660,220.000 40.000 C 220.000 39.340,219.820 38.800,219.600 38.800 C 219.380 38.800,219.200 38.451,219.200 38.024 C 219.200 37.597,219.020 37.136,218.800 37.000 C 218.580 36.864,218.400 36.313,218.400 35.776 C 218.400 35.239,218.220 34.800,218.000 34.800 C 217.780 34.800,217.600 34.440,217.600 34.000 C 217.600 33.560,217.420 33.200,217.200 33.200 C 216.980 33.200,216.800 32.840,216.800 32.400 C 216.800 31.960,216.620 31.600,216.400 31.600 C 216.180 31.600,216.000 31.347,216.000 31.038 C 216.000 30.484,214.420 27.190,213.968 26.800 C 213.840 26.690,213.481 26.015,213.170 25.300 C 212.859 24.585,212.469 24.000,212.302 24.000 C 212.136 24.000,212.000 23.640,212.000 23.200 C 212.000 22.760,211.820 22.400,211.600 22.400 C 211.380 22.400,211.200 22.080,211.200 21.688 C 211.200 21.297,210.840 20.717,210.400 20.400 C 209.960 20.083,209.600 19.503,209.600 19.112 C 209.600 18.720,209.432 18.400,209.227 18.400 C 209.022 18.400,208.727 17.995,208.572 17.500 C 208.250 16.472,206.010 13.067,205.523 12.867 C 205.345 12.793,205.199 12.523,205.198 12.267 C 205.197 12.010,204.657 11.225,203.998 10.522 C 203.339 9.819,202.800 9.133,202.800 8.997 C 202.800 8.489,195.903 2.000,195.363 2.000 C 195.054 2.000,194.800 1.820,194.800 1.600 C 194.800 1.380,194.455 1.200,194.033 1.200 C 193.612 1.200,193.193 0.980,193.104 0.711 C 192.913 0.138,179.927 -0.178,178.600 0.358 M340.888 248.566 C 350.308 252.876,350.340 265.474,340.942 270.171 L 338.884 271.200 200.017 271.200 L 61.150 271.200 58.953 270.124 C 49.913 265.698,49.870 253.203,58.881 248.691 L 61.000 247.630 199.888 247.615 L 338.776 247.600 340.888 248.566 M81.912 288.569 C 82.046 295.253,82.494 294.786,75.933 294.794 C 69.033 294.802,69.600 295.336,69.600 288.824 C 69.600 282.168,68.967 282.757,75.977 282.890 L 81.800 283.000 81.912 288.569 M182.712 288.358 L 182.824 293.716 180.484 293.472 C 178.394 293.253,176.884 292.909,172.000 291.538 C 171.230 291.321,170.192 291.045,169.694 290.924 C 169.196 290.803,168.690 290.546,168.570 290.352 C 168.451 290.159,168.098 290.000,167.786 290.000 C 166.183 290.000,154.403 283.923,154.401 283.095 C 154.400 282.927,160.745 282.837,168.500 282.895 L 182.600 283.000 182.712 288.358 M206.312 287.859 C 206.453 293.961,206.692 293.703,200.270 294.377 C 193.492 295.088,194.000 295.555,194.000 288.602 L 194.000 282.779 200.100 282.890 L 206.200 283.000 206.312 287.859 M233.200 283.125 C 233.200 283.632,223.345 288.469,219.950 289.629 C 217.532 290.455,217.200 290.075,217.200 286.479 C 217.200 284.749,217.320 283.213,217.467 283.067 C 217.853 282.681,233.200 282.738,233.200 283.125 M330.400 288.557 C 330.400 295.368,330.964 294.800,324.200 294.800 C 317.452 294.800,318.000 295.328,318.000 288.824 C 318.000 282.175,317.329 282.800,324.467 282.800 L 330.400 282.800 330.400 288.557 M135.046 284.092 C 135.681 284.582,136.830 285.623,137.600 286.405 C 138.370 287.186,139.630 288.265,140.400 288.802 C 141.170 289.339,142.147 290.096,142.571 290.485 C 142.994 290.873,143.669 291.295,144.071 291.422 C 144.472 291.550,144.800 291.822,144.800 292.027 C 144.800 292.232,145.070 292.400,145.400 292.400 C 145.730 292.400,146.000 292.580,146.000 292.800 C 146.000 293.020,146.270 293.200,146.600 293.200 C 146.930 293.200,147.200 293.380,147.200 293.600 C 147.200 293.863,138.067 294.000,120.600 294.000 L 94.000 294.000 94.000 288.600 L 94.000 283.200 113.946 283.200 L 133.892 283.200 135.046 284.092 M306.000 288.600 L 306.000 294.000 272.976 294.000 C 251.063 294.000,240.036 293.865,240.200 293.600 C 240.336 293.380,240.667 293.200,240.935 293.200 C 241.204 293.200,241.683 292.840,242.000 292.400 C 242.317 291.960,242.884 291.600,243.260 291.600 C 243.635 291.600,244.181 291.375,244.471 291.100 C 244.762 290.825,245.495 290.345,246.100 290.032 C 246.705 289.720,247.200 289.315,247.200 289.132 C 247.200 288.950,247.443 288.800,247.741 288.800 C 248.038 288.800,248.846 288.260,249.537 287.600 C 250.228 286.940,250.953 286.400,251.148 286.400 C 251.344 286.400,252.200 285.695,253.052 284.833 L 254.600 283.266 280.300 283.233 L 306.000 283.200 306.000 288.600 M370.200 306.545 C 378.013 308.639,386.272 319.347,387.768 329.324 L 388.047 331.183 343.123 331.292 C 295.646 331.406,297.289 331.342,295.597 333.154 C 293.881 334.992,293.597 337.373,294.830 339.568 C 296.421 342.399,292.731 342.179,342.267 342.400 C 366.944 342.510,387.257 342.724,387.409 342.875 C 387.560 343.027,387.386 344.287,387.022 345.675 C 386.658 347.064,385.205 352.786,383.792 358.392 C 380.420 371.780,379.159 374.456,373.607 380.007 C 369.607 384.007,366.491 385.671,358.572 388.034 C 356.904 388.531,43.068 388.525,41.428 388.027 C 40.753 387.822,39.390 387.430,38.400 387.155 C 27.115 384.024,20.440 375.851,16.876 360.800 C 16.211 357.993,16.060 357.398,14.343 350.800 C 12.337 343.091,12.274 342.821,12.453 342.707 C 12.534 342.656,32.850 342.521,57.600 342.407 C 107.281 342.178,103.579 342.399,105.170 339.568 C 106.656 336.924,105.803 333.744,103.200 332.220 C 101.814 331.408,101.337 331.399,56.897 331.292 L 11.993 331.183 12.228 329.492 C 12.357 328.561,12.604 327.440,12.778 327.000 C 17.830 314.184,22.473 308.533,29.557 306.580 C 32.362 305.806,367.315 305.772,370.200 306.545 M137.229 322.683 C 133.794 323.359,133.200 324.886,133.200 333.042 L 133.200 339.724 134.817 341.262 C 137.066 343.401,139.955 343.496,142.091 341.500 C 146.111 337.744,144.782 322.833,140.424 322.795 C 140.081 322.792,139.440 322.722,139.000 322.641 C 138.560 322.559,137.763 322.578,137.229 322.683 M259.958 322.669 C 259.385 322.764,258.305 323.472,257.558 324.243 L 256.200 325.644 256.200 332.802 L 256.200 339.960 257.750 341.380 C 260.798 344.172,265.693 342.811,266.788 338.867 C 267.462 336.441,267.306 327.882,266.555 326.003 C 265.533 323.449,262.994 322.166,259.958 322.669 M195.400 326.496 C 177.515 332.620,176.991 358.520,194.627 364.744 C 210.962 370.508,224.623 350.337,215.113 334.494 C 211.273 328.097,201.869 324.281,195.400 326.496 M203.761 338.872 C 207.870 342.259,207.870 349.341,203.761 352.728 C 199.282 356.420,193.204 352.431,193.204 345.800 C 193.204 339.169,199.282 335.180,203.761 338.872 " stroke="none" fill="#050504" fill-rule="evenodd"></path><path id="path2" d="M60.154 248.646 C 51.942 251.564,50.111 262.382,56.853 268.153 C 60.237 271.049,47.046 270.816,200.810 270.702 L 339.400 270.600 341.227 269.526 C 349.625 264.589,349.565 253.628,341.116 249.117 L 339.400 248.200 200.600 248.130 C 79.710 248.070,61.588 248.136,60.154 248.646 M70.800 288.812 L 70.800 294.424 75.900 294.312 L 81.000 294.200 81.111 288.700 L 81.223 283.200 76.011 283.200 L 70.800 283.200 70.800 288.812 M194.800 288.534 L 194.800 293.869 199.100 293.709 C 205.386 293.474,205.200 293.651,205.200 287.932 L 205.200 283.200 200.000 283.200 L 194.800 283.200 194.800 288.534 M319.200 288.812 L 319.200 294.424 324.300 294.312 L 329.400 294.200 329.511 288.700 L 329.623 283.200 324.411 283.200 L 319.200 283.200 319.200 288.812 M30.600 306.903 C 29.720 307.124,28.237 307.641,27.304 308.052 C 26.372 308.463,25.519 308.800,25.409 308.800 C 25.299 308.800,24.892 309.058,24.505 309.372 C 24.117 309.687,23.209 310.428,22.488 311.018 C 19.315 313.614,12.800 326.171,12.800 329.690 L 12.800 330.783 57.700 330.892 C 101.861 330.998,102.617 331.013,103.650 331.798 C 107.626 334.819,107.237 340.343,102.904 342.396 C 101.238 343.186,100.445 343.200,56.981 343.200 C 32.655 343.200,12.845 343.350,12.958 343.533 C 13.071 343.715,14.442 348.980,16.003 355.233 C 17.565 361.485,19.029 367.140,19.257 367.800 C 22.750 377.925,31.163 385.325,41.547 387.407 C 46.683 388.436,357.186 388.099,360.584 387.060 C 368.300 384.701,374.901 379.518,378.640 372.884 C 380.165 370.177,381.126 366.987,384.540 353.300 L 387.059 343.200 342.978 343.200 C 295.444 343.200,297.301 343.280,295.350 341.135 C 292.889 338.428,292.891 335.661,295.355 332.939 L 297.110 331.000 342.044 330.892 C 367.599 330.830,387.130 330.630,387.333 330.427 C 387.897 329.863,386.142 325.095,383.273 319.400 C 379.349 311.609,376.117 308.628,369.813 306.987 C 367.039 306.264,33.473 306.181,30.600 306.903 M140.926 322.450 C 144.115 324.092,144.800 325.897,144.800 332.662 C 144.800 338.127,144.443 339.900,143.067 341.276 C 142.287 342.056,142.602 342.365,145.200 343.369 C 162.787 350.169,162.982 370.590,145.526 377.651 C 126.045 385.532,104.126 369.952,111.970 353.800 C 115.126 347.303,124.236 341.600,131.460 341.600 C 133.351 341.600,133.935 341.085,133.134 340.122 C 132.547 339.414,132.347 327.897,132.889 325.974 C 133.751 322.914,138.114 321.001,140.926 322.450 M264.406 322.745 C 267.345 324.317,268.913 334.191,267.071 339.527 C 266.389 341.503,266.302 341.432,269.800 341.753 C 283.783 343.036,293.379 356.413,288.095 367.256 C 281.388 381.020,259.255 384.078,247.190 372.908 C 237.248 363.703,240.906 348.995,254.503 343.507 C 257.530 342.285,257.714 342.089,256.776 341.082 C 254.903 339.071,254.520 328.099,256.222 325.201 C 257.985 322.199,261.444 321.161,264.406 322.745 M205.081 326.050 C 207.460 327.006,208.260 327.415,210.000 328.564 C 224.754 338.306,220.046 362.913,202.837 365.998 C 194.524 367.489,184.920 361.449,182.447 353.176 C 182.155 352.199,181.755 350.987,181.558 350.481 C 179.108 344.198,183.779 332.414,190.354 328.292 C 194.370 325.775,201.643 324.668,205.081 326.050 " stroke="none" fill="#dcdcfb" fill-rule="evenodd"></path><path id="path3" d="M132.553 332.200 C 132.553 334.840,132.618 335.868,132.697 334.484 C 132.775 333.101,132.774 330.941,132.695 329.684 C 132.616 328.428,132.552 329.560,132.553 332.200 M255.353 332.200 C 255.353 334.840,255.418 335.868,255.497 334.484 C 255.575 333.101,255.574 330.941,255.495 329.684 C 255.416 328.428,255.352 329.560,255.353 332.200 M130.704 341.619 C 101.894 344.974,105.260 379.633,134.392 379.594 C 158.661 379.561,167.912 354.267,147.266 344.393 C 145.360 343.481,143.470 342.559,143.067 342.343 C 142.540 342.062,142.064 342.128,141.381 342.576 C 139.876 343.562,136.851 343.380,135.114 342.200 C 134.305 341.650,133.588 341.224,133.521 341.253 C 133.455 341.281,132.187 341.446,130.704 341.619 M264.841 342.246 C 263.219 343.384,260.105 343.549,258.619 342.576 C 257.905 342.108,257.483 342.058,256.933 342.376 C 256.530 342.609,255.331 343.160,254.270 343.599 C 238.278 350.216,237.247 369.256,252.477 376.701 C 263.380 382.030,277.811 379.911,284.989 371.927 C 295.206 360.564,286.688 343.414,270.009 341.767 C 268.794 341.648,267.440 341.491,267.000 341.420 C 266.560 341.349,265.588 341.721,264.841 342.246 " stroke="none" fill="#fc8c9c" fill-rule="evenodd"></path><path id="path4" d="M183.063 11.900 C 182.962 12.065,184.015 12.200,185.402 12.200 C 186.790 12.200,187.717 12.068,187.463 11.906 C 186.854 11.519,183.300 11.515,183.063 11.900 M180.247 14.001 C 179.451 14.882,178.807 15.917,178.816 16.301 C 178.825 16.723,179.042 16.517,179.363 15.780 C 179.655 15.109,180.472 14.074,181.178 13.480 C 181.884 12.886,182.289 12.400,182.077 12.400 C 181.866 12.400,181.042 13.121,180.247 14.001 M188.883 12.787 C 189.880 13.420,193.938 18.511,196.386 22.200 C 198.728 25.730,199.866 27.103,198.375 24.600 C 195.708 20.122,189.901 12.788,188.800 12.507 C 188.373 12.398,188.397 12.479,188.883 12.787 M178.509 18.800 C 178.509 19.790,178.587 20.195,178.682 19.700 C 178.778 19.205,178.778 18.395,178.682 17.900 C 178.587 17.405,178.509 17.810,178.509 18.800 M178.812 21.007 C 178.798 21.474,180.721 24.400,181.042 24.400 C 181.159 24.400,180.910 23.905,180.488 23.300 C 180.067 22.695,179.520 21.840,179.273 21.400 C 179.026 20.960,178.819 20.783,178.812 21.007 M183.599 27.952 C 184.560 29.322,185.527 30.555,185.747 30.691 C 185.968 30.827,185.362 29.818,184.401 28.448 C 183.440 27.078,182.473 25.845,182.253 25.709 C 182.032 25.573,182.638 26.582,183.599 27.952 M187.386 33.500 C 187.735 34.215,188.106 34.800,188.210 34.800 C 188.608 34.800,188.352 34.163,187.567 33.200 L 186.752 32.200 187.386 33.500 M204.038 35.000 C 204.038 35.220,204.561 36.390,205.200 37.600 C 205.839 38.810,206.362 39.620,206.362 39.400 C 206.362 39.180,205.839 38.010,205.200 36.800 C 204.561 35.590,204.038 34.780,204.038 35.000 M191.660 41.287 C 192.594 43.205,193.421 44.712,193.498 44.636 C 193.680 44.454,190.895 38.735,190.367 38.207 C 190.143 37.983,190.725 39.370,191.660 41.287 M208.400 44.947 C 208.400 45.532,210.520 51.613,210.671 51.462 C 210.758 51.375,210.355 49.886,209.775 48.152 C 208.783 45.186,208.400 44.294,208.400 44.947 M193.600 45.284 C 193.600 45.716,194.815 48.400,195.011 48.400 C 195.121 48.400,194.933 47.734,194.593 46.921 C 193.993 45.486,193.600 44.838,193.600 45.284 M210.806 52.633 C 210.809 53.055,210.995 53.670,211.218 54.000 C 211.515 54.438,211.552 54.276,211.356 53.400 C 211.027 51.929,210.798 51.610,210.806 52.633 M180.909 55.600 C 180.909 56.590,180.987 56.995,181.082 56.500 C 181.178 56.005,181.178 55.195,181.082 54.700 C 180.987 54.205,180.909 54.610,180.909 55.600 M180.514 59.400 C 180.517 60.500,180.595 60.903,180.687 60.295 C 180.779 59.686,180.777 58.786,180.682 58.295 C 180.587 57.803,180.511 58.300,180.514 59.400 M212.428 59.233 C 212.444 59.765,212.619 60.560,212.819 61.000 C 213.071 61.558,213.107 61.315,212.938 60.200 C 212.655 58.343,212.387 57.836,212.428 59.233 M198.456 60.000 C 198.456 60.330,198.611 60.960,198.800 61.400 C 199.017 61.904,199.144 61.978,199.144 61.600 C 199.144 61.270,198.989 60.640,198.800 60.200 C 198.583 59.696,198.456 59.622,198.456 60.000 M187.044 62.600 C 187.373 64.071,187.602 64.390,187.594 63.367 C 187.591 62.945,187.405 62.330,187.182 62.000 C 186.885 61.562,186.848 61.724,187.044 62.600 M213.275 63.400 C 213.265 64.060,213.411 64.960,213.600 65.400 L 213.944 66.200 213.925 65.400 C 213.914 64.960,213.768 64.060,213.600 63.400 L 213.295 62.200 213.275 63.400 M179.813 65.413 C 179.657 66.871,179.614 68.147,179.716 68.250 C 179.819 68.352,180.031 67.244,180.187 65.787 C 180.343 64.329,180.386 63.053,180.284 62.950 C 180.181 62.848,179.969 63.956,179.813 65.413 M199.280 63.400 C 199.280 63.840,199.424 64.650,199.600 65.200 C 199.854 65.992,199.920 66.033,199.920 65.400 C 199.920 64.960,199.776 64.150,199.600 63.600 C 199.346 62.808,199.280 62.767,199.280 63.400 M187.862 66.600 C 187.996 67.480,188.172 68.275,188.253 68.367 C 188.556 68.710,188.329 66.568,187.981 65.800 C 187.729 65.242,187.693 65.485,187.862 66.600 M225.689 68.700 C 226.141 73.517,226.405 73.805,226.148 69.200 L 225.936 65.400 227.568 67.085 C 228.466 68.011,229.200 68.633,229.200 68.466 C 229.200 68.019,226.234 65.200,225.764 65.200 C 225.499 65.200,225.474 66.402,225.689 68.700 M200.095 68.600 C 200.095 69.260,200.232 70.340,200.400 71.000 L 200.705 72.200 200.705 71.000 C 200.705 70.340,200.568 69.260,200.400 68.600 L 200.095 67.400 200.095 68.600 M214.093 68.800 C 214.085 69.570,214.216 71.190,214.383 72.400 C 214.648 74.316,214.690 74.393,214.709 73.000 C 214.720 72.120,214.590 70.500,214.418 69.400 C 214.169 67.797,214.104 67.678,214.093 68.800 M231.826 72.020 C 233.151 73.659,234.917 75.945,235.751 77.100 C 236.586 78.255,237.360 79.200,237.472 79.200 C 237.971 79.200,230.809 69.900,229.856 69.311 C 229.615 69.162,230.502 70.381,231.826 72.020 M188.909 72.800 C 188.909 73.790,188.987 74.195,189.082 73.700 C 189.178 73.205,189.178 72.395,189.082 71.900 C 188.987 71.405,188.909 71.810,188.909 72.800 M178.901 73.400 C 178.905 74.280,178.987 74.593,179.083 74.095 C 179.179 73.598,179.175 72.878,179.075 72.495 C 178.975 72.113,178.896 72.520,178.901 73.400 M226.568 81.400 C 226.568 85.800,226.626 87.655,226.698 85.521 C 226.770 83.388,226.770 79.788,226.699 77.521 C 226.627 75.255,226.568 77.000,226.568 81.400 M200.962 81.400 C 200.962 84.920,201.024 86.306,201.098 84.481 C 201.172 82.656,201.172 79.776,201.097 78.081 C 201.022 76.386,200.961 77.880,200.962 81.400 M189.354 81.200 C 189.354 83.950,189.418 85.075,189.496 83.700 C 189.574 82.325,189.574 80.075,189.496 78.700 C 189.418 77.325,189.354 78.450,189.354 81.200 M178.093 78.400 C 178.093 79.170,178.175 79.485,178.276 79.100 C 178.376 78.715,178.376 78.085,178.276 77.700 C 178.175 77.315,178.093 77.630,178.093 78.400 M177.469 81.156 C 177.321 81.895,177.220 82.883,177.244 83.350 C 177.268 83.817,177.447 83.390,177.642 82.400 C 177.837 81.410,177.938 80.423,177.867 80.206 C 177.796 79.990,177.617 80.417,177.469 81.156 M214.914 81.800 C 214.917 82.900,214.995 83.303,215.087 82.695 C 215.179 82.086,215.177 81.186,215.082 80.695 C 214.987 80.203,214.911 80.700,214.914 81.800 M239.834 83.100 C 241.284 85.295,243.515 89.052,244.587 91.103 C 245.669 93.172,246.225 93.863,245.711 92.500 C 245.074 90.812,239.700 82.000,239.307 82.000 C 239.198 82.000,239.435 82.495,239.834 83.100 M175.334 87.093 C 174.638 87.812,174.199 88.400,174.359 88.400 C 174.731 88.400,176.999 86.046,176.771 85.897 C 176.677 85.836,176.030 86.374,175.334 87.093 M188.867 89.250 C 188.830 90.048,188.711 91.308,188.601 92.050 L 188.403 93.400 188.823 92.060 C 189.054 91.323,189.174 90.063,189.089 89.260 L 188.934 87.800 188.867 89.250 M171.400 88.800 L 169.800 89.086 171.200 89.137 C 171.970 89.165,172.870 89.013,173.200 88.800 C 173.855 88.377,173.762 88.377,171.400 88.800 M214.501 89.800 C 214.505 90.680,214.587 90.993,214.683 90.495 C 214.779 89.998,214.775 89.278,214.675 88.895 C 214.575 88.513,214.496 88.920,214.501 89.800 M200.246 91.947 C 200.089 93.127,200.046 94.179,200.150 94.283 C 200.417 94.550,200.922 90.964,200.707 90.325 C 200.611 90.036,200.403 90.766,200.246 91.947 M225.793 92.938 C 225.638 94.587,225.592 96.175,225.690 96.468 C 225.788 96.761,225.994 95.491,226.148 93.647 C 226.302 91.803,226.348 90.215,226.251 90.117 C 226.153 90.020,225.947 91.289,225.793 92.938 M214.109 93.200 C 214.109 94.190,214.187 94.595,214.282 94.100 C 214.378 93.605,214.378 92.795,214.282 92.300 C 214.187 91.805,214.109 92.210,214.109 93.200 M246.062 93.800 C 246.476 94.936,248.046 98.000,248.215 98.000 C 248.514 98.000,247.320 95.300,246.576 94.292 C 246.213 93.801,245.982 93.580,246.062 93.800 M188.049 95.000 C 188.016 95.440,187.896 96.250,187.783 96.800 L 187.577 97.800 188.006 96.819 C 188.242 96.279,188.361 95.469,188.272 95.019 C 188.113 94.221,188.107 94.221,188.049 95.000 M213.469 97.156 C 213.321 97.895,213.220 98.883,213.244 99.350 C 213.268 99.817,213.447 99.390,213.642 98.400 C 213.837 97.410,213.938 96.423,213.867 96.206 C 213.796 95.990,213.617 96.417,213.469 97.156 M199.400 97.600 C 199.248 98.291,199.214 98.947,199.324 99.057 C 199.434 99.167,199.648 98.691,199.800 98.000 C 199.952 97.309,199.986 96.653,199.876 96.543 C 199.766 96.433,199.552 96.909,199.400 97.600 M248.418 98.451 C 248.380 98.980,249.657 101.676,249.852 101.481 C 249.965 101.368,249.693 100.584,249.247 99.738 C 248.800 98.892,248.427 98.313,248.418 98.451 M224.901 100.600 C 224.905 101.480,224.987 101.793,225.083 101.295 C 225.179 100.798,225.175 100.078,225.075 99.695 C 224.975 99.313,224.896 99.720,224.901 100.600 M198.629 101.429 C 198.481 102.015,198.438 102.572,198.532 102.666 C 198.627 102.760,198.824 102.358,198.971 101.771 C 199.119 101.185,199.162 100.628,199.068 100.534 C 198.973 100.440,198.776 100.842,198.629 101.429 M170.034 101.847 C 170.565 102.533,171.080 103.023,171.179 102.935 C 171.277 102.847,170.843 102.286,170.213 101.688 L 169.069 100.600 170.034 101.847 M212.600 102.000 C 212.448 102.691,212.407 103.341,212.509 103.442 C 212.611 103.544,212.809 103.053,212.950 102.350 C 213.283 100.683,212.960 100.360,212.600 102.000 M186.229 102.629 C 186.081 103.215,186.038 103.772,186.132 103.866 C 186.227 103.960,186.424 103.558,186.571 102.971 C 186.719 102.385,186.762 101.828,186.668 101.734 C 186.573 101.640,186.376 102.042,186.229 102.629 M171.400 106.002 C 171.400 107.279,171.535 108.241,171.700 108.138 C 171.865 108.036,172.000 107.074,172.000 106.000 C 172.000 104.926,171.865 103.964,171.700 103.863 C 171.535 103.762,171.400 104.725,171.400 106.002 M197.829 104.629 C 197.681 105.215,197.638 105.772,197.732 105.866 C 197.827 105.960,198.024 105.558,198.171 104.971 C 198.319 104.385,198.362 103.828,198.268 103.734 C 198.173 103.640,197.976 104.042,197.829 104.629 M224.049 104.600 C 224.016 105.040,223.896 105.850,223.783 106.400 L 223.577 107.400 224.006 106.419 C 224.242 105.879,224.361 105.069,224.272 104.619 C 224.113 103.821,224.107 103.821,224.049 104.600 M211.849 105.415 C 211.712 105.773,211.615 106.366,211.634 106.733 C 211.653 107.100,211.827 106.869,212.021 106.220 C 212.398 104.958,212.265 104.333,211.849 105.415 M251.612 106.400 C 251.612 106.730,251.787 107.270,252.000 107.600 C 252.345 108.133,252.388 108.133,252.388 107.600 C 252.388 107.270,252.213 106.730,252.000 106.400 C 251.655 105.867,251.612 105.867,251.612 106.400 M210.873 109.273 C 210.635 110.209,210.510 111.043,210.594 111.127 C 210.678 111.212,210.951 110.524,211.200 109.600 C 211.449 108.676,211.574 107.841,211.479 107.745 C 211.383 107.650,211.110 108.337,210.873 109.273 M223.254 108.267 C 223.225 108.744,223.096 109.464,222.970 109.867 C 222.752 110.561,222.764 110.562,223.196 109.888 C 223.447 109.497,223.575 108.777,223.481 108.288 C 223.309 107.401,223.309 107.401,223.254 108.267 M222.446 111.267 C 222.421 111.634,222.296 112.264,222.170 112.667 C 221.952 113.362,221.963 113.363,222.397 112.687 C 222.648 112.296,222.773 111.666,222.673 111.287 C 222.511 110.668,222.488 110.666,222.446 111.267 M194.674 114.274 C 194.090 115.744,193.678 117.011,193.757 117.091 C 193.836 117.170,194.381 116.035,194.968 114.568 C 195.555 113.102,195.968 111.835,195.885 111.752 C 195.802 111.669,195.257 112.804,194.674 114.274 M209.255 114.511 C 207.876 118.729,207.879 118.721,208.327 118.000 C 208.930 117.032,210.471 112.413,210.330 112.001 C 210.258 111.793,209.775 112.923,209.255 114.511 M254.012 113.600 C 254.012 113.930,254.187 114.470,254.400 114.800 C 254.745 115.333,254.788 115.333,254.788 114.800 C 254.788 114.470,254.613 113.930,254.400 113.600 C 254.055 113.067,254.012 113.067,254.012 113.600 M221.646 114.067 C 221.621 114.434,221.496 115.064,221.370 115.467 C 221.152 116.162,221.163 116.163,221.597 115.487 C 221.848 115.096,221.973 114.466,221.873 114.087 C 221.711 113.468,221.688 113.466,221.646 114.067 M255.044 117.000 C 255.373 118.471,255.602 118.790,255.594 117.767 C 255.591 117.345,255.405 116.730,255.182 116.400 C 254.885 115.962,254.848 116.124,255.044 117.000 M255.634 119.200 C 255.646 119.530,255.811 120.160,256.000 120.600 L 256.344 121.400 256.366 120.600 C 256.378 120.160,256.213 119.530,256.000 119.200 C 255.655 118.667,255.615 118.667,255.634 119.200 M178.614 120.635 C 178.241 121.204,178.005 121.738,178.089 121.822 C 178.173 121.907,178.558 121.441,178.944 120.788 C 179.806 119.328,179.548 119.209,178.614 120.635 M190.432 123.600 C 189.745 124.920,189.273 126.000,189.383 126.000 C 189.581 126.000,191.112 123.269,191.683 121.900 C 192.320 120.370,191.612 121.332,190.432 123.600 M256.662 123.400 C 256.796 124.280,256.972 125.075,257.053 125.167 C 257.356 125.510,257.129 123.368,256.781 122.600 C 256.529 122.042,256.493 122.285,256.662 123.400 M205.472 124.219 C 204.532 126.189,204.664 126.524,205.647 124.662 C 206.093 123.816,206.387 123.054,206.301 122.967 C 206.214 122.881,205.841 123.444,205.472 124.219 M257.450 127.600 C 257.775 129.841,258.002 130.160,257.994 128.367 C 257.991 127.615,257.808 126.730,257.588 126.400 C 257.309 125.981,257.267 126.342,257.450 127.600 M188.186 127.700 L 187.552 129.000 188.367 128.000 C 189.152 127.037,189.408 126.400,189.010 126.400 C 188.906 126.400,188.535 126.985,188.186 127.700 M173.365 128.611 C 172.773 129.387,172.359 130.087,172.444 130.167 C 172.530 130.246,173.093 129.612,173.696 128.756 C 175.065 126.814,174.818 126.706,173.365 128.611 M201.414 132.235 C 201.041 132.804,200.827 133.361,200.939 133.472 C 201.050 133.583,201.429 133.118,201.781 132.437 C 202.559 130.933,202.344 130.815,201.414 132.235 M258.514 133.800 C 258.517 134.900,258.595 135.303,258.687 134.695 C 258.779 134.086,258.777 133.186,258.682 132.695 C 258.587 132.203,258.511 132.700,258.514 133.800 M168.185 134.900 L 166.200 137.000 168.300 135.015 C 169.455 133.923,170.400 132.978,170.400 132.915 C 170.400 132.617,170.029 132.949,168.185 134.900 M183.544 134.700 C 182.275 136.232,181.819 136.942,182.281 136.665 C 182.793 136.358,184.569 134.000,184.289 134.000 C 184.198 134.000,183.863 134.315,183.544 134.700 M199.116 136.088 C 198.251 137.422,197.548 138.800,197.733 138.800 C 198.025 138.800,200.064 135.530,199.884 135.351 C 199.787 135.254,199.442 135.586,199.116 136.088 M259.098 141.400 C 259.190 144.260,259.327 146.780,259.401 147.000 C 259.686 147.840,259.539 139.321,259.242 137.800 C 259.057 136.848,258.998 138.305,259.098 141.400 M163.586 139.500 L 161.400 141.800 163.791 139.600 C 165.106 138.390,166.261 137.355,166.357 137.300 C 166.454 137.245,166.362 137.200,166.153 137.200 C 165.944 137.200,164.789 138.235,163.586 139.500 M180.155 139.081 C 179.307 140.116,178.822 140.834,179.077 140.676 C 179.621 140.340,182.155 137.200,181.882 137.200 C 181.780 137.200,181.003 138.047,180.155 139.081 M210.941 139.100 C 210.340 140.145,209.194 141.990,208.394 143.200 C 206.562 145.971,206.311 146.400,206.526 146.400 C 206.702 146.400,209.950 141.447,211.577 138.700 C 212.066 137.875,212.368 137.200,212.249 137.200 C 212.131 137.200,211.542 138.055,210.941 139.100 M195.929 141.100 C 194.978 142.218,193.528 144.400,193.735 144.400 C 193.840 144.400,194.572 143.500,195.362 142.400 C 196.785 140.419,197.077 139.750,195.929 141.100 M174.102 145.529 C 172.287 147.403,170.857 148.990,170.922 149.056 C 170.988 149.121,172.648 147.561,174.612 145.587 C 176.576 143.614,178.007 142.028,177.792 142.061 C 177.576 142.095,175.916 143.655,174.102 145.529 M190.413 148.300 C 188.799 150.225,188.045 151.272,188.738 150.626 C 189.979 149.470,193.797 144.800,193.501 144.800 C 193.418 144.800,192.028 146.375,190.413 148.300 M203.488 150.300 C 202.055 152.225,199.750 155.150,198.365 156.800 C 196.980 158.450,196.177 159.532,196.580 159.205 C 198.198 157.889,206.856 146.800,206.265 146.800 C 206.170 146.800,204.920 148.375,203.488 150.300 M168.971 150.503 L 167.800 151.797 169.000 150.799 C 169.660 150.249,170.275 149.755,170.367 149.700 C 170.458 149.645,170.445 149.512,170.338 149.404 C 170.230 149.296,169.615 149.791,168.971 150.503 M259.284 155.644 C 259.238 157.758,259.115 160.368,259.011 161.444 L 258.822 163.400 259.225 161.471 C 259.447 160.410,259.570 157.800,259.498 155.671 L 259.367 151.800 259.284 155.644 M183.550 155.806 C 181.873 157.453,180.618 158.800,180.760 158.800 C 180.903 158.800,182.361 157.450,184.000 155.800 C 185.639 154.150,186.894 152.803,186.790 152.806 C 186.685 152.810,185.228 154.160,183.550 155.806 M163.800 154.453 C 161.434 156.224,161.122 156.706,163.280 155.254 C 164.313 154.559,165.269 153.812,165.403 153.595 C 165.755 153.026,165.583 153.118,163.800 154.453 M155.796 159.852 C 152.960 161.731,151.201 163.164,153.400 161.805 C 157.047 159.550,159.204 158.000,158.696 158.000 C 158.638 158.000,157.333 158.833,155.796 159.852 M177.600 161.255 C 176.040 162.693,175.865 162.935,177.000 162.086 C 178.487 160.972,180.331 159.184,179.962 159.213 C 179.873 159.220,178.810 160.139,177.600 161.255 M192.400 163.252 C 190.750 164.993,189.229 166.593,189.020 166.809 C 188.811 167.024,188.725 167.200,188.828 167.200 C 188.932 167.200,190.629 165.580,192.600 163.600 C 194.571 161.620,196.007 160.020,195.792 160.044 C 195.576 160.068,194.050 161.512,192.400 163.252 M148.300 165.035 C 147.035 166.042,146.000 166.952,146.000 167.059 C 146.000 167.166,147.080 166.405,148.400 165.368 C 150.515 163.706,151.061 163.192,150.700 163.203 C 150.645 163.205,149.565 164.029,148.300 165.035 M172.400 165.250 C 169.177 167.733,168.410 168.521,170.800 166.892 C 172.670 165.617,175.549 163.227,175.200 163.240 C 175.090 163.243,173.830 164.148,172.400 165.250 M258.509 165.600 C 258.509 166.590,258.587 166.995,258.682 166.500 C 258.778 166.005,258.778 165.195,258.682 164.700 C 258.587 164.205,258.509 164.610,258.509 165.600 M270.274 164.951 C 270.159 165.252,269.964 166.376,269.842 167.449 C 269.684 168.833,269.721 169.110,269.970 168.400 C 270.163 167.850,270.338 166.894,270.360 166.276 C 270.383 165.637,270.572 165.259,270.800 165.400 C 271.020 165.536,271.200 165.467,271.200 165.247 C 271.200 164.587,270.500 164.363,270.274 164.951 M186.000 169.280 C 184.790 170.377,182.135 172.538,180.100 174.082 C 178.065 175.626,176.400 176.981,176.400 177.094 C 176.400 177.206,176.625 177.124,176.900 176.911 C 177.175 176.698,178.660 175.570,180.200 174.405 C 184.800 170.926,188.605 167.665,188.348 167.424 C 188.266 167.347,187.210 168.183,186.000 169.280 M141.000 171.600 C 139.029 173.580,137.593 175.176,137.808 175.148 C 138.203 175.095,145.110 168.000,144.767 168.000 C 144.666 168.000,142.971 169.620,141.000 171.600 M163.741 171.202 C 160.865 173.082,160.092 174.120,159.816 176.472 L 159.614 178.200 160.009 176.600 C 160.652 173.993,161.233 173.230,163.882 171.517 C 166.073 170.100,166.703 169.600,166.297 169.600 C 166.240 169.600,165.090 170.321,163.741 171.202 M257.654 170.800 C 257.619 171.350,257.496 172.250,257.383 172.800 L 257.177 173.800 257.607 172.815 C 257.843 172.274,257.965 171.374,257.878 170.815 L 257.720 169.800 257.654 170.800 M269.022 172.222 C 268.872 173.025,268.828 173.762,268.926 173.860 C 269.024 173.957,269.227 173.381,269.378 172.578 C 269.528 171.775,269.572 171.038,269.474 170.940 C 269.376 170.843,269.173 171.419,269.022 172.222 M256.854 174.600 C 256.819 175.040,256.689 175.850,256.567 176.400 C 256.375 177.263,256.407 177.303,256.798 176.690 C 257.047 176.299,257.177 175.489,257.086 174.890 C 256.978 174.179,256.897 174.079,256.854 174.600 M274.644 175.000 C 274.973 176.471,275.202 176.790,275.194 175.767 C 275.191 175.345,275.005 174.730,274.782 174.400 C 274.485 173.962,274.448 174.124,274.644 175.000 M268.250 176.450 C 267.917 178.117,268.240 178.440,268.600 176.800 C 268.752 176.109,268.793 175.459,268.691 175.358 C 268.589 175.256,268.391 175.747,268.250 176.450 M136.175 177.068 C 135.559 177.876,135.259 178.411,135.509 178.256 C 136.021 177.940,137.753 175.600,137.475 175.600 C 137.376 175.600,136.791 176.261,136.175 177.068 M275.606 178.233 C 275.609 178.655,275.795 179.270,276.018 179.600 C 276.315 180.038,276.352 179.876,276.156 179.000 C 275.827 177.529,275.598 177.210,275.606 178.233 M255.850 179.250 C 255.517 180.917,255.840 181.240,256.200 179.600 C 256.352 178.909,256.393 178.259,256.291 178.158 C 256.189 178.056,255.991 178.547,255.850 179.250 M160.025 178.894 C 160.011 179.275,160.495 180.094,161.100 180.713 C 161.705 181.332,161.896 181.470,161.524 181.019 C 161.152 180.568,160.669 179.750,160.449 179.200 C 160.175 178.512,160.043 178.416,160.025 178.894 M132.972 181.418 C 131.944 182.859,131.184 184.117,131.283 184.216 C 131.381 184.315,132.297 183.136,133.318 181.598 C 135.660 178.069,135.443 177.956,132.972 181.418 M267.429 180.229 C 267.281 180.815,267.251 181.384,267.361 181.494 C 267.471 181.604,267.681 181.215,267.829 180.629 C 267.976 180.042,268.006 179.473,267.896 179.363 C 267.786 179.253,267.576 179.642,267.429 180.229 M169.000 181.600 C 167.900 182.252,167.148 182.789,167.329 182.793 C 167.720 182.801,171.200 180.796,171.200 180.562 C 171.200 180.306,171.111 180.348,169.000 181.600 M255.029 182.229 C 254.881 182.815,254.851 183.384,254.961 183.494 C 255.071 183.604,255.281 183.215,255.429 182.629 C 255.576 182.042,255.606 181.473,255.496 181.363 C 255.386 181.253,255.176 181.642,255.029 182.229 M266.629 183.829 C 266.481 184.415,266.438 184.972,266.532 185.066 C 266.627 185.160,266.824 184.758,266.971 184.171 C 267.119 183.585,267.162 183.028,267.068 182.934 C 266.973 182.840,266.776 183.242,266.629 183.829 M130.214 185.835 C 129.841 186.404,129.605 186.938,129.689 187.022 C 129.773 187.107,130.158 186.641,130.544 185.988 C 131.406 184.528,131.148 184.409,130.214 185.835 M253.400 187.600 C 253.250 188.073,253.217 188.550,253.327 188.660 C 253.437 188.770,253.650 188.473,253.800 188.000 C 253.950 187.527,253.983 187.050,253.873 186.940 C 253.763 186.830,253.550 187.127,253.400 187.600 M278.101 189.400 C 278.105 190.280,278.187 190.593,278.283 190.095 C 278.379 189.598,278.375 188.878,278.275 188.495 C 278.175 188.113,278.096 188.520,278.101 189.400 M265.000 189.200 C 264.850 189.673,264.817 190.150,264.927 190.260 C 265.037 190.370,265.250 190.073,265.400 189.600 C 265.550 189.127,265.583 188.650,265.473 188.540 C 265.363 188.430,265.150 188.727,265.000 189.200 M278.813 192.600 C 278.808 192.820,279.247 193.540,279.788 194.200 C 280.329 194.860,280.778 195.175,280.786 194.900 C 280.794 194.625,280.662 194.400,280.493 194.400 C 280.324 194.400,279.878 193.905,279.503 193.300 C 279.128 192.695,278.817 192.380,278.813 192.600 M261.467 199.667 C 261.105 200.588,260.874 201.407,260.954 201.488 C 261.034 201.568,261.400 200.883,261.767 199.967 C 262.133 199.050,262.364 198.231,262.279 198.146 C 262.194 198.061,261.829 198.745,261.467 199.667 M248.223 201.006 C 247.360 203.072,247.474 203.306,248.447 201.462 C 248.893 200.616,249.165 199.832,249.052 199.719 C 248.939 199.606,248.566 200.185,248.223 201.006 M123.050 203.250 C 122.717 204.917,123.040 205.240,123.400 203.600 C 123.552 202.909,123.593 202.259,123.491 202.158 C 123.389 202.056,123.191 202.547,123.050 203.250 M259.233 204.912 C 259.043 205.414,258.418 206.795,257.846 207.982 C 257.274 209.168,256.871 210.204,256.951 210.285 C 257.032 210.365,257.506 209.569,258.004 208.515 C 259.438 205.489,260.028 204.000,259.795 204.000 C 259.677 204.000,259.424 204.411,259.233 204.912 M122.250 206.850 C 121.917 208.517,122.240 208.840,122.600 207.200 C 122.752 206.509,122.793 205.859,122.691 205.758 C 122.589 205.656,122.391 206.147,122.250 206.850 M244.628 208.261 C 244.056 209.284,243.652 210.185,243.729 210.263 C 243.807 210.340,244.361 209.503,244.960 208.402 C 245.560 207.301,245.964 206.400,245.859 206.400 C 245.754 206.400,245.200 207.237,244.628 208.261 M121.455 211.055 C 121.313 212.086,121.274 213.008,121.369 213.102 C 121.463 213.196,121.665 212.439,121.818 211.418 C 121.971 210.398,122.010 209.476,121.904 209.371 C 121.798 209.265,121.596 210.023,121.455 211.055 M240.823 214.892 C 237.700 220.166,237.611 222.558,240.445 225.001 C 241.252 225.697,241.236 225.633,240.320 224.510 C 238.374 222.123,238.374 219.473,240.320 216.371 C 242.215 213.349,243.643 210.800,243.440 210.800 C 243.333 210.800,242.155 212.641,240.823 214.892 M255.040 213.598 C 254.440 214.699,254.036 215.600,254.141 215.600 C 254.408 215.600,256.443 211.910,256.271 211.737 C 256.193 211.660,255.639 212.497,255.040 213.598 M278.253 214.836 C 278.114 215.531,278.022 216.663,278.049 217.350 C 278.078 218.094,278.238 217.640,278.443 216.228 C 278.811 213.704,278.676 212.718,278.253 214.836 M120.965 222.000 C 120.965 225.850,121.025 227.425,121.098 225.500 C 121.171 223.575,121.171 220.425,121.098 218.500 C 121.025 216.575,120.965 218.150,120.965 222.000 M253.053 217.300 L 252.333 218.600 253.158 217.600 C 253.889 216.713,254.214 216.000,253.886 216.000 C 253.824 216.000,253.449 216.585,253.053 217.300 M251.400 220.000 C 251.059 220.660,250.869 221.200,250.979 221.200 C 251.089 221.200,251.459 220.660,251.800 220.000 C 252.141 219.340,252.331 218.800,252.221 218.800 C 252.111 218.800,251.741 219.340,251.400 220.000 M275.849 227.015 C 275.712 227.373,275.615 227.966,275.634 228.333 C 275.653 228.700,275.827 228.469,276.021 227.820 C 276.398 226.558,276.265 225.933,275.849 227.015 M274.840 230.640 C 274.610 231.473,274.494 232.227,274.582 232.315 C 274.670 232.403,274.930 231.793,275.160 230.960 C 275.390 230.127,275.506 229.373,275.418 229.285 C 275.330 229.197,275.070 229.807,274.840 230.640 M121.472 232.200 C 121.599 233.300,121.769 234.275,121.851 234.367 C 122.132 234.682,121.920 232.199,121.580 231.200 C 121.351 230.526,121.316 230.851,121.472 232.200 M58.881 248.691 C 49.870 253.203,49.913 265.698,58.953 270.124 L 61.150 271.200 199.926 271.200 C 343.910 271.200,342.943 271.210,341.505 269.771 C 341.405 269.671,340.671 269.862,339.874 270.195 C 337.636 271.130,63.064 271.114,60.318 270.178 C 50.899 266.969,49.990 254.445,58.800 249.259 L 60.600 248.200 200.262 248.200 C 277.076 248.200,339.716 248.068,339.462 247.906 C 339.208 247.744,276.450 247.616,200.000 247.621 L 61.000 247.630 58.881 248.691 M343.279 250.405 C 346.677 253.206,348.527 258.889,347.144 262.281 C 345.775 265.639,345.337 266.349,343.647 267.957 C 342.631 268.923,342.160 269.523,342.600 269.290 C 347.248 266.826,349.340 259.356,346.801 254.284 C 345.837 252.358,342.998 249.200,342.230 249.200 C 342.003 249.200,342.475 249.742,343.279 250.405 M69.877 283.056 C 69.240 283.693,69.569 294.302,70.233 294.557 C 71.178 294.920,80.920 294.838,81.512 294.463 C 81.896 294.219,81.996 292.756,81.912 288.569 L 81.800 283.000 75.977 282.890 C 72.774 282.829,70.029 282.904,69.877 283.056 M181.934 283.114 C 182.344 283.402,182.437 284.663,182.334 288.545 C 182.260 291.326,182.340 293.601,182.512 293.601 C 183.154 293.599,182.651 283.079,182.000 282.902 C 181.523 282.772,181.509 282.816,181.934 283.114 M194.000 288.602 C 194.000 295.555,193.492 295.088,200.270 294.377 C 206.692 293.703,206.453 293.961,206.312 287.859 L 206.200 283.000 200.100 282.890 L 194.000 282.779 194.000 288.602 M217.369 283.337 C 216.139 286.543,217.855 290.832,219.888 289.633 C 220.444 289.306,220.308 289.268,219.269 289.463 L 217.938 289.712 218.069 286.255 C 218.188 283.113,217.906 281.937,217.369 283.337 M231.800 283.657 L 231.000 284.467 232.100 283.969 C 232.705 283.696,233.200 283.320,233.200 283.136 C 233.200 282.589,232.654 282.793,231.800 283.657 M318.267 283.067 C 318.120 283.213,318.000 285.804,318.000 288.824 C 318.000 295.328,317.452 294.800,324.200 294.800 C 330.964 294.800,330.400 295.368,330.400 288.557 L 330.400 282.800 324.467 282.800 C 321.203 282.800,318.413 282.920,318.267 283.067 M81.111 288.700 L 81.000 294.200 75.900 294.312 L 70.800 294.424 70.800 288.812 L 70.800 283.200 76.011 283.200 L 81.223 283.200 81.111 288.700 M205.200 287.932 C 205.200 293.651,205.386 293.474,199.100 293.709 L 194.800 293.869 194.800 288.534 L 194.800 283.200 200.000 283.200 L 205.200 283.200 205.200 287.932 M329.511 288.700 L 329.400 294.200 324.300 294.312 L 319.200 294.424 319.200 288.812 L 319.200 283.200 324.411 283.200 L 329.623 283.200 329.511 288.700 M155.800 284.196 C 156.694 284.939,159.228 286.309,158.600 285.710 C 158.380 285.500,157.480 284.924,156.600 284.430 C 155.720 283.935,155.360 283.830,155.800 284.196 M170.800 291.182 C 171.130 291.405,171.745 291.591,172.167 291.594 C 173.190 291.602,172.871 291.373,171.400 291.044 C 170.524 290.848,170.362 290.885,170.800 291.182 M173.240 291.774 C 173.570 292.103,177.885 293.206,178.720 293.174 C 179.094 293.159,178.500 292.912,177.400 292.625 C 173.944 291.722,172.994 291.528,173.240 291.774 M29.557 306.580 C 23.787 308.171,20.079 311.696,16.451 319.040 C 14.103 323.793,13.686 324.695,12.778 327.000 C 12.604 327.440,12.357 328.561,12.228 329.492 L 11.993 331.183 56.897 331.292 C 101.337 331.399,101.814 331.408,103.200 332.220 C 105.803 333.744,106.656 336.924,105.170 339.568 C 103.579 342.399,107.281 342.178,57.600 342.407 C 32.850 342.521,12.534 342.656,12.453 342.707 C 12.274 342.821,12.337 343.091,14.343 350.800 C 16.060 357.398,16.211 357.993,16.876 360.800 C 20.440 375.851,27.115 384.024,38.400 387.155 C 39.390 387.430,40.753 387.822,41.428 388.027 C 42.892 388.471,357.565 388.538,358.262 388.094 C 358.516 387.932,288.046 387.849,201.662 387.910 C 30.873 388.029,41.823 388.161,36.347 385.913 C 24.788 381.169,21.110 375.622,15.987 355.204 C 14.415 348.936,13.044 343.671,12.941 343.504 C 12.837 343.337,32.631 343.200,56.928 343.200 C 105.922 343.200,102.810 343.373,105.162 340.519 C 107.360 337.854,106.646 334.190,103.471 331.837 C 102.343 331.001,102.286 331.000,57.571 330.890 L 12.800 330.780 12.806 329.690 C 12.831 324.893,22.368 308.800,25.185 308.800 C 25.418 308.800,26.372 308.457,27.304 308.037 C 28.237 307.617,29.540 307.130,30.200 306.954 C 30.860 306.778,107.180 306.581,199.800 306.515 L 368.200 306.397 370.800 307.228 C 377.824 309.475,382.750 315.535,386.609 326.675 C 387.128 328.174,387.564 329.026,387.577 328.569 C 387.609 327.410,385.932 323.382,383.264 318.213 C 379.704 311.315,376.149 308.140,370.200 306.545 C 367.315 305.772,32.362 305.806,29.557 306.580 M135.637 322.864 C 132.916 324.732,132.819 325.063,132.764 332.649 C 132.709 340.253,132.865 340.834,135.389 342.393 C 138.383 344.243,142.439 342.969,144.053 339.671 C 145.223 337.281,145.034 327.358,143.778 325.212 C 142.008 322.190,138.214 321.096,135.637 322.864 M258.808 322.701 C 255.851 324.186,254.872 328.807,255.536 338.153 C 255.909 343.413,263.699 345.080,266.678 340.538 C 267.287 339.610,267.408 338.493,267.448 333.419 L 267.497 327.400 267.239 333.200 C 267.093 336.486,266.772 339.371,266.500 339.857 C 264.650 343.148,260.474 343.875,257.750 341.380 L 256.200 339.960 256.200 332.787 L 256.200 325.613 257.661 324.152 C 260.384 321.429,264.847 322.258,266.448 325.783 C 266.980 326.954,267.185 327.160,267.191 326.531 C 267.223 323.385,262.102 321.046,258.808 322.701 M140.424 322.795 C 144.782 322.833,146.111 337.744,142.091 341.500 C 139.955 343.496,137.066 343.401,134.817 341.262 L 133.200 339.724 133.200 333.042 C 133.200 324.274,134.569 321.820,139.000 322.641 C 139.440 322.722,140.081 322.792,140.424 322.795 M193.976 326.539 C 188.132 328.801,183.791 333.688,181.802 340.245 C 181.146 342.408,180.988 349.020,181.558 350.481 C 181.755 350.987,182.155 352.199,182.447 353.176 C 186.965 368.294,207.791 370.610,215.878 356.893 C 225.339 340.845,210.423 320.173,193.976 326.539 M204.372 326.455 C 222.527 332.239,223.180 358.416,205.327 364.755 C 202.114 365.896,197.879 365.891,194.627 364.744 C 176.991 358.520,177.515 332.620,195.400 326.496 C 197.057 325.929,202.639 325.903,204.372 326.455 M387.600 330.190 C 387.600 330.706,381.954 330.794,342.669 330.890 L 297.737 331.000 296.268 332.121 C 292.075 335.320,292.992 341.081,297.960 342.745 C 298.944 343.074,311.449 343.200,343.199 343.200 L 387.078 343.200 384.548 353.300 C 380.449 369.667,380.010 370.969,377.143 375.252 C 373.565 380.597,368.055 384.592,361.200 386.814 C 359.990 387.206,359.361 387.543,359.802 387.564 C 362.703 387.696,369.776 383.820,373.607 380.000 C 379.152 374.470,380.418 371.784,383.792 358.392 C 385.205 352.786,386.658 347.064,387.022 345.675 C 387.386 344.287,387.560 343.027,387.409 342.875 C 387.257 342.724,366.944 342.510,342.267 342.400 C 292.731 342.179,296.421 342.399,294.830 339.568 C 293.597 337.373,293.881 334.992,295.597 333.154 C 297.289 331.342,295.647 331.406,343.100 331.292 C 387.539 331.184,388.000 331.175,388.000 330.392 C 388.000 329.956,387.910 329.600,387.800 329.600 C 387.690 329.600,387.600 329.866,387.600 330.190 M195.849 339.300 C 190.703 344.256,193.399 354.000,199.916 354.000 C 204.003 354.000,206.782 350.681,206.782 345.800 C 206.782 338.778,200.357 334.958,195.849 339.300 " stroke="none" fill="#4b539a" fill-rule="evenodd"></path></g></svg>