<?xml version="1.0" standalone="no"?>
<!DOCTYPE svg PUBLIC "-//W3C//DTD SVG 20010904//EN"
 "http://www.w3.org/TR/2001/REC-SVG-20010904/DTD/svg10.dtd">
<svg version="1.0" xmlns="http://www.w3.org/2000/svg"
 width="512.000000pt" height="512.000000pt" viewBox="0 0 512.000000 512.000000"
 preserveAspectRatio="xMidYMid meet">

<g transform="translate(0.000000,512.000000) scale(0.100000,-0.100000)"
fill="#000000" stroke="none">
<path d="M728 4811 c-152 -49 -271 -178 -313 -338 -13 -49 -15 -239 -15 -1375
l0 -1318 -200 -400 -200 -400 0 -184 c0 -156 3 -193 20 -247 36 -114 112 -194
229 -241 l56 -23 2255 0 2255 0 56 23 c117 47 193 127 229 241 17 54 20 91 20
247 l0 184 -200 400 -200 400 0 1309 c0 848 -4 1327 -10 1362 -32 165 -161
310 -321 360 -59 18 -121 19 -1832 18 -1690 0 -1775 -1 -1829 -18z m1256 -477
c14 -56 -18 -54 1131 -54 l1055 0 0 -1020 0 -1020 -1610 0 -1610 0 0 1020 0
1020 399 0 c256 0 409 4 429 11 18 6 35 22 42 40 12 28 14 29 85 29 70 0 73
-1 79 -26z m1644 -2603 c8 -18 25 -34 44 -40 20 -7 184 -11 479 -11 l449 0
160 -320 160 -320 -815 0 -814 0 -72 141 c-77 151 -115 199 -188 233 -45 20
-59 21 -471 21 -412 0 -426 -1 -470 -21 -75 -35 -115 -85 -190 -235 l-70 -139
-815 0 -815 0 160 320 160 320 1435 0 c1563 0 1496 -2 1511 54 6 25 9 26 78
26 69 0 72 -1 84 -29z m1342 -985 c0 -127 -1 -136 -28 -187 -36 -69 -88 -106
-167 -119 -66 -11 -3121 -12 -3976 -1 l-506 6 -41 27 c-22 15 -54 49 -69 75
-27 46 -28 55 -31 191 l-4 142 2411 0 2411 0 0 -134z"/>
<path d="M3145 3913 c-71 -37 -115 -104 -117 -179 -1 -58 22 -84 72 -84 44 0
64 19 79 76 6 23 18 45 27 48 48 19 94 -8 94 -55 0 -55 70 -94 116 -65 34 23
42 51 32 105 -19 103 -103 171 -212 171 -36 -1 -74 -7 -91 -17z"/>
<path d="M1852 3887 c-19 -20 -22 -35 -22 -114 0 -87 1 -93 26 -112 35 -28 69
-26 99 4 23 22 25 32 25 108 0 70 -3 89 -21 111 -27 34 -77 36 -107 3z"/>
<path d="M2331 3764 c-25 -31 -26 -46 -7 -83 32 -61 141 -114 238 -115 57 0
77 5 135 34 67 35 113 83 113 120 0 10 -9 29 -21 44 -29 36 -77 35 -121 -3
-18 -16 -50 -33 -70 -39 -49 -13 -102 1 -146 39 -44 38 -92 39 -121 3z"/>
</g>
</svg>
