<?xml version="1.0" standalone="no"?>
<!DOCTYPE svg PUBLIC "-//W3C//DTD SVG 20010904//EN"
 "http://www.w3.org/TR/2001/REC-SVG-20010904/DTD/svg10.dtd">
<svg version="1.0" xmlns="http://www.w3.org/2000/svg"
 width="512.000000pt" height="512.000000pt" viewBox="0 0 512.000000 512.000000"
 preserveAspectRatio="xMidYMid meet">

<g transform="translate(0.000000,512.000000) scale(0.100000,-0.100000)"
fill="#000000" stroke="none">
<path d="M2517 5106 c-10 -8 -22 -29 -27 -47 -6 -19 -10 -192 -10 -390 l0
-357 -52 -30 c-33 -19 -130 -108 -258 -236 l-205 -206 -667 0 c-433 0 -684 -4
-717 -11 -65 -14 -134 -58 -167 -108 -18 -28 -87 -240 -217 -664 -172 -562
-190 -629 -191 -697 0 -59 4 -84 22 -117 45 -85 119 -139 211 -152 l46 -6 3
-326 c2 -295 4 -328 20 -342 32 -29 67 -31 98 -4 l29 25 3 326 3 326 469 0
470 0 0 -200 0 -200 -242 0 c-235 0 -245 -1 -293 -24 -62 -29 -107 -76 -137
-141 -21 -46 -23 -64 -23 -210 0 -146 2 -164 23 -206 29 -59 82 -112 141 -141
43 -22 60 -23 289 -26 l242 -4 0 -194 0 -194 -470 0 -469 0 -3 324 c-3 302 -4
325 -22 345 -23 25 -72 28 -104 5 -22 -15 -22 -15 -22 -345 l0 -329 -30 0
c-51 0 -132 -37 -177 -82 -50 -49 -83 -126 -83 -193 0 -107 76 -217 178 -255
51 -20 86 -20 2380 -20 2637 0 2385 -9 2478 84 82 83 104 182 64 288 -35 94
-148 178 -240 178 l-30 0 2 767 3 768 46 6 c92 13 166 67 211 152 18 33 22 58
22 117 -1 68 -19 135 -191 697 -130 424 -199 636 -217 664 -33 50 -102 94
-167 108 -33 7 -284 11 -717 11 l-667 0 -205 206 c-128 128 -225 217 -257 236
-45 25 -53 34 -53 59 l0 29 328 0 c366 0 385 3 433 71 24 34 24 35 24 304 0
264 0 271 -23 302 -12 17 -42 41 -65 52 -42 20 -58 21 -423 21 -303 -1 -383
-3 -397 -14z m758 -361 l0 -220 -317 -3 -318 -2 0 225 0 225 318 -2 317 -3 0
-220z m-672 -589 c18 -8 296 -279 655 -638 l622 -623 0 -49 c0 -41 -5 -53 -33
-81 -38 -38 -74 -50 -114 -40 -18 4 -130 108 -319 296 -274 273 -292 289 -327
289 -45 0 -77 -31 -77 -74 0 -26 38 -68 285 -316 l285 -285 0 -1043 0 -1042
-119 0 -120 0 -3 462 c-3 459 -3 463 -26 513 -30 65 -75 112 -137 141 l-50 24
-565 0 -565 0 -50 -24 c-62 -29 -107 -76 -137 -141 -23 -50 -23 -54 -26 -512
l-3 -463 -120 0 -119 0 0 1043 0 1042 510 510 510 510 137 -137 c76 -75 148
-139 160 -143 26 -7 78 17 87 40 19 50 8 66 -156 232 -90 91 -176 171 -192
180 -17 9 -39 12 -55 8 -17 -4 -222 -201 -576 -555 -588 -586 -577 -576 -646
-547 -56 23 -74 52 -74 113 l0 54 620 621 c341 342 634 627 650 635 38 17 49
17 88 0z m-1141 -809 c-371 -373 -376 -380 -376 -502 0 -82 23 -141 75 -194
44 -45 123 -81 177 -81 l42 0 0 -165 0 -165 -560 0 c-609 0 -608 0 -644 55
-10 16 -19 45 -18 64 0 31 325 1123 368 1239 10 28 28 51 48 63 30 18 58 19
626 19 l594 0 -332 -333z m3084 314 c20 -12 38 -35 48 -63 43 -116 368 -1208
368 -1239 1 -19 -8 -48 -18 -64 -36 -55 -35 -55 -644 -55 l-560 0 0 165 0 165
43 0 c53 0 132 36 176 81 52 53 75 112 75 194 0 122 -5 129 -376 502 l-332
333 594 0 c568 0 596 -1 626 -19z m134 -2341 l0 -770 -470 0 -470 0 0 194 0
194 243 4 c273 3 296 9 369 83 73 74 83 109 83 290 0 146 -2 164 -23 210 -30
65 -75 112 -137 141 -48 23 -58 24 -292 24 l-243 0 0 200 0 200 470 0 470 0 0
-770z m-3300 0 l0 -220 -235 0 -235 0 -32 29 -33 29 -3 142 c-4 160 4 191 52
221 28 17 54 19 259 19 l227 0 0 -220z m2840 205 c50 -26 60 -59 60 -205 0
-140 -9 -174 -52 -204 -19 -13 -60 -16 -255 -16 l-233 0 0 220 0 220 225 0
c182 0 232 -3 255 -15z m697 -1151 c15 -11 34 -39 42 -61 13 -35 13 -46 0 -78
-8 -21 -27 -47 -42 -59 l-28 -21 -2323 0 c-2523 0 -2355 -4 -2393 54 -21 33
-21 102 1 136 38 58 -118 54 2398 52 l2317 -2 28 -21z"/>
<path d="M2461 3029 c-218 -38 -409 -218 -461 -434 -17 -72 -14 -215 5 -282
53 -183 192 -331 371 -394 74 -27 212 -36 296 -20 124 24 250 102 335 206 85
105 124 217 124 360 0 250 -161 470 -399 545 -76 24 -197 32 -271 19z m269
-181 c115 -53 196 -145 231 -260 97 -318 -186 -616 -506 -533 -178 46 -301
196 -312 378 -9 133 25 225 116 320 93 97 173 129 316 124 82 -2 110 -7 155
-29z"/>
<path d="M2523 2728 c-36 -17 -45 -57 -41 -181 4 -160 1 -157 178 -157 150 0
161 4 175 62 6 22 1 33 -23 58 -28 28 -36 30 -101 30 l-71 0 0 71 c0 65 -2 73
-29 100 -31 30 -52 35 -88 17z"/>
</g>
</svg>
