<svg id="svg" version="1.1" xmlns="http://www.w3.org/2000/svg" xmlns:xlink="http://www.w3.org/1999/xlink" width="400" height="400" viewBox="0, 0, 400,400"><g id="svgg"><path id="path0" d="M178.300 0.274 C 176.375 0.360,174.800 0.604,174.800 0.816 C 174.800 1.027,173.551 1.200,172.024 1.200 C 170.497 1.200,169.136 1.380,169.000 1.600 C 168.864 1.820,167.773 2.000,166.576 2.000 C 165.379 2.000,164.400 2.180,164.400 2.400 C 164.400 2.620,163.410 2.800,162.200 2.800 C 160.990 2.800,160.000 2.980,160.000 3.200 C 160.000 3.420,159.201 3.600,158.224 3.600 C 157.247 3.600,156.336 3.780,156.200 4.000 C 156.064 4.220,155.243 4.400,154.376 4.400 C 153.509 4.400,152.800 4.580,152.800 4.800 C 152.800 5.020,152.080 5.200,151.200 5.200 C 150.320 5.200,149.600 5.380,149.600 5.600 C 149.600 5.820,148.970 6.000,148.200 6.000 C 147.430 6.000,146.800 6.180,146.800 6.400 C 146.800 6.620,146.170 6.800,145.400 6.800 C 144.630 6.800,144.000 6.980,144.000 7.200 C 144.000 7.420,143.370 7.600,142.600 7.600 C 141.830 7.600,141.200 7.780,141.200 8.000 C 141.200 8.220,140.771 8.400,140.246 8.400 C 139.355 8.400,136.018 9.285,134.200 10.003 C 133.760 10.177,132.770 10.536,132.000 10.800 C 130.307 11.382,128.840 11.971,127.905 12.447 C 127.523 12.641,126.848 12.800,126.405 12.800 C 125.962 12.800,125.600 12.980,125.600 13.200 C 125.600 13.420,125.240 13.600,124.800 13.600 C 124.360 13.600,124.000 13.780,124.000 14.000 C 124.000 14.220,123.561 14.400,123.024 14.400 C 122.487 14.400,121.936 14.580,121.800 14.800 C 121.664 15.020,121.203 15.200,120.776 15.200 C 120.349 15.200,120.000 15.380,120.000 15.600 C 120.000 15.820,119.640 16.000,119.200 16.000 C 118.760 16.000,118.400 16.180,118.400 16.400 C 118.400 16.620,118.128 16.800,117.795 16.800 C 117.462 16.800,116.877 16.971,116.495 17.180 C 116.113 17.389,114.180 18.325,112.200 19.261 C 110.220 20.196,108.540 21.105,108.467 21.281 C 108.393 21.456,107.988 21.600,107.567 21.600 C 107.145 21.600,106.800 21.780,106.800 22.000 C 106.800 22.220,106.440 22.400,106.000 22.400 C 105.560 22.400,105.200 22.580,105.200 22.800 C 105.200 23.020,104.930 23.200,104.600 23.200 C 104.270 23.200,104.000 23.380,104.000 23.600 C 104.000 23.820,103.730 24.000,103.400 24.000 C 103.070 24.000,102.800 24.180,102.800 24.400 C 102.800 24.620,102.509 24.800,102.154 24.800 C 101.438 24.800,97.477 26.826,97.267 27.300 C 97.193 27.465,96.956 27.600,96.739 27.600 C 96.522 27.600,95.592 28.118,94.672 28.750 C 93.752 29.383,92.851 29.911,92.670 29.924 C 92.488 29.937,92.017 30.319,91.623 30.774 C 91.229 31.228,90.652 31.600,90.341 31.600 C 90.031 31.600,89.517 31.960,89.200 32.400 C 88.883 32.840,88.343 33.200,88.000 33.200 C 87.657 33.200,87.117 33.560,86.800 34.000 C 86.483 34.440,85.991 34.800,85.708 34.800 C 85.425 34.800,84.628 35.340,83.937 36.000 C 83.246 36.660,82.478 37.200,82.229 37.200 C 81.980 37.200,81.517 37.560,81.200 38.000 C 80.883 38.440,80.415 38.800,80.161 38.800 C 79.907 38.800,78.934 39.520,78.000 40.400 C 77.066 41.280,76.162 42.000,75.993 42.000 C 75.823 42.000,75.107 42.540,74.400 43.200 C 73.693 43.860,72.959 44.400,72.768 44.400 C 72.577 44.400,71.651 45.167,70.711 46.105 C 69.770 47.043,68.370 48.255,67.600 48.799 C 66.830 49.342,64.439 51.590,62.287 53.793 C 57.571 58.623,58.617 57.577,53.700 62.373 C 51.445 64.573,49.600 66.466,49.600 66.581 C 49.600 66.881,48.485 68.197,46.300 70.473 C 45.255 71.562,44.400 72.602,44.400 72.784 C 44.400 72.966,43.860 73.693,43.200 74.400 C 42.540 75.107,42.000 75.823,42.000 75.993 C 42.000 76.162,41.280 77.066,40.400 78.000 C 39.520 78.934,38.800 79.907,38.800 80.161 C 38.800 80.415,38.440 80.883,38.000 81.200 C 37.560 81.517,37.200 81.980,37.200 82.229 C 37.200 82.478,36.660 83.246,36.000 83.937 C 35.340 84.628,34.800 85.425,34.800 85.708 C 34.800 85.991,34.440 86.483,34.000 86.800 C 33.560 87.117,33.200 87.657,33.200 88.000 C 33.200 88.343,32.840 88.883,32.400 89.200 C 31.960 89.517,31.600 90.031,31.600 90.341 C 31.600 90.652,31.284 91.197,30.897 91.553 C 30.511 91.909,29.926 92.740,29.597 93.400 C 29.269 94.060,28.685 94.949,28.300 95.375 C 27.915 95.802,27.600 96.372,27.600 96.642 C 27.600 96.912,27.465 97.193,27.300 97.267 C 26.826 97.477,24.800 101.438,24.800 102.154 C 24.800 102.509,24.620 102.800,24.400 102.800 C 24.180 102.800,24.000 103.070,24.000 103.400 C 24.000 103.730,23.854 104.000,23.675 104.000 C 23.496 104.000,23.102 104.630,22.800 105.400 C 22.498 106.170,22.104 106.800,21.925 106.800 C 21.746 106.800,21.600 107.145,21.600 107.567 C 21.600 107.988,21.463 108.393,21.296 108.467 C 21.129 108.540,20.211 110.220,19.255 112.200 C 18.300 114.180,17.357 116.113,17.159 116.495 C 16.962 116.877,16.800 117.462,16.800 117.795 C 16.800 118.128,16.620 118.400,16.400 118.400 C 16.180 118.400,16.000 118.760,16.000 119.200 C 16.000 119.640,15.853 120.000,15.672 120.000 C 15.492 120.000,15.100 120.900,14.800 122.000 C 14.500 123.100,14.108 124.000,13.928 124.000 C 13.747 124.000,13.600 124.360,13.600 124.800 C 13.600 125.240,13.420 125.600,13.200 125.600 C 12.980 125.600,12.800 125.962,12.800 126.405 C 12.800 126.848,12.641 127.523,12.447 127.905 C 11.971 128.840,11.382 130.307,10.800 132.000 C 10.536 132.770,10.177 133.760,10.003 134.200 C 9.285 136.018,8.400 139.355,8.400 140.246 C 8.400 140.771,8.220 141.200,8.000 141.200 C 7.780 141.200,7.600 141.830,7.600 142.600 C 7.600 143.370,7.420 144.000,7.200 144.000 C 6.980 144.000,6.800 144.529,6.800 145.176 C 6.800 145.823,6.620 146.464,6.400 146.600 C 6.180 146.736,6.000 147.467,6.000 148.224 C 6.000 148.981,5.820 149.600,5.600 149.600 C 5.380 149.600,5.200 150.320,5.200 151.200 C 5.200 152.080,5.020 152.800,4.800 152.800 C 4.580 152.800,4.400 153.509,4.400 154.376 C 4.400 155.243,4.220 156.064,4.000 156.200 C 3.780 156.336,3.600 157.247,3.600 158.224 C 3.600 159.201,3.420 160.000,3.200 160.000 C 2.980 160.000,2.800 160.889,2.800 161.976 C 2.800 163.063,2.620 164.064,2.400 164.200 C 2.180 164.336,2.000 165.416,2.000 166.600 C 2.000 167.784,1.820 168.864,1.600 169.000 C 1.380 169.136,1.200 170.371,1.200 171.744 C 1.200 173.207,0.993 174.447,0.700 174.740 C 0.311 175.129,0.200 180.743,0.200 200.087 C 0.200 219.608,0.307 224.969,0.700 225.100 C 1.035 225.212,1.200 226.171,1.200 228.010 C 1.200 229.518,1.380 230.864,1.600 231.000 C 1.820 231.136,2.000 232.216,2.000 233.400 C 2.000 234.584,2.180 235.664,2.400 235.800 C 2.620 235.936,2.800 236.937,2.800 238.024 C 2.800 239.111,2.980 240.000,3.200 240.000 C 3.420 240.000,3.600 240.799,3.600 241.776 C 3.600 242.753,3.780 243.664,4.000 243.800 C 4.220 243.936,4.400 244.757,4.400 245.624 C 4.400 246.491,4.580 247.200,4.800 247.200 C 5.020 247.200,5.200 247.920,5.200 248.800 C 5.200 249.680,5.380 250.400,5.600 250.400 C 5.820 250.400,6.000 251.019,6.000 251.776 C 6.000 252.533,6.180 253.264,6.400 253.400 C 6.620 253.536,6.800 254.177,6.800 254.824 C 6.800 255.471,6.980 256.000,7.200 256.000 C 7.420 256.000,7.600 256.630,7.600 257.400 C 7.600 258.170,7.780 258.800,8.000 258.800 C 8.220 258.800,8.400 259.229,8.400 259.754 C 8.400 260.778,9.440 264.553,10.037 265.695 C 10.237 266.077,10.400 266.580,10.400 266.814 C 10.400 267.048,10.760 267.984,11.200 268.894 C 11.640 269.805,12.000 270.866,12.000 271.252 C 12.000 271.637,12.180 272.064,12.400 272.200 C 12.620 272.336,12.800 272.887,12.800 273.424 C 12.800 273.961,12.980 274.400,13.200 274.400 C 13.420 274.400,13.600 274.760,13.600 275.200 C 13.600 275.640,13.780 276.000,14.000 276.000 C 14.220 276.000,14.400 276.439,14.400 276.976 C 14.400 277.513,14.580 278.064,14.800 278.200 C 15.020 278.336,15.200 278.797,15.200 279.224 C 15.200 279.651,15.380 280.000,15.600 280.000 C 15.820 280.000,16.000 280.360,16.000 280.800 C 16.000 281.240,16.180 281.600,16.400 281.600 C 16.620 281.600,16.800 281.872,16.800 282.205 C 16.800 282.538,16.961 283.123,17.158 283.505 C 17.355 283.887,18.119 285.460,18.856 287.000 C 19.593 288.540,20.332 289.860,20.498 289.933 C 20.664 290.007,20.800 290.412,20.800 290.833 C 20.800 291.255,20.980 291.600,21.200 291.600 C 21.420 291.600,21.600 291.960,21.600 292.400 C 21.600 292.840,21.780 293.200,22.000 293.200 C 22.220 293.200,22.400 293.478,22.400 293.817 C 22.400 294.156,22.760 294.820,23.200 295.292 C 23.640 295.764,24.000 296.387,24.000 296.675 C 24.000 296.964,24.180 297.200,24.400 297.200 C 24.620 297.200,24.800 297.453,24.800 297.763 C 24.800 298.436,26.863 302.543,27.296 302.733 C 27.463 302.807,27.600 303.034,27.600 303.237 C 27.600 303.441,28.231 304.506,29.003 305.604 C 29.774 306.702,30.287 307.600,30.142 307.600 C 29.996 307.600,30.265 307.936,30.739 308.347 C 31.212 308.758,31.600 309.348,31.600 309.659 C 31.600 309.969,31.960 310.483,32.400 310.800 C 32.840 311.117,33.200 311.657,33.200 312.000 C 33.200 312.343,33.560 312.883,34.000 313.200 C 34.440 313.517,34.800 314.009,34.800 314.292 C 34.800 314.575,35.340 315.372,36.000 316.063 C 36.660 316.754,37.200 317.522,37.200 317.771 C 37.200 318.020,37.560 318.483,38.000 318.800 C 38.440 319.117,38.804 319.562,38.809 319.788 C 38.814 320.015,39.399 320.846,40.109 321.636 C 40.819 322.426,41.760 323.566,42.200 324.169 C 42.640 324.772,43.315 325.638,43.700 326.094 C 44.085 326.549,44.400 327.063,44.400 327.235 C 44.400 327.406,45.255 328.438,46.300 329.527 C 48.412 331.727,49.600 333.118,49.600 333.388 C 49.600 333.486,51.392 335.329,53.581 337.483 C 55.771 339.637,57.745 341.580,57.968 341.800 C 58.192 342.020,60.174 344.045,62.373 346.300 C 64.573 348.555,66.513 350.401,66.686 350.402 C 66.859 350.404,68.256 351.574,69.792 353.002 C 71.327 354.431,72.700 355.600,72.842 355.600 C 72.983 355.600,73.787 356.230,74.628 357.000 C 75.469 357.770,76.281 358.400,76.434 358.400 C 76.587 358.400,77.407 359.026,78.256 359.791 C 79.105 360.556,79.985 361.186,80.212 361.191 C 80.438 361.196,80.883 361.560,81.200 362.000 C 81.517 362.440,81.980 362.800,82.229 362.800 C 82.478 362.800,83.246 363.340,83.937 364.000 C 84.628 364.660,85.425 365.200,85.708 365.200 C 85.991 365.200,86.483 365.560,86.800 366.000 C 87.117 366.440,87.657 366.800,88.000 366.800 C 88.343 366.800,88.883 367.160,89.200 367.600 C 89.517 368.040,90.057 368.400,90.400 368.400 C 90.743 368.400,91.283 368.760,91.600 369.200 C 91.917 369.640,92.329 370.000,92.516 370.000 C 92.703 370.000,93.641 370.540,94.600 371.200 C 95.559 371.860,96.522 372.400,96.739 372.400 C 96.956 372.400,97.193 372.535,97.267 372.700 C 97.477 373.174,101.438 375.200,102.154 375.200 C 102.509 375.200,102.800 375.358,102.800 375.551 C 102.800 375.745,103.340 376.127,104.000 376.400 C 104.660 376.673,105.200 377.055,105.200 377.249 C 105.200 377.442,105.560 377.600,106.000 377.600 C 106.440 377.600,106.800 377.780,106.800 378.000 C 106.800 378.220,107.160 378.400,107.600 378.400 C 108.040 378.400,108.400 378.580,108.400 378.800 C 108.400 379.020,108.745 379.200,109.167 379.200 C 109.588 379.200,109.993 379.335,110.067 379.500 C 110.140 379.665,111.100 380.225,112.200 380.744 C 113.300 381.263,114.513 381.848,114.895 382.044 C 115.277 382.240,115.862 382.400,116.195 382.400 C 116.528 382.400,116.800 382.580,116.800 382.800 C 116.800 383.020,117.160 383.200,117.600 383.200 C 118.040 383.200,118.400 383.380,118.400 383.600 C 118.400 383.820,118.760 384.000,119.200 384.000 C 119.640 384.000,120.000 384.180,120.000 384.400 C 120.000 384.620,120.349 384.800,120.776 384.800 C 121.203 384.800,121.664 384.980,121.800 385.200 C 121.936 385.420,122.487 385.600,123.024 385.600 C 123.561 385.600,124.000 385.780,124.000 386.000 C 124.000 386.220,124.272 386.400,124.604 386.400 C 124.937 386.400,126.062 386.778,127.104 387.240 C 129.463 388.285,130.235 388.594,132.000 389.200 C 132.770 389.464,133.760 389.823,134.200 389.997 C 136.159 390.771,139.390 391.600,140.446 391.600 C 141.081 391.600,141.600 391.780,141.600 392.000 C 141.600 392.220,142.140 392.400,142.800 392.400 C 143.460 392.400,144.000 392.580,144.000 392.800 C 144.000 393.020,144.529 393.200,145.176 393.200 C 145.823 393.200,146.464 393.380,146.600 393.600 C 146.736 393.820,147.467 394.000,148.224 394.000 C 148.981 394.000,149.600 394.180,149.600 394.400 C 149.600 394.620,150.320 394.800,151.200 394.800 C 152.080 394.800,152.800 394.980,152.800 395.200 C 152.800 395.420,153.509 395.600,154.376 395.600 C 155.243 395.600,156.064 395.780,156.200 396.000 C 156.336 396.220,157.247 396.400,158.224 396.400 C 159.201 396.400,160.000 396.580,160.000 396.800 C 160.000 397.020,160.990 397.200,162.200 397.200 C 163.410 397.200,164.400 397.380,164.400 397.600 C 164.400 397.820,165.379 398.000,166.576 398.000 C 167.773 398.000,168.864 398.180,169.000 398.400 C 169.136 398.620,170.482 398.800,171.990 398.800 C 173.829 398.800,174.788 398.965,174.900 399.300 C 175.143 400.031,224.129 400.031,224.860 399.300 C 225.161 398.999,226.433 398.800,228.056 398.800 C 229.539 398.800,230.864 398.620,231.000 398.400 C 231.136 398.180,232.227 398.000,233.424 398.000 C 234.621 398.000,235.600 397.820,235.600 397.600 C 235.600 397.380,236.590 397.200,237.800 397.200 C 239.010 397.200,240.000 397.020,240.000 396.800 C 240.000 396.580,240.709 396.400,241.576 396.400 C 242.443 396.400,243.264 396.220,243.400 396.000 C 243.536 395.780,244.447 395.600,245.424 395.600 C 246.401 395.600,247.200 395.420,247.200 395.200 C 247.200 394.980,247.920 394.800,248.800 394.800 C 249.680 394.800,250.400 394.620,250.400 394.400 C 250.400 394.180,251.030 394.000,251.800 394.000 C 252.570 394.000,253.200 393.820,253.200 393.600 C 253.200 393.380,253.830 393.200,254.600 393.200 C 255.370 393.200,256.000 393.020,256.000 392.800 C 256.000 392.580,256.630 392.400,257.400 392.400 C 258.170 392.400,258.800 392.220,258.800 392.000 C 258.800 391.780,259.205 391.603,259.700 391.607 C 260.792 391.616,269.746 388.722,269.933 388.300 C 270.007 388.135,270.414 388.000,270.839 388.000 C 271.585 388.000,271.976 387.855,273.895 386.862 C 274.387 386.608,275.062 386.400,275.395 386.400 C 275.728 386.400,276.000 386.220,276.000 386.000 C 276.000 385.780,276.355 385.600,276.788 385.600 C 277.221 385.600,278.217 385.240,279.000 384.800 C 279.783 384.360,280.689 384.000,281.012 384.000 C 281.335 384.000,281.600 383.820,281.600 383.600 C 281.600 383.380,281.872 383.200,282.205 383.200 C 282.538 383.200,283.123 383.032,283.505 382.826 C 283.887 382.621,284.785 382.217,285.500 381.929 C 286.215 381.640,286.800 381.269,286.800 381.102 C 286.800 380.936,287.034 380.800,287.320 380.800 C 288.056 380.800,289.993 379.859,289.997 379.500 C 289.999 379.335,290.360 379.200,290.800 379.200 C 291.240 379.200,291.600 379.020,291.600 378.800 C 291.600 378.580,291.960 378.400,292.400 378.400 C 292.840 378.400,293.200 378.220,293.200 378.000 C 293.200 377.780,293.520 377.600,293.912 377.600 C 294.303 377.600,294.883 377.240,295.200 376.800 C 295.517 376.360,296.097 376.000,296.488 376.000 C 296.880 376.000,297.200 375.820,297.200 375.600 C 297.200 375.380,297.464 375.200,297.786 375.200 C 298.599 375.200,301.200 373.924,301.200 373.526 C 301.200 373.347,301.399 373.200,301.642 373.200 C 301.885 373.200,302.884 372.660,303.862 372.000 C 304.840 371.340,305.811 370.800,306.020 370.800 C 306.229 370.800,306.400 370.620,306.400 370.400 C 306.400 370.180,306.636 370.000,306.925 370.000 C 307.213 370.000,307.798 369.685,308.225 369.300 C 308.651 368.915,309.495 368.345,310.100 368.032 C 310.705 367.720,311.200 367.315,311.200 367.132 C 311.200 366.950,311.436 366.800,311.725 366.800 C 312.013 366.800,312.636 366.440,313.108 366.000 C 313.580 365.560,314.127 365.200,314.324 365.200 C 314.521 365.200,315.206 364.705,315.848 364.100 C 316.489 363.495,317.506 362.745,318.107 362.432 C 318.708 362.120,319.200 361.715,319.200 361.532 C 319.200 361.350,319.425 361.196,319.700 361.191 C 319.975 361.186,320.895 360.556,321.744 359.791 C 322.593 359.026,323.413 358.400,323.566 358.400 C 323.719 358.400,324.497 357.815,325.296 357.100 C 326.095 356.385,327.334 355.350,328.050 354.800 C 328.767 354.250,329.724 353.440,330.178 353.000 C 330.631 352.560,331.991 351.390,333.199 350.400 C 334.407 349.410,336.796 347.160,338.509 345.400 C 340.221 343.640,341.809 342.020,342.036 341.800 C 346.144 337.823,350.317 333.525,351.146 332.416 C 351.726 331.640,352.560 330.634,353.000 330.179 C 353.440 329.724,354.250 328.767,354.800 328.050 C 355.350 327.334,356.385 326.095,357.100 325.296 C 357.815 324.497,358.400 323.719,358.400 323.566 C 358.400 323.413,359.026 322.593,359.791 321.744 C 360.556 320.895,361.186 319.975,361.191 319.700 C 361.196 319.425,361.350 319.200,361.532 319.200 C 361.715 319.200,362.120 318.705,362.432 318.100 C 362.745 317.495,363.495 316.523,364.100 315.940 C 364.705 315.356,365.200 314.591,365.200 314.240 C 365.200 313.888,365.350 313.600,365.532 313.600 C 365.715 313.600,366.119 313.105,366.430 312.500 C 366.740 311.895,367.311 311.109,367.697 310.753 C 368.084 310.397,368.400 309.895,368.400 309.636 C 368.400 309.378,368.736 308.806,369.146 308.366 C 369.557 307.925,370.305 306.763,370.809 305.782 C 371.313 304.802,371.844 304.000,371.988 304.000 C 372.133 304.000,372.498 303.370,372.800 302.600 C 373.102 301.830,373.462 301.200,373.601 301.200 C 373.934 301.200,375.200 298.524,375.200 297.820 C 375.200 297.516,375.335 297.207,375.500 297.133 C 375.876 296.966,377.175 294.836,377.471 293.900 C 377.593 293.515,377.852 293.200,378.047 293.200 C 378.241 293.200,378.400 292.840,378.400 292.400 C 378.400 291.960,378.580 291.600,378.800 291.600 C 379.020 291.600,379.200 291.255,379.200 290.833 C 379.200 290.412,379.335 290.007,379.500 289.933 C 379.665 289.860,380.225 288.900,380.744 287.800 C 381.263 286.700,381.848 285.487,382.044 285.105 C 382.240 284.723,382.400 284.138,382.400 283.805 C 382.400 283.472,382.580 283.200,382.800 283.200 C 383.020 283.200,383.200 282.840,383.200 282.400 C 383.200 281.960,383.380 281.600,383.600 281.600 C 383.820 281.600,384.000 281.364,384.000 281.075 C 384.000 280.786,384.360 279.805,384.800 278.894 C 385.240 277.984,385.600 276.960,385.600 276.619 C 385.600 276.279,385.780 276.000,386.000 276.000 C 386.220 276.000,386.400 275.728,386.400 275.395 C 386.400 275.062,386.580 274.432,386.800 273.995 C 387.020 273.558,387.380 272.842,387.600 272.405 C 387.820 271.968,388.000 271.263,388.000 270.839 C 388.000 270.414,388.139 270.007,388.308 269.933 C 388.732 269.750,391.611 260.813,391.605 259.700 C 391.602 259.205,391.780 258.800,392.000 258.800 C 392.220 258.800,392.400 258.170,392.400 257.400 C 392.400 256.630,392.580 256.000,392.800 256.000 C 393.020 256.000,393.200 255.381,393.200 254.624 C 393.200 253.867,393.380 253.136,393.600 253.000 C 393.820 252.864,394.000 252.223,394.000 251.576 C 394.000 250.929,394.180 250.400,394.400 250.400 C 394.620 250.400,394.800 249.680,394.800 248.800 C 394.800 247.920,394.980 247.200,395.200 247.200 C 395.420 247.200,395.600 246.300,395.600 245.200 C 395.600 244.100,395.780 243.200,396.000 243.200 C 396.220 243.200,396.400 242.480,396.400 241.600 C 396.400 240.720,396.580 240.000,396.800 240.000 C 397.020 240.000,397.200 239.010,397.200 237.800 C 397.200 236.590,397.380 235.600,397.600 235.600 C 397.820 235.600,398.000 234.621,398.000 233.424 C 398.000 232.227,398.180 231.136,398.400 231.000 C 398.620 230.864,398.800 229.539,398.800 228.056 C 398.800 226.433,398.999 225.161,399.300 224.860 C 399.689 224.471,399.800 218.897,399.800 199.713 C 399.800 180.352,399.693 175.031,399.300 174.900 C 398.965 174.788,398.800 173.829,398.800 171.990 C 398.800 170.482,398.620 169.136,398.400 169.000 C 398.180 168.864,398.000 167.773,398.000 166.576 C 398.000 165.379,397.820 164.400,397.600 164.400 C 397.380 164.400,397.200 163.410,397.200 162.200 C 397.200 160.990,397.020 160.000,396.800 160.000 C 396.580 160.000,396.400 159.280,396.400 158.400 C 396.400 157.520,396.220 156.800,396.000 156.800 C 395.780 156.800,395.600 155.900,395.600 154.800 C 395.600 153.700,395.420 152.800,395.200 152.800 C 394.980 152.800,394.800 152.181,394.800 151.424 C 394.800 150.667,394.620 149.936,394.400 149.800 C 394.180 149.664,394.000 148.944,394.000 148.200 C 394.000 147.456,393.820 146.736,393.600 146.600 C 393.380 146.464,393.200 145.924,393.200 145.400 C 393.200 144.876,393.020 144.336,392.800 144.200 C 392.580 144.064,392.400 143.333,392.400 142.576 C 392.400 141.819,392.220 141.200,392.000 141.200 C 391.780 141.200,391.600 140.752,391.600 140.204 C 391.600 139.207,389.884 133.616,389.175 132.305 C 388.969 131.923,388.800 131.248,388.800 130.805 C 388.800 130.362,388.620 130.000,388.400 130.000 C 388.180 130.000,388.000 129.674,388.000 129.275 C 388.000 128.876,387.640 127.805,387.200 126.894 C 386.760 125.984,386.400 124.960,386.400 124.619 C 386.400 124.279,386.220 124.000,386.000 124.000 C 385.780 124.000,385.600 123.561,385.600 123.024 C 385.600 122.487,385.420 121.936,385.200 121.800 C 384.980 121.664,384.800 121.203,384.800 120.776 C 384.800 120.349,384.620 120.000,384.400 120.000 C 384.180 120.000,384.000 119.640,384.000 119.200 C 384.000 118.760,383.820 118.400,383.600 118.400 C 383.380 118.400,383.200 118.040,383.200 117.600 C 383.200 117.160,383.020 116.800,382.800 116.800 C 382.580 116.800,382.400 116.350,382.400 115.800 C 382.400 115.250,382.220 114.800,382.000 114.800 C 381.780 114.800,381.600 114.440,381.600 114.000 C 381.600 113.560,381.420 113.200,381.200 113.200 C 380.980 113.200,380.800 112.966,380.800 112.680 C 380.800 111.944,379.859 110.007,379.500 110.003 C 379.335 110.001,379.200 109.640,379.200 109.200 C 379.200 108.760,379.020 108.400,378.800 108.400 C 378.580 108.400,378.400 108.040,378.400 107.600 C 378.400 107.160,378.265 106.797,378.100 106.794 C 377.935 106.790,377.360 105.890,376.821 104.794 C 376.283 103.697,375.698 102.800,375.521 102.800 C 375.345 102.800,375.200 102.509,375.200 102.154 C 375.200 101.581,373.329 97.716,372.802 97.200 C 372.455 96.860,370.000 92.760,370.000 92.520 C 370.000 92.396,369.684 92.003,369.297 91.647 C 368.911 91.291,368.340 90.505,368.030 89.900 C 367.719 89.295,367.315 88.800,367.132 88.800 C 366.950 88.800,366.800 88.480,366.800 88.088 C 366.800 87.697,366.440 87.117,366.000 86.800 C 365.560 86.483,365.200 85.991,365.200 85.708 C 365.200 85.425,364.660 84.628,364.000 83.937 C 363.340 83.246,362.800 82.478,362.800 82.229 C 362.800 81.980,362.440 81.517,362.000 81.200 C 361.560 80.883,361.200 80.485,361.200 80.316 C 361.200 80.023,360.981 79.732,358.900 77.266 C 358.406 76.680,358.001 76.084,358.000 75.942 C 358.000 75.801,357.460 75.107,356.800 74.400 C 356.140 73.693,355.596 72.999,355.591 72.858 C 355.586 72.716,354.418 71.340,352.995 69.800 C 351.572 68.260,350.406 66.873,350.404 66.717 C 350.401 66.484,348.271 64.319,341.919 58.092 C 341.633 57.812,339.545 55.697,337.277 53.392 C 335.009 51.086,333.012 49.200,332.839 49.200 C 332.666 49.200,331.502 48.210,330.253 47.000 C 329.004 45.790,327.851 44.800,327.691 44.800 C 327.427 44.799,326.893 44.380,324.097 41.976 C 323.600 41.549,323.096 41.200,322.975 41.200 C 322.855 41.200,322.181 40.661,321.478 40.002 C 320.775 39.343,320.015 38.803,319.788 38.802 C 319.562 38.801,319.117 38.440,318.800 38.000 C 318.483 37.560,318.020 37.200,317.771 37.200 C 317.522 37.200,316.754 36.660,316.063 36.000 C 315.372 35.340,314.575 34.800,314.292 34.800 C 314.009 34.800,313.517 34.440,313.200 34.000 C 312.883 33.560,312.343 33.200,312.000 33.200 C 311.657 33.200,311.117 32.840,310.800 32.400 C 310.483 31.960,309.943 31.600,309.600 31.600 C 309.257 31.600,308.717 31.240,308.400 30.800 C 308.083 30.360,307.518 30.000,307.145 30.000 C 306.772 30.000,306.407 29.858,306.333 29.684 C 306.158 29.269,302.102 26.800,301.594 26.800 C 301.377 26.800,301.200 26.655,301.200 26.477 C 301.200 26.132,298.420 24.800,297.699 24.800 C 297.461 24.800,297.207 24.665,297.133 24.500 C 296.966 24.124,294.836 22.825,293.900 22.529 C 293.515 22.407,293.200 22.148,293.200 21.953 C 293.200 21.759,292.840 21.600,292.400 21.600 C 291.960 21.600,291.600 21.420,291.600 21.200 C 291.600 20.980,291.240 20.800,290.800 20.800 C 290.360 20.800,289.999 20.665,289.997 20.500 C 289.993 20.141,288.056 19.200,287.320 19.200 C 287.034 19.200,286.799 19.065,286.797 18.900 C 286.793 18.494,284.814 17.600,283.920 17.600 C 283.524 17.600,283.200 17.420,283.200 17.200 C 283.200 16.980,282.840 16.800,282.400 16.800 C 281.960 16.800,281.600 16.620,281.600 16.400 C 281.600 16.180,281.240 16.000,280.800 16.000 C 280.360 16.000,280.000 15.820,280.000 15.600 C 280.000 15.380,279.651 15.200,279.224 15.200 C 278.797 15.200,278.336 15.020,278.200 14.800 C 278.064 14.580,277.513 14.400,276.976 14.400 C 276.439 14.400,276.000 14.220,276.000 14.000 C 276.000 13.780,275.640 13.600,275.200 13.600 C 274.760 13.600,274.400 13.409,274.400 13.176 C 274.400 12.943,274.252 12.844,274.071 12.956 C 273.891 13.068,273.240 12.898,272.626 12.580 C 272.011 12.261,271.205 12.000,270.834 12.000 C 270.463 12.000,269.989 11.835,269.780 11.633 C 269.206 11.079,260.931 8.400,259.794 8.400 C 259.247 8.400,258.800 8.220,258.800 8.000 C 258.800 7.780,258.181 7.600,257.424 7.600 C 256.667 7.600,255.936 7.420,255.800 7.200 C 255.664 6.980,255.124 6.800,254.600 6.800 C 254.076 6.800,253.536 6.620,253.400 6.400 C 253.264 6.180,252.533 6.000,251.776 6.000 C 251.019 6.000,250.400 5.820,250.400 5.600 C 250.400 5.380,249.680 5.200,248.800 5.200 C 247.920 5.200,247.200 5.020,247.200 4.800 C 247.200 4.580,246.300 4.400,245.200 4.400 C 244.100 4.400,243.200 4.220,243.200 4.000 C 243.200 3.780,242.480 3.600,241.600 3.600 C 240.720 3.600,240.000 3.420,240.000 3.200 C 240.000 2.980,239.111 2.800,238.024 2.800 C 236.937 2.800,235.936 2.620,235.800 2.400 C 235.664 2.180,234.483 2.000,233.176 2.000 C 231.859 2.000,230.800 1.822,230.800 1.600 C 230.800 1.372,229.611 1.200,228.033 1.200 C 226.215 1.200,225.211 1.033,225.104 0.713 C 224.944 0.232,187.144 -0.123,178.300 0.274 M123.000 106.568 C 127.767 107.412,134.826 110.121,136.512 111.754 C 136.780 112.014,137.630 112.657,138.400 113.184 C 142.046 115.677,146.578 121.121,148.901 125.800 C 152.115 132.274,152.459 134.834,152.319 151.200 L 152.200 165.000 140.600 165.000 L 129.000 165.000 128.784 152.200 C 128.665 145.160,128.422 138.950,128.244 138.400 C 125.189 128.960,112.951 127.013,107.766 135.143 C 105.945 137.998,105.867 138.621,105.626 152.200 L 105.400 165.000 93.800 165.000 L 82.200 165.000 82.086 151.000 C 81.979 137.823,82.023 136.788,82.835 133.400 C 85.353 122.882,92.619 113.941,102.400 109.324 C 108.620 106.388,116.231 105.369,123.000 106.568 M288.869 106.432 C 292.811 107.231,294.457 107.778,298.800 109.729 C 305.686 112.823,313.682 121.827,316.175 129.294 C 318.156 135.226,318.178 135.463,318.189 150.600 L 318.200 165.000 306.400 165.000 L 294.600 165.000 294.353 152.400 C 294.069 137.914,294.024 137.574,292.059 134.974 C 289.693 131.845,287.761 130.756,283.469 130.132 C 279.945 129.621,274.603 132.612,272.932 136.032 C 271.492 138.979,271.451 139.372,271.222 152.400 L 271.000 165.000 259.400 165.000 L 247.800 165.000 247.693 150.800 C 247.581 136.000,247.744 134.021,249.451 129.491 C 252.797 120.606,259.041 113.634,267.081 109.802 C 271.386 107.750,271.954 107.551,276.600 106.459 C 278.844 105.931,286.320 105.915,288.869 106.432 M318.000 204.184 C 318.000 208.115,317.839 209.874,316.754 217.800 C 316.282 221.249,316.079 222.284,314.793 227.800 C 307.824 257.692,286.194 286.968,260.300 301.555 C 259.475 302.020,258.125 302.783,257.300 303.251 C 248.876 308.028,235.067 313.359,227.000 314.948 C 226.340 315.078,224.630 315.434,223.200 315.739 C 217.401 316.977,208.354 318.001,203.223 318.001 C 196.159 318.000,184.897 317.040,179.200 315.954 C 173.060 314.784,164.542 312.552,161.000 311.187 C 160.560 311.017,159.120 310.469,157.800 309.970 C 149.258 306.738,135.915 299.510,130.838 295.365 C 130.487 295.079,129.263 294.150,128.118 293.303 C 104.962 276.158,88.311 248.118,83.403 218.000 C 82.920 215.039,82.002 204.884,82.001 202.500 L 82.000 200.000 200.000 200.000 L 318.000 200.000 318.000 204.184 " stroke="none" fill="#fbc344" fill-rule="evenodd"></path><path id="path1" d="M114.600 106.603 C 114.380 106.707,113.120 106.963,111.800 107.174 C 108.515 107.696,107.157 107.996,106.100 108.430 C 105.605 108.634,104.795 108.956,104.300 109.146 C 95.916 112.374,88.125 120.217,84.861 128.717 C 82.716 134.301,82.400 137.260,82.400 151.731 L 82.400 164.800 93.800 164.800 L 105.200 164.800 105.206 152.100 C 105.212 139.088,105.285 138.361,106.886 135.376 C 111.117 127.485,123.806 127.787,127.744 135.872 C 128.154 136.712,128.649 137.713,128.844 138.095 C 129.040 138.477,129.200 144.642,129.200 151.795 L 129.200 164.800 140.630 164.800 L 152.061 164.800 151.901 150.100 C 151.715 132.914,151.169 130.126,146.526 122.627 C 143.069 117.042,132.638 108.800,129.028 108.800 C 128.709 108.800,128.336 108.620,128.200 108.400 C 128.064 108.180,127.434 108.000,126.800 108.000 C 126.166 108.000,125.550 107.843,125.431 107.650 C 125.106 107.125,115.470 106.193,114.600 106.603 M277.600 106.856 C 268.750 108.794,264.003 111.199,258.478 116.546 C 254.119 120.765,251.630 124.765,249.485 131.000 L 248.246 134.600 248.090 149.700 L 247.934 164.800 259.367 164.800 L 270.800 164.800 270.800 152.673 C 270.800 142.771,270.916 140.154,271.434 138.411 C 274.806 127.055,289.820 126.503,294.029 137.581 C 294.731 139.427,294.800 140.738,294.800 152.210 L 294.800 164.812 306.300 164.706 L 317.800 164.600 317.922 153.400 C 318.042 142.272,317.691 136.744,316.601 132.600 C 313.561 121.047,303.790 110.914,292.800 107.915 C 288.222 106.666,280.822 106.151,277.600 106.856 " stroke="none" fill="#20303f" fill-rule="evenodd"></path><path id="path2" d="M82.001 202.500 C 82.013 236.023,100.851 273.115,128.118 293.303 C 129.263 294.150,130.487 295.079,130.838 295.365 C 135.915 299.510,149.258 306.738,157.800 309.970 C 159.120 310.469,160.560 311.017,161.000 311.187 C 164.542 312.552,173.060 314.784,179.200 315.954 C 184.897 317.040,196.159 318.000,203.223 318.001 C 208.354 318.001,217.401 316.977,223.200 315.739 C 224.630 315.434,226.340 315.078,227.000 314.948 C 235.067 313.359,248.876 308.028,257.300 303.251 C 258.125 302.783,259.475 302.020,260.300 301.555 C 262.944 300.065,270.482 294.774,274.400 291.658 C 279.882 287.297,293.089 273.891,290.057 275.765 C 289.825 275.908,287.062 273.448,283.917 270.297 C 280.773 267.146,277.658 264.126,276.996 263.584 C 272.953 260.279,271.450 259.123,268.400 256.972 C 264.684 254.352,260.508 251.600,260.247 251.600 C 260.156 251.600,258.938 250.915,257.541 250.078 C 249.567 245.300,236.750 240.374,226.200 238.032 C 218.384 236.297,209.815 235.221,203.700 235.208 L 200.000 235.200 200.000 217.600 L 200.000 200.000 141.000 200.000 L 82.000 200.000 82.001 202.500 " stroke="none" fill="#ea3b81" fill-rule="evenodd"></path><path id="path3" d="M200.000 217.600 L 200.000 235.200 203.700 235.208 C 220.507 235.244,243.280 241.534,257.541 250.078 C 258.938 250.915,260.156 251.600,260.247 251.600 C 260.508 251.600,264.684 254.352,268.400 256.972 C 271.450 259.123,272.953 260.279,276.996 263.584 C 277.658 264.126,280.781 267.154,283.935 270.315 C 290.593 276.987,289.533 276.912,293.960 271.020 C 302.147 260.124,309.406 246.116,312.418 235.400 C 312.603 234.740,312.945 233.525,313.177 232.700 C 314.370 228.465,314.566 227.641,315.718 222.000 C 316.891 216.254,318.330 201.837,317.854 200.596 C 317.653 200.072,310.560 200.000,258.813 200.000 L 200.000 200.000 200.000 217.600 " stroke="none" fill="#942c7b" fill-rule="evenodd"></path><path id="path4" d="M111.200 106.613 C 96.679 109.534,86.174 119.454,82.835 133.400 C 82.023 136.788,81.979 137.823,82.086 151.000 L 82.200 165.000 93.800 165.000 L 105.400 165.000 105.626 152.200 C 105.867 138.621,105.945 137.998,107.766 135.143 C 112.951 127.013,125.189 128.960,128.244 138.400 C 128.422 138.950,128.665 145.160,128.784 152.200 L 129.000 165.000 140.600 165.000 L 152.200 165.000 152.319 151.200 C 152.459 134.834,152.115 132.274,148.901 125.800 C 146.578 121.121,142.046 115.677,138.400 113.184 C 137.630 112.657,136.780 112.014,136.512 111.754 C 132.409 107.780,118.967 105.050,111.200 106.613 M276.600 106.459 C 271.954 107.551,271.386 107.750,267.081 109.802 C 259.041 113.634,252.797 120.606,249.451 129.491 C 247.744 134.021,247.581 136.000,247.693 150.800 L 247.800 165.000 259.400 165.000 L 271.000 165.000 271.222 152.400 C 271.344 145.470,271.584 139.350,271.756 138.800 C 274.758 129.186,286.073 127.054,292.059 134.974 C 294.024 137.574,294.069 137.914,294.353 152.400 L 294.600 165.000 306.400 165.000 L 318.200 165.000 318.189 150.600 C 318.178 135.463,318.156 135.226,316.175 129.294 C 313.682 121.827,305.686 112.823,298.800 109.729 C 294.457 107.778,292.811 107.231,288.869 106.432 C 286.320 105.915,278.844 105.931,276.600 106.459 M122.907 107.046 C 124.176 107.186,125.312 107.458,125.431 107.650 C 125.550 107.843,126.166 108.000,126.800 108.000 C 127.434 108.000,128.064 108.180,128.200 108.400 C 128.336 108.620,128.709 108.800,129.028 108.800 C 132.638 108.800,143.069 117.042,146.526 122.627 C 151.169 130.126,151.715 132.914,151.901 150.100 L 152.061 164.800 140.630 164.800 L 129.200 164.800 129.200 151.795 C 129.200 144.642,129.040 138.477,128.844 138.095 C 128.649 137.713,128.154 136.712,127.744 135.872 C 123.806 127.787,111.117 127.485,106.886 135.376 C 105.285 138.361,105.212 139.088,105.206 152.100 L 105.200 164.800 93.800 164.800 L 82.400 164.800 82.400 151.731 C 82.400 137.260,82.716 134.301,84.861 128.717 C 88.125 120.217,95.916 112.374,104.300 109.146 C 104.795 108.956,105.605 108.634,106.100 108.430 C 107.157 107.996,108.515 107.696,111.800 107.174 C 113.120 106.963,114.380 106.707,114.600 106.603 C 115.021 106.405,119.019 106.618,122.907 107.046 M289.400 107.136 C 302.646 109.766,313.190 119.637,316.601 132.600 C 317.691 136.744,318.042 142.272,317.922 153.400 L 317.800 164.600 306.300 164.706 L 294.800 164.812 294.800 152.210 C 294.800 140.738,294.731 139.427,294.029 137.581 C 289.820 126.503,274.806 127.055,271.434 138.411 C 270.916 140.154,270.800 142.771,270.800 152.673 L 270.800 164.800 259.367 164.800 L 247.934 164.800 248.090 149.700 L 248.246 134.600 249.485 131.000 C 251.630 124.765,254.119 120.765,258.478 116.546 C 264.003 111.199,268.750 108.794,277.600 106.856 C 279.691 106.398,286.497 106.560,289.400 107.136 M317.664 207.400 C 317.623 208.280,317.496 209.450,317.383 210.000 L 317.177 211.000 317.608 210.014 C 317.844 209.472,317.971 208.302,317.889 207.414 L 317.740 205.800 317.664 207.400 M316.600 216.800 C 316.448 217.491,316.407 218.141,316.509 218.242 C 316.611 218.344,316.809 217.853,316.950 217.150 C 317.091 216.447,317.131 215.798,317.041 215.708 C 316.950 215.617,316.752 216.109,316.600 216.800 M311.667 237.580 C 311.433 238.251,311.327 238.800,311.431 238.800 C 311.701 238.800,312.456 236.722,312.257 236.524 C 312.167 236.433,311.901 236.908,311.667 237.580 M309.036 244.742 C 308.594 245.458,307.966 247.382,308.299 247.000 C 308.740 246.494,309.639 244.400,309.415 244.400 C 309.323 244.400,309.152 244.554,309.036 244.742 M291.987 273.616 C 291.058 274.725,290.366 275.691,290.449 275.763 C 290.532 275.834,291.374 274.927,292.319 273.747 C 294.495 271.029,294.237 270.928,291.987 273.616 " stroke="none" fill="#968043" fill-rule="evenodd"></path></g></svg>