<?xml version="1.0" standalone="no"?>
<!DOCTYPE svg PUBLIC "-//W3C//DTD SVG 20010904//EN"
 "http://www.w3.org/TR/2001/REC-SVG-20010904/DTD/svg10.dtd">
<svg version="1.0" xmlns="http://www.w3.org/2000/svg"
 width="512.000000pt" height="512.000000pt" viewBox="0 0 512.000000 512.000000"
 preserveAspectRatio="xMidYMid meet">

<g transform="translate(0.000000,512.000000) scale(0.100000,-0.100000)"
fill="#000000" stroke="none">
<path d="M176 5100 c-100 -39 -176 -149 -176 -255 0 -99 73 -213 162 -249 31
-13 38 -22 43 -53 33 -214 123 -392 266 -529 110 -104 215 -164 366 -211 l88
-27 495 -6 495 -6 100 -27 c96 -26 253 -96 305 -137 l25 -19 -41 -35 c-79 -68
-134 -185 -134 -287 0 -107 66 -237 151 -299 76 -55 139 -71 297 -77 163 -7
148 5 155 -124 3 -59 10 -87 33 -128 31 -58 81 -105 130 -123 l32 -11 4 -106
c3 -84 9 -115 26 -147 34 -66 69 -101 130 -131 l57 -28 660 0 660 0 57 28 c61
30 96 65 130 131 17 32 23 63 26 147 l4 106 32 11 c49 18 99 65 131 123 l30
54 3 548 3 547 37 15 c56 24 119 92 142 153 19 49 20 78 20 397 0 212 -4 364
-11 397 -37 178 -189 330 -367 367 -38 8 -697 11 -2285 11 -2179 -1 -2233 -1
-2281 -20z m4596 -157 c66 -30 133 -96 165 -162 l28 -56 3 -350 c3 -393 2
-402 -68 -438 -32 -16 -65 -17 -415 -14 -420 4 -431 6 -603 74 l-93 36 -27
-20 c-97 -72 -19 -147 218 -211 92 -25 107 -26 443 -30 l347 -4 0 -514 c0
-560 1 -548 -56 -593 -27 -21 -30 -21 -869 -21 l-842 0 -28 22 c-38 30 -55 76
-55 152 l0 64 253 4 c234 3 256 5 309 27 81 31 160 106 200 189 30 61 33 74
33 162 0 82 -4 103 -27 152 -53 113 -158 195 -277 218 -31 6 -231 10 -472 10
l-418 0 -70 53 c-206 155 -437 227 -730 227 l-146 0 50 42 c168 142 270 312
311 522 l17 88 416 -5 c453 -4 458 -5 621 -67 152 -59 279 -158 411 -321 44
-54 89 -105 101 -113 53 -38 122 -5 122 58 0 29 -8 45 -41 79 -22 23 -68 76
-102 117 -149 181 -341 304 -581 371 l-85 24 -1290 5 c-1229 5 -1292 6 -1319
23 -54 36 -68 116 -30 175 36 54 -101 52 2314 49 l2235 -2 47 -22z m-2985
-422 c-8 -67 -48 -180 -89 -249 -42 -73 -177 -208 -250 -250 -294 -173 -678
-117 -907 133 -93 103 -164 248 -178 367 l-6 48 718 0 718 0 -6 -49z m1681
-1073 c131 -87 131 -289 0 -376 l-42 -27 -481 0 -482 0 -42 29 c-128 89 -130
283 -4 368 21 14 45 28 53 31 8 3 227 5 486 4 l470 -2 42 -27z m1102 -1039 c0
-83 -17 -127 -59 -152 -27 -16 -84 -17 -666 -17 -582 0 -639 1 -666 17 -42 25
-59 69 -59 152 l0 71 725 0 725 0 0 -71z"/>
<path d="M4345 4806 c-111 -35 -190 -104 -239 -206 -28 -58 -31 -75 -31 -155
0 -80 3 -97 31 -155 17 -36 51 -85 75 -109 24 -24 73 -58 109 -75 58 -28 75
-31 155 -31 80 0 97 3 155 31 83 39 145 101 184 184 28 58 31 75 31 155 0 80
-3 97 -31 155 -33 70 -83 126 -143 165 -82 51 -209 69 -296 41z m204 -166 c74
-38 115 -107 115 -195 0 -129 -90 -218 -219 -218 -88 0 -157 40 -195 113 -100
196 104 400 299 300z"/>
<path d="M552 3004 c-56 -28 -91 -64 -124 -128 -17 -32 -23 -63 -26 -147 l-4
-106 -32 -11 c-49 -18 -99 -65 -131 -123 -29 -52 -30 -60 -33 -196 -4 -141 -4
-142 22 -168 32 -32 75 -33 104 -2 20 21 22 34 22 135 0 125 11 166 55 200
l28 22 842 0 c839 0 842 0 869 -21 42 -33 56 -71 56 -149 l0 -70 -219 0 c-120
0 -243 -5 -272 -10 -119 -23 -224 -105 -277 -218 -23 -49 -27 -70 -27 -152 0
-88 3 -101 33 -162 53 -109 153 -186 271 -208 31 -6 231 -10 472 -10 l418 0
72 -55 c92 -69 249 -147 360 -179 120 -34 217 -46 381 -46 l141 0 -39 -28
c-65 -48 -180 -176 -222 -248 -62 -109 -95 -204 -117 -336 l-6 -38 -369 0
c-207 0 -403 5 -447 11 -167 23 -351 105 -479 215 -30 25 -97 96 -148 157
-170 203 -350 322 -584 385 -94 25 -107 26 -444 30 l-348 4 0 277 c0 277 0
278 -23 299 -31 29 -72 28 -102 -3 l-25 -24 0 -280 0 -281 -37 -15 c-57 -24
-120 -91 -143 -153 -19 -49 -20 -78 -20 -397 0 -212 4 -364 11 -397 37 -178
189 -330 367 -367 38 -8 698 -11 2282 -11 2201 0 2230 0 2282 20 101 37 178
148 178 255 0 99 -73 213 -162 249 -31 13 -38 22 -43 53 -33 214 -123 392
-266 529 -110 104 -215 164 -366 211 l-88 27 -495 6 c-493 6 -495 7 -593 33
-95 25 -256 97 -307 136 l-25 20 41 35 c79 68 134 185 134 287 0 107 -66 237
-151 299 -79 57 -134 70 -294 70 l-144 0 -5 33 c-3 17 -7 64 -9 103 -6 113
-73 213 -163 246 l-32 11 -4 106 c-3 84 -9 115 -26 147 -33 64 -68 100 -124
128 l-52 26 -671 0 -671 0 -52 -26z m1387 -139 c41 -21 61 -71 61 -154 l0 -71
-725 0 -725 0 0 71 c0 81 17 126 58 151 25 16 82 17 665 18 539 0 642 -2 666
-15z m759 -817 c131 -87 131 -289 0 -376 l-42 -27 -481 0 -482 0 -42 29 c-128
89 -130 283 -4 368 21 14 45 28 53 31 8 3 227 5 486 4 l470 -2 42 -27z m-1677
-863 c257 -45 425 -149 618 -385 151 -184 336 -301 591 -373 74 -21 86 -22
1367 -27 l1292 -5 28 -21 c15 -12 34 -38 42 -59 13 -32 13 -43 0 -78 -8 -22
-27 -50 -42 -61 l-28 -21 -2247 0 -2247 0 -47 22 c-66 30 -133 96 -165 162
l-28 56 -3 350 c-2 319 -1 353 15 385 35 68 46 70 429 70 255 0 362 -4 425
-15z m3224 -16 c195 -60 349 -186 439 -359 38 -73 76 -188 76 -231 l0 -29
-715 0 -715 0 0 29 c0 43 38 158 76 231 103 197 298 339 522 380 77 14 238 4
317 -21z"/>
<path d="M584 1041 c-100 -24 -202 -109 -250 -208 -26 -52 -29 -69 -29 -158 0
-89 3 -106 29 -158 36 -74 109 -147 183 -183 51 -25 70 -28 153 -29 86 0 101
3 160 31 83 39 145 101 184 184 28 58 31 75 31 155 0 80 -3 97 -31 155 -79
165 -257 252 -430 211z m195 -171 c74 -38 115 -107 115 -195 0 -129 -90 -218
-219 -218 -88 0 -157 40 -195 113 -100 196 104 400 299 300z"/>
</g>
</svg>
