<?xml version="1.0" standalone="no"?>
<!DOCTYPE svg PUBLIC "-//W3C//DTD SVG 20010904//EN"
 "http://www.w3.org/TR/2001/REC-SVG-20010904/DTD/svg10.dtd">
<svg version="1.0" xmlns="http://www.w3.org/2000/svg"
 width="512.000000pt" height="512.000000pt" viewBox="0 0 512.000000 512.000000"
 preserveAspectRatio="xMidYMid meet">

<g transform="translate(0.000000,512.000000) scale(0.100000,-0.100000)"
fill="#000000" stroke="none">
<path d="M2370 5114 c-19 -2 -78 -9 -130 -15 -791 -90 -1522 -586 -1924 -1305
-146 -262 -252 -588 -297 -914 -18 -125 -18 -515 0 -640 105 -762 511 -1409
1146 -1826 391 -257 905 -414 1355 -414 l75 0 587 588 c517 516 588 591 588
617 0 60 -54 99 -103 74 -12 -6 -247 -236 -523 -511 l-500 -499 8 83 c23 223
111 531 213 745 276 581 779 1038 1375 1247 170 60 410 114 573 129 37 3 20
-15 -461 -497 -275 -276 -505 -511 -511 -523 -25 -49 14 -103 74 -103 26 0
101 71 617 588 l588 587 0 75 c0 41 -5 127 -11 190 -56 603 -313 1151 -740
1579 -399 398 -879 639 -1449 726 -100 15 -472 28 -550 19z m525 -168 c756
-112 1399 -555 1773 -1221 167 -298 265 -632 298 -1016 l6 -76 -113 -6 c-101
-6 -277 -29 -319 -42 -13 -4 -18 17 -28 133 -15 172 -42 303 -93 457 -243 732
-888 1250 -1661 1334 -487 53 -1003 -95 -1401 -402 -104 -81 -117 -108 -76
-161 32 -41 75 -36 142 19 331 269 806 426 1217 401 833 -51 1506 -616 1683
-1416 25 -111 53 -348 46 -384 -3 -13 -36 -29 -123 -57 -272 -89 -519 -220
-757 -400 l-77 -58 -6 31 c-21 104 -3 134 188 328 191 193 201 211 201 355 0
80 -4 97 -30 148 -37 74 -118 149 -188 175 -28 11 -137 32 -241 46 -205 30
-249 44 -289 98 -14 18 -61 107 -105 198 -94 194 -134 245 -230 292 -59 30
-76 33 -152 33 -76 0 -93 -3 -152 -33 -96 -47 -136 -98 -230 -292 -44 -91 -91
-180 -105 -198 -40 -53 -83 -68 -288 -97 -104 -15 -214 -36 -242 -47 -71 -26
-155 -104 -190 -176 -24 -50 -28 -69 -28 -147 0 -144 10 -161 206 -360 213
-217 204 -191 159 -456 -41 -243 -39 -306 10 -398 38 -72 90 -120 170 -158 46
-23 69 -27 142 -28 l88 0 202 105 c255 131 259 131 423 48 161 -82 155 -75
118 -134 -85 -137 -170 -323 -232 -510 -27 -78 -46 -120 -56 -122 -30 -7 -259
18 -357 38 -972 199 -1606 1158 -1408 2131 56 275 191 563 365 776 55 67 60
110 19 142 -53 41 -80 28 -161 -76 -308 -399 -456 -913 -402 -1401 74 -682
481 -1264 1094 -1563 224 -109 443 -169 693 -191 120 -10 141 -15 137 -28 -12
-40 -36 -216 -42 -313 -4 -66 -11 -111 -17 -113 -19 -7 -286 24 -393 45 -614
126 -1162 490 -1512 1006 -213 313 -337 634 -397 1025 -22 142 -25 488 -5 630
107 777 547 1426 1228 1809 248 139 584 249 863 280 52 6 109 13 125 15 62 9
414 -4 510 -18z m-244 -1362 c48 -24 90 -86 170 -251 134 -277 170 -303 497
-351 174 -26 208 -34 243 -57 45 -29 89 -109 89 -160 0 -81 -15 -104 -181
-267 -129 -126 -164 -167 -186 -214 -32 -71 -40 -168 -20 -274 l13 -75 -80
-89 c-81 -89 -175 -200 -213 -251 l-20 -28 -157 79 -157 79 -90 0 -90 0 -192
-98 c-106 -54 -209 -102 -229 -106 -84 -19 -182 32 -219 113 -25 55 -24 75 12
282 55 321 45 353 -190 583 -165 162 -181 185 -181 266 0 52 44 131 89 161 35
23 69 31 243 56 326 48 365 75 500 354 77 160 118 223 162 246 50 27 135 28
187 2z"/>
<path d="M1885 2845 c-23 -22 -25 -32 -25 -110 0 -78 2 -88 25 -110 31 -32 69
-32 100 0 23 22 25 32 25 110 0 78 -2 88 -25 110 -13 14 -36 25 -50 25 -14 0
-37 -11 -50 -25z"/>
<path d="M3135 2845 c-23 -22 -25 -32 -25 -110 0 -78 2 -88 25 -110 31 -32 69
-32 100 0 23 22 25 32 25 110 0 78 -2 88 -25 110 -13 14 -36 25 -50 25 -14 0
-37 -11 -50 -25z"/>
<path d="M2342 2727 c-46 -49 -16 -109 80 -162 47 -27 63 -30 138 -30 75 0 91
3 138 30 96 52 123 106 81 159 -29 37 -68 34 -130 -9 -74 -50 -121 -47 -192
11 -37 31 -86 32 -115 1z"/>
</g>
</svg>
