<?xml version="1.0" standalone="no"?>
<!DOCTYPE svg PUBLIC "-//W3C//DTD SVG 20010904//EN"
 "http://www.w3.org/TR/2001/REC-SVG-20010904/DTD/svg10.dtd">
<svg version="1.0" xmlns="http://www.w3.org/2000/svg"
 width="512.000000pt" height="512.000000pt" viewBox="0 0 512.000000 512.000000"
 preserveAspectRatio="xMidYMid meet">

<g transform="translate(0.000000,512.000000) scale(0.100000,-0.100000)"
fill="#000000" stroke="none">
<path d="M584 5109 c-55 -16 -127 -72 -159 -123 -28 -46 -30 -57 -30 -141 0
-84 2 -95 30 -141 33 -53 104 -107 163 -124 20 -5 116 -10 213 -10 l177 0 3
-243 c4 -241 4 -242 32 -299 15 -31 42 -69 59 -83 l31 -26 -51 -107 c-101
-213 -147 -396 -163 -655 l-10 -168 -67 -67 c-78 -77 -115 -147 -132 -245 -40
-227 122 -454 354 -496 33 -6 60 -12 62 -13 1 -2 18 -44 37 -93 47 -124 94
-215 166 -323 67 -100 101 -132 138 -132 31 0 73 42 73 73 0 13 -27 61 -61
108 -117 162 -208 381 -244 588 -19 108 -19 320 0 441 43 272 295 543 563 606
94 22 226 14 373 -25 63 -16 269 -84 457 -150 511 -180 760 -253 1123 -326 95
-19 176 -38 180 -42 30 -32 38 -363 13 -514 -57 -341 -246 -652 -524 -863
-151 -114 -329 -198 -524 -248 -117 -29 -397 -37 -530 -14 -201 34 -420 126
-587 246 -46 34 -93 60 -106 60 -32 0 -73 -43 -73 -76 0 -37 61 -92 183 -168
l95 -58 5 -52 c5 -44 3 -53 -16 -66 -269 -186 -467 -482 -532 -792 -12 -57
-13 -83 -5 -125 21 -100 103 -188 197 -212 28 -8 373 -11 1066 -11 1112 0
1079 -2 1154 55 47 37 90 106 103 169 16 80 -20 230 -96 395 -82 177 -261 395
-408 496 -46 31 -56 43 -52 60 3 11 6 34 6 52 0 28 7 35 56 63 285 163 532
454 655 770 23 58 42 106 43 108 2 1 29 7 61 13 94 17 160 52 229 121 183 184
175 459 -19 636 l-63 57 -5 165 c-8 244 -52 425 -159 652 l-51 107 31 26 c17
14 42 49 56 77 26 52 26 53 26 300 l0 248 183 0 c100 0 199 5 219 10 59 17
130 71 163 124 40 65 48 179 18 247 -28 63 -68 106 -127 137 l-51 27 -1960 2
c-1159 1 -1973 -2 -1991 -8z m3324 -1316 c109 -211 172 -454 172 -667 l0 -83
-72 3 c-204 9 -704 132 -1133 280 -758 262 -802 274 -988 274 -293 0 -565
-176 -741 -480 -21 -36 -39 -66 -40 -66 0 -1 -16 -5 -35 -9 l-34 -7 6 123 c9
213 68 436 164 622 l45 87 1308 0 1308 0 40 -77z m-2852 -926 c-3 -13 -11 -78
-17 -145 -10 -112 -2 -293 18 -369 7 -30 -10 -30 -75 3 -98 49 -155 142 -154
254 0 115 52 199 154 249 73 37 82 38 74 8z m3084 -5 c91 -43 153 -144 153
-252 0 -112 -57 -205 -155 -254 -67 -33 -82 -34 -74 -2 24 98 24 415 0 513 -6
23 -5 25 17 18 13 -4 40 -14 59 -23z m-2036 -1707 l81 -26 135 -163 c74 -90
136 -168 138 -174 6 -18 -130 -212 -148 -212 -9 0 -40 24 -68 54 -98 103 -165
233 -208 404 -24 93 -30 142 -18 142 3 0 43 -11 88 -25z m1006 5 c0 -78 -72
-291 -134 -398 -44 -75 -142 -182 -166 -182 -20 0 -154 195 -147 213 3 7 64
84 137 172 l132 160 77 27 c94 32 101 33 101 8z m-410 -78 c0 -7 -134 -162
-140 -162 -6 0 -140 155 -140 162 0 2 63 3 140 3 77 0 140 -1 140 -3z m-86
-507 c56 -86 105 -133 147 -142 16 -3 32 -9 34 -14 3 -4 -11 -67 -31 -138
l-37 -131 -167 0 -167 0 -37 131 c-20 71 -34 134 -31 138 2 5 18 11 34 14 42
9 91 56 147 142 27 41 51 75 54 75 3 0 27 -34 54 -75z"/>
<path d="M1750 2700 c-26 -26 -26 -74 0 -110 29 -41 113 -74 171 -67 87 11
169 69 169 122 0 12 -9 34 -21 49 -26 34 -66 34 -115 1 -20 -14 -42 -25 -48
-25 -7 0 -27 11 -46 25 -41 30 -83 32 -110 5z"/>
<path d="M3052 2697 c-65 -69 32 -171 163 -171 95 0 175 55 175 121 0 66 -78
98 -126 52 -13 -12 -35 -21 -49 -21 -15 0 -40 9 -55 21 -38 28 -81 27 -108 -2z"/>
<path d="M2341 2604 c-44 -55 -12 -112 91 -163 86 -44 170 -44 256 0 103 51
135 108 91 163 -29 37 -70 34 -121 -6 -35 -29 -48 -33 -98 -33 -50 0 -63 4
-98 33 -51 40 -92 43 -121 6z"/>
</g>
</svg>
