<?xml version="1.0" standalone="no"?>
<!DOCTYPE svg PUBLIC "-//W3C//DTD SVG 20010904//EN"
 "http://www.w3.org/TR/2001/REC-SVG-20010904/DTD/svg10.dtd">
<svg version="1.0" xmlns="http://www.w3.org/2000/svg"
 width="512.000000pt" height="512.000000pt" viewBox="0 0 512.000000 512.000000"
 preserveAspectRatio="xMidYMid meet">

<g transform="translate(0.000000,512.000000) scale(0.100000,-0.100000)"
fill="#000000" stroke="none">
<path d="M2116 5104 c-626 -85 -1152 -514 -1359 -1111 -74 -212 -101 -412 -95
-710 3 -173 5 -191 26 -231 13 -24 22 -45 20 -46 -2 -1 -16 -8 -32 -16 -17 -8
-56 -39 -88 -68 -139 -129 -175 -332 -89 -506 66 -133 180 -213 343 -241 35
-5 38 -9 59 -73 47 -146 192 -399 261 -457 16 -14 41 -25 54 -25 31 0 74 42
74 72 0 13 -29 64 -65 113 -117 163 -205 372 -240 572 -20 107 -22 331 -5 436
l13 77 1343 0 c1282 0 1343 -1 1348 -18 13 -39 25 -172 26 -267 1 -661 -487
-1237 -1144 -1350 -116 -20 -336 -19 -457 1 -195 33 -411 123 -575 240 -49 35
-99 64 -112 64 -32 0 -72 -43 -72 -78 0 -19 11 -38 33 -59 46 -44 181 -132
265 -173 40 -18 71 -37 70 -41 -2 -4 -46 -35 -98 -70 -111 -74 -254 -212 -329
-319 -103 -146 -201 -379 -217 -513 -10 -86 16 -158 80 -223 91 -90 10 -85
1207 -82 l1044 3 54 30 c62 34 114 98 132 163 37 133 -65 430 -220 639 -80
107 -222 241 -331 312 l-91 60 68 35 c345 174 622 485 753 845 30 82 25 78
125 101 122 28 232 119 287 237 28 59 33 82 36 166 l4 97 102 0 c141 0 194 17
262 84 56 57 84 122 84 197 0 61 -35 140 -82 186 -80 77 -85 78 -345 81 l-233
3 0 167 c-1 312 -51 535 -179 790 -55 110 -153 261 -201 310 -48 47 -102 43
-125 -12 -16 -38 -9 -57 50 -135 153 -201 263 -473 294 -726 6 -49 11 -182 11
-295 0 -188 -2 -208 -20 -238 -40 -66 53 -62 -1506 -62 -1554 0 -1459 -4
-1501 58 -38 56 -27 471 16 672 130 593 603 1055 1200 1170 419 81 860 -19
1201 -275 41 -31 85 -58 98 -62 37 -9 76 26 80 71 4 44 -19 67 -158 160 -340
228 -754 325 -1154 270z m2342 -2034 c67 -41 78 -133 22 -188 -36 -36 -64 -42
-205 -42 l-112 0 -41 49 c-36 42 -113 103 -145 114 -6 2 -4 18 8 45 l19 42
210 0 c194 0 214 -2 244 -20z m-532 -213 c37 -20 97 -82 120 -127 14 -26 19
-57 19 -120 0 -76 -3 -91 -30 -139 -32 -58 -90 -107 -152 -129 -20 -6 -38 -10
-40 -8 -2 2 2 37 8 77 11 75 7 397 -6 451 -7 26 -6 27 22 19 16 -5 42 -15 59
-24z m-3100 -19 c-15 -99 -18 -289 -7 -392 7 -59 10 -110 7 -113 -2 -3 -24 4
-48 15 -213 94 -235 382 -38 499 30 18 63 33 73 33 17 0 19 -5 13 -42z m1444
-1754 c103 -6 193 0 348 23 49 7 50 5 21 -71 -26 -70 -92 -139 -167 -174 -75
-35 -192 -37 -264 -5 -89 41 -171 140 -192 234 l-5 25 72 -13 c40 -7 124 -15
187 -19z m-392 -58 c29 -100 91 -188 174 -251 l66 -49 -23 -47 c-53 -104 -39
-217 36 -303 62 -70 107 -90 204 -91 92 0 137 17 195 75 52 52 74 104 78 185
3 62 0 77 -26 127 l-29 58 42 25 c94 55 196 200 211 302 3 24 11 43 17 43 6 0
39 -17 74 -37 l63 -37 0 -438 0 -438 -625 0 -625 0 2 437 3 437 65 38 c36 21
67 38 70 38 3 0 16 -33 28 -74z m-318 -506 l0 -370 -116 0 c-167 0 -219 31
-217 130 2 94 86 302 176 435 35 52 143 175 154 175 1 0 3 -166 3 -370z m1679
240 c152 -201 248 -491 186 -560 -35 -39 -77 -50 -195 -50 l-110 0 0 372 0
372 31 -30 c17 -16 56 -63 88 -104z m-854 -94 c114 -48 88 -219 -36 -233 -116
-13 -177 126 -93 210 23 23 42 31 82 36 7 0 28 -5 47 -13z"/>
<path d="M2094 4221 c-51 -23 -108 -90 -123 -144 -9 -29 -11 -131 -9 -332 3
-275 4 -292 25 -330 27 -51 57 -79 113 -104 40 -18 65 -21 230 -21 102 0 202
5 223 11 49 13 115 73 138 124 17 36 19 71 19 341 l0 302 -28 53 c-20 39 -41
62 -77 84 l-48 30 -211 3 c-188 2 -215 0 -252 -17z"/>
<path d="M1666 2629 c-25 -19 -26 -25 -26 -113 0 -84 2 -95 23 -114 31 -29 72
-28 102 3 23 22 25 32 25 110 0 78 -2 88 -25 110 -30 30 -64 32 -99 4z"/>
<path d="M2912 2627 c-19 -20 -22 -35 -22 -115 0 -79 3 -95 20 -112 25 -25 71
-26 101 -1 22 18 24 26 24 116 0 90 -2 98 -24 116 -32 26 -73 24 -99 -4z"/>
<path d="M2120 2510 c-34 -34 -27 -82 19 -123 62 -56 98 -70 186 -75 75 -4 84
-2 145 30 64 33 110 83 110 118 0 10 -9 29 -21 44 -29 37 -75 35 -124 -4 -21
-17 -49 -33 -62 -36 -41 -11 -95 4 -134 36 -45 35 -90 39 -119 10z"/>
</g>
</svg>
