<?xml version="1.0" standalone="no"?>
<!DOCTYPE svg PUBLIC "-//W3C//DTD SVG 20010904//EN"
 "http://www.w3.org/TR/2001/REC-SVG-20010904/DTD/svg10.dtd">
<svg version="1.0" xmlns="http://www.w3.org/2000/svg"
 width="512.000000pt" height="512.000000pt" viewBox="0 0 512.000000 512.000000"
 preserveAspectRatio="xMidYMid meet">

<g transform="translate(0.000000,512.000000) scale(0.100000,-0.100000)"
fill="#000000" stroke="none">
<path d="M2150 5101 c-403 -103 -818 -420 -1052 -806 -211 -346 -301 -686
-315 -1180 l-5 -210 -33 -50 c-90 -140 -98 -295 -24 -443 57 -115 200 -216
322 -229 l54 -5 23 -71 c50 -156 218 -441 281 -476 33 -19 81 -2 98 35 17 39
15 46 -49 133 -118 164 -211 383 -246 581 -21 115 -23 323 -5 438 l13 82 37 0
c69 0 225 31 331 66 202 67 424 192 599 338 79 67 252 240 334 336 l47 55 43
-50 c191 -225 388 -399 594 -522 58 -35 99 -53 120 -53 56 0 90 59 64 109 -5
9 -50 41 -99 70 -49 29 -129 82 -178 119 -119 88 -321 292 -422 423 -45 59
-91 109 -103 112 -39 10 -66 -11 -137 -105 -352 -467 -835 -748 -1287 -748
-58 0 -126 -6 -159 -15 -33 -9 -61 -13 -64 -10 -11 10 17 379 37 495 98 568
414 1033 879 1294 178 99 373 164 462 152 86 -12 122 -51 184 -198 10 -25 24
-40 41 -44 44 -11 74 3 91 44 62 147 98 186 184 198 89 12 284 -53 464 -153
269 -151 515 -399 663 -671 150 -273 232 -592 249 -969 7 -163 8 -162 -43
-142 -15 6 -104 15 -198 20 -112 5 -198 15 -253 29 -106 26 -124 25 -150 -3
-47 -49 -19 -108 61 -131 69 -20 220 -46 267 -46 l38 0 13 -82 c18 -111 16
-321 -5 -435 -104 -589 -559 -1036 -1151 -1130 -121 -19 -371 -13 -482 12
-186 41 -343 109 -509 220 -122 83 -151 90 -183 49 -31 -39 -27 -71 14 -109
48 -45 163 -121 262 -172 l83 -43 -42 -26 c-156 -96 -275 -203 -373 -332 -114
-151 -209 -362 -236 -523 -17 -105 4 -173 77 -246 88 -88 11 -83 1184 -83
1173 0 1096 -5 1184 83 64 64 92 140 82 218 -19 142 -109 363 -208 506 -76
111 -234 266 -349 342 l-96 63 82 42 c337 174 601 470 735 826 l36 95 55 7
c30 5 86 24 126 43 158 78 254 244 240 420 -6 79 -26 138 -72 210 l-33 50 -5
210 c-7 252 -25 402 -73 594 -125 503 -405 908 -814 1173 -206 134 -472 238
-611 238 -92 0 -207 -52 -258 -116 l-20 -26 -31 36 c-80 91 -230 125 -380 87z
m-1101 -2253 c-23 -123 -19 -435 7 -503 8 -19 -43 -5 -102 30 -75 44 -134 150
-134 240 0 95 73 210 162 254 67 33 77 29 67 -21z m3122 0 c87 -59 138 -169
125 -266 -8 -62 -49 -145 -89 -178 -31 -27 -135 -79 -142 -73 -2 2 1 27 7 54
14 63 14 394 0 459 l-10 48 32 -6 c17 -4 52 -21 77 -38z m-1826 -1748 c130
-21 430 -12 527 16 16 5 16 2 2 -48 -29 -97 -91 -166 -188 -208 -184 -82 -399
28 -446 228 -8 31 -7 33 13 28 12 -3 54 -10 92 -16z m-250 -56 c27 -117 126
-245 234 -303 192 -102 406 -73 563 77 63 59 124 166 134 234 4 21 11 41 16
44 20 13 286 -163 313 -206 4 -6 -4 -23 -17 -39 -44 -51 -107 -187 -128 -272
-16 -67 -20 -118 -20 -256 l0 -173 -630 0 -630 0 0 173 c0 138 -4 189 -20 256
-21 86 -84 221 -129 274 l-25 30 39 34 c100 86 257 187 279 180 6 -2 15 -25
21 -53z m-398 -336 c65 -109 77 -164 81 -370 l4 -188 -119 0 c-140 0 -177 13
-207 74 -18 38 -18 41 -1 115 30 130 89 263 167 379 16 23 32 42 36 42 4 0 21
-24 39 -52z m1801 10 c78 -116 136 -249 168 -382 16 -71 16 -75 -2 -112 -30
-61 -67 -74 -207 -74 l-119 0 4 188 c3 164 6 195 27 252 24 67 80 170 93 170
4 0 20 -19 36 -42z"/>
<path d="M1813 2945 c-295 -80 -439 -409 -298 -684 34 -69 125 -161 191 -194
126 -64 274 -74 397 -27 127 48 241 168 283 297 19 61 25 189 11 254 l-7 37
44 11 c58 14 194 14 252 0 l44 -11 -7 -37 c-14 -66 -8 -193 12 -256 41 -127
155 -247 282 -295 81 -31 211 -38 288 -15 91 26 154 62 216 124 99 100 144
218 137 360 -6 106 -33 180 -96 264 -173 227 -506 249 -709 48 l-57 -57 -66
18 c-88 26 -251 26 -340 1 l-65 -19 -56 56 c-120 119 -298 167 -456 125z m249
-163 c65 -28 133 -94 165 -161 37 -76 39 -191 5 -266 -29 -63 -92 -129 -157
-163 -44 -23 -62 -27 -140 -27 -105 0 -163 23 -230 90 -67 67 -90 125 -90 230
0 78 4 97 27 140 64 122 177 188 308 181 37 -2 85 -12 112 -24z m1259 -4 c242
-112 253 -448 19 -577 -61 -34 -70 -36 -155 -36 -78 0 -97 4 -140 27 -65 34
-128 100 -157 163 -31 68 -32 189 -1 256 38 86 117 156 206 185 62 20 163 12
228 -18z"/>
<path d="M1880 2710 c-17 -17 -20 -33 -20 -104 0 -46 3 -92 6 -101 10 -26 63
-45 93 -34 41 16 50 38 51 122 0 75 -10 113 -34 129 -22 15 -76 8 -96 -12z"/>
<path d="M3130 2708 c-17 -18 -20 -35 -20 -107 1 -92 9 -114 51 -130 30 -11
83 8 93 34 3 9 6 55 6 101 0 71 -3 87 -20 104 -27 27 -83 27 -110 -2z"/>
<path d="M2345 2035 c-14 -13 -25 -35 -25 -49 0 -32 41 -80 99 -114 41 -24 56
-27 141 -27 85 0 100 3 141 27 58 34 99 82 99 114 0 60 -87 96 -126 53 -29
-32 -69 -49 -114 -49 -45 0 -85 17 -114 49 -26 29 -71 27 -101 -4z"/>
</g>
</svg>
