<svg id="svg" version="1.1" xmlns="http://www.w3.org/2000/svg" xmlns:xlink="http://www.w3.org/1999/xlink" width="400" height="400" viewBox="0, 0, 400,400"><g id="svgg"><path id="path0" d="M119.200 154.800 C 119.200 155.020,118.700 155.200,118.088 155.200 C 117.435 155.200,116.739 155.530,116.400 156.000 C 116.083 156.440,115.593 156.800,115.312 156.800 C 115.030 156.800,114.800 156.972,114.800 157.182 C 114.800 157.392,114.395 157.977,113.900 158.482 C 112.281 160.134,111.053 167.600,112.400 167.600 C 112.620 167.600,112.800 167.872,112.800 168.205 C 112.800 168.793,112.967 169.218,113.938 171.095 C 114.192 171.587,114.400 172.262,114.400 172.595 C 114.400 172.928,114.580 173.200,114.800 173.200 C 115.020 173.200,115.200 173.650,115.200 174.200 C 115.200 174.750,115.380 175.200,115.600 175.200 C 115.820 175.200,116.000 175.560,116.000 176.000 C 116.000 176.440,116.180 176.800,116.400 176.800 C 116.620 176.800,116.800 177.160,116.800 177.600 C 116.800 178.040,116.980 178.400,117.200 178.400 C 117.420 178.400,117.600 178.940,117.600 179.600 C 117.600 180.260,117.780 180.800,118.000 180.800 C 118.220 180.800,118.400 181.160,118.400 181.600 C 118.400 182.040,118.580 182.400,118.800 182.400 C 119.020 182.400,119.200 182.760,119.200 183.200 C 119.200 183.640,119.380 184.000,119.600 184.000 C 119.820 184.000,120.000 184.439,120.000 184.976 C 120.000 185.513,120.180 186.064,120.400 186.200 C 120.620 186.336,120.800 186.797,120.800 187.224 C 120.800 187.651,120.980 188.000,121.200 188.000 C 121.420 188.000,121.600 188.360,121.600 188.800 C 121.600 189.240,121.780 189.600,122.000 189.600 C 122.220 189.600,122.400 190.050,122.400 190.600 C 122.400 191.150,122.580 191.600,122.800 191.600 C 123.020 191.600,123.200 191.960,123.200 192.400 C 123.200 192.840,123.380 193.200,123.600 193.200 C 123.820 193.200,124.000 193.560,124.000 194.000 C 124.000 194.440,124.180 194.800,124.400 194.800 C 124.620 194.800,124.800 195.340,124.800 196.000 C 124.800 196.660,124.980 197.200,125.200 197.200 C 125.420 197.200,125.576 197.335,125.546 197.500 C 125.428 198.166,126.123 200.400,126.450 200.400 C 126.642 200.400,126.800 200.679,126.800 201.019 C 126.800 201.360,127.160 202.384,127.600 203.294 C 128.040 204.205,128.400 205.186,128.400 205.475 C 128.400 205.764,128.580 206.000,128.800 206.000 C 129.020 206.000,129.200 206.450,129.200 207.000 C 129.200 207.550,129.380 208.000,129.600 208.000 C 129.820 208.000,130.000 208.360,130.000 208.800 C 130.000 209.240,130.180 209.600,130.400 209.600 C 130.620 209.600,130.800 209.949,130.800 210.376 C 130.800 210.803,130.980 211.264,131.200 211.400 C 131.420 211.536,131.600 212.087,131.600 212.624 C 131.600 213.161,131.780 213.600,132.000 213.600 C 132.220 213.600,132.400 213.960,132.400 214.400 C 132.400 214.840,132.580 215.200,132.800 215.200 C 133.020 215.200,133.200 215.650,133.200 216.200 C 133.200 216.750,133.380 217.200,133.600 217.200 C 133.820 217.200,134.000 217.650,134.000 218.200 C 134.000 218.750,134.180 219.200,134.400 219.200 C 134.620 219.200,134.800 219.560,134.800 220.000 C 134.800 220.440,134.980 220.800,135.200 220.800 C 135.420 220.800,135.600 221.250,135.600 221.800 C 135.600 222.350,135.780 222.800,136.000 222.800 C 136.220 222.800,136.400 223.034,136.400 223.320 C 136.400 224.056,137.341 225.993,137.700 225.997 C 137.865 225.999,138.000 226.540,138.000 227.200 C 138.000 227.860,138.180 228.400,138.400 228.400 C 138.620 228.400,138.800 228.760,138.800 229.200 C 138.800 229.640,138.980 230.000,139.200 230.000 C 139.420 230.000,139.600 230.360,139.600 230.800 C 139.600 231.240,139.780 231.600,140.000 231.600 C 140.220 231.600,140.400 231.962,140.400 232.405 C 140.400 232.848,140.557 233.523,140.750 233.905 C 142.287 236.957,142.801 238.197,143.028 239.406 C 143.171 240.173,143.449 240.800,143.645 240.800 C 143.840 240.800,144.000 241.160,144.000 241.600 C 144.000 242.040,144.180 242.400,144.400 242.400 C 144.620 242.400,144.800 242.755,144.800 243.188 C 144.800 243.621,145.160 244.617,145.600 245.400 C 146.040 246.183,146.400 247.089,146.400 247.412 C 146.400 247.735,146.547 248.000,146.728 248.000 C 146.908 248.000,147.300 248.900,147.600 250.000 C 147.900 251.100,148.292 252.000,148.472 252.000 C 148.653 252.000,148.800 252.360,148.800 252.800 C 148.800 253.240,148.980 253.600,149.200 253.600 C 149.420 253.600,149.600 254.050,149.600 254.600 C 149.600 255.150,149.780 255.600,150.000 255.600 C 150.220 255.600,150.400 255.834,150.400 256.120 C 150.400 256.856,151.341 258.793,151.700 258.797 C 151.865 258.799,152.000 259.340,152.000 260.000 C 152.000 260.660,152.180 261.200,152.400 261.200 C 152.620 261.200,152.800 261.560,152.800 262.000 C 152.800 262.440,152.980 262.800,153.200 262.800 C 153.420 262.800,153.600 263.160,153.600 263.600 C 153.600 264.040,153.780 264.400,154.000 264.400 C 154.220 264.400,154.400 264.940,154.400 265.600 C 154.400 266.260,154.580 266.800,154.800 266.800 C 155.020 266.800,155.200 267.160,155.200 267.600 C 155.200 268.040,155.380 268.400,155.600 268.400 C 155.820 268.400,156.000 268.760,156.000 269.200 C 156.000 269.640,156.180 270.000,156.400 270.000 C 156.620 270.000,156.800 270.551,156.800 271.224 C 156.800 271.937,156.967 272.344,157.200 272.200 C 157.427 272.060,157.600 272.396,157.600 272.976 C 157.600 273.539,157.742 274.000,157.915 274.000 C 158.088 274.000,158.583 275.170,159.015 276.600 C 159.447 278.030,159.935 279.200,160.100 279.200 C 160.265 279.200,160.400 279.442,160.400 279.739 C 160.400 280.035,160.650 280.800,160.956 281.439 C 161.517 282.609,162.610 285.121,163.202 286.600 C 163.378 287.040,164.079 288.604,164.761 290.075 C 165.442 291.546,166.000 293.031,166.000 293.375 C 166.000 293.719,166.180 294.000,166.400 294.000 C 166.620 294.000,166.800 294.360,166.800 294.800 C 166.800 295.240,166.980 295.600,167.200 295.600 C 167.420 295.600,167.600 296.039,167.600 296.576 C 167.600 297.113,167.780 297.664,168.000 297.800 C 168.220 297.936,168.400 298.397,168.400 298.824 C 168.400 299.251,168.580 299.600,168.800 299.600 C 169.020 299.600,169.200 299.960,169.200 300.400 C 169.200 300.840,169.380 301.200,169.600 301.200 C 169.820 301.200,170.000 301.639,170.000 302.176 C 170.000 302.713,170.180 303.264,170.400 303.400 C 170.620 303.536,170.800 303.997,170.800 304.424 C 170.800 304.851,170.980 305.200,171.200 305.200 C 171.420 305.200,171.600 305.560,171.600 306.000 C 171.600 306.440,171.780 306.800,172.000 306.800 C 172.220 306.800,172.400 307.250,172.400 307.800 C 172.400 308.350,172.580 308.800,172.800 308.800 C 173.020 308.800,173.200 309.160,173.200 309.600 C 173.200 310.040,173.380 310.400,173.600 310.400 C 173.820 310.400,174.000 310.760,174.000 311.200 C 174.000 311.640,174.180 312.000,174.400 312.000 C 174.620 312.000,174.800 312.540,174.800 313.200 C 174.800 313.860,174.991 314.400,175.224 314.400 C 175.457 314.400,175.563 314.536,175.460 314.702 C 175.358 314.869,175.617 315.711,176.037 316.574 C 176.457 317.437,176.800 318.299,176.800 318.491 C 176.800 318.682,177.160 319.584,177.600 320.494 C 178.040 321.405,178.400 322.386,178.400 322.675 C 178.400 322.964,178.580 323.200,178.800 323.200 C 179.020 323.200,179.200 323.650,179.200 324.200 C 179.200 324.750,179.380 325.200,179.600 325.200 C 179.820 325.200,180.000 325.560,180.000 326.000 C 180.000 326.440,180.180 326.800,180.400 326.800 C 180.620 326.800,180.800 327.160,180.800 327.600 C 180.800 328.040,180.980 328.400,181.200 328.400 C 181.420 328.400,181.600 328.940,181.600 329.600 C 181.600 330.260,181.780 330.800,182.000 330.800 C 182.220 330.800,182.400 331.160,182.400 331.600 C 182.400 332.040,182.580 332.400,182.800 332.400 C 183.020 332.400,183.200 332.749,183.200 333.176 C 183.200 333.603,183.380 334.064,183.600 334.200 C 183.820 334.336,184.000 334.887,184.000 335.424 C 184.000 335.961,184.180 336.400,184.400 336.400 C 184.620 336.400,184.800 336.760,184.800 337.200 C 184.800 337.640,184.980 338.000,185.200 338.000 C 185.420 338.000,185.600 338.349,185.600 338.776 C 185.600 339.203,185.780 339.664,186.000 339.800 C 186.220 339.936,186.400 340.397,186.400 340.824 C 186.400 341.251,186.580 341.600,186.800 341.600 C 187.020 341.600,187.200 341.960,187.200 342.400 C 187.200 342.840,187.380 343.200,187.600 343.200 C 187.820 343.200,188.000 343.639,188.000 344.176 C 188.000 344.713,188.180 345.264,188.400 345.400 C 188.620 345.536,188.800 345.997,188.800 346.424 C 188.800 346.851,188.980 347.200,189.200 347.200 C 189.420 347.200,189.600 347.560,189.600 348.000 C 189.600 348.440,189.780 348.800,190.000 348.800 C 190.220 348.800,190.400 349.162,190.400 349.605 C 190.400 350.048,190.560 350.723,190.756 351.105 C 192.224 353.968,193.432 357.123,193.279 357.700 C 193.236 357.865,193.380 358.000,193.600 358.000 C 193.820 358.000,194.000 358.360,194.000 358.800 C 194.000 359.240,194.180 359.600,194.400 359.600 C 194.620 359.600,194.800 359.955,194.800 360.388 C 194.800 360.821,195.160 361.817,195.600 362.600 C 196.040 363.383,196.400 364.204,196.400 364.423 C 196.400 365.060,199.918 368.400,200.589 368.400 C 200.925 368.400,201.200 368.580,201.200 368.800 C 201.200 369.041,202.867 369.200,205.400 369.200 C 207.933 369.200,209.600 369.041,209.600 368.800 C 209.600 368.580,209.876 368.400,210.213 368.400 C 211.009 368.400,213.600 365.809,213.600 365.013 C 213.600 364.676,213.780 364.400,214.000 364.400 C 214.220 364.400,214.400 364.040,214.400 363.600 C 214.400 363.160,214.580 362.800,214.800 362.800 C 215.020 362.800,215.200 362.440,215.200 362.000 C 215.200 361.560,215.380 361.200,215.600 361.200 C 215.820 361.200,216.000 360.928,216.000 360.595 C 216.000 360.262,216.180 359.632,216.400 359.195 C 216.620 358.758,216.980 358.042,217.200 357.605 C 217.420 357.168,217.600 356.538,217.600 356.205 C 217.600 355.872,217.780 355.600,218.000 355.600 C 218.220 355.600,218.400 355.150,218.400 354.600 C 218.400 354.050,218.580 353.600,218.800 353.600 C 219.020 353.600,219.200 353.240,219.200 352.800 C 219.200 352.360,219.380 352.000,219.600 352.000 C 219.820 352.000,220.000 351.728,220.000 351.395 C 220.000 351.062,220.159 350.477,220.353 350.095 C 220.548 349.713,220.885 348.950,221.103 348.400 C 221.639 347.047,223.127 343.742,224.049 341.859 C 224.464 341.011,224.916 339.616,225.053 338.759 C 225.190 337.901,225.459 337.200,225.651 337.200 C 225.843 337.200,226.000 336.840,226.000 336.400 C 226.000 335.960,226.180 335.600,226.400 335.600 C 226.620 335.600,226.800 335.240,226.800 334.800 C 226.800 334.360,226.980 334.000,227.200 334.000 C 227.420 334.000,227.600 333.460,227.600 332.800 C 227.600 332.140,227.780 331.600,228.000 331.600 C 228.220 331.600,228.400 331.240,228.400 330.800 C 228.400 330.360,228.580 330.000,228.800 330.000 C 229.020 330.000,229.200 329.640,229.200 329.200 C 229.200 328.760,229.380 328.400,229.600 328.400 C 229.820 328.400,230.000 327.860,230.000 327.200 C 230.000 326.540,230.135 325.999,230.300 325.997 C 230.659 325.993,231.600 324.056,231.600 323.320 C 231.600 323.034,231.780 322.800,232.000 322.800 C 232.220 322.800,232.400 322.350,232.400 321.800 C 232.400 321.250,232.580 320.800,232.800 320.800 C 233.020 320.800,233.200 320.440,233.200 320.000 C 233.200 319.560,233.380 319.200,233.600 319.200 C 233.820 319.200,234.000 318.851,234.000 318.424 C 234.000 317.997,234.180 317.536,234.400 317.400 C 234.620 317.264,234.800 316.713,234.800 316.176 C 234.800 315.639,234.980 315.200,235.200 315.200 C 235.420 315.200,235.600 314.840,235.600 314.400 C 235.600 313.960,235.780 313.600,236.000 313.600 C 236.220 313.600,236.400 313.251,236.400 312.824 C 236.400 312.397,236.580 311.936,236.800 311.800 C 237.020 311.664,237.200 311.113,237.200 310.576 C 237.200 310.039,237.380 309.600,237.600 309.600 C 237.820 309.600,238.000 309.240,238.000 308.800 C 238.000 308.360,238.180 308.000,238.400 308.000 C 238.620 308.000,238.800 307.735,238.800 307.410 C 238.800 307.086,239.359 305.601,240.041 304.110 C 240.724 302.620,241.378 300.815,241.494 300.100 C 241.610 299.385,241.861 298.800,242.052 298.800 C 242.244 298.800,242.400 298.440,242.400 298.000 C 242.400 297.560,242.580 297.200,242.800 297.200 C 243.020 297.200,243.200 296.851,243.200 296.424 C 243.200 295.997,243.380 295.536,243.600 295.400 C 243.820 295.264,244.000 294.713,244.000 294.176 C 244.000 293.639,244.180 293.200,244.400 293.200 C 244.620 293.200,244.800 292.840,244.800 292.400 C 244.800 291.960,244.980 291.600,245.200 291.600 C 245.420 291.600,245.600 291.139,245.600 290.576 C 245.600 289.996,245.773 289.660,246.000 289.800 C 246.227 289.940,246.400 289.604,246.400 289.024 C 246.400 288.461,246.580 288.000,246.800 288.000 C 247.020 288.000,247.200 287.640,247.200 287.200 C 247.200 286.760,247.380 286.400,247.600 286.400 C 247.820 286.400,248.000 285.961,248.000 285.424 C 248.000 284.887,248.180 284.336,248.400 284.200 C 248.620 284.064,248.800 283.603,248.800 283.176 C 248.800 282.749,248.980 282.400,249.200 282.400 C 249.420 282.400,249.600 282.040,249.600 281.600 C 249.600 281.160,249.780 280.800,250.000 280.800 C 250.220 280.800,250.400 280.361,250.400 279.824 C 250.400 279.287,250.580 278.736,250.800 278.600 C 251.020 278.464,251.200 278.003,251.200 277.576 C 251.200 277.149,251.380 276.800,251.600 276.800 C 251.820 276.800,252.000 276.440,252.000 276.000 C 252.000 275.560,252.180 275.200,252.400 275.200 C 252.620 275.200,252.800 274.750,252.800 274.200 C 252.800 273.650,252.980 273.200,253.200 273.200 C 253.420 273.200,253.600 272.935,253.600 272.612 C 253.600 272.289,253.960 271.383,254.400 270.600 C 254.840 269.817,255.200 268.821,255.200 268.388 C 255.200 267.955,255.380 267.600,255.600 267.600 C 255.820 267.600,256.000 267.364,256.000 267.075 C 256.000 266.786,256.360 265.805,256.800 264.894 C 257.240 263.984,257.600 262.960,257.600 262.619 C 257.600 262.279,257.764 262.000,257.965 262.000 C 258.166 262.000,258.451 261.280,258.600 260.400 C 258.749 259.520,259.034 258.800,259.235 258.800 C 259.436 258.800,259.600 258.476,259.600 258.080 C 259.600 257.186,260.494 255.207,260.900 255.203 C 261.065 255.201,261.200 254.851,261.200 254.424 C 261.200 253.997,261.380 253.536,261.600 253.400 C 261.820 253.264,262.000 252.713,262.000 252.176 C 262.000 251.639,262.180 251.200,262.400 251.200 C 262.620 251.200,262.800 250.840,262.800 250.400 C 262.800 249.960,262.980 249.600,263.200 249.600 C 263.420 249.600,263.600 249.240,263.600 248.800 C 263.600 248.360,263.780 248.000,264.000 248.000 C 264.220 248.000,264.400 247.460,264.400 246.800 C 264.400 246.140,264.580 245.600,264.800 245.600 C 265.020 245.600,265.200 245.240,265.200 244.800 C 265.200 244.360,265.380 244.000,265.600 244.000 C 265.820 244.000,266.000 243.640,266.000 243.200 C 266.000 242.760,266.180 242.400,266.400 242.400 C 266.620 242.400,266.800 242.057,266.800 241.638 C 266.800 240.979,267.286 239.811,268.850 236.705 C 269.043 236.323,269.200 235.738,269.200 235.405 C 269.200 235.072,269.380 234.800,269.600 234.800 C 269.820 234.800,270.000 234.455,270.000 234.033 C 270.000 233.612,270.178 233.207,270.397 233.133 C 270.615 233.060,270.834 232.505,270.884 231.900 C 270.934 231.295,271.115 230.800,271.287 230.800 C 271.459 230.800,271.600 230.440,271.600 230.000 C 271.600 229.560,271.780 229.200,272.000 229.200 C 272.220 229.200,272.400 228.958,272.400 228.661 C 272.400 228.365,272.653 227.600,272.962 226.961 C 274.468 223.845,275.200 221.970,275.200 221.222 C 275.200 220.770,275.380 220.400,275.600 220.400 C 275.820 220.400,276.000 219.950,276.000 219.400 C 276.000 218.850,276.180 218.400,276.400 218.400 C 276.620 218.400,276.800 218.051,276.800 217.624 C 276.800 217.197,276.980 216.736,277.200 216.600 C 277.420 216.464,277.600 216.003,277.600 215.576 C 277.600 215.149,277.780 214.800,278.000 214.800 C 278.220 214.800,278.400 214.350,278.400 213.800 C 278.400 213.250,278.580 212.800,278.800 212.800 C 279.020 212.800,279.200 212.440,279.200 212.000 C 279.200 211.560,279.380 211.200,279.600 211.200 C 279.820 211.200,280.000 210.675,280.000 210.033 C 280.000 209.392,280.135 208.807,280.300 208.733 C 280.799 208.512,282.400 205.178,282.400 204.362 C 282.400 203.943,282.580 203.600,282.800 203.600 C 283.020 203.600,283.200 203.240,283.200 202.800 C 283.200 202.360,283.380 202.000,283.600 202.000 C 283.820 202.000,284.000 201.651,284.000 201.224 C 284.000 200.797,284.180 200.336,284.400 200.200 C 284.620 200.064,284.800 199.513,284.800 198.976 C 284.800 198.439,284.980 198.000,285.200 198.000 C 285.420 198.000,285.600 197.640,285.600 197.200 C 285.600 196.760,285.780 196.400,286.000 196.400 C 286.220 196.400,286.400 196.051,286.400 195.624 C 286.400 195.197,286.580 194.736,286.800 194.600 C 287.020 194.464,287.200 193.913,287.200 193.376 C 287.200 192.839,287.380 192.400,287.600 192.400 C 287.820 192.400,288.000 192.218,288.000 191.996 C 288.000 191.596,288.794 189.726,290.647 185.760 C 291.171 184.638,291.600 183.243,291.600 182.660 C 291.600 182.077,291.780 181.600,292.000 181.600 C 292.220 181.600,292.400 181.240,292.400 180.800 C 292.400 180.360,292.580 180.000,292.800 180.000 C 293.020 180.000,293.200 179.640,293.200 179.200 C 293.200 178.760,293.380 178.400,293.600 178.400 C 293.820 178.400,294.000 177.860,294.000 177.200 C 294.000 176.540,294.135 175.999,294.300 175.997 C 294.659 175.993,295.600 174.056,295.600 173.320 C 295.600 173.034,295.780 172.800,296.000 172.800 C 296.220 172.800,296.400 172.350,296.400 171.800 C 296.400 171.250,296.580 170.800,296.800 170.800 C 297.020 170.800,297.200 170.440,297.200 170.000 C 297.200 169.560,297.380 169.200,297.600 169.200 C 297.820 169.200,298.000 168.660,298.000 168.000 C 298.000 167.340,298.180 166.800,298.400 166.800 C 298.620 166.800,298.800 165.821,298.800 164.624 C 298.800 163.427,298.620 162.336,298.400 162.200 C 298.180 162.064,298.000 161.423,298.000 160.776 C 298.000 160.129,297.820 159.600,297.600 159.600 C 297.380 159.600,297.200 159.414,297.200 159.187 C 297.200 158.542,294.499 156.000,293.813 156.000 C 293.476 156.000,293.200 155.820,293.200 155.600 C 293.200 155.380,292.840 155.200,292.400 155.200 C 291.960 155.200,291.600 155.020,291.600 154.800 C 291.600 154.536,280.000 154.400,257.600 154.400 C 235.200 154.400,223.600 154.536,223.600 154.800 C 223.600 155.020,223.955 155.200,224.388 155.200 C 224.821 155.200,225.817 155.560,226.600 156.000 C 227.383 156.440,228.289 156.800,228.612 156.800 C 228.935 156.800,229.200 156.980,229.200 157.200 C 229.200 157.420,229.393 157.600,229.628 157.600 C 230.323 157.600,233.396 159.855,235.207 161.694 C 250.157 176.873,239.326 202.400,217.937 202.400 C 207.004 202.400,198.452 195.826,194.804 184.619 C 194.156 182.628,194.119 173.321,194.756 172.684 C 195.000 172.440,195.200 171.914,195.200 171.515 C 195.200 171.116,195.359 170.477,195.553 170.095 C 195.748 169.713,196.148 168.860,196.443 168.200 C 198.159 164.357,201.907 160.201,205.585 158.062 C 208.357 156.451,209.281 156.000,209.812 156.000 C 210.135 156.000,210.400 155.820,210.400 155.600 C 210.400 155.380,210.940 155.200,211.600 155.200 C 212.260 155.200,212.800 155.020,212.800 154.800 C 212.800 154.536,196.933 154.400,166.000 154.400 C 135.067 154.400,119.200 154.536,119.200 154.800 M271.881 180.051 C 278.383 182.669,281.600 186.955,281.600 193.000 C 281.600 197.929,278.691 202.777,274.525 204.794 C 273.466 205.307,272.287 205.878,271.905 206.063 C 267.313 208.291,258.832 204.388,256.121 198.800 C 253.006 192.375,255.860 183.802,262.010 181.116 C 262.774 180.782,263.850 180.316,264.400 180.081 C 265.741 179.509,270.487 179.489,271.881 180.051 M167.894 196.453 C 184.163 200.324,192.063 217.851,183.988 232.159 C 182.757 234.342,177.964 239.600,177.206 239.600 C 177.014 239.600,176.619 239.826,176.329 240.102 C 175.837 240.570,172.832 242.098,171.000 242.814 C 167.158 244.313,159.131 244.316,155.400 242.819 C 147.563 239.675,142.937 234.865,140.133 226.945 C 139.254 224.464,139.128 215.725,139.941 213.600 C 141.780 208.786,143.090 206.638,146.269 203.223 C 151.462 197.642,160.716 194.745,167.894 196.453 M237.448 236.996 C 244.414 238.810,251.110 244.715,253.553 251.200 C 253.843 251.970,254.225 252.960,254.401 253.400 C 255.077 255.090,255.701 259.997,255.452 261.660 C 255.309 262.617,255.092 264.120,254.971 265.000 C 254.850 265.880,254.570 266.970,254.349 267.422 C 254.129 267.874,253.988 268.414,254.038 268.622 C 254.528 270.693,248.039 278.367,243.595 280.971 C 232.038 287.744,215.447 283.201,210.472 271.900 C 210.108 271.075,209.674 270.400,209.506 270.400 C 209.338 270.400,209.200 270.051,209.200 269.624 C 209.200 269.197,209.020 268.736,208.800 268.600 C 208.580 268.464,208.400 267.834,208.400 267.200 C 208.400 266.566,208.220 265.936,208.000 265.800 C 207.445 265.457,207.491 256.200,208.055 254.428 C 210.118 247.961,213.409 243.411,218.400 240.130 C 223.708 236.641,231.293 235.392,237.448 236.996 M202.979 300.430 C 214.219 302.508,221.084 316.542,215.125 325.262 C 214.726 325.846,214.400 326.477,214.400 326.664 C 214.400 327.331,211.227 330.358,209.104 331.716 C 198.951 338.211,185.301 332.032,183.204 319.992 C 181.229 308.651,191.656 298.337,202.979 300.430 " stroke="none" fill="#8ce4d3" fill-rule="evenodd"></path><path id="path1" d="M201.216 32.700 C 200.715 33.745,199.967 35.292,199.553 36.138 C 199.139 36.984,198.800 37.929,198.800 38.238 C 198.800 38.547,198.620 38.800,198.400 38.800 C 198.180 38.800,198.000 39.160,198.000 39.600 C 198.000 40.040,197.820 40.400,197.600 40.400 C 197.380 40.400,197.200 40.760,197.200 41.200 C 197.200 41.640,197.054 42.000,196.875 42.000 C 196.696 42.000,196.302 42.630,196.000 43.400 C 195.461 44.774,195.408 44.800,193.149 44.800 C 191.883 44.800,190.736 44.980,190.600 45.200 C 190.464 45.420,189.204 45.600,187.800 45.600 C 186.396 45.600,185.136 45.780,185.000 46.000 C 184.864 46.220,183.683 46.400,182.376 46.400 C 178.255 46.400,180.530 49.961,189.532 57.600 C 191.058 58.895,191.740 60.400,190.800 60.400 C 190.580 60.400,190.400 61.379,190.400 62.576 C 190.400 63.773,190.220 64.864,190.000 65.000 C 189.780 65.136,189.600 66.126,189.600 67.200 C 189.600 68.274,189.420 69.264,189.200 69.400 C 188.690 69.715,188.672 74.800,189.181 74.800 C 189.848 74.800,191.600 73.885,191.600 73.536 C 191.600 73.351,191.960 73.200,192.400 73.200 C 192.840 73.200,193.200 73.020,193.200 72.800 C 193.200 72.580,193.560 72.400,194.000 72.400 C 194.440 72.400,194.800 72.220,194.800 72.000 C 194.800 71.780,195.160 71.600,195.600 71.600 C 196.040 71.600,196.400 71.420,196.400 71.200 C 196.400 70.980,196.760 70.800,197.200 70.800 C 197.640 70.800,198.000 70.620,198.000 70.400 C 198.000 70.180,198.360 70.000,198.800 70.000 C 199.240 70.000,199.600 69.820,199.600 69.600 C 199.600 69.380,199.960 69.200,200.400 69.200 C 200.840 69.200,201.201 69.065,201.203 68.900 C 201.208 68.386,203.380 67.539,203.531 67.992 C 203.605 68.216,204.012 68.400,204.433 68.400 C 204.855 68.400,205.200 68.580,205.200 68.800 C 205.200 69.020,205.560 69.200,206.000 69.200 C 206.440 69.200,206.800 69.380,206.800 69.600 C 206.800 69.820,207.160 70.000,207.600 70.000 C 208.040 70.000,208.400 70.136,208.400 70.302 C 208.400 70.469,208.985 70.859,209.700 71.170 C 210.415 71.481,211.090 71.840,211.200 71.968 C 211.782 72.643,216.549 74.828,217.034 74.642 C 217.690 74.390,217.846 70.800,217.200 70.800 C 216.980 70.800,216.800 69.821,216.800 68.624 C 216.800 67.427,216.620 66.336,216.400 66.200 C 216.180 66.064,216.000 65.074,216.000 64.000 C 216.000 62.926,215.820 61.936,215.600 61.800 C 214.269 60.977,215.201 58.705,217.876 56.253 C 226.859 48.019,227.836 46.400,223.824 46.400 C 222.627 46.400,221.536 46.220,221.400 46.000 C 221.264 45.780,220.004 45.600,218.600 45.600 C 217.196 45.600,215.936 45.420,215.800 45.200 C 215.664 44.980,214.427 44.800,213.051 44.800 C 210.563 44.800,210.546 44.792,210.000 43.400 C 209.698 42.630,209.304 42.000,209.125 42.000 C 208.946 42.000,208.800 41.685,208.799 41.300 C 208.798 40.915,207.988 38.988,206.999 37.018 C 206.010 35.048,205.200 33.203,205.200 32.918 C 205.200 32.633,205.020 32.400,204.800 32.400 C 204.580 32.400,204.400 32.040,204.400 31.600 C 204.400 29.836,202.228 30.587,201.216 32.700 M264.400 40.000 C 264.400 40.220,263.860 40.400,263.200 40.400 C 262.540 40.400,262.000 40.580,262.000 40.800 C 262.000 41.020,261.550 41.200,261.000 41.200 C 260.450 41.200,260.000 41.336,260.000 41.502 C 260.000 41.669,259.434 42.055,258.742 42.361 C 257.272 43.012,254.400 45.848,254.400 46.648 C 254.400 46.952,254.253 47.200,254.074 47.200 C 253.562 47.200,252.000 50.373,252.000 51.414 C 252.000 51.930,251.820 52.464,251.600 52.600 C 251.371 52.742,251.200 54.804,251.200 57.424 C 251.200 60.208,251.357 62.000,251.600 62.000 C 251.820 62.000,252.000 62.540,252.000 63.200 C 252.000 63.860,252.180 64.400,252.400 64.400 C 252.620 64.400,252.800 64.760,252.800 65.200 C 252.800 65.640,252.980 66.000,253.200 66.000 C 253.420 66.000,253.600 66.246,253.600 66.546 C 253.600 68.147,259.176 72.713,262.628 73.939 C 265.255 74.872,272.906 75.199,273.400 74.400 C 273.536 74.180,274.076 74.000,274.600 74.000 C 275.124 74.000,275.664 73.820,275.800 73.600 C 275.936 73.380,276.397 73.200,276.824 73.200 C 277.251 73.200,277.600 73.032,277.600 72.827 C 277.600 72.622,277.961 72.339,278.402 72.200 C 279.440 71.870,282.836 68.518,283.568 67.100 C 283.880 66.495,284.285 66.000,284.468 66.000 C 284.650 66.000,284.800 65.640,284.800 65.200 C 284.800 64.760,284.980 64.400,285.200 64.400 C 285.420 64.400,285.600 63.871,285.600 63.224 C 285.600 62.577,285.780 61.936,286.000 61.800 C 286.227 61.660,286.400 59.670,286.400 57.200 C 286.400 54.730,286.227 52.740,286.000 52.600 C 285.780 52.464,285.600 51.924,285.600 51.400 C 285.600 50.876,285.420 50.336,285.200 50.200 C 284.980 50.064,284.800 49.637,284.800 49.252 C 284.800 48.866,284.440 48.164,284.000 47.692 C 283.560 47.220,283.200 46.660,283.200 46.448 C 283.200 45.812,280.039 42.913,278.775 42.390 C 278.129 42.122,277.600 41.745,277.600 41.551 C 277.600 41.358,277.060 41.200,276.400 41.200 C 275.740 41.200,275.200 41.020,275.200 40.800 C 275.200 40.580,274.750 40.400,274.200 40.400 C 273.650 40.400,273.200 40.220,273.200 40.000 C 273.200 39.758,271.467 39.600,268.800 39.600 C 266.133 39.600,264.400 39.758,264.400 40.000 M126.099 41.844 C 124.153 42.372,121.812 43.476,120.676 44.401 C 120.414 44.614,119.615 45.257,118.900 45.830 C 118.185 46.402,117.600 47.085,117.600 47.347 C 117.600 47.609,117.240 48.083,116.800 48.400 C 116.360 48.717,116.000 49.297,116.000 49.688 C 116.000 50.080,115.820 50.400,115.600 50.400 C 115.380 50.400,115.200 50.760,115.200 51.200 C 115.200 51.640,115.020 52.000,114.800 52.000 C 114.580 52.000,114.400 52.540,114.400 53.200 C 114.400 53.860,114.220 54.400,114.000 54.400 C 113.757 54.400,113.600 56.200,113.600 59.000 C 113.600 61.800,113.757 63.600,114.000 63.600 C 114.220 63.600,114.400 64.140,114.400 64.800 C 114.400 65.460,114.580 66.000,114.800 66.000 C 115.020 66.000,115.200 66.360,115.200 66.800 C 115.200 67.240,115.380 67.600,115.600 67.600 C 115.820 67.600,116.000 67.884,116.000 68.231 C 116.000 68.997,121.070 74.000,121.846 74.000 C 122.151 74.000,122.400 74.164,122.400 74.365 C 122.400 74.566,123.120 74.851,124.000 75.000 C 124.880 75.149,125.600 75.434,125.600 75.635 C 125.600 75.836,126.680 76.000,128.000 76.000 C 129.333 76.000,130.400 76.178,130.400 76.400 C 130.400 76.620,130.760 76.800,131.200 76.800 C 131.640 76.800,132.000 76.620,132.000 76.400 C 132.000 76.174,133.133 76.000,134.600 76.000 C 136.067 76.000,137.200 75.826,137.200 75.600 C 137.200 75.380,137.488 75.200,137.840 75.200 C 139.770 75.200,146.400 69.784,146.400 68.207 C 146.400 67.873,146.580 67.600,146.800 67.600 C 147.020 67.600,147.200 67.240,147.200 66.800 C 147.200 66.360,147.380 66.000,147.600 66.000 C 147.820 66.000,148.000 65.460,148.000 64.800 C 148.000 64.140,148.180 63.600,148.400 63.600 C 148.643 63.600,148.800 61.800,148.800 59.000 C 148.800 56.200,148.643 54.400,148.400 54.400 C 148.180 54.400,148.000 53.860,148.000 53.200 C 148.000 52.540,147.820 52.000,147.600 52.000 C 147.380 52.000,147.200 51.728,147.200 51.395 C 147.200 50.672,146.434 49.243,145.597 48.404 C 145.266 48.072,144.747 47.317,144.444 46.726 C 144.141 46.136,143.377 45.439,142.747 45.178 C 142.116 44.917,141.600 44.584,141.600 44.438 C 141.600 42.240,131.103 40.484,126.099 41.844 M308.800 66.184 L 308.800 73.968 307.704 74.984 C 307.101 75.543,306.426 76.000,306.204 76.000 C 305.982 76.001,305.283 76.446,304.651 76.989 C 304.019 77.533,303.164 78.084,302.751 78.216 C 302.338 78.347,302.000 78.622,302.000 78.827 C 302.000 79.032,301.764 79.200,301.475 79.200 C 301.187 79.200,300.564 79.560,300.092 80.000 C 299.620 80.440,299.091 80.800,298.917 80.800 C 296.931 80.804,295.701 84.480,297.600 84.734 C 298.150 84.807,298.771 85.032,298.980 85.234 C 299.189 85.435,299.686 85.600,300.085 85.600 C 300.484 85.600,301.123 85.762,301.505 85.961 C 301.887 86.160,303.010 86.537,304.000 86.800 C 304.990 87.063,306.113 87.440,306.495 87.639 C 306.877 87.838,307.642 88.000,308.195 88.000 C 308.748 88.000,309.200 88.180,309.200 88.400 C 309.200 88.620,309.650 88.800,310.200 88.800 C 310.936 88.800,311.200 89.013,311.200 89.605 C 311.200 90.048,311.358 90.723,311.551 91.105 C 312.140 92.272,312.800 94.608,312.800 95.528 C 312.800 96.008,312.980 96.400,313.200 96.400 C 313.420 96.400,313.600 96.940,313.600 97.600 C 313.600 98.260,313.780 98.800,314.000 98.800 C 314.220 98.800,314.400 99.304,314.400 99.920 C 314.400 100.536,314.565 101.211,314.766 101.420 C 314.968 101.629,315.193 102.250,315.267 102.800 C 315.506 104.567,319.197 102.866,319.200 100.988 C 319.200 100.762,319.560 100.317,320.000 100.000 C 320.440 99.683,320.800 99.185,320.800 98.894 C 320.800 98.602,321.250 97.914,321.800 97.364 C 322.350 96.814,322.800 96.220,322.800 96.044 C 322.800 95.868,323.250 95.201,323.800 94.562 C 324.349 93.923,324.802 93.220,324.806 93.000 C 324.831 91.485,325.347 91.399,333.585 91.540 L 341.600 91.677 341.600 90.657 C 341.600 90.095,341.150 89.186,340.600 88.636 C 340.050 88.086,339.600 87.398,339.600 87.106 C 339.600 86.815,339.240 86.317,338.800 86.000 C 338.360 85.683,338.000 85.220,338.000 84.971 C 338.000 84.722,337.460 83.954,336.800 83.263 C 336.140 82.572,335.600 81.852,335.600 81.663 C 335.600 81.474,335.060 80.754,334.400 80.063 C 333.207 78.814,332.653 76.000,333.600 76.000 C 333.820 76.000,334.000 75.561,334.000 75.024 C 334.000 74.487,334.180 73.936,334.400 73.800 C 334.620 73.664,334.800 73.113,334.800 72.576 C 334.800 72.039,334.980 71.600,335.200 71.600 C 335.420 71.600,335.600 71.060,335.600 70.400 C 335.600 69.740,335.741 69.200,335.913 69.200 C 336.085 69.200,336.475 68.345,336.780 67.300 C 337.085 66.255,337.513 65.109,337.730 64.753 C 338.412 63.639,337.760 62.800,336.213 62.800 C 335.436 62.800,334.800 62.980,334.800 63.200 C 334.800 63.420,334.260 63.600,333.600 63.600 C 332.940 63.600,332.400 63.780,332.400 64.000 C 332.400 64.220,331.860 64.400,331.200 64.400 C 330.540 64.400,330.000 64.580,330.000 64.800 C 330.000 65.020,329.561 65.200,329.024 65.200 C 328.487 65.200,327.936 65.380,327.800 65.600 C 327.664 65.820,327.113 66.000,326.576 66.000 C 326.039 66.000,325.600 66.180,325.600 66.400 C 325.600 66.620,325.075 66.800,324.433 66.800 C 323.792 66.800,323.162 67.025,323.033 67.300 C 322.847 67.700,322.753 67.700,322.567 67.300 C 322.438 67.025,322.078 66.800,321.767 66.800 C 321.455 66.800,321.200 66.620,321.200 66.400 C 321.200 66.180,321.018 66.000,320.796 66.000 C 320.574 66.000,319.828 65.460,319.137 64.800 C 318.446 64.140,317.718 63.600,317.519 63.600 C 317.320 63.600,316.581 63.061,315.878 62.402 C 315.175 61.743,314.441 61.203,314.247 61.202 C 314.053 61.201,313.603 60.867,313.247 60.459 C 312.476 59.576,310.290 58.400,309.420 58.400 C 308.881 58.400,308.800 59.421,308.800 66.184 M89.284 60.407 C 88.816 60.843,88.228 61.200,87.977 61.200 C 87.726 61.200,87.017 61.740,86.400 62.400 C 85.783 63.060,85.063 63.600,84.800 63.600 C 84.537 63.600,83.817 64.140,83.200 64.800 C 82.583 65.460,81.908 66.000,81.699 66.000 C 81.490 66.000,80.784 66.495,80.130 67.100 C 78.411 68.691,77.072 69.415,76.885 68.854 C 76.802 68.605,76.208 68.400,75.567 68.400 C 74.925 68.400,74.400 68.220,74.400 68.000 C 74.400 67.780,73.860 67.600,73.200 67.600 C 72.540 67.600,72.000 67.420,72.000 67.200 C 72.000 66.980,71.471 66.800,70.824 66.800 C 70.177 66.800,69.536 66.620,69.400 66.400 C 69.264 66.180,68.623 66.000,67.976 66.000 C 67.329 66.000,66.800 65.820,66.800 65.600 C 66.800 65.380,66.260 65.200,65.600 65.200 C 64.940 65.200,64.400 65.020,64.400 64.800 C 64.400 64.580,63.860 64.400,63.200 64.400 C 61.972 64.400,61.398 65.981,62.400 66.600 C 62.620 66.736,62.800 67.199,62.800 67.629 C 62.800 68.384,62.944 68.774,63.938 70.695 C 64.192 71.187,64.400 71.941,64.400 72.371 C 64.400 72.801,64.580 73.264,64.800 73.400 C 65.020 73.536,65.200 73.997,65.200 74.424 C 65.200 74.851,65.380 75.200,65.600 75.200 C 65.820 75.200,66.000 75.740,66.000 76.400 C 66.000 77.060,66.180 77.600,66.400 77.600 C 67.179 77.600,66.847 80.589,66.000 81.200 C 65.560 81.517,65.200 82.025,65.200 82.328 C 65.200 82.631,64.660 83.383,64.000 84.000 C 63.340 84.617,62.800 85.327,62.800 85.579 C 62.800 85.830,62.350 86.486,61.800 87.036 C 61.250 87.586,60.800 88.195,60.800 88.390 C 60.800 88.584,60.573 88.981,60.295 89.271 C 56.824 92.903,57.301 93.200,66.600 93.200 C 73.788 93.200,74.800 93.278,74.800 93.829 C 74.800 94.174,75.025 94.708,75.300 95.015 C 76.194 96.012,76.590 96.581,77.168 97.700 C 77.480 98.305,77.885 98.800,78.068 98.800 C 78.250 98.800,78.400 99.043,78.400 99.341 C 78.400 99.638,78.895 100.406,79.500 101.048 C 80.105 101.689,80.855 102.706,81.168 103.307 C 81.480 103.908,81.885 104.400,82.068 104.400 C 82.250 104.400,82.400 104.658,82.400 104.973 C 82.400 105.615,83.775 106.186,84.396 105.802 C 84.618 105.665,84.800 105.124,84.800 104.600 C 84.800 104.076,84.980 103.536,85.200 103.400 C 85.420 103.264,85.600 102.533,85.600 101.776 C 85.600 101.019,85.780 100.400,86.000 100.400 C 86.220 100.400,86.400 99.860,86.400 99.200 C 86.400 98.540,86.580 98.000,86.800 98.000 C 87.020 98.000,87.200 97.471,87.200 96.824 C 87.200 96.177,87.380 95.536,87.600 95.400 C 87.820 95.264,88.000 94.711,88.000 94.171 C 88.000 93.631,88.167 92.877,88.371 92.495 C 88.575 92.113,88.839 91.485,88.958 91.100 C 89.088 90.681,89.571 90.400,90.164 90.400 C 90.708 90.400,91.264 90.220,91.400 90.000 C 91.536 89.780,92.177 89.600,92.824 89.600 C 93.471 89.600,94.000 89.420,94.000 89.200 C 94.000 88.980,94.540 88.800,95.200 88.800 C 95.860 88.800,96.400 88.620,96.400 88.400 C 96.400 88.180,96.940 88.000,97.600 88.000 C 98.260 88.000,98.800 87.820,98.800 87.600 C 98.800 87.380,99.329 87.200,99.976 87.200 C 100.623 87.200,101.264 87.020,101.400 86.800 C 101.536 86.580,102.087 86.400,102.624 86.400 C 103.406 86.400,103.600 86.195,103.600 85.371 C 103.600 84.257,102.781 83.200,101.917 83.200 C 101.620 83.200,101.117 82.840,100.800 82.400 C 100.483 81.960,99.985 81.600,99.694 81.600 C 99.402 81.600,98.714 81.150,98.164 80.600 C 97.614 80.050,97.020 79.600,96.844 79.600 C 96.668 79.600,96.001 79.150,95.362 78.600 C 94.723 78.051,93.975 77.601,93.700 77.600 C 93.425 77.600,93.200 77.450,93.200 77.268 C 93.200 77.085,92.750 76.694,92.200 76.400 L 91.200 75.865 91.200 68.181 C 91.200 59.787,90.967 58.840,89.284 60.407 M202.000 84.305 C 202.000 84.473,201.595 84.788,201.100 85.005 C 200.605 85.222,200.022 85.805,199.805 86.300 C 199.588 86.795,199.273 87.200,199.105 87.200 C 198.937 87.200,198.800 87.549,198.800 87.976 C 198.800 88.403,198.620 88.864,198.400 89.000 C 198.140 89.160,198.000 97.871,198.000 113.824 C 198.000 129.941,198.138 138.400,198.400 138.400 C 198.620 138.400,198.800 138.734,198.800 139.142 C 198.800 139.871,199.821 141.124,201.536 142.500 C 202.515 143.285,208.400 143.542,208.400 142.800 C 208.400 142.580,208.670 142.400,209.000 142.400 C 209.330 142.400,209.600 142.232,209.600 142.027 C 209.600 141.822,209.960 141.540,210.400 141.400 C 210.840 141.260,211.200 140.798,211.200 140.373 C 211.200 139.948,211.380 139.600,211.600 139.600 C 211.863 139.600,212.000 130.677,212.000 113.632 L 212.000 87.663 210.168 85.832 L 208.337 84.000 205.168 84.000 C 203.426 84.000,202.000 84.137,202.000 84.305 M246.800 86.800 C 246.800 87.020,246.530 87.200,246.200 87.200 C 245.870 87.200,245.600 87.380,245.600 87.600 C 245.600 87.820,245.330 88.000,245.000 88.000 C 244.670 88.000,244.400 88.167,244.400 88.371 C 244.400 88.576,244.153 88.990,243.852 89.291 C 243.095 90.047,242.000 92.230,242.000 92.980 C 242.000 93.321,241.820 93.600,241.600 93.600 C 241.380 93.600,241.200 93.960,241.200 94.400 C 241.200 94.840,241.065 95.201,240.900 95.201 C 240.735 95.202,240.150 96.192,239.600 97.400 C 239.050 98.608,238.465 99.598,238.300 99.599 C 238.135 99.599,238.000 99.960,238.000 100.400 C 238.000 100.840,237.820 101.200,237.600 101.200 C 237.380 101.200,237.200 101.560,237.200 102.000 C 237.200 102.440,237.020 102.800,236.800 102.800 C 236.580 102.800,236.400 103.160,236.400 103.600 C 236.400 104.040,236.220 104.400,236.000 104.400 C 235.780 104.400,235.600 104.760,235.600 105.200 C 235.600 105.640,235.420 106.000,235.200 106.000 C 234.980 106.000,234.800 106.360,234.800 106.800 C 234.800 107.240,234.620 107.600,234.400 107.600 C 234.180 107.600,234.000 107.945,234.000 108.367 C 234.000 108.788,233.863 109.193,233.696 109.267 C 233.529 109.340,232.586 111.020,231.600 113.000 C 230.614 114.980,229.671 116.660,229.504 116.733 C 229.337 116.807,229.200 117.212,229.200 117.633 C 229.200 118.055,229.020 118.400,228.800 118.400 C 228.580 118.400,228.400 118.617,228.400 118.882 C 228.400 119.146,227.590 121.028,226.600 123.063 C 225.610 125.098,224.800 126.952,224.800 127.182 C 224.800 127.412,224.620 127.600,224.400 127.600 C 224.180 127.600,224.000 127.960,224.000 128.400 C 224.000 128.840,223.820 129.200,223.600 129.200 C 223.380 129.200,223.200 129.560,223.200 130.000 C 223.200 130.440,223.020 130.800,222.800 130.800 C 222.567 130.800,222.400 132.133,222.400 134.000 C 222.400 135.867,222.567 137.200,222.800 137.200 C 223.020 137.200,223.200 137.494,223.200 137.853 C 223.200 138.672,224.588 139.898,226.349 140.635 C 227.894 141.282,231.600 141.398,231.600 140.800 C 231.600 140.580,231.960 140.400,232.400 140.400 C 232.840 140.400,233.200 140.232,233.200 140.027 C 233.200 139.822,233.560 139.540,234.000 139.400 C 234.440 139.260,234.800 138.903,234.800 138.606 C 234.800 138.310,234.936 138.007,235.102 137.933 C 235.569 137.727,241.600 125.758,241.600 125.037 C 241.600 124.687,241.780 124.400,242.000 124.400 C 242.220 124.400,242.400 124.040,242.400 123.600 C 242.400 123.160,242.546 122.800,242.725 122.800 C 242.904 122.800,243.298 122.170,243.600 121.400 C 243.902 120.630,244.296 120.000,244.475 120.000 C 244.654 120.000,244.800 119.640,244.800 119.200 C 244.800 118.760,244.980 118.400,245.200 118.400 C 245.420 118.400,245.600 118.040,245.600 117.600 C 245.600 117.160,245.780 116.800,246.000 116.800 C 246.220 116.800,246.400 116.440,246.400 116.000 C 246.400 115.560,246.580 115.200,246.800 115.200 C 247.020 115.200,247.200 114.840,247.200 114.400 C 247.200 113.960,247.380 113.600,247.600 113.600 C 247.820 113.600,248.000 113.240,248.000 112.800 C 248.000 112.360,248.180 112.000,248.400 112.000 C 248.620 112.000,248.800 111.640,248.800 111.200 C 248.800 110.760,248.980 110.400,249.200 110.400 C 249.420 110.400,249.600 110.040,249.600 109.600 C 249.600 109.160,249.780 108.800,250.000 108.800 C 250.220 108.800,250.400 108.440,250.400 108.000 C 250.400 107.560,250.535 107.199,250.700 107.199 C 250.865 107.198,251.450 106.208,252.000 105.000 C 252.550 103.792,253.135 102.802,253.300 102.801 C 253.465 102.801,253.600 102.440,253.600 102.000 C 253.600 101.560,253.780 101.200,254.000 101.200 C 254.220 101.200,254.400 100.840,254.400 100.400 C 254.400 99.960,254.580 99.600,254.800 99.600 C 255.020 99.600,255.200 99.240,255.200 98.800 C 255.200 98.360,255.380 98.000,255.600 98.000 C 255.820 98.000,256.000 97.651,256.000 97.224 C 256.000 96.797,256.180 96.336,256.400 96.200 C 258.016 95.201,256.100 88.465,253.926 87.503 C 253.307 87.229,252.800 86.869,252.800 86.702 C 252.800 86.536,251.450 86.400,249.800 86.400 C 248.067 86.400,246.800 86.569,246.800 86.800 M148.000 88.400 C 148.000 88.620,147.766 88.800,147.480 88.800 C 144.633 88.800,141.352 96.411,143.600 97.800 C 143.820 97.936,144.000 98.397,144.000 98.824 C 144.000 99.251,144.180 99.600,144.400 99.600 C 144.620 99.600,144.800 99.960,144.800 100.400 C 144.800 100.840,144.980 101.200,145.200 101.200 C 145.420 101.200,145.600 101.560,145.600 102.000 C 145.600 102.440,145.780 102.800,146.000 102.800 C 146.220 102.800,146.400 103.160,146.400 103.600 C 146.400 104.040,146.535 104.401,146.700 104.401 C 146.865 104.402,147.450 105.392,148.000 106.600 C 148.550 107.808,149.135 108.798,149.300 108.799 C 149.465 108.799,149.600 109.160,149.600 109.600 C 149.600 110.040,149.780 110.400,150.000 110.400 C 150.220 110.400,150.400 110.760,150.400 111.200 C 150.400 111.640,150.580 112.000,150.800 112.000 C 151.020 112.000,151.200 112.360,151.200 112.800 C 151.200 113.240,151.380 113.600,151.600 113.600 C 151.820 113.600,152.000 113.960,152.000 114.400 C 152.000 114.840,152.180 115.200,152.400 115.200 C 152.620 115.200,152.800 115.560,152.800 116.000 C 152.800 116.440,152.980 116.800,153.200 116.800 C 153.420 116.800,153.600 117.160,153.600 117.600 C 153.600 118.040,153.780 118.400,154.000 118.400 C 154.220 118.400,154.400 118.760,154.400 119.200 C 154.400 119.640,154.580 120.000,154.800 120.000 C 155.020 120.000,155.200 120.360,155.200 120.800 C 155.200 121.240,155.346 121.600,155.525 121.600 C 155.704 121.600,156.098 122.230,156.400 123.000 C 156.702 123.770,157.096 124.400,157.275 124.400 C 157.454 124.400,157.600 124.760,157.600 125.200 C 157.600 125.640,157.780 126.000,158.000 126.000 C 158.220 126.000,158.400 126.272,158.400 126.604 C 158.400 127.345,163.629 138.148,164.077 138.333 C 164.255 138.407,164.400 138.677,164.400 138.933 C 164.401 139.682,166.232 141.600,166.947 141.600 C 167.306 141.600,167.600 141.780,167.600 142.000 C 167.600 142.233,168.933 142.400,170.800 142.400 C 172.667 142.400,174.000 142.233,174.000 142.000 C 174.000 141.780,174.242 141.600,174.539 141.600 C 175.333 141.600,176.800 140.207,176.800 139.453 C 176.800 139.094,176.980 138.800,177.200 138.800 C 177.433 138.800,177.600 137.467,177.600 135.600 C 177.600 133.733,177.433 132.400,177.200 132.400 C 176.980 132.400,176.800 132.040,176.800 131.600 C 176.800 131.160,176.620 130.800,176.400 130.800 C 176.180 130.800,176.000 130.440,176.000 130.000 C 176.000 129.560,175.820 129.200,175.600 129.200 C 175.380 129.200,175.200 128.992,175.200 128.737 C 175.200 128.109,167.510 112.634,167.115 112.467 C 166.942 112.393,166.800 111.988,166.800 111.567 C 166.800 111.145,166.620 110.800,166.400 110.800 C 166.180 110.800,166.000 110.440,166.000 110.000 C 166.000 109.560,165.820 109.200,165.600 109.200 C 165.380 109.200,165.200 108.840,165.200 108.400 C 165.200 107.960,165.020 107.600,164.800 107.600 C 164.580 107.600,164.400 107.240,164.400 106.800 C 164.400 106.360,164.265 105.999,164.100 105.999 C 163.935 105.998,163.350 105.008,162.800 103.800 C 162.250 102.592,161.665 101.602,161.500 101.601 C 161.335 101.601,161.200 101.255,161.200 100.833 C 161.200 100.412,161.058 100.007,160.885 99.933 C 160.712 99.860,160.067 98.720,159.451 97.400 C 156.997 92.136,156.552 91.351,155.313 90.100 C 154.606 89.385,153.751 88.800,153.413 88.800 C 153.076 88.800,152.800 88.620,152.800 88.400 C 152.800 88.178,151.733 88.000,150.400 88.000 C 149.067 88.000,148.000 88.178,148.000 88.400 M288.000 96.800 C 288.000 97.020,287.640 97.200,287.200 97.200 C 286.760 97.200,286.400 97.380,286.400 97.600 C 286.400 97.820,286.151 98.000,285.846 98.000 C 285.541 98.000,284.969 98.493,284.573 99.097 C 284.178 99.700,282.988 101.038,281.927 102.071 C 280.867 103.103,280.000 104.111,280.000 104.310 C 280.000 104.510,279.235 105.489,278.300 106.488 C 276.001 108.942,274.800 110.362,274.800 110.625 C 274.800 110.746,273.720 111.904,272.400 113.200 C 271.080 114.496,270.000 115.725,270.000 115.931 C 270.000 116.138,268.830 117.512,267.400 118.985 C 265.970 120.458,264.800 121.824,264.800 122.021 C 264.800 122.218,264.035 123.149,263.100 124.089 C 262.165 125.030,260.680 126.700,259.800 127.799 C 258.920 128.899,257.525 130.460,256.700 131.268 C 255.875 132.076,255.200 133.021,255.200 133.369 C 255.200 133.716,255.065 134.001,254.900 134.003 C 254.735 134.005,254.375 134.491,254.100 135.083 C 253.505 136.364,253.427 140.800,254.000 140.800 C 254.220 140.800,254.400 141.078,254.400 141.418 C 254.400 142.218,256.182 144.000,256.982 144.000 C 257.322 144.000,257.600 144.180,257.600 144.400 C 257.600 145.181,262.670 144.860,264.237 143.979 C 265.738 143.136,266.800 142.241,266.800 141.818 C 266.800 141.687,267.587 140.792,268.548 139.831 C 269.509 138.869,270.814 137.397,271.448 136.558 C 272.642 134.977,274.346 132.993,275.900 131.374 C 276.395 130.858,276.800 130.245,276.800 130.011 C 276.800 129.777,277.925 128.428,279.300 127.013 C 283.564 122.627,285.393 120.614,286.396 119.206 C 286.927 118.459,288.316 116.848,289.481 115.626 C 290.647 114.403,291.600 113.193,291.600 112.936 C 291.600 112.680,292.680 111.373,294.000 110.032 C 295.320 108.692,296.400 107.326,296.400 106.997 C 296.400 106.669,296.580 106.400,296.800 106.400 C 297.586 106.400,297.254 101.092,296.400 100.000 C 295.970 99.450,295.609 98.820,295.598 98.600 C 295.532 97.269,288.000 95.485,288.000 96.800 M106.000 98.400 C 106.000 98.620,105.717 98.800,105.371 98.800 C 104.563 98.800,103.600 99.763,103.600 100.571 C 103.600 100.917,103.420 101.200,103.200 101.200 C 102.980 101.200,102.800 101.549,102.800 101.976 C 102.800 102.403,102.620 102.864,102.400 103.000 C 102.180 103.136,102.000 103.957,102.000 104.824 C 102.000 105.691,102.180 106.400,102.400 106.400 C 102.620 106.400,102.800 106.823,102.800 107.339 C 102.800 107.940,103.665 109.187,105.200 110.800 C 106.520 112.187,107.600 113.481,107.600 113.675 C 107.600 114.019,108.112 114.637,110.610 117.307 C 111.275 118.018,112.126 119.038,112.499 119.574 C 113.324 120.756,116.515 124.336,119.900 127.877 C 121.275 129.316,122.400 130.658,122.400 130.860 C 122.400 131.062,122.985 131.815,123.700 132.534 C 124.415 133.253,125.540 134.541,126.200 135.396 C 128.044 137.785,130.086 140.077,131.300 141.123 C 131.905 141.645,132.400 142.241,132.400 142.449 C 132.400 143.067,135.122 145.600,135.787 145.600 C 136.124 145.600,136.400 145.780,136.400 146.000 C 136.400 146.580,141.843 146.496,142.883 145.900 C 144.265 145.108,145.600 143.692,145.600 143.018 C 145.600 142.678,145.780 142.400,146.000 142.400 C 146.573 142.400,146.495 137.964,145.900 136.683 C 145.625 136.091,145.265 135.605,145.100 135.603 C 144.935 135.601,144.800 135.330,144.800 135.000 C 144.800 134.670,144.620 134.400,144.400 134.400 C 144.180 134.400,144.000 134.220,144.000 134.000 C 144.000 133.781,143.255 132.836,142.344 131.900 C 141.433 130.965,140.010 129.300,139.182 128.200 C 138.354 127.100,137.034 125.660,136.247 125.000 C 135.461 124.340,134.813 123.599,134.809 123.354 C 134.804 123.108,133.540 121.599,132.000 120.000 C 130.460 118.401,129.200 116.925,129.200 116.720 C 129.200 116.516,128.345 115.505,127.300 114.474 C 126.255 113.443,124.866 111.880,124.214 111.000 C 123.562 110.120,122.386 108.770,121.601 108.000 C 120.816 107.230,119.732 105.970,119.191 105.200 C 118.650 104.430,116.904 102.495,115.310 100.900 L 112.413 98.000 109.206 98.000 C 107.335 98.000,106.000 98.167,106.000 98.400 M214.000 154.800 C 214.000 155.020,213.736 155.200,213.414 155.200 C 207.413 155.200,197.397 164.748,195.372 172.400 C 189.544 194.415,215.667 211.080,233.229 196.552 C 246.472 185.598,242.986 162.632,227.200 156.821 C 226.430 156.538,225.233 156.057,224.540 155.753 C 223.846 155.449,223.081 155.200,222.840 155.200 C 222.598 155.200,222.400 155.020,222.400 154.800 C 222.400 154.559,220.733 154.400,218.200 154.400 C 215.667 154.400,214.000 154.559,214.000 154.800 M265.094 180.411 C 258.046 182.186,253.092 191.348,255.920 197.377 C 256.184 197.940,256.605 198.840,256.855 199.377 C 260.163 206.476,271.478 208.042,277.313 202.207 C 286.440 193.080,277.575 177.267,265.094 180.411 M160.800 196.659 C 138.195 199.101,131.859 230.106,151.805 240.672 C 176.502 253.754,199.125 221.783,178.813 202.504 C 174.614 198.518,166.865 196.004,160.800 196.659 M225.751 237.390 C 211.290 240.929,203.862 257.008,210.410 270.600 C 218.932 288.289,244.702 287.937,252.884 270.020 C 260.898 252.471,244.535 232.793,225.751 237.390 M194.400 301.679 C 179.787 307.243,180.060 327.748,194.817 333.013 C 196.952 333.775,203.298 333.874,205.030 333.173 C 210.965 330.769,213.824 327.876,216.031 322.043 C 220.555 310.084,206.666 297.009,194.400 301.679 " stroke="none" fill="#fbc126" fill-rule="evenodd"></path><path id="path2" d="M212.800 154.800 C 212.800 155.020,213.070 155.200,213.400 155.200 C 213.730 155.200,214.000 155.020,214.000 154.800 C 214.000 154.580,213.730 154.400,213.400 154.400 C 213.070 154.400,212.800 154.580,212.800 154.800 M222.400 154.800 C 222.400 155.020,222.598 155.200,222.840 155.200 C 223.081 155.200,223.846 155.449,224.540 155.753 C 225.233 156.057,226.430 156.538,227.200 156.821 C 233.453 159.123,239.247 165.956,240.966 173.055 C 241.369 174.723,241.541 175.053,241.561 174.200 C 241.607 172.207,239.915 167.873,237.970 165.000 C 235.970 162.045,230.959 157.600,229.628 157.600 C 229.393 157.600,229.200 157.420,229.200 157.200 C 229.200 156.980,228.935 156.800,228.612 156.800 C 228.289 156.800,227.383 156.440,226.600 156.000 C 225.817 155.560,224.821 155.200,224.388 155.200 C 223.955 155.200,223.600 155.020,223.600 154.800 C 223.600 154.580,223.330 154.400,223.000 154.400 C 222.670 154.400,222.400 154.580,222.400 154.800 M210.400 155.600 C 210.400 155.820,210.135 156.000,209.812 156.000 C 209.281 156.000,208.357 156.451,205.585 158.062 C 203.227 159.433,200.195 162.172,198.814 164.179 C 197.244 166.462,195.999 168.737,196.006 169.312 C 196.010 169.580,196.669 168.630,197.472 167.200 C 200.214 162.315,204.205 159.024,211.200 155.880 C 212.577 155.262,212.582 155.251,211.500 155.226 C 210.895 155.212,210.400 155.380,210.400 155.600 M195.467 170.267 C 195.320 170.413,195.200 170.917,195.200 171.387 C 195.200 171.856,195.043 172.411,194.850 172.620 C 194.658 172.829,194.407 174.530,194.293 176.400 C 194.099 179.576,194.110 179.642,194.462 177.400 C 194.669 176.080,195.089 173.925,195.397 172.611 C 195.955 170.224,195.969 169.765,195.467 170.267 M241.516 179.200 C 241.110 186.412,238.251 192.399,233.229 196.552 C 219.167 208.185,197.468 199.974,194.824 182.020 L 194.498 179.800 194.449 181.572 C 194.371 184.384,196.542 189.923,198.919 192.980 C 211.048 208.572,234.747 204.314,241.109 185.400 C 241.850 183.195,242.439 177.850,242.077 176.600 C 241.801 175.642,241.687 176.167,241.516 179.200 M264.400 180.081 C 263.850 180.316,262.774 180.782,262.010 181.116 C 252.214 185.395,252.594 200.345,262.622 205.181 C 265.122 206.387,271.184 206.997,271.739 206.099 C 271.841 205.933,270.367 205.798,268.462 205.799 C 263.410 205.800,258.611 203.145,256.855 199.377 C 256.605 198.840,256.184 197.940,255.920 197.377 C 253.515 192.250,257.055 183.956,262.800 181.256 C 277.792 174.211,288.732 196.950,274.034 204.607 C 273.025 205.133,272.480 205.571,272.822 205.581 C 274.948 205.645,279.516 201.140,280.797 197.717 C 283.543 190.376,279.978 183.311,271.881 180.051 C 270.487 179.489,265.741 179.509,264.400 180.081 M158.000 196.605 C 151.494 198.434,147.739 200.941,143.587 206.226 C 142.915 207.081,140.787 211.384,139.941 213.600 C 139.128 215.725,139.254 224.464,140.133 226.945 C 142.937 234.865,147.563 239.675,155.400 242.819 C 159.131 244.316,167.158 244.313,171.000 242.814 C 172.832 242.098,175.837 240.570,176.329 240.102 C 176.619 239.826,177.014 239.600,177.206 239.600 C 179.789 239.600,186.838 228.233,186.756 224.200 C 186.740 223.414,186.474 223.995,185.986 225.884 C 179.123 252.441,139.844 247.432,139.844 220.000 C 139.844 197.797,167.133 188.284,181.641 205.430 C 183.664 207.821,185.168 211.064,186.360 215.600 C 186.693 216.865,186.731 216.896,186.764 215.918 C 186.784 215.323,186.373 213.660,185.851 212.222 C 181.690 200.758,168.846 193.556,158.000 196.605 M186.934 220.000 C 186.934 221.650,187.005 222.325,187.091 221.500 C 187.178 220.675,187.178 219.325,187.091 218.500 C 187.005 217.675,186.934 218.350,186.934 220.000 M225.154 237.005 C 219.843 238.461,214.770 242.141,211.651 246.800 C 209.832 249.517,209.180 250.900,208.055 254.428 C 207.491 256.200,207.445 265.457,208.000 265.800 C 208.220 265.936,208.400 266.566,208.400 267.200 C 208.400 267.834,208.580 268.464,208.800 268.600 C 209.020 268.736,209.200 269.197,209.200 269.624 C 209.200 270.051,209.338 270.400,209.506 270.400 C 209.674 270.400,210.108 271.075,210.472 271.900 C 215.447 283.201,232.038 287.744,243.595 280.971 C 248.175 278.287,255.032 270.069,254.036 268.458 C 253.866 268.184,253.414 268.767,252.919 269.899 C 245.044 287.894,218.949 288.325,210.410 270.600 C 204.635 258.614,209.416 244.790,221.326 239.039 C 232.693 233.550,246.891 238.461,252.429 249.800 C 253.289 251.560,253.994 252.760,253.996 252.466 C 254.019 249.311,247.105 241.243,242.367 238.896 C 237.429 236.449,230.114 235.646,225.154 237.005 M254.203 254.240 C 254.379 254.878,254.637 257.380,254.777 259.800 C 254.990 263.472,255.087 263.948,255.365 262.678 C 255.548 261.840,255.592 260.310,255.464 259.278 C 254.898 254.727,254.669 253.566,254.289 253.331 C 254.024 253.168,253.994 253.483,254.203 254.240 M254.266 265.741 C 254.092 266.588,254.046 267.379,254.165 267.498 C 254.527 267.861,254.868 266.537,254.722 265.334 C 254.594 264.278,254.563 264.305,254.266 265.741 M196.843 300.433 C 177.018 304.326,179.776 334.400,199.958 334.400 C 205.107 334.400,214.400 329.422,214.400 326.664 C 214.400 326.477,214.726 325.846,215.125 325.262 C 217.495 321.794,217.724 314.620,215.606 310.200 C 212.150 302.989,204.392 298.950,196.843 300.433 M204.554 301.280 C 213.220 303.804,218.985 314.233,216.031 322.043 C 213.824 327.876,210.965 330.769,205.030 333.173 C 200.083 335.177,191.708 332.772,187.675 328.191 C 176.914 315.965,188.972 296.741,204.554 301.280 " stroke="none" fill="#c4e8a0" fill-rule="evenodd"></path><path id="path3" d="" stroke="none" fill="#c4eca0" fill-rule="evenodd"></path><path id="path4" d="M212.800 154.800 C 212.800 155.020,213.070 155.200,213.400 155.200 C 213.730 155.200,214.000 155.020,214.000 154.800 C 214.000 154.580,213.730 154.400,213.400 154.400 C 213.070 154.400,212.800 154.580,212.800 154.800 M222.400 154.800 C 222.400 155.020,222.598 155.200,222.840 155.200 C 223.081 155.200,223.846 155.449,224.540 155.753 C 225.233 156.057,226.430 156.538,227.200 156.821 C 233.453 159.123,239.247 165.956,240.966 173.055 C 241.369 174.723,241.541 175.053,241.561 174.200 C 241.607 172.207,239.915 167.873,237.970 165.000 C 235.970 162.045,230.959 157.600,229.628 157.600 C 229.393 157.600,229.200 157.420,229.200 157.200 C 229.200 156.980,228.935 156.800,228.612 156.800 C 228.289 156.800,227.383 156.440,226.600 156.000 C 225.817 155.560,224.821 155.200,224.388 155.200 C 223.955 155.200,223.600 155.020,223.600 154.800 C 223.600 154.580,223.330 154.400,223.000 154.400 C 222.670 154.400,222.400 154.580,222.400 154.800 M210.400 155.600 C 210.400 155.820,210.135 156.000,209.812 156.000 C 209.281 156.000,208.357 156.451,205.585 158.062 C 203.227 159.433,200.195 162.172,198.814 164.179 C 197.244 166.462,195.999 168.737,196.006 169.312 C 196.010 169.580,196.669 168.630,197.472 167.200 C 200.214 162.315,204.205 159.024,211.200 155.880 C 212.577 155.262,212.582 155.251,211.500 155.226 C 210.895 155.212,210.400 155.380,210.400 155.600 M195.467 170.267 C 195.320 170.413,195.200 170.917,195.200 171.387 C 195.200 171.856,195.043 172.411,194.850 172.620 C 194.658 172.829,194.407 174.530,194.293 176.400 C 194.099 179.576,194.110 179.642,194.462 177.400 C 194.669 176.080,195.089 173.925,195.397 172.611 C 195.955 170.224,195.969 169.765,195.467 170.267 M241.516 179.200 C 241.110 186.412,238.251 192.399,233.229 196.552 C 219.167 208.185,197.468 199.974,194.824 182.020 L 194.498 179.800 194.449 181.572 C 194.371 184.384,196.542 189.923,198.919 192.980 C 211.048 208.572,234.747 204.314,241.109 185.400 C 241.850 183.195,242.439 177.850,242.077 176.600 C 241.801 175.642,241.687 176.167,241.516 179.200 M264.400 180.081 C 263.850 180.316,262.774 180.782,262.010 181.116 C 252.214 185.395,252.594 200.345,262.622 205.181 C 265.122 206.387,271.184 206.997,271.739 206.099 C 271.841 205.933,270.367 205.798,268.462 205.799 C 263.410 205.800,258.611 203.145,256.855 199.377 C 256.605 198.840,256.184 197.940,255.920 197.377 C 253.515 192.250,257.055 183.956,262.800 181.256 C 277.792 174.211,288.732 196.950,274.034 204.607 C 273.025 205.133,272.480 205.571,272.822 205.581 C 274.948 205.645,279.516 201.140,280.797 197.717 C 283.543 190.376,279.978 183.311,271.881 180.051 C 270.487 179.489,265.741 179.509,264.400 180.081 M158.000 196.605 C 151.494 198.434,147.739 200.941,143.587 206.226 C 142.915 207.081,140.787 211.384,139.941 213.600 C 139.128 215.725,139.254 224.464,140.133 226.945 C 142.937 234.865,147.563 239.675,155.400 242.819 C 159.131 244.316,167.158 244.313,171.000 242.814 C 172.832 242.098,175.837 240.570,176.329 240.102 C 176.619 239.826,177.014 239.600,177.206 239.600 C 179.789 239.600,186.838 228.233,186.756 224.200 C 186.740 223.414,186.474 223.995,185.986 225.884 C 179.123 252.441,139.844 247.432,139.844 220.000 C 139.844 197.797,167.133 188.284,181.641 205.430 C 183.664 207.821,185.168 211.064,186.360 215.600 C 186.693 216.865,186.731 216.896,186.764 215.918 C 186.784 215.323,186.373 213.660,185.851 212.222 C 181.690 200.758,168.846 193.556,158.000 196.605 M186.934 220.000 C 186.934 221.650,187.005 222.325,187.091 221.500 C 187.178 220.675,187.178 219.325,187.091 218.500 C 187.005 217.675,186.934 218.350,186.934 220.000 M225.154 237.005 C 219.843 238.461,214.770 242.141,211.651 246.800 C 209.832 249.517,209.180 250.900,208.055 254.428 C 207.491 256.200,207.445 265.457,208.000 265.800 C 208.220 265.936,208.400 266.566,208.400 267.200 C 208.400 267.834,208.580 268.464,208.800 268.600 C 209.020 268.736,209.200 269.197,209.200 269.624 C 209.200 270.051,209.338 270.400,209.506 270.400 C 209.674 270.400,210.108 271.075,210.472 271.900 C 215.447 283.201,232.038 287.744,243.595 280.971 C 248.175 278.287,255.032 270.069,254.036 268.458 C 253.866 268.184,253.414 268.767,252.919 269.899 C 245.044 287.894,218.949 288.325,210.410 270.600 C 204.635 258.614,209.416 244.790,221.326 239.039 C 232.693 233.550,246.891 238.461,252.429 249.800 C 253.289 251.560,253.994 252.760,253.996 252.466 C 254.019 249.311,247.105 241.243,242.367 238.896 C 237.429 236.449,230.114 235.646,225.154 237.005 M254.203 254.240 C 254.379 254.878,254.637 257.380,254.777 259.800 C 254.990 263.472,255.087 263.948,255.365 262.678 C 255.548 261.840,255.592 260.310,255.464 259.278 C 254.898 254.727,254.669 253.566,254.289 253.331 C 254.024 253.168,253.994 253.483,254.203 254.240 M254.266 265.741 C 254.092 266.588,254.046 267.379,254.165 267.498 C 254.527 267.861,254.868 266.537,254.722 265.334 C 254.594 264.278,254.563 264.305,254.266 265.741 M196.843 300.433 C 177.018 304.326,179.776 334.400,199.958 334.400 C 205.107 334.400,214.400 329.422,214.400 326.664 C 214.400 326.477,214.726 325.846,215.125 325.262 C 217.495 321.794,217.724 314.620,215.606 310.200 C 212.150 302.989,204.392 298.950,196.843 300.433 M204.554 301.280 C 213.220 303.804,218.985 314.233,216.031 322.043 C 213.824 327.876,210.965 330.769,205.030 333.173 C 200.083 335.177,191.708 332.772,187.675 328.191 C 176.914 315.965,188.972 296.741,204.554 301.280 " stroke="none" fill="#c4e8a0" fill-rule="evenodd"></path></g></svg>