<?xml version="1.0" standalone="no"?>
<!DOCTYPE svg PUBLIC "-//W3C//DTD SVG 20010904//EN"
 "http://www.w3.org/TR/2001/REC-SVG-20010904/DTD/svg10.dtd">
<svg version="1.0" xmlns="http://www.w3.org/2000/svg"
 width="512.000000pt" height="512.000000pt" viewBox="0 0 512.000000 512.000000"
 preserveAspectRatio="xMidYMid meet">

<g transform="translate(0.000000,512.000000) scale(0.100000,-0.100000)"
fill="#000000" stroke="none">
<path d="M825 5105 c-206 -45 -375 -175 -464 -357 -83 -169 -76 31 -76 -2188
0 -2220 -7 -2019 77 -2190 32 -67 58 -102 122 -166 91 -90 172 -140 286 -176
l75 -23 1715 0 1715 0 75 23 c114 36 195 86 286 176 64 64 90 99 122 166 84
171 77 -30 77 2190 0 2220 7 2018 -76 2190 -58 119 -178 238 -299 297 -158 78
-39 73 -1907 72 -1344 0 -1680 -3 -1728 -14z m3453 -150 c187 -44 349 -204
391 -385 15 -62 15 -3958 0 -4020 -30 -132 -145 -278 -266 -339 -128 -64 -25
-61 -1834 -61 -1131 0 -1664 3 -1705 11 -191 34 -359 191 -409 380 -22 81 -22
3957 0 4038 24 90 65 161 134 231 72 74 176 131 266 148 30 6 710 10 1705 11
1427 1 1664 -1 1718 -14z"/>
<path d="M872 4705 c-63 -20 -126 -76 -159 -143 l-28 -57 0 -1387 c0 -1375 0
-1388 20 -1407 11 -11 34 -23 52 -27 26 -5 37 -1 57 19 l26 26 0 1374 0 1374
23 34 c13 19 38 39 57 46 27 9 424 12 1643 12 1727 1 1646 3 1692 -49 20 -22
20 -36 20 -1760 0 -1724 0 -1738 -20 -1760 -46 -52 35 -50 -1692 -49 -1219 0
-1616 3 -1643 12 -19 7 -44 27 -57 46 -22 33 -23 42 -23 247 0 135 -4 222 -11
237 -22 48 -89 56 -126 15 -16 -18 -18 -43 -18 -257 l0 -237 30 -59 c37 -73
108 -130 180 -145 35 -8 550 -10 1695 -8 l1645 3 41 22 c67 36 101 70 131 131
l28 57 0 1745 0 1745 -21 45 c-30 65 -69 107 -128 138 l-51 27 -1660 2 c-1365
1 -1668 -1 -1703 -12z"/>
<path d="M2167 4086 c-86 -31 -157 -115 -177 -210 -8 -35 -10 -217 -8 -581 3
-516 4 -531 24 -576 26 -55 80 -111 137 -141 61 -32 184 -32 245 0 104 55 830
517 864 549 107 104 110 290 6 394 -56 57 -266 182 -302 181 -53 -1 -83 -62
-56 -112 5 -10 62 -51 125 -91 136 -84 155 -105 155 -166 0 -68 -20 -95 -117
-155 -48 -31 -236 -148 -417 -261 -181 -114 -343 -209 -361 -213 -44 -8 -100
18 -125 58 -19 32 -20 49 -20 571 l0 537 33 36 c28 31 41 37 83 41 48 4 53 2
234 -112 102 -63 196 -118 208 -122 16 -4 33 1 50 14 34 25 43 91 15 114 -31
27 -343 220 -387 240 -49 22 -153 25 -209 5z"/>
<path d="M1763 2066 c-25 -22 -28 -31 -31 -105 -5 -91 9 -124 55 -142 32 -12
79 4 93 32 14 26 12 181 -3 200 -15 19 -50 39 -71 39 -8 0 -27 -11 -43 -24z"/>
<path d="M3275 2078 c-37 -22 -44 -41 -45 -125 0 -97 4 -109 41 -129 34 -17
70 -10 96 18 28 31 26 189 -2 217 -26 26 -65 34 -90 19z"/>
<path d="M2470 2024 c-73 -10 -129 -35 -165 -75 -47 -53 -55 -76 -55 -164 0
-184 122 -323 292 -333 175 -11 314 118 326 303 2 40 2 89 -2 108 -10 51 -76
122 -133 141 -47 16 -200 28 -263 20z"/>
<path d="M2518 536 c-56 -42 -28 -135 42 -135 70 0 99 93 42 135 -22 17 -62
17 -84 0z"/>
</g>
</svg>
