<svg id="svg" version="1.1" xmlns="http://www.w3.org/2000/svg" xmlns:xlink="http://www.w3.org/1999/xlink" width="400" height="400" viewBox="0, 0, 400,400"><g id="svgg"><path id="path0" d="M206.200 92.000 C 206.064 92.220,205.595 92.400,205.157 92.400 C 202.714 92.400,197.801 97.024,195.852 101.158 L 194.606 103.800 194.403 143.800 C 194.282 167.696,194.059 183.317,193.850 182.600 C 192.421 177.706,187.940 173.434,182.372 171.656 C 180.610 171.094,175.338 171.054,175.000 171.600 C 174.864 171.820,174.437 172.000,174.051 172.000 C 170.650 172.000,163.200 179.549,163.200 182.996 C 163.200 183.940,162.083 183.704,161.801 182.700 C 159.171 173.343,148.591 168.695,139.624 172.956 C 135.936 174.709,131.200 180.443,131.200 183.156 C 131.200 184.271,130.474 184.236,130.035 183.100 C 128.655 179.528,127.918 178.321,125.792 176.149 C 116.316 166.473,100.970 171.791,98.845 185.487 C 98.050 190.606,98.677 255.657,99.570 260.800 C 100.244 264.682,100.818 267.632,101.205 269.200 C 101.394 269.970,101.758 271.500,102.012 272.600 C 102.266 273.700,102.617 274.960,102.791 275.400 C 102.966 275.840,103.330 277.010,103.600 278.000 C 104.105 279.849,104.360 280.593,105.146 282.500 C 105.396 283.105,105.761 284.005,105.958 284.500 C 106.415 285.649,108.087 289.340,109.491 292.300 C 110.091 293.565,111.891 296.918,113.491 299.751 C 115.091 302.584,116.400 304.966,116.400 305.044 C 116.400 305.121,117.138 306.763,118.039 308.693 C 118.941 310.622,119.841 312.605,120.039 313.100 C 121.001 315.498,121.321 316.254,121.647 316.895 C 121.841 317.277,122.000 317.941,122.000 318.371 C 122.000 318.801,122.159 319.251,122.354 319.371 C 122.549 319.492,122.804 320.087,122.921 320.695 C 123.038 321.303,123.341 322.520,123.594 323.400 C 124.983 328.238,126.245 334.532,126.883 339.800 C 127.095 341.560,127.337 352.360,127.420 363.800 C 127.563 383.382,127.613 384.608,128.286 384.739 C 128.679 384.815,129.171 385.040,129.380 385.239 C 129.589 385.437,130.174 385.600,130.680 385.600 C 131.186 385.600,131.600 385.780,131.600 386.000 C 131.600 386.220,132.140 386.400,132.800 386.400 C 133.460 386.400,134.000 386.580,134.000 386.800 C 134.000 387.020,134.529 387.200,135.176 387.200 C 135.823 387.200,136.464 387.380,136.600 387.600 C 136.736 387.820,137.467 388.000,138.224 388.000 C 138.981 388.000,139.600 388.180,139.600 388.400 C 139.600 388.620,140.140 388.800,140.800 388.800 C 141.460 388.800,142.000 388.980,142.000 389.200 C 142.000 389.420,142.619 389.600,143.376 389.600 C 144.133 389.600,144.864 389.780,145.000 390.000 C 145.136 390.220,145.831 390.400,146.544 390.400 C 147.257 390.400,148.012 390.572,148.223 390.783 C 148.433 390.993,150.089 391.289,151.903 391.440 C 153.716 391.591,155.200 391.869,155.200 392.058 C 155.200 392.246,155.909 392.400,156.776 392.400 C 157.643 392.400,158.464 392.580,158.600 392.800 C 158.736 393.020,159.827 393.200,161.024 393.200 C 162.221 393.200,163.200 393.380,163.200 393.600 C 163.200 393.826,164.333 394.000,165.800 394.000 C 167.267 394.000,168.400 394.174,168.400 394.400 C 168.400 394.633,169.733 394.800,171.600 394.800 C 173.467 394.800,174.800 394.967,174.800 395.200 C 174.800 395.445,176.725 395.600,179.776 395.600 C 182.663 395.600,184.857 395.768,185.000 396.000 C 185.155 396.250,189.204 396.400,195.824 396.400 C 202.608 396.400,206.400 396.257,206.400 396.000 C 206.400 395.754,208.400 395.600,211.600 395.600 C 214.800 395.600,216.800 395.446,216.800 395.200 C 216.800 394.969,218.059 394.800,219.776 394.800 C 221.413 394.800,222.864 394.620,223.000 394.400 C 223.136 394.180,224.407 394.000,225.824 394.000 C 227.275 394.000,228.400 393.825,228.400 393.600 C 228.400 393.380,229.300 393.200,230.400 393.200 C 231.500 393.200,232.400 393.020,232.400 392.800 C 232.400 392.580,232.850 392.400,233.400 392.400 L 234.400 392.400 234.400 366.527 C 234.400 351.488,234.572 339.135,234.810 337.027 C 235.353 332.225,235.948 328.166,236.398 326.200 C 239.914 310.853,241.221 307.856,246.950 302.000 C 251.624 297.223,253.837 294.667,256.807 290.611 C 258.783 287.914,262.400 282.506,262.400 282.250 C 262.400 282.158,263.093 280.938,263.939 279.541 C 267.323 273.955,270.740 266.046,273.420 257.600 C 277.034 246.210,280.490 237.734,284.021 231.600 C 284.591 230.610,285.836 228.360,286.787 226.600 C 290.244 220.203,290.911 218.993,291.194 218.600 C 291.352 218.380,292.347 216.580,293.406 214.600 C 294.464 212.620,295.689 210.370,296.127 209.600 C 296.565 208.830,297.408 207.300,298.001 206.200 C 298.593 205.100,299.555 203.345,300.139 202.300 C 306.684 190.580,306.703 190.532,306.011 187.645 C 304.813 182.650,298.628 179.440,290.330 179.506 C 280.964 179.579,273.865 184.226,268.647 193.700 C 267.083 196.538,265.807 198.834,264.922 200.400 C 264.487 201.170,263.264 203.420,262.206 205.400 C 261.147 207.380,260.153 209.180,259.997 209.400 C 259.840 209.620,258.936 211.240,257.988 213.000 C 257.040 214.760,255.909 216.830,255.475 217.600 C 254.400 219.509,253.648 220.876,248.210 230.800 C 245.618 235.530,242.896 240.334,242.160 241.476 C 238.249 247.550,229.961 246.992,227.147 240.467 C 226.428 238.798,226.400 236.263,226.394 171.667 C 226.389 112.847,226.314 104.386,225.783 102.863 C 223.899 97.454,220.851 94.374,215.081 92.051 C 213.696 91.493,206.539 91.452,206.200 92.000 " stroke="none" fill="#f3beb3" fill-rule="evenodd"></path><path id="path1" d="M202.400 68.603 C 199.036 69.367,194.157 71.117,192.283 72.233 C 191.357 72.784,190.285 73.338,189.900 73.464 C 189.515 73.590,189.200 73.852,189.200 74.047 C 189.200 74.241,189.006 74.400,188.769 74.400 C 188.531 74.400,187.008 75.486,185.383 76.814 C 165.023 93.450,166.519 125.705,188.320 140.140 C 190.866 141.825,193.863 143.600,194.164 143.600 C 194.240 143.600,194.383 134.645,194.482 123.700 L 194.661 103.800 195.879 101.158 C 197.773 97.051,202.700 92.400,205.157 92.400 C 205.595 92.400,206.064 92.220,206.200 92.000 C 206.539 91.452,213.696 91.493,215.081 92.051 C 219.452 93.811,222.850 96.562,224.396 99.591 C 226.402 103.525,226.388 103.350,226.394 124.100 C 226.397 134.825,226.472 143.600,226.559 143.600 C 228.009 143.600,234.987 138.803,238.344 135.498 C 248.778 125.225,252.438 110.943,248.464 96.000 C 243.478 77.247,221.613 64.243,202.400 68.603 M352.658 82.993 C 352.452 83.530,347.785 83.600,312.091 83.600 L 271.757 83.600 269.877 84.792 C 264.572 88.156,264.875 95.582,270.434 98.418 C 271.930 99.181,273.099 99.200,317.735 99.200 C 357.929 99.200,363.563 99.273,364.000 99.800 C 364.604 100.528,394.000 100.724,394.000 100.000 C 394.000 99.780,394.468 99.600,395.040 99.600 C 395.762 99.600,396.688 98.978,398.074 97.563 L 400.069 95.526 399.934 91.183 L 399.800 86.840 397.892 85.064 C 396.843 84.088,395.403 83.149,394.692 82.978 C 391.933 82.314,352.913 82.328,352.658 82.993 M270.348 116.402 C 264.867 119.299,264.612 126.669,269.877 130.008 L 271.757 131.200 301.483 131.200 C 330.777 131.200,331.234 131.188,332.983 130.366 C 338.920 127.575,338.945 119.237,333.025 116.454 C 330.322 115.183,272.745 115.136,270.348 116.402 M340.277 225.868 C 338.238 226.213,335.754 229.077,335.214 231.705 C 334.508 235.146,334.816 254.587,335.602 256.200 C 338.408 261.955,345.803 262.283,349.144 256.800 C 350.304 254.896,350.481 232.112,349.353 229.880 C 348.537 228.264,347.211 226.800,346.564 226.800 C 346.290 226.800,346.007 226.626,345.933 226.414 C 345.778 225.964,341.914 225.590,340.277 225.868 M292.400 275.756 C 290.292 276.425,287.823 279.090,287.267 281.300 C 286.643 283.778,286.636 302.193,287.258 304.664 C 288.588 309.947,295.245 312.467,298.975 309.100 C 299.402 308.715,299.864 308.400,300.002 308.400 C 302.186 308.400,303.487 283.384,301.493 279.715 C 299.709 276.432,295.732 274.700,292.400 275.756 " stroke="none" fill="#73b3fb" fill-rule="evenodd"></path><path id="path2" d="M184.800 4.000 C 184.800 4.245,182.867 4.400,179.800 4.400 C 176.733 4.400,174.800 4.555,174.800 4.800 C 174.800 5.033,173.467 5.200,171.600 5.200 C 169.733 5.200,168.400 5.367,168.400 5.600 C 168.400 5.829,167.200 6.000,165.600 6.000 C 164.000 6.000,162.800 6.171,162.800 6.400 C 162.800 6.620,161.810 6.800,160.600 6.800 C 159.390 6.800,158.400 6.980,158.400 7.200 C 158.400 7.420,157.500 7.600,156.400 7.600 C 155.300 7.600,154.400 7.780,154.400 8.000 C 154.400 8.220,153.691 8.400,152.824 8.400 C 151.957 8.400,151.155 8.550,151.041 8.733 C 150.928 8.917,150.309 8.989,149.665 8.895 C 149.021 8.800,148.373 8.920,148.224 9.162 C 148.075 9.403,147.344 9.600,146.600 9.600 C 145.856 9.600,145.136 9.780,145.000 10.000 C 144.864 10.220,144.234 10.400,143.600 10.400 C 142.966 10.400,142.336 10.580,142.200 10.800 C 142.064 11.020,141.434 11.200,140.800 11.200 C 140.166 11.200,139.536 11.380,139.400 11.600 C 139.264 11.820,138.634 12.000,138.000 12.000 C 137.366 12.000,136.736 12.180,136.600 12.400 C 136.464 12.620,135.823 12.800,135.176 12.800 C 134.529 12.800,134.000 12.980,134.000 13.200 C 134.000 13.420,133.561 13.600,133.024 13.600 C 132.487 13.600,131.936 13.780,131.800 14.000 C 131.664 14.220,131.124 14.400,130.600 14.400 C 130.076 14.400,129.536 14.580,129.400 14.800 C 129.264 15.020,128.803 15.200,128.376 15.200 C 127.949 15.200,127.600 15.380,127.600 15.600 C 127.600 15.820,127.150 16.000,126.600 16.000 C 126.050 16.000,125.600 16.180,125.600 16.400 C 125.600 16.620,125.060 16.800,124.400 16.800 C 123.740 16.800,123.200 16.980,123.200 17.200 C 123.200 17.420,122.840 17.600,122.400 17.600 C 121.960 17.600,121.600 17.780,121.600 18.000 C 121.600 18.220,121.060 18.400,120.400 18.400 C 119.740 18.400,119.200 18.580,119.200 18.800 C 119.200 19.020,118.840 19.200,118.400 19.200 C 117.960 19.200,117.600 19.380,117.600 19.600 C 117.600 19.820,117.240 20.000,116.800 20.000 C 116.360 20.000,116.000 20.180,116.000 20.400 C 116.000 20.620,115.550 20.800,115.000 20.800 C 114.450 20.800,114.000 20.980,114.000 21.200 C 114.000 21.420,113.747 21.600,113.438 21.600 C 112.772 21.600,109.459 23.268,109.267 23.700 C 109.193 23.865,108.788 24.000,108.367 24.000 C 107.945 24.000,107.600 24.180,107.600 24.400 C 107.600 24.620,107.311 24.800,106.958 24.800 C 106.229 24.800,100.670 27.618,100.467 28.091 C 100.393 28.261,99.988 28.400,99.567 28.400 C 99.145 28.400,98.800 28.580,98.800 28.800 C 98.800 29.020,98.440 29.200,98.000 29.200 C 97.560 29.200,97.200 29.380,97.200 29.600 C 97.200 29.820,96.930 30.000,96.600 30.000 C 96.270 30.000,96.000 30.180,96.000 30.400 C 96.000 30.620,95.730 30.800,95.400 30.800 C 95.070 30.800,94.800 30.936,94.800 31.102 C 94.800 31.269,94.215 31.660,93.500 31.972 C 92.785 32.284,91.909 32.868,91.553 33.270 C 91.197 33.671,90.652 34.000,90.341 34.000 C 90.031 34.000,89.517 34.360,89.200 34.800 C 88.883 35.240,88.343 35.600,88.000 35.600 C 87.657 35.600,87.117 35.960,86.800 36.400 C 86.483 36.840,85.943 37.200,85.600 37.200 C 85.257 37.200,84.717 37.560,84.400 38.000 C 84.083 38.440,83.543 38.800,83.200 38.800 C 82.857 38.800,82.317 39.160,82.000 39.600 C 81.683 40.040,81.193 40.400,80.912 40.400 C 80.630 40.400,80.400 40.580,80.400 40.800 C 80.400 41.020,80.170 41.200,79.888 41.200 C 79.607 41.200,79.124 41.550,78.815 41.979 C 78.507 42.407,78.129 42.680,77.976 42.585 C 77.823 42.491,76.883 43.130,75.887 44.007 C 74.892 44.883,73.970 45.600,73.839 45.600 C 73.708 45.600,72.859 46.320,71.952 47.200 C 71.045 48.080,70.134 48.800,69.926 48.800 C 69.718 48.800,68.705 49.660,67.674 50.711 C 66.643 51.762,65.170 53.064,64.400 53.604 C 62.679 54.812,49.200 68.274,49.200 68.786 C 49.200 68.989,48.120 70.255,46.800 71.600 C 45.480 72.945,44.400 74.194,44.400 74.375 C 44.400 74.557,43.815 75.303,43.100 76.034 C 42.385 76.765,42.101 77.136,42.469 76.859 C 43.721 75.914,46.459 79.199,46.978 82.268 C 47.822 87.267,42.728 92.412,37.940 91.397 C 36.219 91.032,33.570 89.572,33.840 89.135 C 34.175 88.593,33.592 88.751,32.971 89.371 C 32.657 89.686,32.400 90.186,32.400 90.483 C 32.400 90.780,32.040 91.283,31.600 91.600 C 31.160 91.917,30.800 92.329,30.800 92.516 C 30.800 92.703,30.260 93.641,29.600 94.600 C 28.940 95.559,28.400 96.537,28.400 96.772 C 28.400 97.007,28.253 97.200,28.074 97.200 C 27.735 97.200,26.213 100.009,26.312 100.452 C 26.343 100.591,26.015 101.024,25.584 101.414 C 25.153 101.805,24.800 102.456,24.800 102.862 C 24.800 103.268,24.620 103.600,24.400 103.600 C 24.180 103.600,24.000 103.960,24.000 104.400 C 24.000 104.840,23.820 105.200,23.600 105.200 C 23.380 105.200,23.200 105.560,23.200 106.000 C 23.200 106.440,23.020 106.800,22.800 106.800 C 22.580 106.800,22.400 107.160,22.400 107.600 C 22.400 108.040,22.220 108.400,22.000 108.400 C 21.780 108.400,21.600 108.771,21.600 109.224 C 21.600 109.677,21.420 109.936,21.200 109.800 C 20.980 109.664,20.800 109.908,20.800 110.343 C 20.800 110.778,20.665 111.193,20.500 111.267 C 20.068 111.459,18.400 114.772,18.400 115.438 C 18.400 115.747,18.220 116.000,18.000 116.000 C 17.780 116.000,17.600 116.360,17.600 116.800 C 17.600 117.240,17.420 117.600,17.200 117.600 C 16.980 117.600,16.800 117.960,16.800 118.400 C 16.800 118.840,16.620 119.200,16.400 119.200 C 16.180 119.200,16.000 119.560,16.000 120.000 C 16.000 120.440,15.820 120.800,15.600 120.800 C 15.380 120.800,15.200 121.239,15.200 121.776 C 15.200 122.313,15.020 122.864,14.800 123.000 C 14.580 123.136,14.400 123.597,14.400 124.024 C 14.400 124.451,14.220 124.800,14.000 124.800 C 13.780 124.800,13.600 125.072,13.600 125.405 C 13.600 125.738,13.392 126.413,13.138 126.905 C 12.142 128.831,12.000 129.217,12.000 129.995 C 12.000 130.438,11.820 130.800,11.600 130.800 C 11.380 130.800,11.200 131.149,11.200 131.576 C 11.200 132.003,11.020 132.464,10.800 132.600 C 10.580 132.736,10.400 133.199,10.400 133.629 C 10.400 134.059,10.237 134.723,10.037 135.105 C 9.440 136.247,8.400 140.022,8.400 141.046 C 8.400 141.571,8.220 142.000,8.000 142.000 C 7.780 142.000,7.600 142.529,7.600 143.176 C 7.600 143.823,7.420 144.464,7.200 144.600 C 6.980 144.736,6.800 145.377,6.800 146.024 C 6.800 146.671,6.620 147.200,6.400 147.200 C 6.180 147.200,6.000 147.920,6.000 148.800 C 6.000 149.680,5.820 150.400,5.600 150.400 C 5.380 150.400,5.200 151.120,5.200 152.000 C 5.200 152.880,5.020 153.600,4.800 153.600 C 4.580 153.600,4.400 154.320,4.400 155.200 C 4.400 156.080,4.220 156.800,4.000 156.800 C 3.780 156.800,3.600 157.610,3.600 158.600 C 3.600 159.590,3.420 160.400,3.200 160.400 C 2.980 160.400,2.800 161.289,2.800 162.376 C 2.800 163.463,2.620 164.464,2.400 164.600 C 2.180 164.736,2.000 165.827,2.000 167.024 C 2.000 168.221,1.820 169.200,1.600 169.200 C 1.372 169.200,1.200 170.389,1.200 171.967 C 1.200 173.824,1.036 174.788,0.700 174.900 C -0.032 175.144,-0.032 224.856,0.700 225.100 C 1.036 225.212,1.200 226.176,1.200 228.033 C 1.200 229.611,1.372 230.800,1.600 230.800 C 1.820 230.800,2.000 231.779,2.000 232.976 C 2.000 234.173,2.180 235.264,2.400 235.400 C 2.620 235.536,2.800 236.537,2.800 237.624 C 2.800 238.711,2.980 239.600,3.200 239.600 C 3.420 239.600,3.600 240.410,3.600 241.400 C 3.600 242.390,3.780 243.200,4.000 243.200 C 4.220 243.200,4.400 243.920,4.400 244.800 C 4.400 245.680,4.580 246.400,4.800 246.400 C 5.020 246.400,5.200 247.120,5.200 248.000 C 5.200 248.880,5.380 249.600,5.600 249.600 C 5.820 249.600,6.000 250.320,6.000 251.200 C 6.000 252.080,6.180 252.800,6.400 252.800 C 6.620 252.800,6.800 253.329,6.800 253.976 C 6.800 254.623,6.980 255.264,7.200 255.400 C 7.420 255.536,7.600 256.177,7.600 256.824 C 7.600 257.471,7.780 258.000,8.000 258.000 C 8.220 258.000,8.400 258.429,8.400 258.954 C 8.400 259.978,9.440 263.753,10.037 264.895 C 10.237 265.277,10.400 265.941,10.400 266.371 C 10.400 266.801,10.580 267.264,10.800 267.400 C 11.020 267.536,11.200 267.997,11.200 268.424 C 11.200 268.851,11.380 269.200,11.600 269.200 C 11.820 269.200,12.000 269.562,12.000 270.005 C 12.000 270.448,12.208 271.213,12.462 271.705 C 13.433 273.582,13.600 274.007,13.600 274.595 C 13.600 274.928,13.780 275.200,14.000 275.200 C 14.220 275.200,14.400 275.549,14.400 275.976 C 14.400 276.403,14.580 276.864,14.800 277.000 C 15.020 277.136,15.200 277.687,15.200 278.224 C 15.200 278.761,15.380 279.200,15.600 279.200 C 15.820 279.200,16.000 279.560,16.000 280.000 C 16.000 280.440,16.180 280.800,16.400 280.800 C 16.620 280.800,16.800 281.160,16.800 281.600 C 16.800 282.040,16.980 282.400,17.200 282.400 C 17.420 282.400,17.600 282.760,17.600 283.200 C 17.600 283.640,17.780 284.000,18.000 284.000 C 18.220 284.000,18.400 284.360,18.400 284.800 C 18.400 285.240,18.580 285.600,18.800 285.600 C 19.020 285.600,19.200 285.853,19.200 286.162 C 19.200 286.828,20.868 290.141,21.300 290.333 C 21.465 290.407,21.600 290.722,21.600 291.033 C 21.600 291.345,21.780 291.600,22.000 291.600 C 22.220 291.600,22.400 291.960,22.400 292.400 C 22.400 292.840,22.580 293.200,22.800 293.200 C 23.020 293.200,23.200 293.560,23.200 294.000 C 23.200 294.440,23.380 294.800,23.600 294.800 C 23.820 294.800,24.000 295.160,24.000 295.600 C 24.000 296.040,24.180 296.400,24.400 296.400 C 24.620 296.400,24.800 296.732,24.800 297.138 C 24.800 297.544,25.153 298.195,25.584 298.586 C 26.015 298.976,26.338 299.409,26.300 299.548 C 26.178 300.000,27.681 302.800,28.046 302.800 C 28.241 302.800,28.400 302.993,28.400 303.228 C 28.400 303.463,28.940 304.441,29.600 305.400 C 30.260 306.359,30.800 307.297,30.800 307.484 C 30.800 307.671,31.160 308.083,31.600 308.400 C 32.040 308.717,32.400 309.257,32.400 309.600 C 32.400 309.943,32.760 310.483,33.200 310.800 C 33.640 311.117,34.000 311.580,34.000 311.829 C 34.000 312.078,34.540 312.846,35.200 313.537 C 35.860 314.228,36.400 314.976,36.400 315.200 C 36.400 315.424,36.940 316.172,37.600 316.863 C 38.260 317.554,38.800 318.290,38.800 318.499 C 38.800 318.708,39.340 319.383,40.000 320.000 C 40.660 320.617,41.200 321.296,41.200 321.510 C 41.200 321.724,41.920 322.687,42.800 323.649 C 43.680 324.612,44.400 325.525,44.400 325.677 C 44.400 325.830,45.480 327.055,46.800 328.400 C 48.120 329.745,49.200 331.004,49.200 331.198 C 49.200 331.694,62.258 344.760,64.200 346.207 C 65.080 346.863,66.643 348.255,67.674 349.300 C 68.705 350.345,69.718 351.200,69.926 351.200 C 70.134 351.200,71.045 351.920,71.952 352.800 C 72.859 353.680,73.736 354.401,73.900 354.402 C 74.065 354.403,74.740 354.898,75.400 355.502 C 77.195 357.144,79.491 358.800,79.973 358.800 C 80.208 358.800,80.400 358.980,80.400 359.200 C 80.400 359.420,80.630 359.600,80.912 359.600 C 81.193 359.600,81.683 359.960,82.000 360.400 C 82.317 360.840,82.857 361.200,83.200 361.200 C 83.543 361.200,84.083 361.560,84.400 362.000 C 84.717 362.440,85.257 362.800,85.600 362.800 C 85.943 362.800,86.483 363.160,86.800 363.600 C 87.117 364.040,87.657 364.400,88.000 364.400 C 88.343 364.400,88.883 364.760,89.200 365.200 C 89.517 365.640,90.014 366.000,90.305 366.000 C 90.596 366.000,91.189 366.331,91.623 366.736 C 92.058 367.141,92.905 367.726,93.507 368.035 C 94.108 368.345,94.690 368.689,94.800 368.799 C 95.194 369.195,97.413 370.454,98.100 370.671 C 98.485 370.793,98.800 371.052,98.800 371.247 C 98.800 371.441,99.145 371.600,99.567 371.600 C 99.988 371.600,100.393 371.739,100.467 371.909 C 100.670 372.382,106.229 375.200,106.958 375.200 C 107.311 375.200,107.600 375.380,107.600 375.600 C 107.600 375.820,107.945 376.000,108.367 376.000 C 108.788 376.000,109.193 376.135,109.267 376.300 C 109.340 376.465,110.300 377.025,111.400 377.544 C 112.500 378.063,113.713 378.648,114.095 378.844 C 114.477 379.040,115.062 379.200,115.395 379.200 C 115.728 379.200,116.000 379.380,116.000 379.600 C 116.000 379.820,116.360 380.000,116.800 380.000 C 117.240 380.000,117.600 380.180,117.600 380.400 C 117.600 380.620,117.960 380.800,118.400 380.800 C 118.840 380.800,119.200 380.980,119.200 381.200 C 119.200 381.420,119.740 381.600,120.400 381.600 C 121.060 381.600,121.600 381.780,121.600 382.000 C 121.600 382.220,121.949 382.400,122.376 382.400 C 122.803 382.400,123.264 382.580,123.400 382.800 C 123.536 383.020,124.087 383.200,124.624 383.200 C 125.161 383.200,125.600 383.380,125.600 383.600 C 125.600 383.820,125.965 384.000,126.411 384.000 C 127.612 384.000,127.232 339.672,126.008 337.000 C 125.807 336.560,125.548 335.390,125.434 334.400 C 124.979 330.473,124.703 328.984,124.359 328.620 C 124.162 328.411,124.000 327.657,124.000 326.944 C 124.000 326.231,123.820 325.536,123.600 325.400 C 123.380 325.264,123.200 324.634,123.200 324.000 C 123.200 323.366,123.020 322.736,122.800 322.600 C 122.580 322.464,122.400 321.924,122.400 321.400 C 122.400 320.876,122.220 320.336,122.000 320.200 C 121.780 320.064,121.600 319.511,121.600 318.971 C 121.600 318.431,121.441 317.677,121.247 317.295 C 120.919 316.650,120.554 315.787,119.641 313.500 C 118.018 309.435,112.589 298.503,111.943 298.000 C 111.483 297.641,106.658 287.757,105.549 284.900 C 104.837 283.066,104.297 281.781,103.953 281.105 C 103.759 280.723,103.600 280.136,103.600 279.800 C 103.600 279.464,103.438 278.877,103.239 278.495 C 103.040 278.113,102.656 276.990,102.385 276.000 C 102.114 275.010,101.720 273.570,101.510 272.800 C 101.300 272.030,100.978 270.860,100.795 270.200 C 98.505 261.940,98.000 252.282,98.000 216.786 C 98.000 182.542,97.938 183.580,100.266 179.074 C 101.452 176.779,106.369 172.400,107.762 172.400 C 108.113 172.400,108.400 172.220,108.400 172.000 C 108.400 171.780,108.839 171.600,109.376 171.600 C 109.913 171.600,110.464 171.420,110.600 171.200 C 110.736 170.979,112.530 170.800,114.600 170.800 C 116.670 170.800,118.464 170.979,118.600 171.200 C 118.736 171.420,119.276 171.600,119.800 171.600 C 120.324 171.600,120.864 171.780,121.000 172.000 C 121.136 172.220,121.597 172.400,122.024 172.400 C 122.451 172.400,122.800 172.541,122.800 172.714 C 122.800 172.886,123.362 173.360,124.050 173.766 C 125.577 174.668,128.400 177.609,128.400 178.298 C 128.400 178.574,128.536 178.800,128.702 178.800 C 128.981 178.800,129.564 179.977,130.141 181.700 C 130.444 182.607,131.199 182.607,131.204 181.700 C 131.220 178.699,138.537 171.600,141.614 171.600 C 142.020 171.600,142.464 171.420,142.600 171.200 C 142.923 170.678,150.277 170.678,150.600 171.200 C 150.736 171.420,151.180 171.600,151.586 171.600 C 153.764 171.600,159.614 176.350,160.824 179.100 C 161.138 179.815,161.531 180.400,161.698 180.400 C 161.864 180.400,162.000 180.850,162.000 181.400 C 162.000 182.543,162.714 182.748,163.049 181.700 C 163.668 179.763,166.040 176.044,166.897 175.667 C 167.787 175.275,166.814 174.211,163.309 171.742 C 147.129 160.341,134.826 140.240,131.641 120.000 C 130.279 111.346,130.664 96.173,132.381 90.800 C 132.557 90.250,132.921 88.810,133.190 87.600 C 138.357 64.385,157.711 42.416,181.200 33.103 C 181.750 32.885,182.513 32.548,182.895 32.353 C 183.277 32.159,183.864 32.000,184.200 32.000 C 184.536 32.000,185.123 31.837,185.505 31.637 C 193.893 27.252,216.094 26.451,230.145 30.026 C 235.416 31.367,235.656 31.441,239.000 32.769 C 260.548 41.326,277.472 58.272,285.172 79.000 C 285.662 80.320,286.204 81.670,286.375 82.000 C 286.744 82.709,351.285 83.117,352.387 82.418 C 352.881 82.104,352.834 81.923,352.087 81.276 C 351.599 80.852,351.200 80.332,351.200 80.118 C 351.200 79.742,349.710 78.001,346.402 74.509 C 345.521 73.579,344.800 72.663,344.800 72.473 C 344.800 72.126,343.828 71.022,338.101 64.866 C 334.454 60.946,332.717 59.261,332.293 59.234 C 332.124 59.223,330.195 57.411,328.007 55.207 C 325.818 53.003,323.933 51.200,323.816 51.200 C 323.699 51.200,322.685 50.300,321.561 49.200 C 320.438 48.100,319.351 47.200,319.146 47.200 C 318.941 47.200,318.143 46.570,317.373 45.800 C 316.603 45.030,315.824 44.400,315.641 44.400 C 315.458 44.400,314.699 43.863,313.954 43.206 C 313.209 42.550,312.402 42.010,312.159 42.006 C 311.917 42.003,311.154 41.460,310.463 40.800 C 309.772 40.140,309.026 39.600,308.804 39.600 C 308.582 39.600,308.400 39.420,308.400 39.200 C 308.400 38.980,308.130 38.800,307.800 38.800 C 307.470 38.800,307.200 38.620,307.200 38.400 C 307.200 38.180,306.970 38.000,306.688 38.000 C 306.407 38.000,305.917 37.640,305.600 37.200 C 305.283 36.760,304.743 36.400,304.400 36.400 C 304.057 36.400,303.517 36.040,303.200 35.600 C 302.883 35.160,302.386 34.800,302.095 34.800 C 301.804 34.800,301.180 34.440,300.708 34.000 C 300.236 33.560,299.613 33.200,299.325 33.200 C 299.036 33.200,298.800 33.020,298.800 32.800 C 298.800 32.580,298.564 32.400,298.275 32.400 C 297.987 32.400,297.364 32.040,296.892 31.600 C 296.420 31.160,295.756 30.800,295.417 30.800 C 295.078 30.800,294.800 30.620,294.800 30.400 C 294.800 30.180,294.440 30.000,294.000 30.000 C 293.560 30.000,293.200 29.832,293.200 29.627 C 293.200 29.422,292.841 29.140,292.402 29.001 C 291.964 28.862,291.379 28.526,291.102 28.256 C 290.407 27.576,284.546 24.800,283.805 24.800 C 283.472 24.800,283.200 24.620,283.200 24.400 C 283.200 24.180,282.840 24.000,282.400 24.000 C 281.960 24.000,281.600 23.820,281.600 23.600 C 281.600 23.380,281.240 23.200,280.800 23.200 C 280.360 23.200,280.000 23.020,280.000 22.800 C 280.000 22.580,279.640 22.400,279.200 22.400 C 278.760 22.400,278.400 22.220,278.400 22.000 C 278.400 21.780,278.040 21.600,277.600 21.600 C 277.160 21.600,276.800 21.420,276.800 21.200 C 276.800 20.980,276.440 20.800,276.000 20.800 C 275.560 20.800,275.200 20.620,275.200 20.400 C 275.200 20.180,274.851 20.000,274.424 20.000 C 273.997 20.000,273.536 19.820,273.400 19.600 C 273.264 19.380,272.803 19.200,272.376 19.200 C 271.949 19.200,271.600 19.020,271.600 18.800 C 271.600 18.580,271.251 18.400,270.824 18.400 C 270.397 18.400,269.936 18.220,269.800 18.000 C 269.664 17.780,269.113 17.600,268.576 17.600 C 268.039 17.600,267.600 17.420,267.600 17.200 C 267.600 16.980,267.240 16.800,266.800 16.800 C 266.360 16.800,266.000 16.620,266.000 16.400 C 266.000 16.180,265.460 16.000,264.800 16.000 C 264.140 16.000,263.600 15.820,263.600 15.600 C 263.600 15.380,263.060 15.200,262.400 15.200 C 261.740 15.200,261.200 15.020,261.200 14.800 C 261.200 14.580,260.660 14.400,260.000 14.400 C 259.340 14.400,258.800 14.220,258.800 14.000 C 258.800 13.780,258.361 13.600,257.824 13.600 C 257.287 13.600,256.736 13.420,256.600 13.200 C 256.464 12.980,255.913 12.800,255.376 12.800 C 254.839 12.800,254.400 12.620,254.400 12.400 C 254.400 12.180,253.871 12.000,253.224 12.000 C 252.577 12.000,251.949 11.841,251.829 11.646 C 251.708 11.451,251.113 11.193,250.505 11.071 C 249.897 10.949,248.590 10.656,247.600 10.420 C 246.610 10.184,245.350 9.898,244.800 9.785 C 244.250 9.672,243.308 9.383,242.707 9.144 C 242.106 8.905,241.347 8.812,241.020 8.937 C 240.693 9.062,240.319 8.993,240.189 8.783 C 240.059 8.572,239.153 8.400,238.176 8.400 C 237.199 8.400,236.400 8.220,236.400 8.000 C 236.400 7.780,235.500 7.600,234.400 7.600 C 233.300 7.600,232.400 7.420,232.400 7.200 C 232.400 6.980,231.511 6.800,230.424 6.800 C 229.337 6.800,228.336 6.620,228.200 6.400 C 228.064 6.180,226.894 6.000,225.600 6.000 C 224.306 6.000,223.136 5.820,223.000 5.600 C 222.864 5.380,221.413 5.200,219.776 5.200 C 218.059 5.200,216.800 5.031,216.800 4.800 C 216.800 4.554,214.800 4.400,211.600 4.400 C 208.400 4.400,206.400 4.246,206.400 4.000 C 206.400 3.743,202.533 3.600,195.600 3.600 C 188.667 3.600,184.800 3.743,184.800 4.000 M75.054 76.611 C 79.575 79.260,80.336 85.285,76.620 89.001 C 70.483 95.138,60.396 88.347,63.769 80.349 C 65.580 76.054,71.026 74.250,75.054 76.611 M106.719 76.458 C 112.261 79.141,112.239 87.626,106.682 90.510 C 101.299 93.303,95.198 89.536,95.201 83.422 C 95.205 77.394,101.185 73.778,106.719 76.458 M290.369 100.100 C 290.352 100.155,290.307 103.485,290.269 107.500 L 290.200 114.800 310.123 114.800 C 332.853 114.800,332.840 114.799,335.601 117.570 C 338.858 120.840,338.925 125.939,335.753 129.249 C 333.421 131.684,334.343 131.600,309.801 131.600 C 285.729 131.600,286.000 131.578,286.000 133.519 C 286.000 134.213,282.848 141.427,281.095 144.744 C 272.222 161.531,257.525 174.680,239.800 181.689 C 235.779 183.279,232.615 184.254,227.900 185.358 L 226.800 185.615 226.800 211.879 C 226.800 238.641,226.870 240.017,228.303 241.531 C 228.579 241.823,228.968 242.366,229.167 242.738 C 229.804 243.929,232.726 245.200,234.826 245.200 C 237.140 245.200,240.915 243.360,241.350 242.020 C 241.556 241.382,242.839 239.156,243.205 238.800 C 243.318 238.690,243.856 237.700,244.400 236.600 C 244.944 235.500,245.482 234.510,245.595 234.400 C 245.709 234.290,246.071 233.661,246.401 233.003 C 246.730 232.344,247.793 230.364,248.763 228.603 C 249.733 226.841,251.010 224.500,251.601 223.400 C 252.193 222.300,253.092 220.680,253.600 219.800 C 254.108 218.920,255.008 217.300,255.600 216.200 C 256.192 215.100,257.092 213.480,257.600 212.600 C 258.108 211.720,258.900 210.280,259.362 209.400 C 259.823 208.520,260.291 207.710,260.402 207.600 C 260.514 207.490,261.160 206.320,261.838 205.000 C 262.516 203.680,263.550 201.745,264.135 200.700 C 265.248 198.714,266.347 196.726,268.702 192.442 C 274.927 181.113,287.163 176.103,298.600 180.200 C 306.236 182.935,308.571 188.127,305.049 194.540 C 304.305 195.893,303.159 197.990,302.502 199.200 C 301.273 201.463,299.994 203.779,298.139 207.100 C 296.872 209.368,295.262 212.331,293.954 214.800 C 293.429 215.790,292.910 216.690,292.800 216.800 C 292.690 216.910,292.222 217.720,291.761 218.600 C 291.299 219.480,290.469 221.010,289.916 222.000 C 288.940 223.748,288.326 224.867,284.854 231.234 C 283.945 232.903,283.200 234.478,283.200 234.734 C 283.200 235.084,289.526 235.200,308.544 235.200 L 333.888 235.200 334.110 233.045 C 334.466 229.605,335.979 227.297,338.986 225.608 C 340.528 224.742,344.548 224.469,345.000 225.200 C 345.136 225.420,345.552 225.600,345.924 225.600 C 347.484 225.602,350.190 228.971,350.593 231.414 C 350.736 232.286,350.946 233.495,351.059 234.100 L 351.264 235.200 370.032 235.200 C 386.448 235.200,388.800 235.125,388.800 234.600 C 388.800 234.270,388.980 234.000,389.200 234.000 C 389.421 234.000,389.600 232.960,389.600 231.680 C 389.600 230.404,389.766 229.189,389.969 228.980 C 390.172 228.771,390.436 227.340,390.556 225.800 C 390.676 224.260,390.945 220.930,391.153 218.400 C 391.644 212.459,391.645 187.163,391.155 181.200 C 390.947 178.670,390.678 175.430,390.556 174.000 C 390.435 172.570,390.170 171.229,389.968 171.020 C 389.765 170.811,389.600 169.697,389.600 168.544 C 389.600 167.391,389.420 166.336,389.200 166.200 C 388.980 166.064,388.800 165.099,388.800 164.056 C 388.800 163.013,388.638 161.989,388.441 161.780 C 388.108 161.427,387.952 160.616,387.347 156.100 C 387.222 155.165,386.958 154.400,386.760 154.400 C 386.562 154.400,386.400 153.680,386.400 152.800 C 386.400 151.920,386.220 151.200,386.000 151.200 C 385.780 151.200,385.600 150.581,385.600 149.824 C 385.600 149.067,385.420 148.336,385.200 148.200 C 384.980 148.064,384.800 147.423,384.800 146.776 C 384.800 146.129,384.620 145.600,384.400 145.600 C 384.180 145.600,384.000 144.970,384.000 144.200 C 384.000 143.430,383.820 142.800,383.600 142.800 C 383.380 142.800,383.200 142.260,383.200 141.600 C 383.200 140.940,383.020 140.400,382.800 140.400 C 382.580 140.400,382.400 139.860,382.400 139.200 C 382.400 138.540,382.220 138.000,382.000 138.000 C 381.780 138.000,381.600 137.460,381.600 136.800 C 381.600 136.140,381.420 135.600,381.200 135.600 C 380.980 135.600,380.800 135.060,380.800 134.400 C 380.800 133.740,380.620 133.200,380.400 133.200 C 380.180 133.200,380.000 132.761,380.000 132.224 C 380.000 131.687,379.820 131.136,379.600 131.000 C 379.380 130.864,379.200 130.403,379.200 129.976 C 379.200 129.549,379.020 129.200,378.800 129.200 C 378.580 129.200,378.400 128.845,378.400 128.412 C 378.400 127.979,378.040 126.983,377.600 126.200 C 377.160 125.417,376.800 124.421,376.800 123.988 C 376.800 123.555,376.620 123.200,376.400 123.200 C 376.180 123.200,376.000 122.840,376.000 122.400 C 376.000 121.960,375.840 121.600,375.645 121.600 C 375.449 121.600,375.165 120.937,375.013 120.126 C 374.713 118.530,368.581 106.285,367.971 106.067 C 367.767 105.993,367.600 105.588,367.600 105.167 C 367.600 104.745,367.420 104.400,367.200 104.400 C 366.980 104.400,366.800 104.040,366.800 103.600 C 366.800 103.160,366.664 102.800,366.498 102.800 C 366.331 102.800,365.966 102.281,365.685 101.647 C 365.334 100.855,364.788 100.418,363.937 100.247 C 362.798 100.020,290.439 99.874,290.369 100.100 M42.274 108.058 C 47.469 109.634,48.648 117.933,44.184 121.496 C 36.288 127.796,26.471 116.650,33.745 109.644 C 35.982 107.491,38.723 106.981,42.274 108.058 M75.257 108.660 C 77.731 110.105,79.537 113.930,78.976 116.533 C 76.876 126.267,63.200 125.102,63.200 115.189 C 63.200 109.219,69.952 105.562,75.257 108.660 M106.716 108.357 C 114.880 112.524,109.851 125.684,101.101 123.050 C 92.056 120.328,93.716 107.602,103.116 107.600 C 104.404 107.600,105.813 107.896,106.716 108.357 M41.711 139.831 C 50.494 142.824,47.743 155.753,38.467 155.073 C 29.876 154.442,28.498 142.695,36.674 139.780 C 38.677 139.065,39.486 139.073,41.711 139.831 M72.975 139.635 C 78.252 140.964,80.634 146.816,77.780 151.439 C 75.197 155.621,69.721 156.492,66.006 153.312 C 59.640 147.863,64.871 137.595,72.975 139.635 M106.779 140.345 C 110.553 142.292,112.040 148.156,109.646 151.650 C 105.273 158.033,95.200 155.122,95.200 147.476 C 95.200 141.207,101.238 137.488,106.779 140.345 M368.324 251.104 L 351.248 251.209 350.971 253.104 C 349.335 264.334,334.000 263.824,334.000 252.540 L 334.000 251.200 305.098 251.200 L 276.195 251.200 275.755 252.300 C 275.513 252.905,274.728 255.290,274.010 257.600 C 273.292 259.910,272.546 262.205,272.352 262.700 C 272.158 263.195,271.838 264.005,271.640 264.500 C 271.443 264.995,271.049 266.030,270.766 266.800 C 269.505 270.232,263.715 281.660,263.100 281.933 C 262.935 282.007,262.800 282.249,262.800 282.472 C 262.800 282.694,262.426 283.402,261.969 284.044 L 261.137 285.211 273.669 285.106 L 286.200 285.000 286.400 282.534 C 287.247 272.085,300.838 272.096,302.970 282.547 L 303.470 285.000 338.152 285.200 L 372.833 285.400 373.801 283.285 C 374.334 282.122,374.886 280.547,375.029 279.785 C 375.172 279.023,375.449 278.400,375.645 278.400 C 375.840 278.400,376.000 278.040,376.000 277.600 C 376.000 277.160,376.180 276.800,376.400 276.800 C 376.620 276.800,376.800 276.350,376.800 275.800 C 376.800 275.250,376.980 274.800,377.200 274.800 C 377.420 274.800,377.600 274.451,377.600 274.024 C 377.600 273.597,377.780 273.136,378.000 273.000 C 378.220 272.864,378.400 272.313,378.400 271.776 C 378.400 271.239,378.580 270.800,378.800 270.800 C 379.020 270.800,379.200 270.440,379.200 270.000 C 379.200 269.560,379.380 269.200,379.600 269.200 C 379.820 269.200,380.000 268.660,380.000 268.000 C 380.000 267.340,380.180 266.800,380.400 266.800 C 380.620 266.800,380.800 266.260,380.800 265.600 C 380.800 264.940,380.980 264.400,381.200 264.400 C 381.420 264.400,381.600 263.860,381.600 263.200 C 381.600 262.540,381.780 262.000,382.000 262.000 C 382.220 262.000,382.400 261.460,382.400 260.800 C 382.400 260.140,382.580 259.600,382.800 259.600 C 383.020 259.600,383.200 259.060,383.200 258.400 C 383.200 257.740,383.380 257.200,383.600 257.200 C 383.820 257.200,384.000 256.671,384.000 256.024 C 384.000 255.377,384.180 254.736,384.400 254.600 C 384.620 254.464,384.800 253.838,384.800 253.210 C 384.800 252.581,385.007 251.998,385.260 251.913 C 387.413 251.196,383.550 251.011,368.324 251.104 M249.000 301.258 C 247.758 301.931,242.400 307.559,242.400 308.190 C 242.400 308.499,242.220 308.864,242.000 309.000 C 241.780 309.136,241.600 309.599,241.600 310.029 C 241.600 310.459,241.441 311.123,241.247 311.505 C 240.639 312.701,240.109 314.135,239.588 316.000 C 239.311 316.990,238.838 318.578,238.537 319.530 C 235.666 328.597,234.806 340.059,234.803 369.300 C 234.800 392.134,234.809 392.400,235.600 392.400 C 236.040 392.400,236.400 392.243,236.400 392.052 C 236.400 391.860,237.837 391.578,239.593 391.425 C 241.349 391.272,242.890 390.978,243.017 390.773 C 243.143 390.568,243.856 390.400,244.600 390.400 C 245.344 390.400,246.064 390.220,246.200 390.000 C 246.336 389.780,246.829 389.600,247.295 389.600 C 248.196 389.600,250.539 388.935,251.695 388.351 C 252.077 388.158,252.842 388.000,253.395 388.000 C 253.948 388.000,254.400 387.820,254.400 387.600 C 254.400 387.380,254.929 387.200,255.576 387.200 C 256.223 387.200,256.842 387.056,256.951 386.879 C 257.060 386.703,258.061 386.310,259.175 386.007 C 260.289 385.704,261.200 385.308,261.200 385.128 C 261.200 384.947,261.740 384.800,262.400 384.800 C 263.060 384.800,263.600 384.620,263.600 384.400 C 263.600 384.180,264.140 384.000,264.800 384.000 C 265.460 384.000,266.000 383.820,266.000 383.600 C 266.000 383.380,266.360 383.200,266.800 383.200 C 267.240 383.200,267.600 383.020,267.600 382.800 C 267.600 382.580,268.140 382.400,268.800 382.400 C 269.460 382.400,270.000 382.220,270.000 382.000 C 270.000 381.780,270.360 381.600,270.800 381.600 C 271.240 381.600,271.600 381.420,271.600 381.200 C 271.600 380.980,272.050 380.800,272.600 380.800 C 273.150 380.800,273.600 380.620,273.600 380.400 C 273.600 380.180,273.960 380.000,274.400 380.000 C 274.840 380.000,275.200 379.820,275.200 379.600 C 275.200 379.380,275.560 379.200,276.000 379.200 C 276.440 379.200,276.800 379.020,276.800 378.800 C 276.800 378.580,277.149 378.400,277.576 378.400 C 278.003 378.400,278.464 378.220,278.600 378.000 C 278.736 377.780,279.287 377.600,279.824 377.600 C 280.361 377.600,280.800 377.420,280.800 377.200 C 280.800 376.980,281.160 376.800,281.600 376.800 C 282.040 376.800,282.400 376.620,282.400 376.400 C 282.400 376.180,282.760 376.000,283.200 376.000 C 283.640 376.000,284.000 375.840,284.000 375.643 C 284.000 375.447,284.484 375.165,285.076 375.017 C 285.667 374.868,286.612 374.436,287.176 374.056 C 287.739 373.675,289.100 372.925,290.200 372.388 C 291.300 371.850,292.290 371.318,292.400 371.205 C 292.510 371.091,293.095 370.744,293.700 370.432 C 294.305 370.120,294.800 369.715,294.800 369.532 C 294.800 369.350,295.160 369.200,295.600 369.200 C 296.040 369.200,296.400 369.020,296.400 368.800 C 296.400 368.580,296.720 368.400,297.112 368.400 C 297.503 368.400,298.083 368.040,298.400 367.600 C 298.717 367.160,299.297 366.800,299.688 366.800 C 300.080 366.800,300.400 366.620,300.400 366.400 C 300.400 366.180,300.670 366.000,301.000 366.000 C 301.330 366.000,301.600 365.820,301.600 365.600 C 301.600 365.380,301.870 365.200,302.200 365.200 C 302.530 365.200,302.800 365.020,302.800 364.800 C 302.800 364.580,303.070 364.400,303.400 364.400 C 303.730 364.400,304.000 364.220,304.000 364.000 C 304.000 363.780,304.270 363.600,304.600 363.600 C 304.930 363.600,305.200 363.420,305.200 363.200 C 305.200 362.980,305.470 362.800,305.800 362.800 C 306.130 362.800,306.400 362.620,306.400 362.400 C 306.400 362.180,306.578 362.000,306.795 362.000 C 307.216 362.000,308.307 361.174,309.832 359.700 C 310.344 359.205,311.023 358.800,311.340 358.800 C 311.656 358.800,312.493 358.260,313.200 357.600 C 313.907 356.940,314.637 356.400,314.824 356.400 C 315.011 356.400,315.577 355.991,316.082 355.491 C 316.587 354.992,317.630 354.143,318.400 353.607 C 319.170 353.070,320.277 352.129,320.860 351.515 C 321.444 350.902,322.062 350.400,322.234 350.400 C 322.406 350.400,323.765 349.140,325.254 347.600 C 326.743 346.060,328.168 344.800,328.419 344.800 C 328.947 344.800,339.898 333.877,340.800 332.451 C 341.130 331.930,342.525 330.334,343.900 328.905 C 345.275 327.476,346.400 326.070,346.400 325.780 C 346.400 325.491,346.731 325.149,347.136 325.020 C 347.541 324.892,348.111 324.340,348.404 323.793 C 348.696 323.247,349.085 322.800,349.268 322.800 C 349.450 322.800,349.600 322.602,349.600 322.360 C 349.600 322.119,350.140 321.417,350.800 320.800 C 351.460 320.183,352.000 319.508,352.000 319.299 C 352.000 319.090,352.540 318.354,353.200 317.663 C 353.860 316.972,354.400 316.217,354.400 315.985 C 354.400 315.753,354.836 315.128,355.369 314.595 C 355.902 314.062,356.454 313.260,356.596 312.813 C 356.738 312.366,356.994 312.000,357.166 312.000 C 357.338 312.000,357.803 311.280,358.200 310.400 C 358.597 309.520,359.074 308.800,359.261 308.800 C 359.447 308.800,359.600 308.612,359.600 308.383 C 359.600 308.154,359.960 307.580,360.400 307.108 C 360.840 306.636,361.200 306.013,361.200 305.725 C 361.200 305.436,361.380 305.200,361.600 305.200 C 361.820 305.200,362.000 304.930,362.000 304.600 C 362.000 304.270,362.180 304.000,362.400 304.000 C 362.620 304.000,362.800 303.730,362.800 303.400 C 362.800 303.070,362.980 302.800,363.200 302.800 C 363.420 302.800,363.600 302.448,363.600 302.018 C 363.600 300.789,362.912 300.764,332.235 300.886 L 303.470 301.000 302.970 303.453 C 302.359 306.446,301.641 307.891,300.113 309.200 C 294.880 313.684,286.431 310.220,286.407 303.580 C 286.403 302.579,286.184 301.544,285.920 301.280 C 285.272 300.632,250.192 300.612,249.000 301.258 " stroke="none" fill="#443c84" fill-rule="evenodd"></path><path id="path3" d="M201.783 27.977 C 196.195 28.625,187.514 30.575,185.505 31.634 C 185.123 31.835,184.536 32.000,184.200 32.000 C 183.864 32.000,183.277 32.159,182.895 32.353 C 182.513 32.548,181.750 32.885,181.200 33.103 C 157.711 42.416,138.357 64.385,133.190 87.600 C 132.921 88.810,132.557 90.250,132.381 90.800 C 130.664 96.173,130.279 111.346,131.641 120.000 C 134.826 140.240,147.129 160.341,163.309 171.742 C 166.814 174.211,167.787 175.275,166.897 175.667 C 166.364 175.901,163.896 179.229,164.102 179.435 C 164.211 179.544,164.638 179.108,165.050 178.466 C 169.774 171.108,178.456 168.699,186.067 172.635 C 189.362 174.339,193.003 178.602,194.010 181.937 C 194.187 182.522,194.347 174.247,194.366 163.549 L 194.400 144.097 193.100 143.576 C 192.385 143.290,191.048 142.548,190.128 141.928 C 189.208 141.308,188.278 140.800,188.061 140.800 C 187.844 140.800,187.607 140.665,187.533 140.500 C 187.460 140.335,186.395 139.436,185.167 138.503 C 183.939 137.570,182.409 136.219,181.767 135.502 C 179.212 132.646,177.200 130.066,177.200 129.644 C 177.200 129.400,177.065 129.199,176.900 129.197 C 176.735 129.195,176.401 128.790,176.159 128.297 C 175.916 127.804,175.193 126.410,174.551 125.200 C 173.394 123.015,172.165 119.635,171.137 115.800 C 170.411 113.097,170.411 101.703,171.137 99.000 C 172.560 93.695,173.692 90.933,176.359 86.250 C 178.191 83.034,182.537 78.232,185.852 75.759 C 186.703 75.124,187.490 74.505,187.600 74.384 C 187.798 74.167,189.870 72.922,192.200 71.621 C 204.085 64.987,221.027 66.031,233.000 74.135 C 258.298 91.260,255.941 129.138,228.700 143.217 L 226.800 144.199 226.800 164.907 L 226.800 185.615 227.900 185.358 C 232.615 184.254,235.779 183.279,239.800 181.689 C 257.525 174.680,272.222 161.531,281.095 144.744 C 282.848 141.427,286.000 134.213,286.000 133.519 C 286.000 133.268,286.298 132.734,286.662 132.331 C 287.301 131.625,287.057 131.600,279.588 131.600 C 272.607 131.600,271.687 131.520,270.158 130.780 C 263.427 127.521,264.389 117.579,271.643 115.424 C 273.513 114.869,319.261 114.819,329.800 115.361 C 331.523 115.449,332.215 115.384,331.600 115.192 C 331.050 115.020,321.510 114.862,310.400 114.840 L 290.200 114.800 290.239 107.500 L 290.277 100.200 327.301 100.200 C 347.663 100.200,364.116 100.056,363.862 99.880 C 363.608 99.703,342.790 99.613,317.600 99.680 L 271.800 99.800 269.926 98.698 C 264.462 95.486,264.146 88.102,269.320 84.517 L 270.931 83.400 311.551 83.294 C 333.892 83.236,352.304 83.056,352.466 82.894 C 352.628 82.732,337.894 82.600,319.724 82.600 C 290.763 82.600,286.649 82.526,286.375 82.000 C 286.204 81.670,285.662 80.320,285.172 79.000 C 277.048 57.130,255.552 36.802,234.600 31.176 C 223.023 28.068,211.064 26.902,201.783 27.977 M68.000 76.047 C 66.557 76.620,64.429 78.783,63.769 80.349 C 60.396 88.347,70.483 95.138,76.620 89.001 C 82.659 82.962,75.957 72.891,68.000 76.047 M99.800 76.194 C 93.516 79.144,93.544 87.787,99.847 90.673 C 106.944 93.922,113.911 85.758,109.674 79.158 C 107.662 76.025,103.087 74.652,99.800 76.194 M42.480 76.880 C 42.216 77.144,42.000 77.579,42.000 77.847 C 42.000 78.114,41.858 78.393,41.685 78.467 C 41.512 78.540,40.747 79.404,39.985 80.387 C 39.223 81.369,38.193 82.629,37.696 83.187 C 37.198 83.744,36.691 84.515,36.569 84.900 C 36.446 85.285,36.178 85.600,35.973 85.600 C 35.768 85.600,35.600 85.870,35.600 86.200 C 35.600 86.530,35.420 86.800,35.200 86.800 C 34.980 86.800,34.800 87.070,34.800 87.400 C 34.800 87.730,34.641 88.000,34.447 88.000 C 33.327 88.000,33.803 89.566,35.149 90.311 C 43.705 95.043,51.578 83.341,44.037 77.100 C 43.031 76.268,43.085 76.275,42.480 76.880 M37.077 107.781 C 30.893 109.412,29.153 117.159,34.034 121.336 C 37.963 124.700,44.086 123.481,46.283 118.897 C 49.236 112.733,43.690 106.036,37.077 107.781 M69.117 107.789 C 61.386 109.752,61.192 120.667,68.847 122.970 C 74.548 124.685,80.336 119.304,78.825 113.694 C 77.605 109.162,73.513 106.673,69.117 107.789 M99.249 108.468 C 95.504 110.321,93.932 115.718,96.102 119.270 C 100.435 126.362,110.800 123.630,110.800 115.396 C 110.800 109.254,104.859 105.690,99.249 108.468 M334.400 116.525 C 334.400 116.594,334.985 117.179,335.700 117.825 L 337.000 119.000 335.825 117.700 C 334.730 116.488,334.400 116.216,334.400 116.525 M337.661 123.200 C 337.653 124.966,337.725 125.215,338.027 124.461 C 338.257 123.887,338.261 123.033,338.037 122.261 C 337.707 121.121,337.671 121.210,337.661 123.200 M335.763 128.841 C 334.785 129.921,332.974 130.867,331.200 131.226 L 329.800 131.508 331.039 131.554 C 332.597 131.612,334.287 130.780,335.785 129.215 C 336.426 128.547,336.854 128.000,336.737 128.000 C 336.620 128.000,336.182 128.378,335.763 128.841 M36.674 139.780 C 28.498 142.695,29.876 154.442,38.467 155.073 C 41.627 155.304,44.049 154.203,45.663 151.800 C 49.872 145.533,43.696 137.275,36.674 139.780 M69.106 139.598 C 62.809 141.494,61.089 149.104,66.006 153.312 C 71.147 157.713,79.055 154.005,78.959 147.239 C 78.885 142.045,73.877 138.161,69.106 139.598 M100.815 139.652 C 92.105 142.261,93.867 155.000,102.937 155.000 C 105.314 155.000,106.046 154.834,107.246 154.021 C 114.656 149.007,109.327 137.103,100.815 139.652 M110.661 171.100 C 110.559 171.265,112.331 171.400,114.599 171.400 C 116.866 171.400,118.639 171.265,118.537 171.100 C 118.436 170.935,116.664 170.800,114.600 170.800 C 112.536 170.800,110.764 170.935,110.661 171.100 M142.662 171.100 C 142.560 171.265,144.332 171.400,146.600 171.400 C 148.868 171.400,150.640 171.265,150.538 171.100 C 150.436 170.935,148.664 170.800,146.600 170.800 C 144.536 170.800,142.764 170.935,142.662 171.100 M139.693 172.180 C 138.034 173.096,138.178 173.280,140.000 172.570 C 142.163 171.729,142.370 171.588,141.367 171.639 C 140.945 171.661,140.192 171.904,139.693 172.180 M105.705 173.325 C 104.993 173.806,104.408 174.363,104.405 174.562 C 104.402 174.761,104.715 174.639,105.101 174.290 C 105.486 173.941,106.341 173.374,107.001 173.030 C 107.660 172.686,107.930 172.415,107.600 172.427 C 107.270 172.440,106.417 172.844,105.705 173.325 M123.886 174.148 C 125.192 175.109,126.740 176.504,127.326 177.248 C 127.912 177.991,128.393 178.419,128.396 178.198 C 128.402 177.593,125.474 174.607,124.050 173.766 C 123.362 173.360,122.800 172.886,122.800 172.714 C 122.800 172.541,122.510 172.400,122.156 172.400 C 121.802 172.400,122.580 173.186,123.886 174.148 M155.973 174.212 C 157.327 175.208,158.536 176.288,158.660 176.612 C 158.784 176.935,159.080 177.200,159.318 177.200 C 159.938 177.200,157.693 174.923,155.728 173.560 C 153.074 171.718,153.260 172.215,155.973 174.212 M135.532 175.158 C 134.360 176.235,133.077 177.720,132.683 178.458 C 132.019 179.700,132.018 179.725,132.672 178.800 C 133.060 178.250,134.442 176.765,135.742 175.500 C 138.626 172.694,138.478 172.453,135.532 175.158 M102.564 176.107 C 100.733 178.163,100.457 178.567,99.803 180.131 C 98.998 182.058,99.363 182.033,100.255 180.100 C 100.636 179.275,101.651 177.745,102.511 176.700 C 104.287 174.541,104.324 174.131,102.564 176.107 M286.476 179.140 C 285.968 179.283,287.824 179.400,290.600 179.400 C 293.376 179.400,295.232 179.283,294.724 179.140 C 294.216 178.997,292.360 178.880,290.600 178.880 C 288.840 178.880,286.984 178.997,286.476 179.140 M283.200 180.000 C 282.667 180.345,282.667 180.388,283.200 180.388 C 283.530 180.388,284.070 180.213,284.400 180.000 C 284.933 179.655,284.933 179.612,284.400 179.612 C 284.070 179.612,283.530 179.787,283.200 180.000 M296.800 180.000 C 297.130 180.213,297.670 180.388,298.000 180.388 C 298.533 180.388,298.533 180.345,298.000 180.000 C 297.670 179.787,297.130 179.612,296.800 179.612 C 296.267 179.612,296.267 179.655,296.800 180.000 M277.769 182.466 C 275.461 183.950,272.676 186.502,271.512 188.200 C 271.059 188.860,271.563 188.425,272.633 187.234 C 273.702 186.043,275.911 184.198,277.540 183.134 C 279.170 182.070,280.330 181.200,280.120 181.200 C 279.909 181.200,278.851 181.770,277.769 182.466 M302.493 182.373 C 303.511 183.018,304.550 183.934,304.804 184.407 C 305.057 184.881,305.372 185.161,305.503 185.030 C 305.831 184.702,303.640 182.454,302.320 181.764 C 300.460 180.793,300.561 181.148,302.493 182.373 M98.458 184.037 C 98.075 185.696,97.987 193.707,98.082 218.400 L 98.205 250.600 98.302 217.960 C 98.369 195.668,98.538 184.923,98.836 184.068 C 99.076 183.380,99.202 182.605,99.115 182.345 C 99.029 182.086,98.733 182.847,98.458 184.037 M130.000 182.364 C 130.000 182.550,130.270 182.926,130.600 183.200 C 131.088 183.605,131.200 183.585,131.200 183.092 C 131.200 182.758,130.930 182.382,130.600 182.255 C 130.270 182.129,130.000 182.177,130.000 182.364 M162.500 182.265 C 161.804 182.546,161.873 183.200,162.600 183.200 C 162.930 183.200,163.200 182.930,163.200 182.600 C 163.200 182.270,163.155 182.014,163.100 182.032 C 163.045 182.049,162.775 182.154,162.500 182.265 M269.215 191.500 C 268.674 192.545,267.806 194.092,267.287 194.938 C 266.767 195.784,266.432 196.565,266.542 196.675 C 266.651 196.785,267.047 196.283,267.421 195.560 C 268.405 193.656,269.521 191.692,270.254 190.574 C 270.605 190.039,270.736 189.600,270.545 189.600 C 270.355 189.600,269.756 190.455,269.215 191.500 M305.506 192.658 C 305.132 193.484,304.897 194.230,304.983 194.317 C 305.228 194.561,306.465 191.996,306.317 191.552 C 306.245 191.335,305.880 191.833,305.506 192.658 M303.440 196.640 C 302.862 197.675,302.460 198.594,302.548 198.682 C 302.636 198.770,303.182 197.995,303.760 196.960 C 304.338 195.925,304.740 195.006,304.652 194.918 C 304.564 194.830,304.018 195.605,303.440 196.640 M265.040 199.040 C 264.462 200.075,264.060 200.994,264.148 201.082 C 264.236 201.170,264.782 200.395,265.360 199.360 C 265.938 198.325,266.340 197.406,266.252 197.318 C 266.164 197.230,265.618 198.005,265.040 199.040 M301.558 200.100 C 300.570 201.994,298.632 205.503,297.196 208.000 C 295.235 211.409,293.805 214.303,294.329 213.800 C 294.559 213.580,295.271 212.410,295.912 211.200 C 296.553 209.990,297.555 208.145,298.139 207.100 C 298.722 206.055,299.669 204.345,300.242 203.300 C 300.815 202.255,301.417 201.220,301.580 201.000 C 301.982 200.457,302.416 199.200,302.202 199.200 C 302.106 199.200,301.817 199.605,301.558 200.100 M263.022 202.622 C 262.645 203.198,262.416 203.749,262.514 203.847 C 262.612 203.945,263.000 203.554,263.378 202.978 C 263.755 202.402,263.984 201.851,263.886 201.753 C 263.788 201.655,263.400 202.046,263.022 202.622 M258.214 211.435 C 257.841 212.004,257.627 212.561,257.739 212.672 C 257.850 212.783,258.229 212.318,258.581 211.637 C 259.359 210.133,259.144 210.015,258.214 211.435 M257.068 213.500 C 255.926 215.406,255.197 216.931,255.354 217.087 C 255.459 217.193,256.011 216.362,256.580 215.240 C 257.419 213.584,257.772 212.324,257.068 213.500 M293.019 215.563 C 292.667 216.243,292.519 216.799,292.690 216.797 C 293.055 216.793,294.069 214.735,293.825 214.492 C 293.734 214.400,293.371 214.882,293.019 215.563 M254.668 217.900 C 254.158 218.751,252.550 221.634,251.601 223.400 C 251.010 224.500,249.685 226.912,248.657 228.760 C 247.629 230.608,246.865 232.199,246.961 232.295 C 247.057 232.390,247.355 232.048,247.623 231.534 C 248.459 229.935,251.708 223.994,253.877 220.100 C 254.941 218.189,255.611 216.325,254.668 217.900 M290.586 220.100 L 289.952 221.400 290.767 220.400 C 291.552 219.437,291.808 218.800,291.410 218.800 C 291.306 218.800,290.935 219.385,290.586 220.100 M288.214 224.235 C 287.841 224.804,287.627 225.361,287.739 225.472 C 287.850 225.583,288.229 225.118,288.581 224.437 C 289.359 222.933,289.144 222.815,288.214 224.235 M339.861 225.101 C 339.758 225.267,340.900 225.402,342.398 225.401 C 343.896 225.401,345.039 225.265,344.937 225.100 C 344.696 224.708,340.103 224.709,339.861 225.101 M337.829 226.209 C 337.405 226.529,337.138 226.871,337.235 226.969 C 337.332 227.066,337.859 226.802,338.406 226.382 C 338.953 225.961,339.220 225.620,339.000 225.622 C 338.780 225.624,338.253 225.888,337.829 226.209 M346.654 226.367 C 348.403 227.434,349.849 229.479,350.353 231.600 L 350.781 233.400 350.576 231.642 C 350.288 229.165,347.587 225.599,346.000 225.602 C 345.670 225.603,345.964 225.947,346.654 226.367 M286.208 227.879 C 284.819 230.343,279.540 241.407,278.803 243.400 C 278.640 243.840,278.321 244.650,278.094 245.200 C 277.867 245.750,277.461 246.830,277.193 247.600 C 276.925 248.370,276.356 249.785,275.930 250.744 C 275.503 251.703,275.262 252.595,275.393 252.726 C 275.524 252.858,275.736 252.568,275.863 252.083 L 276.093 251.200 304.996 251.200 L 333.898 251.200 334.082 253.100 C 334.355 255.928,336.987 260.400,338.379 260.400 C 338.535 260.400,337.924 259.629,337.020 258.686 C 334.574 256.132,334.409 255.159,334.330 242.754 C 334.292 236.729,334.191 232.565,334.107 233.500 L 333.954 235.200 308.577 235.200 C 288.540 235.200,283.201 235.095,283.204 234.700 C 283.207 234.425,284.197 232.415,285.405 230.234 C 286.614 228.053,287.532 226.199,287.447 226.114 C 287.362 226.028,286.804 226.823,286.208 227.879 M336.143 227.778 C 335.452 228.529,334.396 230.692,334.433 231.280 C 334.451 231.566,334.737 231.170,335.069 230.400 C 335.402 229.630,335.956 228.684,336.301 228.298 C 336.646 227.911,336.855 227.524,336.764 227.438 C 336.674 227.351,336.394 227.504,336.143 227.778 M350.901 243.400 C 350.905 248.680,350.987 252.597,351.082 252.104 L 351.255 251.209 368.311 251.104 L 385.367 251.000 385.705 249.600 C 386.563 246.040,386.833 244.863,387.220 243.000 C 387.896 239.740,388.293 237.879,388.605 236.500 L 388.900 235.200 370.079 235.200 C 352.491 235.200,351.247 235.154,351.076 234.500 C 350.975 234.115,350.896 238.120,350.901 243.400 M244.904 235.474 C 244.201 236.988,244.610 237.128,245.381 235.637 C 245.733 234.957,245.881 234.401,245.710 234.403 C 245.540 234.405,245.177 234.887,244.904 235.474 M241.822 241.022 C 241.445 241.598,241.216 242.149,241.314 242.247 C 241.412 242.345,241.800 241.954,242.178 241.378 C 242.555 240.802,242.784 240.251,242.686 240.153 C 242.588 240.055,242.200 240.446,241.822 241.022 M228.401 242.401 C 228.871 243.061,229.647 243.811,230.124 244.067 C 230.725 244.388,230.593 244.132,229.696 243.235 C 228.983 242.522,228.400 241.772,228.400 241.569 C 228.400 241.366,228.208 241.200,227.973 241.200 C 227.738 241.200,227.930 241.740,228.401 242.401 M240.230 243.151 C 240.111 243.345,239.365 243.810,238.574 244.186 C 237.783 244.561,237.223 244.956,237.330 245.064 C 237.603 245.337,239.750 244.183,240.378 243.426 C 240.664 243.082,240.797 242.800,240.673 242.800 C 240.549 242.800,240.349 242.958,240.230 243.151 M233.900 245.482 C 234.395 245.578,235.205 245.578,235.700 245.482 C 236.195 245.387,235.790 245.309,234.800 245.309 C 233.810 245.309,233.405 245.387,233.900 245.482 M98.500 253.600 C 98.497 254.590,98.625 256.570,98.786 258.000 L 99.078 260.600 99.104 258.200 C 99.118 256.880,98.990 254.900,98.818 253.800 L 98.507 251.800 98.500 253.600 M350.446 253.913 C 350.380 255.211,349.314 257.616,348.281 258.795 L 347.400 259.800 348.490 258.840 C 349.726 257.751,350.971 254.859,350.684 253.744 C 350.528 253.138,350.484 253.169,350.446 253.913 M274.600 254.400 C 274.450 254.873,274.417 255.350,274.527 255.460 C 274.637 255.570,274.850 255.273,275.000 254.800 C 275.150 254.327,275.183 253.850,275.073 253.740 C 274.963 253.630,274.750 253.927,274.600 254.400 M273.800 256.800 C 273.650 257.273,273.617 257.750,273.727 257.860 C 273.837 257.970,274.050 257.673,274.200 257.200 C 274.350 256.727,274.383 256.250,274.273 256.140 C 274.163 256.030,273.950 256.327,273.800 256.800 M339.541 260.901 C 339.743 261.103,340.333 261.201,340.854 261.119 C 341.655 260.993,341.598 260.937,340.487 260.752 C 339.693 260.621,339.319 260.679,339.541 260.901 M344.400 260.800 L 343.400 261.120 344.476 261.160 C 345.068 261.182,345.664 261.020,345.800 260.800 C 346.081 260.345,345.820 260.345,344.400 260.800 M99.468 262.800 C 99.600 264.010,99.774 265.075,99.854 265.167 C 100.164 265.521,99.925 262.157,99.586 261.400 C 99.352 260.878,99.312 261.363,99.468 262.800 M270.600 266.000 C 270.450 266.473,270.417 266.950,270.527 267.060 C 270.637 267.170,270.850 266.873,271.000 266.400 C 271.150 265.927,271.183 265.450,271.073 265.340 C 270.963 265.230,270.750 265.527,270.600 266.000 M100.247 267.200 C 100.366 268.190,100.618 269.540,100.805 270.200 C 100.992 270.860,101.362 272.210,101.627 273.200 C 102.562 276.698,102.902 277.807,103.249 278.495 C 103.442 278.877,103.600 279.464,103.600 279.800 C 103.600 280.136,103.759 280.723,103.953 281.105 C 104.148 281.487,104.484 282.250,104.700 282.800 C 106.608 287.653,107.893 290.205,107.314 287.994 C 107.198 287.550,106.945 287.090,106.752 286.970 C 106.558 286.851,106.400 286.491,106.400 286.172 C 106.400 285.853,106.053 284.828,105.628 283.896 C 105.203 282.963,104.460 280.940,103.975 279.400 C 103.491 277.860,102.964 276.240,102.803 275.800 C 102.062 273.771,101.600 272.081,101.600 271.400 C 101.600 270.991,101.430 270.104,101.223 269.428 C 101.015 268.753,100.662 267.570,100.437 266.800 C 100.043 265.446,100.037 265.459,100.247 267.200 M269.142 269.661 C 268.639 270.838,267.362 273.510,266.304 275.600 C 265.247 277.690,264.677 279.040,265.039 278.600 C 265.896 277.558,270.485 267.952,270.242 267.709 C 270.140 267.606,269.644 268.485,269.142 269.661 M291.862 275.100 C 291.760 275.265,292.992 275.400,294.600 275.400 C 296.208 275.400,297.440 275.265,297.338 275.100 C 297.236 274.935,296.004 274.800,294.600 274.800 C 293.196 274.800,291.964 274.935,291.862 275.100 M289.522 276.430 C 287.733 277.766,286.620 279.966,286.400 282.600 L 286.200 285.000 273.669 285.106 L 261.137 285.211 261.969 284.044 C 262.426 283.402,262.800 282.679,262.800 282.438 C 262.800 282.197,262.959 282.000,263.153 282.000 C 263.348 282.000,263.618 281.685,263.754 281.300 C 263.889 280.915,264.102 280.330,264.226 280.000 C 264.351 279.670,263.631 280.660,262.628 282.200 C 261.625 283.740,260.689 285.360,260.548 285.800 C 260.407 286.240,260.168 286.690,260.016 286.800 C 259.864 286.910,258.957 288.170,258.000 289.600 C 257.043 291.030,256.154 292.290,256.025 292.400 C 255.895 292.510,254.996 293.590,254.027 294.800 C 253.057 296.010,250.002 299.295,247.238 302.100 C 244.473 304.905,242.365 307.200,242.553 307.200 C 242.740 307.200,243.998 306.013,245.347 304.563 C 249.104 300.524,247.466 300.800,267.700 300.800 C 287.383 300.800,286.396 300.653,286.407 303.580 C 286.422 307.824,290.150 311.200,294.822 311.200 C 296.324 311.200,297.639 311.060,297.745 310.889 C 297.851 310.717,296.697 310.647,295.180 310.733 C 291.667 310.932,289.402 309.766,287.711 306.889 L 286.600 305.000 286.600 293.000 C 286.600 279.467,286.710 278.930,289.958 276.619 C 290.746 276.059,291.213 275.606,290.995 275.613 C 290.778 275.620,290.115 275.987,289.522 276.430 M299.101 276.447 C 299.817 276.905,300.850 278.027,301.397 278.940 C 302.485 280.754,302.761 280.658,301.800 278.801 C 301.207 277.653,298.861 275.594,298.162 275.607 C 297.963 275.610,298.386 275.988,299.101 276.447 M302.600 292.998 C 302.600 300.902,302.723 304.733,302.939 303.590 C 303.125 302.606,303.346 301.570,303.431 301.288 C 303.554 300.878,309.593 300.784,333.884 300.813 C 358.549 300.842,364.215 300.751,364.352 300.324 C 364.444 300.036,364.628 299.710,364.760 299.600 C 365.037 299.369,365.788 298.078,366.970 295.800 C 367.426 294.920,367.892 294.110,368.005 294.000 C 368.118 293.890,368.653 292.900,369.193 291.800 C 369.733 290.700,370.560 289.170,371.029 288.400 C 371.499 287.630,372.012 286.595,372.169 286.100 L 372.454 285.200 338.014 285.200 C 310.809 285.200,303.544 285.095,303.426 284.700 C 303.344 284.425,303.125 283.393,302.939 282.408 C 302.722 281.263,302.600 285.093,302.600 292.998 M107.621 289.396 C 107.592 289.943,110.452 295.682,110.653 295.481 C 110.742 295.391,110.101 293.897,109.228 292.159 C 108.356 290.422,107.632 289.178,107.621 289.396 M111.273 297.000 C 111.523 297.550,111.884 298.000,112.073 298.000 C 112.263 298.000,112.124 297.550,111.763 297.000 C 111.403 296.450,111.043 296.000,110.963 296.000 C 110.883 296.000,111.022 296.450,111.273 297.000 M113.200 300.138 C 113.200 300.240,113.792 301.375,114.515 302.662 C 116.046 305.384,118.297 310.145,119.640 313.500 C 120.580 315.849,120.920 316.653,121.247 317.295 C 121.441 317.677,121.600 318.431,121.600 318.971 C 121.600 319.511,121.780 320.064,122.000 320.200 C 122.220 320.336,122.400 320.876,122.400 321.400 C 122.400 321.924,122.580 322.464,122.800 322.600 C 123.020 322.736,123.200 323.366,123.200 324.000 C 123.200 324.634,123.380 325.264,123.600 325.400 C 123.820 325.536,124.000 326.256,124.000 327.000 C 124.000 327.744,124.177 328.462,124.394 328.596 C 124.805 328.850,124.604 327.054,124.015 325.200 C 123.840 324.650,123.293 322.850,122.801 321.200 C 121.753 317.693,121.411 316.739,120.000 313.400 C 119.721 312.740,119.360 311.840,119.198 311.400 C 118.135 308.518,113.200 299.252,113.200 300.138 M301.809 306.372 C 301.664 306.830,301.068 307.788,300.486 308.502 C 299.573 309.622,299.555 309.691,300.355 309.001 C 301.357 308.137,302.580 306.046,302.266 305.733 C 302.160 305.627,301.954 305.914,301.809 306.372 M239.400 315.200 C 239.250 315.673,239.217 316.150,239.327 316.260 C 239.437 316.370,239.650 316.073,239.800 315.600 C 239.950 315.127,239.983 314.650,239.873 314.540 C 239.763 314.430,239.550 314.727,239.400 315.200 M238.629 317.829 C 238.481 318.415,238.451 318.984,238.561 319.094 C 238.671 319.204,238.881 318.815,239.029 318.229 C 239.176 317.642,239.206 317.073,239.096 316.963 C 238.986 316.853,238.776 317.242,238.629 317.829 M237.829 320.629 C 237.681 321.215,237.638 321.772,237.732 321.866 C 237.827 321.960,238.024 321.558,238.171 320.971 C 238.319 320.385,238.362 319.828,238.268 319.734 C 238.173 319.640,237.976 320.042,237.829 320.629 M237.015 324.200 C 236.856 325.080,236.564 326.430,236.366 327.200 C 236.167 327.970,236.021 329.050,236.042 329.600 C 236.063 330.150,236.424 328.985,236.844 327.011 C 237.264 325.037,237.539 323.237,237.455 323.011 C 237.371 322.785,237.173 323.320,237.015 324.200 M124.806 330.433 C 124.809 331.185,124.992 332.070,125.212 332.400 C 125.491 332.819,125.533 332.458,125.350 331.200 C 125.025 328.959,124.798 328.640,124.806 330.433 M235.598 331.033 C 235.597 331.235,235.330 334.280,235.003 337.800 C 234.543 342.762,234.427 349.639,234.488 368.400 L 234.566 392.600 234.831 366.400 C 234.976 351.990,235.298 338.145,235.547 335.633 C 235.796 333.121,235.909 330.976,235.800 330.866 C 235.690 330.756,235.599 330.832,235.598 331.033 M125.600 334.910 C 125.600 335.923,125.758 336.850,125.950 336.969 C 126.272 337.168,126.079 333.610,125.747 333.233 C 125.666 333.142,125.600 333.896,125.600 334.910 M126.428 341.233 C 126.444 342.645,126.612 344.160,126.802 344.600 C 127.011 345.084,127.057 344.138,126.918 342.200 C 126.636 338.268,126.390 337.783,126.428 341.233 " stroke="none" fill="#5c54ab" fill-rule="evenodd"></path><path id="path4" d="M204.600 67.628 C 203.720 67.819,202.010 68.190,200.800 68.453 C 198.392 68.977,194.089 70.561,192.200 71.619 C 189.812 72.957,187.796 74.169,187.600 74.384 C 187.490 74.505,186.703 75.124,185.852 75.759 C 180.006 80.120,174.861 87.318,172.529 94.400 C 170.773 99.734,170.600 100.899,170.600 107.400 C 170.600 111.492,170.793 114.521,171.137 115.800 C 172.165 119.635,173.394 123.015,174.551 125.200 C 175.193 126.410,175.916 127.804,176.159 128.297 C 176.401 128.790,176.735 129.195,176.900 129.197 C 177.065 129.199,177.200 129.400,177.200 129.644 C 177.200 130.066,179.212 132.646,181.767 135.502 C 182.409 136.219,183.939 137.570,185.167 138.503 C 186.395 139.436,187.460 140.335,187.533 140.500 C 187.607 140.665,187.844 140.800,188.061 140.800 C 188.278 140.800,189.208 141.303,190.128 141.917 C 191.944 143.131,194.015 144.118,194.251 143.882 C 194.332 143.801,193.904 143.484,193.299 143.179 C 170.081 131.443,163.717 102.127,180.049 82.140 C 182.357 79.316,187.895 74.400,188.769 74.400 C 189.006 74.400,189.200 74.241,189.200 74.047 C 189.200 73.852,189.515 73.590,189.900 73.464 C 190.285 73.338,191.357 72.784,192.283 72.233 C 201.472 66.762,216.900 66.525,227.600 71.691 C 245.246 80.210,253.669 99.228,248.464 118.800 C 245.931 128.328,237.755 138.050,228.300 142.776 L 226.400 143.726 226.498 191.563 L 226.597 239.400 226.700 191.798 L 226.803 144.197 228.702 143.216 C 255.940 129.139,258.297 91.260,233.000 74.135 C 224.961 68.693,212.668 65.876,204.600 67.628 M311.766 83.195 L 270.931 83.400 269.320 84.517 C 264.146 88.102,264.462 95.486,269.926 98.698 L 271.800 99.800 317.861 99.800 C 343.195 99.800,363.839 99.665,363.738 99.500 C 363.636 99.335,342.946 99.200,317.760 99.200 C 273.100 99.200,271.930 99.181,270.434 98.418 C 264.875 95.582,264.572 88.156,269.877 84.792 L 271.757 83.600 312.055 83.600 C 338.489 83.600,352.438 83.462,352.600 83.200 C 352.736 82.980,352.792 82.843,352.724 82.895 C 352.656 82.948,334.225 83.083,311.766 83.195 M271.286 115.567 C 264.284 117.949,263.569 127.590,270.158 130.780 C 271.825 131.587,272.332 131.598,301.026 131.505 L 330.200 131.410 300.771 131.205 L 271.341 131.000 269.655 129.884 C 264.566 126.516,264.991 119.159,270.434 116.382 C 271.916 115.627,272.978 115.600,301.451 115.600 C 317.666 115.600,330.858 115.535,330.767 115.455 C 330.019 114.803,273.216 114.911,271.286 115.567 M335.100 117.933 C 335.925 118.777,336.678 119.404,336.773 119.327 C 337.003 119.142,334.333 116.400,333.922 116.400 C 333.745 116.400,334.275 117.090,335.100 117.933 M336.828 120.276 C 336.918 121.315,337.544 122.196,337.572 121.324 C 337.587 120.842,337.420 120.336,337.200 120.200 C 336.980 120.064,336.813 120.098,336.828 120.276 M337.246 125.067 C 337.221 125.324,337.084 125.864,336.941 126.267 C 336.740 126.836,336.794 126.897,337.179 126.542 C 337.452 126.291,337.589 125.751,337.484 125.342 C 337.379 124.934,337.272 124.810,337.246 125.067 M335.086 128.859 C 334.253 129.731,333.893 130.270,334.286 130.059 C 335.178 129.578,336.995 127.660,336.768 127.439 C 336.676 127.349,335.918 127.988,335.086 128.859 M173.190 171.739 C 170.181 172.911,168.877 173.803,167.018 175.963 L 165.436 177.800 167.618 175.740 C 169.781 173.698,172.702 172.000,174.052 172.000 C 174.437 172.000,174.864 171.820,175.000 171.600 C 176.311 169.478,185.463 172.110,189.576 175.791 C 190.799 176.886,191.440 177.338,191.000 176.794 C 187.761 172.795,183.510 170.788,178.400 170.845 C 176.346 170.868,174.703 171.150,173.190 171.739 M126.168 176.400 C 128.264 178.843,128.685 179.226,127.704 177.800 C 127.250 177.140,126.371 176.150,125.750 175.600 C 125.001 174.936,125.141 175.204,126.168 176.400 M159.215 177.400 C 159.217 177.620,159.586 178.250,160.036 178.800 C 160.579 179.464,160.715 179.531,160.440 179.000 C 159.766 177.695,159.212 176.972,159.215 177.400 M192.574 179.900 C 193.110 180.945,193.740 182.250,193.976 182.800 L 194.404 183.800 194.184 182.800 C 193.877 181.403,192.262 178.014,191.900 178.006 C 191.735 178.003,192.038 178.855,192.574 179.900 M288.100 179.476 C 288.485 179.576,289.115 179.576,289.500 179.476 C 289.885 179.375,289.570 179.293,288.800 179.293 C 288.030 179.293,287.715 179.375,288.100 179.476 M129.632 181.926 C 129.585 182.706,130.362 184.000,130.876 184.000 C 131.145 184.000,131.080 183.720,130.714 183.300 C 130.379 182.915,130.005 182.330,129.884 182.000 C 129.732 181.586,129.653 181.563,129.632 181.926 M273.600 186.200 C 272.628 187.190,271.923 188.000,272.033 188.000 C 272.143 188.000,273.028 187.190,274.000 186.200 C 274.972 185.210,275.677 184.400,275.567 184.400 C 275.457 184.400,274.572 185.210,273.600 186.200 M98.493 186.000 C 98.493 186.770,98.575 187.085,98.676 186.700 C 98.776 186.315,98.776 185.685,98.676 185.300 C 98.575 184.915,98.493 185.230,98.493 186.000 M98.581 237.400 C 98.581 245.540,98.634 248.813,98.700 244.674 C 98.765 240.534,98.765 233.874,98.699 229.874 C 98.634 225.873,98.581 229.260,98.581 237.400 M340.200 225.493 C 338.183 225.998,336.324 227.799,335.165 230.373 C 333.722 233.574,334.357 258.576,335.844 257.090 C 335.965 256.968,335.825 256.448,335.532 255.934 C 334.554 254.217,334.783 231.826,335.800 229.826 C 337.269 226.935,339.170 225.822,342.640 225.822 C 344.286 225.822,345.311 225.695,344.917 225.539 C 344.105 225.219,341.402 225.192,340.200 225.493 M346.000 226.386 C 346.000 226.614,346.239 226.800,346.530 226.800 C 347.184 226.800,348.491 228.198,349.335 229.800 C 349.683 230.460,349.975 230.726,349.984 230.391 C 349.993 230.056,349.446 229.110,348.769 228.288 C 347.433 226.668,346.000 225.683,346.000 226.386 M350.095 243.200 C 350.095 249.910,350.232 254.860,350.400 254.200 C 350.568 253.540,350.705 248.590,350.705 243.200 C 350.705 237.810,350.568 232.860,350.400 232.200 C 350.232 231.540,350.095 236.490,350.095 243.200 M281.568 236.300 C 281.099 237.345,280.434 238.830,280.091 239.600 C 279.747 240.370,279.395 241.135,279.309 241.300 C 279.223 241.465,279.246 241.600,279.360 241.600 C 279.555 241.600,281.669 237.264,282.431 235.300 C 283.079 233.629,282.427 234.385,281.568 236.300 M278.233 243.633 C 277.867 244.550,277.660 245.393,277.774 245.507 C 277.888 245.621,278.092 245.374,278.227 244.957 C 278.362 244.541,278.666 243.795,278.904 243.301 C 279.141 242.806,279.237 242.303,279.117 242.184 C 278.998 242.065,278.600 242.717,278.233 243.633 M276.677 247.877 C 276.300 248.893,276.079 249.813,276.187 249.920 C 276.294 250.027,276.492 249.774,276.628 249.357 C 276.764 248.941,277.062 248.099,277.291 247.487 C 277.520 246.875,277.630 246.297,277.535 246.201 C 277.440 246.106,277.054 246.860,276.677 247.877 M349.439 256.270 C 349.052 257.478,347.377 259.181,345.741 260.029 C 344.801 260.517,344.590 260.727,345.200 260.568 C 347.235 260.037,350.641 256.508,349.866 255.733 C 349.760 255.627,349.568 255.868,349.439 256.270 M336.830 258.638 C 337.887 259.769,339.656 260.809,340.480 260.784 C 340.766 260.775,340.307 260.422,339.460 259.999 C 338.613 259.577,337.602 258.864,337.213 258.415 C 336.824 257.967,336.361 257.600,336.183 257.600 C 336.006 257.600,336.297 258.067,336.830 258.638 M291.661 275.627 C 289.264 276.587,286.768 279.682,286.843 281.600 C 286.873 282.362,286.981 282.227,287.297 281.034 C 287.760 279.282,290.747 276.004,291.889 275.994 C 292.280 275.991,292.870 275.813,293.200 275.600 C 294.018 275.072,293.003 275.089,291.661 275.627 M296.000 275.562 C 296.330 275.796,296.874 275.991,297.209 275.994 C 298.101 276.003,300.710 278.275,301.504 279.736 C 302.110 280.851,302.192 282.418,302.196 293.000 C 302.200 306.195,301.980 307.419,299.349 308.827 C 298.827 309.107,298.400 309.485,298.400 309.668 C 298.400 309.850,298.085 310.003,297.700 310.006 C 297.315 310.009,296.730 310.204,296.400 310.438 C 295.945 310.761,296.091 310.801,297.000 310.601 C 301.922 309.520,302.600 307.390,302.600 293.000 L 302.600 281.000 301.504 279.135 C 300.349 277.170,298.600 275.838,296.600 275.399 C 295.691 275.199,295.545 275.239,296.000 275.562 M286.569 293.200 C 286.569 297.710,286.627 299.555,286.698 297.300 C 286.770 295.045,286.770 291.355,286.698 289.100 C 286.627 286.845,286.569 288.690,286.569 293.200 M257.166 290.100 C 253.992 294.486,251.896 296.938,246.825 302.200 L 242.200 306.999 246.534 302.800 C 248.917 300.490,251.971 297.250,253.319 295.600 C 254.668 293.950,255.881 292.510,256.016 292.400 C 256.435 292.057,259.640 287.200,259.447 287.200 C 259.346 287.200,258.320 288.505,257.166 290.100 M286.841 304.365 C 286.788 305.621,288.488 308.504,289.784 309.352 C 291.173 310.263,291.064 310.008,289.248 308.098 C 288.394 307.201,287.512 305.776,287.289 304.933 C 286.989 303.801,286.872 303.652,286.841 304.365 M291.600 310.400 C 291.930 310.613,292.470 310.788,292.800 310.788 C 293.333 310.788,293.333 310.745,292.800 310.400 C 292.470 310.187,291.930 310.012,291.600 310.012 C 291.067 310.012,291.067 310.055,291.600 310.400 M234.509 340.800 C 234.509 341.790,234.587 342.195,234.682 341.700 C 234.778 341.205,234.778 340.395,234.682 339.900 C 234.587 339.405,234.509 339.810,234.509 340.800 M127.385 364.000 C 127.385 374.450,127.436 378.725,127.500 373.500 C 127.563 368.275,127.563 359.725,127.500 354.500 C 127.436 349.275,127.385 353.550,127.385 364.000 " stroke="none" fill="#6d84d1" fill-rule="evenodd"></path></g></svg>